<?xml version="1.0" encoding="utf-8"?>
<svg viewBox="60.945 27.897 353.007 446.842" width="353.007" height="446.842" xmlns="http://www.w3.org/2000/svg">
  <path fill="#C2B195" opacity="1.000000" stroke="none" d="M 319.032 27.976 C 319.193 28.453 319.353 28.929 319.444 29.577 C 319.343 30.327 319.248 30.91 319.292 31.482 C 319.513 34.38 319.769 37.275 320.014 40.171 C 320.199 42.364 320.384 44.557 320.574 46.75 C 320.877 50.266 321.195 53.78 321.486 57.296 C 321.771 60.73 322.017 64.167 322.303 67.6 C 322.691 72.276 323.103 76.951 323.5 81.626 C 323.704 84.027 323.895 86.429 324.096 88.83 C 324.398 92.429 324.703 96.028 325.009 99.627 C 325.198 101.863 325.39 104.098 325.583 106.334 C 325.969 110.804 326.368 115.273 326.741 119.745 C 327.031 123.221 327.282 126.702 327.565 130.179 C 327.866 133.864 328.187 137.547 328.495 141.231 C 328.775 144.584 329.039 147.938 329.328 151.289 C 329.626 154.765 329.958 158.237 330.251 161.713 C 330.464 164.237 330.62 166.767 330.832 169.291 C 331.121 172.726 331.452 176.156 331.741 179.59 C 332.023 182.942 332.263 186.298 332.542 189.65 C 332.852 193.374 333.192 197.096 333.506 200.819 C 333.781 204.088 334.03 207.358 334.302 210.626 C 334.612 214.349 334.94 218.07 335.25 221.792 C 335.525 225.103 335.778 228.416 336.059 231.727 C 336.448 236.32 336.862 240.911 337.25 245.505 C 337.539 248.94 337.796 252.378 338.082 255.813 C 338.378 259.372 338.696 262.929 338.997 266.488 C 339.196 268.847 339.377 271.207 339.576 273.566 C 339.879 277.164 340.193 280.762 340.496 284.361 C 340.699 286.761 340.883 289.163 341.088 291.564 C 341.387 295.08 341.706 298.595 341.999 302.112 C 342.212 304.678 342.375 307.248 342.596 309.813 C 342.963 314.074 343.359 318.333 343.743 322.592 C 343.973 325.155 344.241 327.715 344.423 330.281 C 344.635 333.262 344.771 336.248 344.873 339.155 C 344.364 338.399 343.921 337.721 343.476 337.032 C 343.474 337.021 343.453 337.012 343.448 336.919 C 341.191 332.157 338.961 327.477 336.683 322.821 C 333.916 317.164 331.101 311.53 328.321 305.879 C 326.141 301.448 323.983 297.006 321.816 292.569 C 319.504 287.833 317.206 283.089 314.87 278.365 C 314.304 277.22 313.612 276.138 312.986 275.022 C 312.992 275.016 312.975 275.016 312.977 274.922 C 312.333 273.619 311.688 272.41 311.03 271.152 C 311.017 271.103 310.974 271.013 310.976 270.92 C 310.311 269.559 309.645 268.293 308.987 267.02 C 308.994 267.015 308.976 267.015 308.977 266.922 C 308.27 265.236 307.615 263.617 306.841 262.056 C 304.909 258.156 302.882 254.302 300.967 250.393 C 297.825 243.979 294.757 237.53 291.628 231.111 C 290.134 228.047 288.542 225.03 287.045 221.967 C 285.458 218.722 283.968 215.429 282.367 212.192 C 280.693 208.807 278.892 205.486 277.228 202.097 C 274.449 196.438 271.759 190.735 268.986 185.073 C 266.613 180.227 264.177 175.412 261.83 170.5 C 262.036 170.117 262.198 169.825 262.321 169.516 C 265.161 162.419 267.991 155.318 270.835 148.222 C 273.695 141.088 276.589 133.967 279.431 126.825 C 283.194 117.367 286.907 107.89 290.668 98.431 C 293.102 92.309 295.59 86.208 298.041 80.093 C 300.369 74.287 302.672 68.471 305.001 62.665 C 306.761 58.277 308.553 53.902 310.314 49.515 C 311.872 45.635 313.417 41.749 314.949 37.858 C 316.179 34.734 317.38 31.599 318.639 28.42 C 318.799 28.239 318.916 28.108 319.032 27.976 Z"/>
  <path fill="#416426" opacity="1.000000" stroke="none" d="M 336.268 474.739 C 335.95 474.556 335.575 474.431 335.323 474.181 C 332.275 471.161 329.233 468.134 326.214 465.085 C 319.213 458.015 312.226 450.932 305.232 443.855 C 298.241 436.78 291.248 429.706 284.256 422.631 C 277.234 415.526 270.213 408.42 263.191 401.314 C 256.197 394.237 249.204 387.16 242.21 380.084 C 235.216 373.007 228.222 365.931 221.228 358.853 C 214.293 351.836 207.36 344.817 200.425 337.8 C 193.343 330.635 186.26 323.471 179.178 316.306 C 172.214 309.259 165.251 302.21 158.287 295.162 C 151.265 288.056 144.242 280.95 137.22 273.844 C 130.257 266.798 123.294 259.753 116.331 252.708 C 109.279 245.572 102.227 238.436 95.175 231.299 C 88.182 224.222 81.182 217.15 74.197 210.063 C 70.81 206.628 67.448 203.168 64.082 199.711 C 63.858 199.481 63.704 199.182 63.587 198.836 C 63.754 198.766 63.852 198.775 63.987 198.852 C 64.259 199.117 64.494 199.313 64.763 199.563 C 64.867 199.662 64.938 199.706 65.008 199.747 C 65.008 199.743 64.999 199.742 65.027 199.799 C 65.124 199.9 65.193 199.946 65.259 199.99 C 65.256 199.99 65.256 199.984 65.306 200.052 C 67.837 201.922 70.317 203.728 72.802 205.526 C 79.251 210.19 85.707 214.843 92.15 219.515 C 99.967 225.185 107.767 230.876 115.584 236.545 C 122.564 241.607 129.565 246.641 136.542 251.707 C 145.834 258.454 155.109 265.224 164.397 271.977 C 170.432 276.365 176.474 280.744 182.518 285.118 C 191.313 291.481 200.114 297.835 208.911 304.196 C 219.559 311.897 230.209 319.594 240.85 327.303 C 252.331 335.622 263.802 343.954 275.279 352.277 C 281.017 356.438 286.759 360.593 292.503 364.745 C 297.979 368.703 303.469 372.642 308.937 376.61 C 313.367 379.824 317.764 383.084 322.196 386.295 C 324.442 387.922 326.733 389.486 329.046 391.162 C 329.33 393.633 329.592 396.019 329.809 398.409 C 330.135 401.999 330.44 405.591 330.734 409.184 C 331.011 412.572 331.24 415.965 331.527 419.352 C 331.911 423.894 332.345 428.431 332.73 432.972 C 333.02 436.401 333.239 439.837 333.539 443.265 C 334.002 448.552 334.53 453.834 334.989 459.122 C 335.442 464.325 335.844 469.533 336.268 474.739 Z"/>
  <path fill="#B2FB78" opacity="1.000000" stroke="none" d="M 344.94 339.232 C 344.771 336.248 344.635 333.262 344.423 330.281 C 344.241 327.715 343.973 325.155 343.743 322.592 C 343.359 318.333 342.963 314.074 342.596 309.813 C 342.375 307.248 342.212 304.678 341.999 302.112 C 341.706 298.595 341.387 295.08 341.088 291.564 C 340.883 289.163 340.699 286.761 340.496 284.361 C 340.193 280.762 339.879 277.164 339.576 273.566 C 339.377 271.207 339.196 268.847 338.997 266.488 C 338.696 262.929 338.378 259.372 338.082 255.813 C 337.796 252.378 337.539 248.94 337.25 245.505 C 336.862 240.911 336.448 236.32 336.059 231.727 C 335.778 228.416 335.525 225.103 335.25 221.792 C 334.94 218.07 334.612 214.349 334.302 210.626 C 334.03 207.358 333.781 204.088 333.506 200.819 C 333.192 197.096 332.852 193.374 332.542 189.65 C 332.263 186.298 332.023 182.942 331.741 179.59 C 331.452 176.156 331.121 172.726 330.832 169.291 C 330.62 166.767 330.464 164.237 330.251 161.713 C 329.958 158.237 329.626 154.765 329.328 151.289 C 329.039 147.938 328.775 144.584 328.495 141.231 C 328.187 137.547 327.866 133.864 327.565 130.179 C 327.282 126.702 327.031 123.221 326.741 119.745 C 326.368 115.273 325.969 110.804 325.583 106.334 C 325.39 104.098 325.198 101.863 325.009 99.627 C 324.703 96.028 324.398 92.429 324.096 88.83 C 323.895 86.429 323.704 84.027 323.5 81.626 C 323.103 76.951 322.691 72.276 322.303 67.6 C 322.017 64.167 321.771 60.73 321.486 57.296 C 321.195 53.78 320.877 50.266 320.574 46.75 C 320.384 44.557 320.199 42.364 320.014 40.171 C 319.769 37.275 319.513 34.38 319.292 31.482 C 319.248 30.91 319.343 30.327 319.429 29.678 C 320.404 33.174 321.339 36.738 322.241 40.311 C 324.385 48.794 326.513 57.28 328.647 65.766 C 331.349 76.506 334.045 87.247 336.752 97.986 C 339.13 107.416 341.522 116.843 343.902 126.272 C 346.522 136.65 349.135 147.029 351.75 157.408 C 353.96 166.179 356.17 174.95 358.378 183.722 C 361.088 194.49 363.782 205.262 366.51 216.025 C 368.882 225.383 371.305 234.728 373.68 244.086 C 375.473 251.154 377.222 258.234 378.997 265.307 C 380.962 273.137 382.937 280.965 384.903 288.795 C 387.776 300.239 390.636 311.686 393.518 323.128 C 395.795 332.17 398.103 341.203 400.384 350.244 C 402.682 359.352 404.963 368.464 407.252 377.574 C 409.434 386.26 411.615 394.946 413.799 403.631 C 413.848 403.823 413.932 404.007 413.945 404.339 C 413.856 404.516 413.821 404.548 413.715 404.527 C 412.656 403.584 411.653 402.711 410.684 401.802 C 407.508 398.82 404.36 395.808 401.173 392.839 C 396.926 388.882 392.65 384.958 388.392 381.014 C 385.986 378.786 383.582 376.556 381.194 374.309 C 376.811 370.186 372.443 366.049 368.066 361.92 C 365.197 359.214 362.334 356.502 359.449 353.814 C 354.805 349.488 350.145 345.179 345.43 340.805 C 345.225 340.242 345.083 339.737 344.94 339.232 Z"/>
  <path fill="#82C03E" opacity="1.000000" stroke="none" d="M 318.976 27.897 C 318.916 28.108 318.799 28.239 318.546 28.438 C 318.083 28.752 317.722 28.963 317.438 29.251 C 313.732 33.012 310.049 36.797 306.334 40.551 C 298.229 48.74 290.115 56.922 281.991 65.093 C 276.562 70.553 271.094 75.974 265.673 81.443 C 260.991 86.168 256.37 90.955 251.686 95.679 C 247.061 100.343 242.372 104.944 237.749 109.61 C 234.503 112.885 231.323 116.223 228.11 119.53 C 226.518 121.167 224.918 122.796 223.257 124.413 C 223.15 124.39 223.106 124.382 223.019 124.306 C 219.518 121.745 216.054 119.261 212.608 116.755 C 207.506 113.044 202.43 109.298 197.318 105.602 C 190.903 100.964 184.452 96.375 178.036 91.738 C 172.352 87.631 166.697 83.483 161.022 79.362 C 155.014 74.999 148.999 70.648 142.986 66.291 C 145.865 65.675 148.746 65.068 151.622 64.44 C 158.007 63.046 164.392 61.646 170.774 60.237 C 175.245 59.251 179.711 58.242 184.18 57.25 C 190.563 55.832 196.946 54.42 203.33 53.007 C 211.226 51.259 219.121 49.506 227.02 47.769 C 236.556 45.673 246.096 43.594 255.634 41.502 C 265.495 39.339 275.357 37.179 285.215 35.002 C 292.308 33.435 299.388 31.808 306.489 30.276 C 310.617 29.386 314.775 28.633 318.976 27.897 Z"/>
  <path fill="#F11CAD" opacity="1.000000" stroke="none" d="M 142.922 66.302 C 148.999 70.648 155.014 74.999 161.022 79.362 C 166.697 83.483 172.352 87.631 178.036 91.738 C 184.452 96.375 190.903 100.964 197.318 105.602 C 202.43 109.298 207.506 113.044 212.608 116.755 C 216.054 119.261 219.518 121.745 222.924 124.345 C 218.308 125.963 213.75 127.493 209.177 128.979 C 201.126 131.595 193.065 134.177 185.012 136.785 C 180.08 138.382 175.156 140.004 170.227 141.609 C 164.348 143.524 158.464 145.425 152.587 147.347 C 149.437 148.377 146.305 149.461 143.153 150.483 C 139.167 151.774 135.163 153.007 131.178 154.302 C 127.986 155.338 124.819 156.45 121.629 157.49 C 116.142 159.277 110.647 161.036 105.154 162.802 C 101.557 163.957 97.958 165.104 94.314 166.234 C 94.198 166.114 94.129 166.014 94.122 165.849 C 96.081 161.955 97.974 158.126 99.873 154.3 C 101.055 151.917 102.265 149.546 103.427 147.152 C 105.508 142.861 107.548 138.549 109.635 134.261 C 110.832 131.8 112.118 129.383 113.311 126.921 C 116.807 119.709 120.261 112.477 123.762 105.268 C 126.356 99.927 129.003 94.612 131.614 89.279 C 134.366 83.659 137.114 78.036 139.84 72.403 C 140.777 70.467 141.642 68.496 142.541 66.541 C 142.646 66.465 142.752 66.389 142.922 66.302 Z"/>
  <path fill="#AE6795" opacity="1.000000" stroke="none" d="M 413.787 404.58 C 413.821 404.548 413.856 404.516 413.941 404.434 C 414.085 405.775 412.823 406.214 412.08 406.961 C 410.601 408.449 408.986 409.803 407.417 411.2 C 402.942 415.185 398.459 419.16 393.987 423.147 C 392.228 424.716 390.498 426.318 388.741 427.89 C 384.12 432.023 379.483 436.139 374.868 440.279 C 372.034 442.821 369.247 445.416 366.406 447.95 C 362.183 451.716 357.917 455.434 353.696 459.202 C 350.824 461.765 348.013 464.395 345.146 466.963 C 342.255 469.553 339.328 472.103 336.342 474.705 C 335.844 469.533 335.442 464.325 334.989 459.122 C 334.53 453.834 334.002 448.552 333.539 443.265 C 333.239 439.837 333.02 436.401 332.73 432.972 C 332.345 428.431 331.911 423.894 331.527 419.352 C 331.24 415.965 331.011 412.572 330.734 409.184 C 330.44 405.591 330.135 401.999 329.809 398.409 C 329.592 396.019 329.33 393.633 329.11 391.126 C 329.252 390.92 329.372 390.835 329.521 390.841 C 329.827 391.181 330.072 391.594 330.384 391.653 C 332.092 391.978 333.815 392.216 335.533 392.484 C 339.009 393.028 342.489 393.55 345.96 394.123 C 349.483 394.704 352.992 395.377 356.519 395.934 C 362.252 396.839 367.999 397.654 373.732 398.561 C 378.093 399.251 382.44 400.035 386.796 400.759 C 395.135 402.146 403.474 403.533 411.821 404.872 C 412.445 404.972 413.13 404.686 413.787 404.58 Z"/>
  <path fill="#337366" opacity="1.000000" stroke="none" d="M 142.454 66.551 C 141.642 68.496 140.777 70.467 139.84 72.403 C 137.114 78.036 134.366 83.659 131.614 89.279 C 129.003 94.612 126.356 99.927 123.762 105.268 C 120.261 112.477 116.807 119.709 113.311 126.921 C 112.118 129.383 110.832 131.8 109.635 134.261 C 107.548 138.549 105.508 142.861 103.427 147.152 C 102.265 149.546 101.055 151.917 99.873 154.3 C 97.974 158.126 96.081 161.955 94.067 165.767 C 93.625 165.321 93.278 164.906 92.981 164.458 C 90.249 160.332 87.521 156.203 84.799 152.069 C 79.886 144.607 74.968 137.148 70.071 129.675 C 67.043 125.055 64.052 120.412 61.044 115.78 C 64.102 113.901 67.151 112.006 70.22 110.145 C 79.744 104.371 89.271 98.601 98.807 92.846 C 105.026 89.092 111.268 85.376 117.489 81.626 C 124.45 77.43 131.399 73.217 138.353 69.009 C 139.694 68.197 141.029 67.377 142.454 66.551 Z"/>
  <path fill="#7CD84A" opacity="1.000000" stroke="none" d="M 63.949 198.784 C 63.852 198.775 63.754 198.766 63.583 198.748 C 63.492 198.696 63.474 198.652 63.492 198.475 C 64.571 197.221 65.601 196.087 66.662 194.982 C 70.972 190.491 75.281 185.999 79.61 181.528 C 83.105 177.918 86.633 174.339 90.136 170.737 C 90.595 170.265 90.952 169.689 91.43 169.239 C 92.444 168.284 93.506 167.38 94.66 166.465 C 97.258 166.481 99.745 166.475 102.231 166.509 C 102.706 166.515 103.178 166.676 103.708 166.834 C 104.007 166.943 104.25 167.016 104.493 167.019 C 109.811 167.097 115.129 167.165 120.447 167.241 C 121.028 167.249 121.608 167.297 122.238 167.388 C 122.364 167.481 122.439 167.54 122.514 167.541 C 127.826 167.612 133.139 167.678 138.451 167.745 C 138.907 167.751 139.364 167.771 139.82 167.779 C 143.219 167.842 146.617 167.904 150.131 167.976 C 153.64 168.074 157.033 168.183 160.426 168.246 C 165.813 168.347 171.202 168.411 176.589 168.512 C 177.106 168.521 177.62 168.682 178.197 168.84 C 181.251 168.923 184.246 168.941 187.358 168.97 C 190.837 169.068 194.2 169.155 197.563 169.244 C 200.676 169.326 203.789 169.424 206.903 169.489 C 211.766 169.59 216.631 169.664 221.494 169.759 C 225.316 169.833 229.137 169.914 232.958 170.014 C 233.36 170.025 233.759 170.186 234.218 170.345 C 237.26 170.425 240.244 170.436 243.345 170.461 C 245.645 170.483 247.826 170.473 250.007 170.508 C 250.854 170.522 251.699 170.637 252.592 170.782 C 252.973 170.949 253.307 171.119 253.64 171.116 C 254.75 171.105 255.859 170.992 256.967 171.009 C 257.313 171.015 257.654 171.308 257.896 171.481 C 257.521 171.494 257.248 171.496 256.868 171.491 C 255.846 171.648 254.93 171.81 253.907 171.977 C 252.236 172.193 250.672 172.392 249.111 172.618 C 244.839 173.235 240.571 173.883 236.297 174.481 C 230.998 175.222 225.693 175.912 220.394 176.65 C 217.354 177.073 214.325 177.571 211.286 177.993 C 207.219 178.557 203.143 179.06 199.076 179.628 C 194.843 180.219 190.618 180.874 186.386 181.468 C 181.58 182.142 176.767 182.767 171.96 183.435 C 167.112 184.109 162.268 184.818 157.42 185.495 C 153.269 186.075 149.114 186.621 144.963 187.199 C 140.032 187.885 135.104 188.592 130.173 189.283 C 125.081 189.997 119.986 190.697 114.894 191.413 C 111.198 191.933 107.505 192.485 103.808 192.998 C 98.507 193.732 93.201 194.437 87.9 195.167 C 81.694 196.021 75.487 196.868 69.287 197.764 C 67.496 198.023 65.728 198.439 63.949 198.784 Z"/>
  <path fill="#83053F" opacity="1.000000" stroke="none" d="M 94.548 166.456 C 93.506 167.38 92.444 168.284 91.43 169.239 C 90.952 169.689 90.595 170.265 90.136 170.737 C 86.633 174.339 83.105 177.918 79.61 181.528 C 75.281 185.999 70.972 190.491 66.662 194.982 C 65.601 196.087 64.571 197.221 63.475 198.407 C 63.287 198.161 63.045 197.853 63.032 197.537 C 62.894 194.217 62.767 190.895 62.686 187.573 C 62.598 183.955 62.584 180.335 62.496 176.716 C 62.346 170.61 62.162 164.504 61.995 158.398 C 61.826 152.212 61.661 146.026 61.495 139.841 C 61.329 133.698 61.163 127.555 61.002 121.412 C 60.954 119.556 60.923 117.7 60.964 115.812 C 64.052 120.412 67.043 125.055 70.071 129.675 C 74.968 137.148 79.886 144.607 84.799 152.069 C 87.521 156.203 90.249 160.332 92.981 164.458 C 93.278 164.906 93.625 165.321 94.004 165.833 C 94.129 166.014 94.198 166.114 94.367 166.279 C 94.493 166.382 94.521 166.419 94.548 166.456 Z"/>
  <path fill="#0CE430" opacity="1.000000" stroke="none" d="M 63.987 198.852 C 65.728 198.439 67.496 198.023 69.287 197.764 C 75.487 196.868 81.694 196.021 87.9 195.167 C 93.201 194.437 98.507 193.732 103.808 192.998 C 107.505 192.485 111.198 191.933 114.894 191.413 C 119.986 190.697 125.081 189.997 130.173 189.283 C 135.104 188.592 140.032 187.885 144.963 187.199 C 149.114 186.621 153.269 186.075 157.42 185.495 C 162.268 184.818 167.112 184.109 171.96 183.435 C 176.767 182.767 181.58 182.142 186.386 181.468 C 190.618 180.874 194.843 180.219 199.076 179.628 C 203.143 179.06 207.219 178.557 211.286 177.993 C 214.325 177.571 217.354 177.073 220.394 176.65 C 225.693 175.912 230.998 175.222 236.297 174.481 C 240.571 173.883 244.839 173.235 249.111 172.618 C 250.672 172.392 252.236 172.193 254.014 171.987 C 255.145 171.828 256.06 171.663 256.975 171.497 C 257.248 171.496 257.521 171.494 258.007 171.489 C 258.759 171.456 259.337 171.539 259.829 171.372 C 261.15 170.924 261.774 171.45 262.303 172.649 C 263.323 174.958 264.494 177.202 265.618 179.464 C 267.648 183.548 269.712 187.615 271.719 191.709 C 273.597 195.539 275.405 199.404 277.271 203.239 C 278.762 206.302 280.302 209.341 281.805 212.398 C 283.251 215.341 284.658 218.302 286.116 221.239 C 287.736 224.505 289.428 227.736 291.024 231.014 C 292.216 233.463 293.242 235.993 294.456 238.43 C 295.963 241.456 297.623 244.405 299.15 247.42 C 300.44 249.966 301.631 252.562 302.872 255.133 C 304.276 258.043 305.661 260.962 307.107 263.851 C 307.654 264.944 308.349 265.963 308.976 267.015 C 308.976 267.015 308.994 267.015 308.983 267.116 C 309.639 268.482 310.307 269.748 310.974 271.013 C 310.974 271.013 311.017 271.103 311.022 271.248 C 311.677 272.6 312.326 273.808 312.975 275.016 C 312.975 275.016 312.992 275.016 312.981 275.117 C 313.101 275.61 313.187 276.024 313.368 276.391 C 315.161 280.037 316.994 283.663 318.767 287.318 C 320.361 290.601 321.864 293.927 323.461 297.208 C 325.635 301.673 327.872 306.107 330.059 310.566 C 332.539 315.622 334.982 320.697 337.462 325.754 C 338.925 328.734 340.407 331.705 341.926 334.657 C 342.352 335.485 342.94 336.23 343.453 337.012 C 343.453 337.012 343.474 337.021 343.472 337.124 C 343.838 338.248 344.206 339.27 344.486 340.259 C 342.455 339.229 340.524 338.21 338.568 337.24 C 334.897 335.421 331.193 333.667 327.537 331.818 C 323.651 329.852 319.82 327.777 315.936 325.807 C 311.789 323.704 307.607 321.671 303.444 319.6 C 300.433 318.102 297.427 316.596 294.42 315.09 C 290.926 313.34 287.429 311.596 283.943 309.832 C 280.903 308.293 277.877 306.724 274.841 305.176 C 271.955 303.705 269.079 302.213 266.172 300.787 C 263.383 299.419 260.533 298.176 257.756 296.784 C 254.561 295.183 251.426 293.461 248.247 291.825 C 245.542 290.433 242.814 289.086 240.093 287.725 C 237.484 286.421 234.862 285.139 232.26 283.82 C 229.072 282.205 225.895 280.568 222.723 278.922 C 222.286 278.696 221.935 278.298 221.493 278.087 C 219.543 277.157 217.562 276.29 215.616 275.35 C 214.91 275.009 214.302 274.466 213.595 274.128 C 211.496 273.122 209.361 272.193 207.261 271.19 C 206.666 270.906 206.175 270.406 205.581 270.122 C 203.481 269.119 201.347 268.187 199.247 267.185 C 198.615 266.883 198.081 266.377 197.449 266.074 C 195.575 265.176 193.666 264.352 191.789 263.46 C 190.862 263.019 189.982 262.481 189.068 262.01 C 188.316 261.622 187.533 261.291 186.787 260.893 C 186.285 260.625 185.847 260.234 185.338 259.986 C 184.409 259.533 183.427 259.188 182.507 258.72 C 180.811 257.857 179.169 256.889 177.461 256.053 C 174.268 254.49 171.036 253.008 167.836 251.459 C 165.231 250.198 162.632 248.923 160.064 247.59 C 156.941 245.969 153.879 244.23 150.743 242.635 C 146.197 240.322 141.6 238.108 137.038 235.823 C 131.781 233.191 126.538 230.529 121.289 227.878 C 117.901 226.167 114.508 224.465 111.128 222.737 C 108.844 221.569 106.6 220.322 104.302 219.183 C 99.937 217.018 95.525 214.946 91.171 212.757 C 86.931 210.626 82.747 208.384 78.525 206.216 C 75.679 204.754 72.83 203.298 69.945 201.916 C 68.423 201.187 66.822 200.623 65.256 199.984 C 65.256 199.984 65.256 199.99 65.227 199.938 C 65.145 199.819 65.079 199.772 64.999 199.742 C 64.999 199.742 65.008 199.743 64.975 199.692 C 64.871 199.598 64.8 199.554 64.729 199.51 C 64.494 199.313 64.259 199.117 63.987 198.852 Z"/>
  <path fill="#12DFB0" opacity="1.000000" stroke="none" d="M 223.322 124.428 C 224.918 122.796 226.518 121.167 228.11 119.53 C 231.323 116.223 234.503 112.885 237.749 109.61 C 242.372 104.944 247.061 100.343 251.686 95.679 C 256.37 90.955 260.991 86.168 265.673 81.443 C 271.094 75.974 276.562 70.553 281.991 65.093 C 290.115 56.922 298.229 48.74 306.334 40.551 C 310.049 36.797 313.732 33.012 317.438 29.251 C 317.722 28.963 318.083 28.752 318.501 28.487 C 317.38 31.599 316.179 34.734 314.949 37.858 C 313.417 41.749 311.872 45.635 310.314 49.515 C 308.553 53.902 306.761 58.277 305.001 62.665 C 302.672 68.471 300.369 74.287 298.041 80.093 C 295.59 86.208 293.102 92.309 290.668 98.431 C 286.907 107.89 283.194 117.367 279.431 126.825 C 276.589 133.967 273.695 141.088 270.835 148.222 C 267.991 155.318 265.161 162.419 262.321 169.516 C 262.198 169.825 262.036 170.117 261.787 170.481 C 261.584 170.527 261.485 170.509 261.334 170.417 C 261.168 170.171 261.072 169.984 260.94 169.827 C 257.038 165.163 253.109 160.522 249.233 155.835 C 244.698 150.351 240.225 144.817 235.698 139.326 C 231.591 134.345 227.449 129.393 223.322 124.428 Z"/>
  <path fill="#4ACD51" opacity="1.000000" stroke="none" d="M 261.387 170.49 C 261.485 170.509 261.584 170.527 261.726 170.564 C 264.177 175.412 266.613 180.227 268.986 185.073 C 271.759 190.735 274.449 196.438 277.228 202.097 C 278.892 205.486 280.693 208.807 282.367 212.192 C 283.968 215.429 285.458 218.722 287.045 221.967 C 288.542 225.03 290.134 228.047 291.628 231.111 C 294.757 237.53 297.825 243.979 300.967 250.393 C 302.882 254.302 304.909 258.156 306.841 262.056 C 307.615 263.617 308.27 265.236 308.977 266.922 C 308.349 265.963 307.654 264.944 307.107 263.851 C 305.661 260.962 304.276 258.043 302.872 255.133 C 301.631 252.562 300.44 249.966 299.15 247.42 C 297.623 244.405 295.963 241.456 294.456 238.43 C 293.242 235.993 292.216 233.463 291.024 231.014 C 289.428 227.736 287.736 224.505 286.116 221.239 C 284.658 218.302 283.251 215.341 281.805 212.398 C 280.302 209.341 278.762 206.302 277.271 203.239 C 275.405 199.404 273.597 195.539 271.719 191.709 C 269.712 187.615 267.648 183.548 265.618 179.464 C 264.494 177.202 263.323 174.958 262.303 172.649 C 261.774 171.45 261.15 170.924 259.829 171.372 C 259.337 171.539 258.759 171.456 258.109 171.478 C 257.654 171.308 257.313 171.015 256.967 171.009 C 255.859 170.992 254.75 171.105 253.64 171.116 C 253.307 171.119 252.973 170.949 252.706 170.782 C 253.718 170.708 254.665 170.737 255.611 170.709 C 257.536 170.652 259.461 170.565 261.387 170.49 Z"/>
  <path fill="#4ACD51" opacity="1.000000" stroke="none" d="M 343.448 336.919 C 342.94 336.23 342.352 335.485 341.926 334.657 C 340.407 331.705 338.925 328.734 337.462 325.754 C 334.982 320.697 332.539 315.622 330.059 310.566 C 327.872 306.107 325.635 301.673 323.461 297.208 C 321.864 293.927 320.361 290.601 318.767 287.318 C 316.994 283.663 315.161 280.037 313.368 276.391 C 313.187 276.024 313.101 275.61 312.975 275.123 C 313.612 276.138 314.304 277.22 314.87 278.365 C 317.206 283.089 319.504 287.833 321.816 292.569 C 323.983 297.006 326.141 301.448 328.321 305.879 C 331.101 311.53 333.916 317.164 336.683 322.821 C 338.961 327.477 341.191 332.157 343.448 336.919 Z"/>
  <path fill="#4ACD51" opacity="1.000000" stroke="none" d="M 344.574 340.292 C 344.206 339.27 343.838 338.248 343.474 337.135 C 343.921 337.721 344.364 338.399 344.873 339.155 C 345.083 339.737 345.225 340.242 345.345 340.853 C 345.202 341.163 345.04 341.355 344.971 341.576 C 344.217 343.968 343.488 346.367 342.732 348.758 C 341.476 352.725 340.211 356.691 338.935 360.652 C 338.306 362.608 337.643 364.552 336.944 366.441 C 337.376 364.442 337.776 362.478 338.363 360.572 C 339.062 358.298 339.958 356.086 340.701 353.824 C 341.693 350.806 342.657 347.777 343.557 344.731 C 343.986 343.278 344.24 341.773 344.574 340.292 Z"/>
  <path fill="#4ACD51" opacity="1.000000" stroke="none" d="M 310.976 270.92 C 310.307 269.748 309.639 268.482 308.976 267.121 C 309.645 268.293 310.311 269.559 310.976 270.92 Z"/>
  <path fill="#4ACD51" opacity="1.000000" stroke="none" d="M 312.976 274.922 C 312.326 273.808 311.677 272.6 311.035 271.296 C 311.688 272.41 312.333 273.619 312.976 274.922 Z"/>
  <path fill="#33DD58" opacity="1.000000" stroke="none" d="M 344.486 340.259 C 344.24 341.773 343.986 343.278 343.557 344.731 C 342.657 347.777 341.693 350.806 340.701 353.824 C 339.958 356.086 339.062 358.298 338.363 360.572 C 337.776 362.478 337.376 364.442 336.957 366.535 C 336.967 366.803 336.915 366.915 336.784 367.047 C 336.243 368.141 335.751 369.204 335.34 370.297 C 335.244 370.552 335.423 370.91 335.498 371.312 C 335.483 371.52 335.447 371.637 335.331 371.775 C 334.472 372.545 334.395 373.546 334.116 374.527 C 333.127 378.006 331.932 381.427 330.871 384.887 C 330.431 386.322 330.133 387.801 329.76 389.357 C 329.663 389.886 329.577 390.318 329.492 390.75 C 329.372 390.835 329.252 390.92 329.068 391.042 C 326.733 389.486 324.442 387.922 322.196 386.295 C 317.764 383.084 313.367 379.824 308.937 376.61 C 303.469 372.642 297.979 368.703 292.503 364.745 C 286.759 360.593 281.017 356.438 275.279 352.277 C 263.802 343.954 252.331 335.622 240.85 327.303 C 230.209 319.594 219.559 311.897 208.911 304.196 C 200.114 297.835 191.313 291.481 182.518 285.118 C 176.474 280.744 170.432 276.365 164.397 271.977 C 155.109 265.224 145.834 258.454 136.542 251.707 C 129.565 246.641 122.564 241.607 115.584 236.545 C 107.767 230.876 99.967 225.185 92.15 219.515 C 85.707 214.843 79.251 210.19 72.802 205.526 C 70.317 203.728 67.837 201.922 65.306 200.052 C 66.822 200.623 68.423 201.187 69.945 201.916 C 72.83 203.298 75.679 204.754 78.525 206.216 C 82.747 208.384 86.931 210.626 91.171 212.757 C 95.525 214.946 99.937 217.018 104.302 219.183 C 106.6 220.322 108.844 221.569 111.128 222.737 C 114.508 224.465 117.901 226.167 121.289 227.878 C 126.538 230.529 131.781 233.191 137.038 235.823 C 141.6 238.108 146.197 240.322 150.743 242.635 C 153.879 244.23 156.941 245.969 160.064 247.59 C 162.632 248.923 165.231 250.198 167.836 251.459 C 171.036 253.008 174.268 254.49 177.461 256.053 C 179.169 256.889 180.811 257.857 182.507 258.72 C 183.427 259.188 184.409 259.533 185.338 259.986 C 185.847 260.234 186.285 260.625 186.787 260.893 C 187.533 261.291 188.316 261.622 189.068 262.01 C 189.982 262.481 190.862 263.019 191.789 263.46 C 193.666 264.352 195.575 265.176 197.449 266.074 C 198.081 266.377 198.615 266.883 199.247 267.185 C 201.347 268.187 203.481 269.119 205.581 270.122 C 206.175 270.406 206.666 270.906 207.261 271.19 C 209.361 272.193 211.496 273.122 213.595 274.128 C 214.302 274.466 214.91 275.009 215.616 275.35 C 217.562 276.29 219.543 277.157 221.493 278.087 C 221.935 278.298 222.286 278.696 222.723 278.922 C 225.895 280.568 229.072 282.205 232.26 283.82 C 234.862 285.139 237.484 286.421 240.093 287.725 C 242.814 289.086 245.542 290.433 248.247 291.825 C 251.426 293.461 254.561 295.183 257.756 296.784 C 260.533 298.176 263.383 299.419 266.172 300.787 C 269.079 302.213 271.955 303.705 274.841 305.176 C 277.877 306.724 280.903 308.293 283.943 309.832 C 287.429 311.596 290.926 313.34 294.42 315.09 C 297.427 316.596 300.433 318.102 303.444 319.6 C 307.607 321.671 311.789 323.704 315.936 325.807 C 319.82 327.777 323.651 329.852 327.537 331.818 C 331.193 333.667 334.897 335.421 338.568 337.24 C 340.524 338.21 342.455 339.229 344.486 340.259 Z"/>
  <path fill="#33DD58" opacity="1.000000" stroke="none" d="M 65.027 199.799 C 65.079 199.772 65.145 199.819 65.23 199.938 C 65.193 199.946 65.124 199.9 65.027 199.799 Z"/>
  <path fill="#33DD58" opacity="1.000000" stroke="none" d="M 64.763 199.563 C 64.8 199.554 64.871 199.598 64.976 199.697 C 64.938 199.706 64.867 199.662 64.763 199.563 Z"/>
  <path fill="#E80CC5" opacity="1.000000" stroke="none" d="M 336.862 367.028 C 336.915 366.915 336.967 366.803 337.007 366.596 C 337.643 364.552 338.306 362.608 338.935 360.652 C 340.211 356.691 341.476 352.725 342.732 348.758 C 343.488 346.367 344.217 343.968 344.971 341.576 C 345.04 341.355 345.202 341.163 345.407 340.91 C 350.145 345.179 354.805 349.488 359.449 353.814 C 362.334 356.502 365.197 359.214 368.066 361.92 C 372.443 366.049 376.811 370.186 381.194 374.309 C 383.582 376.556 385.986 378.786 388.392 381.014 C 392.65 384.958 396.926 388.882 401.173 392.839 C 404.36 395.808 407.508 398.82 410.684 401.802 C 411.653 402.711 412.656 403.584 413.715 404.527 C 413.13 404.686 412.445 404.972 411.821 404.872 C 403.474 403.533 395.135 402.146 386.796 400.759 C 382.44 400.035 378.093 399.251 373.732 398.561 C 367.999 397.654 362.252 396.839 356.519 395.934 C 352.992 395.377 349.483 394.704 345.96 394.123 C 342.489 393.55 339.009 393.028 335.533 392.484 C 333.815 392.216 332.092 391.978 330.384 391.653 C 330.072 391.594 329.827 391.181 329.521 390.841 C 329.577 390.318 329.663 389.886 329.838 389.311 C 331.755 383.364 333.582 377.559 335.41 371.754 C 335.447 371.637 335.483 371.52 335.559 371.248 C 336.02 369.739 336.441 368.383 336.862 367.028 Z"/>
  <path fill="#0B52AB" opacity="1.000000" stroke="none" d="M 261.334 170.417 C 259.461 170.565 257.536 170.652 255.611 170.709 C 254.665 170.737 253.718 170.708 252.659 170.706 C 251.699 170.637 250.854 170.522 250.007 170.508 C 247.826 170.473 245.645 170.483 243.27 170.393 C 240.105 170.3 237.132 170.289 234.16 170.277 C 233.759 170.186 233.36 170.025 232.958 170.014 C 229.137 169.914 225.316 169.833 221.494 169.759 C 216.631 169.664 211.766 169.59 206.903 169.489 C 203.789 169.424 200.676 169.326 197.563 169.244 C 194.2 169.155 190.837 169.068 187.286 168.895 C 184.111 168.797 181.123 168.785 178.136 168.773 C 177.62 168.682 177.106 168.521 176.589 168.512 C 171.202 168.411 165.813 168.347 160.426 168.246 C 157.033 168.183 153.64 168.074 150.129 167.93 C 150.012 167.874 150 167.783 149.922 167.712 C 146.811 167.592 143.779 167.542 140.63 167.493 C 138.14 167.489 135.767 167.5 133.394 167.471 C 132.749 167.463 132.105 167.336 131.384 167.199 C 128.28 167.101 125.252 167.069 122.109 167.022 C 115.88 166.927 109.766 166.846 103.652 166.766 C 103.178 166.676 102.706 166.515 102.231 166.509 C 99.745 166.475 97.258 166.481 94.66 166.465 C 94.521 166.419 94.493 166.382 94.413 166.3 C 97.958 165.104 101.557 163.957 105.154 162.802 C 110.647 161.036 116.142 159.277 121.629 157.49 C 124.819 156.45 127.986 155.338 131.178 154.302 C 135.163 153.007 139.167 151.774 143.153 150.483 C 146.305 149.461 149.437 148.377 152.587 147.347 C 158.464 145.425 164.348 143.524 170.227 141.609 C 175.156 140.004 180.08 138.382 185.012 136.785 C 193.065 134.177 201.126 131.595 209.177 128.979 C 213.75 127.493 218.308 125.963 222.968 124.413 C 223.106 124.382 223.15 124.39 223.257 124.413 C 227.449 129.393 231.591 134.345 235.698 139.326 C 240.225 144.817 244.698 150.351 249.233 155.835 C 253.109 160.522 257.038 165.163 260.94 169.827 C 261.072 169.984 261.168 170.171 261.334 170.417 Z"/>
  <path fill="#77CD89" opacity="1.000000" stroke="none" d="M 150 167.783 C 150 167.783 150.012 167.874 150.013 167.92 C 146.617 167.904 143.219 167.842 139.82 167.779 C 139.364 167.771 138.907 167.751 138.451 167.745 C 133.139 167.678 127.826 167.612 122.514 167.541 C 122.439 167.54 122.364 167.481 122.258 167.364 C 122.227 167.278 122.267 167.233 122.383 167.239 C 125.486 167.252 128.473 167.257 131.46 167.263 C 132.105 167.336 132.749 167.463 133.394 167.471 C 135.767 167.5 138.14 167.489 140.698 167.575 C 143.923 167.699 146.961 167.741 150 167.783 Z"/>
  <path fill="#77CD89" opacity="1.000000" stroke="none" d="M 103.708 166.834 C 109.766 166.846 115.88 166.927 122.118 167.071 C 122.242 167.135 122.267 167.233 122.267 167.233 C 122.267 167.233 122.227 167.278 122.208 167.302 C 121.608 167.297 121.028 167.249 120.447 167.241 C 115.129 167.165 109.811 167.097 104.493 167.019 C 104.25 167.016 104.007 166.943 103.708 166.834 Z"/>
  <path fill="#7BD19B" opacity="1.000000" stroke="none" d="M 234.218 170.345 C 237.132 170.289 240.105 170.3 243.152 170.379 C 240.244 170.436 237.26 170.425 234.218 170.345 Z"/>
  <path fill="#76CC98" opacity="1.000000" stroke="none" d="M 178.197 168.84 C 181.123 168.785 184.111 168.797 187.169 168.884 C 184.246 168.941 181.251 168.923 178.197 168.84 Z"/>
  <path fill="#4ACD51" opacity="1.000000" stroke="none" d="M 256.868 171.491 C 256.06 171.663 255.145 171.828 254.122 171.983 C 254.93 171.81 255.846 171.648 256.868 171.491 Z"/>
  <path fill="#4ACD51" opacity="1.000000" stroke="none" d="M 335.331 371.775 C 333.582 377.559 331.755 383.364 329.849 389.215 C 330.133 387.801 330.431 386.322 330.871 384.887 C 331.932 381.427 333.127 378.006 334.116 374.527 C 334.395 373.546 334.472 372.545 335.331 371.775 Z"/>
  <path fill="#4ACD51" opacity="1.000000" stroke="none" d="M 336.784 367.047 C 336.441 368.383 336.02 369.739 335.537 371.157 C 335.423 370.91 335.244 370.552 335.34 370.297 C 335.751 369.204 336.243 368.141 336.784 367.047 Z"/>
  <path fill="#095E5C" opacity="1.000000" stroke="none" d="M 149.922 167.712 C 146.961 167.741 143.923 167.699 140.815 167.575 C 143.779 167.542 146.811 167.592 149.922 167.712 Z"/>
  <path fill="#0F6364" opacity="1.000000" stroke="none" d="M 122.383 167.239 C 122.267 167.233 122.242 167.135 122.233 167.085 C 125.252 167.069 128.28 167.101 131.384 167.199 C 128.473 167.257 125.486 167.252 122.383 167.239 Z"/>
</svg>