<svg xmlns="http://www.w3.org/2000/svg" viewBox="0 0 800 800" width="800" height="800">
<defs>
<filter id="spiralGlow" x="-50%" y="-50%" width="200%" height="200%"><feGaussianBlur in="SourceGraphic" stdDeviation="3" result="b"/><feComposite in="SourceGraphic" in2="b" operator="over"/></filter>
<radialGradient id="bgRad" cx="50%" cy="50%" r="0%">
  <stop offset="0%" stop-color="#d8d0e8" stop-opacity="0.35"/>
  <stop offset="100%" stop-color="#f5f5fa" stop-opacity="0"/>
  <animate attributeName="r" from="0%" to="75%" dur="30.0s" fill="freeze"/>
</radialGradient>
</defs>
<style>
  @keyframes dotAppear{
    0%{r:0;opacity:0;fill:white}
    8%{opacity:1;fill:white}
    25%{opacity:.9}
    50%{opacity:.88}
    100%{opacity:.85}
  }
  @keyframes pulse{
    0%,100%{opacity:.7;r:6.0}
    50%{opacity:1;r:8.0}
  }
  @keyframes ripple{
    0%{r:0;opacity:.55;stroke-width:1.8}
    100%{r:35;opacity:0;stroke-width:.3}
  }
  @keyframes flowDraw{
    0%{stroke-dashoffset:var(--len,500)}
    100%{stroke-dashoffset:0}
  }
  @keyframes glowIn{
    0%{opacity:0}
    100%{opacity:1}
  }
  @keyframes arcFill{
    0%{stroke-dashoffset:1099.6}
    100%{stroke-dashoffset:0}
  }
  @keyframes bgRadial{
    0%{r:0%;opacity:0}
    100%{r:70%;opacity:.25}
  }
  .fd{fill:none;animation:flowDraw var(--dur,4s) ease-in-out var(--del,0s) both}
</style>
<rect width="800" height="800" fill="#f5f5fa"/>
<rect width="800" height="800" fill="url(#bgRad)"/>
<g id="flowField" opacity="0.22">
<path class="fd" d="M597.9,516.4 L603.3,514.3 L607.8,510.6 L610.5,505.5 L611.5,499.8 L611.1,494.0 L610.1,488.3 L608.9,482.6 L607.9,476.9 L607.1,471.2 L606.5,465.4 L606.1,459.6 L605.8,453.8 L605.5,448.0 L605.2,442.2 L604.7,436.5 L604.0,430.7 L602.9,425.0 L601.2,419.5 L598.8,414.2 L595.7,409.2 L592.0,404.8 L587.9,400.7 L583.4,397.0 L578.8,393.5 L574.1,390.1 L569.3,386.8 L564.3,383.9 L558.9,381.7 L553.2,380.7 L547.4,381.1" stroke="rgb(68,84,160)" stroke-width="0.8" opacity="0.5" stroke-dasharray="174.0" style="--len:174.0;--dur:10.5s;--del:0.0s"/>
<path class="fd" d="M355.2,612.7 L353.2,618.2 L350.7,623.4 L348.2,628.6 L345.7,633.9 L343.2,639.1 L340.7,644.3 L337.9,649.4 L334.8,654.3 L331.4,659.0 L327.5,663.3 L323.2,667.3 L318.7,670.9 L314.0,674.3 L309.4,677.8 L304.9,681.5 L300.9,685.7 L297.4,690.3 L294.4,695.2 L291.9,700.5 L289.7,705.8 L287.4,711.2 L285.1,716.5 L282.3,721.6 L279.1,726.4 L275.4,730.8 L271.0,734.7 L266.2,737.9 L261.0,740.5 L255.6,742.7 L250.1,744.6" stroke="rgb(68,79,160)" stroke-width="0.8" opacity="0.5" stroke-dasharray="174.0" style="--len:174.0;--dur:11.0s;--del:1.2s"/>
<path class="fd" d="M276.9,316.0 L272.2,319.5 L267.8,323.2 L263.8,327.4 L260.9,332.5 L259.8,338.1 L260.8,343.9 L263.5,349.0 L267.2,353.5 L271.5,357.3 L276.3,360.6 L281.5,363.1 L287.1,364.8 L292.8,365.8 L298.6,366.2 L304.4,365.9 L310.1,365.2 L315.8,364.1 L321.5,363.0 L327.2,362.0 L333.0,361.5 L338.8,362.0 L344.3,363.7 L349.3,366.7 L353.5,370.7 L357.0,375.3 L360.3,380.1 L363.8,384.7 L367.7,389.0 L372.3,392.6 L377.4,395.3" stroke="rgb(68,74,160)" stroke-width="0.8" opacity="0.5" stroke-dasharray="174.0" style="--len:174.0;--dur:11.5s;--del:2.4s"/>
<path class="fd" d="M727.7,28.4 L733.2,26.5 L739.0,25.9 L744.7,26.7 L749.9,29.3 L753.5,33.9 L754.4,39.6 L753.0,45.3 L750.7,50.6 L748.1,55.8 L745.5,61.0 L743.0,66.2 L740.6,71.5 L738.0,76.7 L735.2,81.8 L732.2,86.7 L728.7,91.4 L724.9,95.7 L720.6,99.6 L716.1,103.3 L711.4,106.7 L706.8,110.2 L702.3,113.9 L698.3,118.0 L694.7,122.6 L691.7,127.6 L689.2,132.8 L687.0,138.2 L684.8,143.5 L682.4,148.8 L679.7,154.0" stroke="rgb(68,70,160)" stroke-width="0.8" opacity="0.5" stroke-dasharray="174.0" style="--len:174.0;--dur:12.0s;--del:3.6s"/>
<path class="fd" d="M691.2,143.0 L686.0,145.4 L682.4,150.0 L679.3,154.9 L676.0,159.6 L672.1,163.9 L667.7,167.6 L662.8,170.8 L657.5,173.3 L652.1,175.4 L646.7,177.3 L641.2,179.1 L635.7,181.0 L630.2,182.9 L624.8,185.0 L619.4,187.1 L613.9,189.2 L608.4,190.9 L602.7,192.1 L597.0,192.6 L591.2,192.1 L585.5,190.9 L580.0,189.2 L574.5,187.2 L569.0,185.3 L563.5,183.6 L557.9,182.1 L552.2,180.9 L546.5,180.0 L540.7,179.3 L535.0,178.8" stroke="rgb(71,68,160)" stroke-width="0.8" opacity="0.5" stroke-dasharray="174.0" style="--len:174.0;--dur:12.5s;--del:4.8s"/>
<path class="fd" d="M381.3,256.1 L387.1,256.2 L392.9,256.2 L398.7,256.1 L404.5,256.1 L410.3,256.2 L416.1,256.2 L421.9,255.9 L427.6,255.0 L433.0,252.9 L437.6,249.4 L440.8,244.5 L442.2,238.9 L442.1,233.1 L440.7,227.4 L438.2,222.2 L434.8,217.5 L430.7,213.4 L426.4,209.5 L422.3,205.4 L418.7,200.8 L416.2,195.6 L414.8,190.0 L414.4,184.2 L414.7,178.4 L415.6,172.7 L416.9,167.1 L418.5,161.5 L420.2,155.9 L421.9,150.4 L423.5,144.8" stroke="rgb(76,68,160)" stroke-width="0.8" opacity="0.5" stroke-dasharray="174.0" style="--len:174.0;--dur:10.5s;--del:6.0s"/>
<path class="fd" d="M776.3,255.0 L782.0,253.9 L787.7,253.1 L793.5,252.7 L799.3,252.6" stroke="rgb(81,68,160)" stroke-width="0.8" opacity="0.5" stroke-dasharray="23.0" style="--len:23.0;--dur:11.0s;--del:7.2s"/>
<path class="fd" d="M433.1,516.9 L427.4,515.6 L422.3,518.3 L418.4,522.6 L415.3,527.5 L412.5,532.6 L410.2,537.9 L408.4,543.4 L407.1,549.1 L406.2,554.8 L405.7,560.6 L405.4,566.4 L405.3,572.2 L405.3,578.0 L405.6,583.8 L406.0,589.6 L406.6,595.3 L407.5,601.1 L408.6,606.8 L410.0,612.4 L411.7,617.9 L413.7,623.4 L416.0,628.7 L418.6,633.9 L421.2,639.1 L423.8,644.3 L426.3,649.5 L428.5,654.9 L430.6,660.3 L432.6,665.7 L434.5,671.2" stroke="rgb(85,68,160)" stroke-width="0.8" opacity="0.5" stroke-dasharray="174.0" style="--len:174.0;--dur:11.5s;--del:8.4s"/>
<path class="fd" d="M519.0,544.2 L521.1,549.6 L522.7,555.2 L523.8,560.9 L524.8,566.6 L525.7,572.4 L526.9,578.0 L528.7,583.5 L531.3,588.7 L535.0,593.2 L539.5,596.9 L544.6,599.6 L550.0,601.6 L555.6,603.2 L561.2,604.6 L566.9,605.9 L572.5,607.3 L578.1,608.8 L583.8,610.1 L589.5,610.9 L595.3,611.0 L601.0,610.1 L606.5,608.2 L611.8,605.7 L616.9,603.0 L622.1,600.4 L627.3,597.8 L632.4,595.0 L637.2,591.8 L641.5,587.9 L644.9,583.2" stroke="rgb(90,68,160)" stroke-width="0.8" opacity="0.5" stroke-dasharray="174.0" style="--len:174.0;--dur:12.0s;--del:9.6s"/>
<path class="fd" d="M358.6,266.5 L364.3,267.8 L370.0,267.1 L375.6,265.6 L381.1,263.8 L386.7,262.3 L392.5,261.4 L398.2,260.9 L404.0,261.0 L409.8,261.6 L415.5,262.5 L421.2,263.8 L426.9,265.0 L432.6,265.7 L438.4,265.2 L443.7,263.0 L447.7,258.7 L449.9,253.4 L450.7,247.6 L450.6,241.8 L449.8,236.1 L448.4,230.5 L446.2,225.1 L443.2,220.1 L439.4,215.7 L435.0,211.9 L430.3,208.6 L425.6,205.1 L421.4,201.2 L418.0,196.5 L415.8,191.1" stroke="rgb(94,68,160)" stroke-width="0.8" opacity="0.5" stroke-dasharray="174.0" style="--len:174.0;--dur:12.5s;--del:10.8s"/>
<path class="fd" d="M381.3,446.8 L386.3,443.9 L391.7,441.7 L397.3,440.5 L403.1,440.6 L408.8,441.8 L414.1,444.2 L419.1,447.2 L423.7,450.8 L427.9,454.7 L431.7,459.1 L434.8,464.0 L436.7,469.5 L437.1,475.3 L436.3,481.0 L434.6,486.6 L432.6,492.0 L430.4,497.4 L428.1,502.7 L425.7,508.0 L423.0,513.1 L420.3,518.2 L417.4,523.3 L414.6,528.3 L412.0,533.5 L409.9,538.9 L408.2,544.5 L406.9,550.1 L406.1,555.9 L405.6,561.6 L405.3,567.4" stroke="rgb(99,68,160)" stroke-width="0.8" opacity="0.5" stroke-dasharray="174.0" style="--len:174.0;--dur:10.5s;--del:12.0s"/>
<path class="fd" d="M220.7,140.7 L217.6,135.8 L215.3,130.4 L213.5,124.9 L212.1,119.3 L211.0,113.6 L210.1,107.9 L209.4,102.1 L208.9,96.3 L208.7,90.5 L208.7,84.7 L209.0,78.9 L209.5,73.2 L210.4,67.4 L211.6,61.7 L213.2,56.2 L215.3,50.8 L218.0,45.7 L221.4,41.0 L225.5,36.8 L229.9,33.1 L234.6,29.6 L239.2,26.1 L243.4,22.2 L247.0,17.6 L249.5,12.3 L251.1,6.8 L251.9,1.0" stroke="rgb(104,68,160)" stroke-width="0.8" opacity="0.5" stroke-dasharray="157.0" style="--len:157.0;--dur:11.0s;--del:13.2s"/>
<path class="fd" d="M264.9,228.5 L265.8,222.8 L266.6,217.1 L267.3,211.3 L267.3,205.5 L266.4,199.8 L264.0,194.5 L260.1,190.2 L255.1,187.3 L249.5,185.9 L243.7,185.7 L237.9,186.3 L232.2,187.5 L226.7,189.3 L221.4,191.5 L216.2,194.2 L211.2,197.0 L206.2,200.0 L201.1,202.9 L196.0,205.6 L190.8,208.1 L185.5,210.6 L180.5,213.4 L176.1,217.2 L173.3,222.3 L173.2,228.1 L175.8,233.2 L179.9,237.4 L184.5,240.9 L189.1,244.4 L193.5,248.2" stroke="rgb(108,68,160)" stroke-width="0.8" opacity="0.5" stroke-dasharray="174.0" style="--len:174.0;--dur:11.5s;--del:14.4s"/>
<path class="fd" d="M7.7,292.6 L13.2,294.4 L18.5,296.9 L23.6,299.6 L29.0,301.7 L34.7,302.7 L40.5,302.2 L45.9,300.1 L50.5,296.6 L54.0,291.9 L56.4,286.6 L58.1,281.1 L59.4,275.5 L60.7,269.8 L62.1,264.2 L63.8,258.6 L65.9,253.2 L68.5,248.0 L71.6,243.1 L75.3,238.6 L79.4,234.6 L83.8,230.8 L88.3,227.2 L92.8,223.5 L97.2,219.6 L101.4,215.7 L105.7,211.8 L110.2,208.2 L115.1,205.1 L120.6,203.1 L126.3,202.3" stroke="rgb(113,68,160)" stroke-width="0.8" opacity="0.5" stroke-dasharray="174.0" style="--len:174.0;--dur:12.0s;--del:15.6s"/>
<path class="fd" d="M53.6,148.5 L59.3,147.7 L65.0,146.9 L70.8,146.7 L76.5,147.7 L81.7,150.3 L85.8,154.5 L88.8,159.4 L91.1,164.8 L93.2,170.2 L95.4,175.5 L97.9,180.8 L100.9,185.7 L104.6,190.2 L109.1,193.8 L114.3,196.5 L119.8,198.4 L125.3,199.9 L130.9,201.6 L136.3,203.7 L141.4,206.4 L146.2,209.7 L150.7,213.4 L155.0,217.3 L159.1,221.4 L163.3,225.4 L167.6,229.2 L172.2,232.8 L176.9,236.2 L181.7,239.5 L186.5,242.7" stroke="rgb(117,68,160)" stroke-width="0.8" opacity="0.5" stroke-dasharray="174.0" style="--len:174.0;--dur:12.5s;--del:16.8s"/>
</g>
<g id="ripples">
<circle cx="347.2" cy="448.3" r="0" fill="none" stroke="rgba(100,80,200,0.45)" stroke-width="1.8" opacity="0" style="animation:ripple 1.5s ease-out 0.00s both"/>
<circle cx="408.8" cy="299.2" r="0" fill="none" stroke="rgba(100,80,200,0.45)" stroke-width="1.8" opacity="0" style="animation:ripple 1.5s ease-out 3.52s both"/>
<circle cx="475.4" cy="498.4" r="0" fill="none" stroke="rgba(100,80,200,0.45)" stroke-width="1.8" opacity="0" style="animation:ripple 1.5s ease-out 4.97s both"/>
<circle cx="259.1" cy="375.1" r="0" fill="none" stroke="rgba(100,80,200,0.45)" stroke-width="1.8" opacity="0" style="animation:ripple 1.5s ease-out 6.22s both"/>
<circle cx="535.0" cy="314.1" r="0" fill="none" stroke="rgba(100,80,200,0.45)" stroke-width="1.8" opacity="0" style="animation:ripple 1.5s ease-out 7.47s both"/>
<circle cx="354.5" cy="569.3" r="0" fill="none" stroke="rgba(100,80,200,0.45)" stroke-width="1.8" opacity="0" style="animation:ripple 1.5s ease-out 8.72s both"/>
<circle cx="312.7" cy="232.0" r="0" fill="none" stroke="rgba(100,80,200,0.45)" stroke-width="1.8" opacity="0" style="animation:ripple 1.5s ease-out 9.97s both"/>
<circle cx="590.1" cy="469.4" r="0" fill="none" stroke="rgba(100,80,200,0.45)" stroke-width="1.8" opacity="0" style="animation:ripple 1.5s ease-out 11.22s both"/>
<circle cx="201.6" cy="481.9" r="0" fill="none" stroke="rgba(100,80,200,0.45)" stroke-width="1.8" opacity="0" style="animation:ripple 1.5s ease-out 12.47s both"/>
<circle cx="495.9" cy="195.1" r="0" fill="none" stroke="rgba(100,80,200,0.45)" stroke-width="1.8" opacity="0" style="animation:ripple 1.5s ease-out 13.72s both"/>
<circle cx="471.0" cy="626.4" r="0" fill="none" stroke="rgba(100,80,200,0.45)" stroke-width="1.8" opacity="0" style="animation:ripple 1.5s ease-out 14.97s both"/>
<circle cx="185.5" cy="275.7" r="0" fill="none" stroke="rgba(100,80,200,0.45)" stroke-width="1.8" opacity="0" style="animation:ripple 1.5s ease-out 16.22s both"/>
<circle cx="652.0" cy="344.6" r="0" fill="none" stroke="rgba(100,80,200,0.45)" stroke-width="1.8" opacity="0" style="animation:ripple 1.5s ease-out 17.47s both"/>
<circle cx="246.0" cy="619.0" r="0" fill="none" stroke="rgba(100,80,200,0.45)" stroke-width="1.8" opacity="0" style="animation:ripple 1.5s ease-out 18.72s both"/>
<circle cx="364.4" cy="125.2" r="0" fill="none" stroke="rgba(100,80,200,0.45)" stroke-width="1.8" opacity="0" style="animation:ripple 1.5s ease-out 21.26s both"/>
<circle cx="618.8" cy="584.5" r="0" fill="none" stroke="rgba(100,80,200,0.45)" stroke-width="1.8" opacity="0" style="animation:ripple 1.5s ease-out 23.87s both"/>
<circle cx="105.2" cy="412.2" r="0" fill="none" stroke="rgba(100,80,200,0.45)" stroke-width="1.8" opacity="0" style="animation:ripple 1.5s ease-out 25.89s both"/>
<circle cx="615.2" cy="185.9" r="0" fill="none" stroke="rgba(100,80,200,0.45)" stroke-width="1.8" opacity="0" style="animation:ripple 1.5s ease-out 27.34s both"/>
<circle cx="385.6" cy="711.6" r="0" fill="none" stroke="rgba(100,80,200,0.45)" stroke-width="1.8" opacity="0" style="animation:ripple 1.5s ease-out 28.21s both"/>
<circle cx="195.0" cy="154.3" r="0" fill="none" stroke="rgba(100,80,200,0.45)" stroke-width="1.8" opacity="0" style="animation:ripple 1.5s ease-out 28.50s both"/>
</g>
<g id="spiral">
<circle cx="347.2" cy="448.3" r="5.0" fill="rgb(220,78,59)" opacity="0" style="animation:dotAppear 1.5s ease-out 0.00s both"/>
<circle cx="408.8" cy="299.2" r="5.35" fill="rgb(59,220,125)" opacity="0" style="animation:dotAppear 1.5s ease-out 3.52s both"/>
<circle cx="475.4" cy="498.4" r="5.55" fill="rgb(172,59,220)" opacity="0" style="animation:dotAppear 1.49s ease-out 4.97s both"/>
<circle cx="259.1" cy="375.1" r="5.69" fill="rgb(220,219,59)" opacity="0" style="animation:dotAppear 1.49s ease-out 6.22s both"/>
<circle cx="535.0" cy="314.1" r="5.8" fill="rgb(59,174,220)" opacity="0" style="animation:dotAppear 1.49s ease-out 7.47s both"/>
<circle cx="354.5" cy="569.3" r="5.9" fill="rgb(220,59,128)" opacity="0" style="animation:dotAppear 1.49s ease-out 8.72s both"/>
<circle cx="312.7" cy="232.0" r="5.97" fill="rgb(81,220,59)" opacity="0" style="animation:dotAppear 1.48s ease-out 9.97s both"/>
<circle cx="590.1" cy="469.4" r="6.04" fill="rgb(85,59,220)" opacity="0" style="animation:dotAppear 1.48s ease-out 11.22s both"/>
<circle cx="201.6" cy="481.9" r="6.1" fill="rgb(220,132,59)" opacity="0" style="animation:dotAppear 1.48s ease-out 12.47s both"/>
<circle cx="495.9" cy="195.1" r="6.15" fill="rgb(59,220,179)" opacity="0" style="animation:dotAppear 1.47s ease-out 13.72s both"/>
<circle cx="471.0" cy="626.4" r="6.2" fill="rgb(220,59,215)" opacity="0" style="animation:dotAppear 1.47s ease-out 14.97s both"/>
<circle cx="185.5" cy="275.7" r="6.24" fill="rgb(168,220,59)" opacity="0" style="animation:dotAppear 1.47s ease-out 16.22s both"/>
<circle cx="652.0" cy="344.6" r="6.28" fill="rgb(59,121,220)" opacity="0" style="animation:dotAppear 1.46s ease-out 17.47s both"/>
</g>
<g id="spiralGlow" filter="url(#spiralGlow)">
<circle cx="246.0" cy="619.0" r="6.32" fill="rgb(220,59,74)" opacity="0" style="animation:dotAppear 1.46s ease-out 18.72s both"/>
<circle cx="364.4" cy="125.2" r="6.35" fill="rgb(59,220,92)" opacity="0" style="animation:dotAppear 1.46s ease-out 21.26s both"/>
<circle cx="618.8" cy="584.5" r="6.39" fill="rgb(139,59,220)" opacity="0" style="animation:dotAppear 1.46s ease-out 23.87s both"/>
<circle cx="105.2" cy="412.2" r="6.42" fill="rgb(220,186,59)" opacity="0" style="animation:dotAppear 1.45s ease-out 25.89s both"/>
<circle cx="615.2" cy="185.9" r="6.45" fill="rgb(59,208,220)" opacity="0" style="animation:dotAppear 1.45s ease-out 27.34s both"/>
<circle cx="385.6" cy="711.6" r="6.47" fill="rgb(220,59,161)" opacity="0" style="animation:dotAppear 1.45s ease-out 28.21s both"/>
<circle cx="195.0" cy="154.3" r="6.5" fill="rgb(114,220,59)" opacity="0" style="animation:dotAppear 1.44s ease-out 28.50s both"/>
</g>
<circle cx="347.2" cy="448.3" r="6.0" fill="rgb(71,234,138)" opacity="0" style="animation:dotAppear 1.5s ease-out 0.00s both, pulse 2.5s ease-in-out 1.5s infinite"/>
<path d="M50,770 A350,350 0 0 1 750,770" fill="none" stroke="rgba(0,0,0,0.06)" stroke-width="3"/>
<path d="M50,770 A350,350 0 0 1 750,770" fill="none" stroke="#6c5ce7" stroke-width="3" stroke-dasharray="1099.6" stroke-dashoffset="1099.6" opacity="0.7">
  <animate attributeName="stroke-dashoffset" from="1099.6" to="0" dur="30.0s" fill="freeze"/>
</path>
<circle cx="50.0" cy="770.0" r="2" fill="#6c5ce7" opacity="0.5"/>
<text x="50.0" y="782.0" text-anchor="middle" font-size="7" font-family="monospace" fill="rgba(0,0,0,0.3)">2014</text>
<circle cx="67.1" cy="661.8" r="2" fill="#6c5ce7" opacity="0.5"/>
<text x="67.1" y="673.8" text-anchor="middle" font-size="7" font-family="monospace" fill="rgba(0,0,0,0.3)">2015</text>
<circle cx="116.8" cy="564.3" r="2" fill="#6c5ce7" opacity="0.5"/>
<text x="116.8" y="576.3" text-anchor="middle" font-size="7" font-family="monospace" fill="rgba(0,0,0,0.3)">2016</text>
<circle cx="194.3" cy="486.8" r="2" fill="#6c5ce7" opacity="0.5"/>
<text x="194.3" y="498.8" text-anchor="middle" font-size="7" font-family="monospace" fill="rgba(0,0,0,0.3)">2017</text>
<circle cx="291.8" cy="437.1" r="2" fill="#6c5ce7" opacity="0.5"/>
<text x="291.8" y="449.1" text-anchor="middle" font-size="7" font-family="monospace" fill="rgba(0,0,0,0.3)">2018</text>
<circle cx="400.0" cy="420.0" r="2" fill="#6c5ce7" opacity="0.5"/>
<text x="400.0" y="432.0" text-anchor="middle" font-size="7" font-family="monospace" fill="rgba(0,0,0,0.3)">2019</text>
<circle cx="508.2" cy="437.1" r="2" fill="#6c5ce7" opacity="0.5"/>
<text x="508.2" y="449.1" text-anchor="middle" font-size="7" font-family="monospace" fill="rgba(0,0,0,0.3)">2020</text>
<circle cx="605.7" cy="486.8" r="2" fill="#6c5ce7" opacity="0.5"/>
<text x="605.7" y="498.8" text-anchor="middle" font-size="7" font-family="monospace" fill="rgba(0,0,0,0.3)">2021</text>
<circle cx="683.2" cy="564.3" r="2" fill="#6c5ce7" opacity="0.5"/>
<text x="683.2" y="576.3" text-anchor="middle" font-size="7" font-family="monospace" fill="rgba(0,0,0,0.3)">2022</text>
<circle cx="732.9" cy="661.8" r="2" fill="#6c5ce7" opacity="0.5"/>
<text x="732.9" y="673.8" text-anchor="middle" font-size="7" font-family="monospace" fill="rgba(0,0,0,0.3)">2023</text>
<circle cx="750.0" cy="770.0" r="2" fill="#6c5ce7" opacity="0.5"/>
<text x="750.0" y="782.0" text-anchor="middle" font-size="7" font-family="monospace" fill="rgba(0,0,0,0.3)">2024</text>
</svg>
