<svg xmlns="http://www.w3.org/2000/svg" viewBox="0 0 800 800" width="800" height="800">
<defs>
<filter id="spiralGlow" x="-50%" y="-50%" width="200%" height="200%"><feGaussianBlur in="SourceGraphic" stdDeviation="3" result="b"/><feComposite in="SourceGraphic" in2="b" operator="over"/></filter>
<radialGradient id="bgRad" cx="50%" cy="50%" r="0%">
  <stop offset="0%" stop-color="#1a1540" stop-opacity="0.25">
    <animate attributeName="stop-opacity" values="0.25;0.40;0.25" dur="7.5s" repeatCount="indefinite"/>
  </stop>
  <stop offset="100%" stop-color="#0a0d14" stop-opacity="0"/>
  <animate attributeName="r" from="0%" to="75%" dur="60.0s" fill="freeze"/>
</radialGradient>
</defs>
<style>
  @keyframes dotAppear{
    0%{r:0;opacity:0;fill:white}
    8%{opacity:1;fill:white}
    25%{opacity:.9}
    50%{opacity:.88}
    100%{opacity:.85}
  }
  @keyframes dotShimmer{
    0%,100%{opacity:.85}
    50%{opacity:.55}
  }
  @keyframes pulse{
    0%,100%{opacity:.7;r:6.0}
    50%{opacity:1;r:8.0}
  }
  @keyframes flowDraw{
    0%{stroke-dashoffset:var(--len,500)}
    100%{stroke-dashoffset:0}
  }
  @keyframes flowPulse{
    0%,100%{opacity:0.40}
    50%{opacity:0.20}
  }
  @keyframes glowIn{
    0%{opacity:0}
    100%{opacity:1}
  }
  @keyframes arcFill{
    0%{stroke-dashoffset:1099.6}
    100%{stroke-dashoffset:0}
  }
  @keyframes bgRadial{
    0%{r:0%;opacity:0}
    100%{r:70%;opacity:.25}
  }
  .fd{fill:none;animation:flowDraw var(--dur,4s) ease-in-out var(--del,0s) both}
</style>
<rect width="800" height="800" fill="#0a0d14"/>
<rect width="800" height="800" fill="url(#bgRad)"/>
<g id="flowField" opacity="0.40" style="animation:flowPulse 8s ease-in-out 5s infinite">
<path class="fd" d="M685.3,780.0 L680.5,775.7 L676.3,770.9 L672.3,765.9 L668.2,761.0 L663.7,756.4 L658.8,752.3 L653.4,748.9 L647.5,746.3 L641.4,744.6 L635.0,743.6 L628.7,743.1 L622.3,743.0 L615.9,743.0 L609.5,743.1 L603.1,743.2 L596.7,743.3 L590.3,743.3 L583.9,743.1 L577.5,742.9 L571.1,742.6 L564.7,742.4 L558.3,742.2 L551.9,742.3 L545.5,742.9 L539.3,744.6 L533.9,748.0 L530.3,753.3 L530.0,759.7 L533.0,765.3 L538.0,769.4" stroke="#1a6e7f" stroke-width="0.9" opacity="0.51" stroke-linecap="round" stroke-dasharray="192.0" style="--len:192.0;--dur:21.0s;--del:0.0s"/>
<path class="fd" d="M654.2,258.0 L647.8,257.5 L641.4,257.4 L635.0,258.1 L628.8,259.7 L623.0,262.4 L617.8,266.1 L613.2,270.6 L609.4,275.7 L606.1,281.2 L603.3,287.0 L600.9,292.9 L598.8,298.9 L596.8,305.0 L594.9,311.1 L593.0,317.2 L591.0,323.3 L588.9,329.4 L586.6,335.3 L584.0,341.2 L581.0,346.8 L577.5,352.2 L573.5,357.2 L568.9,361.6 L563.7,365.4 L558.1,368.4 L552.2,370.9 L546.1,372.9 L539.9,374.7 L533.8,376.5 L527.7,378.4" stroke="#1f6d82" stroke-width="0.9" opacity="0.37" stroke-linecap="round" stroke-dasharray="192.0" style="--len:192.0;--dur:21.5s;--del:0.36s"/>
<path class="fd" d="M228.8,300.4 L225.7,306.0 L225.8,312.4 L228.2,318.3 L231.8,323.6 L236.2,328.3 L241.2,332.3 L246.5,335.8 L252.2,338.8 L258.0,341.5 L264.0,343.8 L270.0,345.8 L276.1,347.8 L282.3,349.6 L288.4,351.5 L294.5,353.4 L300.5,355.5 L306.6,357.7 L312.5,360.1 L318.3,362.8 L324.0,365.8 L329.5,369.0 L334.8,372.5 L340.0,376.3 L345.1,380.2 L350.0,384.2 L355.0,388.2 L360.1,392.2 L365.3,395.8 L370.8,399.1 L376.6,401.8" stroke="#217263" stroke-width="0.9" opacity="0.29" stroke-linecap="round" stroke-dasharray="192.0" style="--len:192.0;--dur:22.0s;--del:0.72s"/>
<path class="fd" d="M66.7,395.7 L61.7,399.7 L56.4,403.3 L50.8,406.3 L44.7,408.3 L38.3,408.8 L32.1,407.4 L26.7,403.9 L22.9,398.8 L20.7,392.8 L19.7,386.4 L19.5,380.1 L19.7,373.7 L20.4,367.3 L21.3,361.0 L22.5,354.7 L24.0,348.4 L25.8,342.3 L27.8,336.2 L30.2,330.3 L32.9,324.5 L35.9,318.8 L39.1,313.3 L42.5,307.9 L46.0,302.5 L49.5,297.1 L52.9,291.7 L56.2,286.3 L59.3,280.7 L62.2,274.9 L64.8,269.1" stroke="#1a6e7f" stroke-width="0.9" opacity="0.49" stroke-linecap="round" stroke-dasharray="192.0" style="--len:192.0;--dur:22.5s;--del:1.08s"/>
<path class="fd" d="M445.6,201.4 L439.3,200.3 L433.4,197.8 L428.1,194.2 L423.5,189.8 L419.6,184.7 L416.5,179.1 L414.0,173.2 L412.2,167.1 L410.9,160.8 L410.0,154.5 L409.5,148.1 L409.3,141.7 L409.3,135.3 L409.7,128.9 L410.3,122.5 L411.1,116.2 L412.3,109.9 L413.9,103.7 L415.8,97.6 L418.2,91.7 L421.2,86.0 L424.8,80.7 L428.9,75.8 L433.7,71.5 L438.8,67.7 L444.3,64.4 L450.0,61.5 L455.7,58.6 L461.4,55.6 L466.9,52.4" stroke="#1f6d82" stroke-width="0.9" opacity="0.42" stroke-linecap="round" stroke-dasharray="192.0" style="--len:192.0;--dur:23.0s;--del:1.44s"/>
<path class="fd" d="M12.2,432.9 L16.0,427.7 L17.9,421.6 L18.5,415.2 L18.6,408.9 L18.5,402.5 L18.4,396.1 L18.4,389.7 L18.7,383.3 L19.1,376.9 L19.8,370.5 L20.6,364.2 L21.8,357.9 L23.1,351.6 L24.8,345.4 L26.7,339.3 L29.0,333.3 L31.5,327.5 L34.3,321.7 L37.4,316.1 L40.7,310.6 L44.2,305.2 L47.7,299.9 L51.2,294.5 L54.6,289.1 L57.8,283.5 L60.7,277.9 L63.5,272.1 L66.0,266.2 L68.3,260.2 L70.4,254.2" stroke="#217263" stroke-width="0.9" opacity="0.5" stroke-linecap="round" stroke-dasharray="192.0" style="--len:192.0;--dur:21.0s;--del:1.8s"/>
<path class="fd" d="M502.4,430.0 L502.6,423.6 L501.0,417.4 L496.8,412.6 L490.6,410.7 L484.4,412.3 L479.3,416.0 L474.9,420.7 L471.0,425.8 L467.2,430.9 L463.4,436.1 L459.6,441.2 L455.7,446.3 L451.6,451.2 L447.3,456.0 L443.0,460.7 L438.5,465.2 L434.0,469.8 L429.4,474.3 L425.0,478.9 L420.8,483.8 L416.9,488.8 L413.4,494.2 L410.5,499.9 L408.0,505.8 L406.1,511.9 L404.7,518.1 L403.6,524.4 L402.7,530.8 L402.1,537.1 L401.7,543.5" stroke="#1a6e7f" stroke-width="0.9" opacity="0.27" stroke-linecap="round" stroke-dasharray="192.0" style="--len:192.0;--dur:21.5s;--del:2.16s"/>
<path class="fd" d="M223.5,382.6 L218.0,385.9 L213.2,390.1 L209.2,395.2 L206.1,400.8 L203.8,406.7 L202.3,412.9 L201.7,419.3 L202.1,425.7 L203.8,431.9 L206.9,437.5 L211.4,442.0 L217.2,444.8 L223.5,445.8 L229.9,445.2 L236.1,443.8 L242.2,441.9 L248.4,440.2 L254.7,439.2 L261.1,439.1 L267.4,440.4 L273.2,443.0 L278.4,446.7 L283.1,451.2 L287.2,456.0 L291.1,461.1 L295.0,466.2 L298.8,471.3 L302.8,476.4 L306.9,481.3 L311.1,486.1" stroke="#1f6d82" stroke-width="0.9" opacity="0.33" stroke-linecap="round" stroke-dasharray="192.0" style="--len:192.0;--dur:22.0s;--del:2.52s"/>
<path class="fd" d="M316.9,86.4 L315.0,92.5 L311.6,98.0 L307.1,102.5 L302.0,106.3 L296.5,109.7 L291.0,112.9 L285.4,116.0 L280.0,119.4 L274.6,122.9 L269.5,126.7 L264.4,130.6 L259.5,134.7 L254.6,138.8 L249.6,142.8 L244.5,146.7 L239.1,150.2 L233.5,153.2 L227.5,155.5 L221.3,157.0 L214.9,157.5 L208.6,156.7 L202.6,154.4 L197.4,150.7 L193.5,145.6 L191.4,139.5 L190.9,133.2 L191.7,126.8 L193.2,120.6 L195.1,114.5 L197.1,108.4" stroke="#217263" stroke-width="0.9" opacity="0.45" stroke-linecap="round" stroke-dasharray="192.0" style="--len:192.0;--dur:22.5s;--del:2.88s"/>
<path class="fd" d="M312.2,592.3 L316.7,587.7 L321.2,583.2 L325.8,578.7 L330.7,574.6 L336.2,571.4 L342.4,569.9 L348.7,571.3 L353.1,575.8 L354.7,582.0 L354.4,588.4 L353.2,594.7 L351.6,600.9 L349.5,607.0 L346.9,612.8 L344.0,618.5 L340.7,624.0 L337.0,629.2 L333.0,634.2 L328.7,639.0 L324.3,643.7 L319.9,648.2 L315.4,652.8 L311.0,657.4 L306.6,662.2 L302.5,667.0 L298.4,672.0 L294.6,677.1 L290.8,682.3 L287.2,687.5 L283.5,692.8" stroke="#1a6e7f" stroke-width="0.9" opacity="0.39" stroke-linecap="round" stroke-dasharray="192.0" style="--len:192.0;--dur:23.0s;--del:3.24s"/>
<path class="fd" d="M462.0,126.9 L455.7,127.9 L449.4,129.1 L443.0,130.0 L436.7,130.3 L430.3,129.3 L424.5,126.7 L419.9,122.3 L417.0,116.5 L416.0,110.2 L416.2,103.8 L417.4,97.6 L419.5,91.5 L422.3,85.7 L425.7,80.3 L429.8,75.5 L434.6,71.1 L439.7,67.4 L445.2,64.1 L450.9,61.1 L456.6,58.2 L462.2,55.2 L467.7,51.9 L472.9,48.1 L477.5,43.7 L481.5,38.7 L484.8,33.2 L487.2,27.2 L488.8,21.0 L489.9,14.7 L490.6,8.4" stroke="#1f6d82" stroke-width="0.9" opacity="0.46" stroke-linecap="round" stroke-dasharray="192.0" style="--len:192.0;--dur:21.0s;--del:3.6s"/>
<path class="fd" d="M81.5,596.1 L87.2,593.2 L91.9,588.8 L95.3,583.4 L97.6,577.5 L99.1,571.2 L99.9,564.9 L100.4,558.5 L100.6,552.1 L100.7,545.7 L100.6,539.3 L100.5,532.9 L100.3,526.5 L100.0,520.1 L99.5,513.7 L98.9,507.3 L98.2,501.0 L97.2,494.7 L95.9,488.4 L94.3,482.2 L92.3,476.1 L89.7,470.3 L86.5,464.7 L82.6,459.7 L78.0,455.2 L72.8,451.5 L67.1,448.5 L61.2,446.0 L55.2,443.7 L49.3,441.4 L43.4,438.8" stroke="#217263" stroke-width="0.9" opacity="0.47" stroke-linecap="round" stroke-dasharray="192.0" style="--len:192.0;--dur:21.5s;--del:3.96s"/>
<path class="fd" d="M380.4,503.2 L383.3,497.6 L388.2,493.4 L394.4,491.9 L400.5,494.0 L404.5,499.0 L405.8,505.3 L405.4,511.7 L404.5,518.0 L403.5,524.3 L402.7,530.7 L402.1,537.0 L401.7,543.4 L401.4,549.8 L401.2,556.2 L401.1,562.6 L401.1,569.0 L401.3,575.4 L401.5,581.8 L401.8,588.2 L402.2,594.6 L402.7,601.0 L403.4,607.3 L404.2,613.7 L405.3,620.0 L406.5,626.3 L408.0,632.5 L409.8,638.6 L411.9,644.7 L414.4,650.6 L417.3,656.3" stroke="#1a6e7f" stroke-width="0.9" opacity="0.33" stroke-linecap="round" stroke-dasharray="192.0" style="--len:192.0;--dur:22.0s;--del:4.32s"/>
<path class="fd" d="M712.7,148.2 L717.6,144.1 L722.8,140.5 L728.5,137.5 L734.5,135.4 L740.8,134.0 L747.2,133.5 L753.6,133.7 L759.9,134.4 L766.3,135.3 L772.6,136.2 L779.0,136.9 L785.4,137.0 L791.7,136.7 L798.1,135.9" stroke="#1f6d82" stroke-width="0.9" opacity="0.51" stroke-linecap="round" stroke-dasharray="90.0" style="--len:90.0;--dur:22.5s;--del:4.68s"/>
<path class="fd" d="M40.0,704.3 L33.7,703.2 L28.1,700.1 L24.1,695.1 L21.8,689.1 L21.0,682.8 L21.0,676.4 L21.8,670.0 L23.0,663.7 L24.7,657.6 L26.9,651.6 L29.7,645.8 L33.1,640.4 L37.0,635.3 L41.6,630.8 L46.6,626.9 L52.0,623.5 L57.6,620.4 L63.4,617.5 L69.1,614.6 L74.6,611.5 L79.9,607.9 L84.8,603.8 L89.2,599.1 L92.8,593.8 L95.5,588.0 L97.5,581.9 L98.8,575.6 L99.7,569.3 L100.2,562.9 L100.5,556.5" stroke="#217263" stroke-width="0.9" opacity="0.51" stroke-linecap="round" stroke-dasharray="192.0" style="--len:192.0;--dur:23.0s;--del:5.04s"/>
<path class="fd" d="M235.0,38.6 L237.4,32.7 L240.0,26.8 L242.5,21.0 L244.9,15.0 L246.9,8.9 L248.6,2.8" stroke="#1a6e7f" stroke-width="0.9" opacity="0.51" stroke-linecap="round" stroke-dasharray="38.0" style="--len:38.0;--dur:21.0s;--del:5.4s"/>
<path class="fd" d="M597.5,605.7 L603.2,602.8 L608.6,599.4 L613.7,595.5 L618.6,591.3 L623.1,586.8 L627.3,581.9 L631.0,576.7 L634.2,571.2 L636.8,565.3 L638.8,559.2 L640.1,553.0 L640.9,546.6 L641.2,540.2 L640.9,533.9 L640.2,527.5 L639.1,521.2 L637.6,515.0 L635.8,508.8 L633.5,502.9 L630.9,497.0 L627.9,491.3 L624.7,485.8 L621.3,480.4 L617.8,475.1 L614.2,469.7 L610.7,464.4 L607.2,459.0 L604.0,453.5 L601.0,447.8 L598.2,442.1" stroke="#1f6d82" stroke-width="0.9" opacity="0.41" stroke-linecap="round" stroke-dasharray="192.0" style="--len:192.0;--dur:21.5s;--del:5.76s"/>
<path class="fd" d="M305.3,523.4 L309.2,518.4 L314.2,514.4 L320.1,512.0 L326.5,511.6 L332.7,513.2 L338.2,516.5 L342.8,520.9 L346.7,526.1 L349.8,531.7 L352.2,537.6 L354.0,543.7 L355.3,550.0 L356.2,556.3 L356.6,562.7 L356.7,569.1 L356.4,575.5 L355.7,581.9 L354.8,588.2 L353.4,594.5 L351.7,600.6 L349.6,606.7 L347.1,612.6 L344.2,618.2 L340.8,623.7 L337.2,629.0 L333.2,634.0 L329.0,638.8 L324.6,643.4 L320.1,648.0 L315.6,652.6" stroke="#217263" stroke-width="0.9" opacity="0.35" stroke-linecap="round" stroke-dasharray="192.0" style="--len:192.0;--dur:22.0s;--del:6.12s"/>
<path class="fd" d="M159.5,493.6 L158.3,499.9 L158.0,506.3 L158.9,512.7 L161.0,518.7 L164.6,524.0 L169.3,528.3 L174.9,531.5 L180.9,533.6 L187.2,534.8 L193.5,535.5 L199.9,535.9 L206.3,536.1 L212.7,536.2 L219.1,536.2 L225.5,536.1 L231.9,535.8 L238.3,535.2 L244.6,534.1 L250.8,532.4 L256.7,530.0 L262.3,526.9 L267.5,523.1 L272.3,518.9 L276.8,514.4 L281.3,509.9 L286.0,505.5 L291.1,501.6 L296.7,498.5 L302.8,496.7 L309.2,496.5" stroke="#1a6e7f" stroke-width="0.9" opacity="0.37" stroke-linecap="round" stroke-dasharray="192.0" style="--len:192.0;--dur:22.5s;--del:6.48s"/>
<path class="fd" d="M461.5,556.0 L464.1,561.8 L466.3,567.8 L468.5,573.9 L470.8,579.8 L473.5,585.6 L476.7,591.2 L480.4,596.4 L484.6,601.2 L489.2,605.7 L494.0,609.9 L499.1,613.8 L504.2,617.6 L509.4,621.3 L514.6,625.1 L519.8,628.9 L524.8,632.8 L529.8,636.8 L534.8,640.9 L539.7,644.9 L544.8,648.9 L550.0,652.5 L555.6,655.6 L561.7,657.8 L568.0,658.7 L574.4,658.0 L580.3,655.7 L585.5,651.9 L589.8,647.2 L593.5,641.9 L596.7,636.4" stroke="#1f6d82" stroke-width="0.9" opacity="0.4" stroke-linecap="round" stroke-dasharray="192.0" style="--len:192.0;--dur:23.0s;--del:6.84s"/>
<path class="fd" d="M332.4,294.6 L336.7,299.3 L341.8,303.2 L347.5,306.1 L353.6,308.1 L359.9,309.5 L366.2,310.3 L372.6,310.7 L379.0,310.9 L385.4,311.0 L391.8,311.0 L398.2,311.0 L404.6,310.9 L411.0,310.8 L417.4,310.6 L423.8,310.0 L430.1,309.0 L436.3,307.4 L442.2,305.0 L447.7,301.7 L452.4,297.4 L456.1,292.2 L458.6,286.2 L459.8,280.0 L459.9,273.6 L459.2,267.2 L457.9,260.9 L456.2,254.8 L454.1,248.7 L451.7,242.8 L449.0,237.0" stroke="#217263" stroke-width="0.9" opacity="0.29" stroke-linecap="round" stroke-dasharray="192.0" style="--len:192.0;--dur:21.0s;--del:7.2s"/>
<path class="fd" d="M122.8,641.1 L117.3,638.0 L112.1,634.2 L107.5,629.8 L103.5,624.7 L100.6,619.0 L98.6,612.9 L97.7,606.6 L97.5,600.2 L97.9,593.8 L98.5,587.5 L99.1,581.1 L99.7,574.7 L100.1,568.3 L100.4,561.9 L100.6,555.5 L100.7,549.1 L100.7,542.7 L100.6,536.3 L100.4,529.9 L100.2,523.5 L99.8,517.2 L99.3,510.8 L98.6,504.4 L97.7,498.1 L96.6,491.8 L95.2,485.5 L93.4,479.4 L91.1,473.4 L88.3,467.7 L84.8,462.3" stroke="#1a6e7f" stroke-width="0.9" opacity="0.47" stroke-linecap="round" stroke-dasharray="192.0" style="--len:192.0;--dur:21.5s;--del:7.56s"/>
<path class="fd" d="M504.4,701.6 L500.6,696.5 L497.0,691.2 L493.4,685.9 L489.9,680.6 L486.4,675.2 L483.1,669.7 L479.9,664.2 L477.0,658.5 L474.8,652.5 L473.6,646.2 L474.2,639.8 L477.1,634.1 L482.1,630.1 L488.2,628.4 L494.6,628.5 L500.9,629.9 L506.9,632.0 L512.7,634.8 L518.2,638.0 L523.6,641.5 L528.8,645.2 L533.9,649.1 L539.0,653.0 L544.2,656.7 L549.6,660.1 L555.4,662.8 L561.5,664.5 L567.9,664.9 L574.2,663.7 L580.0,660.9" stroke="#1f6d82" stroke-width="0.9" opacity="0.42" stroke-linecap="round" stroke-dasharray="192.0" style="--len:192.0;--dur:22.0s;--del:7.92s"/>
<path class="fd" d="M368.8,723.7 L374.4,726.8 L380.3,729.3 L386.4,731.1 L392.8,731.8 L399.2,731.4 L405.4,730.0 L411.4,727.6 L417.0,724.6 L422.4,721.1 L427.7,717.6 L433.1,714.2 L438.9,711.3 L445.0,709.5 L451.4,709.1 L457.7,710.4 L463.4,713.2 L468.5,717.2 L472.9,721.8 L477.0,726.7 L481.0,731.7 L484.9,736.7 L489.1,741.6 L493.5,746.3 L498.1,750.6 L503.1,754.6 L508.5,758.2 L514.0,761.3 L519.8,764.1 L525.7,766.5 L531.7,768.8" stroke="#217263" stroke-width="0.9" opacity="0.47" stroke-linecap="round" stroke-dasharray="192.0" style="--len:192.0;--dur:22.5s;--del:8.28s"/>
<path class="fd" d="M419.6,335.5 L425.6,333.6 L431.6,331.3 L437.5,328.6 L443.1,325.6 L448.4,322.0 L453.3,317.9 L457.6,313.2 L461.0,307.8 L463.4,301.8 L464.7,295.6 L464.9,289.2 L464.4,282.8 L463.3,276.5 L461.8,270.3 L460.0,264.1 L458.0,258.0 L455.8,252.0 L453.4,246.1 L450.8,240.3 L447.9,234.5 L444.8,228.9 L441.6,223.4 L438.1,218.0 L434.6,212.7 L431.0,207.4 L427.4,202.1 L424.0,196.7 L420.8,191.1 L417.9,185.4 L415.5,179.5" stroke="#1a6e7f" stroke-width="0.9" opacity="0.32" stroke-linecap="round" stroke-dasharray="192.0" style="--len:192.0;--dur:23.0s;--del:8.64s"/>
<path class="fd" d="M737.4,167.8 L742.6,171.5 L747.7,175.5 L752.7,179.4 L757.9,183.2 L763.4,186.5 L769.2,189.1 L775.4,190.9 L781.7,191.8 L788.1,191.8 L794.4,190.7" stroke="#1f6d82" stroke-width="0.9" opacity="0.51" stroke-linecap="round" stroke-dasharray="64.0" style="--len:64.0;--dur:21.0s;--del:9.0s"/>
<path class="fd" d="M581.8,733.6 L575.8,731.2 L570.4,727.8 L565.9,723.3 L562.8,717.7 L561.8,711.4 L562.8,705.0 L565.5,699.2 L568.9,693.8 L572.7,688.7 L576.5,683.5 L580.0,678.1 L583.2,672.6 L586.1,666.9 L588.7,661.1 L591.2,655.2 L593.6,649.2 L595.9,643.3 L598.4,637.4 L600.9,631.5 L603.6,625.7 L606.5,620.0 L609.6,614.4 L612.9,608.9 L616.3,603.5 L619.8,598.1 L623.4,592.8 L626.8,587.4 L630.1,581.9 L633.1,576.3 L635.7,570.4" stroke="#217263" stroke-width="0.9" opacity="0.46" stroke-linecap="round" stroke-dasharray="192.0" style="--len:192.0;--dur:21.5s;--del:9.36s"/>
<path class="fd" d="M778.2,493.2 L784.6,493.3 L791.0,493.2 L797.4,492.9" stroke="#1a6e7f" stroke-width="0.9" opacity="0.51" stroke-linecap="round" stroke-dasharray="19.0" style="--len:19.0;--dur:22.0s;--del:9.72s"/>
<path class="fd" d="M218.6,253.0 L212.4,254.5 L207.8,259.0 L205.9,265.1 L206.3,271.5 L207.7,277.7 L209.6,283.8 L211.7,289.9 L214.0,295.8 L216.6,301.7 L219.5,307.4 L222.8,312.9 L226.4,318.2 L230.5,323.1 L235.1,327.6 L240.0,331.6 L245.4,335.2 L251.0,338.3 L256.8,341.0 L262.7,343.3 L268.8,345.4 L274.9,347.4 L281.0,349.3 L287.1,351.1 L293.2,353.0 L299.3,355.0 L305.3,357.2 L311.2,359.6 L317.1,362.2 L322.8,365.1 L328.3,368.3" stroke="#1f6d82" stroke-width="0.9" opacity="0.34" stroke-linecap="round" stroke-dasharray="192.0" style="--len:192.0;--dur:22.5s;--del:10.08s"/>
<path class="fd" d="M60.0,105.0 L55.5,109.6 L53.9,115.8 L55.0,122.1 L57.7,127.9 L61.3,133.2 L65.1,138.3 L69.0,143.4 L72.9,148.5 L76.7,153.7 L80.4,158.9 L84.0,164.1 L87.7,169.4 L91.4,174.6 L95.3,179.7 L99.5,184.5 L103.9,189.2 L108.6,193.5 L113.7,197.4 L119.1,200.8 L124.7,203.9 L130.5,206.6 L136.4,209.0 L142.4,211.2 L148.4,213.5 L154.4,215.8 L160.3,218.3 L166.1,221.0 L171.7,224.1 L177.1,227.5 L182.1,231.5" stroke="#217263" stroke-width="0.9" opacity="0.49" stroke-linecap="round" stroke-dasharray="192.0" style="--len:192.0;--dur:23.0s;--del:10.44s"/>
<path class="fd" d="M94.4,271.8 L88.4,269.6 L83.6,265.3 L80.5,259.7 L79.1,253.5 L78.9,247.1 L79.5,240.7 L80.8,234.4 L82.7,228.3 L85.2,222.4 L88.4,216.9 L92.4,211.9 L97.3,207.8 L103.1,205.0 L109.3,203.7 L115.7,203.9 L122.0,205.0 L128.2,206.7 L134.3,208.7 L140.4,210.7 L146.4,212.8 L152.4,215.0 L158.4,217.4 L164.2,220.1 L169.9,223.0 L175.3,226.3 L180.5,230.2 L185.2,234.4 L189.5,239.2 L193.2,244.4 L196.5,249.9" stroke="#1a6e7f" stroke-width="0.9" opacity="0.46" stroke-linecap="round" stroke-dasharray="192.0" style="--len:192.0;--dur:21.0s;--del:10.8s"/>
<path class="fd" d="M311.3,628.3 L316.1,632.6 L318.4,638.5 L317.8,644.9 L315.0,650.7 L311.3,655.9 L307.3,660.9 L303.2,665.8 L299.3,670.8 L295.4,675.9 L291.6,681.1 L288.0,686.4 L284.3,691.6 L280.7,696.9 L276.9,702.1 L273.0,707.1 L268.9,712.0 L264.4,716.7 L259.7,721.0 L254.7,725.0 L249.4,728.5 L243.8,731.6 L237.9,734.2 L231.9,736.4 L225.8,738.2 L219.5,739.6 L213.2,740.8 L206.9,741.6 L200.5,742.3 L194.2,742.7 L187.8,743.0" stroke="#1f6d82" stroke-width="0.9" opacity="0.46" stroke-linecap="round" stroke-dasharray="192.0" style="--len:192.0;--dur:21.5s;--del:11.16s"/>
<path class="fd" d="M556.7,377.3 L550.4,376.1 L544.0,375.9 L537.6,376.5 L531.3,377.8 L525.2,379.5 L519.2,381.7 L513.3,384.3 L507.7,387.3 L502.3,390.8 L497.2,394.6 L492.3,398.8 L487.8,403.4 L483.6,408.2 L479.6,413.2 L475.8,418.4 L472.2,423.6 L468.5,428.8 L464.8,434.1 L461.1,439.3 L457.2,444.4 L453.2,449.3 L449.0,454.2 L444.7,458.9 L440.2,463.5 L435.7,468.0 L431.2,472.5 L426.7,477.1 L422.4,481.9 L418.4,486.9 L414.7,492.1" stroke="#217263" stroke-width="0.9" opacity="0.28" stroke-linecap="round" stroke-dasharray="192.0" style="--len:192.0;--dur:22.0s;--del:11.52s"/>
<path class="fd" d="M438.0,598.2 L440.9,592.5 L446.1,588.7 L452.4,587.9 L458.6,589.7 L464.1,592.8 L469.3,596.5 L474.4,600.4 L479.6,604.2 L484.8,607.9 L490.1,611.5 L495.4,615.0 L500.8,618.5 L506.2,621.9 L511.6,625.4 L516.8,629.1 L522.0,632.9 L527.1,636.8 L532.0,640.8 L537.0,644.9 L542.0,648.8 L547.2,652.6 L552.6,656.0 L558.5,658.6 L564.7,660.1 L571.1,660.2 L577.3,658.5 L582.8,655.3 L587.5,651.0 L591.4,645.9 L594.8,640.5" stroke="#1a6e7f" stroke-width="0.9" opacity="0.41" stroke-linecap="round" stroke-dasharray="192.0" style="--len:192.0;--dur:22.5s;--del:11.88s"/>
<path class="fd" d="M711.6,443.6 L705.3,445.0 L699.2,446.8 L693.2,449.0 L687.5,452.0 L682.2,455.5 L677.3,459.6 L672.6,464.1 L668.1,468.6 L663.4,472.9 L658.3,476.8 L652.6,479.7 L646.4,481.4 L640.0,481.4 L633.8,479.9 L628.0,477.2 L622.7,473.6 L617.9,469.4 L613.4,464.8 L609.4,459.9 L605.7,454.6 L602.3,449.2 L599.2,443.6 L596.4,437.8 L593.9,432.0 L591.4,426.1 L589.0,420.1 L586.6,414.2 L584.1,408.3 L581.3,402.6 L578.2,397.0" stroke="#1f6d82" stroke-width="0.9" opacity="0.39" stroke-linecap="round" stroke-dasharray="192.0" style="--len:192.0;--dur:23.0s;--del:12.24s"/>
<path class="fd" d="M447.9,639.2 L442.3,636.1 L436.3,634.0 L429.9,633.5 L423.8,635.5 L419.6,640.4 L418.2,646.6 L419.0,652.9 L421.2,659.0 L424.2,664.6 L428.0,669.8 L432.1,674.6 L436.6,679.2 L441.2,683.7 L445.9,688.0 L450.5,692.5 L454.9,697.1 L459.2,701.8 L463.3,706.8 L467.2,711.8 L471.0,717.0 L474.6,722.3 L478.3,727.5 L482.1,732.7 L486.0,737.7 L490.1,742.6 L494.5,747.3 L499.3,751.6 L504.3,755.5 L509.7,758.9 L515.4,762.0" stroke="#217263" stroke-width="0.9" opacity="0.44" stroke-linecap="round" stroke-dasharray="192.0" style="--len:192.0;--dur:21.0s;--del:12.6s"/>
<path class="fd" d="M134.6,603.5 L129.8,607.7 L123.8,609.9 L117.4,609.7 L111.5,607.3 L106.7,603.1 L103.3,597.6 L101.4,591.5 L100.5,585.2 L100.2,578.8 L100.3,572.4 L100.4,566.0 L100.6,559.6 L100.7,553.2 L100.7,546.8 L100.7,540.4 L100.5,534.0 L100.3,527.6 L100.0,521.2 L99.6,514.8 L99.0,508.4 L98.3,502.1 L97.4,495.8 L96.2,489.5 L94.6,483.3 L92.7,477.2 L90.2,471.3 L87.1,465.7 L83.3,460.5 L78.8,455.9 L73.7,452.1" stroke="#1a6e7f" stroke-width="0.9" opacity="0.47" stroke-linecap="round" stroke-dasharray="192.0" style="--len:192.0;--dur:21.5s;--del:12.96s"/>
<path class="fd" d="M60.2,697.2 L54.3,699.6 L48.2,701.6 L41.9,702.6 L35.5,702.0 L29.6,699.5 L25.1,694.9 L22.5,689.1 L21.3,682.8 L21.3,676.4 L21.9,670.0 L23.1,663.7 L24.8,657.5 L27.0,651.5 L29.7,645.8 L33.1,640.3 L37.1,635.3 L41.6,630.8 L46.7,626.9 L52.1,623.4 L57.7,620.4 L63.4,617.5 L69.1,614.6 L74.7,611.4 L80.0,607.9 L84.9,603.7 L89.2,599.0 L92.8,593.7 L95.5,587.9 L97.5,581.8 L98.9,575.6" stroke="#1f6d82" stroke-width="0.9" opacity="0.51" stroke-linecap="round" stroke-dasharray="192.0" style="--len:192.0;--dur:22.0s;--del:13.32s"/>
<path class="fd" d="M613.0,317.7 L606.7,316.7 L600.5,318.4 L595.5,322.4 L591.7,327.5 L588.7,333.2 L585.8,338.9 L582.7,344.5 L579.4,350.0 L575.5,355.1 L571.1,359.7 L566.2,363.8 L560.7,367.2 L554.9,369.8 L548.9,372.0 L542.8,373.9 L536.6,375.6 L530.5,377.5 L524.5,379.5 L518.5,381.9 L512.7,384.6 L507.1,387.7 L501.7,391.2 L496.6,395.0 L491.9,399.3 L487.4,403.9 L483.2,408.7 L479.2,413.7 L475.4,418.9 L471.8,424.1 L468.1,429.4" stroke="#217263" stroke-width="0.9" opacity="0.32" stroke-linecap="round" stroke-dasharray="192.0" style="--len:192.0;--dur:22.5s;--del:13.68s"/>
<path class="fd" d="M75.0,430.3 L68.7,431.3 L62.4,432.4 L56.0,433.0 L49.6,433.0 L43.3,432.0 L37.3,429.8 L31.8,426.4 L27.3,421.9 L23.8,416.5 L21.5,410.6 L20.0,404.4 L19.1,398.0 L18.8,391.6 L18.8,385.2 L19.1,378.8 L19.6,372.5 L20.4,366.1 L21.4,359.8 L22.7,353.5 L24.3,347.3 L26.1,341.2 L28.2,335.2 L30.7,329.2 L33.5,323.5 L36.5,317.8 L39.7,312.3 L43.1,306.9 L46.6,301.5 L50.1,296.2 L53.5,290.8" stroke="#1a6e7f" stroke-width="0.9" opacity="0.49" stroke-linecap="round" stroke-dasharray="192.0" style="--len:192.0;--dur:23.0s;--del:14.04s"/>
<path class="fd" d="M364.0,72.8 L369.9,75.4 L375.8,77.9 L381.8,80.0 L388.0,81.4 L394.4,81.9 L400.8,81.2 L407.0,79.5 L412.8,77.0 L418.6,74.1 L424.2,71.1 L430.0,68.3 L435.8,65.6 L441.7,63.2 L447.7,60.8 L453.6,58.4 L459.4,55.8 L465.1,52.9 L470.5,49.4 L475.5,45.4 L479.8,40.7 L483.4,35.4 L486.2,29.7 L488.2,23.6 L489.5,17.3 L490.4,11.0 L490.9,4.6" stroke="#1f6d82" stroke-width="0.9" opacity="0.48" stroke-linecap="round" stroke-dasharray="166.0" style="--len:166.0;--dur:21.0s;--del:14.4s"/>
<path class="fd" d="M90.4,21.2 L92.6,27.2 L95.4,33.0 L98.8,38.4 L102.7,43.5 L107.1,48.1 L111.8,52.5 L116.6,56.6 L121.6,60.6 L126.7,64.6 L131.7,68.5 L136.7,72.5 L141.7,76.6 L146.6,80.7 L151.6,84.7 L156.7,88.6 L162.0,92.0 L167.8,94.9 L173.9,96.7 L180.3,97.2 L186.6,96.0 L192.3,93.2 L197.2,89.1 L201.4,84.2 L205.0,78.9 L208.3,73.5 L211.4,67.9 L214.6,62.3 L217.9,56.8 L221.3,51.4 L224.8,46.1" stroke="#217263" stroke-width="0.9" opacity="0.51" stroke-linecap="round" stroke-dasharray="192.0" style="--len:192.0;--dur:21.5s;--del:14.76s"/>
<path class="fd" d="M259.9,771.2 L266.2,772.0 L272.3,774.2 L277.5,777.9 L281.2,783.1 L283.1,789.2 L282.8,795.6" stroke="#1a6e7f" stroke-width="0.9" opacity="0.51" stroke-linecap="round" stroke-dasharray="38.0" style="--len:38.0;--dur:22.0s;--del:15.12s"/>
<path class="fd" d="M598.2,78.0 L604.6,78.7 L610.9,78.2 L617.1,76.4 L622.9,73.7 L628.4,70.5 L633.7,66.9 L638.9,63.2 L644.1,59.3 L649.1,55.5 L654.2,51.5 L659.2,47.5 L664.0,43.3 L668.6,38.8 L672.8,34.0 L676.7,28.9 L680.0,23.5 L682.9,17.7 L685.1,11.8 L687.0,5.6" stroke="#1f6d82" stroke-width="0.9" opacity="0.51" stroke-linecap="round" stroke-dasharray="122.0" style="--len:122.0;--dur:22.5s;--del:15.48s"/>
<path class="fd" d="M210.1,483.5 L216.5,483.6 L222.8,482.5 L228.8,480.3 L234.5,477.3 L239.8,473.8 L244.9,469.9 L249.9,465.9 L255.1,462.2 L260.6,458.9 L266.6,456.7 L273.0,455.9 L279.3,457.0 L285.1,459.6 L290.2,463.5 L294.8,468.0 L299.1,472.7 L303.3,477.6 L307.5,482.4 L311.9,487.0 L316.4,491.6 L320.9,496.1 L325.6,500.5 L330.2,505.0 L334.6,509.5 L338.9,514.3 L342.8,519.4 L346.3,524.7 L349.3,530.4 L351.8,536.3 L353.7,542.4" stroke="#217263" stroke-width="0.9" opacity="0.32" stroke-linecap="round" stroke-dasharray="192.0" style="--len:192.0;--dur:23.0s;--del:15.84s"/>
<path class="fd" d="M465.4,407.2 L469.1,412.4 L470.1,418.8 L468.7,425.0 L466.0,430.8 L462.7,436.3 L459.1,441.6 L455.2,446.7 L451.2,451.6 L446.9,456.4 L442.5,461.1 L438.1,465.7 L433.5,470.2 L429.0,474.7 L424.6,479.4 L420.4,484.2 L416.6,489.3 L413.1,494.7 L410.2,500.4 L407.8,506.4 L406.0,512.5 L404.5,518.7 L403.5,525.0 L402.7,531.4 L402.1,537.7 L401.7,544.1 L401.4,550.5 L401.2,556.9 L401.1,563.3 L401.1,569.7 L401.3,576.1" stroke="#1a6e7f" stroke-width="0.9" opacity="0.28" stroke-linecap="round" stroke-dasharray="192.0" style="--len:192.0;--dur:21.0s;--del:16.2s"/>
<path class="fd" d="M735.0,57.2 L732.5,63.1 L729.2,68.6 L725.4,73.8 L721.3,78.7 L717.0,83.4 L712.6,88.0 L708.1,92.6 L703.7,97.2 L699.3,101.9 L695.0,106.7 L690.9,111.6 L687.0,116.6 L683.2,121.8 L679.5,127.0 L675.9,132.3 L672.2,137.5 L668.5,142.7 L664.6,147.8 L660.5,152.8 L656.2,157.5 L651.6,161.9 L646.6,165.9 L641.4,169.6 L635.8,172.8 L630.0,175.5 L624.1,177.8 L617.9,179.7 L611.7,181.2 L605.4,182.4 L599.1,183.3" stroke="#1f6d82" stroke-width="0.9" opacity="0.51" stroke-linecap="round" stroke-dasharray="192.0" style="--len:192.0;--dur:21.5s;--del:16.56s"/>
<path class="fd" d="M305.4,308.8 L304.1,315.1 L303.6,321.5 L304.1,327.9 L305.9,334.0 L308.8,339.7 L312.7,344.8 L317.2,349.3 L322.1,353.5 L327.1,357.4 L332.2,361.4 L337.2,365.3 L342.2,369.4 L347.1,373.5 L351.9,377.7 L356.8,381.8 L361.8,385.8 L367.0,389.5 L372.5,392.8 L378.3,395.5 L384.4,397.4 L390.7,398.5 L397.1,398.4 L403.4,397.4 L409.5,395.5 L415.3,392.7 L420.8,389.4 L426.0,385.7 L431.0,381.7 L436.0,377.7 L440.9,373.6" stroke="#217263" stroke-width="0.9" opacity="0.25" stroke-linecap="round" stroke-dasharray="192.0" style="--len:192.0;--dur:22.0s;--del:16.92s"/>
<path class="fd" d="M266.9,469.1 L272.9,466.7 L279.2,465.9 L285.5,466.8 L291.4,469.3 L296.7,472.9 L301.5,477.1 L306.1,481.6 L310.6,486.1 L315.1,490.6 L319.8,495.1 L324.4,499.5 L329.0,503.9 L333.6,508.4 L337.9,513.1 L341.9,518.1 L345.5,523.4 L348.7,529.0 L351.3,534.8 L353.3,540.9 L354.8,547.1 L355.9,553.4 L356.5,559.8 L356.7,566.2 L356.6,572.6 L356.1,579.0 L355.3,585.3 L354.1,591.6 L352.5,597.8 L350.6,603.9 L348.3,609.9" stroke="#1a6e7f" stroke-width="0.9" opacity="0.32" stroke-linecap="round" stroke-dasharray="192.0" style="--len:192.0;--dur:22.5s;--del:17.28s"/>
<path class="fd" d="M479.5,190.9 L474.6,195.0 L469.5,198.9 L464.1,202.2 L458.2,204.6 L451.8,205.7 L445.5,205.3 L439.3,203.5 L433.7,200.5 L428.6,196.6 L424.2,192.0 L420.3,186.9 L417.2,181.3 L414.6,175.4 L412.7,169.3 L411.2,163.1 L410.2,156.8 L409.6,150.4 L409.3,144.0 L409.3,137.6 L409.5,131.2 L410.0,124.8 L410.8,118.5 L411.8,112.2 L413.3,105.9 L415.1,99.8 L417.3,93.8 L420.1,88.0 L423.4,82.6 L427.4,77.5 L431.9,73.0" stroke="#1f6d82" stroke-width="0.9" opacity="0.4" stroke-linecap="round" stroke-dasharray="192.0" style="--len:192.0;--dur:23.0s;--del:17.64s"/>
<path class="fd" d="M711.5,770.2 L705.1,769.7 L699.0,767.8 L693.3,764.8 L688.2,761.0 L683.4,756.8 L678.6,752.5 L673.8,748.3 L668.6,744.6 L663.0,741.5 L657.0,739.3 L650.7,737.9 L644.3,737.3 L637.9,737.3 L631.5,737.7 L625.2,738.2 L618.8,738.7 L612.4,739.1 L606.0,739.4 L599.6,739.4 L593.2,739.1 L586.8,738.5 L580.5,737.5 L574.3,735.9 L568.3,733.6 L562.8,730.5 L558.0,726.3 L554.5,720.9 L552.9,714.7 L553.6,708.3 L556.3,702.6" stroke="#217263" stroke-width="0.9" opacity="0.51" stroke-linecap="round" stroke-dasharray="192.0" style="--len:192.0;--dur:21.0s;--del:18.0s"/>
<path class="fd" d="M140.0,573.8 L139.8,580.2 L139.1,586.6 L137.5,592.8 L134.6,598.5 L130.2,603.2 L124.5,606.1 L118.1,606.5 L112.1,604.5 L107.1,600.5 L103.6,595.1 L101.6,589.0 L100.7,582.7 L100.4,576.3 L100.4,569.9 L100.5,563.5 L100.6,557.1 L100.7,550.7 L100.7,544.3 L100.6,537.9 L100.5,531.5 L100.2,525.1 L99.9,518.7 L99.4,512.4 L98.8,506.0 L98.0,499.6 L96.9,493.3 L95.6,487.1 L93.9,480.9 L91.8,474.9 L89.0,469.1" stroke="#1a6e7f" stroke-width="0.9" opacity="0.47" stroke-linecap="round" stroke-dasharray="192.0" style="--len:192.0;--dur:21.5s;--del:18.36s"/>
<path class="fd" d="M588.9,121.0 L591.0,127.1 L592.9,133.2 L594.5,139.4 L595.4,145.7 L595.3,152.1 L593.9,158.4 L590.8,164.0 L586.3,168.5 L580.8,171.7 L574.7,173.8 L568.4,174.8 L562.0,175.2 L555.6,174.9 L549.3,174.2 L543.0,173.2 L536.7,171.9 L530.5,170.5 L524.2,169.0 L518.0,167.7 L511.6,166.7 L505.3,166.3 L498.9,166.6 L492.6,167.9 L486.6,170.1 L481.0,173.3 L475.8,177.0 L470.9,181.1 L465.9,185.2 L460.8,189.0 L455.3,192.2" stroke="#1f6d82" stroke-width="0.9" opacity="0.42" stroke-linecap="round" stroke-dasharray="192.0" style="--len:192.0;--dur:22.0s;--del:18.72s"/>
<path class="fd" d="M214.6,150.5 L208.3,149.2 L202.6,146.2 L198.1,141.7 L195.3,136.0 L194.1,129.7 L194.4,123.3 L195.5,117.0 L197.0,110.8 L198.9,104.6 L200.9,98.5 L202.9,92.5 L205.1,86.5 L207.4,80.5 L209.9,74.6 L212.5,68.8 L215.3,63.0 L218.4,57.4 L221.6,51.8 L225.0,46.4 L228.5,41.1 L232.0,35.7 L235.5,30.4 L238.8,24.9 L241.9,19.3 L244.6,13.5 L246.8,7.5 L248.5,1.3" stroke="#217263" stroke-width="0.9" opacity="0.5" stroke-linecap="round" stroke-dasharray="173.0" style="--len:173.0;--dur:22.5s;--del:19.08s"/>
<path class="fd" d="M672.4,196.9 L678.2,194.1 L684.0,191.5 L690.1,189.3 L696.3,187.8 L702.7,187.3 L709.0,188.1 L715.0,190.2 L720.6,193.3 L725.8,197.1 L730.8,201.1 L735.7,205.2 L740.8,209.1 L746.2,212.6 L751.8,215.6 L757.7,218.0 L763.9,219.8 L770.1,221.1 L776.5,221.9 L782.9,222.2 L789.3,222.1 L795.7,221.6" stroke="#1a6e7f" stroke-width="0.9" opacity="0.51" stroke-linecap="round" stroke-dasharray="134.0" style="--len:134.0;--dur:23.0s;--del:19.44s"/>
<path class="fd" d="M77.3,524.9 L83.7,524.1 L89.3,521.0 L93.2,515.9 L95.2,509.9 L96.0,503.5 L95.9,497.1 L95.2,490.8 L94.0,484.5 L92.3,478.3 L90.0,472.4 L87.1,466.7 L83.5,461.4 L79.1,456.7 L74.1,452.7 L68.6,449.4 L62.8,446.8 L56.8,444.5 L50.8,442.2 L45.0,439.6 L39.3,436.6 L34.1,432.9 L29.6,428.4 L25.9,423.2 L23.0,417.4 L21.0,411.3 L19.8,405.1 L19.0,398.7 L18.7,392.3 L18.7,385.9 L19.0,379.5" stroke="#1f6d82" stroke-width="0.9" opacity="0.48" stroke-linecap="round" stroke-dasharray="192.0" style="--len:192.0;--dur:21.0s;--del:19.8s"/>
<path class="fd" d="M179.5,22.5 L185.9,22.5 L192.3,22.3 L198.7,22.1 L205.1,21.7 L211.5,20.9 L217.8,19.8 L223.9,18.0 L229.8,15.4 L235.2,12.0 L239.9,7.6 L243.7,2.5" stroke="#217263" stroke-width="0.9" opacity="0.51" stroke-linecap="round" stroke-dasharray="70.0" style="--len:70.0;--dur:21.5s;--del:20.16s"/>
<path class="fd" d="M294.4,318.1 L292.7,324.2 L292.3,330.6 L293.6,336.9 L296.7,342.5 L301.0,347.3 L306.0,351.2 L311.3,354.8 L316.8,358.1 L322.2,361.4 L327.6,364.9 L332.9,368.5 L338.1,372.3 L343.1,376.2 L348.1,380.3 L353.0,384.4 L358.0,388.4 L363.1,392.2 L368.4,395.7 L374.1,398.8 L380.0,401.2 L386.2,402.8 L392.6,403.4 L399.0,403.1 L405.2,401.9 L411.3,399.9 L417.1,397.1 L422.6,393.8 L427.8,390.2 L433.0,386.4 L438.0,382.4" stroke="#1a6e7f" stroke-width="0.9" opacity="0.25" stroke-linecap="round" stroke-dasharray="192.0" style="--len:192.0;--dur:22.0s;--del:20.52s"/>
<path class="fd" d="M638.4,557.2 L639.9,551.0 L640.7,544.7 L640.9,538.3 L640.6,531.9 L639.9,525.5 L638.7,519.2 L637.1,513.0 L635.1,507.0 L632.7,501.0 L630.0,495.2 L626.9,489.6 L623.6,484.1 L620.2,478.7 L616.6,473.4 L613.1,468.1 L609.6,462.7 L606.2,457.3 L603.0,451.7 L600.1,446.0 L597.3,440.3 L594.7,434.4 L592.3,428.5 L589.9,422.5 L587.6,416.6 L585.1,410.7 L582.4,404.9 L579.5,399.2 L576.1,393.8 L572.1,388.7 L567.6,384.3" stroke="#1f6d82" stroke-width="0.9" opacity="0.38" stroke-linecap="round" stroke-dasharray="192.0" style="--len:192.0;--dur:22.5s;--del:20.88s"/>
<path class="fd" d="M460.3,321.5 L463.7,316.1 L466.1,310.1 L467.5,303.9 L467.8,297.5 L467.3,291.1 L466.2,284.8 L464.7,278.6 L463.0,272.4 L461.1,266.3 L459.0,260.3 L456.8,254.3 L454.4,248.3 L451.9,242.5 L449.1,236.7 L446.1,231.0 L442.9,225.5 L439.5,220.1 L436.0,214.7 L432.4,209.4 L428.8,204.2 L425.3,198.8 L422.0,193.3 L419.0,187.6 L416.4,181.8 L414.2,175.8 L412.4,169.6 L411.1,163.4 L410.2,157.0 L409.6,150.7 L409.3,144.3" stroke="#217263" stroke-width="0.9" opacity="0.34" stroke-linecap="round" stroke-dasharray="192.0" style="--len:192.0;--dur:23.0s;--del:21.24s"/>
<path class="fd" d="M471.2,409.6 L472.1,415.9 L470.7,422.2 L468.0,428.0 L464.8,433.5 L461.2,438.8 L457.4,444.0 L453.4,449.0 L449.2,453.9 L444.9,458.6 L440.5,463.2 L436.0,467.7 L431.5,472.3 L427.0,476.8 L422.7,481.6 L418.6,486.5 L414.9,491.8 L411.7,497.3 L409.0,503.1 L406.9,509.1 L405.3,515.3 L404.0,521.6 L403.1,527.9 L402.4,534.3 L401.9,540.7 L401.5,547.1 L401.3,553.5 L401.2,559.9 L401.1,566.3 L401.2,572.7 L401.4,579.1" stroke="#1a6e7f" stroke-width="0.9" opacity="0.28" stroke-linecap="round" stroke-dasharray="192.0" style="--len:192.0;--dur:21.0s;--del:21.6s"/>
<path class="fd" d="M602.7,452.0 L599.9,446.2 L597.2,440.4 L594.7,434.6 L592.3,428.6 L590.0,422.7 L587.6,416.7 L585.1,410.8 L582.5,405.0 L579.5,399.3 L576.1,393.9 L572.2,388.8 L567.7,384.3 L562.4,380.7 L556.6,378.0 L550.4,376.5 L544.0,376.1 L537.6,376.6 L531.3,377.8 L525.2,379.6 L519.1,381.8 L513.3,384.4 L507.6,387.4 L502.2,390.8 L497.1,394.6 L492.3,398.9 L487.8,403.4 L483.6,408.2 L479.6,413.2 L475.8,418.4 L472.1,423.6" stroke="#1f6d82" stroke-width="0.9" opacity="0.32" stroke-linecap="round" stroke-dasharray="192.0" style="--len:192.0;--dur:21.5s;--del:21.96s"/>
<path class="fd" d="M508.2,295.7 L501.9,296.9 L495.5,296.8 L489.2,295.4 L483.4,292.8 L478.2,289.1 L473.6,284.6 L469.8,279.4 L466.5,274.0 L463.6,268.2 L460.9,262.4 L458.4,256.5 L455.9,250.7 L453.2,244.8 L450.4,239.1 L447.5,233.4 L444.3,227.8 L441.0,222.4 L437.5,217.0 L433.9,211.7 L430.3,206.4 L426.8,201.1 L423.4,195.7 L420.2,190.1 L417.4,184.3 L415.1,178.4 L413.1,172.3 L411.6,166.1 L410.5,159.8 L409.8,153.4 L409.4,147.0" stroke="#217263" stroke-width="0.9" opacity="0.34" stroke-linecap="round" stroke-dasharray="192.0" style="--len:192.0;--dur:22.0s;--del:22.32s"/>
<path class="fd" d="M728.1,488.5 L732.9,492.7 L738.7,495.4 L744.9,496.8 L751.3,497.4 L757.7,497.6 L764.1,497.5 L770.5,497.4 L776.9,497.3 L783.3,497.2 L789.7,497.3 L796.1,497.3" stroke="#1a6e7f" stroke-width="0.9" opacity="0.5" stroke-linecap="round" stroke-dasharray="70.0" style="--len:70.0;--dur:22.5s;--del:22.68s"/>
<path class="fd" d="M353.8,216.9 L352.8,223.2 L352.7,229.6 L353.8,235.9 L356.3,241.8 L360.2,246.9 L365.2,251.0 L370.9,253.8 L377.0,255.7 L383.3,256.8 L389.7,257.3 L396.1,257.4 L402.5,257.0 L408.8,256.2 L415.1,254.6 L421.0,252.3 L426.4,248.9 L430.9,244.3 L434.0,238.7 L435.4,232.5 L435.3,226.1 L433.9,219.8 L431.7,213.8 L429.0,208.0 L426.1,202.3 L423.1,196.7 L420.2,191.0 L417.5,185.2 L415.2,179.2 L413.3,173.1 L411.7,166.9" stroke="#1f6d82" stroke-width="0.9" opacity="0.34" stroke-linecap="round" stroke-dasharray="192.0" style="--len:192.0;--dur:23.0s;--del:23.04s"/>
<path class="fd" d="M148.9,674.5 L143.0,671.9 L137.5,668.7 L132.1,665.2 L126.9,661.5 L121.8,657.6 L116.8,653.6 L111.9,649.5 L107.3,645.1 L103.0,640.3 L99.3,635.1 L96.4,629.4 L94.6,623.3 L93.8,616.9 L93.9,610.5 L94.7,604.2 L95.9,597.9 L97.1,591.6 L98.2,585.3 L99.0,578.9 L99.7,572.6 L100.2,566.2 L100.5,559.8 L100.6,553.4 L100.7,547.0 L100.7,540.6 L100.5,534.2 L100.3,527.8 L100.0,521.4 L99.6,515.0 L99.1,508.6" stroke="#217263" stroke-width="0.9" opacity="0.49" stroke-linecap="round" stroke-dasharray="192.0" style="--len:192.0;--dur:21.0s;--del:23.4s"/>
<path class="fd" d="M262.3,183.9 L256.1,182.5 L249.7,181.8 L243.3,181.6 L236.9,181.7 L230.5,182.0 L224.1,182.4 L217.7,182.6 L211.3,182.7 L204.9,182.7 L198.5,182.3 L192.2,181.7 L185.8,180.8 L179.6,179.4 L173.5,177.5 L167.7,174.8 L162.3,171.3 L157.8,166.7 L154.7,161.1 L153.7,154.8 L155.0,148.6 L158.4,143.2 L163.2,138.8 L168.4,135.2 L173.7,131.7 L178.9,127.9 L183.7,123.6 L188.0,118.8 L191.7,113.7 L194.9,108.1 L197.8,102.4" stroke="#1a6e7f" stroke-width="0.9" opacity="0.45" stroke-linecap="round" stroke-dasharray="192.0" style="--len:192.0;--dur:21.5s;--del:23.76s"/>
<path class="fd" d="M792.2,65.7 L795.8,70.9 L798.4,76.8" stroke="#1f6d82" stroke-width="0.9" opacity="0.51" stroke-linecap="round" stroke-dasharray="13.0" style="--len:13.0;--dur:22.0s;--del:24.12s"/>
<path class="fd" d="M125.8,718.4 L119.7,716.6 L113.4,715.2 L107.1,714.6 L100.7,714.9 L94.4,716.2 L88.5,718.6 L83.0,721.9 L77.8,725.7 L73.0,729.9 L68.1,734.0 L62.9,737.8 L57.3,740.9 L51.3,742.9 L44.9,743.4 L38.6,742.2 L33.0,739.2 L28.3,734.8 L24.7,729.5 L22.2,723.6 L20.5,717.4 L19.4,711.1 L18.9,704.8 L18.7,698.4 L18.8,692.0 L19.1,685.6 L19.8,679.2 L20.7,672.9 L22.0,666.6 L23.6,660.4 L25.7,654.4" stroke="#217263" stroke-width="0.9" opacity="0.51" stroke-linecap="round" stroke-dasharray="192.0" style="--len:192.0;--dur:22.5s;--del:24.48s"/>
<path class="fd" d="M114.1,37.7 L118.4,42.4 L123.1,46.9 L127.9,51.0 L132.9,55.1 L138.0,59.0 L143.1,62.8 L148.2,66.6 L153.4,70.3 L158.8,73.9 L164.3,77.1 L170.1,79.7 L176.3,81.5 L182.6,82.2 L189.0,81.3 L194.9,78.9 L200.2,75.4 L204.9,71.0 L209.1,66.1 L213.0,61.0 L216.7,55.9 L220.5,50.7 L224.2,45.5 L228.0,40.3 L231.7,35.1 L235.4,29.8 L238.8,24.4 L241.9,18.9 L244.6,13.1 L246.9,7.1 L248.6,0.9" stroke="#1a6e7f" stroke-width="0.9" opacity="0.51" stroke-linecap="round" stroke-dasharray="192.0" style="--len:192.0;--dur:23.0s;--del:24.84s"/>
<path class="fd" d="M676.9,295.2 L671.9,291.2 L667.5,286.6 L663.3,281.7 L659.2,276.9 L654.7,272.3 L649.8,268.1 L644.3,264.8 L638.3,262.7 L631.9,262.2 L625.6,263.2 L619.8,265.9 L614.7,269.8 L610.5,274.5 L606.9,279.9 L604.0,285.6 L601.5,291.5 L599.3,297.5 L597.3,303.5 L595.3,309.6 L593.4,315.8 L591.5,321.9 L589.4,327.9 L587.2,333.9 L584.6,339.8 L581.7,345.5 L578.4,351.0 L574.5,356.0 L570.0,360.6 L565.0,364.5 L559.5,367.8" stroke="#1f6d82" stroke-width="0.9" opacity="0.39" stroke-linecap="round" stroke-dasharray="192.0" style="--len:192.0;--dur:21.0s;--del:25.2s"/>
<path class="fd" d="M174.1,17.7 L180.5,17.6 L186.9,17.5 L193.3,17.4 L199.7,17.3 L206.1,17.0 L212.4,16.4 L218.8,15.4 L224.9,13.7 L230.8,11.3 L236.2,7.8 L240.9,3.4" stroke="#217263" stroke-width="0.9" opacity="0.51" stroke-linecap="round" stroke-dasharray="70.0" style="--len:70.0;--dur:21.5s;--del:25.56s"/>
<path class="fd" d="M203.7,640.5 L209.8,642.5 L216.2,643.0 L222.5,642.1 L228.5,640.0 L234.2,637.0 L239.6,633.5 L244.7,629.7 L249.8,625.8 L254.8,621.8 L259.8,617.8 L264.8,613.8 L269.7,609.7 L274.6,605.6 L279.2,601.2 L283.7,596.6 L287.7,591.6 L291.3,586.3 L294.3,580.6 L296.8,574.7 L298.7,568.6 L300.2,562.4 L301.5,556.2 L302.7,549.9 L304.1,543.6 L305.8,537.4 L308.0,531.5 L311.1,525.9 L315.3,521.0 L320.6,517.4 L326.7,515.7" stroke="#1a6e7f" stroke-width="0.9" opacity="0.38" stroke-linecap="round" stroke-dasharray="192.0" style="--len:192.0;--dur:22.0s;--del:25.92s"/>
<path class="fd" d="M26.7,524.5 L31.3,528.9 L35.1,534.1 L38.0,539.8 L40.1,545.9 L41.6,552.1 L42.7,558.4 L43.7,564.7 L44.8,571.0 L46.3,577.3 L48.4,583.3 L51.4,588.9 L55.4,593.9 L60.5,597.8 L66.4,600.3 L72.8,601.0 L79.1,599.9 L84.9,597.2 L89.9,593.2 L93.7,588.1 L96.5,582.3 L98.3,576.1 L99.4,569.8 L100.1,563.5 L100.4,557.1 L100.6,550.7 L100.7,544.3 L100.6,537.9 L100.5,531.5 L100.2,525.1 L99.9,518.7" stroke="#1f6d82" stroke-width="0.9" opacity="0.49" stroke-linecap="round" stroke-dasharray="192.0" style="--len:192.0;--dur:22.5s;--del:26.28s"/>
<path class="fd" d="M255.3,549.3 L261.1,546.8 L266.6,543.5 L271.6,539.5 L276.0,534.8 L280.0,529.8 L283.8,524.7 L287.5,519.5 L291.5,514.4 L295.9,509.8 L301.0,506.0 L306.8,503.3 L313.1,502.1 L319.5,502.8 L325.5,504.9 L331.0,508.2 L336.0,512.2 L340.4,516.8 L344.3,521.8 L347.7,527.3 L350.5,533.0 L352.7,539.0 L354.4,545.2 L355.6,551.5 L356.3,557.9 L356.7,564.3 L356.6,570.7 L356.3,577.1 L355.5,583.4 L354.5,589.7 L353.0,596.0" stroke="#217263" stroke-width="0.9" opacity="0.33" stroke-linecap="round" stroke-dasharray="192.0" style="--len:192.0;--dur:23.0s;--del:26.64s"/>
<path class="fd" d="M341.3,488.7 L336.5,492.8 L334.6,499.0 L335.7,505.3 L338.4,511.0 L341.8,516.5 L345.1,522.0 L348.1,527.6 L350.8,533.5 L352.9,539.5 L354.5,545.7 L355.7,552.0 L356.4,558.3 L356.7,564.7 L356.6,571.1 L356.2,577.5 L355.5,583.9 L354.4,590.2 L352.9,596.4 L351.1,602.5 L348.8,608.5 L346.2,614.4 L343.1,620.0 L339.7,625.4 L335.9,630.6 L331.9,635.5 L327.6,640.3 L323.2,644.9 L318.7,649.5 L314.2,654.0 L309.8,658.7" stroke="#1a6e7f" stroke-width="0.9" opacity="0.35" stroke-linecap="round" stroke-dasharray="192.0" style="--len:192.0;--dur:21.0s;--del:27.0s"/>
<path class="fd" d="M521.4,35.6 L516.4,39.6 L510.2,41.3 L503.9,40.3 L498.5,36.8 L494.8,31.6 L492.7,25.6 L491.7,19.3 L491.3,12.9 L491.3,6.5 L491.4,0.1" stroke="#1f6d82" stroke-width="0.9" opacity="0.51" stroke-linecap="round" stroke-dasharray="64.0" style="--len:64.0;--dur:21.5s;--del:27.36s"/>
<path class="fd" d="M230.0,25.1 L234.9,20.9 L239.2,16.2 L242.8,10.9 L245.7,5.2" stroke="#217263" stroke-width="0.9" opacity="0.51" stroke-linecap="round" stroke-dasharray="26.0" style="--len:26.0;--dur:22.0s;--del:27.72s"/>
<path class="fd" d="M407.0,255.9 L413.3,254.5 L419.3,252.4 L424.9,249.2 L429.6,244.9 L433.0,239.5 L434.9,233.4 L435.1,227.0 L434.0,220.7 L431.9,214.6 L429.3,208.8 L426.4,203.1 L423.4,197.4 L420.5,191.7 L417.8,185.9 L415.4,180.0 L413.5,173.9 L411.9,167.7 L410.8,161.4 L409.9,155.0 L409.5,148.6 L409.2,142.2 L409.3,135.8 L409.6,129.5 L410.2,123.1 L411.0,116.7 L412.2,110.4 L413.7,104.2 L415.6,98.1 L418.0,92.2 L420.9,86.5" stroke="#1a6e7f" stroke-width="0.9" opacity="0.38" stroke-linecap="round" stroke-dasharray="192.0" style="--len:192.0;--dur:22.5s;--del:28.08s"/>
<path class="fd" d="M543.1,694.7 L548.9,692.0 L555.0,689.9 L560.9,687.6 L566.7,684.8 L572.1,681.3 L576.9,677.1 L581.1,672.3 L584.6,667.0 L587.7,661.4 L590.5,655.6 L593.0,649.7 L595.5,643.8 L598.0,637.9 L600.6,632.0 L603.3,626.2 L606.2,620.5 L609.2,614.9 L612.5,609.4 L615.9,604.0 L619.4,598.7 L623.0,593.3 L626.5,588.0 L629.8,582.5 L632.8,576.9 L635.5,571.0 L637.7,565.0 L639.3,558.8 L640.5,552.5 L641.1,546.2 L641.3,539.8" stroke="#1f6d82" stroke-width="0.9" opacity="0.45" stroke-linecap="round" stroke-dasharray="192.0" style="--len:192.0;--dur:23.0s;--del:28.44s"/>
<path class="fd" d="M728.9,564.2 L730.5,558.0 L731.8,551.8 L733.2,545.5 L734.8,539.3 L736.9,533.3 L739.7,527.5 L743.2,522.2 L747.6,517.5 L752.6,513.6 L758.2,510.4 L764.2,508.1 L770.4,506.6 L776.7,505.6 L783.1,505.2 L789.5,505.4 L795.8,506.0" stroke="#217263" stroke-width="0.9" opacity="0.5" stroke-linecap="round" stroke-dasharray="102.0" style="--len:102.0;--dur:21.0s;--del:28.8s"/>
<path class="fd" d="M388.9,725.7 L395.2,726.0 L401.6,725.2 L407.7,723.4 L413.6,720.9 L419.2,717.8 L424.7,714.4 L430.2,711.2 L436.0,708.5 L442.1,706.7 L448.5,706.2 L454.8,707.3 L460.7,710.0 L465.8,713.8 L470.4,718.3 L474.5,723.2 L478.4,728.2 L482.3,733.3 L486.3,738.3 L490.5,743.1 L495.0,747.7 L499.7,752.0 L504.9,755.8 L510.3,759.3 L515.9,762.3 L521.7,764.9 L527.7,767.3 L533.7,769.6 L539.7,771.8 L545.6,774.1 L551.5,776.6" stroke="#1a6e7f" stroke-width="0.9" opacity="0.48" stroke-linecap="round" stroke-dasharray="192.0" style="--len:192.0;--dur:21.5s;--del:29.16s"/>
<path class="fd" d="M96.4,385.8 L90.9,389.0 L85.5,392.5 L80.3,396.3 L75.3,400.2 L70.2,404.1 L65.1,408.0 L59.8,411.5 L54.2,414.5 L48.1,416.7 L41.8,417.5 L35.4,416.7 L29.7,413.9 L25.1,409.5 L22.0,403.9 L20.2,397.7 L19.3,391.4 L19.0,385.0 L19.2,378.6 L19.7,372.2 L20.5,365.9 L21.5,359.5 L22.8,353.3 L24.3,347.1 L26.2,340.9 L28.3,334.9 L30.8,329.0 L33.6,323.2 L36.6,317.6 L39.9,312.1 L43.3,306.7" stroke="#1f6d82" stroke-width="0.9" opacity="0.49" stroke-linecap="round" stroke-dasharray="192.0" style="--len:192.0;--dur:22.0s;--del:29.52s"/>
<path class="fd" d="M416.8,299.3 L423.2,298.9 L429.5,298.2 L435.7,296.7 L441.7,294.3 L447.0,290.8 L451.5,286.2 L454.7,280.7 L456.6,274.6 L457.1,268.2 L456.7,261.8 L455.5,255.5 L453.7,249.4 L451.5,243.4 L449.0,237.5 L446.1,231.7 L443.0,226.1 L439.7,220.7 L436.2,215.3 L432.7,210.0 L429.1,204.7 L425.6,199.3 L422.3,193.8 L419.3,188.2 L416.6,182.4 L414.4,176.4 L412.6,170.2 L411.2,164.0 L410.3,157.7 L409.6,151.3 L409.3,144.9" stroke="#217263" stroke-width="0.9" opacity="0.34" stroke-linecap="round" stroke-dasharray="192.0" style="--len:192.0;--dur:22.5s;--del:29.88s"/>
<path class="fd" d="M531.3,549.1 L537.5,551.0 L543.8,552.1 L550.2,552.6 L556.6,552.8 L563.0,552.7 L569.4,552.5 L575.7,552.4 L582.1,552.3 L588.5,552.2 L594.9,552.2 L601.3,552.0 L607.7,551.5 L614.0,550.4 L620.1,548.4 L625.7,545.3 L630.4,541.0 L633.9,535.6 L635.9,529.5 L636.6,523.2 L636.2,516.8 L635.1,510.5 L633.3,504.3 L631.0,498.4 L628.2,492.6 L625.2,487.0 L621.8,481.5 L618.4,476.1 L614.8,470.8 L611.3,465.4 L607.9,460.0" stroke="#1a6e7f" stroke-width="0.9" opacity="0.39" stroke-linecap="round" stroke-dasharray="192.0" style="--len:192.0;--dur:23.0s;--del:30.24s"/>
<path class="fd" d="M163.6,165.3 L161.1,159.4 L160.9,153.0 L162.9,146.9 L166.5,141.6 L171.0,137.1 L175.8,132.8 L180.5,128.5 L184.9,123.8 L188.8,118.8 L192.3,113.4 L195.4,107.8 L198.2,102.0 L200.7,96.2 L203.1,90.2 L205.5,84.3 L208.0,78.4 L210.6,72.5 L213.3,66.8 L216.2,61.1 L219.4,55.5 L222.7,50.0 L226.1,44.6 L229.6,39.3 L233.2,33.9 L236.6,28.5 L239.9,23.0 L242.8,17.4 L245.4,11.5 L247.5,5.4" stroke="#1f6d82" stroke-width="0.9" opacity="0.5" stroke-linecap="round" stroke-dasharray="186.0" style="--len:186.0;--dur:21.0s;--del:30.6s"/>
<path class="fd" d="M168.5,78.7 L174.5,80.8 L180.8,81.8 L187.2,81.4 L193.3,79.4 L198.8,76.2 L203.7,72.0 L208.0,67.3 L212.0,62.2 L215.8,57.1 L219.5,51.9 L223.3,46.7 L227.1,41.6 L230.8,36.4 L234.5,31.1 L238.0,25.8 L241.2,20.2 L244.0,14.5 L246.4,8.5 L248.2,2.4" stroke="#217263" stroke-width="0.9" opacity="0.51" stroke-linecap="round" stroke-dasharray="122.0" style="--len:122.0;--dur:21.5s;--del:30.96s"/>
<path class="fd" d="M217.6,636.1 L223.8,634.8 L229.8,632.5 L235.4,629.5 L240.8,626.0 L246.1,622.3 L251.2,618.6 L256.4,614.7 L261.4,610.8 L266.4,606.8 L271.3,602.7 L276.0,598.3 L280.4,593.7 L284.4,588.7 L288.0,583.4 L291.0,577.7 L293.5,571.8 L295.4,565.8 L297.1,559.6 L298.4,553.3 L299.8,547.1 L301.3,540.8 L303.2,534.7 L305.7,528.8 L308.9,523.3 L313.2,518.6 L318.6,515.1 L324.8,513.4 L331.2,514.0 L337.0,516.6 L342.0,520.6" stroke="#1a6e7f" stroke-width="0.9" opacity="0.37" stroke-linecap="round" stroke-dasharray="192.0" style="--len:192.0;--dur:22.0s;--del:31.32s"/>
<path class="fd" d="M64.5,756.8 L58.3,758.2 L51.9,758.1 L45.7,756.5 L40.0,753.5 L35.0,749.6 L30.7,744.8 L27.2,739.5 L24.4,733.7 L22.2,727.7 L20.7,721.5 L19.6,715.2 L19.0,708.8 L18.7,702.4 L18.6,696.0 L18.8,689.6 L19.3,683.2 L20.1,676.9 L21.1,670.6 L22.5,664.3 L24.3,658.2 L26.5,652.2 L29.3,646.4 L32.6,640.9 L36.5,635.9 L41.0,631.3 L46.0,627.3 L51.4,623.8 L57.0,620.7 L62.7,617.8 L68.4,615.0" stroke="#1f6d82" stroke-width="0.9" opacity="0.51" stroke-linecap="round" stroke-dasharray="192.0" style="--len:192.0;--dur:22.5s;--del:31.68s"/>
<path class="fd" d="M375.0,610.4 L374.2,604.0 L372.0,598.0 L367.7,593.3 L361.4,591.9 L355.9,595.2 L352.6,600.7 L350.0,606.5 L347.3,612.3 L344.3,618.0 L341.0,623.5 L337.4,628.7 L333.4,633.7 L329.2,638.5 L324.8,643.2 L320.3,647.8 L315.8,652.4 L311.4,657.0 L307.1,661.7 L302.9,666.5 L298.8,671.5 L295.0,676.6 L291.2,681.8 L287.5,687.0 L283.9,692.3 L280.2,697.5 L276.4,702.7 L272.5,707.7 L268.3,712.6 L263.9,717.2 L259.2,721.5" stroke="#217263" stroke-width="0.9" opacity="0.41" stroke-linecap="round" stroke-dasharray="192.0" style="--len:192.0;--dur:23.0s;--del:32.04s"/>
<path class="fd" d="M681.2,362.3 L676.4,358.1 L671.8,353.7 L667.5,348.9 L663.5,343.9 L660.1,338.5 L657.2,332.8 L654.9,326.8 L653.1,320.6 L651.8,314.4 L650.6,308.1 L649.5,301.8 L648.3,295.5 L646.5,289.4 L644.1,283.4 L640.7,278.0 L636.2,273.5 L630.6,270.4 L624.3,269.4 L618.0,270.8 L612.6,274.2 L608.3,278.9 L604.9,284.3 L602.2,290.1 L599.8,296.1 L597.7,302.1 L595.8,308.2 L593.9,314.3 L591.9,320.4 L589.9,326.5 L587.7,332.5" stroke="#1a6e7f" stroke-width="0.9" opacity="0.4" stroke-linecap="round" stroke-dasharray="192.0" style="--len:192.0;--dur:21.0s;--del:32.4s"/>
<path class="fd" d="M374.5,654.3 L379.6,650.5 L385.3,647.4 L391.4,645.7 L397.8,646.0 L403.8,648.3 L408.9,652.1 L413.4,656.7 L417.7,661.4 L422.0,666.2 L426.5,670.8 L431.1,675.2 L435.8,679.5 L440.6,683.7 L445.4,688.0 L450.1,692.3 L454.6,696.9 L458.9,701.6 L463.1,706.5 L467.0,711.5 L470.7,716.7 L474.4,721.9 L478.1,727.2 L481.9,732.4 L485.7,737.5 L489.9,742.4 L494.3,747.0 L499.0,751.3 L504.0,755.2 L509.4,758.7 L515.0,761.8" stroke="#1f6d82" stroke-width="0.9" opacity="0.44" stroke-linecap="round" stroke-dasharray="192.0" style="--len:192.0;--dur:21.5s;--del:32.76s"/>
<path class="fd" d="M392.8,327.3 L399.2,327.3 L405.6,326.9 L411.9,326.3 L418.3,325.4 L424.5,324.1 L430.7,322.4 L436.8,320.3 L442.6,317.6 L448.0,314.2 L452.9,310.1 L457.0,305.2 L460.2,299.6 L462.1,293.6 L463.0,287.2 L462.9,280.8 L462.0,274.5 L460.7,268.2 L459.0,262.0 L457.1,255.9 L454.9,249.9 L452.4,244.0 L449.7,238.2 L446.8,232.5 L443.7,226.9 L440.3,221.5 L436.9,216.1 L433.3,210.8 L429.7,205.5 L426.1,200.2 L422.8,194.7" stroke="#217263" stroke-width="0.9" opacity="0.31" stroke-linecap="round" stroke-dasharray="192.0" style="--len:192.0;--dur:22.0s;--del:33.12s"/>
<path class="fd" d="M17.7,310.8 L23.8,308.6 L29.5,305.8 L35.0,302.5 L40.2,298.8 L45.1,294.6 L49.6,290.1 L53.8,285.3 L57.6,280.1 L60.9,274.6 L63.9,269.0 L66.6,263.2 L69.0,257.2 L71.2,251.2 L73.3,245.2 L75.4,239.1 L77.7,233.2 L80.2,227.3 L83.0,221.5 L86.5,216.1 L90.6,211.3 L95.6,207.2 L101.3,204.4 L107.6,203.1 L114.0,203.2 L120.3,204.3 L126.5,206.1 L132.6,208.0 L138.6,210.1 L144.7,212.2 L150.7,214.4" stroke="#1a6e7f" stroke-width="0.9" opacity="0.49" stroke-linecap="round" stroke-dasharray="192.0" style="--len:192.0;--dur:22.5s;--del:33.48s"/>
<path class="fd" d="M494.9,276.4 L488.9,278.8 L482.5,279.0 L476.4,277.1 L471.1,273.4 L466.8,268.7 L463.2,263.4 L460.1,257.9 L457.2,252.1 L454.4,246.4 L451.5,240.7 L448.5,235.0 L445.4,229.4 L442.1,224.0 L438.6,218.6 L435.0,213.3 L431.4,208.0 L427.8,202.7 L424.4,197.3 L421.2,191.8 L418.2,186.1 L415.7,180.2 L413.7,174.1 L412.0,167.9 L410.8,161.7 L410.0,155.3 L409.5,148.9 L409.3,142.5 L409.3,136.1 L409.6,129.7 L410.2,123.4" stroke="#1f6d82" stroke-width="0.9" opacity="0.36" stroke-linecap="round" stroke-dasharray="192.0" style="--len:192.0;--dur:23.0s;--del:33.84s"/>
<path class="fd" d="M39.0,178.5 L43.9,174.4 L48.9,170.4 L54.2,166.9 L60.1,164.3 L66.3,163.0 L72.7,163.5 L78.7,165.7 L84.0,169.3 L88.7,173.7 L93.1,178.3 L97.5,183.0 L101.9,187.6 L106.6,192.0 L111.6,196.0 L116.9,199.6 L122.5,202.8 L128.2,205.6 L134.1,208.1 L140.1,210.4 L146.1,212.6 L152.1,214.9 L158.0,217.3 L163.8,219.9 L169.5,222.8 L175.0,226.1 L180.2,229.9 L184.9,234.2 L189.2,238.9 L193.0,244.1 L196.3,249.6" stroke="#217263" stroke-width="0.9" opacity="0.48" stroke-linecap="round" stroke-dasharray="192.0" style="--len:192.0;--dur:21.0s;--del:34.2s"/>
<path class="fd" d="M682.7,423.7 L676.4,424.4 L670.2,426.2 L664.4,429.0 L659.1,432.5 L654.1,436.5 L649.3,440.8 L644.4,444.9 L639.2,448.6 L633.6,451.6 L627.4,453.3 L621.0,453.5 L614.8,452.0 L609.1,449.0 L604.2,444.9 L600.1,440.0 L596.6,434.6 L593.6,429.0 L590.9,423.2 L588.3,417.3 L585.7,411.5 L583.0,405.7 L580.0,400.0 L576.7,394.6 L572.8,389.5 L568.4,384.9 L563.2,381.1 L557.4,378.3 L551.3,376.6 L544.9,376.1 L538.5,376.5" stroke="#1a6e7f" stroke-width="0.9" opacity="0.37" stroke-linecap="round" stroke-dasharray="192.0" style="--len:192.0;--dur:21.5s;--del:34.56s"/>
<path class="fd" d="M318.8,37.3 L325.2,37.1 L331.3,35.1 L336.6,31.6 L341.0,26.9 L344.3,21.4 L346.7,15.5 L348.4,9.3 L349.7,3.1" stroke="#1f6d82" stroke-width="0.9" opacity="0.5" stroke-linecap="round" stroke-dasharray="51.0" style="--len:51.0;--dur:22.0s;--del:34.92s"/>
<path class="fd" d="M26.8,202.6 L32.5,199.7 L37.8,196.2 L42.9,192.4 L47.8,188.2 L52.7,184.1 L57.8,180.2 L63.3,176.9 L69.3,174.6 L75.6,173.9 L81.9,174.9 L87.8,177.5 L93.1,181.1 L98.0,185.2 L102.9,189.3 L107.8,193.4 L113.0,197.2 L118.4,200.6 L124.0,203.6 L129.8,206.3 L135.8,208.7 L141.8,211.0 L147.8,213.2 L153.7,215.5 L159.6,218.0 L165.4,220.7 L171.1,223.7 L176.5,227.1 L181.5,231.0 L186.2,235.4 L190.4,240.3" stroke="#217263" stroke-width="0.9" opacity="0.48" stroke-linecap="round" stroke-dasharray="192.0" style="--len:192.0;--dur:22.5s;--del:35.28s"/>
<path class="fd" d="M508.1,225.5 L505.6,231.4 L503.1,237.3 L500.6,243.2 L497.6,248.8 L493.8,254.0 L489.1,258.4 L483.4,261.3 L477.1,262.1 L470.9,260.6 L465.5,257.2 L461.0,252.6 L457.1,247.5 L453.7,242.1 L450.3,236.6 L447.0,231.2 L443.6,225.8 L440.1,220.4 L436.5,215.1 L432.8,209.9 L429.2,204.6 L425.6,199.3 L422.3,193.8 L419.3,188.2 L416.6,182.3 L414.4,176.4 L412.6,170.2 L411.2,164.0 L410.3,157.6 L409.6,151.3 L409.3,144.9" stroke="#1a6e7f" stroke-width="0.9" opacity="0.35" stroke-linecap="round" stroke-dasharray="192.0" style="--len:192.0;--dur:23.0s;--del:35.64s"/>
</g>
<g id="ripples">
<circle cx="325.4" cy="468.4" r="0" fill="none" stroke="rgba(180,160,255,0.5)" stroke-width="1.8" opacity="0">
  <animate attributeName="r" values="0;50.0;0" dur="6.0s" begin="0.00s" repeatCount="indefinite"/>
  <animate attributeName="opacity" values="0;0.55;0" dur="6.0s" begin="0.00s" repeatCount="indefinite"/>
</circle>
<circle cx="412.5" cy="257.4" r="0" fill="none" stroke="rgba(180,160,255,0.5)" stroke-width="1.8" opacity="0">
  <animate attributeName="r" values="0;47.0;0" dur="7.4s" begin="10.07s" repeatCount="indefinite"/>
  <animate attributeName="opacity" values="0;0.55;0" dur="7.4s" begin="10.07s" repeatCount="indefinite"/>
</circle>
<circle cx="506.6" cy="539.1" r="0" fill="none" stroke="rgba(180,160,255,0.5)" stroke-width="1.8" opacity="0">
  <animate attributeName="r" values="0;43.0;0" dur="8.8s" begin="17.73s" repeatCount="indefinite"/>
  <animate attributeName="opacity" values="0;0.55;0" dur="8.8s" begin="17.73s" repeatCount="indefinite"/>
</circle>
<circle cx="200.7" cy="364.7" r="0" fill="none" stroke="rgba(180,160,255,0.5)" stroke-width="1.8" opacity="0">
  <animate attributeName="r" values="0;40.0;0" dur="10.2s" begin="23.83s" repeatCount="indefinite"/>
  <animate attributeName="opacity" values="0;0.55;0" dur="10.2s" begin="23.83s" repeatCount="indefinite"/>
</circle>
<circle cx="590.9" cy="278.6" r="0" fill="none" stroke="rgba(180,160,255,0.5)" stroke-width="1.8" opacity="0">
  <animate attributeName="r" values="0;37.0;0" dur="11.6s" begin="29.89s" repeatCount="indefinite"/>
  <animate attributeName="opacity" values="0;0.55;0" dur="11.6s" begin="29.89s" repeatCount="indefinite"/>
</circle>
<circle cx="335.6" cy="639.4" r="0" fill="none" stroke="rgba(180,160,255,0.5)" stroke-width="1.8" opacity="0">
  <animate attributeName="r" values="0;33.0;0" dur="5.4s" begin="34.73s" repeatCount="indefinite"/>
  <animate attributeName="opacity" values="0;0.55;0" dur="5.4s" begin="34.73s" repeatCount="indefinite"/>
</circle>
<circle cx="276.6" cy="162.4" r="0" fill="none" stroke="rgba(180,160,255,0.5)" stroke-width="1.8" opacity="0">
  <animate attributeName="r" values="0;30.0;0" dur="6.8s" begin="41.32s" repeatCount="indefinite"/>
  <animate attributeName="opacity" values="0;0.55;0" dur="6.8s" begin="41.32s" repeatCount="indefinite"/>
</circle>
<circle cx="668.8" cy="498.2" r="0" fill="none" stroke="rgba(180,160,255,0.5)" stroke-width="1.8" opacity="0">
  <animate attributeName="r" values="0;27.0;0" dur="8.2s" begin="46.96s" repeatCount="indefinite"/>
  <animate attributeName="opacity" values="0;0.55;0" dur="8.2s" begin="46.96s" repeatCount="indefinite"/>
</circle>
<circle cx="119.4" cy="515.8" r="0" fill="none" stroke="rgba(180,160,255,0.5)" stroke-width="1.8" opacity="0">
  <animate attributeName="r" values="0;23.0;0" dur="9.6s" begin="51.89s" repeatCount="indefinite"/>
  <animate attributeName="opacity" values="0;0.55;0" dur="9.6s" begin="51.89s" repeatCount="indefinite"/>
</circle>
<circle cx="535.6" cy="110.2" r="0" fill="none" stroke="rgba(180,160,255,0.5)" stroke-width="1.8" opacity="0">
  <animate attributeName="r" values="0;20.0;0" dur="11.0s" begin="57.00s" repeatCount="indefinite"/>
  <animate attributeName="opacity" values="0;0.55;0" dur="11.0s" begin="57.00s" repeatCount="indefinite"/>
</circle>
</g>
<g id="connections" opacity="0.15">
<line x1="325.4" y1="468.4" x2="412.5" y2="257.4" stroke="#0085aa" stroke-width="0.5" stroke-dasharray="228" stroke-dashoffset="228">
  <animate attributeName="stroke-dashoffset" values="228;0;228" dur="2.5s" begin="0.00s" repeatCount="indefinite"/>
</line>
<line x1="412.5" y1="257.4" x2="506.6" y2="539.1" stroke="#0085aa" stroke-width="0.5" stroke-dasharray="297" stroke-dashoffset="297">
  <animate attributeName="stroke-dashoffset" values="297;0;297" dur="3.3s" begin="10.07s" repeatCount="indefinite"/>
</line>
<line x1="506.6" y1="539.1" x2="200.7" y2="364.7" stroke="#0085aa" stroke-width="0.5" stroke-dasharray="352" stroke-dashoffset="352">
  <animate attributeName="stroke-dashoffset" values="352;0;352" dur="4.1s" begin="17.73s" repeatCount="indefinite"/>
</line>
<line x1="200.7" y1="364.7" x2="590.9" y2="278.6" stroke="#0085aa" stroke-width="0.5" stroke-dasharray="400" stroke-dashoffset="400">
  <animate attributeName="stroke-dashoffset" values="400;0;400" dur="4.9s" begin="23.83s" repeatCount="indefinite"/>
</line>
<line x1="590.9" y1="278.6" x2="335.6" y2="639.4" stroke="#0085aa" stroke-width="0.5" stroke-dasharray="442" stroke-dashoffset="442">
  <animate attributeName="stroke-dashoffset" values="442;0;442" dur="2.5s" begin="29.89s" repeatCount="indefinite"/>
</line>
<line x1="335.6" y1="639.4" x2="276.6" y2="162.4" stroke="#007e99" stroke-width="0.5" stroke-dasharray="481" stroke-dashoffset="481">
  <animate attributeName="stroke-dashoffset" values="481;0;481" dur="3.3s" begin="34.73s" repeatCount="indefinite"/>
</line>
<line x1="276.6" y1="162.4" x2="668.8" y2="498.2" stroke="#007e99" stroke-width="0.5" stroke-dasharray="516" stroke-dashoffset="516">
  <animate attributeName="stroke-dashoffset" values="516;0;516" dur="4.1s" begin="41.32s" repeatCount="indefinite"/>
</line>
<line x1="668.8" y1="498.2" x2="119.4" y2="515.8" stroke="#007e99" stroke-width="0.5" stroke-dasharray="550" stroke-dashoffset="550">
  <animate attributeName="stroke-dashoffset" values="550;0;550" dur="4.9s" begin="46.96s" repeatCount="indefinite"/>
</line>
<line x1="119.4" y1="515.8" x2="535.6" y2="110.2" stroke="#068471" stroke-width="0.5" stroke-dasharray="581" stroke-dashoffset="581">
  <animate attributeName="stroke-dashoffset" values="581;0;581" dur="2.5s" begin="51.89s" repeatCount="indefinite"/>
</line>
</g>
<g id="spiral">
<circle cx="325.4" cy="468.4" r="5.0" fill="#0085aa" opacity="0" style="animation:dotAppear 1.5s ease-out 0.00s both,dotShimmer 4.0s ease-in-out 2.0s infinite"/>
<circle cx="412.5" cy="257.4" r="5.35" fill="#0085aa" opacity="0" style="animation:dotAppear 1.5s ease-out 10.07s both,dotShimmer 4.7s ease-in-out 12.07s infinite"/>
<circle cx="506.6" cy="539.1" r="5.55" fill="#0085aa" opacity="0" style="animation:dotAppear 1.49s ease-out 17.73s both,dotShimmer 5.4s ease-in-out 19.72s infinite"/>
<circle cx="200.7" cy="364.7" r="5.69" fill="#0085aa" opacity="0" style="animation:dotAppear 1.49s ease-out 23.83s both,dotShimmer 6.1s ease-in-out 25.82s infinite"/>
<circle cx="590.9" cy="278.6" r="5.8" fill="#0085aa" opacity="0" style="animation:dotAppear 1.49s ease-out 29.89s both,dotShimmer 6.8s ease-in-out 31.88s infinite"/>
<circle cx="335.6" cy="639.4" r="5.9" fill="#007e99" opacity="0" style="animation:dotAppear 1.49s ease-out 34.73s both,dotShimmer 7.5s ease-in-out 36.72s infinite"/>
</g>
<g id="spiralGlow" filter="url(#spiralGlow)">
<circle cx="276.6" cy="162.4" r="5.97" fill="#007e99" opacity="0" style="animation:dotAppear 1.48s ease-out 41.32s both,dotShimmer 8.2s ease-in-out 43.3s infinite"/>
<circle cx="668.8" cy="498.2" r="6.04" fill="#007e99" opacity="0" style="animation:dotAppear 1.48s ease-out 46.96s both,dotShimmer 8.9s ease-in-out 48.94s infinite"/>
<circle cx="119.4" cy="515.8" r="6.1" fill="#068471" opacity="0" style="animation:dotAppear 1.48s ease-out 51.89s both,dotShimmer 4.6s ease-in-out 53.87s infinite"/>
<circle cx="535.6" cy="110.2" r="6.15" fill="#a35856" opacity="0" style="animation:dotAppear 1.47s ease-out 57.00s both,dotShimmer 5.3s ease-in-out 58.97s infinite"/>
</g>
<circle cx="325.4" cy="468.4" r="6.0" fill="#0085aa" opacity="0" style="animation:dotAppear 1.5s ease-out 0.00s both, pulse 2.5s cubic-bezier(0.22,0.61,0.36,1) 1.5s infinite"/>
<path d="M50,770 A350,350 0 0 1 750,770" fill="none" stroke="rgba(255,255,255,0.08)" stroke-width="3"/>
<path d="M50,770 A350,350 0 0 1 750,770" fill="none" stroke="#7c6ef0" stroke-width="3" stroke-dasharray="1099.6" stroke-dashoffset="1099.6" opacity="0.7">
  <animate attributeName="stroke-dashoffset" from="1099.6" to="0" dur="60.0s" fill="freeze"/>
</path>
<circle cx="50.0" cy="770.0" r="2" fill="#7c6ef0" opacity="0.5"/>
<text x="50.0" y="782.0" text-anchor="middle" font-size="7" font-family="monospace" fill="rgba(255,255,255,0.4)">2023</text>
<circle cx="750.0" cy="770.0" r="2" fill="#7c6ef0" opacity="0.5"/>
<text x="750.0" y="782.0" text-anchor="middle" font-size="7" font-family="monospace" fill="rgba(255,255,255,0.4)">2024</text>
</svg>
