<svg xmlns="http://www.w3.org/2000/svg" viewBox="0 0 800 800" width="800" height="800">
<defs>
<filter id="spiralGlow" x="-50%" y="-50%" width="200%" height="200%"><feGaussianBlur in="SourceGraphic" stdDeviation="3" result="b"/><feComposite in="SourceGraphic" in2="b" operator="over"/></filter>
<radialGradient id="bgRad" cx="50%" cy="50%" r="0%">
  <stop offset="0%" stop-color="#d8d0e8" stop-opacity="0.25">
    <animate attributeName="stop-opacity" values="0.25;0.40;0.25" dur="6.7s" repeatCount="indefinite"/>
  </stop>
  <stop offset="100%" stop-color="#f5f5fa" stop-opacity="0"/>
  <animate attributeName="r" from="0%" to="75%" dur="30.0s" fill="freeze"/>
</radialGradient>
</defs>
<style>
  @keyframes dotAppear{
    0%{r:0;opacity:0;fill:white}
    8%{opacity:1;fill:white}
    25%{opacity:.9}
    50%{opacity:.88}
    100%{opacity:.85}
  }
  @keyframes pulse{
    0%,100%{opacity:.7;r:6.0}
    50%{opacity:1;r:8.0}
  }
  @keyframes flowDraw{
    0%{stroke-dashoffset:var(--len,500)}
    100%{stroke-dashoffset:0}
  }
  @keyframes glowIn{
    0%{opacity:0}
    100%{opacity:1}
  }
  @keyframes arcFill{
    0%{stroke-dashoffset:1099.6}
    100%{stroke-dashoffset:0}
  }
  @keyframes bgRadial{
    0%{r:0%;opacity:0}
    100%{r:70%;opacity:.25}
  }
  .fd{fill:none;animation:flowDraw var(--dur,4s) ease-in-out var(--del,0s) both}
</style>
<rect width="800" height="800" fill="#f5f5fa"/>
<rect width="800" height="800" fill="url(#bgRad)"/>
<g id="flowField" opacity="0.40">
<path class="fd" d="M404.0,280.8 L409.3,283.0 L415.1,283.7 L420.8,282.8 L426.0,280.2 L430.4,276.4 L433.8,271.7 L436.3,266.4 L438.0,260.9 L439.2,255.2 L440.0,249.5 L440.5,243.7 L440.9,237.9 L441.2,232.1 L441.4,226.3 L441.7,220.5 L442.0,214.8 L442.3,209.0 L442.7,203.2 L443.2,197.4 L443.7,191.6 L444.3,185.9 L445.1,180.1 L445.9,174.4 L446.8,168.6 L447.8,162.9 L448.9,157.2 L450.2,151.6 L451.5,145.9 L453.0,140.3 L454.6,134.7" stroke="#1b5274" stroke-width="0.9" opacity="0.36" stroke-linecap="round" stroke-dasharray="174.0" style="--len:174.0;--dur:10.5s;--del:0.0s"/>
<path class="fd" d="M683.3,613.8 L677.6,615.1 L671.8,614.8 L666.4,612.9 L661.6,609.5 L657.8,605.2 L654.9,600.1 L652.8,594.7 L651.3,589.1 L650.3,583.4 L649.6,577.6 L649.1,571.9 L648.8,566.1 L648.5,560.3 L648.4,554.5 L648.2,548.7 L648.1,542.9 L648.0,537.1 L647.9,531.3 L647.7,525.5 L647.6,519.7 L647.5,513.9 L647.3,508.1 L647.0,502.3 L646.8,496.5 L646.5,490.7 L646.1,484.9 L645.6,479.1 L645.0,473.4 L644.4,467.6 L643.6,461.9" stroke="#1b5274" stroke-width="0.9" opacity="0.45" stroke-linecap="round" stroke-dasharray="174.0" style="--len:174.0;--dur:11.0s;--del:0.19s"/>
<path class="fd" d="M527.0,274.4 L521.6,276.6 L516.2,278.7 L510.7,280.6 L505.1,282.1 L499.4,283.3 L493.7,284.0 L487.9,284.1 L482.1,283.6 L476.4,282.3 L471.0,280.3 L465.9,277.5 L461.3,274.0 L457.2,269.9 L453.7,265.3 L450.8,260.2 L448.5,254.9 L446.7,249.4 L445.4,243.8 L444.4,238.0 L443.7,232.3 L443.2,226.5 L443.0,220.7 L442.9,214.9 L443.0,209.1 L443.2,203.3 L443.5,197.5 L444.0,191.7 L444.5,186.0 L445.2,180.2 L446.0,174.5" stroke="#1b5274" stroke-width="0.9" opacity="0.34" stroke-linecap="round" stroke-dasharray="174.0" style="--len:174.0;--dur:11.5s;--del:0.37s"/>
<path class="fd" d="M365.1,79.8 L369.7,83.3 L374.5,86.6 L379.4,89.7 L384.4,92.5 L389.7,95.0 L395.1,97.1 L400.6,98.8 L406.3,99.9 L412.1,100.5 L417.9,100.5 L423.7,99.8 L429.3,98.6 L434.8,96.8 L440.2,94.5 L445.3,91.9 L450.3,88.8 L455.1,85.6 L459.7,82.0 L464.1,78.4 L468.5,74.5 L472.7,70.5 L476.8,66.4 L480.8,62.2 L484.7,57.9 L488.5,53.5 L492.1,49.0 L495.6,44.4 L498.9,39.6 L502.0,34.7 L504.9,29.7" stroke="#1b5274" stroke-width="0.9" opacity="0.48" stroke-linecap="round" stroke-dasharray="174.0" style="--len:174.0;--dur:12.0s;--del:0.56s"/>
<path class="fd" d="M224.4,459.7 L226.0,465.2 L228.5,470.5 L231.8,475.2 L235.9,479.3 L240.6,482.7 L245.8,485.3 L251.2,487.4 L256.8,488.9 L262.5,490.0 L268.3,490.9 L274.0,491.7 L279.7,492.6 L285.4,493.6 L291.1,494.7 L296.7,496.2 L302.3,498.0 L307.7,500.1 L312.9,502.6 L318.0,505.4 L322.8,508.6 L327.4,512.2 L331.6,516.1 L335.6,520.4 L339.2,524.9 L342.4,529.7 L345.4,534.7 L347.9,539.9 L350.1,545.3 L352.0,550.8 L353.7,556.3" stroke="#1b5274" stroke-width="0.9" opacity="0.33" stroke-linecap="round" stroke-dasharray="174.0" style="--len:174.0;--dur:12.5s;--del:0.74s"/>
<path class="fd" d="M171.0,168.6 L165.4,167.1 L159.8,165.8 L154.1,164.7 L148.3,163.9 L142.5,163.5 L136.7,163.6 L131.0,164.4 L125.4,166.1 L120.3,168.9 L116.1,172.8 L113.2,177.8 L112.0,183.5 L112.6,189.3 L114.8,194.6 L118.2,199.3 L122.4,203.4 L127.0,206.9 L131.9,210.1 L136.9,213.0 L141.9,215.9 L147.0,218.7 L152.0,221.5 L157.0,224.5 L161.9,227.6 L166.8,230.8 L171.5,234.1 L176.1,237.6 L180.6,241.3 L185.0,245.1 L189.2,249.1" stroke="#1b5274" stroke-width="0.9" opacity="0.48" stroke-linecap="round" stroke-dasharray="174.0" style="--len:174.0;--dur:10.5s;--del:0.93s"/>
<path class="fd" d="M172.7,148.3 L170.1,143.1 L168.6,137.5 L168.2,131.7 L169.1,126.0 L171.3,120.6 L174.5,115.8 L178.4,111.5 L182.7,107.7 L187.3,104.2 L192.1,100.8 L196.9,97.5 L201.6,94.1 L206.1,90.5 L210.4,86.7 L214.5,82.5 L218.2,78.1 L221.6,73.3 L224.5,68.3 L227.0,63.1 L229.0,57.7 L230.7,52.1 L232.1,46.5 L233.1,40.8 L233.9,35.0 L234.6,29.3 L235.0,23.5 L235.4,17.7 L235.6,11.9 L235.8,6.1 L235.9,0.3" stroke="#1b5274" stroke-width="0.9" opacity="0.52" stroke-linecap="round" stroke-dasharray="174.0" style="--len:174.0;--dur:11.0s;--del:1.11s"/>
<path class="fd" d="M310.4,697.2 L311.5,702.9 L311.1,708.7 L309.2,714.1 L306.2,719.1 L302.5,723.6 L298.2,727.5 L293.5,731.0 L288.7,734.1 L283.6,736.9 L278.4,739.5 L273.1,741.9 L267.8,744.2 L262.4,746.4 L257.0,748.5 L251.6,750.5 L246.2,752.6 L240.7,754.6 L235.3,756.6 L229.9,758.7 L224.5,760.8 L219.1,763.0 L213.8,765.2 L208.4,767.6 L203.2,770.0 L198.0,772.5 L192.8,775.2 L187.7,778.0 L182.7,780.9 L177.8,784.0 L173.0,787.2" stroke="#1b5274" stroke-width="0.9" opacity="0.52" stroke-linecap="round" stroke-dasharray="174.0" style="--len:174.0;--dur:11.5s;--del:1.3s"/>
<path class="fd" d="M105.3,554.0 L105.6,548.2 L105.6,542.4 L105.3,536.6 L104.7,530.8 L103.8,525.1 L102.7,519.4 L101.3,513.8 L99.7,508.2 L97.9,502.7 L96.0,497.2 L93.8,491.9 L91.5,486.5 L89.0,481.3 L86.3,476.1 L83.6,471.0 L80.7,466.0 L77.7,461.0 L74.7,456.1 L71.6,451.1 L68.5,446.2 L65.5,441.3 L62.4,436.4 L59.4,431.4 L56.5,426.4 L53.7,421.4 L51.0,416.2 L48.4,411.0 L46.0,405.7 L43.8,400.4 L41.8,394.9" stroke="#1b5274" stroke-width="0.9" opacity="0.48" stroke-linecap="round" stroke-dasharray="174.0" style="--len:174.0;--dur:12.0s;--del:1.48s"/>
<path class="fd" d="M239.3,289.7 L238.7,295.4 L239.3,301.2 L240.9,306.8 L243.1,312.1 L245.8,317.3 L248.9,322.2 L252.3,326.9 L256.0,331.4 L259.8,335.8 L263.8,339.9 L268.0,344.0 L272.3,347.8 L276.8,351.5 L281.4,355.0 L286.2,358.3 L291.1,361.4 L296.1,364.3 L301.3,367.0 L306.5,369.5 L311.8,371.8 L317.2,373.9 L322.7,375.8 L328.2,377.6 L333.8,379.1 L339.4,380.6 L345.1,381.9 L350.8,383.0 L356.5,384.1 L362.2,385.0 L367.9,385.8" stroke="#1b5274" stroke-width="0.9" opacity="0.3" stroke-linecap="round" stroke-dasharray="174.0" style="--len:174.0;--dur:12.5s;--del:1.67s"/>
<path class="fd" d="M704.1,755.3 L699.4,751.9 L694.8,748.4 L690.3,744.7 L686.0,740.8 L681.7,736.8 L677.7,732.7 L673.7,728.4 L670.0,724.0 L666.5,719.4 L663.2,714.6 L660.3,709.6 L657.6,704.5 L655.2,699.2 L653.2,693.7 L651.6,688.2 L650.2,682.5 L649.2,676.8 L648.5,671.1 L647.9,665.3 L647.6,659.5 L647.4,653.7 L647.3,647.9 L647.3,642.1 L647.4,636.3 L647.5,630.5 L647.5,624.7 L647.6,618.9 L647.7,613.1 L647.8,607.3 L647.9,601.5" stroke="#1b5274" stroke-width="0.9" opacity="0.53" stroke-linecap="round" stroke-dasharray="174.0" style="--len:174.0;--dur:10.5s;--del:1.86s"/>
<path class="fd" d="M540.9,19.1 L536.8,15.1 L533.5,10.3 L530.9,5.1" stroke="#1b5274" stroke-width="0.9" opacity="0.53" stroke-linecap="round" stroke-dasharray="17.0" style="--len:17.0;--dur:11.0s;--del:2.04s"/>
<path class="fd" d="M578.5,29.5 L576.0,34.7 L572.7,39.5 L568.8,43.8 L564.2,47.3 L558.9,49.8 L553.3,51.0 L547.5,50.7 L541.9,49.0 L537.0,46.0 L532.8,41.9 L529.6,37.1 L527.2,31.8 L525.5,26.2 L524.4,20.5 L523.7,14.8 L523.2,9.0 L523.0,3.2" stroke="#1b5274" stroke-width="0.9" opacity="0.53" stroke-linecap="round" stroke-dasharray="99.0" style="--len:99.0;--dur:11.5s;--del:2.23s"/>
<path class="fd" d="M192.9,265.2 L198.3,267.3 L203.3,270.3 L207.8,273.9 L212.0,278.0 L215.9,282.2 L219.6,286.7 L223.2,291.2 L226.8,295.8 L230.2,300.5 L233.7,305.1 L237.2,309.7 L240.7,314.3 L244.3,318.9 L248.0,323.4 L251.8,327.8 L255.6,332.1 L259.6,336.3 L263.8,340.4 L268.0,344.3 L272.4,348.1 L276.9,351.8 L281.6,355.2 L286.4,358.5 L291.3,361.5 L296.3,364.4 L301.5,367.1 L306.7,369.6 L312.1,371.9 L317.5,374.0 L322.9,375.9" stroke="#1b5274" stroke-width="0.9" opacity="0.34" stroke-linecap="round" stroke-dasharray="174.0" style="--len:174.0;--dur:12.0s;--del:2.41s"/>
<path class="fd" d="M238.2,382.7 L236.3,377.2 L235.3,371.5 L235.5,365.7 L237.1,360.1 L240.2,355.2 L244.7,351.5 L250.1,349.3 L255.9,348.8 L261.6,349.6 L267.2,351.2 L272.5,353.4 L277.8,355.9 L282.9,358.6 L288.1,361.2 L293.3,363.8 L298.5,366.4 L303.8,368.8 L309.1,371.0 L314.5,373.1 L320.0,375.1 L325.5,376.9 L331.1,378.5 L336.7,380.0 L342.3,381.3 L348.0,382.5 L353.7,383.6 L359.4,384.6 L365.1,385.4 L370.9,386.1 L376.7,386.8" stroke="#1b5274" stroke-width="0.9" opacity="0.29" stroke-linecap="round" stroke-dasharray="174.0" style="--len:174.0;--dur:12.5s;--del:2.6s"/>
<path class="fd" d="M472.4,746.2 L472.4,752.0 L473.7,757.7 L476.0,763.0 L479.1,767.9 L482.9,772.3 L487.2,776.2 L491.9,779.6 L496.9,782.5 L502.1,785.2 L507.4,787.5 L512.7,789.7 L518.2,791.7 L523.6,793.7 L529.1,795.6 L534.5,797.6 L540.0,799.7" stroke="#1b5274" stroke-width="0.9" opacity="0.53" stroke-linecap="round" stroke-dasharray="93.0" style="--len:93.0;--dur:10.5s;--del:2.78s"/>
<path class="fd" d="M643.8,750.7 L640.8,745.7 L638.2,740.5 L636.0,735.2 L634.2,729.7 L633.0,724.0 L632.2,718.3 L632.0,712.5 L632.3,706.7 L632.9,700.9 L633.9,695.2 L635.2,689.5 L636.5,683.9 L638.0,678.3 L639.4,672.6 L640.7,667.0 L641.9,661.3 L643.1,655.6 L644.0,649.9 L644.8,644.2 L645.5,638.4 L646.1,632.6 L646.6,626.9 L646.9,621.1 L647.2,615.3 L647.4,609.5 L647.6,603.7 L647.7,597.9 L647.8,592.1 L647.9,586.3 L647.9,580.5" stroke="#1b5274" stroke-width="0.9" opacity="0.51" stroke-linecap="round" stroke-dasharray="174.0" style="--len:174.0;--dur:11.0s;--del:2.97s"/>
<path class="fd" d="M200.6,614.7 L206.1,616.5 L211.9,616.8 L217.6,615.7 L222.8,613.3 L227.4,609.7 L231.2,605.3 L234.2,600.3 L236.6,595.1 L238.5,589.6 L240.0,584.0 L241.3,578.3 L242.4,572.6 L243.6,566.9 L244.7,561.3 L246.0,555.6 L247.5,550.0 L249.2,544.5 L251.2,539.0 L253.6,533.7 L256.3,528.6 L259.4,523.7 L262.9,519.1 L267.0,514.9 L271.4,511.2 L276.3,508.1 L281.6,505.7 L287.1,503.9 L292.8,503.0 L298.6,502.8 L304.4,503.4" stroke="#1b5274" stroke-width="0.9" opacity="0.39" stroke-linecap="round" stroke-dasharray="174.0" style="--len:174.0;--dur:11.5s;--del:3.15s"/>
<path class="fd" d="M135.6,789.8 L132.2,794.5 L128.7,799.2" stroke="#1b5274" stroke-width="0.9" opacity="0.53" stroke-linecap="round" stroke-dasharray="12.0" style="--len:12.0;--dur:12.0s;--del:3.34s"/>
<path class="fd" d="M644.3,626.2 L645.3,620.5 L646.1,614.8 L646.6,609.0 L647.0,603.2 L647.3,597.4 L647.6,591.6 L647.7,585.8 L647.8,580.0 L647.9,574.2 L647.9,568.4 L647.9,562.6 L647.9,556.8 L647.9,551.0 L647.9,545.2 L647.9,539.4 L647.8,533.6 L647.7,527.8 L647.6,522.1 L647.5,516.3 L647.3,510.5 L647.1,504.7 L646.9,498.9 L646.6,493.1 L646.2,487.3 L645.8,481.5 L645.3,475.7 L644.7,470.0 L643.9,464.2 L643.0,458.5 L641.9,452.8" stroke="#1b5274" stroke-width="0.9" opacity="0.44" stroke-linecap="round" stroke-dasharray="174.0" style="--len:174.0;--dur:12.5s;--del:3.53s"/>
<path class="fd" d="M427.1,131.5 L432.4,129.0 L437.3,125.9 L441.8,122.2 L445.9,118.2 L449.8,113.9 L453.5,109.4 L457.1,104.9 L460.6,100.2 L464.0,95.5 L467.3,90.8 L470.7,86.1 L474.1,81.3 L477.4,76.6 L480.7,71.8 L484.1,67.1 L487.3,62.3 L490.6,57.5 L493.8,52.6 L496.8,47.7 L499.8,42.7 L502.6,37.7 L505.3,32.5 L507.8,27.3 L510.1,22.0 L512.2,16.6 L514.0,11.1 L515.6,5.5" stroke="#1b5274" stroke-width="0.9" opacity="0.49" stroke-linecap="round" stroke-dasharray="157.0" style="--len:157.0;--dur:10.5s;--del:3.71s"/>
<path class="fd" d="M458.4,324.8 L458.3,319.0 L457.6,313.2 L456.5,307.5 L455.1,301.9 L453.6,296.3 L452.0,290.7 L450.5,285.1 L449.0,279.5 L447.6,273.9 L446.4,268.2 L445.4,262.5 L444.5,256.8 L443.8,251.0 L443.3,245.2 L442.8,239.5 L442.6,233.7 L442.4,227.9 L442.4,222.1 L442.4,216.3 L442.6,210.5 L442.9,204.7 L443.2,198.9 L443.7,193.1 L444.3,187.3 L445.0,181.6 L445.7,175.8 L446.6,170.1 L447.6,164.4 L448.7,158.7 L449.9,153.0" stroke="#1b5274" stroke-width="0.9" opacity="0.34" stroke-linecap="round" stroke-dasharray="174.0" style="--len:174.0;--dur:11.0s;--del:3.9s"/>
<path class="fd" d="M764.8,192.9 L770.4,191.5 L776.0,190.0 L781.6,188.6 L787.2,187.1 L792.9,185.7 L798.5,184.4" stroke="#1b5274" stroke-width="0.9" opacity="0.53" stroke-linecap="round" stroke-dasharray="35.0" style="--len:35.0;--dur:11.5s;--del:4.08s"/>
<path class="fd" d="M699.7,326.5 L694.7,323.5 L689.5,321.1 L683.9,319.3 L678.2,318.4 L672.4,318.4 L666.7,319.2 L661.1,321.0 L655.9,323.4 L651.0,326.5 L646.4,330.0 L642.1,333.9 L638.1,338.1 L634.2,342.4 L630.5,346.9 L626.8,351.4 L623.2,355.9 L619.6,360.5 L616.0,365.0 L612.3,369.5 L608.5,373.9 L604.6,378.2 L600.7,382.4 L596.6,386.5 L592.3,390.5 L588.0,394.3 L583.5,398.0 L578.8,401.4 L574.1,404.8 L569.2,407.9 L564.2,410.9" stroke="#1b5274" stroke-width="0.9" opacity="0.4" stroke-linecap="round" stroke-dasharray="174.0" style="--len:174.0;--dur:12.0s;--del:4.27s"/>
<path class="fd" d="M614.2,648.4 L619.9,647.3 L625.2,645.0 L630.0,641.8 L634.2,637.7 L637.6,633.1 L640.3,627.9 L642.4,622.5 L644.0,616.9 L645.2,611.3 L646.0,605.5 L646.6,599.8 L647.1,594.0 L647.4,588.2 L647.6,582.4 L647.7,576.6 L647.8,570.8 L647.9,565.0 L647.9,559.2 L647.9,553.4 L647.9,547.6 L647.9,541.8 L647.8,536.0 L647.7,530.2 L647.6,524.4 L647.5,518.6 L647.4,512.8 L647.2,507.0 L647.0,501.2 L646.7,495.4 L646.4,489.6" stroke="#1b5274" stroke-width="0.9" opacity="0.46" stroke-linecap="round" stroke-dasharray="174.0" style="--len:174.0;--dur:12.5s;--del:4.45s"/>
<path class="fd" d="M281.1,584.9 L279.5,579.4 L277.9,573.8 L276.4,568.2 L275.2,562.5 L274.3,556.8 L273.9,551.0 L273.9,545.2 L274.6,539.4 L276.0,533.8 L278.1,528.4 L281.0,523.4 L284.7,518.9 L289.1,515.1 L294.1,512.2 L299.6,510.3 L305.3,509.4 L311.1,509.6 L316.8,510.8 L322.2,512.8 L327.3,515.6 L332.0,519.1 L336.2,523.0 L340.0,527.4 L343.3,532.2 L346.2,537.2 L348.8,542.4 L350.9,547.8 L352.7,553.3 L354.3,558.9 L355.6,564.5" stroke="#1b5274" stroke-width="0.9" opacity="0.34" stroke-linecap="round" stroke-dasharray="174.0" style="--len:174.0;--dur:10.5s;--del:4.64s"/>
<path class="fd" d="M582.0,507.9 L587.6,509.5 L593.2,510.8 L599.0,511.7 L604.8,511.8 L610.5,511.1 L616.1,509.4 L621.2,506.6 L625.6,502.9 L629.3,498.4 L632.2,493.4 L634.4,488.0 L635.9,482.4 L636.9,476.7 L637.5,471.0 L637.6,465.2 L637.4,459.4 L636.9,453.6 L636.0,447.9 L634.7,442.2 L633.0,436.6 L630.9,431.2 L628.3,426.1 L625.2,421.2 L621.4,416.8 L617.1,412.9 L612.2,409.8 L606.9,407.5 L601.3,406.1 L595.5,405.6 L589.7,405.9" stroke="#1b5274" stroke-width="0.9" opacity="0.4" stroke-linecap="round" stroke-dasharray="174.0" style="--len:174.0;--dur:11.0s;--del:4.82s"/>
<path class="fd" d="M622.1,99.4 L626.3,103.4 L630.5,107.4 L634.6,111.5 L638.5,115.8 L642.1,120.4 L645.1,125.3 L647.4,130.6 L648.7,136.3 L648.7,142.1 L647.6,147.8 L645.3,153.1 L642.0,157.9 L638.1,162.2 L633.8,166.0 L629.1,169.5 L624.3,172.8 L619.4,175.9 L614.5,178.9 L609.5,181.8 L604.5,184.8 L599.6,187.8 L594.7,191.0 L589.8,194.2 L585.1,197.5 L580.4,200.9 L575.8,204.5 L571.3,208.1 L566.9,211.9 L562.6,215.8 L558.4,219.8" stroke="#1b5274" stroke-width="0.9" opacity="0.47" stroke-linecap="round" stroke-dasharray="174.0" style="--len:174.0;--dur:11.5s;--del:5.01s"/>
<path class="fd" d="M407.7,785.6 L413.5,785.6 L419.3,785.6 L425.1,785.6 L430.9,785.5 L436.7,785.5 L442.5,785.4 L448.3,785.4 L454.1,785.5 L459.9,785.6 L465.7,785.8 L471.5,786.2 L477.2,786.6 L483.0,787.2 L488.8,787.9 L494.5,788.7 L500.2,789.6 L505.9,790.7 L511.6,791.9 L517.3,793.3 L522.9,794.7 L528.4,796.3 L534.0,798.1 L539.5,799.9" stroke="#1b5274" stroke-width="0.9" opacity="0.53" stroke-linecap="round" stroke-dasharray="133.0" style="--len:133.0;--dur:12.0s;--del:5.2s"/>
<path class="fd" d="M162.5,654.3 L159.2,659.1 L155.4,663.4 L150.9,667.2 L145.9,670.1 L140.5,672.2 L134.8,673.3 L129.0,673.2 L123.4,671.9 L118.1,669.5 L113.5,665.9 L109.7,661.6 L106.8,656.5 L104.7,651.1 L103.5,645.5 L102.8,639.7 L102.7,633.9 L102.9,628.1 L103.5,622.3 L104.2,616.6 L105.0,610.8 L105.8,605.1 L106.6,599.3 L107.3,593.6 L108.0,587.8 L108.5,582.0 L108.9,576.3 L109.2,570.5 L109.3,564.7 L109.2,558.9 L108.9,553.1" stroke="#1b5274" stroke-width="0.9" opacity="0.51" stroke-linecap="round" stroke-dasharray="174.0" style="--len:174.0;--dur:12.5s;--del:5.38s"/>
<path class="fd" d="M338.7,666.5 L340.0,672.2 L339.9,678.0 L338.8,683.6 L336.9,689.1 L334.4,694.4 L331.5,699.4 L328.2,704.1 L324.5,708.7 L320.6,712.9 L316.4,716.9 L311.9,720.7 L307.3,724.2 L302.5,727.4 L297.6,730.4 L292.5,733.3 L287.3,735.9 L282.1,738.4 L276.8,740.7 L271.5,743.0 L266.1,745.1 L260.7,747.2 L255.2,749.3 L249.8,751.3 L244.3,753.3 L238.9,755.3 L233.5,757.3 L228.1,759.4 L222.7,761.5 L217.3,763.7 L212.0,766.0" stroke="#1b5274" stroke-width="0.9" opacity="0.49" stroke-linecap="round" stroke-dasharray="174.0" style="--len:174.0;--dur:10.5s;--del:5.57s"/>
<path class="fd" d="M167.9,315.5 L163.8,311.4 L159.5,307.5 L155.1,303.7 L150.5,300.2 L145.7,296.9 L140.8,293.8 L135.8,290.9 L130.7,288.2 L125.5,285.7 L120.2,283.3 L114.9,280.9 L109.6,278.5 L104.4,276.0 L99.3,273.3 L94.4,270.2 L89.8,266.6 L85.6,262.6 L82.1,257.9 L79.4,252.8 L77.7,247.3 L77.0,241.5 L77.5,235.7 L79.1,230.2 L81.9,225.0 L85.6,220.6 L90.1,216.9 L95.2,214.2 L100.7,212.3 L106.4,211.4 L112.2,211.1" stroke="#1b5274" stroke-width="0.9" opacity="0.47" stroke-linecap="round" stroke-dasharray="174.0" style="--len:174.0;--dur:11.0s;--del:5.75s"/>
<path class="fd" d="M167.6,210.0 L167.9,215.8 L169.5,221.4 L172.1,226.6 L175.3,231.4 L178.9,236.0 L182.7,240.3 L186.6,244.7 L190.5,249.0 L194.3,253.3 L198.1,257.7 L201.9,262.1 L205.5,266.6 L209.1,271.2 L212.6,275.8 L216.1,280.4 L219.5,285.1 L222.9,289.8 L226.3,294.5 L229.7,299.2 L233.1,303.9 L236.5,308.6 L240.0,313.2 L243.5,317.8 L247.2,322.3 L250.9,326.8 L254.8,331.1 L258.7,335.4 L262.8,339.5 L267.0,343.5 L271.4,347.3" stroke="#1b5274" stroke-width="0.9" opacity="0.39" stroke-linecap="round" stroke-dasharray="174.0" style="--len:174.0;--dur:11.5s;--del:5.94s"/>
<path class="fd" d="M472.5,6.1 L478.0,4.4 L483.4,2.3" stroke="#1b5274" stroke-width="0.9" opacity="0.53" stroke-linecap="round" stroke-dasharray="12.0" style="--len:12.0;--dur:12.0s;--del:6.12s"/>
<path class="fd" d="M416.6,587.1 L421.8,589.7 L425.2,594.5 L426.9,600.0 L427.7,605.8 L428.1,611.5 L428.4,617.3 L428.6,623.1 L428.8,628.9 L429.1,634.7 L429.4,640.5 L429.7,646.3 L430.1,652.1 L430.5,657.9 L431.0,663.7 L431.6,669.4 L432.2,675.2 L432.9,681.0 L433.7,686.7 L434.6,692.4 L435.6,698.1 L436.7,703.8 L438.0,709.5 L439.4,715.1 L440.9,720.7 L442.7,726.2 L444.7,731.7 L446.9,737.1 L449.3,742.3 L452.0,747.4 L455.1,752.4" stroke="#1b5274" stroke-width="0.9" opacity="0.43" stroke-linecap="round" stroke-dasharray="174.0" style="--len:174.0;--dur:12.5s;--del:6.31s"/>
<path class="fd" d="M82.6,660.3 L84.2,654.7 L86.1,649.2 L88.1,643.8 L90.2,638.4 L92.3,633.0 L94.4,627.6 L96.5,622.1 L98.4,616.7 L100.3,611.2 L102.0,605.6 L103.5,600.0 L104.9,594.4 L106.0,588.7 L107.0,583.0 L107.7,577.2 L108.2,571.5 L108.5,565.7 L108.6,559.9 L108.5,554.1 L108.2,548.3 L107.7,542.5 L106.9,536.8 L106.0,531.0 L104.9,525.3 L103.6,519.7 L102.1,514.1 L100.4,508.5 L98.5,503.0 L96.5,497.6 L94.3,492.3" stroke="#1b5274" stroke-width="0.9" opacity="0.5" stroke-linecap="round" stroke-dasharray="174.0" style="--len:174.0;--dur:10.5s;--del:6.49s"/>
<path class="fd" d="M705.6,226.6 L710.5,229.6 L714.6,233.7 L717.6,238.7 L719.3,244.3 L719.6,250.1 L718.5,255.8 L716.3,261.1 L713.2,266.0 L709.4,270.4 L705.2,274.4 L700.6,278.0 L695.9,281.4 L691.2,284.7 L686.4,287.9 L681.6,291.2 L676.9,294.7 L672.3,298.2 L667.9,301.9 L663.5,305.8 L659.4,309.8 L655.3,314.0 L651.5,318.3 L647.7,322.7 L644.0,327.2 L640.5,331.8 L637.0,336.4 L633.5,341.1 L630.1,345.7 L626.6,350.4 L623.2,355.1" stroke="#1b5274" stroke-width="0.9" opacity="0.46" stroke-linecap="round" stroke-dasharray="174.0" style="--len:174.0;--dur:11.0s;--del:6.68s"/>
<path class="fd" d="M167.3,788.7 L162.8,792.4 L158.4,796.1 L154.1,800.0" stroke="#1b5274" stroke-width="0.9" opacity="0.53" stroke-linecap="round" stroke-dasharray="17.0" style="--len:17.0;--dur:11.5s;--del:6.87s"/>
<path class="fd" d="M211.1,567.3 L216.8,566.2 L222.0,563.7 L226.7,560.3 L230.8,556.2 L234.4,551.7 L237.7,546.9 L240.9,542.0 L244.0,537.2 L247.2,532.3 L250.6,527.6 L254.1,523.0 L258.0,518.7 L262.2,514.7 L266.7,511.0 L271.6,507.9 L276.8,505.3 L282.3,503.4 L287.9,502.2 L293.7,501.7 L299.5,501.9 L305.2,502.8 L310.8,504.3 L316.2,506.5 L321.3,509.2 L326.2,512.4 L330.7,516.1 L334.8,520.1 L338.6,524.5 L341.9,529.3 L344.9,534.2" stroke="#1b5274" stroke-width="0.9" opacity="0.35" stroke-linecap="round" stroke-dasharray="174.0" style="--len:174.0;--dur:12.0s;--del:7.05s"/>
<path class="fd" d="M302.1,74.0 L299.1,79.0 L295.4,83.4 L290.8,87.0 L285.7,89.7 L280.1,91.2 L274.3,91.5 L268.5,90.6 L263.1,88.7 L258.1,85.8 L253.6,82.1 L249.7,77.8 L246.4,73.0 L243.8,67.8 L241.7,62.4 L240.1,56.8 L238.9,51.1 L238.1,45.4 L237.5,39.6 L237.0,33.9 L236.8,28.1 L236.6,22.3 L236.4,16.5 L236.4,10.7 L236.3,4.9" stroke="#1b5274" stroke-width="0.9" opacity="0.51" stroke-linecap="round" stroke-dasharray="139.0" style="--len:139.0;--dur:12.5s;--del:7.24s"/>
<path class="fd" d="M747.6,798.8 L741.8,798.0 L736.3,796.2 L731.0,793.8 L726.0,790.9 L721.3,787.5 L716.7,784.0 L712.3,780.2 L708.0,776.3 L703.9,772.2 L699.8,768.1 L695.7,764.0 L691.7,759.8 L687.8,755.5 L683.9,751.2 L680.1,746.8 L676.3,742.4 L672.7,737.9 L669.2,733.2 L665.9,728.5 L662.8,723.6 L659.8,718.6 L657.2,713.4 L654.9,708.1 L652.8,702.7 L651.1,697.2 L649.7,691.5 L648.7,685.8 L647.9,680.1 L647.4,674.3 L647.0,668.5" stroke="#1b5274" stroke-width="0.9" opacity="0.53" stroke-linecap="round" stroke-dasharray="174.0" style="--len:174.0;--dur:10.5s;--del:7.42s"/>
<path class="fd" d="M598.7,555.2 L603.2,558.9 L608.2,561.9 L613.6,563.9 L619.4,564.7 L625.1,564.0 L630.4,561.7 L635.0,558.0 L638.5,553.5 L641.1,548.3 L643.0,542.8 L644.3,537.2 L645.2,531.4 L645.8,525.7 L646.2,519.9 L646.4,514.1 L646.4,508.3 L646.4,502.5 L646.3,496.7 L646.0,490.9 L645.7,485.1 L645.3,479.3 L644.8,473.5 L644.2,467.8 L643.4,462.0 L642.5,456.3 L641.3,450.6 L640.0,445.0 L638.3,439.4 L636.3,433.9 L634.0,428.6" stroke="#1b5274" stroke-width="0.9" opacity="0.42" stroke-linecap="round" stroke-dasharray="174.0" style="--len:174.0;--dur:11.0s;--del:7.61s"/>
<path class="fd" d="M647.2,292.3 L648.7,297.9 L648.8,303.6 L647.9,309.4 L646.1,314.9 L643.9,320.3 L641.3,325.4 L638.5,330.5 L635.6,335.5 L632.5,340.4 L629.3,345.3 L626.1,350.1 L622.8,354.9 L619.4,359.6 L615.9,364.2 L612.3,368.8 L608.7,373.3 L604.9,377.7 L600.9,381.9 L596.9,386.1 L592.7,390.1 L588.3,393.9 L583.9,397.6 L579.2,401.1 L574.5,404.4 L569.6,407.6 L564.7,410.6 L559.6,413.4 L554.4,416.1 L549.2,418.6 L544.0,421.0" stroke="#1b5274" stroke-width="0.9" opacity="0.38" stroke-linecap="round" stroke-dasharray="174.0" style="--len:174.0;--dur:11.5s;--del:7.79s"/>
<path class="fd" d="M408.2,639.5 L413.7,637.7 L419.4,638.6 L424.0,642.2 L426.9,647.2 L428.6,652.8 L429.8,658.4 L430.6,664.2 L431.4,669.9 L432.1,675.7 L432.9,681.4 L433.7,687.2 L434.7,692.9 L435.7,698.6 L436.8,704.3 L438.1,710.0 L439.5,715.6 L441.1,721.2 L442.8,726.7 L444.8,732.1 L447.0,737.5 L449.5,742.7 L452.3,747.8 L455.3,752.8 L458.7,757.5 L462.4,762.0 L466.4,766.1 L470.8,770.0 L475.4,773.5 L480.2,776.7 L485.3,779.6" stroke="#1b5274" stroke-width="0.9" opacity="0.47" stroke-linecap="round" stroke-dasharray="174.0" style="--len:174.0;--dur:12.0s;--del:7.98s"/>
<path class="fd" d="M663.9,463.4 L660.8,458.5 L658.1,453.4 L655.6,448.2 L653.2,442.9 L650.8,437.6 L648.4,432.3 L645.8,427.2 L642.9,422.1 L639.7,417.3 L636.2,412.7 L632.1,408.5 L627.6,404.9 L622.6,402.0 L617.2,399.9 L611.5,398.7 L605.7,398.4 L599.9,398.9 L594.3,400.1 L588.7,401.7 L583.3,403.8 L578.0,406.1 L572.7,408.4 L567.4,410.9 L562.1,413.3 L556.9,415.7 L551.6,418.1 L546.3,420.4 L540.9,422.7 L535.6,424.9 L530.2,427.1" stroke="#1b5274" stroke-width="0.9" opacity="0.38" stroke-linecap="round" stroke-dasharray="174.0" style="--len:174.0;--dur:12.5s;--del:8.16s"/>
<path class="fd" d="M653.1,597.5 L651.5,591.9 L650.5,586.2 L649.7,580.5 L649.2,574.7 L648.8,568.9 L648.6,563.1 L648.4,557.3 L648.2,551.5 L648.1,545.7 L648.0,539.9 L647.9,534.1 L647.8,528.3 L647.7,522.5 L647.5,516.7 L647.4,510.9 L647.2,505.1 L646.9,499.3 L646.6,493.5 L646.3,487.7 L645.8,482.0 L645.3,476.2 L644.7,470.4 L644.0,464.7 L643.1,458.9 L642.0,453.2 L640.8,447.6 L639.2,442.0 L637.4,436.5 L635.2,431.1 L632.6,425.9" stroke="#1b5274" stroke-width="0.9" opacity="0.43" stroke-linecap="round" stroke-dasharray="174.0" style="--len:174.0;--dur:10.5s;--del:8.35s"/>
<path class="fd" d="M463.4,253.1 L458.6,249.8 L454.6,245.7 L451.3,240.9 L448.7,235.7 L446.9,230.2 L445.6,224.6 L444.7,218.8 L444.2,213.1 L444.0,207.3 L444.0,201.5 L444.2,195.7 L444.5,189.9 L445.0,184.1 L445.7,178.3 L446.4,172.6 L447.3,166.8 L448.3,161.1 L449.4,155.4 L450.7,149.8 L452.1,144.1 L453.6,138.5 L455.2,133.0 L457.0,127.5 L458.9,122.0 L461.0,116.6 L463.1,111.2 L465.5,105.9 L467.9,100.6 L470.5,95.4 L473.2,90.3" stroke="#1b5274" stroke-width="0.9" opacity="0.4" stroke-linecap="round" stroke-dasharray="174.0" style="--len:174.0;--dur:11.0s;--del:8.54s"/>
<path class="fd" d="M529.0,561.7 L529.4,567.5 L529.3,573.3 L528.9,579.1 L528.4,584.9 L527.8,590.6 L527.3,596.4 L527.0,602.2 L526.8,608.0 L527.0,613.8 L527.5,619.6 L528.4,625.3 L529.7,631.0 L531.5,636.5 L533.8,641.8 L536.5,646.9 L539.7,651.8 L543.3,656.3 L547.4,660.5 L551.8,664.2 L556.6,667.5 L561.6,670.3 L567.0,672.6 L572.5,674.5 L578.1,675.8 L583.9,676.5 L589.7,676.8 L595.5,676.5 L601.2,675.6 L606.8,674.2 L612.3,672.2" stroke="#1b5274" stroke-width="0.9" opacity="0.44" stroke-linecap="round" stroke-dasharray="174.0" style="--len:174.0;--dur:11.5s;--del:8.72s"/>
<path class="fd" d="M38.3,578.3 L44.1,577.8 L49.9,577.0 L55.6,576.0 L61.2,574.6 L66.7,572.8 L72.0,570.4 L77.1,567.6 L81.7,564.1 L85.9,560.1 L89.6,555.7 L92.7,550.7 L95.1,545.4 L96.8,539.9 L98.0,534.2 L98.6,528.5 L98.6,522.7 L98.3,516.9 L97.5,511.1 L96.3,505.5 L94.8,499.8 L93.1,494.3 L91.1,488.9 L88.9,483.5 L86.5,478.2 L83.9,473.0 L81.1,467.9 L78.3,462.9 L75.4,457.9 L72.4,452.9 L69.3,448.0" stroke="#1b5274" stroke-width="0.9" opacity="0.49" stroke-linecap="round" stroke-dasharray="174.0" style="--len:174.0;--dur:12.0s;--del:8.91s"/>
<path class="fd" d="M541.2,652.3 L544.9,656.8 L548.9,661.0 L553.4,664.7 L558.2,667.9 L563.3,670.7 L568.6,672.9 L574.2,674.6 L579.9,675.8 L585.6,676.5 L591.4,676.6 L597.2,676.1 L602.9,675.1 L608.5,673.5 L613.9,671.3 L619.0,668.6 L623.7,665.3 L628.1,661.4 L631.9,657.1 L635.3,652.4 L638.1,647.3 L640.4,642.0 L642.3,636.5 L643.8,630.9 L644.9,625.2 L645.7,619.4 L646.4,613.7 L646.9,607.9 L647.2,602.1 L647.5,596.3 L647.6,590.5" stroke="#1b5274" stroke-width="0.9" opacity="0.48" stroke-linecap="round" stroke-dasharray="174.0" style="--len:174.0;--dur:12.5s;--del:9.09s"/>
<path class="fd" d="M170.3,190.9 L165.9,194.7 L162.7,199.5 L161.1,205.1 L161.2,210.9 L162.7,216.5 L165.4,221.6 L168.7,226.4 L172.4,230.8 L176.4,235.1 L180.5,239.2 L184.5,243.3 L188.6,247.5 L192.6,251.7 L196.5,256.0 L200.3,260.4 L204.0,264.8 L207.6,269.3 L211.2,273.9 L214.7,278.5 L218.1,283.2 L221.5,287.9 L224.9,292.6 L228.3,297.3 L231.7,302.0 L235.1,306.7 L238.6,311.4 L242.1,316.0 L245.7,320.5 L249.4,325.0 L253.2,329.4" stroke="#1b5274" stroke-width="0.9" opacity="0.41" stroke-linecap="round" stroke-dasharray="174.0" style="--len:174.0;--dur:10.5s;--del:9.28s"/>
<path class="fd" d="M175.4,524.3 L175.2,530.1 L174.9,535.9 L174.5,541.7 L174.2,547.5 L173.7,553.3 L173.1,559.0 L172.3,564.8 L171.3,570.5 L170.0,576.1 L168.2,581.7 L166.0,587.0 L163.2,592.1 L159.6,596.6 L155.2,600.4 L150.1,603.2 L144.5,604.5 L138.7,604.2 L133.2,602.3 L128.4,599.0 L124.4,594.8 L121.3,589.9 L118.9,584.6 L117.0,579.1 L115.5,573.5 L114.3,567.9 L113.2,562.2 L112.2,556.5 L111.2,550.7 L110.2,545.0 L109.1,539.3" stroke="#1b5274" stroke-width="0.9" opacity="0.46" stroke-linecap="round" stroke-dasharray="174.0" style="--len:174.0;--dur:11.0s;--del:9.46s"/>
<path class="fd" d="M748.0,796.4 L742.3,795.7 L736.7,794.1 L731.4,791.8 L726.3,789.0 L721.5,785.8 L716.8,782.3 L712.4,778.6 L708.1,774.7 L703.8,770.7 L699.7,766.7 L695.6,762.5 L691.6,758.4 L687.6,754.2 L683.7,749.9 L679.8,745.5 L676.1,741.1 L672.5,736.6 L669.0,732.0 L665.6,727.2 L662.5,722.3 L659.6,717.3 L657.0,712.1 L654.7,706.8 L652.7,701.3 L651.0,695.8 L649.7,690.1 L648.6,684.4 L647.9,678.7 L647.4,672.9 L647.1,667.1" stroke="#1b5274" stroke-width="0.9" opacity="0.53" stroke-linecap="round" stroke-dasharray="174.0" style="--len:174.0;--dur:11.5s;--del:9.65s"/>
<path class="fd" d="M781.8,284.8 L780.7,290.5 L778.9,296.0 L776.5,301.3 L773.4,306.1 L769.5,310.4 L764.8,313.9 L759.6,316.5 L754.0,318.0 L748.2,318.5 L742.5,318.0 L736.8,316.9 L731.2,315.3 L725.7,313.4 L720.3,311.3 L714.9,309.3 L709.4,307.5 L703.8,305.9 L698.1,304.9 L692.3,304.3 L686.5,304.5 L680.7,305.2 L675.1,306.7 L669.7,308.8 L664.6,311.4 L659.7,314.6 L655.1,318.1 L650.8,322.0 L646.7,326.1 L642.8,330.4 L639.0,334.8" stroke="#1b5274" stroke-width="0.9" opacity="0.48" stroke-linecap="round" stroke-dasharray="174.0" style="--len:174.0;--dur:12.0s;--del:9.84s"/>
<path class="fd" d="M625.8,721.8 L625.6,716.0 L626.1,710.3 L627.1,704.5 L628.4,698.9 L630.1,693.4 L632.0,687.9 L633.9,682.4 L635.9,676.9 L637.7,671.4 L639.4,665.9 L641.0,660.3 L642.3,654.7 L643.5,649.0 L644.5,643.3 L645.3,637.5 L645.9,631.8 L646.4,626.0 L646.8,620.2 L647.1,614.4 L647.4,608.6 L647.6,602.8 L647.7,597.0 L647.8,591.2 L647.9,585.4 L647.9,579.6 L648.0,573.8 L648.0,568.0 L648.0,562.2 L648.0,556.4 L648.0,550.6" stroke="#1b5274" stroke-width="0.9" opacity="0.49" stroke-linecap="round" stroke-dasharray="174.0" style="--len:174.0;--dur:12.5s;--del:10.02s"/>
<path class="fd" d="M763.5,697.9 L764.8,703.6 L765.8,709.3 L766.4,715.1 L766.4,720.9 L766.0,726.6 L765.0,732.3 L763.3,737.9 L760.8,743.1 L757.5,747.9 L753.4,752.0 L748.6,755.3 L743.2,757.5 L737.6,758.7 L731.8,759.0 L726.0,758.3 L720.4,756.9 L714.9,755.0 L709.6,752.6 L704.5,749.9 L699.6,746.8 L694.8,743.6 L690.1,740.1 L685.6,736.4 L681.3,732.6 L677.1,728.5 L673.2,724.3 L669.4,719.9 L665.9,715.3 L662.6,710.5 L659.7,705.5" stroke="#1b5274" stroke-width="0.9" opacity="0.53" stroke-linecap="round" stroke-dasharray="174.0" style="--len:174.0;--dur:10.5s;--del:10.21s"/>
<path class="fd" d="M735.8,186.1 L739.4,181.5 L742.3,176.5 L744.3,171.1 L745.1,165.3 L744.4,159.6 L742.2,154.2 L738.5,149.7 L733.7,146.5 L728.1,144.8 L722.4,144.4 L716.6,144.9 L710.9,146.1 L705.3,147.7 L699.8,149.5 L694.3,151.4 L688.9,153.3 L683.4,155.3 L678.0,157.3 L672.5,159.2 L667.0,161.2 L661.6,163.2 L656.1,165.1 L650.7,167.1 L645.2,169.1 L639.8,171.2 L634.4,173.3 L629.1,175.5 L623.7,177.8 L618.4,180.1 L613.2,182.6" stroke="#1b5274" stroke-width="0.9" opacity="0.52" stroke-linecap="round" stroke-dasharray="174.0" style="--len:174.0;--dur:11.0s;--del:10.39s"/>
<path class="fd" d="M624.1,472.7 L625.9,467.2 L626.9,461.5 L627.4,455.7 L627.2,449.9 L626.5,444.1 L625.2,438.5 L623.4,433.0 L620.8,427.8 L617.7,422.9 L613.8,418.6 L609.3,414.9 L604.3,412.0 L598.8,410.1 L593.1,409.1 L587.3,408.9 L581.6,409.5 L575.9,410.6 L570.3,412.1 L564.8,413.9 L559.3,415.9 L553.9,418.0 L548.5,420.1 L543.1,422.2 L537.7,424.3 L532.3,426.4 L526.9,428.6 L521.5,430.7 L516.1,432.9 L510.7,435.1 L505.4,437.4" stroke="#1b5274" stroke-width="0.9" opacity="0.36" stroke-linecap="round" stroke-dasharray="174.0" style="--len:174.0;--dur:11.5s;--del:10.58s"/>
<path class="fd" d="M321.0,351.8 L322.5,357.4 L325.2,362.6 L328.9,367.1 L333.2,370.9 L338.1,374.1 L343.2,376.7 L348.6,378.9 L354.1,380.8 L359.7,382.3 L365.4,383.5 L371.1,384.6 L376.8,385.4 L382.6,386.1 L388.4,386.7 L394.1,387.1 L399.9,387.4 L405.7,387.6 L411.5,387.7 L417.3,387.7 L423.1,387.7 L428.9,387.5 L434.7,387.2 L440.5,386.8 L446.3,386.3 L452.1,385.7 L457.8,385.0 L463.6,384.2 L469.3,383.3 L475.0,382.3 L480.7,381.2" stroke="#1b5274" stroke-width="0.9" opacity="0.24" stroke-linecap="round" stroke-dasharray="174.0" style="--len:174.0;--dur:12.0s;--del:10.76s"/>
<path class="fd" d="M45.0,169.5 L48.9,173.8 L53.0,177.8 L57.5,181.6 L62.1,185.0 L67.0,188.2 L72.1,191.0 L77.3,193.5 L82.6,195.8 L88.0,197.9 L93.5,199.8 L99.0,201.7 L104.5,203.5 L110.0,205.3 L115.5,207.1 L121.0,209.0 L126.5,210.9 L131.9,213.0 L137.3,215.2 L142.6,217.6 L147.8,220.1 L153.0,222.7 L158.0,225.5 L163.0,228.5 L167.8,231.7 L172.6,235.1 L177.2,238.6 L181.7,242.3 L186.0,246.1 L190.2,250.1 L194.3,254.2" stroke="#1b5274" stroke-width="0.9" opacity="0.49" stroke-linecap="round" stroke-dasharray="174.0" style="--len:174.0;--dur:12.5s;--del:10.95s"/>
<path class="fd" d="M116.7,255.9 L115.2,250.3 L114.8,244.6 L115.8,238.8 L118.1,233.5 L121.9,229.1 L126.7,225.8 L132.1,223.9 L137.9,223.1 L143.7,223.5 L149.4,224.6 L154.9,226.4 L160.2,228.7 L165.3,231.3 L170.3,234.3 L175.1,237.6 L179.7,241.1 L184.2,244.8 L188.5,248.7 L192.7,252.7 L196.7,256.9 L200.6,261.2 L204.4,265.6 L208.1,270.1 L211.6,274.6 L215.1,279.3 L218.6,283.9 L222.0,288.6 L225.4,293.3 L228.8,298.0 L232.2,302.7" stroke="#1b5274" stroke-width="0.9" opacity="0.43" stroke-linecap="round" stroke-dasharray="174.0" style="--len:174.0;--dur:10.5s;--del:11.13s"/>
<path class="fd" d="M735.4,573.8 L739.1,578.3 L743.2,582.3 L747.8,585.9 L752.7,589.0 L757.9,591.5 L763.3,593.6 L768.9,595.3 L774.5,596.6 L780.3,597.6 L786.0,598.2 L791.8,598.7 L797.6,599.0" stroke="#1b5274" stroke-width="0.9" opacity="0.53" stroke-linecap="round" stroke-dasharray="70.0" style="--len:70.0;--dur:11.0s;--del:11.32s"/>
<path class="fd" d="M31.7,604.1 L37.5,603.7 L43.3,603.2 L49.1,602.5 L54.8,601.4 L60.4,600.1 L65.9,598.3 L71.3,596.1 L76.5,593.5 L81.3,590.3 L85.8,586.7 L89.9,582.5 L93.5,578.0 L96.6,573.1 L99.1,567.8 L101.1,562.4 L102.5,556.8 L103.5,551.1 L104.0,545.3 L104.2,539.5 L104.0,533.7 L103.4,527.9 L102.6,522.2 L101.4,516.5 L100.1,510.9 L98.4,505.3 L96.6,499.8 L94.6,494.3 L92.4,489.0 L90.0,483.7 L87.4,478.5" stroke="#1b5274" stroke-width="0.9" opacity="0.5" stroke-linecap="round" stroke-dasharray="174.0" style="--len:174.0;--dur:11.5s;--del:11.51s"/>
<path class="fd" d="M23.3,498.0 L28.7,496.0 L33.9,493.3 L38.7,490.1 L43.1,486.4 L47.0,482.0 L50.2,477.2 L52.7,471.9 L54.4,466.4 L55.4,460.7 L55.7,454.9 L55.4,449.1 L54.7,443.3 L53.5,437.6 L52.1,432.0 L50.5,426.5 L48.8,420.9 L46.9,415.4 L45.1,409.9 L43.3,404.4 L41.6,398.9 L40.0,393.3 L38.5,387.7 L37.1,382.1 L35.8,376.4 L34.7,370.7 L33.7,365.0 L32.9,359.2 L32.2,353.5 L31.6,347.7 L31.2,341.9" stroke="#1b5274" stroke-width="0.9" opacity="0.51" stroke-linecap="round" stroke-dasharray="174.0" style="--len:174.0;--dur:12.0s;--del:11.69s"/>
<path class="fd" d="M365.2,630.9 L361.3,635.2 L358.5,640.3 L356.3,645.7 L354.4,651.2 L352.7,656.7 L350.9,662.2 L348.9,667.7 L346.8,673.1 L344.6,678.4 L342.1,683.7 L339.3,688.8 L336.4,693.8 L333.1,698.6 L329.7,703.2 L326.0,707.7 L322.0,711.9 L317.8,715.9 L313.4,719.7 L308.8,723.2 L304.0,726.5 L299.1,729.6 L294.1,732.5 L288.9,735.2 L283.7,737.7 L278.4,740.1 L273.1,742.3 L267.7,744.5 L262.3,746.6 L256.9,748.7 L251.4,750.7" stroke="#1b5274" stroke-width="0.9" opacity="0.47" stroke-linecap="round" stroke-dasharray="174.0" style="--len:174.0;--dur:12.5s;--del:11.88s"/>
<path class="fd" d="M99.9,625.8 L101.1,620.1 L102.3,614.5 L103.5,608.8 L104.7,603.1 L105.8,597.4 L106.7,591.7 L107.5,585.9 L108.1,580.2 L108.6,574.4 L108.9,568.6 L109.0,562.8 L108.9,557.0 L108.6,551.2 L108.1,545.4 L107.5,539.7 L106.6,533.9 L105.6,528.2 L104.3,522.5 L102.9,516.9 L101.3,511.3 L99.5,505.8 L97.6,500.4 L95.4,495.0 L93.1,489.6 L90.7,484.4 L88.1,479.2 L85.4,474.1 L82.6,469.0 L79.6,464.0 L76.6,459.0" stroke="#1b5274" stroke-width="0.9" opacity="0.48" stroke-linecap="round" stroke-dasharray="174.0" style="--len:174.0;--dur:10.5s;--del:12.06s"/>
<path class="fd" d="M649.1,152.0 L645.9,156.9 L642.0,161.1 L637.6,164.9 L632.9,168.4 L628.1,171.5 L623.1,174.5 L618.1,177.5 L613.1,180.3 L608.0,183.2 L603.0,186.2 L598.1,189.2 L593.2,192.3 L588.4,195.5 L583.6,198.8 L578.9,202.3 L574.4,205.8 L569.9,209.5 L565.5,213.3 L561.3,217.3 L557.1,221.3 L552.9,225.3 L548.9,229.5 L544.8,233.6 L540.8,237.8 L536.7,241.9 L532.6,246.0 L528.4,250.1 L524.1,253.9 L519.7,257.7 L515.1,261.2" stroke="#1b5274" stroke-width="0.9" opacity="0.43" stroke-linecap="round" stroke-dasharray="174.0" style="--len:174.0;--dur:11.0s;--del:12.25s"/>
<path class="fd" d="M683.1,130.0 L683.2,135.8 L681.6,141.4 L678.8,146.4 L675.0,150.8 L670.6,154.6 L665.8,157.8 L660.8,160.7 L655.6,163.3 L650.3,165.8 L645.0,168.1 L639.7,170.4 L634.4,172.7 L629.0,175.0 L623.7,177.4 L618.5,179.8 L613.3,182.3 L608.1,184.9 L603.0,187.7 L597.9,190.5 L592.9,193.5 L588.1,196.6 L583.3,199.9 L578.6,203.3 L574.0,206.8 L569.5,210.5 L565.1,214.3 L560.8,218.2 L556.6,222.2 L552.5,226.3 L548.4,230.4" stroke="#1b5274" stroke-width="0.9" opacity="0.46" stroke-linecap="round" stroke-dasharray="174.0" style="--len:174.0;--dur:11.5s;--del:12.43s"/>
<path class="fd" d="M153.6,363.9 L148.8,367.2 L144.5,371.1 L140.6,375.4 L136.9,379.9 L133.4,384.5 L130.0,389.2 L126.5,393.8 L122.9,398.4 L119.2,402.8 L115.1,406.9 L110.7,410.7 L105.9,413.9 L100.7,416.5 L95.2,418.4 L89.5,419.5 L83.7,419.6 L77.9,418.9 L72.4,417.3 L67.1,414.9 L62.1,411.9 L57.6,408.3 L53.4,404.2 L49.7,399.8 L46.5,395.0 L43.6,389.9 L41.1,384.7 L39.0,379.3 L37.2,373.8 L35.6,368.2 L34.4,362.5" stroke="#1b5274" stroke-width="0.9" opacity="0.46" stroke-linecap="round" stroke-dasharray="174.0" style="--len:174.0;--dur:12.0s;--del:12.62s"/>
<path class="fd" d="M91.3,28.6 L95.9,32.2 L100.0,36.3 L103.7,40.8 L107.2,45.4 L110.6,50.1 L114.1,54.7 L117.7,59.3 L121.5,63.7 L125.5,67.8 L129.8,71.7 L134.4,75.3 L139.2,78.5 L144.2,81.4 L149.5,83.8 L154.9,85.8 L160.5,87.4 L166.2,88.5 L172.0,89.1 L177.8,89.2 L183.6,88.8 L189.3,87.9 L194.9,86.4 L200.3,84.3 L205.5,81.7 L210.4,78.6 L214.8,74.9 L218.9,70.7 L222.4,66.1 L225.4,61.1 L227.9,55.8" stroke="#1b5274" stroke-width="0.9" opacity="0.53" stroke-linecap="round" stroke-dasharray="174.0" style="--len:174.0;--dur:12.5s;--del:12.8s"/>
<path class="fd" d="M532.2,634.4 L534.1,639.9 L536.6,645.1 L539.5,650.1 L542.9,654.8 L546.8,659.1 L551.1,663.0 L555.8,666.5 L560.7,669.5 L566.0,672.0 L571.4,673.9 L577.1,675.4 L582.8,676.3 L588.6,676.6 L594.4,676.4 L600.1,675.7 L605.8,674.4 L611.3,672.5 L616.5,670.0 L621.5,667.0 L626.0,663.4 L630.1,659.3 L633.7,654.7 L636.8,649.8 L639.3,644.6 L641.4,639.2 L643.1,633.6 L644.4,628.0 L645.3,622.3 L646.1,616.5 L646.6,610.8" stroke="#1b5274" stroke-width="0.9" opacity="0.48" stroke-linecap="round" stroke-dasharray="174.0" style="--len:174.0;--dur:10.5s;--del:12.99s"/>
<path class="fd" d="M375.1,165.2 L375.9,170.9 L376.6,176.7 L377.2,182.4 L377.6,188.2 L377.8,194.0 L377.8,199.8 L377.5,205.6 L377.0,211.4 L376.2,217.1 L375.0,222.8 L373.4,228.4 L371.2,233.8 L368.4,238.9 L365.0,243.6 L361.0,247.7 L356.3,251.1 L351.0,253.6 L345.4,255.0 L339.6,255.5 L333.9,254.9 L328.2,253.4 L322.9,251.2 L317.8,248.4 L313.0,245.1 L308.5,241.4 L304.3,237.5 L300.3,233.3 L296.4,228.9 L292.7,224.5 L289.1,219.9" stroke="#1b5274" stroke-width="0.9" opacity="0.36" stroke-linecap="round" stroke-dasharray="174.0" style="--len:174.0;--dur:11.0s;--del:13.18s"/>
<path class="fd" d="M589.1,519.0 L594.4,521.3 L599.9,523.2 L605.6,524.4 L611.4,524.8 L617.1,524.1 L622.6,522.1 L627.5,519.0 L631.6,514.9 L634.8,510.1 L637.3,504.8 L639.1,499.3 L640.3,493.6 L641.1,487.9 L641.6,482.1 L641.7,476.3 L641.6,470.5 L641.3,464.7 L640.7,459.0 L639.8,453.2 L638.7,447.5 L637.3,441.9 L635.5,436.4 L633.4,431.0 L630.7,425.8 L627.6,420.9 L623.9,416.4 L619.7,412.5 L614.9,409.2 L609.7,406.8 L604.1,405.2" stroke="#1b5274" stroke-width="0.9" opacity="0.41" stroke-linecap="round" stroke-dasharray="174.0" style="--len:174.0;--dur:11.5s;--del:13.36s"/>
<path class="fd" d="M506.1,308.7 L500.7,306.5 L495.3,304.5 L489.9,302.4 L484.5,300.2 L479.3,297.7 L474.2,294.9 L469.4,291.7 L464.9,288.0 L460.8,283.9 L457.2,279.3 L454.0,274.5 L451.3,269.3 L449.1,264.0 L447.3,258.5 L445.8,252.9 L444.7,247.2 L443.9,241.4 L443.3,235.7 L442.9,229.9 L442.7,224.1 L442.6,218.3 L442.7,212.5 L442.9,206.7 L443.2,200.9 L443.6,195.1 L444.1,189.3 L444.8,183.6 L445.5,177.8 L446.3,172.1 L447.2,166.3" stroke="#1b5274" stroke-width="0.9" opacity="0.34" stroke-linecap="round" stroke-dasharray="174.0" style="--len:174.0;--dur:12.0s;--del:13.55s"/>
<path class="fd" d="M387.1,625.9 L383.6,621.3 L378.8,618.0 L373.1,617.2 L367.6,619.1 L363.4,623.1 L360.6,628.1 L358.5,633.6 L356.9,639.1 L355.5,644.8 L354.0,650.4 L352.5,656.0 L350.8,661.5 L349.0,667.0 L347.0,672.5 L344.8,677.8 L342.3,683.1 L339.6,688.2 L336.7,693.2 L333.5,698.1 L330.1,702.7 L326.4,707.2 L322.4,711.5 L318.2,715.5 L313.9,719.3 L309.3,722.8 L304.5,726.2 L299.6,729.3 L294.6,732.2 L289.5,734.9 L284.3,737.4" stroke="#1b5274" stroke-width="0.9" opacity="0.44" stroke-linecap="round" stroke-dasharray="174.0" style="--len:174.0;--dur:12.5s;--del:13.73s"/>
<path class="fd" d="M128.8,560.9 L124.6,557.0 L121.0,552.4 L118.0,547.4 L115.4,542.2 L113.1,536.9 L111.0,531.5 L108.9,526.1 L106.9,520.6 L104.9,515.2 L102.8,509.8 L100.7,504.4 L98.4,499.1 L96.0,493.8 L93.5,488.6 L90.9,483.4 L88.2,478.2 L85.4,473.2 L82.5,468.2 L79.5,463.2 L76.4,458.3 L73.3,453.4 L70.2,448.5 L67.1,443.6 L64.0,438.7 L60.9,433.8 L57.9,428.8 L55.0,423.8 L52.3,418.7 L49.6,413.5 L47.2,408.2" stroke="#1b5274" stroke-width="0.9" opacity="0.48" stroke-linecap="round" stroke-dasharray="174.0" style="--len:174.0;--dur:10.5s;--del:13.92s"/>
<path class="fd" d="M442.1,45.8 L447.9,44.9 L453.6,43.7 L459.2,42.3 L464.7,40.6 L470.2,38.6 L475.5,36.3 L480.6,33.6 L485.6,30.6 L490.3,27.2 L494.7,23.5 L498.8,19.4 L502.6,15.0 L506.0,10.2 L508.9,5.3 L511.5,0.0" stroke="#1b5274" stroke-width="0.9" opacity="0.52" stroke-linecap="round" stroke-dasharray="87.0" style="--len:87.0;--dur:11.0s;--del:14.1s"/>
<path class="fd" d="M552.8,186.5 L549.3,191.2 L545.9,195.9 L542.5,200.6 L539.0,205.2 L535.6,209.9 L532.1,214.5 L528.6,219.1 L525.0,223.7 L521.3,228.1 L517.4,232.5 L513.4,236.7 L509.2,240.7 L504.7,244.3 L500.0,247.7 L494.9,250.5 L489.6,252.8 L484.0,254.3 L478.2,254.9 L472.4,254.4 L466.8,252.9 L461.6,250.3 L457.1,246.7 L453.3,242.3 L450.3,237.4 L448.0,232.0 L446.4,226.5 L445.3,220.8 L444.5,215.0 L444.2,209.2 L444.1,203.4" stroke="#1b5274" stroke-width="0.9" opacity="0.37" stroke-linecap="round" stroke-dasharray="174.0" style="--len:174.0;--dur:11.5s;--del:14.29s"/>
<path class="fd" d="M713.9,350.2 L709.9,346.0 L705.9,341.8 L701.7,337.8 L697.3,334.0 L692.6,330.6 L687.6,327.7 L682.3,325.4 L676.7,324.0 L670.9,323.4 L665.1,323.9 L659.5,325.2 L654.1,327.4 L649.1,330.3 L644.4,333.7 L640.0,337.5 L635.9,341.6 L632.0,345.9 L628.2,350.3 L624.5,354.8 L620.8,359.3 L617.1,363.8 L613.4,368.2 L609.7,372.6 L605.8,377.0 L601.9,381.2 L597.8,385.4 L593.6,389.4 L589.3,393.2 L584.8,396.9 L580.2,400.4" stroke="#1b5274" stroke-width="0.9" opacity="0.41" stroke-linecap="round" stroke-dasharray="174.0" style="--len:174.0;--dur:12.0s;--del:14.47s"/>
<path class="fd" d="M632.5,88.7 L638.0,90.5 L643.6,91.9 L649.3,92.9 L655.1,93.6 L660.9,94.0 L666.7,94.3 L672.5,94.4 L678.3,94.4 L684.1,94.6 L689.8,94.9 L695.6,95.6 L701.3,96.8 L706.7,98.9 L711.6,101.9 L715.7,106.0 L718.6,111.1 L719.7,116.8 L719.3,122.5 L717.4,128.0 L714.3,133.0 L710.5,137.3 L706.2,141.2 L701.5,144.6 L696.6,147.6 L691.4,150.4 L686.2,152.9 L680.9,155.2 L675.6,157.5 L670.2,159.6 L664.8,161.7" stroke="#1b5274" stroke-width="0.9" opacity="0.53" stroke-linecap="round" stroke-dasharray="174.0" style="--len:174.0;--dur:12.5s;--del:14.66s"/>
<path class="fd" d="M634.2,232.6 L635.2,226.9 L635.3,221.1 L634.1,215.4 L631.6,210.2 L627.7,205.9 L622.9,202.7 L617.4,200.8 L611.7,200.0 L605.9,200.3 L600.1,201.2 L594.6,202.8 L589.2,204.9 L583.9,207.4 L578.8,210.2 L573.9,213.3 L569.2,216.6 L564.5,220.1 L560.0,223.7 L555.7,227.5 L551.4,231.4 L547.1,235.4 L542.9,239.4 L538.7,243.4 L534.5,247.4 L530.3,251.3 L525.9,255.1 L521.4,258.8 L516.7,262.3 L511.9,265.4 L506.8,268.3" stroke="#1b5274" stroke-width="0.9" opacity="0.41" stroke-linecap="round" stroke-dasharray="174.0" style="--len:174.0;--dur:10.5s;--del:14.85s"/>
<path class="fd" d="M592.4,518.6 L597.9,520.5 L603.6,521.7 L609.4,522.2 L615.1,521.7 L620.7,519.9 L625.7,517.1 L630.0,513.2 L633.5,508.5 L636.1,503.3 L638.1,497.9 L639.4,492.3 L640.3,486.5 L640.9,480.7 L641.1,474.9 L641.0,469.2 L640.6,463.4 L640.0,457.6 L639.2,451.9 L638.0,446.2 L636.5,440.6 L634.7,435.1 L632.4,429.7 L629.7,424.6 L626.4,419.8 L622.6,415.5 L618.2,411.7 L613.3,408.6 L607.9,406.4 L602.3,405.1 L596.5,404.7" stroke="#1b5274" stroke-width="0.9" opacity="0.4" stroke-linecap="round" stroke-dasharray="174.0" style="--len:174.0;--dur:11.0s;--del:15.03s"/>
<path class="fd" d="M369.4,486.6 L364.5,483.6 L359.0,481.6 L353.3,480.9 L347.5,481.7 L342.3,484.2 L338.1,488.3 L335.5,493.5 L334.6,499.2 L335.0,505.0 L336.4,510.6 L338.4,516.1 L340.7,521.4 L343.1,526.7 L345.4,532.0 L347.7,537.3 L349.7,542.8 L351.6,548.3 L353.2,553.8 L354.6,559.5 L355.8,565.1 L356.8,570.8 L357.5,576.6 L358.2,582.4 L358.6,588.1 L358.9,593.9 L359.0,599.7 L359.0,605.5 L358.8,611.3 L358.5,617.1 L358.0,622.9" stroke="#1b5274" stroke-width="0.9" opacity="0.33" stroke-linecap="round" stroke-dasharray="174.0" style="--len:174.0;--dur:11.5s;--del:15.22s"/>
<path class="fd" d="M372.4,397.1 L378.1,396.1 L383.9,395.5 L389.7,395.1 L395.5,394.8 L401.3,394.6 L407.1,394.5 L412.9,394.4 L418.7,394.5 L424.5,394.5 L430.3,394.6 L436.0,394.8 L441.8,395.1 L447.6,395.6 L453.4,396.2 L459.1,397.1 L464.8,398.4 L470.3,400.1 L475.6,402.4 L480.5,405.5 L484.8,409.4 L488.0,414.3 L489.9,419.8 L490.1,425.6 L488.8,431.2 L486.3,436.4 L483.0,441.2 L479.1,445.5 L475.0,449.6 L470.8,453.6 L466.6,457.6" stroke="#1b5274" stroke-width="0.9" opacity="0.25" stroke-linecap="round" stroke-dasharray="174.0" style="--len:174.0;--dur:12.0s;--del:15.4s"/>
<path class="fd" d="M546.2,513.4 L551.0,516.7 L555.3,520.6 L559.1,525.0 L562.3,529.8 L565.1,534.9 L567.4,540.2 L569.2,545.7 L570.6,551.4 L571.6,557.1 L572.3,562.8 L572.6,568.6 L572.8,574.4 L572.7,580.2 L572.4,586.0 L572.1,591.8 L571.7,597.6 L571.4,603.4 L571.2,609.2 L571.2,615.0 L571.5,620.8 L572.3,626.5 L573.6,632.2 L575.5,637.6 L578.1,642.8 L581.5,647.5 L585.6,651.7 L590.3,655.0 L595.6,657.5 L601.2,659.0 L606.9,659.5" stroke="#1b5274" stroke-width="0.9" opacity="0.42" stroke-linecap="round" stroke-dasharray="174.0" style="--len:174.0;--dur:12.5s;--del:15.59s"/>
<path class="fd" d="M772.0,476.1 L774.2,481.4 L777.1,486.5 L780.6,491.1 L784.7,495.2 L789.3,498.7 L794.3,501.7 L799.6,504.1" stroke="#1b5274" stroke-width="0.9" opacity="0.53" stroke-linecap="round" stroke-dasharray="41.0" style="--len:41.0;--dur:10.5s;--del:15.77s"/>
<path class="fd" d="M211.7,317.1 L216.8,314.3 L222.5,313.4 L228.3,314.1 L233.7,316.2 L238.7,319.2 L243.3,322.6 L247.7,326.4 L252.0,330.3 L256.2,334.3 L260.5,338.2 L264.8,342.1 L269.2,345.9 L273.7,349.5 L278.3,353.0 L283.1,356.4 L287.9,359.6 L292.9,362.5 L298.0,365.3 L303.2,367.9 L308.4,370.3 L313.8,372.6 L319.2,374.6 L324.7,376.5 L330.3,378.2 L335.9,379.7 L341.5,381.1 L347.1,382.3 L352.8,383.4 L358.6,384.4 L364.3,385.3" stroke="#1b5274" stroke-width="0.9" opacity="0.31" stroke-linecap="round" stroke-dasharray="174.0" style="--len:174.0;--dur:11.0s;--del:15.96s"/>
<path class="fd" d="M328.0,418.5 L327.9,412.7 L329.4,407.1 L332.3,402.1 L336.6,398.1 L341.6,395.2 L347.0,393.2 L352.7,392.0 L358.4,391.2 L364.2,390.8 L370.0,390.6 L375.8,390.6 L381.6,390.6 L387.4,390.7 L393.2,390.8 L399.0,390.8 L404.8,390.9 L410.6,390.9 L416.4,390.9 L422.2,390.9 L428.0,390.9 L433.8,390.8 L439.6,390.7 L445.4,390.7 L451.2,390.6 L457.0,390.6 L462.8,390.8 L468.6,391.0 L474.4,391.5 L480.1,392.3 L485.8,393.5" stroke="#1b5274" stroke-width="0.9" opacity="0.24" stroke-linecap="round" stroke-dasharray="174.0" style="--len:174.0;--dur:11.5s;--del:16.14s"/>
<path class="fd" d="M290.7,169.7 L286.1,166.1 L281.7,162.3 L277.4,158.4 L273.2,154.5 L269.1,150.4 L265.1,146.1 L261.3,141.8 L257.6,137.3 L254.2,132.6 L251.0,127.8 L248.1,122.8 L245.4,117.6 L243.1,112.3 L241.1,106.8 L239.5,101.2 L238.2,95.6 L237.2,89.9 L236.5,84.1 L236.0,78.3 L235.7,72.6 L235.5,66.8 L235.4,61.0 L235.4,55.2 L235.5,49.4 L235.6,43.6 L235.7,37.8 L235.8,32.0 L235.9,26.2 L236.0,20.4 L236.0,14.6" stroke="#1b5274" stroke-width="0.9" opacity="0.49" stroke-linecap="round" stroke-dasharray="174.0" style="--len:174.0;--dur:12.0s;--del:16.33s"/>
<path class="fd" d="M793.2,312.7 L793.5,318.5 L793.8,324.3 L794.0,330.1 L794.2,335.9 L794.3,341.7 L794.6,347.5 L794.8,353.3 L795.2,359.1 L795.8,364.9 L796.6,370.6 L797.8,376.3 L799.4,381.9" stroke="#1b5274" stroke-width="0.9" opacity="0.53" stroke-linecap="round" stroke-dasharray="70.0" style="--len:70.0;--dur:12.5s;--del:16.52s"/>
<path class="fd" d="M125.6,151.8 L119.9,150.3 L114.3,149.1 L108.6,148.2 L102.8,147.7 L97.0,147.9 L91.3,149.0 L85.9,151.2 L81.2,154.6 L77.6,159.2 L75.6,164.6 L75.1,170.4 L76.2,176.1 L78.5,181.4 L81.9,186.2 L85.9,190.3 L90.5,193.9 L95.4,197.0 L100.5,199.7 L105.8,202.1 L111.1,204.4 L116.5,206.5 L121.9,208.7 L127.3,210.8 L132.7,213.0 L138.0,215.3 L143.3,217.7 L148.5,220.3 L153.6,223.0 L158.6,225.9 L163.6,228.9" stroke="#1b5274" stroke-width="0.9" opacity="0.51" stroke-linecap="round" stroke-dasharray="174.0" style="--len:174.0;--dur:10.5s;--del:16.7s"/>
<path class="fd" d="M319.6,365.7 L323.9,369.5 L328.8,372.8 L333.9,375.5 L339.2,377.7 L344.7,379.7 L350.3,381.3 L355.9,382.6 L361.6,383.8 L367.3,384.8 L373.0,385.6 L378.8,386.3 L384.6,386.9 L390.4,387.4 L396.1,387.7 L401.9,388.0 L407.7,388.1 L413.5,388.2 L419.3,388.2 L425.1,388.0 L430.9,387.8 L436.7,387.6 L442.5,387.2 L448.3,386.7 L454.1,386.2 L459.8,385.6 L465.6,384.9 L471.3,384.1 L477.1,383.2 L482.8,382.3 L488.5,381.4" stroke="#1b5274" stroke-width="0.9" opacity="0.24" stroke-linecap="round" stroke-dasharray="174.0" style="--len:174.0;--dur:11.0s;--del:16.89s"/>
<path class="fd" d="M536.7,568.1 L536.0,573.8 L535.0,579.5 L533.8,585.2 L532.7,590.9 L531.7,596.6 L530.9,602.4 L530.3,608.1 L530.1,613.9 L530.2,619.7 L530.8,625.5 L531.9,631.2 L533.5,636.8 L535.6,642.2 L538.2,647.4 L541.4,652.2 L545.0,656.8 L549.0,660.9 L553.5,664.6 L558.3,667.9 L563.4,670.7 L568.7,672.9 L574.3,674.6 L579.9,675.8 L585.7,676.4 L591.5,676.5 L597.3,676.1 L603.0,675.1 L608.6,673.5 L614.0,671.3 L619.1,668.5" stroke="#1b5274" stroke-width="0.9" opacity="0.44" stroke-linecap="round" stroke-dasharray="174.0" style="--len:174.0;--dur:11.5s;--del:17.07s"/>
<path class="fd" d="M210.1,356.3 L208.3,350.8 L207.1,345.1 L206.8,339.3 L207.4,333.6 L209.2,328.1 L212.4,323.2 L216.9,319.6 L222.4,317.7 L228.2,317.5 L233.8,318.9 L239.1,321.4 L243.9,324.6 L248.5,328.1 L253.0,331.9 L257.3,335.7 L261.6,339.6 L266.0,343.4 L270.5,347.1 L275.0,350.7 L279.7,354.1 L284.5,357.4 L289.4,360.5 L294.4,363.4 L299.5,366.2 L304.7,368.7 L310.0,371.0 L315.4,373.2 L320.9,375.2 L326.4,377.0 L331.9,378.6" stroke="#1b5274" stroke-width="0.9" opacity="0.33" stroke-linecap="round" stroke-dasharray="174.0" style="--len:174.0;--dur:12.0s;--del:17.26s"/>
<path class="fd" d="M561.4,545.6 L562.3,551.3 L562.6,557.1 L562.5,562.9 L562.0,568.7 L561.2,574.4 L560.1,580.1 L558.7,585.8 L557.2,591.4 L555.6,596.9 L554.1,602.5 L552.6,608.1 L551.4,613.8 L550.5,619.5 L550.0,625.3 L550.1,631.1 L550.7,636.9 L552.0,642.5 L554.1,648.0 L556.8,653.1 L560.2,657.8 L564.3,661.9 L568.8,665.5 L573.9,668.4 L579.2,670.6 L584.8,672.2 L590.5,673.0 L596.3,673.2 L602.1,672.7 L607.8,671.5 L613.3,669.6" stroke="#1b5274" stroke-width="0.9" opacity="0.44" stroke-linecap="round" stroke-dasharray="174.0" style="--len:174.0;--dur:12.5s;--del:17.44s"/>
<path class="fd" d="M588.5,187.0 L584.2,190.9 L579.9,194.8 L575.7,198.7 L571.4,202.7 L567.2,206.7 L563.1,210.8 L559.1,214.9 L555.1,219.1 L551.1,223.4 L547.2,227.7 L543.3,231.9 L539.3,236.2 L535.4,240.5 L531.4,244.6 L527.3,248.7 L523.0,252.7 L518.6,256.5 L514.0,260.0 L509.2,263.3 L504.2,266.1 L498.9,268.5 L493.4,270.4 L487.7,271.6 L481.9,271.9 L476.2,271.5 L470.5,270.0 L465.2,267.7 L460.4,264.4 L456.2,260.4 L452.7,255.8" stroke="#1b5274" stroke-width="0.9" opacity="0.37" stroke-linecap="round" stroke-dasharray="174.0" style="--len:174.0;--dur:10.5s;--del:17.63s"/>
<path class="fd" d="M246.8,624.5 L248.5,618.9 L249.5,613.2 L250.1,607.4 L250.3,601.6 L250.2,595.8 L250.1,590.0 L249.9,584.2 L249.7,578.5 L249.6,572.7 L249.8,566.9 L250.1,561.1 L250.7,555.3 L251.7,549.6 L253.0,543.9 L254.7,538.4 L256.8,533.0 L259.4,527.8 L262.4,522.9 L266.0,518.3 L270.1,514.2 L274.7,510.6 L279.7,507.6 L285.0,505.4 L290.6,504.0 L296.4,503.4 L302.2,503.5 L307.9,504.4 L313.5,506.1 L318.8,508.4 L323.9,511.2" stroke="#1b5274" stroke-width="0.9" opacity="0.37" stroke-linecap="round" stroke-dasharray="174.0" style="--len:174.0;--dur:11.0s;--del:17.81s"/>
</g>
<g id="ripples">
<circle cx="325.4" cy="468.4" r="0" fill="none" stroke="rgba(100,80,200,0.45)" stroke-width="1.8" opacity="0">
  <animate attributeName="r" from="0" to="50.0" dur="2.0s" begin="0.00s" fill="freeze"/>
  <animate attributeName="opacity" values="0.55;0" dur="2.0s" begin="0.00s" fill="freeze"/>
</circle>
<circle cx="412.5" cy="257.4" r="0" fill="none" stroke="rgba(100,80,200,0.45)" stroke-width="1.8" opacity="0">
  <animate attributeName="r" from="0" to="47.0" dur="1.9s" begin="3.65s" fill="freeze"/>
  <animate attributeName="opacity" values="0.55;0" dur="1.9s" begin="3.65s" fill="freeze"/>
</circle>
<circle cx="506.6" cy="539.1" r="0" fill="none" stroke="rgba(100,80,200,0.45)" stroke-width="1.8" opacity="0">
  <animate attributeName="r" from="0" to="43.0" dur="1.8s" begin="6.43s" fill="freeze"/>
  <animate attributeName="opacity" values="0.55;0" dur="1.8s" begin="6.43s" fill="freeze"/>
</circle>
<circle cx="200.7" cy="364.7" r="0" fill="none" stroke="rgba(100,80,200,0.45)" stroke-width="1.8" opacity="0">
  <animate attributeName="r" from="0" to="40.0" dur="1.7s" begin="8.46s" fill="freeze"/>
  <animate attributeName="opacity" values="0.55;0" dur="1.7s" begin="8.46s" fill="freeze"/>
</circle>
<circle cx="590.9" cy="278.6" r="0" fill="none" stroke="rgba(100,80,200,0.45)" stroke-width="1.8" opacity="0">
  <animate attributeName="r" from="0" to="37.0" dur="1.6s" begin="10.85s" fill="freeze"/>
  <animate attributeName="opacity" values="0.55;0" dur="1.6s" begin="10.85s" fill="freeze"/>
</circle>
<circle cx="335.6" cy="639.4" r="0" fill="none" stroke="rgba(100,80,200,0.45)" stroke-width="1.8" opacity="0">
  <animate attributeName="r" from="0" to="33.0" dur="1.4s" begin="16.79s" fill="freeze"/>
  <animate attributeName="opacity" values="0.55;0" dur="1.4s" begin="16.79s" fill="freeze"/>
</circle>
<circle cx="276.6" cy="162.4" r="0" fill="none" stroke="rgba(100,80,200,0.45)" stroke-width="1.8" opacity="0">
  <animate attributeName="r" from="0" to="30.0" dur="1.3s" begin="20.53s" fill="freeze"/>
  <animate attributeName="opacity" values="0.55;0" dur="1.3s" begin="20.53s" fill="freeze"/>
</circle>
<circle cx="668.8" cy="498.2" r="0" fill="none" stroke="rgba(100,80,200,0.45)" stroke-width="1.8" opacity="0">
  <animate attributeName="r" from="0" to="27.0" dur="1.2s" begin="22.77s" fill="freeze"/>
  <animate attributeName="opacity" values="0.55;0" dur="1.2s" begin="22.77s" fill="freeze"/>
</circle>
<circle cx="119.4" cy="515.8" r="0" fill="none" stroke="rgba(100,80,200,0.45)" stroke-width="1.8" opacity="0">
  <animate attributeName="r" from="0" to="23.0" dur="1.1s" begin="24.99s" fill="freeze"/>
  <animate attributeName="opacity" values="0.55;0" dur="1.1s" begin="24.99s" fill="freeze"/>
</circle>
<circle cx="535.6" cy="110.2" r="0" fill="none" stroke="rgba(100,80,200,0.45)" stroke-width="1.8" opacity="0">
  <animate attributeName="r" from="0" to="20.0" dur="1.0s" begin="28.50s" fill="freeze"/>
  <animate attributeName="opacity" values="0.55;0" dur="1.0s" begin="28.50s" fill="freeze"/>
</circle>
</g>
<g id="connections" opacity="0.1">
<line x1="325.4" y1="468.4" x2="412.5" y2="257.4" stroke="#55787a" stroke-width="0.5" stroke-dasharray="228" stroke-dashoffset="228">
  <animate attributeName="stroke-dashoffset" from="228" to="0" dur="0.8s" begin="0.00s" fill="freeze"/>
</line>
<line x1="412.5" y1="257.4" x2="506.6" y2="539.1" stroke="#55787a" stroke-width="0.5" stroke-dasharray="297" stroke-dashoffset="297">
  <animate attributeName="stroke-dashoffset" from="297" to="0" dur="0.8s" begin="3.65s" fill="freeze"/>
</line>
<line x1="506.6" y1="539.1" x2="200.7" y2="364.7" stroke="#55787a" stroke-width="0.5" stroke-dasharray="352" stroke-dashoffset="352">
  <animate attributeName="stroke-dashoffset" from="352" to="0" dur="0.8s" begin="6.43s" fill="freeze"/>
</line>
<line x1="200.7" y1="364.7" x2="590.9" y2="278.6" stroke="#55787a" stroke-width="0.5" stroke-dasharray="400" stroke-dashoffset="400">
  <animate attributeName="stroke-dashoffset" from="400" to="0" dur="0.8s" begin="8.46s" fill="freeze"/>
</line>
<line x1="590.9" y1="278.6" x2="335.6" y2="639.4" stroke="#55787a" stroke-width="0.5" stroke-dasharray="442" stroke-dashoffset="442">
  <animate attributeName="stroke-dashoffset" from="442" to="0" dur="0.8s" begin="10.85s" fill="freeze"/>
</line>
<line x1="335.6" y1="639.4" x2="276.6" y2="162.4" stroke="#55787a" stroke-width="0.5" stroke-dasharray="481" stroke-dashoffset="481">
  <animate attributeName="stroke-dashoffset" from="481" to="0" dur="0.8s" begin="16.79s" fill="freeze"/>
</line>
<line x1="276.6" y1="162.4" x2="668.8" y2="498.2" stroke="#55787a" stroke-width="0.5" stroke-dasharray="516" stroke-dashoffset="516">
  <animate attributeName="stroke-dashoffset" from="516" to="0" dur="0.8s" begin="20.53s" fill="freeze"/>
</line>
<line x1="668.8" y1="498.2" x2="119.4" y2="515.8" stroke="#55787a" stroke-width="0.5" stroke-dasharray="550" stroke-dashoffset="550">
  <animate attributeName="stroke-dashoffset" from="550" to="0" dur="0.8s" begin="22.77s" fill="freeze"/>
</line>
<line x1="119.4" y1="515.8" x2="535.6" y2="110.2" stroke="#55787a" stroke-width="0.5" stroke-dasharray="581" stroke-dashoffset="581">
  <animate attributeName="stroke-dashoffset" from="581" to="0" dur="0.8s" begin="24.99s" fill="freeze"/>
</line>
</g>
<g id="spiral">
<circle cx="325.4" cy="468.4" r="5.0" fill="#55787a" opacity="0" style="animation:dotAppear 1.5s ease-out 0.00s both"/>
<circle cx="412.5" cy="257.4" r="5.35" fill="#55787a" opacity="0" style="animation:dotAppear 1.5s ease-out 3.65s both"/>
<circle cx="506.6" cy="539.1" r="5.55" fill="#55787a" opacity="0" style="animation:dotAppear 1.49s ease-out 6.43s both"/>
<circle cx="200.7" cy="364.7" r="5.69" fill="#55787a" opacity="0" style="animation:dotAppear 1.49s ease-out 8.46s both"/>
<circle cx="590.9" cy="278.6" r="5.8" fill="#55787a" opacity="0" style="animation:dotAppear 1.49s ease-out 10.85s both"/>
<circle cx="335.6" cy="639.4" r="5.9" fill="#55787a" opacity="0" style="animation:dotAppear 1.49s ease-out 16.79s both"/>
</g>
<g id="spiralGlow" filter="url(#spiralGlow)">
<circle cx="276.6" cy="162.4" r="5.97" fill="#55787a" opacity="0" style="animation:dotAppear 1.48s ease-out 20.53s both"/>
<circle cx="668.8" cy="498.2" r="6.04" fill="#55787a" opacity="0" style="animation:dotAppear 1.48s ease-out 22.77s both"/>
<circle cx="119.4" cy="515.8" r="6.1" fill="#55787a" opacity="0" style="animation:dotAppear 1.48s ease-out 24.99s both"/>
<circle cx="535.6" cy="110.2" r="6.15" fill="#55787a" opacity="0" style="animation:dotAppear 1.47s ease-out 28.50s both"/>
</g>
<circle cx="325.4" cy="468.4" r="6.0" fill="#55787a" opacity="0" style="animation:dotAppear 1.5s ease-out 0.00s both, pulse 2.5s cubic-bezier(0.22,0.61,0.36,1) 1.5s infinite"/>
<path d="M50,770 A350,350 0 0 1 750,770" fill="none" stroke="rgba(0,0,0,0.06)" stroke-width="3"/>
<path d="M50,770 A350,350 0 0 1 750,770" fill="none" stroke="#6c5ce7" stroke-width="3" stroke-dasharray="1099.6" stroke-dashoffset="1099.6" opacity="0.7">
  <animate attributeName="stroke-dashoffset" from="1099.6" to="0" dur="30.0s" fill="freeze"/>
</path>
<circle cx="50.0" cy="770.0" r="2" fill="#6c5ce7" opacity="0.5"/>
<text x="50.0" y="782.0" text-anchor="middle" font-size="7" font-family="monospace" fill="rgba(0,0,0,0.3)">2022</text>
</svg>
