<?xml version="1.0" encoding="utf-8" ?>
<svg baseProfile="full" height="800px" version="1.1" width="800px" xmlns="http://www.w3.org/2000/svg" xmlns:ev="http://www.w3.org/2001/xml-events" xmlns:xlink="http://www.w3.org/1999/xlink"><defs><filter id="phyllotaxisGlow"><feGaussianBlur in="SourceGraphic" result="blur" stdDeviation="2" /><feComposite in="SourceGraphic" in2="blur" operator="over" /></filter></defs><rect fill="#0d1117" height="800" width="800" x="0" y="0" /><g id="flowFieldGroup" opacity="0.25"><path d="M409.5,146.6 L405.8,143.8 L402.4,140.7 L399.4,137.2 L396.9,133.4 L394.9,129.3 L393.3,124.9 L392.3,120.4 L391.8,115.9 L391.6,111.3 L392.0,106.7 L392.7,102.1 L393.7,97.7 L395.1,93.3 L396.8,89.0 L398.8,84.9 L401.2,80.9 L403.8,77.1 L406.6,73.5 L409.7,70.1 L413.0,66.8 L416.4,63.7 L419.9,60.7 L423.4,57.8 L427.0,54.9 L430.5,52.0 L434.0,49.0 L437.4,45.9 L440.6,42.5 L443.5,39.0 L446.3,35.3" fill="none" opacity="0.4" stroke="rgb(76,91,178)" stroke-width="0.8" /><path d="M763.4,435.0 L766.0,431.1 L767.9,427.0 L769.2,422.6 L769.8,418.0 L769.8,413.4 L769.3,408.8 L768.4,404.3 L767.1,399.9 L765.6,395.6 L764.0,391.3 L762.3,387.0 L760.6,382.7 L759.0,378.4 L757.5,374.0 L756.2,369.6 L755.1,365.2 L754.2,360.7 L753.5,356.1 L753.0,351.5 L752.7,347.0 L752.7,342.4 L752.8,337.8 L753.0,333.2 L753.5,328.6 L754.1,324.0 L754.8,319.5 L755.7,315.0 L756.6,310.5 L757.7,306.0 L758.9,301.5" fill="none" opacity="0.4" stroke="rgb(76,91,178)" stroke-width="0.8" /><path d="M231.3,264.6 L234.7,261.5 L238.5,258.9 L242.7,256.9 L247.0,255.4 L251.4,254.1 L255.8,252.9 L260.3,251.7 L264.7,250.5 L269.1,249.1 L273.4,247.5 L277.7,245.7 L281.8,243.7 L285.8,241.4 L289.7,239.0 L293.6,236.5 L297.3,233.8 L301.0,231.1 L304.7,228.3 L308.3,225.5 L312.0,222.7 L315.6,219.9 L319.3,217.1 L323.0,214.4 L326.7,211.7 L330.4,209.0 L334.2,206.3 L337.9,203.6 L341.6,200.9 L345.2,198.0 L348.8,195.1" fill="none" opacity="0.4" stroke="rgb(76,91,178)" stroke-width="0.8" /><path d="M74.7,531.7 L79.2,531.1 L83.6,529.8 L87.7,527.7 L91.4,525.0 L94.7,521.8 L97.6,518.2 L100.0,514.3 L102.1,510.2 L103.9,505.9 L105.5,501.6 L107.0,497.3 L108.4,492.9 L109.7,488.5 L111.1,484.1 L112.5,479.7 L113.9,475.3 L115.5,471.0 L117.1,466.7 L118.9,462.5 L120.9,458.3 L123.0,454.2 L125.3,450.2 L127.8,446.4 L130.5,442.6 L133.3,439.0 L136.3,435.6 L139.5,432.2 L142.8,429.0 L146.2,425.9 L149.6,422.8" fill="none" opacity="0.4" stroke="rgb(76,91,178)" stroke-width="0.8" /><path d="M404.0,395.7 L400.6,398.8 L397.3,402.0 L394.1,405.4 L391.1,408.8 L388.2,412.4 L385.3,416.0 L382.7,419.8 L380.2,423.6 L377.9,427.6 L375.8,431.7 L374.1,436.0 L372.6,440.3 L371.5,444.8 L370.7,449.3 L370.2,453.9 L370.1,458.5 L370.2,463.1 L370.5,467.7 L371.0,472.3 L371.5,476.8 L372.2,481.4 L372.9,486.0 L373.6,490.5 L374.3,495.0 L375.1,499.6 L375.9,504.1 L376.7,508.6 L377.6,513.1 L378.5,517.6 L379.5,522.1" fill="none" opacity="0.4" stroke="rgb(76,91,178)" stroke-width="0.8" /><path d="M128.3,83.7 L132.6,85.5 L136.6,87.6 L140.5,90.1 L144.3,92.7 L147.9,95.5 L151.5,98.4 L155.1,101.3 L158.8,104.1 L162.5,106.8 L166.4,109.3 L170.3,111.6 L174.5,113.6 L178.7,115.3 L183.1,116.7 L187.6,117.8 L192.1,118.5 L196.7,118.9 L201.3,119.0 L205.9,118.9 L210.5,118.6 L215.1,118.1 L219.6,117.6 L224.2,117.0 L228.8,116.5 L233.4,116.1 L238.0,115.9 L242.6,115.9 L247.2,116.2 L251.7,116.7 L256.2,117.7" fill="none" opacity="0.4" stroke="rgb(76,91,178)" stroke-width="0.8" /><path d="M724.3,412.9 L728.8,412.6 L733.2,411.2 L737.3,409.1 L740.9,406.2 L743.8,402.7 L746.2,398.7 L747.9,394.4 L749.1,390.0 L749.9,385.5 L750.4,380.9 L750.6,376.3 L750.7,371.7 L750.7,367.1 L750.7,362.5 L750.7,357.9 L750.8,353.3 L751.0,348.7 L751.2,344.1 L751.5,339.5 L752.0,335.0 L752.6,330.4 L753.2,325.8 L754.0,321.3 L754.9,316.8 L755.9,312.3 L757.0,307.8 L758.2,303.4 L759.4,299.0 L760.7,294.5 L762.0,290.1" fill="none" opacity="0.4" stroke="rgb(76,91,178)" stroke-width="0.8" /><path d="M576.4,317.3 L573.1,314.0 L570.1,310.6 L567.1,307.1 L564.1,303.6 L561.1,300.1 L558.0,296.7 L554.7,293.5 L551.1,290.6 L547.3,288.0 L543.2,286.0 L538.8,284.6 L534.2,284.0 L529.6,284.2 L525.1,285.0 L520.7,286.5 L516.6,288.4 L512.5,290.7 L508.7,293.1 L504.8,295.7 L501.0,298.3 L497.2,300.8 L493.3,303.3 L489.3,305.6 L485.3,307.8 L481.1,309.8 L476.9,311.6 L472.6,313.2 L468.3,314.7 L463.9,316.1 L459.5,317.3" fill="none" opacity="0.4" stroke="rgb(76,91,178)" stroke-width="0.8" /><path d="M702.3,615.5 L706.3,617.6 L710.6,619.4 L714.9,620.8 L719.5,621.8 L724.0,622.1 L728.6,621.9 L733.2,621.1 L737.5,619.7 L741.8,617.9 L745.8,615.7 L749.8,613.3 L753.6,610.8 L757.4,608.2 L761.2,605.6 L765.0,603.0 L768.8,600.5 L772.8,598.1 L776.8,595.9 L780.9,593.8 L785.1,591.9 L789.3,590.1 L793.6,588.3 L797.8,586.6" fill="none" opacity="0.4" stroke="rgb(76,91,178)" stroke-width="0.8" /><path d="M761.7,791.8 L765.3,794.5 L768.9,797.4" fill="none" opacity="0.4" stroke="rgb(76,91,178)" stroke-width="0.8" /><path d="M218.0,659.1 L217.6,663.6 L216.8,668.2 L215.5,672.6 L213.8,676.9 L211.7,681.0 L209.2,684.8 L206.3,688.4 L203.1,691.7 L199.7,694.7 L196.0,697.5 L192.2,700.1 L188.3,702.6 L184.4,705.0 L180.5,707.4 L176.5,709.7 L172.6,712.2 L168.8,714.8 L165.1,717.5 L161.6,720.4 L158.2,723.6 L155.1,726.9 L152.2,730.5 L149.6,734.3 L147.2,738.2 L145.2,742.4 L143.3,746.6 L141.7,750.9 L140.3,755.2 L138.9,759.6 L137.6,764.1" fill="none" opacity="0.4" stroke="rgb(76,91,178)" stroke-width="0.8" /><path d="M321.1,601.6 L317.0,599.4 L312.7,597.9 L308.2,597.0 L303.6,596.9 L299.0,597.5 L294.6,598.7 L290.3,600.4 L286.3,602.6 L282.5,605.2 L278.9,608.1 L275.6,611.3 L272.6,614.8 L269.8,618.4 L267.2,622.2 L264.8,626.2 L262.7,630.2 L260.6,634.4 L258.7,638.5 L256.9,642.8 L255.1,647.0 L253.2,651.2 L251.4,655.4 L249.5,659.6 L247.4,663.7 L245.3,667.8 L242.9,671.8 L240.4,675.6 L237.7,679.3 L234.8,682.9 L231.7,686.3" fill="none" opacity="0.4" stroke="rgb(76,91,178)" stroke-width="0.8" /><path d="M330.1,522.2 L326.6,519.2 L322.7,516.9 L318.3,515.3 L313.8,514.6 L309.2,514.7 L304.7,515.6 L300.4,517.3 L296.4,519.5 L292.7,522.2 L289.2,525.3 L286.0,528.6 L283.0,532.1 L280.2,535.7 L277.6,539.5 L275.1,543.4 L272.7,547.3 L270.4,551.3 L268.3,555.3 L266.2,559.5 L264.3,563.6 L262.5,567.9 L260.8,572.1 L259.3,576.5 L258.0,580.9 L256.8,585.4 L255.9,589.9 L255.0,594.4 L254.4,598.9 L253.8,603.5 L253.4,608.1" fill="none" opacity="0.4" stroke="rgb(76,91,178)" stroke-width="0.8" /><path d="M112.4,128.6 L114.3,124.4 L117.0,120.7 L120.6,117.8 L124.8,115.8 L129.2,114.8 L133.8,114.7 L138.4,115.2 L142.9,116.1 L147.3,117.4 L151.7,118.9 L156.0,120.4 L160.4,121.9 L164.8,123.2 L169.2,124.5 L173.7,125.5 L178.2,126.3 L182.8,126.8 L187.4,127.1 L192.0,127.1 L196.6,126.9 L201.2,126.5 L205.7,125.9 L210.3,125.2 L214.8,124.4 L219.3,123.6 L223.9,122.8 L228.4,122.0 L233.0,121.4 L237.5,121.0 L242.1,120.9" fill="none" opacity="0.4" stroke="rgb(76,91,178)" stroke-width="0.8" /><path d="M439.1,23.8 L443.0,21.3 L446.4,18.2 L449.3,14.6 L451.6,10.7 L453.5,6.5 L454.9,2.1" fill="none" opacity="0.4" stroke="rgb(76,91,178)" stroke-width="0.8" /><path d="M687.9,221.7 L690.9,225.2 L694.2,228.4 L697.9,231.2 L701.8,233.5 L705.9,235.5 L710.3,237.0 L714.7,238.1 L719.3,238.8 L723.9,239.1 L728.5,239.0 L733.1,238.4 L737.6,237.4 L741.9,236.0 L746.1,234.2 L750.1,231.9 L753.8,229.2 L757.2,226.1 L760.2,222.6 L762.9,218.8 L765.1,214.8 L766.9,210.6 L768.4,206.2 L769.6,201.8 L770.6,197.3 L771.3,192.7 L771.9,188.2 L772.3,183.6 L772.7,179.0 L773.0,174.4 L773.2,169.8" fill="none" opacity="0.4" stroke="rgb(76,91,178)" stroke-width="0.8" /><path d="M744.6,180.0 L747.9,176.8 L750.8,173.2 L753.4,169.4 L755.6,165.3 L757.5,161.2 L759.2,156.9 L760.8,152.6 L762.3,148.2 L763.8,143.9 L765.4,139.6 L767.0,135.3 L768.9,131.1 L770.9,126.9 L773.2,122.9 L775.8,119.1 L778.7,115.6 L782.0,112.4 L785.6,109.5 L789.5,107.1 L793.7,105.1 L798.0,103.6" fill="none" opacity="0.4" stroke="rgb(76,91,178)" stroke-width="0.8" /><path d="M278.8,601.3 L275.8,604.7 L272.9,608.3 L270.3,612.1 L267.9,616.0 L265.6,620.0 L263.6,624.1 L261.6,628.3 L259.8,632.5 L258.1,636.8 L256.4,641.1 L254.7,645.4 L253.1,649.7 L251.3,653.9 L249.5,658.1 L247.6,662.3 L245.5,666.4 L243.3,670.5 L240.9,674.4 L238.3,678.2 L235.4,681.8 L232.4,685.2 L229.1,688.5 L225.6,691.5 L222.0,694.3 L218.2,696.8 L214.2,699.2 L210.2,701.4 L206.1,703.4 L201.9,705.4 L197.7,707.2" fill="none" opacity="0.4" stroke="rgb(76,91,178)" stroke-width="0.8" /><path d="M359.2,525.6 L363.5,524.0 L368.1,524.2 L372.3,526.0 L375.9,529.0 L378.7,532.6 L381.0,536.6 L383.1,540.6 L385.1,544.8 L387.1,549.0 L389.1,553.1 L391.2,557.2 L393.5,561.2 L395.9,565.1 L398.5,568.9 L401.2,572.6 L404.2,576.1 L407.3,579.5 L410.6,582.7 L414.0,585.8 L417.5,588.8 L421.1,591.6 L424.8,594.4 L428.5,597.2 L432.2,599.9 L435.9,602.6 L439.6,605.3 L443.3,608.0 L447.0,610.8 L450.6,613.7 L454.1,616.6" fill="none" opacity="0.4" stroke="rgb(76,91,178)" stroke-width="0.8" /></g><g id="phyllotaxisGroup"><circle cx="380.65343818817746" cy="417.722888871845" fill="rgb(228,107,103)" opacity="0.85" r="3.0" /><circle cx="403.24423531692076" cy="363.0371074587862" fill="rgb(103,228,143)" opacity="0.85" r="3.5545177444479563" /><circle cx="427.64954105870964" cy="436.06485284802983" fill="rgb(180,103,228)" opacity="0.85" r="3.8788898309344875" /><circle cx="348.32791701329876" cy="390.8590582856459" fill="rgb(228,216,103)" opacity="0.85" r="4.109035488895913" /><circle cx="449.5022062105221" cy="368.512180135755" fill="rgb(103,203,228)" opacity="0.85" r="4.287550329947281" /><circle cx="383.3142864121466" cy="462.06390597987496" fill="rgb(228,103,166)" opacity="0.85" r="4.433407575382444" /><circle cx="368.00695368786074" cy="338.3949945622404" fill="rgb(130,228,103)" opacity="0.85" r="4.556728119244251" /><circle cx="469.706181090204" cy="425.4591883028349" fill="rgb(112,103,228)" opacity="0.85" r="4.663553233343869" /><circle cx="327.2421914576918" cy="430.03020964367005" fill="rgb(228,149,103)" opacity="0.85" r="4.757779661868976" /><circle cx="435.1692942812832" cy="324.85332223723464" fill="rgb(103,228,185)" opacity="0.85" r="4.842068074395237" /><circle cx="426.03959784921835" cy="483.031512251541" fill="rgb(222,103,228)" opacity="0.85" r="4.918316218238696" /><circle cx="321.36467686158704" cy="354.4240317519568" fill="rgb(197,228,103)" opacity="0.85" r="4.9879253198304" /><circle cx="492.3941672566455" cy="379.69258687861196" fill="rgb(103,161,228)" opacity="0.85" r="5.051959485969229" /><circle cx="343.53457846444894" cy="480.30641061239555" fill="rgb(228,103,124)" opacity="0.85" r="5.111245863692208" /><circle cx="386.9474560273764" cy="299.22557489928647" fill="rgb(103,228,118)" opacity="0.85" r="5.166440160881768" /><circle cx="480.24451346730814" cy="467.6392043184574" fill="rgb(154,103,228)" opacity="0.85" r="5.218070977791825" /><circle cx="291.91335220535416" cy="404.46214240669644" fill="rgb(228,191,103)" opacity="0.85" r="5.266570675244973" /><circle cx="478.9091509581611" cy="321.48649615953923" fill="rgb(103,228,227)" opacity="0.85" r="5.312297406316931" /><circle cx="394.7083640585765" cy="514.2427819304562" fill="rgb(228,103,192)" opacity="0.85" r="5.355551183333152" /><circle cx="324.8289863227205" cy="309.90491921986506" fill="rgb(156,228,103)" opacity="0.85" r="5.396585818843192" /><circle cx="519.1587718827371" cy="416.043135770448" fill="rgb(103,119,228)" opacity="0.85" r="5.435617950178738" /><circle cx="298.9760650191229" cy="470.27624013016907" fill="rgb(228,123,103)" opacity="0.85" r="5.472833962686654" /><circle cx="427.62878203017397" cy="277.2415949383293" fill="rgb(103,228,159)" opacity="0.85" r="5.50839537274332" /><circle cx="463.89435245813985" cy="511.52971611912915" fill="rgb(196,103,228)" opacity="0.85" r="5.542443064278357" /><circle cx="275.0241890396547" cy="360.1151310348773" fill="rgb(223,228,103)" opacity="0.85" r="5.575100659894561" /><circle cx="521.453894490534" cy="343.90099952275756" fill="rgb(103,187,228)" opacity="0.85" r="5.606477230417186" /><circle cx="347.3533641761081" cy="525.757180000954" fill="rgb(228,103,150)" opacity="0.85" r="5.636669492803463" /><circle cx="353.02632269324897" cy="269.3539113882489" fill="rgb(114,228,103)" opacity="0.85" r="5.665763608140163" /><circle cx="525.0619834735098" cy="465.74813581267756" fill="rgb(128,103,228)" opacity="0.85" r="5.693836663989179" /><circle cx="261.0350988008486" cy="436.612341522815" fill="rgb(228,165,103)" opacity="0.85" r="5.720957905329724" /><circle cx="479.0226159020554" cy="277.13615773152856" fill="rgb(103,228,201)" opacity="0.85" r="5.747189763588118" /><circle cx="425.1195303118727" cy="546.2788330613455" fill="rgb(228,103,218)" opacity="0.85" r="5.772588722239782" /><circle cx="280.84887445350415" cy="307.6967642507389" fill="rgb(181,228,103)" opacity="0.85" r="5.797206049173184" /><circle cx="552.4672213314872" cy="387.38989642634834" fill="rgb(103,145,228)" opacity="0.85" r="5.821088419692929" /><circle cx="294.57598483039527" cy="513.9273257919465" fill="rgb(228,103,108)" opacity="0.85" r="5.844278449191531" /><circle cx="400.79129173627854" cy="242.57883675351684" fill="rgb(103,228,134)" opacity="0.85" r="5.866815150764888" /><circle cx="507.21123803418027" cy="518.2209349631806" fill="rgb(170,103,228)" opacity="0.85" r="5.88873433011538" /><circle cx="238.9556037569362" cy="385.04902320917654" fill="rgb(228,206,103)" opacity="0.85" r="5.910068927781109" /><circle cx="530.5331371848831" cy="300.9630391779533" fill="rgb(103,213,228)" opacity="0.85" r="5.930849316903718" /><circle cx="370.27282746551924" cy="563.2541116456268" fill="rgb(228,103,176)" opacity="0.85" r="5.951103563291149" /><circle cx="310.54626900997647" cy="257.79581577195245" fill="rgb(140,228,103)" opacity="0.85" r="5.9708576533634465" /><circle cx="563.9816838809039" cy="444.97107509817533" fill="rgb(103,103,228)" opacity="0.85" r="5.990135694626694" /><circle cx="246.91665531342863" cy="478.52560134998816" fill="rgb(228,139,103)" opacity="0.85" r="6.00896009255485" /><circle cx="460.52804869324183" cy="236.8266993252393" fill="rgb(103,228,175)" opacity="0.85" r="6.027351707134609" /><circle cx="466.3309690798246" cy="563.0268797362604" fill="rgb(212,103,228)" opacity="0.85" r="6.045329991816256" /><circle cx="239.2095175119357" cy="323.76108630910534" fill="rgb(207,228,103)" opacity="0.85" r="6.062913117191276" /><circle cx="571.8993078242733" cy="347.03803786725456" fill="rgb(103,171,228)" opacity="0.85" r="6.080118081368047" /><circle cx="308.05868987022336" cy="556.8104817891243" fill="rgb(228,103,134)" opacity="0.85" r="6.096960808726313" /><circle cx="361.4763089086897" cy="220.42537156958724" fill="rgb(103,228,108)" opacity="0.85" r="6.113456238488501" /><circle cx="551.2265547995949" cy="507.4711185322228" fill="rgb(144,103,228)" opacity="0.85" r="6.1296184043425175" /><circle cx="214.06251203200205" cy="423.1333743145052" fill="rgb(228,181,103)" opacity="0.85" r="6.145460506179461" /><circle cx="522.6639209986829" cy="255.95189981066844" fill="rgb(103,228,217)" opacity="0.85" r="6.160994974865142" /><circle cx="406.91934483441617" cy="590.8842727777533" fill="rgb(228,103,202)" opacity="0.85" r="6.176233530841698" /><circle cx="264.69933910364466" cy="262.64351368886446" fill="rgb(165,228,103)" opacity="0.85" r="6.19118723725142" /><circle cx="594.3241157960701" cy="409.9800518390267" fill="rgb(103,129,228)" opacity="0.85" r="6.205866548185977" /><circle cx="248.61173664657542" cy="525.0257868496365" fill="rgb(228,113,103)" opacity="0.85" r="6.22028135258812" /><circle cx="427.41765911210695" cy="203.82019504737158" fill="rgb(103,228,150)" opacity="0.85" r="6.23444101426764" /><circle cx="513.2807578982987" cy="564.6028676430897" fill="rgb(186,103,228)" opacity="0.85" r="6.248354408437136" /><circle cx="203.6114172619213" cy="354.76120071915335" fill="rgb(228,222,103)" opacity="0.85" r="6.262029955124576" /><circle cx="576.8495462280292" cy="299.86183228615323" fill="rgb(103,197,228)" opacity="0.85" r="6.275475649777681" /><circle cx="336.717359223182" cy="594.9028277228449" fill="rgb(228,103,160)" opacity="0.85" r="6.28869909133865" /><circle cx="314.3146291618745" cy="212.01539332625094" fill="rgb(124,228,103)" opacity="0.85" r="6.301707508036074" /><circle cx="591.6906101294433" cy="481.38363075001917" fill="rgb(118,103,228)" opacity="0.85" r="6.314507781113226" /><circle cx="202.12720361950207" cy="470.02379640035315" fill="rgb(228,155,103)" opacity="0.85" r="6.327106466687738" /><circle cx="499.372980501507" cy="213.26388512152866" fill="rgb(103,228,191)" opacity="0.85" r="6.339509815916509" /><circle cx="453.2681333196296" cy="606.3886190423376" fill="rgb(228,103,228)" opacity="0.85" r="6.35172379362114" /><circle cx="219.9600731493582" cy="282.9198091858449" fill="rgb(191,228,103)" opacity="0.85" r="6.363754095512773" /><circle cx="613.4175757028931" cy="364.4546069586261" fill="rgb(103,155,228)" opacity="0.85" r="6.375606164140885" /><circle cx="265.66539613685933" cy="571.6191744363123" fill="rgb(228,103,118)" opacity="0.85" r="6.387285203677807" /><circle cx="383.00614297864956" cy="181.14268141844414" fill="rgb(103,228,124)" opacity="0.85" r="6.3987961936394875" /><circle cx="561.5075287790004" cy="550.966968124731" fill="rgb(160,103,228)" opacity="0.85" r="6.410143901633052" /><circle cx="177.38129335870894" cy="397.7619172637287" fill="rgb(228,197,103)" opacity="0.85" r="6.421332895212844" /><circle cx="566.8110025482517" cy="250.24494254374852" fill="rgb(103,222,228)" opacity="0.85" r="6.432367552918713" /><circle cx="378.0068192336862" cy="624.626752744549" fill="rgb(228,103,186)" opacity="0.85" r="6.443252074563336" /><circle cx="263.5720673254366" cy="218.29505378546312" fill="rgb(149,228,103)" opacity="0.85" r="6.453990490829048" /><circle cx="624.821453194417" cy="442.10668260663545" fill="rgb(103,113,228)" opacity="0.85" r="6.464586672229065" /><circle cx="204.50692022274603" cy="521.6079953773271" fill="rgb(228,129,103)" opacity="0.85" r="6.475044337482947" /><circle cx="462.4077455529718" cy="176.84150852054546" fill="rgb(103,228,165)" opacity="0.85" r="6.485367061351674" /><circle cx="505.3921779681416" cy="608.0272051714012" fill="rgb(202,103,228)" opacity="0.85" r="6.495558281973617" /><circle cx="180.3901908732316" cy="317.2790761203703" fill="rgb(217,228,103)" opacity="0.85" r="6.505621307739105" /><circle cx="619.1680703754703" cy="312.108210372126" fill="rgb(103,181,228)" opacity="0.85" r="6.515559323737952" /><circle cx="297.1322939353947" cy="614.1640377117642" fill="rgb(228,103,144)" opacity="0.85" r="6.525375397811403" /><circle cx="330.7683305570285" cy="171.21327357112352" fill="rgb(108,228,103)" opacity="0.85" r="6.535072486237279" /><circle cx="606.8267872665248" cy="522.6680910294627" fill="rgb(134,103,228)" opacity="0.85" r="6.544653439074651" /><circle cx="163.2341955690353" cy="449.54921375627976" fill="rgb(228,171,103)" opacity="0.85" r="6.554121005192254" /><circle cx="541.9421899878287" cy="202.37921243687725" fill="rgb(103,228,207)" opacity="0.85" r="6.5634778370028055" /><circle cx="428.9932852902835" cy="643.0007008788008" fill="rgb(228,103,212)" opacity="0.85" r="6.572726494923668" /><circle cx="213.41411998589433" cy="239.48815980502744" fill="rgb(175,228,103)" opacity="0.85" r="6.581869451582566" /><circle cx="647.4006604329228" cy="392.2769873319593" fill="rgb(103,139,228)" opacity="0.85" r="6.590909095785712" /><circle cx="221.79778329232576" cy="573.7788592196721" fill="rgb(228,103,103)" opacity="0.85" r="6.599847736264213" /><circle cx="414.09351004021255" cy="150.11025397214001" fill="rgb(103,228,140)" opacity="0.85" r="6.60868760521348" /><circle cx="559.2731644897939" cy="594.8434281992376" fill="rgb(176,103,228)" opacity="0.85" r="6.6174308616392326" /><circle cx="149.59231283930353" cy="363.719386805656" fill="rgb(228,213,103)" opacity="0.85" r="6.626079594522605" /><circle cx="610.2720829304317" cy="256.8415770311542" fill="rgb(103,206,228)" opacity="0.85" r="6.634635825816003" /><circle cx="341.34348049963074" cy="648.9105981890576" fill="rgb(228,103,170)" opacity="0.85" r="6.643101513280433" /><circle cx="274.4601527199476" cy="175.66718884760695" fill="rgb(133,228,103)" opacity="0.85" r="6.651478553174269" /><circle cx="645.3715595415492" cy="481.03487784086894" fill="rgb(109,103,228)" opacity="0.85" r="6.659768782802706" /><circle cx="163.1202694884992" cy="506.5374918760423" fill="rgb(228,145,103)" opacity="0.85" r="6.6679739829364575" /></g><g filter="url(#phyllotaxisGlow)" id="phyllotaxisGlowGroup"><circle cx="503.2263502569261" cy="160.2189441198995" fill="rgb(103,228,181)" opacity="0.85" r="6.676095880107672" /><circle cx="486.2853735198398" cy="647.777841436206" fill="rgb(218,103,228)" opacity="0.85" r="6.684136148790474" /><circle cx="167.85273355445776" cy="274.959761212605" fill="rgb(201,228,103)" opacity="0.85" r="6.692096413473008" /><circle cx="656.9043400087128" cy="335.0695374824997" fill="rgb(103,165,228)" opacity="0.85" r="6.699978250627417" /><circle cx="253.71386154907304" cy="622.4962040554118" fill="rgb(228,103,128)" opacity="0.85" r="6.707783190583709" /><circle cx="357.36844753141327" cy="135.85016354354525" fill="rgb(103,228,114)" opacity="0.85" r="6.715512719313098" /><circle cx="610.871700495956" cy="566.7756023514827" fill="rgb(150,103,228)" opacity="0.85" r="6.723168280126019" /><circle cx="130.58053186595782" cy="419.55801738490777" fill="rgb(228,187,103)" opacity="0.85" r="6.730751275289654" /><circle cx="586.3238047009638" cy="202.6647626516792" fill="rgb(103,228,223)" opacity="0.85" r="6.738263067569525" /><circle cx="395.8884660413432" cy="672.633896700264" fill="rgb(228,103,196)" opacity="0.85" r="6.745704981699376" /><circle cx="218.0343773991517" cy="195.2488125141846" fill="rgb(159,228,103)" opacity="0.85" r="6.7530783057833155" /><circle cx="673.730180119865" cy="428.1906956426149" fill="rgb(103,123,228)" opacity="0.85" r="6.760384292633933" /><circle cx="178.11492344184424" cy="564.8585147147458" fill="rgb(228,119,103)" opacity="0.85" r="6.767624161049867" /><circle cx="452.4867825451315" cy="127.33748887107117" fill="rgb(103,228,156)" opacity="0.85" r="6.774799097036075" /><circle cx="546.1257971175287" cy="637.561253106946" fill="rgb(192,103,228)" opacity="0.85" r="6.781910254969873" /><circle cx="130.5971851126061" cy="323.1975837904391" fill="rgb(227,228,103)" opacity="0.85" r="6.788958758715596" /><circle cx="651.625466759099" cy="274.10519261285623" fill="rgb(103,190,228)" opacity="0.85" r="6.7959457026906005" /><circle cx="299.06283441238105" cy="663.9411996938343" fill="rgb(228,103,154)" opacity="0.85" r="6.802872152885092" /><circle cx="295.6925733515766" cy="136.06512302734768" fill="rgb(118,228,103)" opacity="0.85" r="6.809739147838205" /><circle cx="656.2862558466411" cy="524.6892290640928" fill="rgb(125,103,228)" opacity="0.85" r="6.816547699572532" /><circle cx="125.64059008880389" cy="481.5190359214982" fill="rgb(228,161,103)" opacity="0.85" r="6.823298794489224" /><circle cx="547.8571437367709" cy="153.53480100773552" fill="rgb(103,228,197)" opacity="0.85" r="6.829993394225637" /><circle cx="457.6973473297765" cy="682.7830186261231" fill="rgb(228,103,222)" opacity="0.85" r="6.836632436477393" /><circle cx="165.47614440514857" cy="229.75849239088942" fill="rgb(185,228,103)" opacity="0.85" r="6.843216835786606" /><circle cx="689.1048351169693" cy="366.97888081863357" fill="rgb(103,149,228)" opacity="0.85" r="6.849747484297934" /><circle cx="208.35329984390992" cy="620.5264894818401" fill="rgb(228,103,112)" opacity="0.85" r="6.85622525248403" /><circle cx="392.3212350254075" cy="106.75979631662057" fill="rgb(103,228,130)" opacity="0.85" r="6.862650989841841" /><circle cx="604.5554697555679" cy="611.8825866483282" fill="rgb(166,103,228)" opacity="0.85" r="6.869025525561183" /><circle cx="104.87841408094249" cy="381.86686733545184" fill="rgb(228,203,103)" opacity="0.85" r="6.875349669166873" /><circle cx="630.7661916658719" cy="213.2892182986149" fill="rgb(103,216,228)" opacity="0.85" r="6.881624211135694" /><circle cx="355.78860876459106" cy="694.6993287207222" fill="rgb(228,103,180)" opacity="0.85" r="6.8878499234893376" /><circle cx="232.89061634418397" cy="151.8766725970926" fill="rgb(143,228,103)" opacity="0.85" r="6.894027560364465" /><circle cx="691.9422877854763" cy="470.3478681539224" fill="rgb(103,107,228)" opacity="0.85" r="6.900157858560921" /><circle cx="136.20983734460629" cy="545.8844141139241" fill="rgb(228,135,103)" opacity="0.85" r="6.9062415380690965" /><circle cx="496.33115775758654" cy="113.16169976081056" fill="rgb(103,228,172)" opacity="0.85" r="6.912279302577403" /><circle cx="523.1842546414421" cy="677.6147187945178" fill="rgb(208,103,228)" opacity="0.85" r="6.918271839960729" /><circle cx="120.60549873282474" cy="278.05166836526354" fill="rgb(211,228,103)" opacity="0.85" r="6.924219822750744" /><circle cx="689.4582795565098" cy="300.8285445961533" fill="rgb(103,174,228)" opacity="0.85" r="6.9301239085888415" /><circle cx="253.01329206195385" cy="669.6374808964244" fill="rgb(228,103,138)" opacity="0.85" r="6.9359847406625" /><circle cx="325.9784686790968" cy="100.80329788006497" fill="rgb(103,228,104)" opacity="0.85" r="6.941802948125764" /><circle cx="657.6132783956881" cy="571.2356350082094" fill="rgb(140,103,228)" opacity="0.85" r="6.9475791465045535" /><circle cx="93.27838230954882" cy="447.92163799051684" fill="rgb(228,177,103)" opacity="0.85" r="6.953313938087444" /><circle cx="594.4882744210432" cy="156.61278689510235" fill="rgb(103,228,213)" opacity="0.85" r="6.9590079123025355" /><circle cx="421.0691375916495" cy="711.941510663923" fill="rgb(228,103,206)" opacity="0.85" r="6.964661646081009" /><circle cx="172.95644813228614" cy="183.45663151843806" fill="rgb(169,228,103)" opacity="0.85" r="6.970275704207926" /><circle cx="714.7826663859016" cy="406.329934038628" fill="rgb(103,133,228)" opacity="0.85" r="6.9758506396608" /><circle cx="162.79302277677306" cy="608.6850146092746" fill="rgb(228,109,103)" opacity="0.85" r="6.981386993936459" /><circle cx="434.0624870606922" cy="84.81002143945585" fill="rgb(103,228,146)" opacity="0.85" r="6.986885297366669" /><circle cx="588.4321209636928" cy="656.2941701303071" fill="rgb(182,103,228)" opacity="0.85" r="6.9923460694229895" /><circle cx="86.87239152255148" cy="338.089928874579" fill="rgb(228,219,103)" opacity="0.85" r="6.9977698190112925" /><circle cx="673.6306580842329" cy="233.5776177978064" fill="rgb(103,200,228)" opacity="0.85" r="7.003157044756367" /><circle cx="310.34937088934686" cy="708.5794894114481" fill="rgb(228,103,164)" opacity="0.85" r="7.008508235277005" /><circle cx="257.19065596973934" cy="110.94564855910755" fill="rgb(127,228,103)" opacity="0.85" r="7.013823869451939" /><circle cx="701.5496707987752" cy="517.060296917106" fill="rgb(115,103,228)" opacity="0.85" r="7.019104416677021" /><circle cx="97.5831693294997" cy="517.7614871011872" fill="rgb(228,151,103)" opacity="0.85" r="7.024350337113948" /><circle cx="543.9152346650876" cy="107.9375019070946" fill="rgb(103,228,188)" opacity="0.85" r="7.029562081930904" /><circle cx="491.46099332226214" cy="713.5847166323372" fill="rgb(224,103,228)" opacity="0.85" r="7.034740093535397" /><circle cx="119.83737445530096" cy="230.00652572324663" fill="rgb(195,228,103)" opacity="0.85" r="7.0398848057996295" /><circle cx="722.440928308029" cy="335.89761280155477" fill="rgb(103,158,228)" opacity="0.85" r="7.044996644278647" /><circle cx="204.92323180406902" cy="665.9148605227176" fill="rgb(228,103,122)" opacity="0.85" r="7.050076026421574" /><circle cx="364.108937443084" cy="71.11418332645701" fill="rgb(103,228,120)" opacity="0.85" r="7.055123361776185" /><circle cx="649.4038393801217" cy="618.9524238889461" fill="rgb(156,103,228)" opacity="0.85" r="7.060139052187061" /><circle cx="67.16183565477121" cy="407.04170601425045" fill="rgb(228,193,103)" opacity="0.85" r="7.0651234919875705" /><circle cx="641.4151087884128" cy="169.2664637273681" fill="rgb(103,226,228)" opacity="0.85" r="7.070077068185907" /><circle cx="377.7766294789325" cy="734.2360416812958" fill="rgb(228,103,190)" opacity="0.85" r="7.07500016064541" /><circle cx="189.97339227373845" cy="137.73138951258568" fill="rgb(153,228,103)" opacity="0.85" r="7.079893142259359" /></g></svg>