<?xml version="1.0" encoding="utf-8" ?>
<svg baseProfile="full" height="800px" version="1.1" width="800px" xmlns="http://www.w3.org/2000/svg" xmlns:ev="http://www.w3.org/2001/xml-events" xmlns:xlink="http://www.w3.org/1999/xlink"><defs /><rect fill="#0d1117" height="800" width="800" x="0" y="0" /><g id="cliffordGroup"><rect fill="#070e52" height="5.83" opacity="0.05173022180924749" width="5.83" x="479.7" y="239.85" /><rect fill="#f4f0ef" height="5.83" opacity="0.95" width="5.83" x="485.03" y="239.85" /><rect fill="#070f5b" height="5.83" opacity="0.081990461721645" width="5.83" x="479.7" y="245.18" /><rect fill="#070e52" height="5.83" opacity="0.05173022180924749" width="5.83" x="479.7" y="250.51" /><rect fill="#070e52" height="5.83" opacity="0.05173022180924749" width="5.83" x="479.7" y="255.84" /><rect fill="#070e52" height="5.83" opacity="0.05173022180924749" width="5.83" x="490.36" y="255.84" /><rect fill="#070e52" height="5.83" opacity="0.05173022180924749" width="5.83" x="469.04" y="287.82" /><rect fill="#070e52" height="5.83" opacity="0.05173022180924749" width="5.83" x="463.71" y="293.15" /><rect fill="#070e52" height="5.83" opacity="0.05173022180924749" width="5.83" x="463.71" y="298.48" /><rect fill="#070f5b" height="5.83" opacity="0.081990461721645" width="5.83" x="463.71" y="303.81" /><rect fill="#f4f0ef" height="5.83" opacity="0.95" width="5.83" x="458.38" y="309.14" /><rect fill="#070e52" height="5.83" opacity="0.05173022180924749" width="5.83" x="447.72" y="373.1" /><rect fill="#f4f0ef" height="5.83" opacity="0.9499993366011391" width="5.83" x="245.18" y="474.37" /><rect fill="#060f61" height="5.83" opacity="0.10346044361849498" width="5.83" x="245.18" y="479.7" /><rect fill="#070e52" height="5.83" opacity="0.05173022180924749" width="5.83" x="250.51" y="479.7" /><rect fill="#070f5b" height="5.83" opacity="0.081990461721645" width="5.83" x="250.51" y="485.03" /><rect fill="#070e52" height="5.83" opacity="0.05173022180924749" width="5.83" x="378.43" y="485.03" /><rect fill="#070f5b" height="5.83" opacity="0.081990461721645" width="5.83" x="255.84" y="490.36" /><rect fill="#070f5b" height="5.83" opacity="0.081990461721645" width="5.83" x="271.83" y="511.68" /><rect fill="#070e52" height="5.83" opacity="0.05173022180924749" width="5.83" x="277.16" y="517.01" /><rect fill="#070e52" height="5.83" opacity="0.05173022180924749" width="5.83" x="282.49" y="517.01" /><rect fill="#070e52" height="5.83" opacity="0.05173022180924749" width="5.83" x="282.49" y="522.34" /><rect fill="#f4f0ef" height="5.83" opacity="0.95" width="5.83" x="287.82" y="522.34" /><rect fill="#070e52" height="5.83" opacity="0.05173022180924749" width="5.83" x="341.12" y="548.99" /></g></svg>