<?xml version="1.0" encoding="utf-8" ?>
<svg baseProfile="full" height="800px" version="1.1" width="800px" xmlns="http://www.w3.org/2000/svg" xmlns:ev="http://www.w3.org/2001/xml-events" xmlns:xlink="http://www.w3.org/1999/xlink"><defs><filter id="phyllotaxisGlow"><feGaussianBlur in="SourceGraphic" result="blur" stdDeviation="2" /><feComposite in="SourceGraphic" in2="blur" operator="over" /></filter></defs><rect fill="#ffffff" height="800" width="800" x="0" y="0" /><g id="flowFieldGroup" opacity="0.25"><path d="M783.4,550.0 L778.8,550.0 L774.2,550.0 L769.6,549.8 L765.0,549.4 L760.5,548.8 L756.0,547.7 L751.7,546.0 L747.8,543.6 L744.6,540.3 L742.4,536.3 L741.4,531.8 L741.3,527.2 L741.7,522.6 L742.3,518.0 L742.9,513.5 L743.5,508.9 L744.1,504.3 L744.6,499.8 L745.2,495.2 L745.7,490.6 L746.3,486.1 L746.9,481.5 L747.5,477.0 L748.1,472.4 L748.6,467.8 L748.9,463.2 L749.0,458.6 L748.9,454.0 L748.6,449.5 L748.0,444.9" fill="none" opacity="0.4" stroke="rgb(91,76,178)" stroke-width="0.8" /><path d="M107.4,438.6 L103.4,440.9 L98.8,441.5 L94.4,440.4 L90.6,437.8 L87.7,434.2 L85.5,430.1 L84.0,425.8 L82.9,421.3 L82.0,416.8 L81.2,412.3 L80.3,407.8 L79.3,403.3 L78.1,398.9 L76.6,394.5 L74.5,390.4 L71.9,386.7 L68.5,383.5 L64.5,381.2 L60.2,379.7 L55.7,378.8 L51.1,378.0 L46.7,377.0 L42.3,375.6 L38.1,373.6 L34.5,370.8 L31.4,367.3 L29.2,363.3 L27.7,359.0 L26.7,354.5 L25.9,349.9" fill="none" opacity="0.4" stroke="rgb(91,76,178)" stroke-width="0.8" /><path d="M582.0,128.5 L579.8,124.5 L575.9,122.2 L571.3,123.1 L568.0,126.3 L565.3,130.0 L562.5,133.6 L559.3,136.9 L555.7,139.8 L551.8,142.3 L547.7,144.3 L543.4,146.0 L539.1,147.5 L534.7,148.9 L530.3,150.4 L526.0,151.9 L521.7,153.5 L517.4,155.2 L513.1,156.9 L508.8,158.4 L504.3,159.6 L499.8,160.2 L495.2,160.3 L490.6,159.7 L486.2,158.5 L481.8,157.1 L477.5,155.5 L473.1,154.0 L468.7,152.7 L464.3,151.6 L459.7,150.6" fill="none" opacity="0.4" stroke="rgb(91,76,178)" stroke-width="0.8" /><path d="M634.2,249.8 L638.8,249.4 L643.2,248.0 L647.3,246.0 L651.4,243.8 L655.5,241.8 L659.9,240.3 L664.4,239.8 L669.0,240.6 L673.2,242.3 L677.2,244.6 L681.1,247.0 L685.3,249.1 L689.7,250.4 L694.3,250.6 L698.7,249.5 L702.7,247.1 L705.8,243.8 L708.0,239.7 L709.5,235.4 L710.7,231.0 L711.8,226.5 L712.8,222.0 L714.1,217.6 L715.6,213.2 L717.4,209.0 L719.6,205.0 L722.3,201.2 L725.3,197.8 L728.7,194.6 L732.2,191.6" fill="none" opacity="0.4" stroke="rgb(91,76,178)" stroke-width="0.8" /><path d="M699.9,97.7 L702.0,101.7 L704.8,105.4 L708.2,108.5 L712.1,111.0 L716.2,113.1 L720.3,115.1 L724.3,117.4 L727.9,120.2 L731.0,123.6 L733.5,127.5 L735.5,131.7 L737.2,135.9 L738.8,140.2 L740.5,144.5 L742.3,148.7 L744.5,152.8 L747.2,156.5 L750.4,159.8 L754.2,162.4 L758.4,164.2 L762.8,165.6 L767.3,166.8 L771.7,168.2 L775.9,170.0 L779.9,172.2 L783.7,174.8 L787.3,177.8 L790.6,180.9 L793.9,184.1 L797.2,187.3" fill="none" opacity="0.4" stroke="rgb(91,76,178)" stroke-width="0.8" /><path d="M187.8,720.6 L183.5,719.0 L178.9,719.2 L175.1,721.9 L173.0,725.9 L171.9,730.4 L171.1,734.9 L170.4,739.5 L169.7,744.0 L168.9,748.5 L167.8,753.0 L166.3,757.4 L164.4,761.6 L161.9,765.4 L158.7,768.7 L154.9,771.3 L150.7,773.3 L146.4,774.8 L142.0,776.2 L137.7,777.9 L133.6,780.0 L129.8,782.5 L126.1,785.3 L122.5,788.1 L118.7,790.8 L114.9,793.3 L110.8,795.4 L106.6,797.4 L102.4,799.2" fill="none" opacity="0.4" stroke="rgb(91,76,178)" stroke-width="0.8" /><path d="M700.9,30.5 L703.4,26.6 L707.2,24.0 L711.6,22.9 L716.2,23.1 L720.7,24.3 L724.8,26.4 L728.5,29.1 L731.8,32.3 L734.8,35.8 L737.8,39.3 L740.9,42.6 L744.5,45.6 L748.4,48.0 L752.7,49.5 L757.3,50.3 L761.9,50.4 L766.5,50.3 L771.1,50.2 L775.7,50.4 L780.2,51.2 L784.5,52.8 L788.4,55.2 L791.8,58.3 L794.6,62.0 L796.9,66.0 L799.1,70.0" fill="none" opacity="0.4" stroke="rgb(91,76,178)" stroke-width="0.8" /><path d="M139.7,80.9 L143.4,83.7 L147.6,85.5 L152.1,86.1 L156.7,85.5 L161.0,83.8 L164.7,81.2 L167.8,77.8 L170.1,73.8 L171.8,69.5 L173.0,65.1 L173.9,60.6 L174.9,56.1 L176.0,51.6 L177.3,47.2 L179.0,42.9 L181.1,38.8 L183.7,35.0 L186.8,31.6 L190.2,28.6 L193.9,25.8 L197.6,23.1 L201.1,20.1 L204.2,16.7 L206.7,12.8 L208.3,8.5 L209.3,4.0" fill="none" opacity="0.4" stroke="rgb(91,76,178)" stroke-width="0.8" /><path d="M147.8,379.6 L145.2,383.5 L142.0,386.7 L138.0,389.0 L133.6,390.5 L129.1,391.2 L124.5,391.2 L119.9,390.9 L115.4,390.1 L110.9,389.0 L106.6,387.3 L102.6,385.1 L98.9,382.3 L95.7,379.1 L92.6,375.6 L89.6,372.2 L86.2,369.0 L82.3,366.6 L77.8,365.6 L73.2,366.1 L69.0,367.9 L65.0,370.1 L60.9,372.2 L56.6,373.9 L52.1,374.9 L47.5,375.0 L43.0,374.3 L38.6,372.7 L34.8,370.2 L31.7,366.8 L29.3,362.8" fill="none" opacity="0.4" stroke="rgb(91,76,178)" stroke-width="0.8" /><path d="M482.3,279.7 L483.9,284.1 L483.4,288.6 L481.4,292.8 L478.4,296.3 L474.8,299.1 L471.0,301.7 L467.2,304.3 L463.5,307.0 L459.9,309.9 L456.4,312.8 L452.8,315.7 L449.1,318.4 L445.2,320.9 L441.1,323.1 L437.0,325.0 L432.7,326.8 L428.5,328.7 L424.4,330.7 L420.5,333.1 L416.9,336.0 L413.7,339.3 L411.0,343.0 L408.8,347.0 L406.8,351.2 L405.1,355.5 L403.3,359.7 L401.3,363.9 L399.1,367.9 L396.6,371.7 L393.7,375.3" fill="none" opacity="0.4" stroke="rgb(91,76,178)" stroke-width="0.8" /><path d="M449.8,442.3 L454.0,444.2 L458.3,445.8 L462.7,446.9 L467.3,447.4 L471.9,447.3 L476.5,447.0 L481.1,446.5 L485.7,446.0 L490.2,445.5 L494.8,445.1 L499.4,444.7 L504.0,444.1 L508.5,443.2 L512.8,441.7 L516.8,439.4 L520.0,436.1 L521.9,431.9 L522.4,427.3 L521.5,422.8 L519.6,418.6 L517.2,414.7 L514.5,411.0 L511.9,407.2 L509.7,403.2 L507.9,398.9 L506.7,394.5 L505.8,389.9 L505.2,385.4 L504.9,380.8 L504.6,376.2" fill="none" opacity="0.4" stroke="rgb(91,76,178)" stroke-width="0.8" /><path d="M106.1,448.8 L101.5,449.5 L97.1,448.3 L93.3,445.6 L90.3,442.2 L87.9,438.3 L86.0,434.1 L84.6,429.7 L83.5,425.2 L82.6,420.7 L81.8,416.2 L81.0,411.7 L80.2,407.1 L79.1,402.6 L77.9,398.2 L76.3,393.9 L74.2,389.8 L71.4,386.1 L67.9,383.1 L63.9,380.9 L59.5,379.5 L55.0,378.6 L50.5,377.8 L46.0,376.8 L41.6,375.3 L37.6,373.2 L34.0,370.3 L31.1,366.8 L29.0,362.7 L27.5,358.3 L26.6,353.8" fill="none" opacity="0.4" stroke="rgb(91,76,178)" stroke-width="0.8" /><path d="M83.8,660.4 L80.8,663.9 L77.0,666.5 L72.6,667.9 L68.0,667.9 L63.7,666.4 L59.9,663.7 L56.7,660.5 L53.7,656.9 L50.9,653.3 L47.7,650.0 L44.2,647.0 L40.4,644.5 L36.2,642.4 L32.0,640.7 L27.8,638.9 L23.7,636.6 L20.2,633.7 L17.6,629.9 L16.1,625.5 L15.6,620.9 L15.9,616.4 L16.7,611.8 L17.8,607.4 L19.1,602.9 L20.4,598.5 L21.7,594.1 L22.8,589.7 L23.8,585.2 L24.5,580.6 L24.9,576.0" fill="none" opacity="0.4" stroke="rgb(91,76,178)" stroke-width="0.8" /><path d="M543.4,465.7 L542.1,461.3 L541.4,456.7 L541.0,452.2 L540.7,447.6 L540.2,443.0 L539.7,438.4 L538.8,433.9 L537.6,429.5 L536.0,425.2 L533.8,421.1 L531.0,417.5 L527.7,414.3 L524.0,411.5 L520.2,408.9 L516.5,406.2 L513.1,403.1 L510.3,399.4 L508.2,395.3 L506.8,390.9 L505.9,386.4 L505.3,381.9 L504.9,377.3 L504.6,372.7 L504.3,368.1 L503.9,363.5 L503.3,359.0 L502.4,354.5 L501.1,350.0 L499.3,345.8 L496.9,341.8" fill="none" opacity="0.4" stroke="rgb(91,76,178)" stroke-width="0.8" /><path d="M679.2,250.1 L683.5,251.7 L688.0,252.8 L692.6,252.8 L697.0,251.8 L701.1,249.6 L704.5,246.5 L707.0,242.6 L708.8,238.4 L710.1,234.0 L711.1,229.5 L712.1,225.0 L713.2,220.6 L714.6,216.2 L716.1,211.8 L718.1,207.7 L720.5,203.7 L723.2,200.1 L726.4,196.7 L729.8,193.6 L733.4,190.7 L736.9,187.8 L740.4,184.8 L743.9,181.8 L747.2,178.6 L750.7,175.6 L754.3,172.8 L758.3,170.5 L762.7,169.0 L767.2,168.5 L771.8,169.1" fill="none" opacity="0.4" stroke="rgb(91,76,178)" stroke-width="0.8" /><path d="M64.3,137.9 L68.8,138.7 L72.9,140.9 L76.1,144.2 L78.7,148.0 L81.2,151.8 L84.0,155.5 L87.1,158.9 L90.8,161.6 L94.9,163.7 L99.3,165.1 L103.7,166.3 L108.1,167.6 L112.5,169.2 L116.6,171.3 L120.5,173.7 L124.1,176.5 L127.6,179.6 L130.9,182.8 L134.2,186.0 L137.5,189.1 L141.0,192.1 L144.7,194.9 L148.5,197.5 L152.3,200.1 L156.1,202.7 L159.7,205.5 L163.1,208.6 L165.9,212.3 L168.2,216.3 L169.8,220.6" fill="none" opacity="0.4" stroke="rgb(91,76,178)" stroke-width="0.8" /><path d="M352.3,584.1 L356.0,586.9 L359.7,589.5 L363.8,591.6 L368.2,593.1 L372.8,593.7 L377.4,593.7 L381.9,593.4 L386.5,593.2 L391.1,593.6 L395.5,595.0 L399.4,597.5 L402.4,601.0 L404.7,605.0 L406.5,609.2 L408.2,613.5 L409.9,617.8 L411.8,622.0 L414.0,626.0 L416.8,629.7 L420.1,632.8 L424.0,635.3 L428.2,637.1 L432.6,638.4 L437.1,639.6 L441.4,641.1 L445.6,642.9 L449.6,645.2 L453.4,647.9 L456.9,650.8 L460.3,654.0" fill="none" opacity="0.4" stroke="rgb(91,76,178)" stroke-width="0.8" /><path d="M671.7,531.8 L675.3,528.9 L678.6,525.7 L681.9,522.5 L685.6,519.8 L689.8,517.8 L694.2,516.6 L698.8,516.3 L703.4,516.6 L707.9,517.4 L712.4,518.4 L716.9,519.5 L721.4,520.4 L726.0,520.8 L730.6,520.2 L734.8,518.5 L738.3,515.5 L740.8,511.6 L742.4,507.3 L743.5,502.8 L744.3,498.3 L745.0,493.8 L745.7,489.2 L746.4,484.7 L747.0,480.1 L747.6,475.5 L748.2,471.0 L748.7,466.4 L748.9,461.8 L749.0,457.2 L748.8,452.6" fill="none" opacity="0.4" stroke="rgb(91,76,178)" stroke-width="0.8" /><path d="M710.2,739.8 L713.8,736.9 L716.7,733.4 L718.5,729.1 L719.0,724.6 L718.4,720.0 L717.2,715.6 L715.7,711.2 L714.2,706.9 L713.0,702.4 L712.0,697.9 L711.2,693.4 L710.5,688.9 L709.9,684.3 L709.3,679.7 L708.5,675.2 L707.6,670.7 L706.4,666.3 L704.8,662.0 L702.7,657.9 L700.0,654.1 L696.7,650.9 L693.1,648.1 L689.3,645.5 L685.5,642.9 L682.1,639.8 L679.3,636.2 L677.4,632.0 L676.5,627.4 L676.4,622.8 L676.8,618.3" fill="none" opacity="0.4" stroke="rgb(91,76,178)" stroke-width="0.8" /><path d="M96.1,57.8 L100.6,57.0 L105.1,56.2 L109.7,55.6 L114.3,55.5 L118.8,56.2 L123.1,57.9 L126.9,60.5 L130.1,63.8 L132.8,67.5 L135.3,71.4 L137.8,75.3 L140.6,78.9 L144.1,81.9 L148.1,84.1 L152.7,84.9 L157.2,84.5 L161.5,82.8 L165.3,80.1 L168.3,76.6 L170.5,72.6 L172.1,68.3 L173.2,63.8 L174.2,59.3 L175.1,54.8 L176.3,50.4 L177.7,46.0 L179.5,41.8 L181.7,37.8 L184.5,34.1 L187.7,30.7" fill="none" opacity="0.4" stroke="rgb(91,76,178)" stroke-width="0.8" /></g><g id="phyllotaxisGroup"><circle cx="380.82799720182925" cy="417.5629798383629" fill="rgb(220,105,59)" opacity="0.85" r="3.0" /><circle cx="403.2149634223855" cy="363.37061405941483" fill="rgb(59,220,152)" opacity="0.85" r="3.5545177444479563" /><circle cx="427.4000664149936" cy="435.7394490268298" fill="rgb(199,59,220)" opacity="0.85" r="3.8788898309344875" /><circle cx="348.7941408274952" cy="390.9415346338998" fill="rgb(195,220,59)" opacity="0.85" r="4.109035488895913" /><circle cx="449.0555606321631" cy="368.7962865744603" fill="rgb(59,148,220)" opacity="0.85" r="4.287550329947281" /><circle cx="383.4648372818206" cy="461.5039194398063" fill="rgb(220,59,101)" opacity="0.85" r="4.433407575382444" /><circle cx="368.2956186538782" cy="338.95084056163967" fill="rgb(59,220,65)" opacity="0.85" r="4.556728119244251" /><circle cx="469.0772402822767" cy="425.2294766444149" fill="rgb(112,59,220)" opacity="0.85" r="4.663553233343869" /><circle cx="327.8986663093036" cy="429.7592548442517" fill="rgb(220,159,59)" opacity="0.85" r="4.757779661868976" /><circle cx="434.8519708529508" cy="325.5313512367577" fill="rgb(59,220,206)" opacity="0.85" r="4.842068074395237" /><circle cx="425.8046493058719" cy="482.2823404337459" fill="rgb(220,59,188)" opacity="0.85" r="4.918316218238696" /><circle cx="322.0741830042675" cy="354.83525190264754" fill="rgb(141,220,59)" opacity="0.85" r="4.9879253198304" /><circle cx="491.56051862903007" cy="379.87581540462963" fill="rgb(59,94,220)" opacity="0.85" r="5.051959485969229" /><circle cx="344.04405133019907" cy="479.5818266804923" fill="rgb(220,72,59)" opacity="0.85" r="5.111245863692208" /><circle cx="387.06522574913214" cy="300.13483642172207" fill="rgb(59,220,119)" opacity="0.85" r="5.166440160881768" /><circle cx="479.5204880173047" cy="467.0289133062937" fill="rgb(166,59,220)" opacity="0.85" r="5.218070977791825" /><circle cx="292.88859001822675" cy="404.42188165210536" fill="rgb(220,212,59)" opacity="0.85" r="5.266570675244973" /><circle cx="478.19717413802437" cy="322.19490315826323" fill="rgb(59,181,220)" opacity="0.85" r="5.312297406316931" /><circle cx="394.7561091183718" cy="513.2119989146112" fill="rgb(220,59,134)" opacity="0.85" r="5.355551183333152" /><circle cx="325.50723489889367" cy="310.7178237860011" fill="rgb(87,220,59)" opacity="0.85" r="5.396585818843192" /><circle cx="518.0836331635098" cy="415.89838271389914" fill="rgb(79,59,220)" opacity="0.85" r="5.435617950178738" /><circle cx="299.88757780454785" cy="469.64215582725245" fill="rgb(220,125,59)" opacity="0.85" r="5.472833962686654" /><circle cx="427.3794946897928" cy="278.349212214901" fill="rgb(59,220,172)" opacity="0.85" r="5.50839537274332" /><circle cx="463.3178502738499" cy="510.52341239302064" fill="rgb(219,59,220)" opacity="0.85" r="5.542443064278357" /><circle cx="276.1518133950192" cy="360.4750018715616" fill="rgb(174,220,59)" opacity="0.85" r="5.575100659894561" /><circle cx="520.3580474747874" cy="344.407166266255" fill="rgb(59,127,220)" opacity="0.85" r="5.606477230417186" /><circle cx="347.82838112800334" cy="524.6225055552244" fill="rgb(220,59,80)" opacity="0.85" r="5.636669492803463" /><circle cx="353.45015401056634" cy="270.5326971894346" fill="rgb(59,220,85)" opacity="0.85" r="5.665763608140163" /><circle cx="523.9335816058903" cy="465.1549074215794" fill="rgb(132,59,220)" opacity="0.85" r="5.693836663989179" /><circle cx="262.28894309222676" cy="436.2819978531816" fill="rgb(220,179,59)" opacity="0.85" r="5.720957905329724" /><circle cx="478.3096153171338" cy="278.2447263406937" fill="rgb(59,214,220)" opacity="0.85" r="5.747189763588118" /><circle cx="424.89288329948425" cy="544.9589970581478" fill="rgb(220,59,167)" opacity="0.85" r="5.772588722239782" /><circle cx="281.92394418182107" cy="308.5295924269277" fill="rgb(120,220,59)" opacity="0.85" r="5.797206049173184" /><circle cx="551.0915491046217" cy="387.50367412304064" fill="rgb(59,73,220)" opacity="0.85" r="5.821088419692929" /><circle cx="295.5271983991017" cy="512.8993890550902" fill="rgb(220,92,59)" opacity="0.85" r="5.844278449191531" /><circle cx="400.78415211600185" cy="243.99920711448914" fill="rgb(59,220,139)" opacity="0.85" r="5.866815150764888" /><circle cx="506.2438988167177" cy="517.1542581034421" fill="rgb(186,59,220)" opacity="0.85" r="5.88873433011538" /><circle cx="240.4086656102918" cy="385.1839219982804" fill="rgb(207,220,59)" opacity="0.85" r="5.910068927781109" /><circle cx="529.3553705151511" cy="301.85662401045863" fill="rgb(59,160,220)" opacity="0.85" r="5.930849316903718" /><circle cx="370.5410480396321" cy="561.7811121028319" fill="rgb(220,59,113)" opacity="0.85" r="5.951103563291149" /><circle cx="311.3533868431593" cy="259.07888727465445" fill="rgb(67,220,59)" opacity="0.85" r="5.9708576533634465" /><circle cx="562.5021196423772" cy="444.5653127416204" fill="rgb(99,59,220)" opacity="0.85" r="5.990135694626694" /><circle cx="248.29788666166144" cy="477.8170851985708" fill="rgb(220,146,59)" opacity="0.85" r="6.00896009255485" /><circle cx="459.9819197954598" cy="238.29896973158588" fill="rgb(59,220,193)" opacity="0.85" r="6.027351707134609" /><circle cx="465.73248193519566" cy="561.5559304480976" fill="rgb(220,59,200)" opacity="0.85" r="6.045329991816256" /><circle cx="240.66028836728057" cy="324.4489702703598" fill="rgb(154,220,59)" opacity="0.85" r="6.062913117191276" /><circle cx="570.348304916723" cy="347.5158999267192" fill="rgb(59,107,220)" opacity="0.85" r="6.080118081368047" /><circle cx="308.88825248533897" cy="555.3956214486864" fill="rgb(220,59,60)" opacity="0.85" r="6.096960808726313" /><circle cx="361.8238981901618" cy="222.04562690594125" fill="rgb(59,220,106)" opacity="0.85" r="6.113456238488501" /><circle cx="549.8620767853333" cy="506.5014344803733" fill="rgb(153,59,220)" opacity="0.85" r="6.1296184043425175" /><circle cx="215.7401778010567" cy="422.92464787297746" fill="rgb(220,200,59)" opacity="0.85" r="6.145460506179461" /><circle cx="521.5571562273263" cy="257.25160848924645" fill="rgb(59,194,220)" opacity="0.85" r="6.160994974865142" /><circle cx="406.85691337909293" cy="589.1619734512976" fill="rgb(220,59,147)" opacity="0.85" r="6.176233530841698" /><circle cx="265.92012190434247" cy="263.88284566952166" fill="rgb(100,220,59)" opacity="0.85" r="6.19118723725142" /><circle cx="592.5707796574804" cy="409.8900044175696" fill="rgb(66,59,220)" opacity="0.85" r="6.205866548185977" /><circle cx="249.97767371521206" cy="523.8977115747739" fill="rgb(220,113,59)" opacity="0.85" r="6.22028135258812" /><circle cx="427.17027667910395" cy="205.59027458832725" fill="rgb(59,220,160)" opacity="0.85" r="6.23444101426764" /><circle cx="512.2586549759916" cy="563.1176986244539" fill="rgb(207,59,220)" opacity="0.85" r="6.248354408437136" /><circle cx="205.38338055073126" cy="355.169378681629" fill="rgb(187,220,59)" opacity="0.85" r="6.262029955124576" /><circle cx="575.2538786021943" cy="300.7653530230704" fill="rgb(59,140,220)" opacity="0.85" r="6.275475649777681" /><circle cx="337.28834209149375" cy="593.1442700165106" fill="rgb(220,59,93)" opacity="0.85" r="6.28869909133865" /><circle cx="315.08774605796066" cy="213.71152971688582" fill="rgb(59,220,73)" opacity="0.85" r="6.301707508036074" /><circle cx="589.9610354300221" cy="480.64932733997097" fill="rgb(120,59,220)" opacity="0.85" r="6.314507781113226" /><circle cx="203.91255858338013" cy="469.39198983179097" fill="rgb(220,167,59)" opacity="0.85" r="6.327106466687738" /><circle cx="498.4763638505119" cy="214.94875669423587" fill="rgb(59,220,213)" opacity="0.85" r="6.339509815916509" /><circle cx="452.7875087568886" cy="604.5264280174197" fill="rgb(220,59,180)" opacity="0.85" r="6.35172379362114" /><circle cx="221.58452675277792" cy="283.9761934067455" fill="rgb(133,220,59)" opacity="0.85" r="6.363754095512773" /><circle cx="611.4919642235501" cy="364.7753238286064" fill="rgb(59,86,220)" opacity="0.85" r="6.375606164140885" /><circle cx="266.8774624552958" cy="570.0706990997262" fill="rgb(220,80,59)" opacity="0.85" r="6.387285203677807" /><circle cx="383.15947414667005" cy="183.1173742880959" fill="rgb(59,220,127)" opacity="0.85" r="6.3987961936394875" /><circle cx="560.0502882007918" cy="549.6048322937661" fill="rgb(173,59,220)" opacity="0.85" r="6.410143901633052" /><circle cx="179.38992425807652" cy="397.78211090426885" fill="rgb(220,220,59)" opacity="0.85" r="6.421332895212844" /><circle cx="565.3059101005952" cy="251.5961436188131" fill="rgb(59,173,220)" opacity="0.85" r="6.432367552918713" /><circle cx="378.20525800430477" cy="622.600003765568" fill="rgb(220,59,126)" opacity="0.85" r="6.443252074563336" /><circle cx="264.8030212072616" cy="219.93453042712082" fill="rgb(79,220,59)" opacity="0.85" r="6.453990490829048" /><circle cx="622.7929474837326" cy="441.72676492123696" fill="rgb(86,59,220)" opacity="0.85" r="6.464586672229065" /><circle cx="206.27080362040607" cy="520.5107579492137" fill="rgb(220,133,59)" opacity="0.85" r="6.475044337482947" /><circle cx="461.8446566375396" cy="178.85500975862493" fill="rgb(59,220,180)" opacity="0.85" r="6.485367061351674" /><circle cx="504.4412516582535" cy="606.1502296084732" fill="rgb(220,59,213)" opacity="0.85" r="6.495558281973617" /><circle cx="182.3716732700682" cy="318.0254455797733" fill="rgb(166,220,59)" opacity="0.85" r="6.505621307739105" /><circle cx="617.190573672912" cy="312.9012352131683" fill="rgb(59,119,220)" opacity="0.85" r="6.515559323737952" /><circle cx="298.06044258950294" cy="612.2316910991576" fill="rgb(220,59,72)" opacity="0.85" r="6.525375397811403" /><circle cx="331.39298996933036" cy="173.27755691461937" fill="rgb(59,220,93)" opacity="0.85" r="6.535072486237279" /><circle cx="604.9606427632694" cy="521.5612886329991" fill="rgb(140,59,220)" opacity="0.85" r="6.544653439074651" /><circle cx="165.3704720656011" cy="449.10214404101725" fill="rgb(220,187,59)" opacity="0.85" r="6.554121005192254" /><circle cx="540.6614823912615" cy="204.1622935905031" fill="rgb(59,206,220)" opacity="0.85" r="6.5634778370028055" /><circle cx="428.7316863905914" cy="640.8081685273321" fill="rgb(220,59,159)" opacity="0.85" r="6.572726494923668" /><circle cx="215.0976360283531" cy="240.93641654317065" fill="rgb(112,220,59)" opacity="0.85" r="6.581869451582566" /><circle cx="645.1684283866274" cy="392.34667007387833" fill="rgb(59,66,220)" opacity="0.85" r="6.590909095785712" /><circle cx="223.40565571335998" cy="572.2108976069585" fill="rgb(220,100,59)" opacity="0.85" r="6.599847736264213" /><circle cx="413.96634795139073" cy="152.36494439272295" fill="rgb(59,220,147)" opacity="0.85" r="6.60868760521348" /><circle cx="557.8360840015412" cy="593.0854064394116" fill="rgb(194,59,220)" opacity="0.85" r="6.6174308616392326" /><circle cx="151.8516765085059" cy="364.0467373765475" fill="rgb(199,220,59)" opacity="0.85" r="6.626079594522605" /><circle cx="608.374852417234" cy="258.1332583827277" fill="rgb(59,152,220)" opacity="0.85" r="6.634635825816003" /><circle cx="341.87272307450405" cy="646.6647423656824" fill="rgb(220,59,106)" opacity="0.85" r="6.643101513280433" /><circle cx="275.5928662288573" cy="177.6912856677756" fill="rgb(59,220,60)" opacity="0.85" r="6.651478553174269" /><circle cx="643.1576355467641" cy="480.30372113794226" fill="rgb(107,59,220)" opacity="0.85" r="6.659768782802706" /><circle cx="165.25757391056618" cy="505.57623169556626" fill="rgb(220,154,59)" opacity="0.85" r="6.6679739829364575" /><circle cx="502.2949656492116" cy="162.38242644890173" fill="rgb(59,220,201)" opacity="0.85" r="6.676095880107672" /><circle cx="485.5068429550446" cy="645.5422061834628" fill="rgb(220,59,193)" opacity="0.85" r="6.684136148790474" /></g><g filter="url(#phyllotaxisGlow)" id="phyllotaxisGlowGroup"><circle cx="169.94733817965482" cy="276.0879668835568" fill="rgb(146,220,59)" opacity="0.85" r="6.692096413473008" /><circle cx="654.5863587244417" cy="335.6553882193519" fill="rgb(59,99,220)" opacity="0.85" r="6.699978250627417" /><circle cx="255.03376346690763" cy="620.4886784651306" fill="rgb(220,67,59)" opacity="0.85" r="6.707783190583709" /><circle cx="357.75310098155836" cy="138.23351906462585" fill="rgb(59,220,114)" opacity="0.85" r="6.715512719313098" /><circle cx="608.969059788853" cy="565.2708293106277" fill="rgb(161,59,220)" opacity="0.85" r="6.723168280126019" /><circle cx="133.0114339080634" cy="419.3815504624178" fill="rgb(220,208,59)" opacity="0.85" r="6.730751275289654" /><circle cx="584.6426532961399" cy="204.44526735971598" fill="rgb(59,186,220)" opacity="0.85" r="6.738263067569525" /><circle cx="395.92556334676624" cy="670.1739917022104" fill="rgb(220,59,139)" opacity="0.85" r="6.745704981699376" /><circle cx="219.67620605628997" cy="197.0962294185012" fill="rgb(92,220,59)" opacity="0.85" r="6.7530783057833155" /><circle cx="671.2603836406133" cy="427.93633830132615" fill="rgb(74,59,220)" opacity="0.85" r="6.760384292633933" /><circle cx="180.11693498708868" cy="563.3710390588323" fill="rgb(220,121,59)" opacity="0.85" r="6.767624161049867" /><circle cx="452.0132079079452" cy="129.7976520496993" fill="rgb(59,220,168)" opacity="0.85" r="6.774799097036075" /><circle cx="544.8073419179937" cy="635.4177994831138" fill="rgb(214,59,220)" opacity="0.85" r="6.781910254969873" /><circle cx="133.02793689678276" cy="323.89055208889033" fill="rgb(179,220,59)" opacity="0.85" r="6.788958758715596" /><circle cx="649.3551153801625" cy="275.2411088348259" fill="rgb(59,132,220)" opacity="0.85" r="6.7959457026906005" /><circle cx="299.9735643000565" cy="661.5597266481957" fill="rgb(220,59,85)" opacity="0.85" r="6.802872152885092" /><circle cx="296.63371223141536" cy="138.44653902471168" fill="rgb(59,220,81)" opacity="0.85" r="6.809739147838205" /><circle cx="653.9738513755906" cy="523.5641904629117" fill="rgb(128,59,220)" opacity="0.85" r="6.816547699572532" /><circle cx="128.11606394540058" cy="480.78351078567744" fill="rgb(220,174,59)" opacity="0.85" r="6.823298794489224" /><circle cx="546.5230670453614" cy="155.75859262787253" fill="rgb(59,219,220)" opacity="0.85" r="6.829993394225637" /><circle cx="457.17675911683324" cy="680.2315407310326" fill="rgb(220,59,172)" opacity="0.85" r="6.836632436477393" /><circle cx="167.59219237835728" cy="231.29453739670998" fill="rgb(125,220,59)" opacity="0.85" r="6.843216835786606" /><circle cx="686.4963171099528" cy="367.27682181972955" fill="rgb(59,78,220)" opacity="0.85" r="6.849747484297934" /><circle cx="210.08247835502053" cy="618.5367361157134" fill="rgb(220,87,59)" opacity="0.85" r="6.85622525248403" /><circle cx="392.39051853185515" cy="109.40562668254921" fill="rgb(59,220,134)" opacity="0.85" r="6.862650989841841" /><circle cx="602.7098187616118" cy="609.970824977439" fill="rgb(181,59,220)" opacity="0.85" r="6.869025525561183" /><circle cx="107.54121967123172" cy="382.0304778923626" fill="rgb(212,220,59)" opacity="0.85" r="6.875349669166873" /><circle cx="628.6840481205124" cy="214.97386129663028" fill="rgb(59,165,220)" opacity="0.85" r="6.881624211135694" /><circle cx="356.1875166905209" cy="692.0403330477075" fill="rgb(220,59,118)" opacity="0.85" r="6.8878499234893376" /><circle cx="234.39840100725004" cy="154.1154250801822" fill="rgb(71,220,59)" opacity="0.85" r="6.894027560364465" /><circle cx="689.3081681783453" cy="469.7131375699095" fill="rgb(94,59,220)" opacity="0.85" r="6.900157858560921" /><circle cx="138.58994762218776" cy="544.5681368506771" fill="rgb(220,141,59)" opacity="0.85" r="6.9062415380690965" /><circle cx="495.4619866849348" cy="115.74976741098732" fill="rgb(59,220,188)" opacity="0.85" r="6.912279302577403" /><circle cx="522.072795034469" cy="675.1098731294659" fill="rgb(220,59,205)" opacity="0.85" r="6.918271839960729" /><circle cx="123.12640291390471" cy="279.151976559231" fill="rgb(158,220,59)" opacity="0.85" r="6.924219822750744" /><circle cx="686.846572511909" cy="301.7233429384166" fill="rgb(59,111,220)" opacity="0.85" r="6.9301239085888415" /><circle cx="254.33951503672122" cy="667.2046117816609" fill="rgb(220,59,65)" opacity="0.85" r="6.9359847406625" /><circle cx="326.6463457738517" cy="103.50287218778635" fill="rgb(59,220,101)" opacity="0.85" r="6.941802948125764" /><circle cx="655.2889005440696" cy="569.6906202484906" fill="rgb(148,59,220)" opacity="0.85" r="6.9475791465045535" /><circle cx="96.04585198041417" cy="447.4892534696097" fill="rgb(220,195,59)" opacity="0.85" r="6.953313938087444" /><circle cx="592.7334571217214" cy="158.80880664622413" fill="rgb(59,198,220)" opacity="0.85" r="6.9590079123025355" /><circle cx="420.8790362231342" cy="709.1269432514704" fill="rgb(220,59,151)" opacity="0.85" r="6.964661646081009" /><circle cx="175.0050032634526" cy="185.41044621598752" fill="rgb(105,220,59)" opacity="0.85" r="6.970275704207926" /><circle cx="711.9424639616424" cy="406.27282068417196" fill="rgb(61,59,220)" opacity="0.85" r="6.9758506396608" /><circle cx="164.93327986111544" cy="606.802103802257" fill="rgb(220,108,59)" opacity="0.85" r="6.981386993936459" /><circle cx="433.75515006708696" cy="87.65389893591367" fill="rgb(59,220,155)" opacity="0.85" r="6.986885297366669" /><circle cx="586.7319467675911" cy="653.981694250726" fill="rgb(202,59,220)" opacity="0.85" r="6.9923460694229895" /><circle cx="89.69766078820368" cy="338.6485274026216" fill="rgb(191,220,59)" opacity="0.85" r="6.9977698190112925" /><circle cx="671.1617595665181" cy="235.07920382478986" fill="rgb(59,145,220)" opacity="0.85" r="7.003157044756367" /><circle cx="311.1582652832468" cy="705.7952566455033" fill="rgb(220,59,98)" opacity="0.85" r="7.008508235277005" /><circle cx="258.47918767251224" cy="113.5537110649974" fill="rgb(59,220,68)" opacity="0.85" r="7.013823869451939" /><circle cx="698.8288662644261" cy="516.004092193683" fill="rgb(115,59,220)" opacity="0.85" r="7.019104416677021" /><circle cx="100.31179802265063" cy="516.6989557204437" fill="rgb(220,162,59)" opacity="0.85" r="7.024350337113948" /><circle cx="542.6167247977033" cy="110.57270614067755" fill="rgb(59,220,209)" opacity="0.85" r="7.029562081930904" /><circle cx="490.63576448122876" cy="710.7553229982609" fill="rgb(220,59,185)" opacity="0.85" r="7.034740093535397" /><circle cx="122.36520922268102" cy="231.54033278858606" fill="rgb(138,220,59)" opacity="0.85" r="7.0398848057996295" /><circle cx="719.5316273710513" cy="336.47599202939523" fill="rgb(59,91,220)" opacity="0.85" r="7.044996644278647" /><circle cx="206.68335893021612" cy="663.5155796468854" fill="rgb(220,75,59)" opacity="0.85" r="7.050076026421574" /><circle cx="364.4327731995244" cy="74.08163482099235" fill="rgb(59,220,122)" opacity="0.85" r="7.055123361776185" /><circle cx="647.1535331693008" cy="616.9768729087518" fill="rgb(169,59,220)" opacity="0.85" r="7.060139052187061" /><circle cx="70.16494815811467" cy="406.97817052571094" fill="rgb(220,215,59)" opacity="0.85" r="7.0651234919875705" /><circle cx="639.2368828234764" cy="171.34831263157693" fill="rgb(59,178,220)" opacity="0.85" r="7.070077068185907" /><circle cx="377.9771451920555" cy="731.2203164930027" fill="rgb(220,59,131)" opacity="0.85" r="7.07500016064541" /><circle cx="191.8684079277827" cy="140.09777121925902" fill="rgb(84,220,59)" opacity="0.85" r="7.079893142259359" /><circle cx="730.0325999915017" cy="451.20971625246335" fill="rgb(82,59,220)" opacity="0.85" r="7.084756379120464" /><circle cx="121.21080820056937" cy="585.7325027660061" fill="rgb(220,129,59)" opacity="0.85" r="7.089590230685235" /><circle cx="480.3522469515391" cy="73.74930435347903" fill="rgb(59,220,175)" opacity="0.85" r="7.0943950499334045" /></g></svg>