<?xml version="1.0" encoding="utf-8" ?>
<svg baseProfile="full" height="800px" version="1.1" width="800px" xmlns="http://www.w3.org/2000/svg" xmlns:ev="http://www.w3.org/2001/xml-events" xmlns:xlink="http://www.w3.org/1999/xlink"><defs><filter id="phyllotaxisGlow"><feGaussianBlur in="SourceGraphic" result="blur" stdDeviation="2" /><feComposite in="SourceGraphic" in2="blur" operator="over" /></filter></defs><rect fill="#ffffff" height="800" width="800" x="0" y="0" /><g id="flowFieldGroup" opacity="0.25"><path d="M157.3,283.3 L160.9,280.4 L165.0,278.3 L169.4,276.9 L173.9,276.2 L178.5,276.4 L183.0,277.3 L187.4,278.7 L191.6,280.7 L195.5,283.0 L199.3,285.6 L203.0,288.4 L206.4,291.4 L209.8,294.5 L213.2,297.7 L216.5,300.9 L219.9,304.0 L223.3,307.1 L226.8,310.1 L230.3,313.0 L234.0,315.8 L237.7,318.5 L241.5,321.1 L245.3,323.7 L249.1,326.3 L252.9,328.9 L256.5,331.7 L260.1,334.6 L263.4,337.8 L266.5,341.2 L269.2,344.9" fill="none" opacity="0.4" stroke="rgb(76,93,178)" stroke-width="0.8" /><path d="M91.0,680.3 L95.5,680.0 L100.1,679.5 L104.6,678.7 L109.0,677.3 L113.1,675.1 L116.7,672.2 L119.5,668.6 L121.5,664.4 L122.7,660.0 L123.2,655.4 L123.0,650.8 L122.3,646.3 L121.1,641.8 L119.4,637.6 L117.2,633.5 L114.5,629.8 L111.3,626.5 L107.7,623.6 L103.7,621.3 L99.5,619.5 L95.1,618.1 L90.7,616.9 L86.2,615.9 L81.7,614.9 L77.3,613.7 L72.9,612.4 L68.6,610.7 L64.5,608.7 L60.6,606.2 L57.0,603.3" fill="none" opacity="0.4" stroke="rgb(76,93,178)" stroke-width="0.8" /><path d="M333.4,592.5 L337.9,593.3 L342.5,593.5 L347.1,593.3 L351.6,592.9 L356.2,592.3 L360.8,591.9 L365.4,591.8 L370.0,592.2 L374.5,593.3 L378.7,595.1 L382.5,597.6 L385.8,600.8 L388.6,604.5 L391.0,608.4 L393.1,612.5 L395.0,616.7 L396.8,620.9 L398.6,625.1 L400.6,629.3 L402.6,633.4 L404.9,637.5 L407.4,641.3 L410.1,645.0 L413.2,648.4 L416.6,651.5 L420.2,654.4 L424.0,657.0 L427.9,659.4 L431.9,661.7 L435.9,664.0" fill="none" opacity="0.4" stroke="rgb(76,93,178)" stroke-width="0.8" /><path d="M280.6,295.1 L277.9,298.8 L275.4,302.6 L273.1,306.6 L271.2,310.8 L269.7,315.2 L268.8,319.7 L268.5,324.3 L268.8,328.9 L269.6,333.4 L270.7,337.9 L271.9,342.3 L273.3,346.7 L274.5,351.1 L275.7,355.6 L276.8,360.0 L277.7,364.5 L278.6,369.0 L279.5,373.6 L280.3,378.1 L281.2,382.6 L282.2,387.1 L283.2,391.6 L284.4,396.0 L285.7,400.4 L287.2,404.8 L288.8,409.1 L290.7,413.3 L292.8,417.4 L295.2,421.3 L297.8,425.1" fill="none" opacity="0.4" stroke="rgb(76,93,178)" stroke-width="0.8" /><path d="M761.9,88.6 L758.9,92.1 L755.5,95.2 L751.8,98.0 L748.0,100.4 L744.0,102.7 L739.9,104.8 L735.8,106.9 L731.6,108.8 L727.4,110.7 L723.1,112.4 L718.8,113.9 L714.3,115.2 L709.8,116.1 L705.3,116.8 L700.7,117.0 L696.1,116.8 L691.6,116.1 L687.2,114.7 L683.0,112.8 L679.2,110.2 L675.9,107.0 L673.2,103.3 L671.2,99.1 L670.0,94.7 L669.3,90.2 L669.1,85.6 L669.1,81.0 L669.4,76.4 L669.8,71.8 L670.3,67.2" fill="none" opacity="0.4" stroke="rgb(76,93,178)" stroke-width="0.8" /><path d="M670.5,36.7 L671.7,32.2 L672.7,27.8 L673.7,23.3 L674.5,18.7 L675.4,14.2 L676.1,9.7 L676.9,5.1 L677.5,0.6" fill="none" opacity="0.4" stroke="rgb(76,93,178)" stroke-width="0.8" /><path d="M705.3,616.3 L709.9,616.1 L714.4,616.5 L718.9,617.5 L723.3,618.9 L727.6,620.5 L731.8,622.4 L736.0,624.4 L740.0,626.5 L744.0,628.9 L747.9,631.4 L751.6,634.0 L755.2,636.9 L758.6,640.0 L761.9,643.2 L764.9,646.7 L767.8,650.2 L770.6,653.9 L773.2,657.7 L775.8,661.5 L778.5,665.2 L781.4,668.8 L784.5,672.2 L787.9,675.3 L791.8,677.8 L796.0,679.7" fill="none" opacity="0.4" stroke="rgb(76,93,178)" stroke-width="0.8" /><path d="M724.3,660.9 L728.8,661.8 L733.2,663.3 L737.3,665.3 L741.1,667.9 L744.6,670.9 L747.7,674.2 L750.7,677.8 L753.5,681.4 L756.2,685.2 L758.9,688.9 L761.7,692.5 L764.6,696.1 L767.8,699.4 L771.3,702.4 L775.0,705.1 L779.0,707.3 L783.3,709.1 L787.7,710.5 L792.2,711.4 L796.7,712.0" fill="none" opacity="0.4" stroke="rgb(76,93,178)" stroke-width="0.8" /><path d="M449.2,552.6 L453.6,554.0 L457.9,555.5 L462.2,557.1 L466.5,558.7 L470.9,560.0 L475.4,561.1 L480.0,561.7 L484.6,561.9 L489.2,561.7 L493.8,561.2 L498.3,560.4 L502.8,559.5 L507.3,558.4 L511.7,557.4 L516.2,556.4 L520.7,555.5 L525.3,554.8 L529.9,554.2 L534.4,553.9 L539.0,553.7 L543.6,553.7 L548.2,554.0 L552.8,554.4 L557.4,555.0 L561.9,555.8 L566.4,556.6 L570.9,557.5 L575.5,558.4 L580.0,559.3 L584.5,560.0" fill="none" opacity="0.4" stroke="rgb(76,93,178)" stroke-width="0.8" /><path d="M318.1,61.7 L318.7,57.1 L320.1,52.7 L321.9,48.5 L324.2,44.5 L326.6,40.6 L329.1,36.7 L331.5,32.8 L333.7,28.8 L335.7,24.6 L337.3,20.3 L338.6,15.9 L339.6,11.4 L340.4,6.9 L340.9,2.3" fill="none" opacity="0.4" stroke="rgb(76,93,178)" stroke-width="0.8" /><path d="M556.2,569.8 L560.5,571.4 L564.7,573.3 L568.8,575.4 L572.8,577.8 L576.7,580.2 L580.5,582.7 L584.4,585.3 L588.2,587.9 L591.9,590.5 L595.7,593.2 L599.3,595.9 L602.9,598.9 L606.1,602.2 L608.9,605.8 L611.1,609.8 L612.4,614.3 L612.6,618.9 L611.7,623.4 L610.0,627.7 L607.8,631.7 L605.2,635.5 L602.5,639.2 L599.8,642.9 L597.2,646.7 L594.7,650.6 L592.3,654.5 L590.2,658.6 L588.1,662.7 L586.1,666.8 L584.2,671.0" fill="none" opacity="0.4" stroke="rgb(76,93,178)" stroke-width="0.8" /><path d="M326.3,75.0 L324.5,70.8 L323.3,66.4 L322.8,61.8 L323.1,57.2 L324.0,52.7 L325.4,48.3 L327.2,44.1 L329.3,40.0 L331.4,35.9 L333.4,31.8 L335.3,27.6 L336.9,23.3 L338.3,18.9 L339.3,14.4 L340.1,9.9 L340.7,5.3 L341.1,0.7" fill="none" opacity="0.4" stroke="rgb(76,93,178)" stroke-width="0.8" /><path d="M258.7,476.3 L255.9,472.7 L253.2,469.0 L250.5,465.2 L247.8,461.5 L245.0,457.9 L241.8,454.6 L238.2,451.7 L234.2,449.4 L229.8,448.0 L225.3,447.5 L220.7,447.9 L216.3,449.2 L212.1,451.3 L208.3,453.9 L204.9,456.9 L201.9,460.3 L199.1,464.1 L196.7,468.0 L194.5,472.0 L192.6,476.2 L190.7,480.4 L188.9,484.6 L187.0,488.8 L185.0,493.0 L182.9,497.1 L180.6,501.0 L178.0,504.8 L175.2,508.4 L172.0,511.8 L168.6,514.9" fill="none" opacity="0.4" stroke="rgb(76,93,178)" stroke-width="0.8" /><path d="M766.8,466.5 L768.0,470.9 L767.8,475.5 L766.5,479.9 L764.4,484.0 L761.7,487.7 L758.8,491.3 L755.7,494.7 L752.5,498.0 L749.2,501.2 L745.9,504.4 L742.5,507.5 L739.1,510.6 L735.5,513.5 L731.9,516.3 L728.1,518.9 L724.2,521.3 L720.2,523.6 L716.1,525.7 L711.9,527.6 L707.7,529.5 L703.5,531.3 L699.3,533.2 L695.1,535.2 L691.1,537.3 L687.1,539.6 L683.3,542.2 L679.6,545.0 L676.2,548.1 L673.1,551.5 L670.3,555.2" fill="none" opacity="0.4" stroke="rgb(76,93,178)" stroke-width="0.8" /><path d="M285.5,319.4 L282.9,323.2 L280.7,327.2 L278.9,331.5 L277.6,335.9 L276.8,340.4 L276.5,345.0 L276.5,349.6 L276.9,354.2 L277.4,358.8 L278.0,363.3 L278.7,367.9 L279.4,372.4 L280.2,376.9 L281.1,381.5 L282.0,386.0 L283.0,390.5 L284.1,394.9 L285.4,399.3 L286.8,403.7 L288.4,408.0 L290.2,412.3 L292.3,416.4 L294.6,420.4 L297.1,424.2 L299.9,427.8 L303.0,431.3 L306.2,434.5 L309.7,437.6 L313.3,440.4 L316.9,443.2" fill="none" opacity="0.4" stroke="rgb(76,93,178)" stroke-width="0.8" /><path d="M716.2,27.9 L711.9,29.5 L707.3,30.0 L702.8,29.3 L698.6,27.4 L695.0,24.5 L692.1,20.9 L689.9,16.9 L688.3,12.5 L687.1,8.1 L686.3,3.6" fill="none" opacity="0.4" stroke="rgb(76,93,178)" stroke-width="0.8" /><path d="M363.1,67.5 L359.4,64.7 L356.1,61.6 L353.1,58.1 L350.4,54.4 L348.0,50.5 L346.0,46.3 L344.5,42.0 L343.3,37.5 L342.4,33.0 L341.9,28.4 L341.6,23.9 L341.5,19.3 L341.5,14.7 L341.5,10.1 L341.6,5.5 L341.7,0.9" fill="none" opacity="0.4" stroke="rgb(76,93,178)" stroke-width="0.8" /><path d="M398.8,673.7 L403.4,673.7 L408.0,673.3 L412.5,672.8 L417.1,672.1 L421.6,671.5 L426.2,671.1 L430.8,671.0 L435.4,671.4 L439.9,672.3 L444.2,673.8 L448.3,676.0 L452.0,678.7 L455.4,681.9 L458.3,685.4 L461.0,689.2 L463.3,693.1 L465.5,697.1 L467.6,701.3 L469.6,705.4 L471.5,709.6 L473.4,713.8 L475.4,717.9 L477.4,722.1 L479.4,726.2 L481.5,730.3 L483.6,734.4 L485.8,738.4 L487.9,742.5 L490.0,746.6 L492.0,750.8" fill="none" opacity="0.4" stroke="rgb(76,93,178)" stroke-width="0.8" /><path d="M99.3,630.3 L96.3,626.7 L92.8,623.7 L88.9,621.3 L84.8,619.3 L80.6,617.5 L76.3,615.7 L72.1,614.0 L67.9,612.0 L63.9,609.7 L60.1,607.1 L56.7,604.0 L53.6,600.6 L50.9,596.9 L48.8,592.8 L47.0,588.6 L45.6,584.2 L44.4,579.7 L43.5,575.2 L42.6,570.7 L41.8,566.2 L41.0,561.7 L40.2,557.1 L39.3,552.6 L38.3,548.1 L37.2,543.7 L36.0,539.2 L34.7,534.8 L33.4,530.4 L32.0,526.0 L30.6,521.6" fill="none" opacity="0.4" stroke="rgb(76,93,178)" stroke-width="0.8" /><path d="M35.5,322.7 L39.5,320.5 L43.4,318.0 L47.0,315.1 L50.5,312.1 L53.8,308.9 L57.1,305.7 L60.4,302.5 L63.7,299.4 L67.3,296.4 L71.0,293.8 L75.0,291.5 L79.3,289.7 L83.7,288.4 L88.2,287.6 L92.8,287.3 L97.4,287.4 L102.0,287.7 L106.6,288.0 L111.2,288.3 L115.8,288.3 L120.4,288.0 L124.9,287.3 L129.4,286.2 L133.7,284.8 L138.0,283.0 L142.2,281.2 L146.4,279.3 L150.6,277.5 L155.0,276.0 L159.4,274.8" fill="none" opacity="0.4" stroke="rgb(76,93,178)" stroke-width="0.8" /></g><g id="phyllotaxisGroup"><circle cx="380.7121532304482" cy="417.6691015281613" fill="rgb(220,102,59)" opacity="0.85" r="3.0" /><circle cx="403.23438936002043" cy="363.1492864505428" fill="rgb(59,220,149)" opacity="0.85" r="3.5545177444479563" /><circle cx="427.5656272352706" cy="435.9553993244499" fill="rgb(196,59,220)" opacity="0.85" r="3.8788898309344875" /><circle cx="348.48473705017625" cy="390.886800206116" fill="rgb(197,220,59)" opacity="0.85" r="4.109035488895913" /><circle cx="449.351971550823" cy="368.6077427836469" fill="rgb(59,150,220)" opacity="0.85" r="4.287550329947281" /><circle cx="383.36492602388523" cy="461.8755477124711" fill="rgb(220,59,103)" opacity="0.85" r="4.433407575382444" /><circle cx="368.10404965172546" cy="338.5819601085505" fill="rgb(59,220,62)" opacity="0.85" r="4.556728119244251" /><circle cx="469.49462921814245" cy="425.3819219992963" fill="rgb(109,59,220)" opacity="0.85" r="4.663553233343869" /><circle cx="327.46300473943364" cy="429.93907070922893" fill="rgb(220,156,59)" opacity="0.85" r="4.757779661868976" /><circle cx="435.0625586958886" cy="325.0813855181558" fill="rgb(59,220,203)" opacity="0.85" r="4.842068074395237" /><circle cx="425.9605700558925" cy="482.77951922047566" fill="rgb(220,59,190)" opacity="0.85" r="4.918316218238696" /><circle cx="321.6033278615402" cy="354.5623506392218" fill="rgb(144,220,59)" opacity="0.85" r="4.9879253198304" /><circle cx="492.11375942558936" cy="379.7542180165594" fill="rgb(59,97,220)" opacity="0.85" r="5.051959485969229" /><circle cx="343.7059458445832" cy="480.06268801508946" fill="rgb(220,69,59)" opacity="0.85" r="5.111245863692208" /><circle cx="386.98706930225944" cy="299.5314160449719" fill="rgb(59,220,116)" opacity="0.85" r="5.166440160881768" /><circle cx="480.0009787221654" cy="467.4339255314901" fill="rgb(163,59,220)" opacity="0.85" r="5.218070977791825" /><circle cx="292.24138527685784" cy="404.4486002133819" fill="rgb(220,210,59)" opacity="0.85" r="5.266570675244973" /><circle cx="478.6696689158673" cy="321.7247774490861" fill="rgb(59,184,220)" opacity="0.85" r="5.312297406316931" /><circle cx="394.724423688758" cy="513.8960655559696" fill="rgb(220,59,137)" opacity="0.85" r="5.355551183333152" /><circle cx="325.0571234609122" cy="310.17834953414246" fill="rgb(90,220,59)" opacity="0.85" r="5.396585818843192" /><circle cx="518.7971359292236" cy="415.9944463235023" fill="rgb(76,59,220)" opacity="0.85" r="5.435617950178738" /><circle cx="299.2826634044307" cy="470.06295818115876" fill="rgb(220,123,59)" opacity="0.85" r="5.472833962686654" /><circle cx="427.5449312084843" cy="277.61415544868737" fill="rgb(59,220,170)" opacity="0.85" r="5.50839537274332" /><circle cx="463.7004389534079" cy="511.19123365076723" fill="rgb(217,59,220)" opacity="0.85" r="5.542443064278357" /><circle cx="275.40347917372264" cy="360.2361779573243" fill="rgb(177,220,59)" opacity="0.85" r="5.575100659894561" /><circle cx="521.08529305022" cy="344.0712548485569" fill="rgb(59,130,220)" opacity="0.85" r="5.606477230417186" /><circle cx="347.513141891543" cy="525.3755184834488" fill="rgb(220,59,83)" opacity="0.85" r="5.636669492803463" /><circle cx="353.16888349942764" cy="269.75041029539125" fill="rgb(59,220,83)" opacity="0.85" r="5.665763608140163" /><circle cx="524.6824318137609" cy="465.5485962453366" fill="rgb(130,59,220)" opacity="0.85" r="5.693836663989179" /><circle cx="261.4568445418967" cy="436.5012264212764" fill="rgb(220,177,59)" opacity="0.85" r="5.720957905329724" /><circle cx="478.7827895040543" cy="277.5090382341476" fill="rgb(59,217,220)" opacity="0.85" r="5.747189763588118" /><circle cx="425.043294839212" cy="545.8348902073099" fill="rgb(220,59,170)" opacity="0.85" r="5.772588722239782" /><circle cx="281.2104872010879" cy="307.9768961130027" fill="rgb(123,220,59)" opacity="0.85" r="5.797206049173184" /><circle cx="552.0044972861266" cy="387.42816693516363" fill="rgb(59,76,220)" opacity="0.85" r="5.821088419692929" /><circle cx="294.8959370558731" cy="513.5815667979333" fill="rgb(220,90,59)" opacity="0.85" r="5.844278449191531" /><circle cx="400.78889023836916" cy="243.05659555863343" fill="rgb(59,220,136)" opacity="0.85" r="5.866815150764888" /><circle cx="506.8858617510811" cy="517.8621452587789" fill="rgb(183,59,220)" opacity="0.85" r="5.88873433011538" /><circle cx="239.44435874218135" cy="385.09439805369936" fill="rgb(210,220,59)" opacity="0.85" r="5.910068927781109" /><circle cx="530.1369810749709" cy="301.26360727876596" fill="rgb(59,163,220)" opacity="0.85" r="5.930849316903718" /><circle cx="370.3630467101028" cy="562.7586503766229" fill="rgb(220,59,116)" opacity="0.85" r="5.951103563291149" /><circle cx="310.8177528864112" cy="258.22739244016054" fill="rgb(69,220,59)" opacity="0.85" r="5.9708576533634465" /><circle cx="563.4840144968372" cy="444.8345920061906" fill="rgb(96,59,220)" opacity="0.85" r="5.990135694626694" /><circle cx="247.38124923671324" cy="478.28728334560844" fill="rgb(220,143,59)" opacity="0.85" r="6.00896009255485" /><circle cx="460.3443516119641" cy="237.32191534035184" fill="rgb(59,220,190)" opacity="0.85" r="6.027351707134609" /><circle cx="466.129660666926" cy="562.5321080952789" fill="rgb(220,59,203)" opacity="0.85" r="6.045329991816256" /><circle cx="239.69750189220193" cy="323.99246442598104" fill="rgb(156,220,59)" opacity="0.85" r="6.062913117191276" /><circle cx="571.3776091770724" cy="347.1987725691418" fill="rgb(59,109,220)" opacity="0.85" r="6.080118081368047" /><circle cx="308.3377233213971" cy="556.3345763462709" fill="rgb(220,59,62)" opacity="0.85" r="6.096960808726313" /><circle cx="361.5932247810216" cy="220.9703641114975" fill="rgb(59,220,103)" opacity="0.85" r="6.113456238488501" /><circle cx="550.7675960634697" cy="507.1449535356263" fill="rgb(150,59,220)" opacity="0.85" r="6.1296184043425175" /><circle cx="214.62681526954628" cy="423.06316664329455" fill="rgb(220,197,59)" opacity="0.85" r="6.145460506179461" /><circle cx="522.2916472387979" cy="256.3890725948513" fill="rgb(59,196,220)" opacity="0.85" r="6.160994974865142" /><circle cx="406.8983452569" cy="590.3049565016115" fill="rgb(220,59,149)" opacity="0.85" r="6.176233530841698" /><circle cx="265.1099642111476" cy="263.06037803811506" fill="rgb(102,220,59)" opacity="0.85" r="6.19118723725142" /><circle cx="593.7343599115788" cy="409.9497632962204" fill="rgb(63,59,220)" opacity="0.85" r="6.205866548185977" /><circle cx="249.07118615334318" cy="524.6463450433241" fill="rgb(220,110,59)" opacity="0.85" r="6.22028135258812" /><circle cx="427.3344490291273" cy="204.41558277840636" fill="rgb(59,220,157)" opacity="0.85" r="6.23444101426764" /><circle cx="512.9369611785943" cy="564.1033130232271" fill="rgb(204,59,220)" opacity="0.85" r="6.248354408437136" /><circle cx="204.2074386144035" cy="354.8984963294995" fill="rgb(189,220,59)" opacity="0.85" r="6.262029955124576" /><circle cx="576.3128240608894" cy="300.1657424489731" fill="rgb(59,143,220)" opacity="0.85" r="6.275475649777681" /><circle cx="336.90941623901546" cy="594.3113155006864" fill="rgb(220,59,96)" opacity="0.85" r="6.28869909133865" /><circle cx="314.57467641056303" cy="212.5859093814788" fill="rgb(59,220,70)" opacity="0.85" r="6.301707508036074" /><circle cx="591.1088466933281" cy="481.1366388883067" fill="rgb(117,59,220)" opacity="0.85" r="6.314507781113226" /><circle cx="202.72772942438263" cy="469.81128059493005" fill="rgb(220,164,59)" opacity="0.85" r="6.327106466687738" /><circle cx="499.0713926117584" cy="213.8306121185638" fill="rgb(59,220,211)" opacity="0.85" r="6.339509815916509" /><circle cx="453.1064694162462" cy="605.7622484960284" fill="rgb(220,59,183)" opacity="0.85" r="6.35172379362114" /><circle cx="220.50647782933612" cy="283.2751368362867" fill="rgb(136,220,59)" opacity="0.85" r="6.363754095512773" /><circle cx="612.7698729172197" cy="364.5624839692937" fill="rgb(59,89,220)" opacity="0.85" r="6.375606164140885" /><circle cx="266.0730893497914" cy="571.0983259682736" fill="rgb(220,77,59)" opacity="0.85" r="6.387285203677807" /><circle cx="383.0577177774721" cy="181.80689332528178" fill="rgb(59,220,124)" opacity="0.85" r="6.3987961936394875" /><circle cx="561.0173682289479" cy="550.5087972103768" fill="rgb(171,59,220)" opacity="0.85" r="6.410143901633052" /><circle cx="178.05692073363193" cy="397.7687096397459" fill="rgb(220,218,59)" opacity="0.85" r="6.421332895212844" /><circle cx="566.304746441295" cy="250.69943542027772" fill="rgb(59,176,220)" opacity="0.85" r="6.432367552918713" /><circle cx="378.0735665219601" cy="623.9450311337105" fill="rgb(220,59,129)" opacity="0.85" r="6.443252074563336" /><circle cx="263.98611359948853" cy="218.8465116466359" fill="rgb(82,220,59)" opacity="0.85" r="6.453990490829048" /><circle cx="624.1391406855546" cy="441.97889268338304" fill="rgb(84,59,220)" opacity="0.85" r="6.464586672229065" /><circle cx="205.1002238058018" cy="521.2389262549428" fill="rgb(220,131,59)" opacity="0.85" r="6.475044337482947" /><circle cx="462.2183437639714" cy="177.51877409298893" fill="rgb(59,220,178)" opacity="0.85" r="6.485367061351674" /><circle cx="505.0723223656528" cy="607.3958616663426" fill="rgb(220,59,216)" opacity="0.85" r="6.495558281973617" /><circle cx="181.05668651991925" cy="317.5301265441878" fill="rgb(169,220,59)" opacity="0.85" r="6.505621307739105" /><circle cx="618.502915365414" cy="312.37495389965557" fill="rgb(59,122,220)" opacity="0.85" r="6.515559323737952" /><circle cx="297.44448799698705" cy="613.5140694822962" fill="rgb(220,59,75)" opacity="0.85" r="6.525375397811403" /><circle cx="330.97844232972267" cy="171.90762032089347" fill="rgb(59,220,91)" opacity="0.85" r="6.535072486237279" /><circle cx="606.1990869198069" cy="522.2958046139164" fill="rgb(138,59,220)" opacity="0.85" r="6.544653439074651" /><circle cx="163.95275808937632" cy="449.3988364329868" fill="rgb(220,184,59)" opacity="0.85" r="6.554121005192254" /><circle cx="541.5114084481316" cy="202.97897341808996" fill="rgb(59,209,220)" opacity="0.85" r="6.5634778370028055" /><circle cx="428.90529332623606" cy="642.2632160190773" fill="rgb(220,59,162)" opacity="0.85" r="6.572726494923668" /><circle cx="213.98039103388294" cy="239.9752985314676" fill="rgb(115,220,59)" opacity="0.85" r="6.581869451582566" /><circle cx="646.6498220991441" cy="392.30042596770613" fill="rgb(59,68,220)" opacity="0.85" r="6.590909095785712" /><circle cx="222.33861069041888" cy="573.2514563062193" fill="rgb(220,97,59)" opacity="0.85" r="6.599847736264213" /><circle cx="414.0507375287036" cy="150.86864645261122" fill="rgb(59,220,144)" opacity="0.85" r="6.60868760521348" /><circle cx="558.7897850306125" cy="594.2520962491901" fill="rgb(191,59,220)" opacity="0.85" r="6.6174308616392326" /><circle cx="150.3522772236512" cy="363.8294951421157" fill="rgb(202,220,59)" opacity="0.85" r="6.626079594522605" /><circle cx="609.6339264270845" cy="257.27604972649874" fill="rgb(59,155,220)" opacity="0.85" r="6.634635825816003" /><circle cx="341.5214976613062" cy="648.1551773325527" fill="rgb(220,59,108)" opacity="0.85" r="6.643101513280433" /><circle cx="274.8411546525602" cy="176.34801837264865" fill="rgb(61,220,59)" opacity="0.85" r="6.651478553174269" /><circle cx="644.6268793430386" cy="480.7889444122777" fill="rgb(104,59,220)" opacity="0.85" r="6.659768782802706" /><circle cx="163.83917776405497" cy="506.21416035079415" fill="rgb(220,151,59)" opacity="0.85" r="6.6679739829364575" /><circle cx="502.9130677430745" cy="160.94665765208515" fill="rgb(59,220,198)" opacity="0.85" r="6.676095880107672" /></g><g filter="url(#phyllotaxisGlow)" id="phyllotaxisGlowGroup"><circle cx="486.0235053179937" cy="647.0258583926454" fill="rgb(220,59,195)" opacity="0.85" r="6.684136148790474" /><circle cx="168.55727923523418" cy="275.3392468792242" fill="rgb(148,220,59)" opacity="0.85" r="6.692096413473008" /><circle cx="656.1246588782941" cy="335.2665954863175" fill="rgb(59,101,220)" opacity="0.85" r="6.699978250627417" /><circle cx="254.15782657429654" cy="621.8209484646114" fill="rgb(220,64,59)" opacity="0.85" r="6.707783190583709" /><circle cx="357.49783038660007" cy="136.6518340917395" fill="rgb(59,220,111)" opacity="0.85" r="6.715512719313098" /><circle cx="610.2317242082437" cy="566.2694536808793" fill="rgb(158,59,220)" opacity="0.85" r="6.723168280126019" /><circle cx="131.3981952634092" cy="419.49866059434953" fill="rgb(220,205,59)" opacity="0.85" r="6.730751275289654" /><circle cx="585.7583290275352" cy="203.2636570141565" fill="rgb(59,188,220)" opacity="0.85" r="6.738263067569525" /><circle cx="395.90094417014603" cy="671.8064778066694" fill="rgb(220,59,141)" opacity="0.85" r="6.745704981699376" /><circle cx="218.58662638926978" cy="195.87021360576637" fill="rgb(95,220,59)" opacity="0.85" r="6.7530783057833155" /><circle cx="672.8994341065501" cy="428.10513946460264" fill="rgb(71,59,220)" opacity="0.85" r="6.760384292633933" /><circle cx="178.7883243166913" cy="564.358184229447" fill="rgb(220,118,59)" opacity="0.85" r="6.767624161049867" /><circle cx="452.3274899697494" cy="128.1649946068348" fill="rgb(59,220,165)" opacity="0.85" r="6.774799097036075" /><circle cx="545.6823187135592" cy="636.8402764727646" fill="rgb(212,59,220)" opacity="0.85" r="6.781910254969873" /><circle cx="131.41479796897994" cy="323.43067208582227" fill="rgb(182,220,59)" opacity="0.85" r="6.788958758715596" /><circle cx="650.8618065252618" cy="274.487271816867" fill="rgb(59,135,220)" opacity="0.85" r="6.7959457026906005" /><circle cx="299.36916946053145" cy="663.1401623390962" fill="rgb(220,59,88)" opacity="0.85" r="6.802872152885092" /><circle cx="296.0091368332116" cy="136.86614119320643" fill="rgb(59,220,78)" opacity="0.85" r="6.809739147838205" /><circle cx="655.5084505450161" cy="524.3108086798189" fill="rgb(125,59,220)" opacity="0.85" r="6.816547699572532" /><circle cx="126.47324575687588" cy="481.27163311749825" fill="rgb(220,172,59)" opacity="0.85" r="6.823298794489224" /><circle cx="547.4084108544645" cy="154.2828003017631" fill="rgb(59,220,219)" opacity="0.85" r="6.829993394225637" /><circle cx="457.5222411677447" cy="681.9247980775012" fill="rgb(220,59,175)" opacity="0.85" r="6.836632436477393" /><circle cx="166.18790281621366" cy="230.2751597663504" fill="rgb(128,220,59)" opacity="0.85" r="6.843216835786606" /><circle cx="688.2274284345993" cy="367.0790968894487" fill="rgb(59,81,220)" opacity="0.85" r="6.849747484297934" /><circle cx="208.93493001727964" cy="619.8572117942751" fill="rgb(220,85,59)" opacity="0.85" r="6.85622525248403" /><circle cx="392.3445393734594" cy="107.64975346364383" fill="rgb(59,220,132)" opacity="0.85" r="6.862650989841841" /><circle cx="603.9346626493627" cy="611.2395424137762" fill="rgb(179,59,220)" opacity="0.85" r="6.869025525561183" /><circle cx="105.77408105065001" cy="381.92189973145355" fill="rgb(215,220,59)" opacity="0.85" r="6.875349669166873" /><circle cx="630.0658374204966" cy="213.855868411779" fill="rgb(59,168,220)" opacity="0.85" r="6.881624211135694" /><circle cx="355.9227862856661" cy="693.804943262918" fill="rgb(220,59,121)" opacity="0.85" r="6.8878499234893376" /><circle cx="233.3977780104599" cy="152.62970415890342" fill="rgb(74,220,59)" opacity="0.85" r="6.894027560364465" /><circle cx="691.0562696942683" cy="470.1343688204236" fill="rgb(92,59,220)" opacity="0.85" r="6.900157858560921" /><circle cx="137.0104163157731" cy="545.4416682852512" fill="rgb(220,139,59)" opacity="0.85" r="6.9062415380690965" /><circle cx="496.03880152112737" cy="114.0322277175211" fill="rgb(59,220,185)" opacity="0.85" r="6.912279302577403" /><circle cx="522.8104017166321" cy="676.7721835622863" fill="rgb(220,59,208)" opacity="0.85" r="6.918271839960729" /><circle cx="121.45343544177001" cy="278.42177037700225" fill="rgb(161,220,59)" opacity="0.85" r="6.924219822750744" /><circle cx="688.5798002026538" cy="301.12952087569727" fill="rgb(59,114,220)" opacity="0.85" r="6.9301239085888415" /><circle cx="253.45938325137382" cy="668.8191558502169" fill="rgb(220,59,67)" opacity="0.85" r="6.9359847406625" /><circle cx="326.20311724367" cy="101.71133245401762" fill="rgb(59,220,99)" opacity="0.85" r="6.941802948125764" /><circle cx="656.8314457022287" cy="570.7159505471893" fill="rgb(145,59,220)" opacity="0.85" r="6.9475791465045535" /><circle cx="94.20925431270996" cy="447.77620021052957" fill="rgb(220,192,59)" opacity="0.85" r="6.953313938087444" /><circle cx="593.8980203301679" cy="157.35144478401395" fill="rgb(59,201,220)" opacity="0.85" r="6.9590079123025355" /><circle cx="421.00519468973573" cy="710.9947967639139" fill="rgb(220,59,154)" opacity="0.85" r="6.964661646081009" /><circle cx="173.64550450699926" cy="184.11382079876174" fill="rgb(107,220,59)" opacity="0.85" r="6.970275704207926" /><circle cx="713.8273298386264" cy="406.3107232688662" fill="rgb(59,60,220)" opacity="0.85" r="6.9758506396608" /><circle cx="163.51292421611163" cy="608.0516747128506" fill="rgb(220,105,59)" opacity="0.85" r="6.981386993936459" /><circle cx="433.95911053378944" cy="85.7665941418569" fill="rgb(59,220,152)" opacity="0.85" r="6.986885297366669" /><circle cx="587.860246743603" cy="655.5163408095563" fill="rgb(199,59,220)" opacity="0.85" r="6.9923460694229895" /><circle cx="87.82270512073632" cy="338.27782026729636" fill="rgb(194,220,59)" opacity="0.85" r="6.9977698190112925" /><circle cx="672.8002141111764" cy="234.08269447762413" fill="rgb(59,147,220)" opacity="0.85" r="7.003157044756367" /><circle cx="310.6214523335349" cy="707.6429789378602" fill="rgb(220,59,100)" opacity="0.85" r="7.008508235277005" /><circle cx="257.62406924249325" cy="111.8229020281467" fill="rgb(59,220,65)" opacity="0.85" r="7.013823869451939" /><circle cx="700.6344951804973" cy="516.7050296428188" fill="rgb(112,59,220)" opacity="0.85" r="7.019104416677021" /><circle cx="98.50097669852585" cy="517.404091778945" fill="rgb(220,159,59)" opacity="0.85" r="7.024350337113948" /><circle cx="543.4784651155956" cy="108.82388482557013" fill="rgb(59,220,206)" opacity="0.85" r="7.029562081930904" /><circle cx="491.1834175885852" cy="712.6330157527894" fill="rgb(220,59,187)" opacity="0.85" r="7.034740093535397" /><circle cx="120.68764235104112" cy="230.5224403402725" fill="rgb(140,220,59)" opacity="0.85" r="7.0398848057996295" /><circle cx="721.4623496375873" cy="336.09215767266016" fill="rgb(59,94,220)" opacity="0.85" r="7.044996644278647" /><circle cx="205.5152719196243" cy="665.1078332882208" fill="rgb(220,72,59)" opacity="0.85" r="7.050076026421574" /><circle cx="364.21786352905576" cy="72.11232164250868" fill="rgb(59,220,119)" opacity="0.85" r="7.055123361776185" /><circle cx="648.6469215818001" cy="618.2879233462155" fill="rgb(166,59,220)" opacity="0.85" r="7.060139052187061" /><circle cx="68.1719689838319" cy="407.02033508176606" fill="rgb(220,213,59)" opacity="0.85" r="7.0651234919875705" /><circle cx="640.6824360553874" cy="169.96671886661733" fill="rgb(59,180,220)" opacity="0.85" r="7.070077068185907" /><circle cx="377.84407537201855" cy="733.221665922615" fill="rgb(220,59,134)" opacity="0.85" r="7.07500016064541" /><circle cx="190.61080378233518" cy="138.52735071235054" fill="rgb(87,220,59)" opacity="0.85" r="7.079893142259359" /><circle cx="732.0267728210551" cy="451.5191433356134" fill="rgb(79,59,220)" opacity="0.85" r="7.084756379120464" /></g></svg>