<?xml version="1.0" encoding="utf-8" ?>
<svg baseProfile="full" height="800px" version="1.1" width="800px" xmlns="http://www.w3.org/2000/svg" xmlns:ev="http://www.w3.org/2001/xml-events" xmlns:xlink="http://www.w3.org/1999/xlink"><defs><filter id="phyllotaxisGlow"><feGaussianBlur in="SourceGraphic" result="blur" stdDeviation="2" /><feComposite in="SourceGraphic" in2="blur" operator="over" /></filter></defs><rect fill="#ffffff" height="800" width="800" x="0" y="0" /><g id="flowFieldGroup" opacity="0.25"><path d="M506.6,2.6 L511.2,2.4 L515.7,3.3 L519.8,5.3 L523.6,8.0 L527.1,10.9 L530.7,13.8 L534.6,16.3 L538.7,18.2 L543.2,19.4 L547.8,19.6 L552.3,18.9 L556.6,17.2 L560.4,14.6 L563.4,11.1 L565.6,7.1 L567.1,2.7" fill="none" opacity="0.4" stroke="rgb(76,83,178)" stroke-width="0.8" /><path d="M799.7,353.2 L796.4,350.0 L793.4,346.5 L790.2,343.2 L786.6,340.3 L782.6,338.1 L778.2,336.7 L773.6,336.2 L769.0,336.5 L764.5,337.4 L760.2,338.9 L756.1,341.1 L752.5,343.8 L749.3,347.2 L746.9,351.1 L744.9,355.3 L743.3,359.6 L741.7,363.9 L740.0,368.2 L737.7,372.2 L734.8,375.7 L731.1,378.5 L726.8,380.2 L722.2,380.7 L717.7,379.9 L713.5,377.9 L710.1,374.9 L707.4,371.2 L705.6,367.0 L704.4,362.5 L703.4,358.0" fill="none" opacity="0.4" stroke="rgb(76,83,178)" stroke-width="0.8" /><path d="M365.2,120.1 L364.7,115.6 L364.6,111.0 L364.6,106.4 L364.6,101.8 L364.6,97.2 L364.5,92.6 L364.3,88.0 L364.2,83.4 L364.1,78.8 L364.1,74.2 L364.4,69.6 L365.2,65.0 L366.5,60.6 L368.7,56.6 L371.8,53.1 L375.6,50.7 L380.0,49.3 L384.6,49.0 L389.2,49.3 L393.8,50.0 L398.3,50.6 L402.9,50.9 L407.5,50.5 L411.8,49.0 L415.6,46.3 L418.4,42.7 L420.3,38.5 L421.5,34.0 L422.5,29.5 L423.2,25.0" fill="none" opacity="0.4" stroke="rgb(76,83,178)" stroke-width="0.8" /><path d="M411.3,461.2 L414.3,464.7 L417.0,468.4 L419.4,472.4 L421.4,476.5 L422.9,480.8 L424.2,485.3 L425.2,489.8 L426.1,494.3 L427.1,498.8 L428.2,503.2 L429.7,507.6 L431.6,511.8 L434.2,515.6 L437.3,518.9 L441.1,521.6 L445.2,523.6 L449.6,525.1 L454.0,526.3 L458.4,527.5 L462.8,529.0 L466.9,531.0 L470.7,533.6 L474.1,536.8 L476.8,540.5 L479.1,544.5 L481.1,548.6 L483.2,552.7 L485.4,556.7 L488.3,560.3 L491.9,563.2" fill="none" opacity="0.4" stroke="rgb(76,83,178)" stroke-width="0.8" /><path d="M343.7,177.5 L347.3,174.7 L349.4,170.6 L350.5,166.1 L351.2,161.5 L351.9,157.0 L352.6,152.4 L353.5,147.9 L354.6,143.5 L355.9,139.0 L357.3,134.7 L358.7,130.3 L360.0,125.9 L361.3,121.4 L362.3,117.0 L363.1,112.4 L363.7,107.9 L364.1,103.3 L364.2,98.7 L364.3,94.1 L364.2,89.5 L364.1,84.9 L364.0,80.3 L364.0,75.7 L364.2,71.1 L364.8,66.5 L365.9,62.1 L367.8,57.9 L370.5,54.2 L374.2,51.4 L378.4,49.6" fill="none" opacity="0.4" stroke="rgb(76,83,178)" stroke-width="0.8" /><path d="M629.4,529.7 L633.9,528.7 L638.4,528.0 L643.0,527.6 L647.6,527.6 L652.2,528.1 L656.7,529.2 L661.0,530.7 L665.2,532.5 L669.5,534.3 L673.8,535.8 L678.4,536.4 L683.0,536.1 L687.3,534.7 L691.5,532.7 L695.5,530.5 L699.8,528.7 L704.2,527.4 L708.7,526.8 L713.3,526.8 L717.9,527.3 L722.4,528.2 L726.9,529.3 L731.3,530.4 L735.8,531.5 L740.4,532.2 L745.0,532.2 L749.4,531.0 L753.4,528.7 L756.4,525.2 L758.4,521.1" fill="none" opacity="0.4" stroke="rgb(76,83,178)" stroke-width="0.8" /><path d="M87.5,723.8 L82.9,723.9 L78.3,724.1 L73.7,724.1 L69.2,723.7 L64.7,722.6 L60.5,720.7 L57.0,717.7 L54.2,714.0 L52.3,709.8 L51.0,705.4 L50.1,700.9 L49.3,696.4 L48.4,691.9 L47.5,687.4 L46.4,682.9 L44.9,678.6 L43.0,674.4 L40.5,670.5 L37.4,667.1 L33.9,664.1 L30.2,661.4 L26.4,658.9 L22.7,656.1 L19.5,652.8 L17.1,648.9 L15.7,644.5 L15.1,639.9 L15.2,635.3 L15.8,630.8 L16.7,626.3" fill="none" opacity="0.4" stroke="rgb(76,83,178)" stroke-width="0.8" /><path d="M457.5,700.6 L453.6,698.2 L449.9,695.5 L446.4,692.5 L443.1,689.3 L440.1,685.9 L437.6,682.0 L435.8,677.8 L435.0,673.2 L435.5,668.6 L437.2,664.4 L440.1,660.8 L443.9,658.3 L448.4,657.2 L453.0,657.5 L457.4,658.9 L461.4,661.2 L465.1,663.9 L468.6,666.9 L471.9,670.0 L475.2,673.2 L478.6,676.4 L482.1,679.4 L485.7,682.2 L489.5,684.9 L493.3,687.5 L497.1,690.0 L500.8,692.8 L504.2,695.8 L507.2,699.3 L509.7,703.2" fill="none" opacity="0.4" stroke="rgb(76,83,178)" stroke-width="0.8" /><path d="M443.7,199.1 L444.3,203.7 L444.6,208.3 L444.1,212.8 L442.8,217.3 L440.7,221.3 L437.6,224.8 L434.0,227.6 L429.9,229.7 L425.6,231.4 L421.2,232.7 L416.7,233.7 L412.2,234.4 L407.6,234.6 L403.0,234.0 L398.7,232.3 L395.1,229.5 L392.3,225.8 L390.4,221.7 L389.1,217.3 L388.1,212.8 L387.1,208.3 L386.1,203.8 L384.9,199.3 L383.4,195.0 L381.5,190.8 L379.0,187.0 L375.9,183.5 L372.4,180.6 L368.6,177.9 L364.8,175.4" fill="none" opacity="0.4" stroke="rgb(76,83,178)" stroke-width="0.8" /><path d="M672.4,791.6 L676.7,793.1 L681.3,793.1 L685.7,791.6 L689.3,788.8 L692.2,785.2 L694.7,781.3 L697.1,777.4 L699.6,773.5 L702.4,769.9 L705.7,766.7 L709.3,763.9 L713.3,761.5 L717.4,759.4 L721.5,757.4 L725.5,755.1 L729.1,752.2 L732.0,748.6 L733.8,744.4 L734.3,739.8 L733.8,735.2 L732.7,730.8 L731.4,726.4 L730.1,721.9 L729.0,717.5 L728.1,713.0 L727.3,708.4 L726.6,703.9 L726.0,699.3 L725.4,694.8 L724.6,690.2" fill="none" opacity="0.4" stroke="rgb(76,83,178)" stroke-width="0.8" /><path d="M215.9,662.8 L220.1,660.9 L224.6,659.9 L229.2,659.8 L233.6,660.9 L237.6,663.2 L240.9,666.4 L243.2,670.4 L244.6,674.8 L245.0,679.4 L244.4,683.9 L242.8,688.3 L240.4,692.2 L237.3,695.6 L233.8,698.6 L230.1,701.2 L226.1,703.5 L221.9,705.4 L217.6,707.0 L213.1,708.1 L208.6,709.0 L204.0,709.7 L199.5,710.6 L195.1,712.0 L191.0,713.9 L187.2,716.6 L184.1,720.0 L181.6,723.8 L179.7,728.0 L178.4,732.4 L177.3,736.9" fill="none" opacity="0.4" stroke="rgb(76,83,178)" stroke-width="0.8" /><path d="M528.6,777.9 L528.2,773.3 L529.7,769.0 L533.2,766.0 L537.7,765.4 L542.1,766.7 L546.2,768.8 L550.0,771.5 L553.5,774.3 L557.0,777.4 L560.4,780.5 L563.8,783.6 L567.4,786.5 L571.1,789.2 L575.1,791.4 L579.4,793.2 L583.8,794.4 L588.4,795.1 L593.0,795.3 L597.5,795.1 L602.1,794.5 L606.6,793.7 L611.1,792.8 L615.7,791.9 L620.2,791.4 L624.8,791.5 L629.4,792.4 L633.6,794.3 L637.2,797.0" fill="none" opacity="0.4" stroke="rgb(76,83,178)" stroke-width="0.8" /><path d="M74.9,475.3 L77.9,471.8 L80.3,467.9 L82.4,463.8 L83.9,459.4 L84.9,454.9 L85.4,450.4 L85.5,445.8 L85.2,441.2 L84.8,436.6 L84.3,432.0 L83.7,427.5 L83.0,422.9 L82.3,418.4 L81.4,413.9 L80.3,409.4 L78.9,405.0 L77.0,400.8 L74.6,396.9 L71.5,393.5 L67.8,390.8 L63.5,389.0 L59.1,387.8 L54.6,387.0 L50.1,386.2 L45.6,385.0 L41.3,383.3 L37.3,381.0 L33.9,377.9 L31.2,374.2 L29.3,370.0" fill="none" opacity="0.4" stroke="rgb(76,83,178)" stroke-width="0.8" /><path d="M132.3,360.0 L127.8,359.1 L123.8,356.7 L120.5,353.5 L117.7,349.9 L114.8,346.3 L111.7,342.9 L108.1,340.0 L104.0,338.0 L99.5,336.9 L94.9,336.6 L90.4,337.1 L85.9,338.2 L81.6,339.9 L77.7,342.3 L74.3,345.4 L71.5,349.0 L69.2,353.0 L67.4,357.3 L65.9,361.6 L64.2,365.9 L62.3,370.1 L59.7,373.9 L56.4,377.1 L52.5,379.4 L48.0,380.6 L43.4,380.5 L39.0,379.2 L35.1,376.7 L32.0,373.3 L29.7,369.3" fill="none" opacity="0.4" stroke="rgb(76,83,178)" stroke-width="0.8" /><path d="M572.3,61.3 L576.8,62.3 L581.2,63.5 L585.7,64.6 L590.2,65.6 L594.7,66.5 L599.2,67.4 L603.7,68.5 L607.9,70.2 L611.6,73.0 L613.6,77.1 L613.3,81.7 L611.0,85.7 L607.8,89.0 L604.3,91.9 L600.7,94.8 L597.3,97.9 L594.1,101.3 L591.4,105.0 L589.1,109.0 L587.1,113.1 L585.3,117.4 L583.6,121.6 L581.7,125.8 L579.6,129.9 L577.2,133.8 L574.4,137.5 L571.2,140.8 L567.5,143.6 L563.6,145.9 L559.4,147.9" fill="none" opacity="0.4" stroke="rgb(76,83,178)" stroke-width="0.8" /><path d="M6.9,740.2 L11.3,741.5 L15.5,743.3 L19.7,745.2 L24.0,746.8 L28.5,748.0 L33.1,748.5 L37.7,748.2 L42.1,747.2 L46.3,745.1 L49.7,742.1 L52.1,738.1 L53.2,733.7 L53.3,729.1 L52.8,724.5 L52.1,720.0 L51.4,715.4 L50.7,710.9 L50.1,706.3 L49.5,701.7 L48.9,697.2 L48.2,692.6 L47.4,688.1 L46.4,683.6 L45.0,679.3 L43.1,675.0 L40.7,671.1 L37.8,667.6 L34.3,664.5 L30.6,661.8 L26.8,659.3" fill="none" opacity="0.4" stroke="rgb(76,83,178)" stroke-width="0.8" /><path d="M508.5,524.8 L512.9,523.6 L517.0,521.4 L520.8,518.8 L524.5,516.2 L528.4,513.6 L532.3,511.2 L536.2,508.8 L540.1,506.4 L543.8,503.6 L547.0,500.3 L549.6,496.5 L551.3,492.2 L552.4,487.8 L553.0,483.2 L553.2,478.6 L553.3,474.0 L553.3,469.4 L553.2,464.8 L553.0,460.2 L552.7,455.6 L552.3,451.0 L551.6,446.5 L550.6,442.0 L549.3,437.6 L547.4,433.4 L545.0,429.5 L542.0,426.0 L538.6,422.9 L534.9,420.2 L531.1,417.6" fill="none" opacity="0.4" stroke="rgb(76,83,178)" stroke-width="0.8" /><path d="M725.0,119.2 L729.5,119.8 L734.1,120.4 L738.6,121.5 L742.8,123.4 L746.4,126.2 L749.4,129.7 L751.6,133.7 L753.5,137.9 L755.2,142.2 L756.8,146.5 L758.6,150.7 L760.7,154.8 L763.1,158.7 L766.2,162.2 L769.8,165.0 L773.8,167.2 L778.2,168.8 L782.6,170.0 L787.0,171.3 L791.3,172.9 L795.5,174.9 L799.4,177.3" fill="none" opacity="0.4" stroke="rgb(76,83,178)" stroke-width="0.8" /><path d="M795.8,531.8 L793.2,535.6 L790.2,539.1 L786.8,542.2 L783.1,544.9 L778.9,546.8 L774.4,547.6 L769.8,547.1 L765.7,545.1 L762.6,541.7 L760.8,537.5 L760.1,532.9 L760.1,528.3 L760.4,523.7 L760.8,519.1 L761.3,514.6 L761.8,510.0 L762.4,505.4 L762.9,500.8 L763.5,496.3 L764.1,491.7 L764.7,487.2 L765.3,482.6 L765.7,478.0 L766.0,473.4 L766.1,468.8 L766.0,464.2 L765.6,459.7 L765.0,455.1 L764.3,450.5 L763.5,446.0" fill="none" opacity="0.4" stroke="rgb(76,83,178)" stroke-width="0.8" /><path d="M231.4,501.1 L233.2,496.9 L234.2,492.4 L234.6,487.8 L234.7,483.2 L234.7,478.6 L234.8,474.0 L235.2,469.4 L236.0,464.9 L237.4,460.5 L239.4,456.4 L242.0,452.5 L245.0,449.1 L248.3,445.9 L251.8,442.9 L255.4,440.0 L259.0,437.1 L262.6,434.3 L266.4,431.7 L270.4,429.4 L274.7,427.9 L279.3,427.6 L283.8,428.7 L287.6,431.3 L290.6,434.8 L292.9,438.8 L295.0,442.9 L296.9,447.0 L298.8,451.2 L300.8,455.4 L302.9,459.5" fill="none" opacity="0.4" stroke="rgb(76,83,178)" stroke-width="0.8" /></g><g id="phyllotaxisGroup"><circle cx="380.7121532304482" cy="417.6691015281613" fill="rgb(220,105,59)" opacity="0.85" r="3.0" /><circle cx="403.23438936002043" cy="363.1492864505428" fill="rgb(59,220,152)" opacity="0.85" r="3.5545177444479563" /><circle cx="427.5656272352706" cy="435.9553993244499" fill="rgb(199,59,220)" opacity="0.85" r="3.8788898309344875" /><circle cx="348.48473705017625" cy="390.886800206116" fill="rgb(195,220,59)" opacity="0.85" r="4.109035488895913" /><circle cx="449.351971550823" cy="368.6077427836469" fill="rgb(59,148,220)" opacity="0.85" r="4.287550329947281" /><circle cx="383.36492602388523" cy="461.8755477124711" fill="rgb(220,59,101)" opacity="0.85" r="4.433407575382444" /><circle cx="368.10404965172546" cy="338.5819601085505" fill="rgb(59,220,65)" opacity="0.85" r="4.556728119244251" /><circle cx="469.49462921814245" cy="425.3819219992963" fill="rgb(112,59,220)" opacity="0.85" r="4.663553233343869" /><circle cx="327.46300473943364" cy="429.93907070922893" fill="rgb(220,159,59)" opacity="0.85" r="4.757779661868976" /><circle cx="435.0625586958886" cy="325.0813855181558" fill="rgb(59,220,206)" opacity="0.85" r="4.842068074395237" /><circle cx="425.9605700558925" cy="482.77951922047566" fill="rgb(220,59,188)" opacity="0.85" r="4.918316218238696" /><circle cx="321.6033278615402" cy="354.5623506392218" fill="rgb(141,220,59)" opacity="0.85" r="4.9879253198304" /><circle cx="492.11375942558936" cy="379.7542180165594" fill="rgb(59,94,220)" opacity="0.85" r="5.051959485969229" /><circle cx="343.7059458445832" cy="480.06268801508946" fill="rgb(220,72,59)" opacity="0.85" r="5.111245863692208" /><circle cx="386.98706930225944" cy="299.5314160449719" fill="rgb(59,220,119)" opacity="0.85" r="5.166440160881768" /><circle cx="480.0009787221654" cy="467.4339255314901" fill="rgb(166,59,220)" opacity="0.85" r="5.218070977791825" /><circle cx="292.24138527685784" cy="404.4486002133819" fill="rgb(220,212,59)" opacity="0.85" r="5.266570675244973" /><circle cx="478.6696689158673" cy="321.7247774490861" fill="rgb(59,181,220)" opacity="0.85" r="5.312297406316931" /><circle cx="394.724423688758" cy="513.8960655559696" fill="rgb(220,59,134)" opacity="0.85" r="5.355551183333152" /><circle cx="325.0571234609122" cy="310.17834953414246" fill="rgb(87,220,59)" opacity="0.85" r="5.396585818843192" /><circle cx="518.7971359292236" cy="415.9944463235023" fill="rgb(79,59,220)" opacity="0.85" r="5.435617950178738" /><circle cx="299.2826634044307" cy="470.06295818115876" fill="rgb(220,125,59)" opacity="0.85" r="5.472833962686654" /><circle cx="427.5449312084843" cy="277.61415544868737" fill="rgb(59,220,172)" opacity="0.85" r="5.50839537274332" /><circle cx="463.7004389534079" cy="511.19123365076723" fill="rgb(219,59,220)" opacity="0.85" r="5.542443064278357" /><circle cx="275.40347917372264" cy="360.2361779573243" fill="rgb(174,220,59)" opacity="0.85" r="5.575100659894561" /><circle cx="521.08529305022" cy="344.0712548485569" fill="rgb(59,127,220)" opacity="0.85" r="5.606477230417186" /><circle cx="347.513141891543" cy="525.3755184834488" fill="rgb(220,59,80)" opacity="0.85" r="5.636669492803463" /><circle cx="353.16888349942764" cy="269.75041029539125" fill="rgb(59,220,85)" opacity="0.85" r="5.665763608140163" /><circle cx="524.6824318137609" cy="465.5485962453366" fill="rgb(132,59,220)" opacity="0.85" r="5.693836663989179" /><circle cx="261.4568445418967" cy="436.5012264212764" fill="rgb(220,179,59)" opacity="0.85" r="5.720957905329724" /><circle cx="478.7827895040543" cy="277.5090382341476" fill="rgb(59,214,220)" opacity="0.85" r="5.747189763588118" /><circle cx="425.043294839212" cy="545.8348902073099" fill="rgb(220,59,167)" opacity="0.85" r="5.772588722239782" /><circle cx="281.2104872010879" cy="307.9768961130027" fill="rgb(120,220,59)" opacity="0.85" r="5.797206049173184" /><circle cx="552.0044972861266" cy="387.42816693516363" fill="rgb(59,73,220)" opacity="0.85" r="5.821088419692929" /><circle cx="294.8959370558731" cy="513.5815667979333" fill="rgb(220,92,59)" opacity="0.85" r="5.844278449191531" /><circle cx="400.78889023836916" cy="243.05659555863343" fill="rgb(59,220,139)" opacity="0.85" r="5.866815150764888" /><circle cx="506.8858617510811" cy="517.8621452587789" fill="rgb(186,59,220)" opacity="0.85" r="5.88873433011538" /><circle cx="239.44435874218135" cy="385.09439805369936" fill="rgb(207,220,59)" opacity="0.85" r="5.910068927781109" /><circle cx="530.1369810749709" cy="301.26360727876596" fill="rgb(59,160,220)" opacity="0.85" r="5.930849316903718" /><circle cx="370.3630467101028" cy="562.7586503766229" fill="rgb(220,59,113)" opacity="0.85" r="5.951103563291149" /><circle cx="310.8177528864112" cy="258.22739244016054" fill="rgb(67,220,59)" opacity="0.85" r="5.9708576533634465" /><circle cx="563.4840144968372" cy="444.8345920061906" fill="rgb(99,59,220)" opacity="0.85" r="5.990135694626694" /><circle cx="247.38124923671324" cy="478.28728334560844" fill="rgb(220,146,59)" opacity="0.85" r="6.00896009255485" /><circle cx="460.3443516119641" cy="237.32191534035184" fill="rgb(59,220,193)" opacity="0.85" r="6.027351707134609" /><circle cx="466.129660666926" cy="562.5321080952789" fill="rgb(220,59,200)" opacity="0.85" r="6.045329991816256" /><circle cx="239.69750189220193" cy="323.99246442598104" fill="rgb(154,220,59)" opacity="0.85" r="6.062913117191276" /><circle cx="571.3776091770724" cy="347.1987725691418" fill="rgb(59,107,220)" opacity="0.85" r="6.080118081368047" /><circle cx="308.3377233213971" cy="556.3345763462709" fill="rgb(220,59,60)" opacity="0.85" r="6.096960808726313" /><circle cx="361.5932247810216" cy="220.9703641114975" fill="rgb(59,220,106)" opacity="0.85" r="6.113456238488501" /><circle cx="550.7675960634697" cy="507.1449535356263" fill="rgb(153,59,220)" opacity="0.85" r="6.1296184043425175" /><circle cx="214.62681526954628" cy="423.06316664329455" fill="rgb(220,200,59)" opacity="0.85" r="6.145460506179461" /><circle cx="522.2916472387979" cy="256.3890725948513" fill="rgb(59,194,220)" opacity="0.85" r="6.160994974865142" /><circle cx="406.8983452569" cy="590.3049565016115" fill="rgb(220,59,147)" opacity="0.85" r="6.176233530841698" /><circle cx="265.1099642111476" cy="263.06037803811506" fill="rgb(100,220,59)" opacity="0.85" r="6.19118723725142" /><circle cx="593.7343599115788" cy="409.9497632962204" fill="rgb(66,59,220)" opacity="0.85" r="6.205866548185977" /><circle cx="249.07118615334318" cy="524.6463450433241" fill="rgb(220,113,59)" opacity="0.85" r="6.22028135258812" /><circle cx="427.3344490291273" cy="204.41558277840636" fill="rgb(59,220,160)" opacity="0.85" r="6.23444101426764" /><circle cx="512.9369611785943" cy="564.1033130232271" fill="rgb(207,59,220)" opacity="0.85" r="6.248354408437136" /><circle cx="204.2074386144035" cy="354.8984963294995" fill="rgb(187,220,59)" opacity="0.85" r="6.262029955124576" /><circle cx="576.3128240608894" cy="300.1657424489731" fill="rgb(59,140,220)" opacity="0.85" r="6.275475649777681" /><circle cx="336.90941623901546" cy="594.3113155006864" fill="rgb(220,59,93)" opacity="0.85" r="6.28869909133865" /><circle cx="314.57467641056303" cy="212.5859093814788" fill="rgb(59,220,73)" opacity="0.85" r="6.301707508036074" /><circle cx="591.1088466933281" cy="481.1366388883067" fill="rgb(120,59,220)" opacity="0.85" r="6.314507781113226" /><circle cx="202.72772942438263" cy="469.81128059493005" fill="rgb(220,167,59)" opacity="0.85" r="6.327106466687738" /><circle cx="499.0713926117584" cy="213.8306121185638" fill="rgb(59,220,213)" opacity="0.85" r="6.339509815916509" /><circle cx="453.1064694162462" cy="605.7622484960284" fill="rgb(220,59,180)" opacity="0.85" r="6.35172379362114" /><circle cx="220.50647782933612" cy="283.2751368362867" fill="rgb(133,220,59)" opacity="0.85" r="6.363754095512773" /><circle cx="612.7698729172197" cy="364.5624839692937" fill="rgb(59,86,220)" opacity="0.85" r="6.375606164140885" /><circle cx="266.0730893497914" cy="571.0983259682736" fill="rgb(220,80,59)" opacity="0.85" r="6.387285203677807" /><circle cx="383.0577177774721" cy="181.80689332528178" fill="rgb(59,220,127)" opacity="0.85" r="6.3987961936394875" /><circle cx="561.0173682289479" cy="550.5087972103768" fill="rgb(173,59,220)" opacity="0.85" r="6.410143901633052" /><circle cx="178.05692073363193" cy="397.7687096397459" fill="rgb(220,220,59)" opacity="0.85" r="6.421332895212844" /><circle cx="566.304746441295" cy="250.69943542027772" fill="rgb(59,173,220)" opacity="0.85" r="6.432367552918713" /><circle cx="378.0735665219601" cy="623.9450311337105" fill="rgb(220,59,126)" opacity="0.85" r="6.443252074563336" /><circle cx="263.98611359948853" cy="218.8465116466359" fill="rgb(79,220,59)" opacity="0.85" r="6.453990490829048" /><circle cx="624.1391406855546" cy="441.97889268338304" fill="rgb(86,59,220)" opacity="0.85" r="6.464586672229065" /><circle cx="205.1002238058018" cy="521.2389262549428" fill="rgb(220,133,59)" opacity="0.85" r="6.475044337482947" /><circle cx="462.2183437639714" cy="177.51877409298893" fill="rgb(59,220,180)" opacity="0.85" r="6.485367061351674" /><circle cx="505.0723223656528" cy="607.3958616663426" fill="rgb(220,59,213)" opacity="0.85" r="6.495558281973617" /><circle cx="181.05668651991925" cy="317.5301265441878" fill="rgb(166,220,59)" opacity="0.85" r="6.505621307739105" /><circle cx="618.502915365414" cy="312.37495389965557" fill="rgb(59,119,220)" opacity="0.85" r="6.515559323737952" /><circle cx="297.44448799698705" cy="613.5140694822962" fill="rgb(220,59,72)" opacity="0.85" r="6.525375397811403" /><circle cx="330.97844232972267" cy="171.90762032089347" fill="rgb(59,220,93)" opacity="0.85" r="6.535072486237279" /><circle cx="606.1990869198069" cy="522.2958046139164" fill="rgb(140,59,220)" opacity="0.85" r="6.544653439074651" /><circle cx="163.95275808937632" cy="449.3988364329868" fill="rgb(220,187,59)" opacity="0.85" r="6.554121005192254" /><circle cx="541.5114084481316" cy="202.97897341808996" fill="rgb(59,206,220)" opacity="0.85" r="6.5634778370028055" /><circle cx="428.90529332623606" cy="642.2632160190773" fill="rgb(220,59,159)" opacity="0.85" r="6.572726494923668" /><circle cx="213.98039103388294" cy="239.9752985314676" fill="rgb(112,220,59)" opacity="0.85" r="6.581869451582566" /><circle cx="646.6498220991441" cy="392.30042596770613" fill="rgb(59,66,220)" opacity="0.85" r="6.590909095785712" /><circle cx="222.33861069041888" cy="573.2514563062193" fill="rgb(220,100,59)" opacity="0.85" r="6.599847736264213" /><circle cx="414.0507375287036" cy="150.86864645261122" fill="rgb(59,220,147)" opacity="0.85" r="6.60868760521348" /><circle cx="558.7897850306125" cy="594.2520962491901" fill="rgb(194,59,220)" opacity="0.85" r="6.6174308616392326" /><circle cx="150.3522772236512" cy="363.8294951421157" fill="rgb(199,220,59)" opacity="0.85" r="6.626079594522605" /><circle cx="609.6339264270845" cy="257.27604972649874" fill="rgb(59,152,220)" opacity="0.85" r="6.634635825816003" /><circle cx="341.5214976613062" cy="648.1551773325527" fill="rgb(220,59,106)" opacity="0.85" r="6.643101513280433" /><circle cx="274.8411546525602" cy="176.34801837264865" fill="rgb(59,220,60)" opacity="0.85" r="6.651478553174269" /><circle cx="644.6268793430386" cy="480.7889444122777" fill="rgb(107,59,220)" opacity="0.85" r="6.659768782802706" /><circle cx="163.83917776405497" cy="506.21416035079415" fill="rgb(220,154,59)" opacity="0.85" r="6.6679739829364575" /><circle cx="502.9130677430745" cy="160.94665765208515" fill="rgb(59,220,201)" opacity="0.85" r="6.676095880107672" /></g><g filter="url(#phyllotaxisGlow)" id="phyllotaxisGlowGroup"><circle cx="486.0235053179937" cy="647.0258583926454" fill="rgb(220,59,193)" opacity="0.85" r="6.684136148790474" /><circle cx="168.55727923523418" cy="275.3392468792242" fill="rgb(146,220,59)" opacity="0.85" r="6.692096413473008" /><circle cx="656.1246588782941" cy="335.2665954863175" fill="rgb(59,99,220)" opacity="0.85" r="6.699978250627417" /><circle cx="254.15782657429654" cy="621.8209484646114" fill="rgb(220,67,59)" opacity="0.85" r="6.707783190583709" /><circle cx="357.49783038660007" cy="136.6518340917395" fill="rgb(59,220,114)" opacity="0.85" r="6.715512719313098" /><circle cx="610.2317242082437" cy="566.2694536808793" fill="rgb(161,59,220)" opacity="0.85" r="6.723168280126019" /><circle cx="131.3981952634092" cy="419.49866059434953" fill="rgb(220,208,59)" opacity="0.85" r="6.730751275289654" /><circle cx="585.7583290275352" cy="203.2636570141565" fill="rgb(59,186,220)" opacity="0.85" r="6.738263067569525" /><circle cx="395.90094417014603" cy="671.8064778066694" fill="rgb(220,59,139)" opacity="0.85" r="6.745704981699376" /><circle cx="218.58662638926978" cy="195.87021360576637" fill="rgb(92,220,59)" opacity="0.85" r="6.7530783057833155" /><circle cx="672.8994341065501" cy="428.10513946460264" fill="rgb(74,59,220)" opacity="0.85" r="6.760384292633933" /><circle cx="178.7883243166913" cy="564.358184229447" fill="rgb(220,121,59)" opacity="0.85" r="6.767624161049867" /><circle cx="452.3274899697494" cy="128.1649946068348" fill="rgb(59,220,168)" opacity="0.85" r="6.774799097036075" /><circle cx="545.6823187135592" cy="636.8402764727646" fill="rgb(214,59,220)" opacity="0.85" r="6.781910254969873" /><circle cx="131.41479796897994" cy="323.43067208582227" fill="rgb(179,220,59)" opacity="0.85" r="6.788958758715596" /><circle cx="650.8618065252618" cy="274.487271816867" fill="rgb(59,132,220)" opacity="0.85" r="6.7959457026906005" /><circle cx="299.36916946053145" cy="663.1401623390962" fill="rgb(220,59,85)" opacity="0.85" r="6.802872152885092" /><circle cx="296.0091368332116" cy="136.86614119320643" fill="rgb(59,220,81)" opacity="0.85" r="6.809739147838205" /><circle cx="655.5084505450161" cy="524.3108086798189" fill="rgb(128,59,220)" opacity="0.85" r="6.816547699572532" /><circle cx="126.47324575687588" cy="481.27163311749825" fill="rgb(220,174,59)" opacity="0.85" r="6.823298794489224" /><circle cx="547.4084108544645" cy="154.2828003017631" fill="rgb(59,219,220)" opacity="0.85" r="6.829993394225637" /><circle cx="457.5222411677447" cy="681.9247980775012" fill="rgb(220,59,172)" opacity="0.85" r="6.836632436477393" /><circle cx="166.18790281621366" cy="230.2751597663504" fill="rgb(125,220,59)" opacity="0.85" r="6.843216835786606" /><circle cx="688.2274284345993" cy="367.0790968894487" fill="rgb(59,78,220)" opacity="0.85" r="6.849747484297934" /><circle cx="208.93493001727964" cy="619.8572117942751" fill="rgb(220,87,59)" opacity="0.85" r="6.85622525248403" /><circle cx="392.3445393734594" cy="107.64975346364383" fill="rgb(59,220,134)" opacity="0.85" r="6.862650989841841" /><circle cx="603.9346626493627" cy="611.2395424137762" fill="rgb(181,59,220)" opacity="0.85" r="6.869025525561183" /><circle cx="105.77408105065001" cy="381.92189973145355" fill="rgb(212,220,59)" opacity="0.85" r="6.875349669166873" /><circle cx="630.0658374204966" cy="213.855868411779" fill="rgb(59,165,220)" opacity="0.85" r="6.881624211135694" /><circle cx="355.9227862856661" cy="693.804943262918" fill="rgb(220,59,118)" opacity="0.85" r="6.8878499234893376" /><circle cx="233.3977780104599" cy="152.62970415890342" fill="rgb(71,220,59)" opacity="0.85" r="6.894027560364465" /><circle cx="691.0562696942683" cy="470.1343688204236" fill="rgb(94,59,220)" opacity="0.85" r="6.900157858560921" /><circle cx="137.0104163157731" cy="545.4416682852512" fill="rgb(220,141,59)" opacity="0.85" r="6.9062415380690965" /><circle cx="496.03880152112737" cy="114.0322277175211" fill="rgb(59,220,188)" opacity="0.85" r="6.912279302577403" /><circle cx="522.8104017166321" cy="676.7721835622863" fill="rgb(220,59,205)" opacity="0.85" r="6.918271839960729" /><circle cx="121.45343544177001" cy="278.42177037700225" fill="rgb(158,220,59)" opacity="0.85" r="6.924219822750744" /><circle cx="688.5798002026538" cy="301.12952087569727" fill="rgb(59,111,220)" opacity="0.85" r="6.9301239085888415" /><circle cx="253.45938325137382" cy="668.8191558502169" fill="rgb(220,59,65)" opacity="0.85" r="6.9359847406625" /><circle cx="326.20311724367" cy="101.71133245401762" fill="rgb(59,220,101)" opacity="0.85" r="6.941802948125764" /><circle cx="656.8314457022287" cy="570.7159505471893" fill="rgb(148,59,220)" opacity="0.85" r="6.9475791465045535" /><circle cx="94.20925431270996" cy="447.77620021052957" fill="rgb(220,195,59)" opacity="0.85" r="6.953313938087444" /><circle cx="593.8980203301679" cy="157.35144478401395" fill="rgb(59,198,220)" opacity="0.85" r="6.9590079123025355" /><circle cx="421.00519468973573" cy="710.9947967639139" fill="rgb(220,59,151)" opacity="0.85" r="6.964661646081009" /><circle cx="173.64550450699926" cy="184.11382079876174" fill="rgb(105,220,59)" opacity="0.85" r="6.970275704207926" /><circle cx="713.8273298386264" cy="406.3107232688662" fill="rgb(61,59,220)" opacity="0.85" r="6.9758506396608" /><circle cx="163.51292421611163" cy="608.0516747128506" fill="rgb(220,108,59)" opacity="0.85" r="6.981386993936459" /><circle cx="433.95911053378944" cy="85.7665941418569" fill="rgb(59,220,155)" opacity="0.85" r="6.986885297366669" /><circle cx="587.860246743603" cy="655.5163408095563" fill="rgb(202,59,220)" opacity="0.85" r="6.9923460694229895" /><circle cx="87.82270512073632" cy="338.27782026729636" fill="rgb(191,220,59)" opacity="0.85" r="6.9977698190112925" /><circle cx="672.8002141111764" cy="234.08269447762413" fill="rgb(59,145,220)" opacity="0.85" r="7.003157044756367" /><circle cx="310.6214523335349" cy="707.6429789378602" fill="rgb(220,59,98)" opacity="0.85" r="7.008508235277005" /><circle cx="257.62406924249325" cy="111.8229020281467" fill="rgb(59,220,68)" opacity="0.85" r="7.013823869451939" /><circle cx="700.6344951804973" cy="516.7050296428188" fill="rgb(115,59,220)" opacity="0.85" r="7.019104416677021" /><circle cx="98.50097669852585" cy="517.404091778945" fill="rgb(220,162,59)" opacity="0.85" r="7.024350337113948" /><circle cx="543.4784651155956" cy="108.82388482557013" fill="rgb(59,220,209)" opacity="0.85" r="7.029562081930904" /><circle cx="491.1834175885852" cy="712.6330157527894" fill="rgb(220,59,185)" opacity="0.85" r="7.034740093535397" /><circle cx="120.68764235104112" cy="230.5224403402725" fill="rgb(138,220,59)" opacity="0.85" r="7.0398848057996295" /><circle cx="721.4623496375873" cy="336.09215767266016" fill="rgb(59,91,220)" opacity="0.85" r="7.044996644278647" /><circle cx="205.5152719196243" cy="665.1078332882208" fill="rgb(220,75,59)" opacity="0.85" r="7.050076026421574" /><circle cx="364.21786352905576" cy="72.11232164250868" fill="rgb(59,220,122)" opacity="0.85" r="7.055123361776185" /><circle cx="648.6469215818001" cy="618.2879233462155" fill="rgb(169,59,220)" opacity="0.85" r="7.060139052187061" /><circle cx="68.1719689838319" cy="407.02033508176606" fill="rgb(220,215,59)" opacity="0.85" r="7.0651234919875705" /><circle cx="640.6824360553874" cy="169.96671886661733" fill="rgb(59,178,220)" opacity="0.85" r="7.070077068185907" /><circle cx="377.84407537201855" cy="733.221665922615" fill="rgb(220,59,131)" opacity="0.85" r="7.07500016064541" /><circle cx="190.61080378233518" cy="138.52735071235054" fill="rgb(84,220,59)" opacity="0.85" r="7.079893142259359" /><circle cx="732.0267728210551" cy="451.5191433356134" fill="rgb(82,59,220)" opacity="0.85" r="7.084756379120464" /></g></svg>