<?xml version="1.0" encoding="utf-8" ?>
<svg baseProfile="full" height="800px" version="1.1" width="800px" xmlns="http://www.w3.org/2000/svg" xmlns:ev="http://www.w3.org/2001/xml-events" xmlns:xlink="http://www.w3.org/1999/xlink"><defs><filter id="phyllotaxisGlow"><feGaussianBlur in="SourceGraphic" result="blur" stdDeviation="2" /><feComposite in="SourceGraphic" in2="blur" operator="over" /></filter></defs><rect fill="#0d1117" height="800" width="800" x="0" y="0" /><g id="flowFieldGroup" opacity="0.25"><path d="M53.6,328.6 L50.0,331.4 L46.4,334.3 L42.4,336.7 L38.1,338.1 L33.5,338.1 L29.3,336.2 L26.0,333.0 L23.4,329.2 L21.2,325.1 L19.3,320.9 L17.6,316.7 L16.1,312.3 L15.0,307.9 L14.1,303.3 L13.6,298.8 L13.6,294.2 L13.9,289.6 L14.7,285.0 L16.0,280.6 L17.8,276.4 L20.1,272.4 L23.0,268.8 L26.3,265.7 L29.9,262.8 L33.6,260.1 L37.2,257.2 L40.5,253.9 L43.2,250.3 L45.4,246.2 L47.1,241.9" fill="none" opacity="0.4" stroke="rgb(90,76,178)" stroke-width="0.8" /><path d="M393.8,367.0 L395.1,371.4 L394.1,375.9 L391.6,379.8 L388.3,383.0 L384.7,385.9 L381.0,388.6 L377.4,391.4 L373.9,394.4 L370.7,397.7 L367.8,401.3 L365.4,405.2 L363.2,409.3 L361.3,413.4 L359.4,417.6 L357.5,421.8 L355.5,426.0 L353.3,430.0 L351.1,434.1 L348.8,438.1 L346.6,442.1 L344.6,446.2 L342.9,450.5 L341.5,454.9 L340.5,459.4 L339.8,463.9 L339.3,468.5 L339.0,473.1 L338.9,477.7 L339.0,482.3 L339.1,486.9" fill="none" opacity="0.4" stroke="rgb(90,76,178)" stroke-width="0.8" /><path d="M792.1,121.2 L795.0,117.6 L798.0,114.2" fill="none" opacity="0.4" stroke="rgb(90,76,178)" stroke-width="0.8" /><path d="M596.1,241.6 L591.6,242.3 L587.0,242.2 L582.4,241.8 L577.8,241.2 L573.2,240.7 L568.7,240.3 L564.1,239.9 L559.5,239.3 L555.0,238.5 L550.5,237.3 L546.2,235.7 L542.1,233.7 L537.9,231.7 L533.8,229.8 L529.4,228.3 L524.8,227.7 L520.3,228.3 L516.1,230.2 L512.7,233.3 L510.1,237.1 L508.3,241.3 L507.0,245.7 L506.0,250.2 L505.3,254.8 L504.6,259.3 L503.9,263.9 L503.3,268.4 L502.6,273.0 L501.7,277.5 L500.6,282.0" fill="none" opacity="0.4" stroke="rgb(90,76,178)" stroke-width="0.8" /><path d="M85.2,52.0 L89.6,53.2 L94.2,53.7 L98.8,53.5 L103.3,53.1 L107.9,52.7 L112.5,52.6 L117.1,53.0 L121.5,54.2 L125.6,56.3 L129.2,59.2 L132.2,62.7 L134.7,66.5 L137.0,70.5 L139.3,74.5 L142.1,78.2 L145.5,81.3 L149.5,83.5 L154.0,84.4 L158.6,83.9 L162.9,82.2 L166.6,79.4 L169.5,75.9 L171.6,71.8 L173.0,67.4 L174.1,63.0 L175.1,58.5 L176.1,54.0 L177.3,49.5 L178.8,45.2 L180.7,41.0" fill="none" opacity="0.4" stroke="rgb(90,76,178)" stroke-width="0.8" /><path d="M307.2,37.0 L311.6,35.8 L316.1,34.6 L320.5,33.3 L324.9,32.2 L329.4,31.3 L334.0,30.9 L338.6,31.1 L343.1,32.1 L347.5,33.4 L351.9,34.9 L356.2,36.3 L360.7,37.7 L365.1,38.9 L369.5,40.2 L373.9,41.4 L378.3,42.8 L382.7,44.2 L387.1,45.5 L391.6,46.6 L396.1,47.2 L400.7,46.9 L405.1,45.4 L408.7,42.6 L411.4,38.9 L413.1,34.6 L414.3,30.2 L415.2,25.7 L415.9,21.1 L416.6,16.6 L417.3,12.0" fill="none" opacity="0.4" stroke="rgb(90,76,178)" stroke-width="0.8" /><path d="M734.0,708.1 L729.4,707.6 L725.1,706.1 L721.2,703.6 L718.2,700.1 L716.1,696.0 L714.7,691.7 L713.6,687.2 L712.8,682.7 L711.9,678.1 L710.9,673.7 L709.7,669.2 L708.1,664.9 L706.0,660.8 L703.3,657.1 L700.1,653.8 L696.5,651.0 L692.6,648.4 L688.8,645.8 L685.3,642.8 L682.5,639.2 L680.5,635.1 L679.4,630.6 L679.2,626.0 L679.6,621.4 L680.4,616.9 L681.5,612.4 L682.8,608.0 L684.1,603.6 L685.5,599.2 L686.7,594.8" fill="none" opacity="0.4" stroke="rgb(90,76,178)" stroke-width="0.8" /><path d="M749.4,128.9 L745.1,130.7 L742.9,134.7 L742.9,139.3 L743.8,143.8 L745.3,148.2 L747.3,152.3 L749.8,156.2 L752.8,159.6 L756.5,162.4 L760.6,164.5 L764.9,166.0 L769.4,167.2 L773.8,168.5 L778.1,170.2 L782.2,172.3 L786.0,174.8 L789.6,177.7 L793.0,180.8 L796.3,184.0 L799.6,187.2" fill="none" opacity="0.4" stroke="rgb(90,76,178)" stroke-width="0.8" /><path d="M234.2,171.5 L233.7,167.0 L232.3,162.6 L230.0,158.6 L226.9,155.2 L222.9,152.9 L218.5,151.6 L213.9,151.1 L209.3,151.1 L204.7,151.5 L200.2,152.1 L195.7,153.0 L191.2,154.0 L186.7,155.2 L182.4,156.6 L178.0,158.1 L173.6,159.5 L169.2,160.7 L164.7,161.6 L160.1,162.0 L155.5,161.8 L150.9,161.1 L146.4,160.2 L141.9,159.2 L137.4,158.4 L132.8,158.0 L128.3,158.4 L123.9,160.0 L120.7,163.2 L119.6,167.7 L121.1,172.0" fill="none" opacity="0.4" stroke="rgb(90,76,178)" stroke-width="0.8" /><path d="M55.8,142.2 L60.2,140.9 L64.8,140.4 L69.3,141.2 L73.4,143.3 L76.7,146.5 L79.5,150.2 L82.2,153.9 L85.1,157.5 L88.5,160.6 L92.3,163.1 L96.5,164.9 L101.0,166.2 L105.4,167.4 L109.8,168.7 L114.1,170.4 L118.1,172.6 L122.0,175.1 L125.5,178.0 L128.9,181.1 L132.2,184.3 L135.6,187.5 L139.0,190.6 L142.5,193.6 L146.2,196.3 L150.0,198.9 L153.8,201.5 L157.6,204.1 L161.2,207.0 L164.4,210.3 L167.1,214.0" fill="none" opacity="0.4" stroke="rgb(90,76,178)" stroke-width="0.8" /><path d="M31.1,689.4 L35.1,687.1 L38.1,683.6 L39.8,679.3 L40.4,674.7 L40.0,670.2 L38.9,665.7 L37.0,661.5 L34.4,657.7 L31.3,654.3 L27.8,651.3 L24.2,648.4 L20.9,645.3 L18.0,641.7 L16.0,637.5 L14.8,633.1 L14.5,628.5 L14.7,623.9 L15.4,619.4 L16.3,614.9 L17.5,610.4 L18.9,606.0 L20.3,601.6 L21.6,597.2 L22.7,592.8 L23.7,588.3 L24.5,583.7 L25.0,579.2 L25.3,574.6 L25.4,570.0 L25.4,565.4" fill="none" opacity="0.4" stroke="rgb(90,76,178)" stroke-width="0.8" /><path d="M698.4,703.7 L703.0,703.2 L706.9,700.9 L709.6,697.1 L710.9,692.7 L711.3,688.1 L711.2,683.5 L710.8,678.9 L710.1,674.4 L709.1,669.9 L707.6,665.6 L705.6,661.4 L703.0,657.6 L699.8,654.3 L696.3,651.4 L692.5,648.7 L688.7,646.1 L685.2,643.1 L682.4,639.5 L680.4,635.3 L679.4,630.8 L679.2,626.2 L679.6,621.7 L680.3,617.1 L681.4,612.6 L682.7,608.2 L684.0,603.8 L685.4,599.4 L686.6,595.0 L687.7,590.5 L688.6,586.0" fill="none" opacity="0.4" stroke="rgb(90,76,178)" stroke-width="0.8" /><path d="M656.0,344.7 L660.0,346.8 L664.5,347.9 L669.1,347.9 L673.6,346.8 L677.6,344.6 L680.8,341.3 L682.9,337.2 L683.7,332.6 L683.5,328.1 L682.8,323.5 L681.8,319.0 L680.6,314.6 L679.6,310.1 L678.7,305.6 L678.2,301.0 L678.0,296.4 L678.1,291.8 L678.7,287.2 L679.8,282.8 L681.3,278.4 L683.4,274.3 L686.0,270.5 L689.1,267.2 L692.6,264.2 L696.3,261.4 L699.9,258.6 L703.4,255.6 L706.4,252.1 L708.9,248.2 L710.8,244.0" fill="none" opacity="0.4" stroke="rgb(90,76,178)" stroke-width="0.8" /><path d="M129.9,31.6 L134.3,33.1 L138.6,34.7 L142.9,36.4 L147.0,38.3 L151.1,40.4 L155.3,42.4 L159.6,44.0 L164.2,44.6 L168.7,44.0 L172.9,42.1 L176.5,39.3 L179.9,36.2 L183.4,33.1 L187.0,30.2 L190.7,27.6 L194.6,25.1 L198.4,22.6 L202.0,19.7 L205.2,16.3 L207.6,12.4 L209.3,8.2 L210.3,3.7" fill="none" opacity="0.4" stroke="rgb(90,76,178)" stroke-width="0.8" /><path d="M506.9,162.3 L502.3,162.7 L497.7,162.5 L493.2,161.7 L488.7,160.4 L484.4,158.8 L480.1,157.1 L475.8,155.5 L471.5,154.0 L467.0,152.8 L462.5,151.8 L458.0,151.1 L453.4,150.5 L448.9,150.1 L444.3,150.0 L439.7,150.2 L435.1,150.9 L430.7,152.2 L426.5,154.2 L422.8,156.8 L419.3,159.8 L416.0,163.0 L412.6,166.1 L408.7,168.6 L404.4,170.3 L399.9,170.7 L395.3,170.1 L390.9,168.9 L386.5,167.4 L382.1,166.0 L377.7,164.8" fill="none" opacity="0.4" stroke="rgb(90,76,178)" stroke-width="0.8" /><path d="M449.1,464.0 L452.6,467.0 L456.6,469.3 L461.1,470.2 L465.7,469.5 L469.9,467.6 L473.7,465.0 L477.3,462.2 L481.0,459.5 L485.0,457.2 L489.2,455.3 L493.6,454.1 L498.2,453.3 L502.8,453.0 L507.4,453.1 L512.0,453.3 L516.5,453.6 L521.1,453.6 L525.7,453.1 L530.1,451.6 L533.7,448.8 L536.1,444.9 L537.3,440.4 L537.4,435.8 L536.8,431.3 L535.4,426.9 L533.2,422.8 L530.4,419.2 L527.2,416.0 L523.6,413.1 L519.9,410.2" fill="none" opacity="0.4" stroke="rgb(90,76,178)" stroke-width="0.8" /><path d="M266.7,483.0 L270.5,480.6 L274.7,478.6 L279.1,477.2 L283.6,476.3 L288.2,475.7 L292.8,475.7 L297.3,476.5 L301.5,478.4 L304.8,481.6 L306.7,485.8 L307.0,490.4 L306.3,494.9 L304.9,499.3 L303.1,503.5 L301.0,507.6 L298.8,511.7 L296.5,515.7 L294.3,519.7 L292.2,523.8 L290.2,527.9 L288.2,532.1 L286.2,536.2 L284.1,540.3 L281.9,544.3 L279.4,548.2 L276.5,551.8 L273.4,555.2 L270.0,558.3 L266.4,561.1 L262.7,563.9" fill="none" opacity="0.4" stroke="rgb(90,76,178)" stroke-width="0.8" /><path d="M323.9,131.3 L327.9,133.5 L332.3,134.7 L336.9,134.7 L341.3,133.3 L345.2,130.8 L348.4,127.5 L351.0,123.7 L353.1,119.6 L354.7,115.3 L355.9,110.9 L356.7,106.3 L357.2,101.8 L357.5,97.2 L357.6,92.6 L357.5,88.0 L357.4,83.4 L357.3,78.8 L357.3,74.2 L357.6,69.6 L358.2,65.0 L359.4,60.6 L361.3,56.4 L364.1,52.8 L367.9,50.1 L372.2,48.5 L376.8,48.0 L381.3,48.3 L385.9,48.9 L390.5,49.6 L395.0,50.0" fill="none" opacity="0.4" stroke="rgb(90,76,178)" stroke-width="0.8" /><path d="M182.0,180.5 L178.9,183.9 L176.1,187.6 L173.5,191.4 L171.3,195.4 L169.7,199.7 L168.8,204.2 L168.8,208.8 L169.3,213.4 L170.2,217.9 L171.1,222.4 L172.0,227.0 L172.8,231.5 L173.6,236.0 L174.6,240.5 L175.7,245.0 L177.1,249.4 L178.7,253.6 L180.7,257.8 L183.1,261.7 L186.0,265.3 L189.2,268.6 L192.7,271.6 L196.4,274.3 L200.2,277.0 L203.9,279.6 L207.5,282.5 L211.1,285.4 L214.5,288.5 L217.9,291.6 L221.3,294.7" fill="none" opacity="0.4" stroke="rgb(90,76,178)" stroke-width="0.8" /><path d="M391.1,236.9 L387.9,233.6 L385.4,229.8 L383.7,225.5 L382.5,221.1 L381.6,216.6 L380.8,212.0 L380.1,207.5 L379.3,202.9 L378.4,198.4 L377.1,194.0 L375.4,189.7 L373.3,185.7 L370.5,182.0 L367.2,178.8 L363.6,176.0 L359.7,173.4 L356.0,170.8 L352.6,167.7 L349.8,164.0 L348.0,159.8 L347.1,155.3 L347.0,150.7 L347.5,146.1 L348.3,141.6 L349.4,137.1 L350.7,132.7 L352.1,128.3 L353.4,123.9 L354.7,119.5 L355.7,115.0" fill="none" opacity="0.4" stroke="rgb(90,76,178)" stroke-width="0.8" /></g><g id="phyllotaxisGroup"><circle cx="380.65343818817746" cy="417.722888871845" fill="rgb(228,199,103)" opacity="0.85" r="3.0" /><circle cx="403.24423531692076" cy="363.0371074587862" fill="rgb(103,220,228)" opacity="0.85" r="3.5545177444479563" /><circle cx="427.64954105870964" cy="436.06485284802983" fill="rgb(228,103,184)" opacity="0.85" r="3.8788898309344875" /><circle cx="348.32791701329876" cy="390.8590582856459" fill="rgb(147,228,103)" opacity="0.85" r="4.109035488895913" /><circle cx="449.5022062105221" cy="368.512180135755" fill="rgb(103,111,228)" opacity="0.85" r="4.287550329947281" /><circle cx="383.3142864121466" cy="462.06390597987496" fill="rgb(228,131,103)" opacity="0.85" r="4.433407575382444" /><circle cx="368.00695368786074" cy="338.3949945622404" fill="rgb(103,228,167)" opacity="0.85" r="4.556728119244251" /><circle cx="469.706181090204" cy="425.4591883028349" fill="rgb(204,103,228)" opacity="0.85" r="4.663553233343869" /><circle cx="327.2421914576918" cy="430.03020964367005" fill="rgb(215,228,103)" opacity="0.85" r="4.757779661868976" /><circle cx="435.1692942812832" cy="324.85332223723464" fill="rgb(103,179,228)" opacity="0.85" r="4.842068074395237" /><circle cx="426.03959784921835" cy="483.031512251541" fill="rgb(228,103,142)" opacity="0.85" r="4.918316218238696" /><circle cx="321.36467686158704" cy="354.4240317519568" fill="rgb(106,228,103)" opacity="0.85" r="4.9879253198304" /><circle cx="492.3941672566455" cy="379.69258687861196" fill="rgb(136,103,228)" opacity="0.85" r="5.051959485969229" /><circle cx="343.53457846444894" cy="480.30641061239555" fill="rgb(228,173,103)" opacity="0.85" r="5.111245863692208" /><circle cx="386.9474560273764" cy="299.22557489928647" fill="rgb(103,228,209)" opacity="0.85" r="5.166440160881768" /><circle cx="480.24451346730814" cy="467.6392043184574" fill="rgb(228,103,210)" opacity="0.85" r="5.218070977791825" /><circle cx="291.91335220535416" cy="404.46214240669644" fill="rgb(173,228,103)" opacity="0.85" r="5.266570675244973" /><circle cx="478.9091509581611" cy="321.48649615953923" fill="rgb(103,137,228)" opacity="0.85" r="5.312297406316931" /><circle cx="394.7083640585765" cy="514.2427819304562" fill="rgb(228,105,103)" opacity="0.85" r="5.355551183333152" /><circle cx="324.8289863227205" cy="309.90491921986506" fill="rgb(103,228,142)" opacity="0.85" r="5.396585818843192" /><circle cx="519.1587718827371" cy="416.043135770448" fill="rgb(178,103,228)" opacity="0.85" r="5.435617950178738" /><circle cx="298.9760650191229" cy="470.27624013016907" fill="rgb(228,215,103)" opacity="0.85" r="5.472833962686654" /><circle cx="427.62878203017397" cy="277.2415949383293" fill="rgb(103,204,228)" opacity="0.85" r="5.50839537274332" /><circle cx="463.89435245813985" cy="511.52971611912915" fill="rgb(228,103,168)" opacity="0.85" r="5.542443064278357" /><circle cx="275.0241890396547" cy="360.1151310348773" fill="rgb(132,228,103)" opacity="0.85" r="5.575100659894561" /><circle cx="521.453894490534" cy="343.90099952275756" fill="rgb(110,103,228)" opacity="0.85" r="5.606477230417186" /><circle cx="347.3533641761081" cy="525.757180000954" fill="rgb(228,147,103)" opacity="0.85" r="5.636669492803463" /><circle cx="353.02632269324897" cy="269.3539113882489" fill="rgb(103,228,183)" opacity="0.85" r="5.665763608140163" /><circle cx="525.0619834735098" cy="465.74813581267756" fill="rgb(220,103,228)" opacity="0.85" r="5.693836663989179" /><circle cx="261.0350988008486" cy="436.612341522815" fill="rgb(199,228,103)" opacity="0.85" r="5.720957905329724" /><circle cx="479.0226159020554" cy="277.13615773152856" fill="rgb(103,163,228)" opacity="0.85" r="5.747189763588118" /><circle cx="425.1195303118727" cy="546.2788330613455" fill="rgb(228,103,126)" opacity="0.85" r="5.772588722239782" /><circle cx="280.84887445350415" cy="307.6967642507389" fill="rgb(103,228,116)" opacity="0.85" r="5.797206049173184" /><circle cx="552.4672213314872" cy="387.38989642634834" fill="rgb(152,103,228)" opacity="0.85" r="5.821088419692929" /><circle cx="294.57598483039527" cy="513.9273257919465" fill="rgb(228,189,103)" opacity="0.85" r="5.844278449191531" /><circle cx="400.79129173627854" cy="242.57883675351684" fill="rgb(103,228,225)" opacity="0.85" r="5.866815150764888" /><circle cx="507.21123803418027" cy="518.2209349631806" fill="rgb(228,103,194)" opacity="0.85" r="5.88873433011538" /><circle cx="238.9556037569362" cy="385.04902320917654" fill="rgb(157,228,103)" opacity="0.85" r="5.910068927781109" /><circle cx="530.5331371848831" cy="300.9630391779533" fill="rgb(103,121,228)" opacity="0.85" r="5.930849316903718" /><circle cx="370.27282746551924" cy="563.2541116456268" fill="rgb(228,121,103)" opacity="0.85" r="5.951103563291149" /><circle cx="310.54626900997647" cy="257.79581577195245" fill="rgb(103,228,158)" opacity="0.85" r="5.9708576533634465" /><circle cx="563.9816838809039" cy="444.97107509817533" fill="rgb(194,103,228)" opacity="0.85" r="5.990135694626694" /><circle cx="246.91665531342863" cy="478.52560134998816" fill="rgb(225,228,103)" opacity="0.85" r="6.00896009255485" /><circle cx="460.52804869324183" cy="236.8266993252393" fill="rgb(103,188,228)" opacity="0.85" r="6.027351707134609" /><circle cx="466.3309690798246" cy="563.0268797362604" fill="rgb(228,103,152)" opacity="0.85" r="6.045329991816256" /><circle cx="239.2095175119357" cy="323.76108630910534" fill="rgb(116,228,103)" opacity="0.85" r="6.062913117191276" /><circle cx="571.8993078242733" cy="347.03803786725456" fill="rgb(126,103,228)" opacity="0.85" r="6.080118081368047" /><circle cx="308.05868987022336" cy="556.8104817891243" fill="rgb(228,163,103)" opacity="0.85" r="6.096960808726313" /><circle cx="361.4763089086897" cy="220.42537156958724" fill="rgb(103,228,199)" opacity="0.85" r="6.113456238488501" /><circle cx="551.2265547995949" cy="507.4711185322228" fill="rgb(228,103,220)" opacity="0.85" r="6.1296184043425175" /><circle cx="214.06251203200205" cy="423.1333743145052" fill="rgb(183,228,103)" opacity="0.85" r="6.145460506179461" /><circle cx="522.6639209986829" cy="255.95189981066844" fill="rgb(103,147,228)" opacity="0.85" r="6.160994974865142" /><circle cx="406.91934483441617" cy="590.8842727777533" fill="rgb(228,103,110)" opacity="0.85" r="6.176233530841698" /><circle cx="264.69933910364466" cy="262.64351368886446" fill="rgb(103,228,132)" opacity="0.85" r="6.19118723725142" /><circle cx="594.3241157960701" cy="409.9800518390267" fill="rgb(168,103,228)" opacity="0.85" r="6.205866548185977" /><circle cx="248.61173664657542" cy="525.0257868496365" fill="rgb(228,205,103)" opacity="0.85" r="6.22028135258812" /><circle cx="427.41765911210695" cy="203.82019504737158" fill="rgb(103,214,228)" opacity="0.85" r="6.23444101426764" /><circle cx="513.2807578982987" cy="564.6028676430897" fill="rgb(228,103,178)" opacity="0.85" r="6.248354408437136" /><circle cx="203.6114172619213" cy="354.76120071915335" fill="rgb(141,228,103)" opacity="0.85" r="6.262029955124576" /><circle cx="576.8495462280292" cy="299.86183228615323" fill="rgb(103,105,228)" opacity="0.85" r="6.275475649777681" /><circle cx="336.717359223182" cy="594.9028277228449" fill="rgb(228,137,103)" opacity="0.85" r="6.28869909133865" /><circle cx="314.3146291618745" cy="212.01539332625094" fill="rgb(103,228,174)" opacity="0.85" r="6.301707508036074" /><circle cx="591.6906101294433" cy="481.38363075001917" fill="rgb(210,103,228)" opacity="0.85" r="6.314507781113226" /><circle cx="202.12720361950207" cy="470.02379640035315" fill="rgb(209,228,103)" opacity="0.85" r="6.327106466687738" /><circle cx="499.372980501507" cy="213.26388512152866" fill="rgb(103,173,228)" opacity="0.85" r="6.339509815916509" /><circle cx="453.2681333196296" cy="606.3886190423376" fill="rgb(228,103,136)" opacity="0.85" r="6.35172379362114" /><circle cx="219.9600731493582" cy="282.9198091858449" fill="rgb(103,228,106)" opacity="0.85" r="6.363754095512773" /><circle cx="613.4175757028931" cy="364.4546069586261" fill="rgb(142,103,228)" opacity="0.85" r="6.375606164140885" /><circle cx="265.66539613685933" cy="571.6191744363123" fill="rgb(228,179,103)" opacity="0.85" r="6.387285203677807" /><circle cx="383.00614297864956" cy="181.14268141844414" fill="rgb(103,228,215)" opacity="0.85" r="6.3987961936394875" /><circle cx="561.5075287790004" cy="550.966968124731" fill="rgb(228,103,204)" opacity="0.85" r="6.410143901633052" /><circle cx="177.38129335870894" cy="397.7619172637287" fill="rgb(167,228,103)" opacity="0.85" r="6.421332895212844" /><circle cx="566.8110025482517" cy="250.24494254374852" fill="rgb(103,131,228)" opacity="0.85" r="6.432367552918713" /><circle cx="378.0068192336862" cy="624.626752744549" fill="rgb(228,111,103)" opacity="0.85" r="6.443252074563336" /><circle cx="263.5720673254366" cy="218.29505378546312" fill="rgb(103,228,148)" opacity="0.85" r="6.453990490829048" /><circle cx="624.821453194417" cy="442.10668260663545" fill="rgb(184,103,228)" opacity="0.85" r="6.464586672229065" /><circle cx="204.50692022274603" cy="521.6079953773271" fill="rgb(228,221,103)" opacity="0.85" r="6.475044337482947" /><circle cx="462.4077455529718" cy="176.84150852054546" fill="rgb(103,198,228)" opacity="0.85" r="6.485367061351674" /><circle cx="505.3921779681416" cy="608.0272051714012" fill="rgb(228,103,162)" opacity="0.85" r="6.495558281973617" /><circle cx="180.3901908732316" cy="317.2790761203703" fill="rgb(125,228,103)" opacity="0.85" r="6.505621307739105" /><circle cx="619.1680703754703" cy="312.108210372126" fill="rgb(117,103,228)" opacity="0.85" r="6.515559323737952" /><circle cx="297.1322939353947" cy="614.1640377117642" fill="rgb(228,153,103)" opacity="0.85" r="6.525375397811403" /><circle cx="330.7683305570285" cy="171.21327357112352" fill="rgb(103,228,190)" opacity="0.85" r="6.535072486237279" /><circle cx="606.8267872665248" cy="522.6680910294627" fill="rgb(226,103,228)" opacity="0.85" r="6.544653439074651" /><circle cx="163.2341955690353" cy="449.54921375627976" fill="rgb(193,228,103)" opacity="0.85" r="6.554121005192254" /><circle cx="541.9421899878287" cy="202.37921243687725" fill="rgb(103,157,228)" opacity="0.85" r="6.5634778370028055" /><circle cx="428.9932852902835" cy="643.0007008788008" fill="rgb(228,103,120)" opacity="0.85" r="6.572726494923668" /><circle cx="213.41411998589433" cy="239.48815980502744" fill="rgb(103,228,122)" opacity="0.85" r="6.581869451582566" /><circle cx="647.4006604329228" cy="392.2769873319593" fill="rgb(158,103,228)" opacity="0.85" r="6.590909095785712" /><circle cx="221.79778329232576" cy="573.7788592196721" fill="rgb(228,195,103)" opacity="0.85" r="6.599847736264213" /><circle cx="414.09351004021255" cy="150.11025397214001" fill="rgb(103,224,228)" opacity="0.85" r="6.60868760521348" /><circle cx="559.2731644897939" cy="594.8434281992376" fill="rgb(228,103,188)" opacity="0.85" r="6.6174308616392326" /><circle cx="149.59231283930353" cy="363.719386805656" fill="rgb(151,228,103)" opacity="0.85" r="6.626079594522605" /><circle cx="610.2720829304317" cy="256.8415770311542" fill="rgb(103,115,228)" opacity="0.85" r="6.634635825816003" /><circle cx="341.34348049963074" cy="648.9105981890576" fill="rgb(228,127,103)" opacity="0.85" r="6.643101513280433" /><circle cx="274.4601527199476" cy="175.66718884760695" fill="rgb(103,228,164)" opacity="0.85" r="6.651478553174269" /><circle cx="645.3715595415492" cy="481.03487784086894" fill="rgb(200,103,228)" opacity="0.85" r="6.659768782802706" /><circle cx="163.1202694884992" cy="506.5374918760423" fill="rgb(219,228,103)" opacity="0.85" r="6.6679739829364575" /></g><g filter="url(#phyllotaxisGlow)" id="phyllotaxisGlowGroup"><circle cx="503.2263502569261" cy="160.2189441198995" fill="rgb(103,182,228)" opacity="0.85" r="6.676095880107672" /><circle cx="486.2853735198398" cy="647.777841436206" fill="rgb(228,103,146)" opacity="0.85" r="6.684136148790474" /><circle cx="167.85273355445776" cy="274.959761212605" fill="rgb(109,228,103)" opacity="0.85" r="6.692096413473008" /><circle cx="656.9043400087128" cy="335.0695374824997" fill="rgb(133,103,228)" opacity="0.85" r="6.699978250627417" /><circle cx="253.71386154907304" cy="622.4962040554118" fill="rgb(228,169,103)" opacity="0.85" r="6.707783190583709" /><circle cx="357.36844753141327" cy="135.85016354354525" fill="rgb(103,228,205)" opacity="0.85" r="6.715512719313098" /><circle cx="610.871700495956" cy="566.7756023514827" fill="rgb(228,103,213)" opacity="0.85" r="6.723168280126019" /><circle cx="130.58053186595782" cy="419.55801738490777" fill="rgb(177,228,103)" opacity="0.85" r="6.730751275289654" /><circle cx="586.3238047009638" cy="202.6647626516792" fill="rgb(103,141,228)" opacity="0.85" r="6.738263067569525" /><circle cx="395.8884660413432" cy="672.633896700264" fill="rgb(228,103,104)" opacity="0.85" r="6.745704981699376" /><circle cx="218.0343773991517" cy="195.2488125141846" fill="rgb(103,228,138)" opacity="0.85" r="6.7530783057833155" /><circle cx="673.730180119865" cy="428.1906956426149" fill="rgb(174,103,228)" opacity="0.85" r="6.760384292633933" /><circle cx="178.11492344184424" cy="564.8585147147458" fill="rgb(228,211,103)" opacity="0.85" r="6.767624161049867" /><circle cx="452.4867825451315" cy="127.33748887107117" fill="rgb(103,208,228)" opacity="0.85" r="6.774799097036075" /><circle cx="546.1257971175287" cy="637.561253106946" fill="rgb(228,103,172)" opacity="0.85" r="6.781910254969873" /><circle cx="130.5971851126061" cy="323.1975837904391" fill="rgb(135,228,103)" opacity="0.85" r="6.788958758715596" /><circle cx="651.625466759099" cy="274.10519261285623" fill="rgb(107,103,228)" opacity="0.85" r="6.7959457026906005" /><circle cx="299.06283441238105" cy="663.9411996938343" fill="rgb(228,143,103)" opacity="0.85" r="6.802872152885092" /><circle cx="295.6925733515766" cy="136.06512302734768" fill="rgb(103,228,180)" opacity="0.85" r="6.809739147838205" /><circle cx="656.2862558466411" cy="524.6892290640928" fill="rgb(216,103,228)" opacity="0.85" r="6.816547699572532" /><circle cx="125.64059008880389" cy="481.5190359214982" fill="rgb(203,228,103)" opacity="0.85" r="6.823298794489224" /><circle cx="547.8571437367709" cy="153.53480100773552" fill="rgb(103,166,228)" opacity="0.85" r="6.829993394225637" /><circle cx="457.6973473297765" cy="682.7830186261231" fill="rgb(228,103,130)" opacity="0.85" r="6.836632436477393" /><circle cx="165.47614440514857" cy="229.75849239088942" fill="rgb(103,228,112)" opacity="0.85" r="6.843216835786606" /><circle cx="689.1048351169693" cy="366.97888081863357" fill="rgb(149,103,228)" opacity="0.85" r="6.849747484297934" /><circle cx="208.35329984390992" cy="620.5264894818401" fill="rgb(228,185,103)" opacity="0.85" r="6.85622525248403" /><circle cx="392.3212350254075" cy="106.75979631662057" fill="rgb(103,228,221)" opacity="0.85" r="6.862650989841841" /><circle cx="604.5554697555679" cy="611.8825866483282" fill="rgb(228,103,198)" opacity="0.85" r="6.869025525561183" /><circle cx="104.87841408094249" cy="381.86686733545184" fill="rgb(161,228,103)" opacity="0.85" r="6.875349669166873" /><circle cx="630.7661916658719" cy="213.2892182986149" fill="rgb(103,125,228)" opacity="0.85" r="6.881624211135694" /><circle cx="355.78860876459106" cy="694.6993287207222" fill="rgb(228,117,103)" opacity="0.85" r="6.8878499234893376" /><circle cx="232.89061634418397" cy="151.8766725970926" fill="rgb(103,228,154)" opacity="0.85" r="6.894027560364465" /><circle cx="691.9422877854763" cy="470.3478681539224" fill="rgb(190,103,228)" opacity="0.85" r="6.900157858560921" /><circle cx="136.20983734460629" cy="545.8844141139241" fill="rgb(228,227,103)" opacity="0.85" r="6.9062415380690965" /><circle cx="496.33115775758654" cy="113.16169976081056" fill="rgb(103,192,228)" opacity="0.85" r="6.912279302577403" /><circle cx="523.1842546414421" cy="677.6147187945178" fill="rgb(228,103,156)" opacity="0.85" r="6.918271839960729" /><circle cx="120.60549873282474" cy="278.05166836526354" fill="rgb(119,228,103)" opacity="0.85" r="6.924219822750744" /><circle cx="689.4582795565098" cy="300.8285445961533" fill="rgb(123,103,228)" opacity="0.85" r="6.9301239085888415" /><circle cx="253.01329206195385" cy="669.6374808964244" fill="rgb(228,159,103)" opacity="0.85" r="6.9359847406625" /><circle cx="325.9784686790968" cy="100.80329788006497" fill="rgb(103,228,196)" opacity="0.85" r="6.941802948125764" /><circle cx="657.6132783956881" cy="571.2356350082094" fill="rgb(228,103,223)" opacity="0.85" r="6.9475791465045535" /><circle cx="93.27838230954882" cy="447.92163799051684" fill="rgb(187,228,103)" opacity="0.85" r="6.953313938087444" /><circle cx="594.4882744210432" cy="156.61278689510235" fill="rgb(103,150,228)" opacity="0.85" r="6.9590079123025355" /><circle cx="421.0691375916495" cy="711.941510663923" fill="rgb(228,103,114)" opacity="0.85" r="6.964661646081009" /><circle cx="172.95644813228614" cy="183.45663151843806" fill="rgb(103,228,128)" opacity="0.85" r="6.970275704207926" /><circle cx="714.7826663859016" cy="406.329934038628" fill="rgb(165,103,228)" opacity="0.85" r="6.9758506396608" /><circle cx="162.79302277677306" cy="608.6850146092746" fill="rgb(228,201,103)" opacity="0.85" r="6.981386993936459" /><circle cx="434.0624870606922" cy="84.81002143945585" fill="rgb(103,218,228)" opacity="0.85" r="6.986885297366669" /><circle cx="588.4321209636928" cy="656.2941701303071" fill="rgb(228,103,182)" opacity="0.85" r="6.9923460694229895" /><circle cx="86.87239152255148" cy="338.089928874579" fill="rgb(145,228,103)" opacity="0.85" r="6.9977698190112925" /><circle cx="673.6306580842329" cy="233.5776177978064" fill="rgb(103,109,228)" opacity="0.85" r="7.003157044756367" /><circle cx="310.34937088934686" cy="708.5794894114481" fill="rgb(228,133,103)" opacity="0.85" r="7.008508235277005" /><circle cx="257.19065596973934" cy="110.94564855910755" fill="rgb(103,228,170)" opacity="0.85" r="7.013823869451939" /><circle cx="701.5496707987752" cy="517.060296917106" fill="rgb(206,103,228)" opacity="0.85" r="7.019104416677021" /><circle cx="97.5831693294997" cy="517.7614871011872" fill="rgb(213,228,103)" opacity="0.85" r="7.024350337113948" /><circle cx="543.9152346650876" cy="107.9375019070946" fill="rgb(103,176,228)" opacity="0.85" r="7.029562081930904" /><circle cx="491.46099332226214" cy="713.5847166323372" fill="rgb(228,103,140)" opacity="0.85" r="7.034740093535397" /><circle cx="119.83737445530096" cy="230.00652572324663" fill="rgb(103,228,103)" opacity="0.85" r="7.0398848057996295" /><circle cx="722.440928308029" cy="335.89761280155477" fill="rgb(139,103,228)" opacity="0.85" r="7.044996644278647" /><circle cx="204.92323180406902" cy="665.9148605227176" fill="rgb(228,175,103)" opacity="0.85" r="7.050076026421574" /><circle cx="364.108937443084" cy="71.11418332645701" fill="rgb(103,228,212)" opacity="0.85" r="7.055123361776185" /><circle cx="649.4038393801217" cy="618.9524238889461" fill="rgb(228,103,207)" opacity="0.85" r="7.060139052187061" /><circle cx="67.16183565477121" cy="407.04170601425045" fill="rgb(171,228,103)" opacity="0.85" r="7.0651234919875705" /><circle cx="641.4151087884128" cy="169.2664637273681" fill="rgb(103,134,228)" opacity="0.85" r="7.070077068185907" /><circle cx="377.7766294789325" cy="734.2360416812958" fill="rgb(228,108,103)" opacity="0.85" r="7.07500016064541" /><circle cx="189.97339227373845" cy="137.73138951258568" fill="rgb(103,228,144)" opacity="0.85" r="7.079893142259359" /></g></svg>