<?xml version="1.0" encoding="utf-8" ?>
<svg baseProfile="full" height="800px" version="1.1" width="800px" xmlns="http://www.w3.org/2000/svg" xmlns:ev="http://www.w3.org/2001/xml-events" xmlns:xlink="http://www.w3.org/1999/xlink"><defs><filter id="phyllotaxisGlow"><feGaussianBlur in="SourceGraphic" result="blur" stdDeviation="2" /><feComposite in="SourceGraphic" in2="blur" operator="over" /></filter></defs><rect fill="#ffffff" height="800" width="800" x="0" y="0" /><g id="flowFieldGroup" opacity="0.25"><path d="M280.1,365.9 L279.5,370.4 L280.0,375.0 L281.5,379.4 L283.5,383.5 L286.1,387.3 L289.0,390.8 L292.2,394.1 L295.6,397.2 L299.2,400.2 L302.8,403.0 L306.5,405.7 L310.3,408.4 L314.0,411.0 L317.8,413.7 L321.4,416.5 L325.0,419.3 L328.5,422.4 L331.8,425.6 L334.9,429.0 L337.7,432.6 L340.3,436.4 L342.6,440.4 L344.6,444.6 L346.3,448.8 L347.8,453.2 L349.0,457.6 L350.2,462.1 L351.2,466.5 L352.1,471.0 L353.1,475.6" fill="none" opacity="0.4" stroke="rgb(76,90,178)" stroke-width="0.8" /><path d="M80.6,437.7 L84.9,436.1 L89.0,434.0 L92.9,431.5 L96.6,428.8 L100.1,425.8 L103.5,422.7 L106.9,419.6 L110.2,416.4 L113.6,413.3 L117.1,410.3 L120.6,407.3 L124.2,404.5 L127.9,401.7 L131.6,399.0 L135.4,396.4 L139.2,393.8 L143.0,391.2 L146.7,388.6 L150.5,385.9 L154.2,383.1 L157.8,380.3 L161.4,377.4 L164.9,374.5 L168.4,371.5 L171.9,368.4 L175.3,365.4 L178.8,362.4 L182.4,359.5 L186.1,356.7 L189.9,354.2" fill="none" opacity="0.4" stroke="rgb(76,90,178)" stroke-width="0.8" /><path d="M695.2,150.2 L698.8,147.3 L701.9,143.9 L704.8,140.3 L707.3,136.5 L709.6,132.5 L711.9,128.5 L714.1,124.5 L716.4,120.5 L718.8,116.5 L721.4,112.7 L724.2,109.1 L727.4,105.8 L730.8,102.7 L734.6,100.1 L738.6,97.8 L742.9,96.1 L747.3,94.8 L751.8,94.0 L756.4,93.6 L761.0,93.5 L765.6,93.8 L770.1,94.3 L774.7,95.0 L779.2,95.8 L783.7,96.7 L788.2,97.6 L792.8,98.4 L797.3,99.1" fill="none" opacity="0.4" stroke="rgb(76,90,178)" stroke-width="0.8" /><path d="M622.5,248.0 L621.3,252.5 L619.8,256.8 L617.7,260.9 L615.1,264.7 L611.9,268.0 L608.2,270.7 L604.0,272.6 L599.5,273.5 L594.9,273.5 L590.4,272.6 L586.1,270.8 L582.2,268.4 L578.7,265.5 L575.6,262.1 L572.8,258.4 L570.4,254.4 L568.3,250.4 L566.2,246.3 L564.3,242.1 L562.3,237.9 L560.3,233.8 L558.1,229.8 L555.7,225.8 L553.0,222.1 L550.0,218.6 L546.7,215.4 L543.1,212.6 L539.1,210.2 L534.9,208.3 L530.5,207.0" fill="none" opacity="0.4" stroke="rgb(76,90,178)" stroke-width="0.8" /><path d="M109.3,620.5 L105.2,618.5 L101.1,616.4 L97.1,614.1 L93.2,611.7 L89.3,609.2 L85.5,606.6 L81.8,603.8 L78.2,601.0 L74.7,598.0 L71.4,594.9 L68.2,591.5 L65.3,587.9 L62.8,584.1 L60.7,580.0 L59.1,575.7 L58.1,571.2 L57.8,566.6 L58.1,562.0 L59.0,557.5 L60.4,553.1 L62.4,549.0 L64.7,545.0 L67.3,541.2 L70.1,537.5 L73.0,534.0 L75.9,530.4 L78.8,526.8 L81.6,523.2 L84.2,519.4 L86.7,515.5" fill="none" opacity="0.4" stroke="rgb(76,90,178)" stroke-width="0.8" /><path d="M539.3,551.2 L540.7,555.6 L542.8,559.7 L545.5,563.4 L548.8,566.6 L552.4,569.4 L556.4,571.8 L560.5,573.7 L564.8,575.4 L569.2,577.0 L573.5,578.5 L577.8,580.0 L582.1,581.6 L586.4,583.5 L590.5,585.5 L594.4,587.9 L598.2,590.5 L601.7,593.5 L605.0,596.8 L607.9,600.3 L610.6,604.0 L613.0,608.0 L615.1,612.0 L617.1,616.2 L618.9,620.4 L620.7,624.6 L622.5,628.9 L624.3,633.1 L626.2,637.3 L628.3,641.4 L630.6,645.4" fill="none" opacity="0.4" stroke="rgb(76,90,178)" stroke-width="0.8" /><path d="M15.4,57.2 L17.0,61.5 L18.4,65.9 L19.7,70.3 L21.0,74.7 L22.4,79.1 L23.8,83.5 L25.3,87.8 L27.0,92.1 L28.7,96.4 L30.5,100.6 L32.4,104.8 L34.4,108.9 L36.4,113.1 L38.5,117.2 L40.5,121.3 L42.6,125.4 L44.6,129.6 L46.6,133.7 L48.5,137.9 L50.3,142.1 L52.1,146.4 L53.8,150.6 L55.5,154.9 L57.1,159.2 L58.7,163.5 L60.2,167.9 L61.8,172.2 L63.3,176.5 L64.9,180.9 L66.6,185.1" fill="none" opacity="0.4" stroke="rgb(76,90,178)" stroke-width="0.8" /><path d="M423.2,654.1 L418.7,653.4 L414.1,653.0 L409.5,652.9 L404.9,653.3 L400.4,654.2 L395.9,655.4 L391.6,657.0 L387.5,659.0 L383.4,661.1 L379.5,663.5 L375.6,666.0 L371.8,668.6 L368.0,671.2 L364.3,673.9 L360.6,676.7 L356.9,679.4 L353.3,682.3 L349.7,685.1 L346.2,688.1 L342.8,691.2 L339.5,694.4 L336.3,697.8 L333.4,701.3 L330.6,704.9 L328.1,708.8 L325.7,712.7 L323.6,716.8 L321.8,721.0 L320.1,725.3 L318.6,729.7" fill="none" opacity="0.4" stroke="rgb(76,90,178)" stroke-width="0.8" /><path d="M534.7,250.3 L532.4,246.3 L529.7,242.6 L526.6,239.1 L523.1,236.2 L519.2,233.8 L514.9,232.2 L510.3,231.5 L505.7,231.6 L501.2,232.7 L497.0,234.5 L493.1,236.9 L489.6,239.9 L486.4,243.2 L483.5,246.7 L480.8,250.5 L478.2,254.3 L475.7,258.1 L473.2,262.0 L470.6,265.8 L467.9,269.5 L465.0,273.1 L461.9,276.5 L458.6,279.7 L455.1,282.7 L451.4,285.4 L447.5,287.9 L443.5,290.1 L439.3,292.0 L435.0,293.7 L430.7,295.2" fill="none" opacity="0.4" stroke="rgb(76,90,178)" stroke-width="0.8" /><path d="M723.5,52.3 L726.0,56.1 L728.9,59.7 L732.0,63.0 L735.5,66.1 L739.2,68.8 L743.1,71.3 L747.1,73.6 L751.2,75.7 L755.3,77.6 L759.5,79.5 L763.8,81.2 L768.1,83.0 L772.3,84.6 L776.6,86.2 L781.0,87.8 L785.3,89.3 L789.7,90.7 L794.2,91.9 L798.6,92.9" fill="none" opacity="0.4" stroke="rgb(76,90,178)" stroke-width="0.8" /><path d="M223.9,523.1 L221.4,527.0 L219.1,531.0 L217.1,535.1 L215.3,539.3 L213.9,543.7 L212.8,548.2 L212.1,552.7 L211.8,557.3 L211.8,561.9 L212.0,566.5 L212.6,571.1 L213.4,575.6 L214.3,580.1 L215.3,584.6 L216.4,589.1 L217.4,593.6 L218.4,598.1 L219.1,602.6 L219.6,607.2 L219.9,611.8 L219.7,616.4 L219.2,620.9 L218.3,625.4 L217.0,629.9 L215.2,634.1 L213.1,638.2 L210.5,642.0 L207.6,645.5 L204.4,648.8 L200.9,651.8" fill="none" opacity="0.4" stroke="rgb(76,90,178)" stroke-width="0.8" /><path d="M590.3,164.5 L589.1,168.9 L587.3,173.1 L585.0,177.1 L582.2,180.8 L578.9,184.0 L575.2,186.7 L571.1,188.9 L566.8,190.5 L562.4,191.7 L557.9,192.6 L553.3,193.2 L548.7,193.6 L544.2,194.0 L539.6,194.4 L535.0,194.8 L530.4,195.3 L525.9,196.0 L521.4,196.9 L516.9,198.1 L512.5,199.4 L508.2,201.1 L504.1,203.1 L500.1,205.4 L496.3,208.0 L492.8,211.0 L489.6,214.3 L486.7,217.8 L484.1,221.6 L481.7,225.6 L479.7,229.7" fill="none" opacity="0.4" stroke="rgb(76,90,178)" stroke-width="0.8" /><path d="M540.5,280.6 L538.3,276.6 L536.1,272.6 L533.9,268.5 L531.6,264.6 L529.1,260.7 L526.4,257.0 L523.3,253.6 L519.8,250.6 L515.9,248.1 L511.6,246.4 L507.1,245.6 L502.5,245.7 L498.0,246.8 L493.8,248.6 L489.9,251.0 L486.3,253.9 L483.0,257.1 L479.8,260.4 L476.8,263.9 L473.8,267.4 L470.8,270.8 L467.6,274.2 L464.3,277.4 L460.9,280.5 L457.3,283.3 L453.5,286.0 L449.6,288.3 L445.5,290.5 L441.3,292.4 L437.0,294.1" fill="none" opacity="0.4" stroke="rgb(76,90,178)" stroke-width="0.8" /><path d="M755.1,5.8 L754.8,10.4 L754.6,15.0 L754.5,19.6 L754.5,24.2 L754.8,28.8 L755.4,33.3 L756.3,37.8 L757.5,42.3 L759.2,46.5 L761.4,50.6 L763.9,54.5 L766.7,58.1 L769.9,61.4 L773.3,64.5 L777.0,67.3 L780.8,69.8 L784.8,72.1 L788.9,74.2 L793.1,76.0 L797.5,77.5" fill="none" opacity="0.4" stroke="rgb(76,90,178)" stroke-width="0.8" /><path d="M353.4,454.7 L352.9,459.3 L352.8,463.9 L353.0,468.5 L353.4,473.0 L354.0,477.6 L354.7,482.1 L355.6,486.7 L356.6,491.2 L357.6,495.6 L358.8,500.1 L360.1,504.5 L361.5,508.9 L363.1,513.2 L364.9,517.4 L366.8,521.6 L368.9,525.7 L371.2,529.7 L373.8,533.5 L376.5,537.2 L379.4,540.7 L382.5,544.1 L385.8,547.4 L389.2,550.4 L392.8,553.4 L396.4,556.2 L400.1,559.0 L403.8,561.7 L407.5,564.4 L411.2,567.1 L414.9,569.8" fill="none" opacity="0.4" stroke="rgb(76,90,178)" stroke-width="0.8" /><path d="M617.6,567.1 L621.3,569.8 L624.8,572.7 L628.2,575.9 L631.3,579.2 L634.3,582.8 L637.1,586.4 L639.7,590.2 L642.2,594.0 L644.7,597.9 L647.2,601.8 L649.8,605.6 L652.5,609.3 L655.4,612.9 L658.6,616.2 L662.1,619.2 L665.9,621.7 L670.1,623.7 L674.5,625.1 L679.0,625.7 L683.6,625.5 L688.1,624.5 L692.4,622.8 L696.4,620.5 L700.0,617.7 L703.2,614.4 L706.1,610.9 L708.8,607.1 L711.3,603.2 L713.6,599.3 L715.9,595.3" fill="none" opacity="0.4" stroke="rgb(76,90,178)" stroke-width="0.8" /><path d="M171.9,80.9 L175.4,83.9 L179.2,86.5 L183.1,88.9 L187.3,90.8 L191.6,92.4 L196.1,93.6 L200.6,94.4 L205.1,95.1 L209.7,95.5 L214.3,95.9 L218.9,96.2 L223.5,96.6 L228.0,97.1 L232.6,97.7 L237.1,98.6 L241.6,99.7 L245.9,101.2 L250.2,103.0 L254.2,105.2 L258.0,107.8 L261.6,110.7 L264.9,113.9 L267.9,117.4 L270.6,121.1 L273.1,124.9 L275.4,128.9 L277.6,132.9 L279.8,137.0 L281.9,141.1 L284.2,145.1" fill="none" opacity="0.4" stroke="rgb(76,90,178)" stroke-width="0.8" /><path d="M409.8,45.8 L412.9,42.4 L415.8,38.8 L418.5,35.1 L420.9,31.2 L423.0,27.1 L424.8,22.8 L426.3,18.5 L427.4,14.0 L428.3,9.5 L429.0,5.0 L429.5,0.4" fill="none" opacity="0.4" stroke="rgb(76,90,178)" stroke-width="0.8" /><path d="M291.8,115.0 L294.0,119.0 L296.2,123.1 L298.5,127.1 L300.9,131.0 L303.6,134.7 L306.5,138.2 L309.9,141.4 L313.7,144.0 L317.8,146.0 L322.2,147.3 L326.8,147.6 L331.4,147.0 L335.7,145.5 L339.7,143.2 L343.2,140.3 L346.2,136.8 L348.8,133.0 L351.0,128.9 L352.9,124.7 L354.5,120.5 L356.0,116.1 L357.5,111.7 L359.0,107.4 L360.4,103.0 L362.0,98.7 L363.7,94.4 L365.5,90.2 L367.5,86.1 L369.8,82.0 L372.2,78.1" fill="none" opacity="0.4" stroke="rgb(76,90,178)" stroke-width="0.8" /><path d="M499.3,518.0 L495.3,520.3 L491.4,522.6 L487.5,525.0 L483.6,527.5 L479.7,530.0 L475.8,532.5 L472.0,535.0 L468.2,537.6 L464.4,540.2 L460.7,542.9 L457.1,545.7 L453.6,548.8 L450.4,552.0 L447.5,555.6 L445.0,559.5 L443.2,563.7 L442.0,568.2 L441.6,572.7 L441.9,577.3 L442.9,581.8 L444.6,586.1 L446.7,590.2 L449.1,594.1 L451.9,597.8 L454.9,601.2 L458.1,604.5 L461.6,607.6 L465.2,610.4 L469.0,613.0 L473.0,615.3" fill="none" opacity="0.4" stroke="rgb(76,90,178)" stroke-width="0.8" /></g><g id="phyllotaxisGroup"><circle cx="380.7121532304482" cy="417.6691015281613" fill="rgb(220,132,59)" opacity="0.85" r="3.0" /><circle cx="403.23438936002043" cy="363.1492864505428" fill="rgb(59,220,179)" opacity="0.85" r="3.5545177444479563" /><circle cx="427.5656272352706" cy="435.9553993244499" fill="rgb(220,59,215)" opacity="0.85" r="3.8788898309344875" /><circle cx="348.48473705017625" cy="390.886800206116" fill="rgb(168,220,59)" opacity="0.85" r="4.109035488895913" /><circle cx="449.351971550823" cy="368.6077427836469" fill="rgb(59,121,220)" opacity="0.85" r="4.287550329947281" /><circle cx="383.36492602388523" cy="461.8755477124711" fill="rgb(220,59,74)" opacity="0.85" r="4.433407575382444" /><circle cx="368.10404965172546" cy="338.5819601085505" fill="rgb(59,220,92)" opacity="0.85" r="4.556728119244251" /><circle cx="469.49462921814245" cy="425.3819219992963" fill="rgb(139,59,220)" opacity="0.85" r="4.663553233343869" /><circle cx="327.46300473943364" cy="429.93907070922893" fill="rgb(220,185,59)" opacity="0.85" r="4.757779661868976" /><circle cx="435.0625586958886" cy="325.0813855181558" fill="rgb(59,208,220)" opacity="0.85" r="4.842068074395237" /><circle cx="425.9605700558925" cy="482.77951922047566" fill="rgb(220,59,161)" opacity="0.85" r="4.918316218238696" /><circle cx="321.6033278615402" cy="354.5623506392218" fill="rgb(114,220,59)" opacity="0.85" r="4.9879253198304" /><circle cx="492.11375942558936" cy="379.7542180165594" fill="rgb(59,67,220)" opacity="0.85" r="5.051959485969229" /><circle cx="343.7059458445832" cy="480.06268801508946" fill="rgb(220,99,59)" opacity="0.85" r="5.111245863692208" /><circle cx="386.98706930225944" cy="299.5314160449719" fill="rgb(59,220,145)" opacity="0.85" r="5.166440160881768" /><circle cx="480.0009787221654" cy="467.4339255314901" fill="rgb(192,59,220)" opacity="0.85" r="5.218070977791825" /><circle cx="292.24138527685784" cy="404.4486002133819" fill="rgb(201,220,59)" opacity="0.85" r="5.266570675244973" /><circle cx="478.6696689158673" cy="321.7247774490861" fill="rgb(59,154,220)" opacity="0.85" r="5.312297406316931" /><circle cx="394.724423688758" cy="513.8960655559696" fill="rgb(220,59,107)" opacity="0.85" r="5.355551183333152" /><circle cx="325.0571234609122" cy="310.17834953414246" fill="rgb(60,220,59)" opacity="0.85" r="5.396585818843192" /><circle cx="518.7971359292236" cy="415.9944463235023" fill="rgb(105,59,220)" opacity="0.85" r="5.435617950178738" /><circle cx="299.2826634044307" cy="470.06295818115876" fill="rgb(220,152,59)" opacity="0.85" r="5.472833962686654" /><circle cx="427.5449312084843" cy="277.61415544868737" fill="rgb(59,220,199)" opacity="0.85" r="5.50839537274332" /><circle cx="463.7004389534079" cy="511.19123365076723" fill="rgb(220,59,194)" opacity="0.85" r="5.542443064278357" /><circle cx="275.40347917372264" cy="360.2361779573243" fill="rgb(147,220,59)" opacity="0.85" r="5.575100659894561" /><circle cx="521.08529305022" cy="344.0712548485569" fill="rgb(59,100,220)" opacity="0.85" r="5.606477230417186" /><circle cx="347.513141891543" cy="525.3755184834488" fill="rgb(220,65,59)" opacity="0.85" r="5.636669492803463" /><circle cx="353.16888349942764" cy="269.75041029539125" fill="rgb(59,220,112)" opacity="0.85" r="5.665763608140163" /><circle cx="524.6824318137609" cy="465.5485962453366" fill="rgb(159,59,220)" opacity="0.85" r="5.693836663989179" /><circle cx="261.4568445418967" cy="436.5012264212764" fill="rgb(220,206,59)" opacity="0.85" r="5.720957905329724" /><circle cx="478.7827895040543" cy="277.5090382341476" fill="rgb(59,187,220)" opacity="0.85" r="5.747189763588118" /><circle cx="425.043294839212" cy="545.8348902073099" fill="rgb(220,59,140)" opacity="0.85" r="5.772588722239782" /><circle cx="281.2104872010879" cy="307.9768961130027" fill="rgb(94,220,59)" opacity="0.85" r="5.797206049173184" /><circle cx="552.0044972861266" cy="387.42816693516363" fill="rgb(72,59,220)" opacity="0.85" r="5.821088419692929" /><circle cx="294.8959370558731" cy="513.5815667979333" fill="rgb(220,119,59)" opacity="0.85" r="5.844278449191531" /><circle cx="400.78889023836916" cy="243.05659555863343" fill="rgb(59,220,166)" opacity="0.85" r="5.866815150764888" /><circle cx="506.8858617510811" cy="517.8621452587789" fill="rgb(213,59,220)" opacity="0.85" r="5.88873433011538" /><circle cx="239.44435874218135" cy="385.09439805369936" fill="rgb(180,220,59)" opacity="0.85" r="5.910068927781109" /><circle cx="530.1369810749709" cy="301.26360727876596" fill="rgb(59,134,220)" opacity="0.85" r="5.930849316903718" /><circle cx="370.3630467101028" cy="562.7586503766229" fill="rgb(220,59,87)" opacity="0.85" r="5.951103563291149" /><circle cx="310.8177528864112" cy="258.22739244016054" fill="rgb(59,220,79)" opacity="0.85" r="5.9708576533634465" /><circle cx="563.4840144968372" cy="444.8345920061906" fill="rgb(126,59,220)" opacity="0.85" r="5.990135694626694" /><circle cx="247.38124923671324" cy="478.28728334560844" fill="rgb(220,173,59)" opacity="0.85" r="6.00896009255485" /><circle cx="460.3443516119641" cy="237.32191534035184" fill="rgb(59,220,220)" opacity="0.85" r="6.027351707134609" /><circle cx="466.129660666926" cy="562.5321080952789" fill="rgb(220,59,174)" opacity="0.85" r="6.045329991816256" /><circle cx="239.69750189220193" cy="323.99246442598104" fill="rgb(127,220,59)" opacity="0.85" r="6.062913117191276" /><circle cx="571.3776091770724" cy="347.1987725691418" fill="rgb(59,80,220)" opacity="0.85" r="6.080118081368047" /><circle cx="308.3377233213971" cy="556.3345763462709" fill="rgb(220,86,59)" opacity="0.85" r="6.096960808726313" /><circle cx="361.5932247810216" cy="220.9703641114975" fill="rgb(59,220,133)" opacity="0.85" r="6.113456238488501" /><circle cx="550.7675960634697" cy="507.1449535356263" fill="rgb(180,59,220)" opacity="0.85" r="6.1296184043425175" /><circle cx="214.62681526954628" cy="423.06316664329455" fill="rgb(214,220,59)" opacity="0.85" r="6.145460506179461" /><circle cx="522.2916472387979" cy="256.3890725948513" fill="rgb(59,167,220)" opacity="0.85" r="6.160994974865142" /><circle cx="406.8983452569" cy="590.3049565016115" fill="rgb(220,59,120)" opacity="0.85" r="6.176233530841698" /><circle cx="265.1099642111476" cy="263.06037803811506" fill="rgb(73,220,59)" opacity="0.85" r="6.19118723725142" /><circle cx="593.7343599115788" cy="409.9497632962204" fill="rgb(93,59,220)" opacity="0.85" r="6.205866548185977" /><circle cx="249.07118615334318" cy="524.6463450433241" fill="rgb(220,140,59)" opacity="0.85" r="6.22028135258812" /><circle cx="427.3344490291273" cy="204.41558277840636" fill="rgb(59,220,186)" opacity="0.85" r="6.23444101426764" /><circle cx="512.9369611785943" cy="564.1033130232271" fill="rgb(220,59,207)" opacity="0.85" r="6.248354408437136" /><circle cx="204.2074386144035" cy="354.8984963294995" fill="rgb(160,220,59)" opacity="0.85" r="6.262029955124576" /><circle cx="576.3128240608894" cy="300.1657424489731" fill="rgb(59,113,220)" opacity="0.85" r="6.275475649777681" /><circle cx="336.90941623901546" cy="594.3113155006864" fill="rgb(220,59,66)" opacity="0.85" r="6.28869909133865" /><circle cx="314.57467641056303" cy="212.5859093814788" fill="rgb(59,220,100)" opacity="0.85" r="6.301707508036074" /><circle cx="591.1088466933281" cy="481.1366388883067" fill="rgb(146,59,220)" opacity="0.85" r="6.314507781113226" /><circle cx="202.72772942438263" cy="469.81128059493005" fill="rgb(220,193,59)" opacity="0.85" r="6.327106466687738" /><circle cx="499.0713926117584" cy="213.8306121185638" fill="rgb(59,200,220)" opacity="0.85" r="6.339509815916509" /><circle cx="453.1064694162462" cy="605.7622484960284" fill="rgb(220,59,153)" opacity="0.85" r="6.35172379362114" /><circle cx="220.50647782933612" cy="283.2751368362867" fill="rgb(106,220,59)" opacity="0.85" r="6.363754095512773" /><circle cx="612.7698729172197" cy="364.5624839692937" fill="rgb(60,59,220)" opacity="0.85" r="6.375606164140885" /><circle cx="266.0730893497914" cy="571.0983259682736" fill="rgb(220,106,59)" opacity="0.85" r="6.387285203677807" /><circle cx="383.0577177774721" cy="181.80689332528178" fill="rgb(59,220,153)" opacity="0.85" r="6.3987961936394875" /><circle cx="561.0173682289479" cy="550.5087972103768" fill="rgb(200,59,220)" opacity="0.85" r="6.410143901633052" /><circle cx="178.05692073363193" cy="397.7687096397459" fill="rgb(193,220,59)" opacity="0.85" r="6.421332895212844" /><circle cx="566.304746441295" cy="250.69943542027772" fill="rgb(59,146,220)" opacity="0.85" r="6.432367552918713" /><circle cx="378.0735665219601" cy="623.9450311337105" fill="rgb(220,59,99)" opacity="0.85" r="6.443252074563336" /><circle cx="263.98611359948853" cy="218.8465116466359" fill="rgb(59,220,66)" opacity="0.85" r="6.453990490829048" /><circle cx="624.1391406855546" cy="441.97889268338304" fill="rgb(113,59,220)" opacity="0.85" r="6.464586672229065" /><circle cx="205.1002238058018" cy="521.2389262549428" fill="rgb(220,160,59)" opacity="0.85" r="6.475044337482947" /><circle cx="462.2183437639714" cy="177.51877409298893" fill="rgb(59,220,207)" opacity="0.85" r="6.485367061351674" /><circle cx="505.0723223656528" cy="607.3958616663426" fill="rgb(220,59,186)" opacity="0.85" r="6.495558281973617" /><circle cx="181.05668651991925" cy="317.5301265441878" fill="rgb(139,220,59)" opacity="0.85" r="6.505621307739105" /><circle cx="618.502915365414" cy="312.37495389965557" fill="rgb(59,93,220)" opacity="0.85" r="6.515559323737952" /><circle cx="297.44448799698705" cy="613.5140694822962" fill="rgb(220,73,59)" opacity="0.85" r="6.525375397811403" /><circle cx="330.97844232972267" cy="171.90762032089347" fill="rgb(59,220,120)" opacity="0.85" r="6.535072486237279" /><circle cx="606.1990869198069" cy="522.2958046139164" fill="rgb(167,59,220)" opacity="0.85" r="6.544653439074651" /><circle cx="163.95275808937632" cy="449.3988364329868" fill="rgb(220,214,59)" opacity="0.85" r="6.554121005192254" /><circle cx="541.5114084481316" cy="202.97897341808996" fill="rgb(59,179,220)" opacity="0.85" r="6.5634778370028055" /><circle cx="428.90529332623606" cy="642.2632160190773" fill="rgb(220,59,133)" opacity="0.85" r="6.572726494923668" /><circle cx="213.98039103388294" cy="239.9752985314676" fill="rgb(86,220,59)" opacity="0.85" r="6.581869451582566" /><circle cx="646.6498220991441" cy="392.30042596770613" fill="rgb(80,59,220)" opacity="0.85" r="6.590909095785712" /><circle cx="222.33861069041888" cy="573.2514563062193" fill="rgb(220,127,59)" opacity="0.85" r="6.599847736264213" /><circle cx="414.0507375287036" cy="150.86864645261122" fill="rgb(59,220,174)" opacity="0.85" r="6.60868760521348" /><circle cx="558.7897850306125" cy="594.2520962491901" fill="rgb(220,59,219)" opacity="0.85" r="6.6174308616392326" /><circle cx="150.3522772236512" cy="363.8294951421157" fill="rgb(173,220,59)" opacity="0.85" r="6.626079594522605" /><circle cx="609.6339264270845" cy="257.27604972649874" fill="rgb(59,126,220)" opacity="0.85" r="6.634635825816003" /><circle cx="341.5214976613062" cy="648.1551773325527" fill="rgb(220,59,79)" opacity="0.85" r="6.643101513280433" /><circle cx="274.8411546525602" cy="176.34801837264865" fill="rgb(59,220,87)" opacity="0.85" r="6.651478553174269" /><circle cx="644.6268793430386" cy="480.7889444122777" fill="rgb(134,59,220)" opacity="0.85" r="6.659768782802706" /><circle cx="163.83917776405497" cy="506.21416035079415" fill="rgb(220,181,59)" opacity="0.85" r="6.6679739829364575" /><circle cx="502.9130677430745" cy="160.94665765208515" fill="rgb(59,213,220)" opacity="0.85" r="6.676095880107672" /></g><g filter="url(#phyllotaxisGlow)" id="phyllotaxisGlowGroup"><circle cx="486.0235053179937" cy="647.0258583926454" fill="rgb(220,59,166)" opacity="0.85" r="6.684136148790474" /><circle cx="168.55727923523418" cy="275.3392468792242" fill="rgb(119,220,59)" opacity="0.85" r="6.692096413473008" /><circle cx="656.1246588782941" cy="335.2665954863175" fill="rgb(59,72,220)" opacity="0.85" r="6.699978250627417" /><circle cx="254.15782657429654" cy="621.8209484646114" fill="rgb(220,94,59)" opacity="0.85" r="6.707783190583709" /><circle cx="357.49783038660007" cy="136.6518340917395" fill="rgb(59,220,141)" opacity="0.85" r="6.715512719313098" /><circle cx="610.2317242082437" cy="566.2694536808793" fill="rgb(187,59,220)" opacity="0.85" r="6.723168280126019" /><circle cx="131.3981952634092" cy="419.49866059434953" fill="rgb(206,220,59)" opacity="0.85" r="6.730751275289654" /><circle cx="585.7583290275352" cy="203.2636570141565" fill="rgb(59,159,220)" opacity="0.85" r="6.738263067569525" /><circle cx="395.90094417014603" cy="671.8064778066694" fill="rgb(220,59,112)" opacity="0.85" r="6.745704981699376" /><circle cx="218.58662638926978" cy="195.87021360576637" fill="rgb(65,220,59)" opacity="0.85" r="6.7530783057833155" /><circle cx="672.8994341065501" cy="428.10513946460264" fill="rgb(101,59,220)" opacity="0.85" r="6.760384292633933" /><circle cx="178.7883243166913" cy="564.358184229447" fill="rgb(220,147,59)" opacity="0.85" r="6.767624161049867" /><circle cx="452.3274899697494" cy="128.1649946068348" fill="rgb(59,220,194)" opacity="0.85" r="6.774799097036075" /><circle cx="545.6823187135592" cy="636.8402764727646" fill="rgb(220,59,199)" opacity="0.85" r="6.781910254969873" /><circle cx="131.41479796897994" cy="323.43067208582227" fill="rgb(152,220,59)" opacity="0.85" r="6.788958758715596" /><circle cx="650.8618065252618" cy="274.487271816867" fill="rgb(59,105,220)" opacity="0.85" r="6.7959457026906005" /><circle cx="299.36916946053145" cy="663.1401623390962" fill="rgb(220,61,59)" opacity="0.85" r="6.802872152885092" /><circle cx="296.0091368332116" cy="136.86614119320643" fill="rgb(59,220,107)" opacity="0.85" r="6.809739147838205" /><circle cx="655.5084505450161" cy="524.3108086798189" fill="rgb(154,59,220)" opacity="0.85" r="6.816547699572532" /><circle cx="126.47324575687588" cy="481.27163311749825" fill="rgb(220,201,59)" opacity="0.85" r="6.823298794489224" /><circle cx="547.4084108544645" cy="154.2828003017631" fill="rgb(59,192,220)" opacity="0.85" r="6.829993394225637" /><circle cx="457.5222411677447" cy="681.9247980775012" fill="rgb(220,59,145)" opacity="0.85" r="6.836632436477393" /><circle cx="166.18790281621366" cy="230.2751597663504" fill="rgb(98,220,59)" opacity="0.85" r="6.843216835786606" /><circle cx="688.2274284345993" cy="367.0790968894487" fill="rgb(67,59,220)" opacity="0.85" r="6.849747484297934" /><circle cx="208.93493001727964" cy="619.8572117942751" fill="rgb(220,114,59)" opacity="0.85" r="6.85622525248403" /><circle cx="392.3445393734594" cy="107.64975346364383" fill="rgb(59,220,161)" opacity="0.85" r="6.862650989841841" /><circle cx="603.9346626493627" cy="611.2395424137762" fill="rgb(208,59,220)" opacity="0.85" r="6.869025525561183" /><circle cx="105.77408105065001" cy="381.92189973145355" fill="rgb(185,220,59)" opacity="0.85" r="6.875349669166873" /><circle cx="630.0658374204966" cy="213.855868411779" fill="rgb(59,138,220)" opacity="0.85" r="6.881624211135694" /><circle cx="355.9227862856661" cy="693.804943262918" fill="rgb(220,59,91)" opacity="0.85" r="6.8878499234893376" /><circle cx="233.3977780104599" cy="152.62970415890342" fill="rgb(59,220,74)" opacity="0.85" r="6.894027560364465" /><circle cx="691.0562696942683" cy="470.1343688204236" fill="rgb(121,59,220)" opacity="0.85" r="6.900157858560921" /><circle cx="137.0104163157731" cy="545.4416682852512" fill="rgb(220,168,59)" opacity="0.85" r="6.9062415380690965" /><circle cx="496.03880152112737" cy="114.0322277175211" fill="rgb(59,220,215)" opacity="0.85" r="6.912279302577403" /><circle cx="522.8104017166321" cy="676.7721835622863" fill="rgb(220,59,178)" opacity="0.85" r="6.918271839960729" /><circle cx="121.45343544177001" cy="278.42177037700225" fill="rgb(132,220,59)" opacity="0.85" r="6.924219822750744" /><circle cx="688.5798002026538" cy="301.12952087569727" fill="rgb(59,85,220)" opacity="0.85" r="6.9301239085888415" /><circle cx="253.45938325137382" cy="668.8191558502169" fill="rgb(220,81,59)" opacity="0.85" r="6.9359847406625" /><circle cx="326.20311724367" cy="101.71133245401762" fill="rgb(59,220,128)" opacity="0.85" r="6.941802948125764" /><circle cx="656.8314457022287" cy="570.7159505471893" fill="rgb(175,59,220)" opacity="0.85" r="6.9475791465045535" /><circle cx="94.20925431270996" cy="447.77620021052957" fill="rgb(218,220,59)" opacity="0.85" r="6.953313938087444" /><circle cx="593.8980203301679" cy="157.35144478401395" fill="rgb(59,172,220)" opacity="0.85" r="6.9590079123025355" /><circle cx="421.00519468973573" cy="710.9947967639139" fill="rgb(220,59,125)" opacity="0.85" r="6.964661646081009" /><circle cx="173.64550450699926" cy="184.11382079876174" fill="rgb(78,220,59)" opacity="0.85" r="6.970275704207926" /><circle cx="713.8273298386264" cy="406.3107232688662" fill="rgb(88,59,220)" opacity="0.85" r="6.9758506396608" /><circle cx="163.51292421611163" cy="608.0516747128506" fill="rgb(220,135,59)" opacity="0.85" r="6.981386993936459" /><circle cx="433.95911053378944" cy="85.7665941418569" fill="rgb(59,220,182)" opacity="0.85" r="6.986885297366669" /><circle cx="587.860246743603" cy="655.5163408095563" fill="rgb(220,59,212)" opacity="0.85" r="6.9923460694229895" /><circle cx="87.82270512073632" cy="338.27782026729636" fill="rgb(165,220,59)" opacity="0.85" r="6.9977698190112925" /><circle cx="672.8002141111764" cy="234.08269447762413" fill="rgb(59,118,220)" opacity="0.85" r="7.003157044756367" /><circle cx="310.6214523335349" cy="707.6429789378602" fill="rgb(220,59,71)" opacity="0.85" r="7.008508235277005" /><circle cx="257.62406924249325" cy="111.8229020281467" fill="rgb(59,220,95)" opacity="0.85" r="7.013823869451939" /><circle cx="700.6344951804973" cy="516.7050296428188" fill="rgb(142,59,220)" opacity="0.85" r="7.019104416677021" /><circle cx="98.50097669852585" cy="517.404091778945" fill="rgb(220,189,59)" opacity="0.85" r="7.024350337113948" /><circle cx="543.4784651155956" cy="108.82388482557013" fill="rgb(59,205,220)" opacity="0.85" r="7.029562081930904" /><circle cx="491.1834175885852" cy="712.6330157527894" fill="rgb(220,59,158)" opacity="0.85" r="7.034740093535397" /><circle cx="120.68764235104112" cy="230.5224403402725" fill="rgb(111,220,59)" opacity="0.85" r="7.0398848057996295" /><circle cx="721.4623496375873" cy="336.09215767266016" fill="rgb(59,64,220)" opacity="0.85" r="7.044996644278647" /><circle cx="205.5152719196243" cy="665.1078332882208" fill="rgb(220,102,59)" opacity="0.85" r="7.050076026421574" /><circle cx="364.21786352905576" cy="72.11232164250868" fill="rgb(59,220,148)" opacity="0.85" r="7.055123361776185" /><circle cx="648.6469215818001" cy="618.2879233462155" fill="rgb(195,59,220)" opacity="0.85" r="7.060139052187061" /><circle cx="68.1719689838319" cy="407.02033508176606" fill="rgb(198,220,59)" opacity="0.85" r="7.0651234919875705" /><circle cx="640.6824360553874" cy="169.96671886661733" fill="rgb(59,151,220)" opacity="0.85" r="7.070077068185907" /><circle cx="377.84407537201855" cy="733.221665922615" fill="rgb(220,59,104)" opacity="0.85" r="7.07500016064541" /><circle cx="190.61080378233518" cy="138.52735071235054" fill="rgb(59,220,62)" opacity="0.85" r="7.079893142259359" /><circle cx="732.0267728210551" cy="451.5191433356134" fill="rgb(108,59,220)" opacity="0.85" r="7.084756379120464" /></g></svg>