<?xml version="1.0" encoding="utf-8" ?>
<svg baseProfile="full" height="800px" version="1.1" width="800px" xmlns="http://www.w3.org/2000/svg" xmlns:ev="http://www.w3.org/2001/xml-events" xmlns:xlink="http://www.w3.org/1999/xlink"><defs><filter id="phyllotaxisGlow"><feGaussianBlur in="SourceGraphic" result="blur" stdDeviation="2" /><feComposite in="SourceGraphic" in2="blur" operator="over" /></filter></defs><rect fill="#ffffff" height="800" width="800" x="0" y="0" /><g id="flowFieldGroup" opacity="0.25"><path d="M661.4,455.0 L665.0,457.9 L667.1,462.0 L668.2,466.5 L668.7,471.0 L669.1,475.6 L669.7,480.2 L670.6,484.7 L672.2,489.0 L674.3,493.1 L677.1,496.7 L680.5,499.8 L684.4,502.4 L688.5,504.4 L692.7,506.2 L697.0,507.8 L701.4,509.4 L705.7,510.9 L710.1,512.2 L714.6,513.2 L719.2,513.6 L723.7,512.9 L727.9,510.9 L731.1,507.6 L733.3,503.6 L734.8,499.2 L735.8,494.7 L736.6,490.2 L737.3,485.7 L738.0,481.1 L738.6,476.6" fill="none" opacity="0.4" stroke="rgb(76,136,178)" stroke-width="0.8" /><path d="M353.3,390.9 L355.3,395.1 L356.1,399.6 L355.7,404.2 L354.6,408.6 L353.0,413.0 L351.2,417.2 L349.2,421.3 L347.0,425.4 L344.8,429.4 L342.5,433.4 L340.4,437.5 L338.5,441.7 L336.9,446.0 L335.8,450.5 L334.9,455.0 L334.4,459.5 L334.0,464.1 L333.9,468.7 L333.8,473.3 L334.0,477.9 L334.2,482.5 L334.6,487.1 L335.1,491.7 L335.9,496.2 L336.8,500.7 L337.9,505.2 L339.3,509.6 L341.0,513.9 L342.8,518.1 L344.8,522.2" fill="none" opacity="0.4" stroke="rgb(76,136,178)" stroke-width="0.8" /><path d="M422.7,422.7 L427.2,423.6 L431.8,424.4 L436.3,425.1 L440.8,426.1 L445.2,427.5 L449.5,429.2 L453.6,431.2 L457.7,433.3 L462.0,435.1 L466.3,436.5 L470.8,437.5 L475.4,438.1 L480.0,438.3 L484.6,438.3 L489.2,438.0 L493.8,437.6 L498.3,436.8 L502.7,435.5 L506.8,433.4 L510.2,430.3 L512.5,426.3 L513.3,421.8 L512.7,417.2 L511.0,412.9 L508.9,408.9 L506.6,404.9 L504.4,400.8 L502.7,396.6 L501.4,392.1 L500.5,387.6" fill="none" opacity="0.4" stroke="rgb(76,136,178)" stroke-width="0.8" /><path d="M599.6,347.9 L597.8,343.7 L596.4,339.3 L595.0,334.9 L593.3,330.7 L591.1,326.6 L588.4,322.9 L585.0,319.8 L581.3,317.0 L577.5,314.5 L573.6,312.1 L569.9,309.4 L566.5,306.2 L563.8,302.5 L561.9,298.3 L560.8,293.8 L560.5,289.3 L560.5,284.7 L560.7,280.1 L560.7,275.5 L560.4,270.9 L559.6,266.3 L558.4,261.9 L556.6,257.7 L554.2,253.7 L551.3,250.1 L548.1,246.9 L544.6,243.9 L541.0,241.0 L537.4,238.2 L533.8,235.3" fill="none" opacity="0.4" stroke="rgb(76,136,178)" stroke-width="0.8" /><path d="M16.6,480.8 L17.3,485.3 L18.7,489.7 L20.9,493.8 L23.7,497.4 L27.2,500.4 L31.1,502.8 L35.2,504.8 L39.5,506.6 L43.8,508.2 L48.1,509.8 L52.5,511.2 L56.9,512.5 L61.4,513.4 L66.0,513.5 L70.5,512.4 L74.4,510.0 L77.4,506.5 L79.3,502.3 L80.6,497.9 L81.6,493.4 L82.3,488.9 L83.0,484.3 L83.7,479.8 L84.3,475.2 L85.0,470.7 L85.6,466.1 L86.0,461.5 L86.3,456.9 L86.4,452.3 L86.2,447.7" fill="none" opacity="0.4" stroke="rgb(76,136,178)" stroke-width="0.8" /><path d="M787.7,248.8 L784.8,252.4 L782.2,256.2 L779.8,260.1 L777.7,264.2 L775.7,268.3 L774.0,272.6 L772.6,277.0 L771.4,281.4 L770.3,285.9 L769.2,290.3 L768.0,294.8 L766.5,299.1 L764.6,303.3 L762.3,307.3 L759.5,310.9 L756.1,314.1 L752.3,316.7 L748.3,318.9 L744.1,320.7 L739.8,322.5 L735.6,324.4 L731.6,326.6 L727.9,329.3 L724.6,332.6 L722.0,336.4 L720.0,340.5 L718.4,344.8 L717.0,349.2 L715.5,353.5 L713.6,357.7" fill="none" opacity="0.4" stroke="rgb(76,136,178)" stroke-width="0.8" /><path d="M703.2,461.3 L706.5,464.5 L710.6,466.6 L715.2,467.2 L719.7,466.2 L723.7,463.9 L727.1,460.8 L730.0,457.3 L732.4,453.4 L734.4,449.2 L735.8,444.8 L736.8,440.3 L737.2,435.8 L737.3,431.2 L737.0,426.6 L736.5,422.0 L736.0,417.4 L735.4,412.9 L734.7,408.3 L733.9,403.8 L733.0,399.3 L731.8,394.8 L730.3,390.5 L728.3,386.3 L725.7,382.6 L722.3,379.4 L718.4,377.1 L714.0,375.6 L709.5,374.6 L705.0,373.8 L700.5,372.9" fill="none" opacity="0.4" stroke="rgb(76,136,178)" stroke-width="0.8" /><path d="M171.8,611.1 L167.9,613.5 L163.7,615.5 L159.3,616.8 L154.8,617.4 L150.2,617.4 L145.6,616.9 L141.0,616.3 L136.5,615.5 L132.0,614.7 L127.5,613.9 L122.9,613.0 L118.4,612.2 L113.9,611.2 L109.4,610.1 L105.0,608.9 L100.6,607.6 L96.2,606.3 L91.7,605.2 L87.1,604.7 L82.6,605.2 L78.3,606.8 L74.4,609.4 L70.9,612.3 L67.5,615.4 L63.8,618.1 L59.7,620.3 L55.4,621.9 L50.9,622.8 L46.3,623.4 L41.7,623.5" fill="none" opacity="0.4" stroke="rgb(76,136,178)" stroke-width="0.8" /><path d="M10.6,574.2 L14.7,572.0 L18.0,568.8 L20.4,564.9 L22.0,560.6 L22.8,556.1 L23.3,551.5 L23.5,546.9 L23.7,542.3 L23.9,537.7 L24.5,533.1 L25.4,528.7 L27.1,524.4 L29.6,520.5 L33.0,517.4 L37.1,515.4 L41.6,514.5 L46.2,514.5 L50.8,515.1 L55.3,515.8 L59.9,516.4 L64.5,516.5 L69.0,515.6 L73.1,513.5 L76.3,510.2 L78.6,506.2 L80.1,501.9 L81.1,497.4 L81.9,492.8 L82.5,488.3 L83.2,483.7" fill="none" opacity="0.4" stroke="rgb(76,136,178)" stroke-width="0.8" /><path d="M536.2,408.8 L532.6,405.9 L528.6,403.5 L524.5,401.6 L520.2,400.0 L515.9,398.3 L511.8,396.3 L508.0,393.5 L505.0,390.1 L502.8,386.0 L501.4,381.7 L500.5,377.2 L499.9,372.6 L499.5,368.0 L499.1,363.4 L498.6,358.9 L497.9,354.3 L496.9,349.8 L495.6,345.4 L493.7,341.2 L491.2,337.3 L488.3,333.8 L485.1,330.5 L481.5,327.6 L477.9,324.7 L474.2,322.0 L470.4,319.4 L466.5,317.0 L462.3,315.0 L457.9,313.8 L453.3,313.6" fill="none" opacity="0.4" stroke="rgb(76,136,178)" stroke-width="0.8" /><path d="M471.3,619.3 L467.2,617.4 L463.1,615.3 L459.1,613.0 L455.2,610.6 L451.6,607.6 L448.7,604.1 L446.8,599.9 L446.6,595.3 L448.2,591.0 L450.8,587.2 L454.0,583.9 L457.3,580.6 L460.5,577.4 L463.8,574.2 L467.1,570.9 L470.5,567.8 L474.0,564.9 L477.6,562.0 L481.3,559.3 L484.9,556.4 L488.3,553.4 L491.4,549.9 L494.0,546.1 L495.9,541.9 L497.3,537.6 L498.3,533.1 L499.2,528.6 L500.1,524.1 L501.1,519.6 L502.3,515.1" fill="none" opacity="0.4" stroke="rgb(76,136,178)" stroke-width="0.8" /><path d="M194.7,763.8 L190.2,764.7 L186.1,766.8 L182.4,769.5 L178.8,772.4 L175.0,775.0 L170.9,777.1 L166.5,778.5 L161.9,779.0 L157.3,778.8 L152.8,778.0 L148.3,777.0 L143.8,775.9 L139.3,775.2 L134.7,775.1 L130.2,775.9 L125.9,777.6 L121.9,779.8 L117.9,782.2 L114.0,784.6 L109.9,786.7 L105.7,788.6 L101.5,790.4 L97.3,792.3 L93.2,794.3 L89.2,796.6 L85.5,799.4" fill="none" opacity="0.4" stroke="rgb(76,136,178)" stroke-width="0.8" /><path d="M90.4,309.0 L87.6,312.6 L84.1,315.6 L80.4,318.3 L76.5,320.8 L72.8,323.5 L69.3,326.4 L66.2,329.9 L63.8,333.8 L61.9,338.0 L60.4,342.3 L59.2,346.8 L57.9,351.2 L56.2,355.5 L53.9,359.4 L50.6,362.7 L46.6,364.8 L42.0,365.5 L37.5,364.7 L33.5,362.4 L30.4,359.0 L28.3,354.9 L26.9,350.5 L25.9,346.0 L25.0,341.5 L24.1,337.0 L23.1,332.5 L22.0,328.1 L20.7,323.6 L19.3,319.3 L17.9,314.9" fill="none" opacity="0.4" stroke="rgb(76,136,178)" stroke-width="0.8" /><path d="M82.9,128.1 L79.0,130.6 L77.5,135.0 L77.8,139.5 L79.0,144.0 L80.7,148.3 L83.0,152.3 L85.8,155.9 L89.2,159.0 L93.1,161.3 L97.4,163.0 L101.9,164.3 L106.3,165.6 L110.6,167.1 L114.8,169.1 L118.7,171.5 L122.4,174.2 L125.8,177.3 L129.1,180.5 L132.4,183.7 L135.8,186.8 L139.3,189.8 L142.9,192.6 L146.7,195.3 L150.5,197.8 L154.3,200.4 L158.0,203.2 L161.3,206.4 L164.2,210.0 L166.4,214.0 L168.0,218.3" fill="none" opacity="0.4" stroke="rgb(76,136,178)" stroke-width="0.8" /><path d="M618.7,211.3 L623.2,212.3 L627.8,212.2 L632.3,211.5 L636.8,210.5 L641.3,209.5 L645.8,208.8 L650.4,208.3 L655.0,208.1 L659.6,208.1 L664.2,208.3 L668.8,208.8 L673.3,209.5 L677.9,210.2 L682.4,210.9 L687.0,211.2 L691.6,210.9 L696.0,209.6 L700.1,207.4 L703.7,204.6 L707.1,201.5 L710.5,198.4 L714.0,195.4 L717.7,192.6 L721.5,190.0 L725.3,187.5 L729.0,184.8 L732.7,182.0 L736.2,179.0 L739.6,176.0 L743.1,173.0" fill="none" opacity="0.4" stroke="rgb(76,136,178)" stroke-width="0.8" /><path d="M317.5,344.9 L321.9,343.5 L326.4,342.8 L331.0,342.7 L335.6,343.2 L340.0,344.2 L344.4,345.8 L348.6,347.7 L352.7,349.7 L356.8,351.8 L360.9,353.9 L365.1,355.8 L369.3,357.6 L373.5,359.5 L377.4,361.9 L380.7,365.1 L382.6,369.3 L382.2,373.9 L379.9,377.9 L376.7,381.2 L373.2,384.1 L369.7,387.1 L366.4,390.3 L363.4,393.8 L360.8,397.6 L358.5,401.6 L356.5,405.7 L354.6,409.9 L352.7,414.1 L350.7,418.3 L348.7,422.4" fill="none" opacity="0.4" stroke="rgb(76,136,178)" stroke-width="0.8" /><path d="M106.0,787.7 L102.0,790.0 L97.9,791.9 L93.7,794.0 L89.7,796.3 L86.0,799.0" fill="none" opacity="0.4" stroke="rgb(76,136,178)" stroke-width="0.8" /><path d="M737.0,651.1 L734.0,654.6 L730.1,657.1 L725.7,658.3 L721.1,658.0 L716.9,656.3 L713.2,653.5 L710.0,650.2 L707.0,646.7 L703.8,643.3 L700.4,640.3 L696.6,637.6 L692.6,635.5 L688.3,633.8 L684.0,632.1 L679.8,630.2 L676.0,627.6 L673.0,624.2 L671.0,620.0 L670.1,615.5 L670.2,610.9 L670.8,606.3 L671.8,601.8 L673.1,597.4 L674.4,593.0 L675.7,588.6 L676.9,584.1 L677.8,579.6 L678.6,575.1 L679.1,570.5 L679.4,565.9" fill="none" opacity="0.4" stroke="rgb(76,136,178)" stroke-width="0.8" /><path d="M185.9,132.8 L181.7,130.9 L178.0,128.2 L174.9,124.8 L172.4,120.9 L170.6,116.7 L169.3,112.3 L168.4,107.8 L168.1,103.2 L168.1,98.6 L168.5,94.0 L169.1,89.5 L169.7,84.9 L170.3,80.3 L170.8,75.8 L171.2,71.2 L171.7,66.6 L172.2,62.0 L172.9,57.5 L173.7,53.0 L174.9,48.5 L176.4,44.2 L178.3,40.0 L180.7,36.1 L183.6,32.5 L186.9,29.3 L190.5,26.5 L194.2,23.7 L197.8,20.9 L201.1,17.6 L203.8,13.9" fill="none" opacity="0.4" stroke="rgb(76,136,178)" stroke-width="0.8" /></g><g id="phyllotaxisGroup"><circle cx="380.82799720182925" cy="417.5629798383629" fill="rgb(220,209,59)" opacity="0.85" r="3.0" /><circle cx="403.2149634223855" cy="363.37061405941483" fill="rgb(59,184,220)" opacity="0.85" r="3.5545177444479563" /><circle cx="427.4000664149936" cy="435.7394490268298" fill="rgb(220,59,137)" opacity="0.85" r="3.8788898309344875" /><circle cx="348.7941408274952" cy="390.9415346338998" fill="rgb(90,220,59)" opacity="0.85" r="4.109035488895913" /><circle cx="449.0555606321631" cy="368.7962865744603" fill="rgb(76,59,220)" opacity="0.85" r="4.287550329947281" /><circle cx="383.4648372818206" cy="461.5039194398063" fill="rgb(220,122,59)" opacity="0.85" r="4.433407575382444" /><circle cx="368.2956186538782" cy="338.95084056163967" fill="rgb(59,220,169)" opacity="0.85" r="4.556728119244251" /><circle cx="469.0772402822767" cy="425.2294766444149" fill="rgb(216,59,220)" opacity="0.85" r="4.663553233343869" /><circle cx="327.8986663093036" cy="429.7592548442517" fill="rgb(177,220,59)" opacity="0.85" r="4.757779661868976" /><circle cx="434.8519708529508" cy="325.5313512367577" fill="rgb(59,130,220)" opacity="0.85" r="4.842068074395237" /><circle cx="425.8046493058719" cy="482.2823404337459" fill="rgb(220,59,83)" opacity="0.85" r="4.918316218238696" /><circle cx="322.0741830042675" cy="354.83525190264754" fill="rgb(59,220,82)" opacity="0.85" r="4.9879253198304" /><circle cx="491.56051862903007" cy="379.87581540462963" fill="rgb(129,59,220)" opacity="0.85" r="5.051959485969229" /><circle cx="344.04405133019907" cy="479.5818266804923" fill="rgb(220,176,59)" opacity="0.85" r="5.111245863692208" /><circle cx="387.06522574913214" cy="300.13483642172207" fill="rgb(59,217,220)" opacity="0.85" r="5.166440160881768" /><circle cx="479.5204880173047" cy="467.0289133062937" fill="rgb(220,59,170)" opacity="0.85" r="5.218070977791825" /><circle cx="292.88859001822675" cy="404.42188165210536" fill="rgb(123,220,59)" opacity="0.85" r="5.266570675244973" /><circle cx="478.19717413802437" cy="322.19490315826323" fill="rgb(59,76,220)" opacity="0.85" r="5.312297406316931" /><circle cx="394.7561091183718" cy="513.2119989146112" fill="rgb(220,89,59)" opacity="0.85" r="5.355551183333152" /><circle cx="325.50723489889367" cy="310.7178237860011" fill="rgb(59,220,136)" opacity="0.85" r="5.396585818843192" /><circle cx="518.0836331635098" cy="415.89838271389914" fill="rgb(183,59,220)" opacity="0.85" r="5.435617950178738" /><circle cx="299.88757780454785" cy="469.64215582725245" fill="rgb(210,220,59)" opacity="0.85" r="5.472833962686654" /><circle cx="427.3794946897928" cy="278.349212214901" fill="rgb(59,163,220)" opacity="0.85" r="5.50839537274332" /><circle cx="463.3178502738499" cy="510.52341239302064" fill="rgb(220,59,116)" opacity="0.85" r="5.542443064278357" /><circle cx="276.1518133950192" cy="360.4750018715616" fill="rgb(70,220,59)" opacity="0.85" r="5.575100659894561" /><circle cx="520.3580474747874" cy="344.407166266255" fill="rgb(96,59,220)" opacity="0.85" r="5.606477230417186" /><circle cx="347.82838112800334" cy="524.6225055552244" fill="rgb(220,143,59)" opacity="0.85" r="5.636669492803463" /><circle cx="353.45015401056634" cy="270.5326971894346" fill="rgb(59,220,190)" opacity="0.85" r="5.665763608140163" /><circle cx="523.9335816058903" cy="465.1549074215794" fill="rgb(220,59,203)" opacity="0.85" r="5.693836663989179" /><circle cx="262.28894309222676" cy="436.2819978531816" fill="rgb(157,220,59)" opacity="0.85" r="5.720957905329724" /><circle cx="478.3096153171338" cy="278.2447263406937" fill="rgb(59,110,220)" opacity="0.85" r="5.747189763588118" /><circle cx="424.89288329948425" cy="544.9589970581478" fill="rgb(220,59,63)" opacity="0.85" r="5.772588722239782" /><circle cx="281.92394418182107" cy="308.5295924269277" fill="rgb(59,220,103)" opacity="0.85" r="5.797206049173184" /><circle cx="551.0915491046217" cy="387.50367412304064" fill="rgb(150,59,220)" opacity="0.85" r="5.821088419692929" /><circle cx="295.5271983991017" cy="512.8993890550902" fill="rgb(220,197,59)" opacity="0.85" r="5.844278449191531" /><circle cx="400.78415211600185" cy="243.99920711448914" fill="rgb(59,197,220)" opacity="0.85" r="5.866815150764888" /><circle cx="506.2438988167177" cy="517.1542581034421" fill="rgb(220,59,150)" opacity="0.85" r="5.88873433011538" /><circle cx="240.4086656102918" cy="385.1839219982804" fill="rgb(103,220,59)" opacity="0.85" r="5.910068927781109" /><circle cx="529.3553705151511" cy="301.85662401045863" fill="rgb(63,59,220)" opacity="0.85" r="5.930849316903718" /><circle cx="370.5410480396321" cy="561.7811121028319" fill="rgb(220,110,59)" opacity="0.85" r="5.951103563291149" /><circle cx="311.3533868431593" cy="259.07888727465445" fill="rgb(59,220,157)" opacity="0.85" r="5.9708576533634465" /><circle cx="562.5021196423772" cy="444.5653127416204" fill="rgb(204,59,220)" opacity="0.85" r="5.990135694626694" /><circle cx="248.29788666166144" cy="477.8170851985708" fill="rgb(190,220,59)" opacity="0.85" r="6.00896009255485" /><circle cx="459.9819197954598" cy="238.29896973158588" fill="rgb(59,143,220)" opacity="0.85" r="6.027351707134609" /><circle cx="465.73248193519566" cy="561.5559304480976" fill="rgb(220,59,96)" opacity="0.85" r="6.045329991816256" /><circle cx="240.66028836728057" cy="324.4489702703598" fill="rgb(59,220,70)" opacity="0.85" r="6.062913117191276" /><circle cx="570.348304916723" cy="347.5158999267192" fill="rgb(117,59,220)" opacity="0.85" r="6.080118081368047" /><circle cx="308.88825248533897" cy="555.3956214486864" fill="rgb(220,164,59)" opacity="0.85" r="6.096960808726313" /><circle cx="361.8238981901618" cy="222.04562690594125" fill="rgb(59,220,210)" opacity="0.85" r="6.113456238488501" /><circle cx="549.8620767853333" cy="506.5014344803733" fill="rgb(220,59,183)" opacity="0.85" r="6.1296184043425175" /><circle cx="215.7401778010567" cy="422.92464787297746" fill="rgb(136,220,59)" opacity="0.85" r="6.145460506179461" /><circle cx="521.5571562273263" cy="257.25160848924645" fill="rgb(59,89,220)" opacity="0.85" r="6.160994974865142" /><circle cx="406.85691337909293" cy="589.1619734512976" fill="rgb(220,77,59)" opacity="0.85" r="6.176233530841698" /><circle cx="265.92012190434247" cy="263.88284566952166" fill="rgb(59,220,123)" opacity="0.85" r="6.19118723725142" /><circle cx="592.5707796574804" cy="409.8900044175696" fill="rgb(170,59,220)" opacity="0.85" r="6.205866548185977" /><circle cx="249.97767371521206" cy="523.8977115747739" fill="rgb(220,217,59)" opacity="0.85" r="6.22028135258812" /><circle cx="427.17027667910395" cy="205.59027458832725" fill="rgb(59,176,220)" opacity="0.85" r="6.23444101426764" /><circle cx="512.2586549759916" cy="563.1176986244539" fill="rgb(220,59,129)" opacity="0.85" r="6.248354408437136" /><circle cx="205.38338055073126" cy="355.169378681629" fill="rgb(82,220,59)" opacity="0.85" r="6.262029955124576" /><circle cx="575.2538786021943" cy="300.7653530230704" fill="rgb(83,59,220)" opacity="0.85" r="6.275475649777681" /><circle cx="337.28834209149375" cy="593.1442700165106" fill="rgb(220,130,59)" opacity="0.85" r="6.28869909133865" /><circle cx="315.08774605796066" cy="213.71152971688582" fill="rgb(59,220,177)" opacity="0.85" r="6.301707508036074" /><circle cx="589.9610354300221" cy="480.64932733997097" fill="rgb(220,59,216)" opacity="0.85" r="6.314507781113226" /><circle cx="203.91255858338013" cy="469.39198983179097" fill="rgb(169,220,59)" opacity="0.85" r="6.327106466687738" /><circle cx="498.4763638505119" cy="214.94875669423587" fill="rgb(59,122,220)" opacity="0.85" r="6.339509815916509" /><circle cx="452.7875087568886" cy="604.5264280174197" fill="rgb(220,59,75)" opacity="0.85" r="6.35172379362114" /><circle cx="221.58452675277792" cy="283.9761934067455" fill="rgb(59,220,90)" opacity="0.85" r="6.363754095512773" /><circle cx="611.4919642235501" cy="364.7753238286064" fill="rgb(137,59,220)" opacity="0.85" r="6.375606164140885" /><circle cx="266.8774624552958" cy="570.0706990997262" fill="rgb(220,184,59)" opacity="0.85" r="6.387285203677807" /><circle cx="383.15947414667005" cy="183.1173742880959" fill="rgb(59,209,220)" opacity="0.85" r="6.3987961936394875" /><circle cx="560.0502882007918" cy="549.6048322937661" fill="rgb(220,59,162)" opacity="0.85" r="6.410143901633052" /><circle cx="179.38992425807652" cy="397.78211090426885" fill="rgb(115,220,59)" opacity="0.85" r="6.421332895212844" /><circle cx="565.3059101005952" cy="251.5961436188131" fill="rgb(59,69,220)" opacity="0.85" r="6.432367552918713" /><circle cx="378.20525800430477" cy="622.600003765568" fill="rgb(220,97,59)" opacity="0.85" r="6.443252074563336" /><circle cx="264.8030212072616" cy="219.93453042712082" fill="rgb(59,220,144)" opacity="0.85" r="6.453990490829048" /><circle cx="622.7929474837326" cy="441.72676492123696" fill="rgb(191,59,220)" opacity="0.85" r="6.464586672229065" /><circle cx="206.27080362040607" cy="520.5107579492137" fill="rgb(202,220,59)" opacity="0.85" r="6.475044337482947" /><circle cx="461.8446566375396" cy="178.85500975862493" fill="rgb(59,156,220)" opacity="0.85" r="6.485367061351674" /><circle cx="504.4412516582535" cy="606.1502296084732" fill="rgb(220,59,109)" opacity="0.85" r="6.495558281973617" /><circle cx="182.3716732700682" cy="318.0254455797733" fill="rgb(62,220,59)" opacity="0.85" r="6.505621307739105" /><circle cx="617.190573672912" cy="312.9012352131683" fill="rgb(104,59,220)" opacity="0.85" r="6.515559323737952" /><circle cx="298.06044258950294" cy="612.2316910991576" fill="rgb(220,151,59)" opacity="0.85" r="6.525375397811403" /><circle cx="331.39298996933036" cy="173.27755691461937" fill="rgb(59,220,198)" opacity="0.85" r="6.535072486237279" /><circle cx="604.9606427632694" cy="521.5612886329991" fill="rgb(220,59,196)" opacity="0.85" r="6.544653439074651" /><circle cx="165.3704720656011" cy="449.10214404101725" fill="rgb(149,220,59)" opacity="0.85" r="6.554121005192254" /><circle cx="540.6614823912615" cy="204.1622935905031" fill="rgb(59,102,220)" opacity="0.85" r="6.5634778370028055" /><circle cx="428.7316863905914" cy="640.8081685273321" fill="rgb(220,64,59)" opacity="0.85" r="6.572726494923668" /><circle cx="215.0976360283531" cy="240.93641654317065" fill="rgb(59,220,111)" opacity="0.85" r="6.581869451582566" /><circle cx="645.1684283866274" cy="392.34667007387833" fill="rgb(158,59,220)" opacity="0.85" r="6.590909095785712" /><circle cx="223.40565571335998" cy="572.2108976069585" fill="rgb(220,205,59)" opacity="0.85" r="6.599847736264213" /><circle cx="413.96634795139073" cy="152.36494439272295" fill="rgb(59,189,220)" opacity="0.85" r="6.60868760521348" /><circle cx="557.8360840015412" cy="593.0854064394116" fill="rgb(220,59,142)" opacity="0.85" r="6.6174308616392326" /><circle cx="151.8516765085059" cy="364.0467373765475" fill="rgb(95,220,59)" opacity="0.85" r="6.626079594522605" /><circle cx="608.374852417234" cy="258.1332583827277" fill="rgb(71,59,220)" opacity="0.85" r="6.634635825816003" /><circle cx="341.87272307450405" cy="646.6647423656824" fill="rgb(220,118,59)" opacity="0.85" r="6.643101513280433" /><circle cx="275.5928662288573" cy="177.6912856677756" fill="rgb(59,220,165)" opacity="0.85" r="6.651478553174269" /><circle cx="643.1576355467641" cy="480.30372113794226" fill="rgb(211,59,220)" opacity="0.85" r="6.659768782802706" /><circle cx="165.25757391056618" cy="505.57623169556626" fill="rgb(182,220,59)" opacity="0.85" r="6.6679739829364575" /><circle cx="502.2949656492116" cy="162.38242644890173" fill="rgb(59,135,220)" opacity="0.85" r="6.676095880107672" /><circle cx="485.5068429550446" cy="645.5422061834628" fill="rgb(220,59,88)" opacity="0.85" r="6.684136148790474" /></g><g filter="url(#phyllotaxisGlow)" id="phyllotaxisGlowGroup"><circle cx="169.94733817965482" cy="276.0879668835568" fill="rgb(59,220,78)" opacity="0.85" r="6.692096413473008" /><circle cx="654.5863587244417" cy="335.6553882193519" fill="rgb(125,59,220)" opacity="0.85" r="6.699978250627417" /><circle cx="255.03376346690763" cy="620.4886784651306" fill="rgb(220,171,59)" opacity="0.85" r="6.707783190583709" /><circle cx="357.75310098155836" cy="138.23351906462585" fill="rgb(59,220,218)" opacity="0.85" r="6.715512719313098" /><circle cx="608.969059788853" cy="565.2708293106277" fill="rgb(220,59,175)" opacity="0.85" r="6.723168280126019" /><circle cx="133.0114339080634" cy="419.3815504624178" fill="rgb(128,220,59)" opacity="0.85" r="6.730751275289654" /><circle cx="584.6426532961399" cy="204.44526735971598" fill="rgb(59,81,220)" opacity="0.85" r="6.738263067569525" /><circle cx="395.92556334676624" cy="670.1739917022104" fill="rgb(220,84,59)" opacity="0.85" r="6.745704981699376" /><circle cx="219.67620605628997" cy="197.0962294185012" fill="rgb(59,220,131)" opacity="0.85" r="6.7530783057833155" /><circle cx="671.2603836406133" cy="427.93633830132615" fill="rgb(178,59,220)" opacity="0.85" r="6.760384292633933" /><circle cx="180.11693498708868" cy="563.3710390588323" fill="rgb(215,220,59)" opacity="0.85" r="6.767624161049867" /><circle cx="452.0132079079452" cy="129.7976520496993" fill="rgb(59,168,220)" opacity="0.85" r="6.774799097036075" /><circle cx="544.8073419179937" cy="635.4177994831138" fill="rgb(220,59,121)" opacity="0.85" r="6.781910254969873" /><circle cx="133.02793689678276" cy="323.89055208889033" fill="rgb(74,220,59)" opacity="0.85" r="6.788958758715596" /><circle cx="649.3551153801625" cy="275.2411088348259" fill="rgb(91,59,220)" opacity="0.85" r="6.7959457026906005" /><circle cx="299.9735643000565" cy="661.5597266481957" fill="rgb(220,138,59)" opacity="0.85" r="6.802872152885092" /><circle cx="296.63371223141536" cy="138.44653902471168" fill="rgb(59,220,185)" opacity="0.85" r="6.809739147838205" /><circle cx="653.9738513755906" cy="523.5641904629117" fill="rgb(220,59,208)" opacity="0.85" r="6.816547699572532" /><circle cx="128.11606394540058" cy="480.78351078567744" fill="rgb(161,220,59)" opacity="0.85" r="6.823298794489224" /><circle cx="546.5230670453614" cy="155.75859262787253" fill="rgb(59,114,220)" opacity="0.85" r="6.829993394225637" /><circle cx="457.17675911683324" cy="680.2315407310326" fill="rgb(220,59,68)" opacity="0.85" r="6.836632436477393" /><circle cx="167.59219237835728" cy="231.29453739670998" fill="rgb(59,220,98)" opacity="0.85" r="6.843216835786606" /><circle cx="686.4963171099528" cy="367.27682181972955" fill="rgb(145,59,220)" opacity="0.85" r="6.849747484297934" /><circle cx="210.08247835502053" cy="618.5367361157134" fill="rgb(220,192,59)" opacity="0.85" r="6.85622525248403" /><circle cx="392.39051853185515" cy="109.40562668254921" fill="rgb(59,201,220)" opacity="0.85" r="6.862650989841841" /><circle cx="602.7098187616118" cy="609.970824977439" fill="rgb(220,59,154)" opacity="0.85" r="6.869025525561183" /><circle cx="107.54121967123172" cy="382.0304778923626" fill="rgb(108,220,59)" opacity="0.85" r="6.875349669166873" /><circle cx="628.6840481205124" cy="214.97386129663028" fill="rgb(59,61,220)" opacity="0.85" r="6.881624211135694" /><circle cx="356.1875166905209" cy="692.0403330477075" fill="rgb(220,105,59)" opacity="0.85" r="6.8878499234893376" /><circle cx="234.39840100725004" cy="154.1154250801822" fill="rgb(59,220,152)" opacity="0.85" r="6.894027560364465" /><circle cx="689.3081681783453" cy="469.7131375699095" fill="rgb(199,59,220)" opacity="0.85" r="6.900157858560921" /><circle cx="138.58994762218776" cy="544.5681368506771" fill="rgb(195,220,59)" opacity="0.85" r="6.9062415380690965" /><circle cx="495.4619866849348" cy="115.74976741098732" fill="rgb(59,148,220)" opacity="0.85" r="6.912279302577403" /><circle cx="522.072795034469" cy="675.1098731294659" fill="rgb(220,59,101)" opacity="0.85" r="6.918271839960729" /><circle cx="123.12640291390471" cy="279.151976559231" fill="rgb(59,220,65)" opacity="0.85" r="6.924219822750744" /><circle cx="686.846572511909" cy="301.7233429384166" fill="rgb(112,59,220)" opacity="0.85" r="6.9301239085888415" /><circle cx="254.33951503672122" cy="667.2046117816609" fill="rgb(220,159,59)" opacity="0.85" r="6.9359847406625" /><circle cx="326.6463457738517" cy="103.50287218778635" fill="rgb(59,220,206)" opacity="0.85" r="6.941802948125764" /><circle cx="655.2889005440696" cy="569.6906202484906" fill="rgb(220,59,188)" opacity="0.85" r="6.9475791465045535" /><circle cx="96.04585198041417" cy="447.4892534696097" fill="rgb(141,220,59)" opacity="0.85" r="6.953313938087444" /><circle cx="592.7334571217214" cy="158.80880664622413" fill="rgb(59,94,220)" opacity="0.85" r="6.9590079123025355" /><circle cx="420.8790362231342" cy="709.1269432514704" fill="rgb(220,72,59)" opacity="0.85" r="6.964661646081009" /><circle cx="175.0050032634526" cy="185.41044621598752" fill="rgb(59,220,119)" opacity="0.85" r="6.970275704207926" /><circle cx="711.9424639616424" cy="406.27282068417196" fill="rgb(166,59,220)" opacity="0.85" r="6.9758506396608" /><circle cx="164.93327986111544" cy="606.802103802257" fill="rgb(220,212,59)" opacity="0.85" r="6.981386993936459" /><circle cx="433.75515006708696" cy="87.65389893591367" fill="rgb(59,181,220)" opacity="0.85" r="6.986885297366669" /><circle cx="586.7319467675911" cy="653.981694250726" fill="rgb(220,59,134)" opacity="0.85" r="6.9923460694229895" /><circle cx="89.69766078820368" cy="338.6485274026216" fill="rgb(87,220,59)" opacity="0.85" r="6.9977698190112925" /><circle cx="671.1617595665181" cy="235.07920382478986" fill="rgb(79,59,220)" opacity="0.85" r="7.003157044756367" /><circle cx="311.1582652832468" cy="705.7952566455033" fill="rgb(220,126,59)" opacity="0.85" r="7.008508235277005" /><circle cx="258.47918767251224" cy="113.5537110649974" fill="rgb(59,220,172)" opacity="0.85" r="7.013823869451939" /><circle cx="698.8288662644261" cy="516.004092193683" fill="rgb(219,59,220)" opacity="0.85" r="7.019104416677021" /><circle cx="100.31179802265063" cy="516.6989557204437" fill="rgb(174,220,59)" opacity="0.85" r="7.024350337113948" /><circle cx="542.6167247977033" cy="110.57270614067755" fill="rgb(59,127,220)" opacity="0.85" r="7.029562081930904" /><circle cx="490.63576448122876" cy="710.7553229982609" fill="rgb(220,59,80)" opacity="0.85" r="7.034740093535397" /><circle cx="122.36520922268102" cy="231.54033278858606" fill="rgb(59,220,86)" opacity="0.85" r="7.0398848057996295" /><circle cx="719.5316273710513" cy="336.47599202939523" fill="rgb(132,59,220)" opacity="0.85" r="7.044996644278647" /><circle cx="206.68335893021612" cy="663.5155796468854" fill="rgb(220,179,59)" opacity="0.85" r="7.050076026421574" /><circle cx="364.4327731995244" cy="74.08163482099235" fill="rgb(59,214,220)" opacity="0.85" r="7.055123361776185" /><circle cx="647.1535331693008" cy="616.9768729087518" fill="rgb(220,59,167)" opacity="0.85" r="7.060139052187061" /><circle cx="70.16494815811467" cy="406.97817052571094" fill="rgb(120,220,59)" opacity="0.85" r="7.0651234919875705" /><circle cx="639.2368828234764" cy="171.34831263157693" fill="rgb(59,73,220)" opacity="0.85" r="7.070077068185907" /><circle cx="377.9771451920555" cy="731.2203164930027" fill="rgb(220,92,59)" opacity="0.85" r="7.07500016064541" /><circle cx="191.8684079277827" cy="140.09777121925902" fill="rgb(59,220,139)" opacity="0.85" r="7.079893142259359" /><circle cx="730.0325999915017" cy="451.20971625246335" fill="rgb(186,59,220)" opacity="0.85" r="7.084756379120464" /><circle cx="121.21080820056937" cy="585.7325027660061" fill="rgb(207,220,59)" opacity="0.85" r="7.089590230685235" /><circle cx="480.3522469515391" cy="73.74930435347903" fill="rgb(59,160,220)" opacity="0.85" r="7.0943950499334045" /></g></svg>