<svg xmlns="http://www.w3.org/2000/svg" viewBox="0 0 800 800" width="800" height="800">
<defs>
  <filter id="bloom" x="-50%" y="-50%" width="200%" height="200%">
    <feGaussianBlur in="SourceGraphic" stdDeviation="2" result="b1"/>
    <feGaussianBlur in="SourceGraphic" stdDeviation="7" result="b2"/>
    <feGaussianBlur in="SourceGraphic" stdDeviation="16" result="b3"/>
    <feColorMatrix in="b3" type="matrix" result="bright"
      values="1.8 0 0 0 0.12  0 1.8 0 0 0.12  0 0 1.8 0 0.12  0 0 0 0.5 0"/>
    <feMerge><feMergeNode in="bright"/><feMergeNode in="b2"/>
      <feMergeNode in="b1"/><feMergeNode in="SourceGraphic"/></feMerge>
  </filter>
  <filter id="glow" x="-100%" y="-100%" width="300%" height="300%">
    <feGaussianBlur stdDeviation="6"/>
    <feColorMatrix type="matrix" values="1.4 0 0 0 0.08  0 1.4 0 0 0.08  0 0 1.4 0 0.08  0 0 0 0.5 0"/>
  </filter>
  <filter id="nebula" x="0%" y="0%" width="100%" height="100%">
    <feTurbulence type="fractalNoise" baseFrequency="0.003 0.004" numOctaves="3" seed="352" result="t"/>
    <feColorMatrix in="t" type="matrix" result="tint"
      values="0.06 0 0 0 0.01  0 0.03 0 0 0.01  0 0 0.12 0 0.04  0 0 0 0.30 0"/>
  </filter>
  <radialGradient id="bg" cx="50%" cy="50%" r="60%">
    <stop offset="0%" stop-color="#030310"/><stop offset="100%" stop-color="#010108"/>
  </radialGradient>
  <radialGradient id="vig" cx="50%" cy="50%" r="55%">
    <stop offset="35%" stop-color="black" stop-opacity="0"/>
    <stop offset="100%" stop-color="black" stop-opacity="0.6"/>
  </radialGradient>
</defs>
<style>
  @keyframes orbit { 0% { transform: rotate(0deg); } 100% { transform: rotate(360deg); } }
  @keyframes fadeIn { from { opacity: 0; } to { opacity: var(--op); } }
  @keyframes pulse { 0%,100% { opacity: var(--op); r: var(--r); } 50% { opacity: calc(var(--op)*1.4); r: calc(var(--r)*1.2); } }
  @keyframes meteor { 0% { opacity:0.8; stroke-dashoffset: var(--len); } 100% { opacity:0; stroke-dashoffset:0; } }
  @keyframes photon { from { stroke-dashoffset: var(--len); opacity:0; } to { stroke-dashoffset:0; opacity: var(--op); } }
  @keyframes watchfire { 0%,100% { opacity:0.15; } 50% { opacity:0.4; } }
  @keyframes auroraShimmer { 0%,100% { opacity: var(--op); } 50% { opacity: calc(var(--op)*1.5); } }
  .body { animation: fadeIn 1s ease-out forwards; opacity:0; }
  .corona { animation: pulse 5s ease-in-out infinite; }
  .photon { stroke-dasharray: var(--len); stroke-dashoffset: var(--len); animation: photon var(--dur) ease-out forwards; }
  .meteor-path { stroke-dasharray: var(--len); stroke-dashoffset: var(--len); animation: meteor 2s ease-out infinite; }
  .watchfire { animation: watchfire 4s ease-in-out infinite; }
  .aurora { animation: auroraShimmer 8s ease-in-out infinite; }
  .myc { animation: fadeIn 2s ease-out forwards; opacity:0; }
  .issue { animation: orbit var(--dur) linear infinite; transform-origin: var(--ox) var(--oy); }
</style>
<rect width="800" height="800" fill="url(#bg)"/>
<rect width="800" height="800" filter="url(#nebula)" opacity="0.5"/>
<circle cx="400.0" cy="400.0" r="30" fill="none" stroke="#000e16" stroke-width="0.4" opacity="0.06"/>
<circle cx="400.0" cy="400.0" r="75" fill="none" stroke="#00121c" stroke-width="0.4" opacity="0.06"/>
<circle cx="400.0" cy="400.0" r="120" fill="none" stroke="#001623" stroke-width="0.4" opacity="0.06"/>
<circle cx="400.0" cy="400.0" r="165" fill="none" stroke="#061929" stroke-width="0.4" opacity="0.06"/>
<circle cx="400.0" cy="400.0" r="210" fill="none" stroke="#0e1d2f" stroke-width="0.4" opacity="0.06"/>
<circle cx="400.0" cy="400.0" r="255" fill="none" stroke="#162134" stroke-width="0.4" opacity="0.06"/>
<circle cx="400.0" cy="400.0" r="300" fill="none" stroke="#1d253a" stroke-width="0.4" opacity="0.06"/>
<circle cx="400.0" cy="400.0" r="345" fill="none" stroke="#25293f" stroke-width="0.4" opacity="0.06"/>
<circle cx="400" cy="264" r="54" fill="#00214a" opacity="0.057"/>
<circle cx="459" cy="298" r="47" fill="#001f3f" opacity="0.045"/>
<circle cx="555" cy="311" r="71" fill="#002465" opacity="0.086"/>
<circle cx="600" cy="400" r="80" fill="#002571" opacity="0.100"/>
<circle cx="530" cy="475" r="60" fill="#002253" opacity="0.067"/>
<circle cx="446" cy="480" r="37" fill="#001b30" opacity="0.029"/>
<circle cx="400" cy="482" r="33" fill="#001929" opacity="0.021"/>
<circle cx="346" cy="493" r="43" fill="#001d38" opacity="0.038"/>
<circle cx="264" cy="479" r="63" fill="#002358" opacity="0.071"/>
<circle cx="207" cy="400" r="77" fill="#00246d" opacity="0.095"/>
<circle cx="252" cy="314" r="69" fill="#002461" opacity="0.081"/>
<circle cx="343" cy="301" r="46" fill="#001e3d" opacity="0.043"/>
<g filter="url(#bloom)" opacity="0.6">
<path d="M502.7,510.9 Q504.0,501.2 505.9,492.0 Q509.3,483.9 513.3,476.6 Q515.9,468.3 516.0,457.6 Q514.7,445.4 513.7,433.5 Q513.7,422.7 514.3,412.4 Q514.5,401.8 514.3,391.0 Q514.3,380.4 514.1,369.8 Q513.9,358.8 513.9,347.4 Q514.8,336.3 516.9,326.8" fill="none" stroke="#002a36" stroke-width="0.4" stroke-dasharray="3,4" class="myc" style="animation-delay:0.0s;--op:0.15"/>
<path d="M505.4,512.8 Q514.9,506.8 526.4,501.7 Q539.3,494.8 551.5,484.4 Q561.4,475.0 570.1,468.6 Q577.6,463.4 584.0,457.8 Q591.6,452.1 601.6,447.0 Q612.7,442.9 624.2,440.3 Q634.9,437.0 643.6,431.5 Q650.2,424.7 656.2,417.7 Q662.7,411.4 670.9,405.2" fill="none" stroke="#002a36" stroke-width="0.4" stroke-dasharray="3,4" class="myc" style="animation-delay:2.5s;--op:0.15"/>
<path d="M501.1,510.3 Q499.8,501.2 498.1,491.8 Q495.8,480.9 491.6,469.0 Q486.4,457.1 481.9,446.1 Q477.0,435.3 471.6,424.7 Q466.7,414.2 462.9,404.5 Q459.9,395.4 455.9,385.7 Q451.3,374.7 447.8,362.9 Q445.9,350.9 443.7,339.0 Q439.4,326.6 434.5,315.1" fill="none" stroke="#002a36" stroke-width="0.4" stroke-dasharray="3,4" class="myc" style="animation-delay:5.0s;--op:0.15"/>
<path d="M522.3,324.7 Q530.0,327.6 537.5,330.6 Q545.6,334.4 554.1,338.9 Q561.8,343.4 568.8,347.5 Q576.1,351.3 584.4,355.3 Q593.9,360.3 603.4,366.0 Q612.4,371.2 620.8,375.0 Q629.6,377.4 639.9,379.1 Q651.2,381.3 662.3,383.8 Q672.5,386.9 681.0,390.3" fill="none" stroke="#002a36" stroke-width="0.4" stroke-dasharray="3,4" class="myc" style="animation-delay:7.5s;--op:0.15"/>
<path d="M521.1,321.2 Q515.2,320.3 509.6,319.6 Q504.5,319.1 499.9,318.7 Q495.6,318.4 491.4,318.0 Q486.9,317.5 482.1,317.0 Q476.9,316.3 471.5,315.5 Q465.9,314.6 460.4,313.5 Q455.1,312.3 450.1,311.0 Q445.4,309.8 440.7,308.4 Q435.9,307.1 430.9,305.8" fill="none" stroke="#002a36" stroke-width="0.4" stroke-dasharray="3,4" class="myc" style="animation-delay:10.0s;--op:0.15"/>
<path d="M682.3,387.9 Q668.4,382.8 657.8,379.7 Q647.3,375.8 636.7,371.9 Q624.2,368.8 608.3,366.0 Q591.3,361.6 573.2,356.7 Q558.9,354.7 547.3,352.3 Q536.0,348.3 523.8,342.4 Q512.1,337.4 501.1,334.0 Q487.6,329.3 471.2,320.1 Q455.4,310.7 440.4,306.1" fill="none" stroke="#002a36" stroke-width="0.4" stroke-dasharray="3,4" class="myc" style="animation-delay:12.5s;--op:0.15"/>
</g>
<ellipse cx="400.0" cy="400.0" rx="163" ry="145" fill="none" stroke="#000e12" stroke-width="0.3" opacity="0.04" transform="rotate(50,400.0,400.0)"/>
<ellipse cx="400.0" cy="400.0" rx="225" ry="92" fill="none" stroke="#000e12" stroke-width="0.3" opacity="0.04" transform="rotate(166,400.0,400.0)"/>
<ellipse cx="400.0" cy="400.0" rx="132" ry="122" fill="none" stroke="#000e12" stroke-width="0.3" opacity="0.04" transform="rotate(318,400.0,400.0)"/>
<ellipse cx="400.0" cy="400.0" rx="348" ry="310" fill="none" stroke="#090c01" stroke-width="0.3" opacity="0.04" transform="rotate(50,400.0,400.0)"/>
<ellipse cx="400.0" cy="400.0" rx="286" ry="117" fill="none" stroke="#000e12" stroke-width="0.3" opacity="0.04" transform="rotate(166,400.0,400.0)"/>
<ellipse cx="400.0" cy="400.0" rx="101" ry="94" fill="none" stroke="#000e12" stroke-width="0.3" opacity="0.04" transform="rotate(318,400.0,400.0)"/>
<ellipse cx="400.0" cy="400.0" rx="194" ry="173" fill="none" stroke="#000f09" stroke-width="0.3" opacity="0.04" transform="rotate(50,400.0,400.0)"/>
<g filter="url(#bloom)">
<path d="M501.4,514.3 Q502.4,515.5 503.3,516.7 Q504.2,517.9 505.1,519.1 Q506.0,520.2 506.9,521.4 Q507.7,522.5 508.6,523.6 Q509.4,524.7 510.2,525.8 Q511.0,526.9 511.8,527.9 Q512.6,529.0 513.3,530.0 Q514.1,531.1 514.8,532.1 Q515.6,533.1 516.3,534.1 Q517.0,535.1 517.7,536.0 Q518.4,537.0 519.1,537.9 Q519.8,538.9 520.5,539.8 Q521.2,540.7 521.8,541.6 Q522.5,542.5 523.2,543.4 Q523.8,544.3 524.5,545.2 Q525.2,546.0 525.8,546.9 Q526.5,547.7 527.1,548.6 Q527.8,549.4 528.5,550.2 Q529.1,551.1 529.8,551.9 Q530.5,552.7 531.2,553.6" fill="none" stroke="#007488" stroke-width="0.5" stroke-linecap="round" class="photon" style="--len:49;--op:0.20;--dur:3.4s;animation-delay:0.0s"/>
<path d="M520.1,321.6 Q522.1,320.1 524.0,318.7 Q525.9,317.2 527.8,315.7 Q529.7,314.1 531.6,312.5 Q533.4,310.8 535.2,309.1 Q537.0,307.3 538.8,305.5 Q540.6,303.7 542.3,301.8 Q544.0,299.9 545.8,297.9 Q547.5,296.0 549.1,294.0 Q550.8,292.0 552.5,290.0 Q554.1,288.0 555.7,285.9 Q557.3,283.9 558.9,281.8 Q560.4,279.8 561.9,277.7 Q563.4,275.6 564.8,273.6 Q566.2,271.5 567.5,269.4 Q568.8,267.3 570.1,265.2 Q571.4,263.1 572.6,261.0 Q573.8,258.9 575.0,256.8 Q576.1,254.7 577.3,252.6 Q578.4,250.5 579.5,248.5 Q580.6,246.4 581.7,244.3" fill="none" stroke="#007488" stroke-width="0.5" stroke-linecap="round" class="photon" style="--len:100;--op:0.20;--dur:4.4s;animation-delay:0.5s"/>
<path d="M322.8,297.7 Q322.2,295.6 321.6,293.4 Q320.9,291.3 320.2,289.1 Q319.5,286.9 318.7,284.8 Q317.9,282.6 317.1,280.4 Q316.3,278.2 315.4,276.1 Q314.4,273.9 313.5,271.7 Q312.4,269.6 311.4,267.4 Q310.2,265.3 309.1,263.2 Q307.9,261.1 306.6,259.0 Q305.3,256.9 303.9,254.8 Q302.5,252.7 301.0,250.6 Q299.5,248.5 297.9,246.4 Q296.3,244.3 294.7,242.1 Q293.0,239.9 291.2,237.7 Q289.5,235.5 287.7,233.2 Q285.9,230.9 284.0,228.5 Q282.2,226.1 280.4,223.6 Q278.5,221.2 276.7,218.7 Q274.9,216.2 273.1,213.6 Q271.4,211.1 269.6,208.5" fill="none" stroke="#00728d" stroke-width="0.5" stroke-linecap="round" class="photon" style="--len:105;--op:0.20;--dur:3.2s;animation-delay:1.0s"/>
<path d="M323.2,702.6 Q323.2,705.3 323.2,708.1 Q323.3,710.8 323.4,713.6 Q323.5,716.3 323.7,719.0 Q324.0,721.7 324.2,724.4 Q324.6,727.1 324.9,729.7 Q325.3,732.3 325.7,734.9 Q326.1,737.4 326.5,740.0 Q327.0,742.5 327.4,744.9 Q327.8,747.4 328.3,749.8 Q328.7,752.2 329.2,754.5 Q329.6,756.9 330.0,759.2 Q330.4,761.5 330.8,763.8 Q331.1,766.0 331.5,768.2 Q331.8,770.4 332.1,772.6 Q332.4,774.8 332.7,776.9 Q333.1,779.1 333.4,781.2 Q333.7,783.4 334.1,785.6 Q334.4,787.7 334.8,789.9 Q335.2,792.0 335.6,794.2 Q336.0,796.4 336.5,798.6" fill="none" stroke="#5a6c00" stroke-width="0.5" stroke-linecap="round" class="photon" style="--len:97;--op:0.20;--dur:2.3s;animation-delay:1.5s"/>
<path d="M682.4,387.8 Q684.3,388.0 686.3,388.2 Q688.3,388.4 690.2,388.7 Q692.2,389.0 694.2,389.4 Q696.2,389.7 698.2,390.2 Q700.3,390.6 702.3,391.1 Q704.4,391.5 706.6,392.1 Q708.7,392.6 710.9,393.2 Q713.0,393.9 715.3,394.5 Q717.5,395.3 719.8,396.0 Q722.0,396.8 724.3,397.6 Q726.6,398.4 728.8,399.3 Q731.1,400.1 733.4,401.0 Q735.6,401.9 737.8,402.7 Q740.0,403.6 742.2,404.4 Q744.3,405.2 746.5,406.0 Q748.6,406.7 750.7,407.4 Q752.7,408.1 754.8,408.7 Q756.8,409.3 758.8,409.9 Q760.8,410.4 762.8,410.9 Q764.7,411.4 766.7,411.8" fill="none" stroke="#007488" stroke-width="0.5" stroke-linecap="round" class="photon" style="--len:88;--op:0.20;--dur:3.7s;animation-delay:2.0s"/>
<path d="M431.2,309.6 Q432.9,307.8 434.7,306.1 Q436.5,304.4 438.3,302.7 Q440.1,300.9 442.0,299.1 Q443.8,297.3 445.7,295.5 Q447.6,293.6 449.5,291.7 Q451.4,289.8 453.3,287.8 Q455.2,285.9 457.1,283.9 Q459.0,281.8 460.9,279.8 Q462.7,277.7 464.5,275.6 Q466.3,273.4 468.1,271.2 Q469.8,269.1 471.5,266.9 Q473.2,264.7 474.8,262.5 Q476.5,260.3 478.1,258.0 Q479.6,255.8 481.1,253.6 Q482.6,251.4 484.0,249.2 Q485.4,246.9 486.8,244.7 Q488.1,242.5 489.3,240.2 Q490.5,238.0 491.7,235.8 Q492.9,233.6 494.0,231.4 Q495.1,229.3 496.2,227.1" fill="none" stroke="#007488" stroke-width="0.5" stroke-linecap="round" class="photon" style="--len:106;--op:0.20;--dur:4.6s;animation-delay:2.5s"/>
<path d="M224.6,474.1 Q222.6,475.2 220.6,476.3 Q218.5,477.3 216.5,478.4 Q214.4,479.5 212.4,480.5 Q210.3,481.6 208.3,482.7 Q206.2,483.8 204.1,484.9 Q202.1,486.0 200.0,487.1 Q198.0,488.3 195.9,489.4 Q193.9,490.5 191.9,491.7 Q189.9,492.8 187.9,494.0 Q185.9,495.2 184.0,496.4 Q182.0,497.6 180.0,498.8 Q178.0,499.9 176.1,501.1 Q174.1,502.3 172.2,503.6 Q170.2,504.8 168.3,506.0 Q166.4,507.2 164.5,508.5 Q162.7,509.8 160.9,511.1 Q159.1,512.4 157.4,513.8 Q155.7,515.2 154.0,516.6 Q152.4,518.1 150.8,519.7 Q149.3,521.2 147.8,522.8" fill="none" stroke="#007858" stroke-width="0.5" stroke-linecap="round" class="photon" style="--len:91;--op:0.20;--dur:4.0s;animation-delay:3.0s"/>
<path d="M502.9,509.7 Q503.8,510.9 504.8,512.1 Q505.7,513.2 506.6,514.4 Q507.4,515.5 508.3,516.6 Q509.2,517.7 510.0,518.8 Q510.8,519.9 511.6,520.9 Q512.4,522.0 513.2,523.0 Q514.0,524.0 514.7,525.0 Q515.5,526.0 516.2,527.0 Q517.0,528.0 517.7,528.9 Q518.4,529.9 519.1,530.8 Q519.8,531.8 520.5,532.7 Q521.2,533.6 521.9,534.6 Q522.6,535.5 523.2,536.4 Q523.9,537.3 524.6,538.2 Q525.2,539.1 525.9,539.9 Q526.5,540.8 527.2,541.7 Q527.8,542.5 528.5,543.4 Q529.1,544.3 529.8,545.1 Q530.4,546.0 531.1,546.8 Q531.7,547.7 532.4,548.5" fill="none" stroke="#007488" stroke-width="0.5" stroke-linecap="round" class="photon" style="--len:49;--op:0.20;--dur:2.3s;animation-delay:3.5s"/>
<path d="M528.2,323.3 Q530.1,322.0 532.0,320.5 Q533.9,319.1 535.8,317.6 Q537.7,316.0 539.6,314.4 Q541.5,312.8 543.4,311.1 Q545.2,309.3 547.1,307.5 Q548.9,305.7 550.7,303.9 Q552.5,302.0 554.3,300.1 Q556.1,298.2 557.9,296.2 Q559.7,294.3 561.4,292.4 Q563.1,290.4 564.8,288.4 Q566.4,286.4 568.0,284.5 Q569.6,282.5 571.1,280.5 Q572.6,278.5 574.0,276.5 Q575.4,274.5 576.8,272.5 Q578.2,270.5 579.5,268.5 Q580.8,266.5 582.1,264.5 Q583.4,262.5 584.6,260.5 Q585.9,258.5 587.1,256.6 Q588.3,254.6 589.4,252.7 Q590.6,250.8 591.7,248.9" fill="none" stroke="#007488" stroke-width="0.5" stroke-linecap="round" class="photon" style="--len:99;--op:0.20;--dur:2.7s;animation-delay:4.0s"/>
<path d="M319.8,302.7 Q319.1,300.6 318.4,298.5 Q317.7,296.4 316.9,294.3 Q316.1,292.1 315.3,290.0 Q314.5,287.8 313.6,285.7 Q312.7,283.5 311.7,281.3 Q310.7,279.1 309.7,277.0 Q308.6,274.8 307.4,272.6 Q306.2,270.5 305.0,268.3 Q303.7,266.2 302.3,264.1 Q300.9,261.9 299.4,259.8 Q297.9,257.7 296.4,255.6 Q294.8,253.5 293.1,251.4 Q291.4,249.2 289.6,247.1 Q287.8,244.9 286.0,242.7 Q284.1,240.4 282.2,238.2 Q280.3,235.9 278.4,233.5 Q276.6,231.2 274.7,228.8 Q272.8,226.3 271.0,223.9 Q269.2,221.4 267.5,218.9 Q265.7,216.4 264.0,213.9" fill="none" stroke="#00728d" stroke-width="0.5" stroke-linecap="round" class="photon" style="--len:106;--op:0.20;--dur:3.7s;animation-delay:4.5s"/>
<path d="M318.9,700.8 Q318.8,703.5 318.7,706.2 Q318.7,708.8 318.7,711.5 Q318.7,714.2 318.8,716.8 Q319.0,719.5 319.2,722.1 Q319.4,724.7 319.7,727.3 Q320.0,729.8 320.3,732.3 Q320.6,734.9 321.0,737.3 Q321.3,739.8 321.7,742.2 Q322.1,744.6 322.4,747.0 Q322.8,749.4 323.2,751.7 Q323.6,754.0 323.9,756.3 Q324.3,758.6 324.7,760.9 Q325.0,763.2 325.3,765.4 Q325.6,767.6 325.9,769.9 Q326.2,772.1 326.4,774.3 Q326.7,776.6 326.9,778.8 Q327.2,781.1 327.4,783.3 Q327.7,785.6 328.0,787.8 Q328.2,790.1 328.6,792.4 Q328.9,794.6 329.2,796.9" fill="none" stroke="#5a6c00" stroke-width="0.5" stroke-linecap="round" class="photon" style="--len:97;--op:0.20;--dur:3.1s;animation-delay:5.0s"/>
<path d="M683.2,388.2 Q685.1,388.4 687.1,388.6 Q689.1,388.9 691.0,389.2 Q693.0,389.5 695.0,389.9 Q697.0,390.3 699.0,390.7 Q701.1,391.1 703.2,391.6 Q705.3,392.1 707.4,392.7 Q709.6,393.2 711.7,393.9 Q713.9,394.5 716.2,395.2 Q718.4,395.9 720.7,396.7 Q722.9,397.5 725.2,398.3 Q727.5,399.1 729.8,400.0 Q732.0,400.8 734.3,401.7 Q736.5,402.6 738.7,403.4 Q740.9,404.3 743.1,405.1 Q745.2,405.9 747.4,406.6 Q749.5,407.4 751.5,408.1 Q753.6,408.7 755.7,409.3 Q757.7,409.9 759.7,410.5 Q761.7,411.0 763.7,411.5 Q765.6,411.9 767.6,412.3" fill="none" stroke="#007488" stroke-width="0.5" stroke-linecap="round" class="photon" style="--len:88;--op:0.20;--dur:3.6s;animation-delay:5.5s"/>
<path d="M427.0,310.7 Q428.6,308.9 430.2,307.2 Q431.9,305.4 433.6,303.7 Q435.3,301.9 437.1,300.1 Q438.9,298.3 440.7,296.5 Q442.5,294.6 444.3,292.8 Q446.1,290.9 448.0,288.9 Q449.8,287.0 451.7,285.0 Q453.5,283.0 455.3,281.0 Q457.2,278.9 459.0,276.8 Q460.7,274.7 462.5,272.6 Q464.2,270.4 465.9,268.3 Q467.6,266.1 469.2,263.9 Q470.8,261.7 472.4,259.5 Q473.9,257.2 475.5,255.0 Q476.9,252.8 478.3,250.6 Q479.7,248.3 481.1,246.1 Q482.3,243.9 483.6,241.6 Q484.8,239.4 486.0,237.2 Q487.1,235.0 488.2,232.8 Q489.3,230.7 490.4,228.6" fill="none" stroke="#007488" stroke-width="0.5" stroke-linecap="round" class="photon" style="--len:104;--op:0.20;--dur:3.1s;animation-delay:6.0s"/>
<path d="M224.8,471.6 Q222.8,472.7 220.7,473.8 Q218.7,474.9 216.6,476.0 Q214.6,477.1 212.5,478.2 Q210.4,479.3 208.3,480.4 Q206.2,481.5 204.2,482.7 Q202.1,483.8 200.0,484.9 Q197.9,486.0 195.9,487.2 Q193.8,488.3 191.8,489.5 Q189.8,490.6 187.8,491.8 Q185.8,493.0 183.7,494.1 Q181.7,495.3 179.7,496.5 Q177.7,497.7 175.7,498.9 Q173.7,500.1 171.7,501.3 Q169.7,502.5 167.7,503.7 Q165.8,505.0 163.9,506.2 Q162.0,507.5 160.1,508.8 Q158.2,510.1 156.4,511.5 Q154.7,512.9 153.0,514.3 Q151.3,515.8 149.7,517.3 Q148.1,518.9 146.5,520.5" fill="none" stroke="#007858" stroke-width="0.5" stroke-linecap="round" class="photon" style="--len:93;--op:0.20;--dur:3.4s;animation-delay:6.5s"/>
<path d="M505.9,514.2 Q506.8,515.3 507.7,516.5 Q508.6,517.6 509.4,518.7 Q510.2,519.7 511.0,520.8 Q511.9,521.8 512.6,522.9 Q513.4,523.9 514.2,524.9 Q515.0,525.9 515.7,526.9 Q516.4,527.9 517.2,528.9 Q517.9,529.8 518.6,530.8 Q519.3,531.7 520.0,532.7 Q520.7,533.6 521.4,534.5 Q522.1,535.5 522.7,536.4 Q523.4,537.3 524.1,538.2 Q524.7,539.1 525.4,539.9 Q526.0,540.8 526.7,541.7 Q527.3,542.6 528.0,543.4 Q528.6,544.3 529.3,545.1 Q529.9,546.0 530.6,546.8 Q531.2,547.7 531.9,548.5 Q532.5,549.4 533.2,550.2 Q533.9,551.1 534.5,551.9" fill="none" stroke="#007488" stroke-width="0.5" stroke-linecap="round" class="photon" style="--len:47;--op:0.20;--dur:2.9s;animation-delay:7.0s"/>
<path d="M523.3,324.9 Q525.3,323.6 527.2,322.2 Q529.1,320.8 531.0,319.4 Q532.9,317.9 534.8,316.3 Q536.7,314.8 538.6,313.1 Q540.4,311.4 542.3,309.7 Q544.1,308.0 545.9,306.1 Q547.7,304.3 549.5,302.4 Q551.3,300.5 553.1,298.6 Q554.8,296.7 556.6,294.7 Q558.3,292.8 560.0,290.8 Q561.7,288.8 563.3,286.8 Q564.9,284.8 566.5,282.8 Q568.0,280.8 569.5,278.8 Q571.0,276.8 572.4,274.7 Q573.8,272.7 575.1,270.7 Q576.5,268.6 577.8,266.6 Q579.1,264.6 580.3,262.6 Q581.6,260.5 582.8,258.5 Q584.0,256.5 585.1,254.5 Q586.3,252.6 587.4,250.6" fill="none" stroke="#007488" stroke-width="0.5" stroke-linecap="round" class="photon" style="--len:99;--op:0.20;--dur:3.0s;animation-delay:7.5s"/>
<path d="M316.9,297.7 Q316.1,295.6 315.3,293.5 Q314.5,291.3 313.6,289.2 Q312.8,287.0 311.8,284.9 Q310.9,282.7 309.8,280.5 Q308.8,278.3 307.6,276.2 Q306.5,274.0 305.3,271.8 Q304.0,269.7 302.7,267.5 Q301.3,265.4 299.9,263.3 Q298.4,261.2 296.9,259.0 Q295.3,256.9 293.6,254.8 Q292.0,252.7 290.2,250.5 Q288.4,248.4 286.6,246.2 Q284.7,244.0 282.9,241.7 Q281.0,239.5 279.1,237.2 Q277.2,234.9 275.3,232.5 Q273.4,230.2 271.6,227.8 Q269.7,225.3 268.0,222.9 Q266.2,220.4 264.5,218.0 Q262.8,215.5 261.2,213.0 Q259.5,210.5 257.9,208.0" fill="none" stroke="#00728d" stroke-width="0.5" stroke-linecap="round" class="photon" style="--len:108;--op:0.20;--dur:3.4s;animation-delay:8.0s"/>
<path d="M318.9,698.4 Q318.7,701.0 318.6,703.7 Q318.6,706.4 318.5,709.0 Q318.6,711.7 318.6,714.4 Q318.7,717.0 318.9,719.6 Q319.1,722.3 319.3,724.9 Q319.6,727.4 319.8,730.0 Q320.2,732.5 320.5,735.0 Q320.8,737.5 321.2,739.9 Q321.6,742.4 322.0,744.8 Q322.3,747.1 322.7,749.5 Q323.1,751.8 323.5,754.2 Q323.8,756.5 324.2,758.8 Q324.5,761.0 324.9,763.3 Q325.2,765.5 325.5,767.8 Q325.8,770.0 326.0,772.2 Q326.3,774.5 326.5,776.7 Q326.8,779.0 327.0,781.2 Q327.3,783.5 327.5,785.7 Q327.8,788.0 328.1,790.3 Q328.4,792.5 328.7,794.8" fill="none" stroke="#5a6c00" stroke-width="0.5" stroke-linecap="round" class="photon" style="--len:97;--op:0.20;--dur:2.2s;animation-delay:8.5s"/>
<path d="M682.6,395.4 Q684.5,395.7 686.5,396.0 Q688.4,396.3 690.3,396.6 Q692.3,397.0 694.3,397.4 Q696.2,397.8 698.2,398.2 Q700.3,398.7 702.3,399.2 Q704.4,399.7 706.5,400.3 Q708.7,400.8 710.9,401.5 Q713.1,402.1 715.3,402.8 Q717.6,403.5 719.9,404.2 Q722.2,405.0 724.5,405.8 Q726.9,406.6 729.2,407.5 Q731.6,408.3 733.9,409.2 Q736.2,410.0 738.5,410.8 Q740.8,411.6 743.1,412.4 Q745.4,413.1 747.6,413.8 Q749.8,414.5 752.0,415.1 Q754.1,415.7 756.3,416.3 Q758.4,416.8 760.5,417.3 Q762.6,417.8 764.6,418.2 Q766.7,418.6 768.7,418.9" fill="none" stroke="#007488" stroke-width="0.5" stroke-linecap="round" class="photon" style="--len:89;--op:0.20;--dur:2.4s;animation-delay:9.0s"/>
<path d="M431.5,306.3 Q433.2,304.6 434.9,302.8 Q436.7,301.0 438.4,299.2 Q440.2,297.4 442.1,295.6 Q443.9,293.7 445.7,291.8 Q447.6,289.9 449.4,288.0 Q451.3,286.0 453.1,284.0 Q455.0,282.0 456.8,280.0 Q458.6,277.9 460.4,275.8 Q462.2,273.7 463.9,271.5 Q465.6,269.4 467.3,267.2 Q469.0,265.0 470.6,262.8 Q472.2,260.6 473.8,258.3 Q475.3,256.1 476.8,253.9 Q478.2,251.7 479.6,249.5 Q481.0,247.2 482.3,245.0 Q483.6,242.7 484.8,240.5 Q486.0,238.3 487.2,236.1 Q488.3,233.9 489.4,231.8 Q490.5,229.6 491.6,227.5 Q492.6,225.4 493.7,223.4" fill="none" stroke="#007488" stroke-width="0.5" stroke-linecap="round" class="photon" style="--len:104;--op:0.20;--dur:4.1s;animation-delay:9.5s"/>
<path d="M223.2,475.3 Q221.1,476.4 219.1,477.4 Q217.1,478.5 215.0,479.6 Q213.0,480.6 210.9,481.7 Q208.9,482.8 206.8,483.9 Q204.7,485.0 202.7,486.1 Q200.6,487.2 198.6,488.3 Q196.6,489.4 194.5,490.6 Q192.5,491.7 190.5,492.9 Q188.5,494.0 186.6,495.2 Q184.6,496.4 182.6,497.6 Q180.6,498.8 178.7,500.0 Q176.7,501.2 174.8,502.4 Q172.8,503.6 170.9,504.8 Q169.0,506.0 167.1,507.3 Q165.2,508.5 163.4,509.8 Q161.5,511.1 159.8,512.4 Q158.0,513.8 156.3,515.2 Q154.7,516.6 153.1,518.1 Q151.5,519.6 150.0,521.1 Q148.4,522.7 147.0,524.4" fill="none" stroke="#007858" stroke-width="0.5" stroke-linecap="round" class="photon" style="--len:91;--op:0.20;--dur:2.3s;animation-delay:10.0s"/>
<path d="M505.1,515.2 Q506.0,516.4 506.9,517.5 Q507.7,518.6 508.6,519.7 Q509.4,520.8 510.3,521.9 Q511.1,523.0 511.9,524.0 Q512.7,525.1 513.4,526.1 Q514.2,527.1 515.0,528.1 Q515.7,529.1 516.4,530.1 Q517.2,531.1 517.9,532.1 Q518.6,533.0 519.3,534.0 Q520.0,534.9 520.7,535.8 Q521.3,536.8 522.0,537.7 Q522.7,538.6 523.4,539.5 Q524.0,540.4 524.7,541.3 Q525.3,542.1 526.0,543.0 Q526.6,543.9 527.3,544.7 Q527.9,545.6 528.6,546.4 Q529.2,547.3 529.9,548.1 Q530.6,549.0 531.2,549.8 Q531.9,550.7 532.6,551.5 Q533.2,552.3 533.9,553.2" fill="none" stroke="#007488" stroke-width="0.5" stroke-linecap="round" class="photon" style="--len:48;--op:0.20;--dur:4.9s;animation-delay:10.5s"/>
<path d="M527.7,321.9 Q529.6,320.5 531.5,319.1 Q533.4,317.6 535.3,316.0 Q537.2,314.4 539.1,312.8 Q540.9,311.1 542.8,309.4 Q544.6,307.6 546.4,305.8 Q548.2,303.9 550.0,302.1 Q551.8,300.2 553.6,298.2 Q555.3,296.3 557.1,294.3 Q558.8,292.4 560.5,290.4 Q562.1,288.4 563.8,286.4 Q565.4,284.4 566.9,282.4 Q568.5,280.4 570.0,278.4 Q571.4,276.4 572.8,274.4 Q574.2,272.3 575.6,270.3 Q576.9,268.3 578.2,266.2 Q579.5,264.2 580.7,262.2 Q582.0,260.2 583.2,258.2 Q584.4,256.2 585.5,254.2 Q586.7,252.2 587.8,250.2 Q588.9,248.3 590.0,246.3" fill="none" stroke="#007488" stroke-width="0.5" stroke-linecap="round" class="photon" style="--len:99;--op:0.20;--dur:3.2s;animation-delay:11.0s"/>
<path d="M319.9,303.2 Q319.2,301.1 318.5,299.0 Q317.8,296.8 317.1,294.7 Q316.3,292.6 315.5,290.4 Q314.7,288.3 313.8,286.1 Q312.9,283.9 311.9,281.8 Q310.9,279.6 309.9,277.4 Q308.8,275.3 307.7,273.1 Q306.5,270.9 305.2,268.8 Q303.9,266.6 302.6,264.5 Q301.2,262.4 299.7,260.3 Q298.2,258.2 296.7,256.1 Q295.1,253.9 293.4,251.8 Q291.7,249.7 290.0,247.5 Q288.2,245.3 286.3,243.1 Q284.5,240.9 282.6,238.6 Q280.7,236.3 278.8,234.0 Q276.9,231.7 275.1,229.3 Q273.2,226.9 271.4,224.4 Q269.6,222.0 267.8,219.5 Q266.1,217.0 264.4,214.5" fill="none" stroke="#00728d" stroke-width="0.5" stroke-linecap="round" class="photon" style="--len:106;--op:0.20;--dur:3.8s;animation-delay:11.5s"/>
<path d="M327.9,701.1 Q327.9,703.9 328.0,706.7 Q328.1,709.5 328.3,712.3 Q328.4,715.1 328.7,717.9 Q328.9,720.7 329.2,723.4 Q329.6,726.1 330.0,728.9 Q330.4,731.6 330.8,734.2 Q331.3,736.9 331.8,739.5 Q332.3,742.1 332.8,744.6 Q333.3,747.2 333.8,749.7 Q334.3,752.1 334.7,754.6 Q335.2,757.0 335.7,759.3 Q336.1,761.7 336.5,764.0 Q336.9,766.2 337.3,768.4 Q337.7,770.6 338.0,772.8 Q338.4,774.9 338.7,777.1 Q339.1,779.2 339.5,781.3 Q339.8,783.4 340.2,785.5 Q340.6,787.6 341.1,789.7 Q341.5,791.8 342.0,793.9 Q342.4,796.0 342.9,798.1" fill="none" stroke="#5a6c00" stroke-width="0.5" stroke-linecap="round" class="photon" style="--len:98;--op:0.20;--dur:2.0s;animation-delay:12.0s"/>
<path d="M685.1,391.3 Q687.0,391.5 689.0,391.8 Q691.0,392.2 692.9,392.5 Q694.9,392.9 696.9,393.3 Q698.9,393.7 701.0,394.2 Q703.0,394.7 705.1,395.2 Q707.3,395.7 709.4,396.3 Q711.6,396.9 713.8,397.6 Q716.0,398.3 718.3,399.0 Q720.6,399.8 722.9,400.6 Q725.2,401.4 727.5,402.2 Q729.8,403.1 732.1,403.9 Q734.4,404.8 736.6,405.6 Q738.9,406.5 741.1,407.3 Q743.3,408.1 745.5,408.9 Q747.7,409.6 749.8,410.3 Q751.9,411.0 754.0,411.6 Q756.1,412.2 758.2,412.8 Q760.2,413.3 762.2,413.8 Q764.3,414.2 766.3,414.6 Q768.2,415.0 770.2,415.4" fill="none" stroke="#007488" stroke-width="0.5" stroke-linecap="round" class="photon" style="--len:89;--op:0.20;--dur:2.4s;animation-delay:12.5s"/>
<path d="M428.7,308.8 Q430.3,307.1 432.0,305.3 Q433.7,303.5 435.4,301.8 Q437.2,300.0 438.9,298.2 Q440.7,296.3 442.6,294.5 Q444.4,292.6 446.2,290.7 Q448.1,288.8 449.9,286.8 Q451.7,284.9 453.6,282.8 Q455.4,280.8 457.2,278.8 Q459.0,276.7 460.8,274.6 Q462.5,272.4 464.3,270.3 Q466.0,268.1 467.6,265.9 Q469.3,263.7 470.9,261.5 Q472.4,259.3 474.0,257.1 Q475.5,254.8 477.0,252.6 Q478.4,250.4 479.7,248.2 Q481.1,245.9 482.4,243.7 Q483.6,241.5 484.8,239.2 Q486.0,237.0 487.1,234.8 Q488.2,232.7 489.3,230.5 Q490.4,228.4 491.4,226.3" fill="none" stroke="#007488" stroke-width="0.5" stroke-linecap="round" class="photon" style="--len:104;--op:0.20;--dur:3.9s;animation-delay:13.0s"/>
<path d="M219.3,471.9 Q217.2,473.1 215.1,474.2 Q213.1,475.4 211.0,476.5 Q208.9,477.6 206.8,478.8 Q204.6,479.9 202.5,481.0 Q200.4,482.2 198.3,483.3 Q196.3,484.4 194.2,485.6 Q192.1,486.7 190.1,487.9 Q188.0,489.0 186.0,490.2 Q183.9,491.4 181.9,492.6 Q179.8,493.7 177.8,494.9 Q175.7,496.1 173.7,497.3 Q171.6,498.5 169.6,499.7 Q167.5,500.9 165.5,502.1 Q163.5,503.3 161.5,504.6 Q159.6,505.9 157.7,507.2 Q155.8,508.5 154.0,509.9 Q152.2,511.3 150.4,512.8 Q148.7,514.3 147.1,515.9 Q145.4,517.5 143.9,519.1 Q142.3,520.8 140.8,522.5" fill="none" stroke="#007858" stroke-width="0.5" stroke-linecap="round" class="photon" style="--len:94;--op:0.20;--dur:3.1s;animation-delay:13.5s"/>
<path d="M503.6,515.1 Q504.6,516.3 505.5,517.4 Q506.3,518.6 507.2,519.7 Q508.1,520.8 508.9,521.9 Q509.7,523.0 510.5,524.1 Q511.4,525.2 512.1,526.2 Q512.9,527.3 513.7,528.3 Q514.4,529.3 515.2,530.3 Q515.9,531.3 516.7,532.3 Q517.4,533.3 518.1,534.3 Q518.8,535.2 519.5,536.2 Q520.2,537.1 520.9,538.0 Q521.5,538.9 522.2,539.8 Q522.9,540.7 523.5,541.6 Q524.2,542.5 524.8,543.4 Q525.5,544.3 526.2,545.1 Q526.8,546.0 527.5,546.8 Q528.1,547.7 528.8,548.5 Q529.4,549.3 530.1,550.2 Q530.8,551.0 531.4,551.9 Q532.1,552.7 532.8,553.5" fill="none" stroke="#007488" stroke-width="0.5" stroke-linecap="round" class="photon" style="--len:48;--op:0.20;--dur:2.2s;animation-delay:14.0s"/>
<path d="M527.9,321.3 Q529.9,319.8 531.8,318.4 Q533.7,316.8 535.5,315.3 Q537.4,313.7 539.3,312.0 Q541.1,310.3 542.9,308.5 Q544.8,306.7 546.6,304.9 Q548.4,303.0 550.1,301.2 Q551.9,299.2 553.7,297.3 Q555.4,295.4 557.1,293.4 Q558.9,291.4 560.5,289.4 Q562.2,287.4 563.8,285.4 Q565.4,283.4 566.9,281.4 Q568.5,279.4 569.9,277.4 Q571.4,275.4 572.8,273.3 Q574.1,271.3 575.5,269.3 Q576.8,267.2 578.1,265.2 Q579.3,263.1 580.6,261.1 Q581.8,259.1 583.0,257.1 Q584.2,255.1 585.3,253.1 Q586.5,251.1 587.6,249.1 Q588.7,247.2 589.8,245.2" fill="none" stroke="#007488" stroke-width="0.5" stroke-linecap="round" class="photon" style="--len:99;--op:0.20;--dur:3.2s;animation-delay:14.5s"/>
<path d="M325.5,306.7 Q324.9,304.6 324.2,302.4 Q323.6,300.3 323.0,298.1 Q322.4,295.9 321.7,293.8 Q321.0,291.6 320.4,289.5 Q319.6,287.3 318.9,285.1 Q318.1,283.0 317.3,280.8 Q316.5,278.6 315.6,276.4 Q314.7,274.3 313.7,272.1 Q312.7,269.9 311.6,267.8 Q310.5,265.6 309.4,263.5 Q308.1,261.4 306.9,259.3 Q305.6,257.2 304.2,255.1 Q302.8,253.1 301.4,251.0 Q299.9,248.9 298.3,246.8 Q296.7,244.6 295.1,242.5 Q293.4,240.3 291.6,238.1 Q289.9,235.9 288.1,233.6 Q286.3,231.3 284.5,228.9 Q282.6,226.5 280.8,224.1 Q279.0,221.6 277.1,219.1" fill="none" stroke="#00728d" stroke-width="0.5" stroke-linecap="round" class="photon" style="--len:101;--op:0.20;--dur:4.0s;animation-delay:15.0s"/>
<path d="M319.0,702.7 Q318.9,705.4 318.9,708.1 Q318.9,710.7 319.0,713.4 Q319.1,716.1 319.2,718.7 Q319.4,721.3 319.6,724.0 Q319.9,726.5 320.2,729.1 Q320.5,731.7 320.8,734.2 Q321.1,736.7 321.5,739.1 Q321.9,741.6 322.3,744.0 Q322.6,746.4 323.0,748.7 Q323.4,751.1 323.8,753.4 Q324.2,755.7 324.5,758.0 Q324.9,760.3 325.2,762.6 Q325.6,764.8 325.9,767.1 Q326.2,769.3 326.4,771.5 Q326.7,773.7 326.9,776.0 Q327.2,778.2 327.4,780.4 Q327.7,782.7 328.0,784.9 Q328.3,787.2 328.5,789.4 Q328.9,791.7 329.2,794.0 Q329.5,796.2 329.9,798.5" fill="none" stroke="#5a6c00" stroke-width="0.5" stroke-linecap="round" class="photon" style="--len:97;--op:0.20;--dur:2.2s;animation-delay:15.5s"/>
<path d="M685.0,394.3 Q687.0,394.6 688.9,394.9 Q690.8,395.2 692.8,395.6 Q694.8,396.0 696.8,396.4 Q698.8,396.8 700.8,397.3 Q702.9,397.8 705.0,398.3 Q707.1,398.9 709.2,399.5 Q711.4,400.1 713.6,400.7 Q715.9,401.4 718.2,402.1 Q720.4,402.9 722.8,403.7 Q725.1,404.5 727.4,405.3 Q729.7,406.2 732.1,407.0 Q734.4,407.9 736.7,408.7 Q739.0,409.5 741.3,410.3 Q743.5,411.1 745.7,411.9 Q747.9,412.6 750.1,413.2 Q752.3,413.9 754.4,414.5 Q756.5,415.1 758.6,415.6 Q760.7,416.1 762.8,416.6 Q764.8,417.0 766.9,417.4 Q768.9,417.7 770.9,418.1" fill="none" stroke="#007488" stroke-width="0.5" stroke-linecap="round" class="photon" style="--len:89;--op:0.20;--dur:2.0s;animation-delay:16.0s"/>
<path d="M426.5,305.2 Q428.1,303.4 429.7,301.6 Q431.3,299.8 432.9,297.9 Q434.6,296.1 436.3,294.2 Q438.0,292.3 439.7,290.4 Q441.4,288.4 443.2,286.5 Q444.9,284.5 446.6,282.5 Q448.4,280.5 450.1,278.4 Q451.8,276.4 453.6,274.3 Q455.3,272.2 456.9,270.0 Q458.6,267.9 460.2,265.7 Q461.8,263.5 463.4,261.3 Q464.9,259.1 466.4,256.9 Q467.9,254.7 469.3,252.4 Q470.7,250.2 472.0,247.9 Q473.3,245.7 474.5,243.4 Q475.7,241.2 476.8,238.9 Q477.9,236.7 479.0,234.5 Q480.1,232.4 481.1,230.2 Q482.1,228.1 483.1,226.0 Q484.1,224.0 485.2,222.0" fill="none" stroke="#007488" stroke-width="0.5" stroke-linecap="round" class="photon" style="--len:102;--op:0.20;--dur:4.7s;animation-delay:16.5s"/>
<path d="M228.7,470.3 Q226.6,471.4 224.5,472.5 Q222.5,473.6 220.4,474.6 Q218.4,475.7 216.3,476.8 Q214.3,477.9 212.2,479.0 Q210.1,480.1 208.1,481.2 Q206.0,482.3 203.9,483.4 Q201.8,484.6 199.8,485.7 Q197.7,486.8 195.7,487.9 Q193.6,489.1 191.6,490.2 Q189.6,491.4 187.6,492.6 Q185.6,493.7 183.6,494.9 Q181.6,496.1 179.6,497.3 Q177.6,498.5 175.6,499.7 Q173.6,500.9 171.6,502.1 Q169.6,503.3 167.7,504.5 Q165.7,505.8 163.8,507.0 Q162.0,508.3 160.1,509.6 Q158.3,510.9 156.5,512.3 Q154.8,513.7 153.1,515.2 Q151.4,516.7 149.8,518.2" fill="none" stroke="#007858" stroke-width="0.5" stroke-linecap="round" class="photon" style="--len:92;--op:0.20;--dur:4.4s;animation-delay:17.0s"/>
<path d="M504.3,510.0 Q505.2,511.2 506.1,512.4 Q507.0,513.5 507.9,514.6 Q508.8,515.7 509.6,516.8 Q510.5,517.9 511.3,518.9 Q512.1,520.0 512.9,521.0 Q513.7,522.0 514.4,523.0 Q515.2,524.0 515.9,525.0 Q516.7,526.0 517.4,526.9 Q518.1,527.9 518.8,528.9 Q519.5,529.8 520.2,530.7 Q520.9,531.7 521.6,532.6 Q522.3,533.5 523.0,534.4 Q523.6,535.3 524.3,536.2 Q525.0,537.1 525.6,538.0 Q526.3,538.9 526.9,539.7 Q527.6,540.6 528.2,541.5 Q528.9,542.3 529.5,543.2 Q530.2,544.1 530.8,544.9 Q531.5,545.8 532.1,546.6 Q532.8,547.5 533.4,548.4" fill="none" stroke="#007488" stroke-width="0.5" stroke-linecap="round" class="photon" style="--len:48;--op:0.20;--dur:4.1s;animation-delay:17.5s"/>
<path d="M527.7,326.5 Q529.7,325.2 531.6,323.8 Q533.5,322.4 535.4,321.0 Q537.4,319.5 539.3,318.0 Q541.2,316.5 543.1,314.9 Q545.0,313.2 546.9,311.5 Q548.8,309.8 550.7,308.0 Q552.6,306.2 554.4,304.4 Q556.3,302.5 558.1,300.6 Q560.0,298.7 561.8,296.8 Q563.5,294.9 565.3,293.0 Q567.0,291.1 568.7,289.1 Q570.3,287.2 571.9,285.2 Q573.5,283.3 575.0,281.3 Q576.5,279.4 578.0,277.4 Q579.4,275.5 580.8,273.5 Q582.2,271.5 583.6,269.6 Q584.9,267.6 586.2,265.7 Q587.5,263.7 588.8,261.8 Q590.1,259.9 591.3,258.0 Q592.5,256.1 593.7,254.3" fill="none" stroke="#007488" stroke-width="0.5" stroke-linecap="round" class="photon" style="--len:99;--op:0.20;--dur:2.6s;animation-delay:18.0s"/>
<path d="M316.6,301.9 Q315.8,299.8 315.1,297.7 Q314.3,295.6 313.4,293.5 Q312.6,291.3 311.7,289.2 Q310.7,287.0 309.7,284.9 Q308.7,282.7 307.6,280.5 Q306.5,278.4 305.3,276.2 Q304.1,274.0 302.8,271.9 Q301.4,269.7 300.0,267.6 Q298.6,265.4 297.1,263.3 Q295.5,261.2 293.9,259.0 Q292.3,256.9 290.6,254.8 Q288.8,252.6 287.0,250.5 Q285.2,248.3 283.3,246.1 Q281.4,243.9 279.5,241.6 Q277.5,239.4 275.6,237.1 Q273.7,234.8 271.9,232.4 Q270.0,230.1 268.2,227.7 Q266.4,225.3 264.7,222.9 Q263.0,220.4 261.3,218.0 Q259.7,215.5 258.1,213.1" fill="none" stroke="#00728d" stroke-width="0.5" stroke-linecap="round" class="photon" style="--len:107;--op:0.20;--dur:3.8s;animation-delay:18.5s"/>
<path d="M323.1,700.7 Q323.1,703.5 323.1,706.2 Q323.1,709.0 323.2,711.7 Q323.3,714.5 323.5,717.2 Q323.7,719.9 323.9,722.6 Q324.2,725.3 324.6,727.9 Q324.9,730.5 325.3,733.1 Q325.7,735.7 326.1,738.2 Q326.5,740.8 327.0,743.2 Q327.4,745.7 327.9,748.1 Q328.3,750.5 328.7,752.9 Q329.2,755.3 329.6,757.6 Q330.0,759.9 330.4,762.2 Q330.8,764.5 331.1,766.7 Q331.4,768.9 331.8,771.1 Q332.1,773.3 332.4,775.5 Q332.7,777.6 333.0,779.8 Q333.3,781.9 333.7,784.1 Q334.0,786.2 334.4,788.4 Q334.8,790.6 335.2,792.7 Q335.6,794.9 336.0,797.1" fill="none" stroke="#5a6c00" stroke-width="0.5" stroke-linecap="round" class="photon" style="--len:97;--op:0.20;--dur:2.6s;animation-delay:19.0s"/>
<path d="M684.4,395.1 Q686.3,395.4 688.3,395.7 Q690.2,396.0 692.2,396.4 Q694.1,396.8 696.1,397.2 Q698.1,397.6 700.1,398.1 Q702.2,398.6 704.3,399.1 Q706.4,399.6 708.5,400.2 Q710.7,400.8 712.9,401.5 Q715.2,402.1 717.4,402.9 Q719.7,403.6 722.0,404.4 Q724.3,405.2 726.7,406.0 Q729.0,406.8 731.4,407.7 Q733.7,408.5 736.0,409.4 Q738.3,410.2 740.6,411.0 Q742.9,411.8 745.1,412.5 Q747.4,413.2 749.6,413.9 Q751.7,414.6 753.9,415.2 Q756.0,415.7 758.1,416.3 Q760.2,416.8 762.3,417.2 Q764.4,417.7 766.4,418.1 Q768.4,418.4 770.5,418.8" fill="none" stroke="#007488" stroke-width="0.5" stroke-linecap="round" class="photon" style="--len:89;--op:0.20;--dur:3.0s;animation-delay:19.5s"/>
<path d="M426.5,313.9 Q428.0,312.1 429.6,310.4 Q431.3,308.7 433.0,307.0 Q434.7,305.2 436.5,303.5 Q438.3,301.7 440.1,299.9 Q441.9,298.1 443.8,296.3 Q445.7,294.5 447.5,292.6 Q449.4,290.7 451.3,288.8 Q453.2,286.8 455.1,284.8 Q457.0,282.8 458.9,280.8 Q460.7,278.7 462.5,276.6 Q464.3,274.5 466.1,272.3 Q467.8,270.1 469.5,267.9 Q471.2,265.8 472.9,263.5 Q474.5,261.3 476.1,259.1 Q477.7,256.9 479.2,254.7 Q480.7,252.5 482.1,250.3 Q483.5,248.0 484.9,245.8 Q486.2,243.6 487.5,241.3 Q488.7,239.1 489.9,236.9 Q491.0,234.7 492.1,232.5" fill="none" stroke="#007488" stroke-width="0.5" stroke-linecap="round" class="photon" style="--len:105;--op:0.20;--dur:3.0s;animation-delay:20.0s"/>
<path d="M220.2,468.7 Q218.1,469.9 215.9,471.0 Q213.8,472.2 211.7,473.4 Q209.6,474.6 207.4,475.7 Q205.3,476.9 203.2,478.0 Q201.0,479.2 198.9,480.3 Q196.8,481.5 194.7,482.6 Q192.6,483.7 190.5,484.9 Q188.4,486.0 186.3,487.2 Q184.2,488.4 182.1,489.5 Q180.0,490.7 178.0,491.9 Q175.8,493.0 173.7,494.2 Q171.6,495.4 169.5,496.6 Q167.4,497.7 165.3,498.9 Q163.2,500.2 161.2,501.4 Q159.2,502.6 157.2,503.9 Q155.2,505.2 153.3,506.6 Q151.4,508.0 149.6,509.4 Q147.8,510.9 146.0,512.5 Q144.3,514.0 142.7,515.7 Q141.1,517.3 139.5,519.0" fill="none" stroke="#007858" stroke-width="0.5" stroke-linecap="round" class="photon" style="--len:96;--op:0.20;--dur:4.1s;animation-delay:20.5s"/>
</g>
<g filter="url(#bloom)">
<circle cx="503.9" cy="511.9" r="30.0" fill="#37a5b7" class="corona" filter="url(#glow)" style="--op:0.135;--r:30;animation-delay:0.0s"/>
<circle cx="503.9" cy="511.9" r="6.5" fill="#00add2" class="body" style="animation-delay:0.00s;--op:0.860"/>
<circle cx="524.9" cy="323.7" r="28.6" fill="#1791a2" class="corona" filter="url(#glow)" style="--op:0.102;--r:29;animation-delay:2.1s"/>
<circle cx="524.9" cy="323.7" r="8.4" fill="#0090b2" class="body" style="animation-delay:2.14s;--op:0.773"/>
<circle cx="320.9" cy="302.0" r="10.6" fill="#008197" class="corona" filter="url(#glow)" style="--op:0.078;--r:11;animation-delay:4.3s"/>
<circle cx="320.9" cy="302.0" r="4.2" fill="#0079a1" class="body" style="animation-delay:4.29s;--op:0.708"/>
<circle cx="330.2" cy="302.0" r="1.2" fill="#8f0026" opacity="0.5" class="issue" style="--dur:6s;--ox:321px;--oy:302px"/>
<circle cx="323.3" cy="702.3" r="4.6" fill="#627228" class="corona" filter="url(#glow)" style="--op:0.062;--r:5;animation-delay:6.4s"/>
<circle cx="323.3" cy="702.3" r="2.4" fill="#4f6400" class="body" style="animation-delay:6.43s;--op:0.665"/>
<circle cx="330.7" cy="702.3" r="1.2" fill="#8f0026" opacity="0.5" class="issue" style="--dur:6s;--ox:323px;--oy:702px"/>
<circle cx="312.8" cy="702.3" r="1.2" fill="#8f0026" opacity="0.5" class="issue" style="--dur:8s;--ox:323px;--oy:702px"/>
<circle cx="685.5" cy="392.1" r="28.0" fill="#008798" class="corona" filter="url(#glow)" style="--op:0.086;--r:28;animation-delay:8.6s"/>
<circle cx="685.5" cy="392.1" r="10.0" fill="#0082a2" class="body" style="animation-delay:8.57s;--op:0.730"/>
<circle cx="700.5" cy="392.1" r="1.2" fill="#8f0026" opacity="0.5" class="issue" style="--dur:6s;--ox:686px;--oy:392px"/>
<circle cx="667.5" cy="392.1" r="1.2" fill="#8f0026" opacity="0.5" class="issue" style="--dur:8s;--ox:686px;--oy:392px"/>
<circle cx="427.3" cy="309.7" r="4.9" fill="#007484" class="corona" filter="url(#glow)" style="--op:0.054;--r:5;animation-delay:10.7s"/>
<circle cx="427.3" cy="309.7" r="3.1" fill="#006683" class="body" style="animation-delay:10.71s;--op:0.643"/>
<circle cx="435.4" cy="309.7" r="1.2" fill="#8f0026" opacity="0.5" class="issue" style="--dur:6s;--ox:427px;--oy:310px"/>
<circle cx="421.8" cy="319.3" r="1.2" fill="#8f0026" opacity="0.5" class="issue" style="--dur:8s;--ox:427px;--oy:310px"/>
<circle cx="420.3" cy="297.5" r="1.2" fill="#8f0026" opacity="0.5" class="issue" style="--dur:10s;--ox:427px;--oy:310px"/>
<circle cx="224.2" cy="472.7" r="11.4" fill="#188165" class="corona" filter="url(#glow)" style="--op:0.070;--r:11;animation-delay:12.9s"/>
<circle cx="224.2" cy="472.7" r="5.2" fill="#007a50" class="body" style="animation-delay:12.86s;--op:0.687"/>
<circle cx="234.4" cy="472.7" r="1.2" fill="#8f0026" opacity="0.5" class="issue" style="--dur:6s;--ox:224px;--oy:473px"/>
<circle cx="217.6" cy="484.1" r="1.2" fill="#8f0026" opacity="0.5" class="issue" style="--dur:8s;--ox:224px;--oy:473px"/>
<circle cx="216.1" cy="458.7" r="1.2" fill="#8f0026" opacity="0.5" class="issue" style="--dur:10s;--ox:224px;--oy:473px"/>
</g>
<circle cx="761" cy="400" r="1.5" fill="#703407" class="watchfire" style="animation-delay:3.6s;--op:0.15"/>
<circle cx="143" cy="635" r="1.5" fill="#703407" class="watchfire" style="animation-delay:2.8s;--op:0.15"/>
<circle cx="432" cy="33" r="1.5" fill="#703407" class="watchfire" style="animation-delay:1.4s;--op:0.15"/>
<circle cx="605" cy="666" r="1.5" fill="#703407" class="watchfire" style="animation-delay:3.8s;--op:0.15"/>
<circle cx="35" cy="337" r="1.5" fill="#703407" class="watchfire" style="animation-delay:3.1s;--op:0.15"/>
<circle cx="690" cy="214" r="1.5" fill="#703407" class="watchfire" style="animation-delay:0.6s;--op:0.15"/>
<circle cx="308" cy="751" r="1.5" fill="#703407" class="watchfire" style="animation-delay:3.1s;--op:0.15"/>
<circle cx="240" cy="98" r="1.5" fill="#703407" class="watchfire" style="animation-delay:3.7s;--op:0.15"/>
<g filter="url(#bloom)">
<line x1="412" y1="48" x2="402" y2="288" stroke="#edc4a8" stroke-width="0.8" stroke-linecap="round" class="meteor-path" style="--len:240;animation-delay:7.9s;animation-duration:2.6s"/>
<line x1="371" y1="5" x2="396" y2="167" stroke="#edc4a8" stroke-width="0.8" stroke-linecap="round" class="meteor-path" style="--len:164;animation-delay:8.4s;animation-duration:2.6s"/>
<line x1="456" y1="-11" x2="422" y2="242" stroke="#edc4a8" stroke-width="0.8" stroke-linecap="round" class="meteor-path" style="--len:255;animation-delay:0.8s;animation-duration:2.7s"/>
<line x1="779" y1="232" x2="588" y2="334" stroke="#edc4a8" stroke-width="0.8" stroke-linecap="round" class="meteor-path" style="--len:217;animation-delay:4.5s;animation-duration:2.3s"/>
<line x1="683" y1="185" x2="546" y2="295" stroke="#edc4a8" stroke-width="0.8" stroke-linecap="round" class="meteor-path" style="--len:175;animation-delay:11.7s;animation-duration:1.7s"/>
<line x1="764" y1="191" x2="514" y2="338" stroke="#edc4a8" stroke-width="0.8" stroke-linecap="round" class="meteor-path" style="--len:290;animation-delay:23.2s;animation-duration:2.4s"/>
<line x1="746" y1="260" x2="617" y2="335" stroke="#edc4a8" stroke-width="0.8" stroke-linecap="round" class="meteor-path" style="--len:150;animation-delay:0.6s;animation-duration:2.8s"/>
<line x1="719" y1="212" x2="556" y2="320" stroke="#edc4a8" stroke-width="0.8" stroke-linecap="round" class="meteor-path" style="--len:196;animation-delay:15.8s;animation-duration:3.2s"/>
<line x1="792" y1="448" x2="502" y2="417" stroke="#edc4a8" stroke-width="0.8" stroke-linecap="round" class="meteor-path" style="--len:291;animation-delay:20.0s;animation-duration:1.5s"/>
<line x1="761" y1="411" x2="557" y2="417" stroke="#edc4a8" stroke-width="0.8" stroke-linecap="round" class="meteor-path" style="--len:204;animation-delay:26.0s;animation-duration:3.3s"/>
<line x1="767" y1="388" x2="528" y2="404" stroke="#edc4a8" stroke-width="0.8" stroke-linecap="round" class="meteor-path" style="--len:240;animation-delay:11.4s;animation-duration:2.7s"/>
<line x1="797" y1="386" x2="543" y2="384" stroke="#edc4a8" stroke-width="0.8" stroke-linecap="round" class="meteor-path" style="--len:255;animation-delay:11.0s;animation-duration:1.7s"/>
<line x1="766" y1="445" x2="614" y2="406" stroke="#edc4a8" stroke-width="0.8" stroke-linecap="round" class="meteor-path" style="--len:158;animation-delay:1.8s;animation-duration:1.8s"/>
<line x1="765" y1="401" x2="577" y2="397" stroke="#edc4a8" stroke-width="0.8" stroke-linecap="round" class="meteor-path" style="--len:188;animation-delay:19.1s;animation-duration:2.3s"/>
<line x1="789" y1="368" x2="606" y2="390" stroke="#edc4a8" stroke-width="0.8" stroke-linecap="round" class="meteor-path" style="--len:185;animation-delay:6.9s;animation-duration:1.6s"/>
<line x1="760" y1="447" x2="588" y2="429" stroke="#edc4a8" stroke-width="0.8" stroke-linecap="round" class="meteor-path" style="--len:173;animation-delay:21.3s;animation-duration:2.2s"/>
<line x1="609" y1="702" x2="484" y2="518" stroke="#edc4a8" stroke-width="0.8" stroke-linecap="round" class="meteor-path" style="--len:223;animation-delay:15.3s;animation-duration:2.8s"/>
<line x1="644" y1="708" x2="517" y2="546" stroke="#edc4a8" stroke-width="0.8" stroke-linecap="round" class="meteor-path" style="--len:206;animation-delay:6.8s;animation-duration:3.3s"/>
<line x1="75" y1="536" x2="298" y2="440" stroke="#edc4a8" stroke-width="0.8" stroke-linecap="round" class="meteor-path" style="--len:243;animation-delay:22.8s;animation-duration:1.8s"/>
<line x1="69" y1="598" x2="206" y2="527" stroke="#edc4a8" stroke-width="0.8" stroke-linecap="round" class="meteor-path" style="--len:155;animation-delay:2.2s;animation-duration:2.4s"/>
<line x1="88" y1="646" x2="280" y2="508" stroke="#edc4a8" stroke-width="0.8" stroke-linecap="round" class="meteor-path" style="--len:237;animation-delay:25.3s;animation-duration:3.4s"/>
<line x1="118" y1="616" x2="294" y2="489" stroke="#edc4a8" stroke-width="0.8" stroke-linecap="round" class="meteor-path" style="--len:217;animation-delay:13.6s;animation-duration:2.9s"/>
<line x1="85" y1="607" x2="217" y2="524" stroke="#edc4a8" stroke-width="0.8" stroke-linecap="round" class="meteor-path" style="--len:155;animation-delay:20.2s;animation-duration:1.7s"/>
<line x1="85" y1="562" x2="190" y2="512" stroke="#edc4a8" stroke-width="0.8" stroke-linecap="round" class="meteor-path" style="--len:116;animation-delay:2.7s;animation-duration:2.7s"/>
<line x1="29" y1="579" x2="300" y2="441" stroke="#edc4a8" stroke-width="0.8" stroke-linecap="round" class="meteor-path" style="--len:304;animation-delay:13.6s;animation-duration:3.5s"/>
<line x1="58" y1="223" x2="277" y2="338" stroke="#edc4a8" stroke-width="0.8" stroke-linecap="round" class="meteor-path" style="--len:247;animation-delay:1.0s;animation-duration:3.3s"/>
<line x1="50" y1="252" x2="297" y2="349" stroke="#edc4a8" stroke-width="0.8" stroke-linecap="round" class="meteor-path" style="--len:266;animation-delay:13.3s;animation-duration:2.1s"/>
<line x1="120" y1="181" x2="292" y2="330" stroke="#edc4a8" stroke-width="0.8" stroke-linecap="round" class="meteor-path" style="--len:228;animation-delay:6.1s;animation-duration:2.7s"/>
<line x1="88" y1="154" x2="219" y2="266" stroke="#edc4a8" stroke-width="0.8" stroke-linecap="round" class="meteor-path" style="--len:172;animation-delay:2.2s;animation-duration:2.2s"/>
</g>
<g filter="url(#bloom)">
<path d="M569.7,302.0 L574.9,400.0 L567.2,496.5" fill="none" stroke="#006b38" stroke-width="3" stroke-linecap="round" opacity="0.08" class="aurora" style="--op:0.08;animation-delay:2.9s"/>
<path d="M227.0,499.9 L219.6,400.0 L238.4,306.7" fill="none" stroke="#006973" stroke-width="3" stroke-linecap="round" opacity="0.08" class="aurora" style="--op:0.08;animation-delay:0.8s"/>
</g>
<g filter="url(#bloom)" opacity="0.4">
<path d="M549.0,368.1 Q551.3,367.6 553.6,367.1 Q555.9,366.6 558.3,366.1 Q560.7,365.7 563.1,365.2 Q565.5,364.7 568.0,364.2 Q570.5,363.7 573.1,363.2 Q575.7,362.6 578.3,362.0 Q581.0,361.4 583.6,360.8 Q586.4,360.0 589.1,359.3 Q591.9,358.5 594.6,357.7 Q597.4,356.9 600.2,356.1 Q603.1,355.2 605.9,354.4 Q608.7,353.5 611.6,352.6 Q614.4,351.7 617.3,350.8 Q620.2,349.8 623.1,348.9" fill="none" stroke="#00473c" stroke-width="0.5" stroke-linecap="round" class="photon" style="--len:80;--op:0.12;--dur:4s;animation-delay:0.0s"/>
<path d="M302.9,518.1 Q301.1,520.3 299.2,522.5 Q297.4,524.7 295.6,526.9 Q293.9,529.1 292.1,531.3 Q290.4,533.6 288.6,535.9 Q286.9,538.1 285.1,540.4 Q283.4,542.7 281.7,544.9 Q279.9,547.2 278.2,549.5 Q276.5,551.7 274.7,554.0 Q273.0,556.2 271.3,558.4 Q269.7,560.6 268.0,562.9 Q266.4,565.1 264.8,567.3 Q263.2,569.5 261.7,571.8 Q260.2,574.0 258.8,576.2 Q257.4,578.5 256.0,580.7" fill="none" stroke="#00464a" stroke-width="0.5" stroke-linecap="round" class="photon" style="--len:81;--op:0.12;--dur:4s;animation-delay:2.0s"/>
<path d="M434.2,251.7 Q434.7,249.6 435.2,247.4 Q435.7,245.3 436.3,243.2 Q436.8,241.0 437.3,238.8 Q437.8,236.7 438.3,234.5 Q438.8,232.3 439.3,230.1 Q439.7,227.9 440.2,225.7 Q440.7,223.4 441.1,221.2 Q441.5,219.0 442.0,216.7 Q442.4,214.4 442.7,212.2 Q443.1,209.9 443.5,207.6 Q443.8,205.3 444.1,202.9 Q444.5,200.6 444.8,198.3 Q445.1,195.9 445.3,193.5 Q445.6,191.2 445.9,188.8" fill="none" stroke="#004357" stroke-width="0.5" stroke-linecap="round" class="photon" style="--len:66;--op:0.12;--dur:4s;animation-delay:4.0s"/>
<path d="M474.4,533.2 Q475.4,535.6 476.3,538.0 Q477.2,540.5 478.1,542.9 Q478.9,545.4 479.8,547.9 Q480.6,550.4 481.4,552.9 Q482.2,555.4 482.9,558.0 Q483.7,560.5 484.4,563.0 Q485.2,565.6 485.9,568.1 Q486.6,570.6 487.3,573.2 Q487.9,575.7 488.6,578.2 Q489.3,580.6 489.9,583.1 Q490.6,585.5 491.3,587.9 Q492.0,590.3 492.7,592.6 Q493.4,595.0 494.1,597.3 Q494.8,599.6 495.5,601.9" fill="none" stroke="#003e5f" stroke-width="0.5" stroke-linecap="round" class="photon" style="--len:74;--op:0.12;--dur:4s;animation-delay:6.0s"/>
<path d="M248.1,414.9 Q245.4,415.0 242.8,415.2 Q240.2,415.5 237.6,415.7 Q234.9,415.9 232.4,416.2 Q229.8,416.4 227.2,416.6 Q224.6,416.8 222.0,417.0 Q219.5,417.2 216.9,417.3 Q214.3,417.4 211.7,417.5 Q209.1,417.6 206.5,417.6 Q203.9,417.6 201.3,417.6 Q198.7,417.6 196.1,417.5 Q193.5,417.5 190.9,417.4 Q188.3,417.3 185.7,417.2 Q183.2,417.1 180.6,416.9 Q178.1,416.8 175.6,416.6" fill="none" stroke="#203963" stroke-width="0.5" stroke-linecap="round" class="photon" style="--len:75;--op:0.12;--dur:4s;animation-delay:8.0s"/>
<path d="M526.8,315.5 Q529.1,314.6 531.4,313.7 Q533.7,312.8 535.9,311.9 Q538.2,311.0 540.5,310.1 Q542.8,309.2 545.1,308.3 Q547.4,307.4 549.7,306.5 Q552.0,305.5 554.3,304.5 Q556.6,303.5 558.8,302.5 Q561.1,301.4 563.4,300.3 Q565.7,299.2 568.0,298.1 Q570.3,296.9 572.6,295.7 Q574.9,294.5 577.2,293.3 Q579.5,292.0 581.8,290.8 Q584.1,289.5 586.4,288.2 Q588.6,286.9 590.8,285.5" fill="none" stroke="#323463" stroke-width="0.5" stroke-linecap="round" class="photon" style="--len:73;--op:0.12;--dur:4s;animation-delay:10.0s"/>
</g>
<rect width="800" height="800" fill="url(#vig)"/>
</svg>
