<svg xmlns="http://www.w3.org/2000/svg" viewBox="0 0 800 800" width="800" height="800">
<defs>
  <filter id="bloom" x="-50%" y="-50%" width="200%" height="200%">
    <feGaussianBlur in="SourceGraphic" stdDeviation="2" result="b1"/>
    <feGaussianBlur in="SourceGraphic" stdDeviation="6" result="b2"/>
    <feGaussianBlur in="SourceGraphic" stdDeviation="14" result="b3"/>
    <feColorMatrix in="b3" type="matrix" result="bright"
      values="1.6 0 0 0 0.1  0 1.6 0 0 0.1  0 0 1.6 0 0.1  0 0 0 0.5 0"/>
    <feMerge>
      <feMergeNode in="bright"/><feMergeNode in="b2"/>
      <feMergeNode in="b1"/><feMergeNode in="SourceGraphic"/>
    </feMerge>
  </filter>
  <radialGradient id="bg" cx="50%" cy="50%" r="60%">
    <stop offset="0%" stop-color="#060612"/>
    <stop offset="100%" stop-color="#020208"/>
  </radialGradient>
  <radialGradient id="vig" cx="50%" cy="50%" r="55%">
    <stop offset="40%" stop-color="black" stop-opacity="0"/>
    <stop offset="100%" stop-color="black" stop-opacity="0.6"/>
  </radialGradient>
</defs>
<rect width="800" height="800" fill="url(#bg)"/>
<g filter="url(#bloom)">
<path d="M648.2,327.3 Q649.2,332.2 650.0,337.3 Q650.3,342.4 650.2,347.6 Q649.5,352.8 648.4,358.0 Q646.9,363.3 645.1,368.7 Q643.2,374.2 641.1,379.7 Q639.0,385.2 636.8,390.7 Q634.6,396.2 632.3,401.6 Q629.9,406.9 627.4,412.0 Q624.9,416.6 622.3,420.8 Q619.8,424.6 617.4,427.8 Q615.0,430.7 612.5,433.4 Q610.0,435.8 607.4,438.1 Q604.6,440.4 601.7,442.6 Q598.7,444.6 595.6,446.6 Q592.5,448.4 589.3,450.2 Q585.9,452.1 582.2,454.0 Q578.3,456.2 574.1,458.7 Q569.7,461.5 565.4,464.6 Q561.1,468.0 557.2,471.7 Q553.7,475.7 550.7,480.0 Q548.1,484.5 546.1,489.4 Q544.4,494.5 543.1,499.9 Q542.2,505.4 541.5,511.1 Q541.0,516.8 540.7,522.2 Q540.5,527.3 540.3,531.8 Q540.1,536.0 539.8,540.0 Q539.4,544.0 539.0,547.9 Q538.5,551.7 537.9,555.3 Q537.1,558.9 536.1,562.5 Q534.7,566.4 532.8,570.8 Q530.4,575.4 527.6,580.2 Q524.5,584.9 521.0,589.4 Q517.3,593.7 513.4,597.9 Q509.2,601.9 504.9,605.8 Q500.4,609.6 495.8,613.2 Q491.1,616.5 486.3,619.7 Q481.6,622.6 476.9,625.4 Q472.1,628.1 467.3,630.6 Q462.4,632.9 457.4,634.8 Q452.3,636.3 447.1,637.4 Q441.7,638.0 436.2,638.3 Q430.6,638.2 425.0,637.8 Q419.4,637.0 413.7,636.0 Q408.1,634.7 402.6,633.3 Q397.1,631.6 391.8,629.9 Q386.5,627.9 381.5,625.9 Q376.5,623.8 371.7,621.7 Q367.1,619.7 362.6,617.9 Q358.2,616.4 353.9,615.3 Q349.7,614.4 345.5,613.9 Q341.3,613.6 337.0,613.4 Q332.6,613.4 328.1,613.4 Q323.5,613.4 318.7,613.4 Q313.7,613.4 308.5,613.3 Q303.2,613.3 297.7,613.2 Q292.2,613.1 286.5,613.2 Q280.8,613.3 275.2,613.3 Q269.5,613.4 264.0,613.3 Q258.6,613.1 253.3,612.8 Q248.2,612.3 243.2,611.6 Q238.3,610.6 233.5,609.4 Q228.8,607.8 224.1,605.9 Q219.4,603.9 214.8,601.8 Q210.1,599.6 205.5,597.4 Q200.8,595.1 196.2,592.8 Q191.6,590.4 187.1,587.9 Q182.6,585.3 178.0,582.5 Q173.5,579.6 168.9,576.5 Q164.4,573.3 159.9,570.0 Q155.4,566.6 151.0,563.2 Q146.8,559.6 142.7,555.9 Q138.8,552.0 135.3,547.8 Q132.1,543.5 129.3,539.0 Q126.8,534.3 124.8,529.4 Q123.2,524.2 121.9,518.9 Q121.2,513.5 120.8,508.0 Q120.9,502.6 121.4,497.2 Q122.1,491.8 123.0,486.7 Q124.0,481.7 125.2,476.9 Q126.4,472.3 127.7,467.9 Q129.2,463.7 130.7,459.6 Q132.3,455.7 133.9,451.9 Q135.7,448.2 137.4,444.6 Q139.3,441.0 141.1,437.5 Q142.9,433.9 144.6,430.4 Q146.3,426.7 147.9,423.0 Q149.4,419.2 151.0,415.3 Q152.5,411.2 154.1,407.0 Q155.6,402.6 157.0,398.2 Q158.4,393.6 159.8,389.0 Q161.3,384.3 162.8,379.6 Q164.6,374.8 166.5,370.1 Q168.6,365.4 171.0,360.8 Q173.7,356.4 176.8,352.0 Q180.2,347.7 184.0,343.6 Q188.0,339.6 192.3,335.8 Q196.8,332.1 201.4,328.5 Q206.1,325.0 210.8,321.6 Q215.6,318.4 220.2,315.3 Q224.8,312.4 229.1,309.7 Q233.3,307.2 237.3,304.8 Q241.3,302.3 245.4,299.8 Q249.6,297.2 254.0,294.5 Q258.6,291.8 263.3,289.0 Q268.0,286.3 272.8,283.5 Q277.6,280.8 282.3,278.1 Q286.8,275.5 291.3,273.1 Q295.6,270.8 299.8,268.5 Q303.8,266.2 307.7,263.8 Q311.5,261.1 315.1,258.1 Q318.5,254.7 321.7,250.9 Q324.7,246.6 327.6,242.0 Q330.4,237.2 333.2,232.2 Q336.0,227.2 338.9,222.3 Q341.9,217.6 345.2,213.3 Q348.7,209.3 352.6,205.7 Q356.7,202.6 361.1,199.7 Q365.8,197.2 370.6,195.0 Q375.7,193.1 380.9,191.4 Q386.3,189.9 391.6,188.6 Q397.1,187.6 402.5,186.8 Q407.9,186.3 413.3,186.1 Q418.7,185.9 424.1,185.9 Q429.5,185.9 434.9,186.0 Q440.5,186.0 446.0,186.0 Q451.7,185.9 457.3,185.7 Q462.9,185.5 468.3,185.2 Q473.5,184.8 478.4,184.5 Q482.9,184.1 487.1,183.8 Q491.0,183.4 494.6,183.2 Q498.1,183.1 501.5,183.2 Q505.0,183.3 508.6,183.7 Q512.2,184.3 516.0,185.1 Q519.9,186.1 523.8,187.3 Q527.7,188.7 531.6,190.4 Q535.4,192.3 539.1,194.5 Q542.8,197.2 546.4,200.2 Q550.0,203.6 553.4,207.4 Q556.7,211.6 559.8,216.0 Q563.0,220.6 566.1,225.4 Q569.2,230.2 572.5,235.1 Q576.0,240.0 579.6,244.7 Q583.4,249.2 587.3,253.6 Q591.3,257.8 595.4,261.7 Q599.5,265.5 603.5,269.1 Q607.5,272.5 611.4,275.8 Q615.2,278.9 618.9,282.0 Q622.4,285.0 625.7,288.0 Q628.9,291.1 631.9,294.4 Q634.7,297.8 637.2,301.4 Q639.6,305.2 641.7,309.3 Q643.7,313.5 645.4,317.9 Z" fill="none" stroke="#00062b" stroke-width="1.20" opacity="0.400" stroke-linecap="round" stroke-linejoin="round"/>
<path d="M648.2,327.3 Q649.2,332.2 650.0,337.3 Q650.3,342.4 650.2,347.6 Q649.5,352.8 648.4,358.0 Q646.9,363.3 645.1,368.7 Q643.2,374.2 641.1,379.7 Q639.0,385.2 636.8,390.7 Q634.6,396.2 632.3,401.6 Q629.9,406.9 627.4,412.0 Q624.9,416.6 622.3,420.8 Q619.8,424.6 617.4,427.8 Q615.0,430.7 612.5,433.4 Q610.0,435.8 607.4,438.1 Q604.6,440.4 601.7,442.6 Q598.7,444.6 595.6,446.6 Q592.5,448.4 589.3,450.2 Q585.9,452.1 582.2,454.0 Q578.3,456.2 574.1,458.7 Q569.7,461.5 565.4,464.6 Q561.1,468.0 557.2,471.7 Q553.7,475.7 550.7,480.0 Q548.1,484.5 546.1,489.4 Q544.4,494.5 543.1,499.9 Q542.2,505.4 541.5,511.1 Q541.0,516.8 540.7,522.2 Q540.5,527.3 540.3,531.8 Q540.1,536.0 539.8,540.0 Q539.4,544.0 539.0,547.9 Q538.5,551.7 537.9,555.3 Q537.1,558.9 536.1,562.5 Q534.7,566.4 532.8,570.8 Q530.4,575.4 527.6,580.2 Q524.5,584.9 521.0,589.4 Q517.3,593.7 513.4,597.9 Q509.2,601.9 504.9,605.8 Q500.4,609.6 495.8,613.2 Q491.1,616.5 486.3,619.7 Q481.6,622.6 476.9,625.4 Q472.1,628.1 467.3,630.6 Q462.4,632.9 457.4,634.8 Q452.3,636.3 447.1,637.4 Q441.7,638.0 436.2,638.3 Q430.6,638.2 425.0,637.8 Q419.4,637.0 413.7,636.0 Q408.1,634.7 402.6,633.3 Q397.1,631.6 391.8,629.9 Q386.5,627.9 381.5,625.9 Q376.5,623.8 371.7,621.7 Q367.1,619.7 362.6,617.9 Q358.2,616.4 353.9,615.3 Q349.7,614.4 345.5,613.9 Q341.3,613.6 337.0,613.4 Q332.6,613.4 328.1,613.4 Q323.5,613.4 318.7,613.4 Q313.7,613.4 308.5,613.3 Q303.2,613.3 297.7,613.2 Q292.2,613.1 286.5,613.2 Q280.8,613.3 275.2,613.3 Q269.5,613.4 264.0,613.3 Q258.6,613.1 253.3,612.8 Q248.2,612.3 243.2,611.6 Q238.3,610.6 233.5,609.4 Q228.8,607.8 224.1,605.9 Q219.4,603.9 214.8,601.8 Q210.1,599.6 205.5,597.4 Q200.8,595.1 196.2,592.8 Q191.6,590.4 187.1,587.9 Q182.6,585.3 178.0,582.5 Q173.5,579.6 168.9,576.5 Q164.4,573.3 159.9,570.0 Q155.4,566.6 151.0,563.2 Q146.8,559.6 142.7,555.9 Q138.8,552.0 135.3,547.8 Q132.1,543.5 129.3,539.0 Q126.8,534.3 124.8,529.4 Q123.2,524.2 121.9,518.9 Q121.2,513.5 120.8,508.0 Q120.9,502.6 121.4,497.2 Q122.1,491.8 123.0,486.7 Q124.0,481.7 125.2,476.9 Q126.4,472.3 127.7,467.9 Q129.2,463.7 130.7,459.6 Q132.3,455.7 133.9,451.9 Q135.7,448.2 137.4,444.6 Q139.3,441.0 141.1,437.5 Q142.9,433.9 144.6,430.4 Q146.3,426.7 147.9,423.0 Q149.4,419.2 151.0,415.3 Q152.5,411.2 154.1,407.0 Q155.6,402.6 157.0,398.2 Q158.4,393.6 159.8,389.0 Q161.3,384.3 162.8,379.6 Q164.6,374.8 166.5,370.1 Q168.6,365.4 171.0,360.8 Q173.7,356.4 176.8,352.0 Q180.2,347.7 184.0,343.6 Q188.0,339.6 192.3,335.8 Q196.8,332.1 201.4,328.5 Q206.1,325.0 210.8,321.6 Q215.6,318.4 220.2,315.3 Q224.8,312.4 229.1,309.7 Q233.3,307.2 237.3,304.8 Q241.3,302.3 245.4,299.8 Q249.6,297.2 254.0,294.5 Q258.6,291.8 263.3,289.0 Q268.0,286.3 272.8,283.5 Q277.6,280.8 282.3,278.1 Q286.8,275.5 291.3,273.1 Q295.6,270.8 299.8,268.5 Q303.8,266.2 307.7,263.8 Q311.5,261.1 315.1,258.1 Q318.5,254.7 321.7,250.9 Q324.7,246.6 327.6,242.0 Q330.4,237.2 333.2,232.2 Q336.0,227.2 338.9,222.3 Q341.9,217.6 345.2,213.3 Q348.7,209.3 352.6,205.7 Q356.7,202.6 361.1,199.7 Q365.8,197.2 370.6,195.0 Q375.7,193.1 380.9,191.4 Q386.3,189.9 391.6,188.6 Q397.1,187.6 402.5,186.8 Q407.9,186.3 413.3,186.1 Q418.7,185.9 424.1,185.9 Q429.5,185.9 434.9,186.0 Q440.5,186.0 446.0,186.0 Q451.7,185.9 457.3,185.7 Q462.9,185.5 468.3,185.2 Q473.5,184.8 478.4,184.5 Q482.9,184.1 487.1,183.8 Q491.0,183.4 494.6,183.2 Q498.1,183.1 501.5,183.2 Q505.0,183.3 508.6,183.7 Q512.2,184.3 516.0,185.1 Q519.9,186.1 523.8,187.3 Q527.7,188.7 531.6,190.4 Q535.4,192.3 539.1,194.5 Q542.8,197.2 546.4,200.2 Q550.0,203.6 553.4,207.4 Q556.7,211.6 559.8,216.0 Q563.0,220.6 566.1,225.4 Q569.2,230.2 572.5,235.1 Q576.0,240.0 579.6,244.7 Q583.4,249.2 587.3,253.6 Q591.3,257.8 595.4,261.7 Q599.5,265.5 603.5,269.1 Q607.5,272.5 611.4,275.8 Q615.2,278.9 618.9,282.0 Q622.4,285.0 625.7,288.0 Q628.9,291.1 631.9,294.4 Q634.7,297.8 637.2,301.4 Q639.6,305.2 641.7,309.3 Q643.7,313.5 645.4,317.9 Z" fill="#00062b" fill-opacity="0.060" stroke="none"/>
<path d="M652.6,399.4 Q653.7,402.8 654.7,406.1 Q655.6,409.3 656.3,412.7 Q656.9,416.3 657.4,420.4 Q657.7,424.8 657.9,429.7 Q657.9,434.8 657.8,439.9 Q657.6,445.0 657.2,449.9 Q656.8,454.7 656.3,459.2 Q655.8,463.6 655.1,467.8 Q654.3,471.9 653.2,475.8 Q651.9,479.6 650.2,483.4 Q648.3,487.1 646.1,490.8 Q643.6,494.5 640.8,498.4 Q637.7,502.4 634.4,506.5 Q630.8,510.7 627.0,515.1 Q623.2,519.5 619.4,524.0 Q615.7,528.4 612.3,532.8 Q609.1,536.9 606.1,540.9 Q603.3,544.5 600.8,547.9 Q598.4,551.1 596.3,554.1 Q594.2,556.9 592.1,559.8 Q589.9,562.7 587.5,565.8 Q584.9,569.0 581.9,572.3 Q578.7,575.9 575.0,579.4 Q571.1,582.9 566.8,586.3 Q562.3,589.5 557.5,592.4 Q552.4,595.1 547.2,597.5 Q541.7,599.7 536.2,601.6 Q530.6,603.4 524.9,604.8 Q519.2,606.1 513.6,607.2 Q508.0,608.4 502.5,609.7 Q497.1,611.1 491.8,612.6 Q486.6,614.2 481.6,615.9 Q476.7,617.8 471.8,619.7 Q467.0,621.8 462.3,623.9 Q457.5,626.0 452.7,628.0 Q447.9,629.8 443.0,631.4 Q438.1,632.9 433.2,634.2 Q428.3,635.5 423.3,636.8 Q418.3,638.0 413.2,639.4 Q408.1,640.7 402.9,642.0 Q397.7,643.3 392.3,644.5 Q386.8,645.7 381.3,646.7 Q375.6,647.7 370.0,648.5 Q364.3,649.3 358.6,649.9 Q353.0,650.3 347.4,650.4 Q342.0,650.2 336.7,649.5 Q331.6,648.4 326.7,646.7 Q321.9,644.6 317.3,642.1 Q312.9,639.3 308.6,636.4 Q304.5,633.3 300.4,630.1 Q296.4,627.0 292.5,623.9 Q288.6,621.0 284.7,618.3 Q280.9,615.6 277.1,613.0 Q273.3,610.3 269.5,607.5 Q265.8,604.7 262.2,601.6 Q258.7,598.4 255.4,595.1 Q252.2,591.4 249.3,587.6 Q246.6,583.5 244.1,579.1 Q241.7,574.5 239.3,569.7 Q237.0,564.7 234.5,559.7 Q232.0,554.6 229.3,549.6 Q226.5,544.7 223.6,539.9 Q220.4,535.2 217.0,530.6 Q213.3,526.0 209.5,521.6 Q205.6,517.1 201.8,512.7 Q198.0,508.2 194.4,503.7 Q191.0,499.2 187.8,494.6 Q184.6,490.0 181.6,485.3 Q178.8,480.5 176.1,475.6 Q173.7,470.7 171.5,465.6 Q169.6,460.4 167.7,455.2 Q165.9,449.9 164.1,444.5 Q162.2,439.2 160.1,433.9 Q157.8,428.8 155.1,423.7 Q152.3,418.9 149.2,414.2 Q146.0,409.8 142.7,405.6 Q139.3,401.6 136.0,397.9 Q132.8,394.5 129.8,391.6 Q127.1,389.1 124.5,386.7 Q121.7,384.4 118.8,381.9 Q115.6,379.0 112.1,375.6 Q108.5,371.8 104.8,367.6 Q101.3,363.1 98.3,358.5 Q95.9,353.6 94.3,348.7 Q93.4,343.7 93.3,338.7 Q93.8,333.7 94.8,328.8 Q96.2,323.9 98.1,319.0 Q100.2,314.3 102.5,309.7 Q105.0,305.2 107.5,300.7 Q110.2,296.3 112.8,292.0 Q115.6,287.7 118.3,283.5 Q121.1,279.3 123.9,275.2 Q126.7,271.2 129.5,267.2 Q132.3,263.2 135.3,259.3 Q138.4,255.5 141.6,251.7 Q145.0,247.9 148.5,244.1 Q152.0,240.3 155.6,236.6 Q159.2,233.0 162.8,229.5 Q166.5,226.1 170.3,222.8 Q174.1,219.6 178.1,216.6 Q182.2,213.6 186.3,210.8 Q190.5,208.2 194.8,205.8 Q199.0,203.6 203.2,201.6 Q207.4,199.7 211.5,197.9 Q215.6,196.0 219.8,194.1 Q223.9,192.1 228.2,189.9 Q232.5,187.5 236.9,185.0 Q241.4,182.4 246.1,179.8 Q250.8,177.1 255.6,174.5 Q260.6,172.0 265.6,169.8 Q270.8,167.9 276.0,166.3 Q281.3,165.1 286.6,164.1 Q292.0,163.4 297.4,162.9 Q302.9,162.5 308.4,162.2 Q313.9,161.9 319.4,161.6 Q325.0,161.2 330.6,160.7 Q336.2,160.1 341.9,159.5 Q347.6,158.8 353.3,158.4 Q359.0,158.2 364.8,158.3 Q370.5,158.7 376.3,159.3 Q382.0,160.1 387.7,161.0 Q393.4,162.1 399.1,163.2 Q404.7,164.4 410.3,165.7 Q415.8,167.0 421.3,168.5 Q426.6,170.0 431.8,171.6 Q437.0,173.2 442.0,174.7 Q447.0,176.3 452.0,177.9 Q456.9,179.5 461.7,181.2 Q466.5,182.9 471.2,184.7 Q475.7,186.7 480.2,188.9 Q484.5,191.4 488.6,194.3 Q492.4,197.5 496.1,201.0 Q499.5,204.8 502.6,208.9 Q505.6,213.2 508.4,217.8 Q511.1,222.5 513.6,227.4 Q515.9,232.4 518.1,237.4 Q520.2,242.5 522.3,247.6 Q524.3,252.7 526.3,257.8 Q528.3,262.8 530.4,267.9 Q532.7,272.8 535.1,277.6 Q537.6,282.3 540.2,286.7 Q543.0,291.0 545.9,295.1 Q548.9,298.9 551.9,302.6 Q555.1,306.1 558.5,309.5 Q562.0,312.6 565.8,315.6 Q569.8,318.4 574.0,321.2 Q578.5,323.8 583.3,326.6 Q588.2,329.4 593.2,332.4 Q597.7,335.3 600.6,337.3 Q603.8,339.2 608.3,342.2 Q613.0,345.6 617.3,348.9 Q621.3,352.1 624.9,355.3 Q628.2,358.6 631.3,362.1 Q634.3,365.7 637.1,369.5 Q639.9,373.5 642.4,377.5 Q644.7,381.4 646.7,385.2 Q648.4,388.9 650.0,392.5 Z" fill="none" stroke="#003e48" stroke-width="1.04" opacity="0.350" stroke-linecap="round" stroke-linejoin="round"/>
<path d="M652.6,399.4 Q653.7,402.8 654.7,406.1 Q655.6,409.3 656.3,412.7 Q656.9,416.3 657.4,420.4 Q657.7,424.8 657.9,429.7 Q657.9,434.8 657.8,439.9 Q657.6,445.0 657.2,449.9 Q656.8,454.7 656.3,459.2 Q655.8,463.6 655.1,467.8 Q654.3,471.9 653.2,475.8 Q651.9,479.6 650.2,483.4 Q648.3,487.1 646.1,490.8 Q643.6,494.5 640.8,498.4 Q637.7,502.4 634.4,506.5 Q630.8,510.7 627.0,515.1 Q623.2,519.5 619.4,524.0 Q615.7,528.4 612.3,532.8 Q609.1,536.9 606.1,540.9 Q603.3,544.5 600.8,547.9 Q598.4,551.1 596.3,554.1 Q594.2,556.9 592.1,559.8 Q589.9,562.7 587.5,565.8 Q584.9,569.0 581.9,572.3 Q578.7,575.9 575.0,579.4 Q571.1,582.9 566.8,586.3 Q562.3,589.5 557.5,592.4 Q552.4,595.1 547.2,597.5 Q541.7,599.7 536.2,601.6 Q530.6,603.4 524.9,604.8 Q519.2,606.1 513.6,607.2 Q508.0,608.4 502.5,609.7 Q497.1,611.1 491.8,612.6 Q486.6,614.2 481.6,615.9 Q476.7,617.8 471.8,619.7 Q467.0,621.8 462.3,623.9 Q457.5,626.0 452.7,628.0 Q447.9,629.8 443.0,631.4 Q438.1,632.9 433.2,634.2 Q428.3,635.5 423.3,636.8 Q418.3,638.0 413.2,639.4 Q408.1,640.7 402.9,642.0 Q397.7,643.3 392.3,644.5 Q386.8,645.7 381.3,646.7 Q375.6,647.7 370.0,648.5 Q364.3,649.3 358.6,649.9 Q353.0,650.3 347.4,650.4 Q342.0,650.2 336.7,649.5 Q331.6,648.4 326.7,646.7 Q321.9,644.6 317.3,642.1 Q312.9,639.3 308.6,636.4 Q304.5,633.3 300.4,630.1 Q296.4,627.0 292.5,623.9 Q288.6,621.0 284.7,618.3 Q280.9,615.6 277.1,613.0 Q273.3,610.3 269.5,607.5 Q265.8,604.7 262.2,601.6 Q258.7,598.4 255.4,595.1 Q252.2,591.4 249.3,587.6 Q246.6,583.5 244.1,579.1 Q241.7,574.5 239.3,569.7 Q237.0,564.7 234.5,559.7 Q232.0,554.6 229.3,549.6 Q226.5,544.7 223.6,539.9 Q220.4,535.2 217.0,530.6 Q213.3,526.0 209.5,521.6 Q205.6,517.1 201.8,512.7 Q198.0,508.2 194.4,503.7 Q191.0,499.2 187.8,494.6 Q184.6,490.0 181.6,485.3 Q178.8,480.5 176.1,475.6 Q173.7,470.7 171.5,465.6 Q169.6,460.4 167.7,455.2 Q165.9,449.9 164.1,444.5 Q162.2,439.2 160.1,433.9 Q157.8,428.8 155.1,423.7 Q152.3,418.9 149.2,414.2 Q146.0,409.8 142.7,405.6 Q139.3,401.6 136.0,397.9 Q132.8,394.5 129.8,391.6 Q127.1,389.1 124.5,386.7 Q121.7,384.4 118.8,381.9 Q115.6,379.0 112.1,375.6 Q108.5,371.8 104.8,367.6 Q101.3,363.1 98.3,358.5 Q95.9,353.6 94.3,348.7 Q93.4,343.7 93.3,338.7 Q93.8,333.7 94.8,328.8 Q96.2,323.9 98.1,319.0 Q100.2,314.3 102.5,309.7 Q105.0,305.2 107.5,300.7 Q110.2,296.3 112.8,292.0 Q115.6,287.7 118.3,283.5 Q121.1,279.3 123.9,275.2 Q126.7,271.2 129.5,267.2 Q132.3,263.2 135.3,259.3 Q138.4,255.5 141.6,251.7 Q145.0,247.9 148.5,244.1 Q152.0,240.3 155.6,236.6 Q159.2,233.0 162.8,229.5 Q166.5,226.1 170.3,222.8 Q174.1,219.6 178.1,216.6 Q182.2,213.6 186.3,210.8 Q190.5,208.2 194.8,205.8 Q199.0,203.6 203.2,201.6 Q207.4,199.7 211.5,197.9 Q215.6,196.0 219.8,194.1 Q223.9,192.1 228.2,189.9 Q232.5,187.5 236.9,185.0 Q241.4,182.4 246.1,179.8 Q250.8,177.1 255.6,174.5 Q260.6,172.0 265.6,169.8 Q270.8,167.9 276.0,166.3 Q281.3,165.1 286.6,164.1 Q292.0,163.4 297.4,162.9 Q302.9,162.5 308.4,162.2 Q313.9,161.9 319.4,161.6 Q325.0,161.2 330.6,160.7 Q336.2,160.1 341.9,159.5 Q347.6,158.8 353.3,158.4 Q359.0,158.2 364.8,158.3 Q370.5,158.7 376.3,159.3 Q382.0,160.1 387.7,161.0 Q393.4,162.1 399.1,163.2 Q404.7,164.4 410.3,165.7 Q415.8,167.0 421.3,168.5 Q426.6,170.0 431.8,171.6 Q437.0,173.2 442.0,174.7 Q447.0,176.3 452.0,177.9 Q456.9,179.5 461.7,181.2 Q466.5,182.9 471.2,184.7 Q475.7,186.7 480.2,188.9 Q484.5,191.4 488.6,194.3 Q492.4,197.5 496.1,201.0 Q499.5,204.8 502.6,208.9 Q505.6,213.2 508.4,217.8 Q511.1,222.5 513.6,227.4 Q515.9,232.4 518.1,237.4 Q520.2,242.5 522.3,247.6 Q524.3,252.7 526.3,257.8 Q528.3,262.8 530.4,267.9 Q532.7,272.8 535.1,277.6 Q537.6,282.3 540.2,286.7 Q543.0,291.0 545.9,295.1 Q548.9,298.9 551.9,302.6 Q555.1,306.1 558.5,309.5 Q562.0,312.6 565.8,315.6 Q569.8,318.4 574.0,321.2 Q578.5,323.8 583.3,326.6 Q588.2,329.4 593.2,332.4 Q597.7,335.3 600.6,337.3 Q603.8,339.2 608.3,342.2 Q613.0,345.6 617.3,348.9 Q621.3,352.1 624.9,355.3 Q628.2,358.6 631.3,362.1 Q634.3,365.7 637.1,369.5 Q639.9,373.5 642.4,377.5 Q644.7,381.4 646.7,385.2 Q648.4,388.9 650.0,392.5 Z" fill="#002b48" fill-opacity="0.052" stroke="none"/>
<path d="M675.3,404.7 Q676.7,408.3 677.9,412.0 Q679.0,415.6 680.0,419.3 Q680.8,422.9 681.3,426.4 Q681.6,429.9 681.7,433.5 Q681.5,437.2 681.2,441.1 Q680.7,445.2 680.1,449.6 Q679.4,454.2 678.6,459.1 Q677.8,464.3 676.8,469.6 Q675.7,475.1 674.3,480.6 Q672.8,486.2 671.0,491.7 Q669.0,497.2 666.8,502.5 Q664.3,507.7 661.7,512.6 Q658.8,517.5 655.8,522.1 Q652.7,526.7 649.5,531.2 Q646.3,535.6 643.0,540.0 Q639.8,544.4 636.7,548.8 Q633.9,553.0 631.4,556.9 Q629.3,560.4 627.4,563.7 Q625.6,566.9 623.7,570.3 Q621.8,573.9 619.7,577.7 Q617.5,581.4 615.4,585.1 Q613.1,588.7 610.7,592.5 Q608.0,596.5 605.0,600.7 Q601.7,605.0 598.3,609.3 Q594.7,613.6 591.1,617.7 Q587.3,621.6 583.3,625.2 Q579.2,628.5 574.7,631.4 Q570.0,633.8 565.1,635.6 Q560.0,637.0 554.7,637.9 Q549.2,638.4 543.7,638.6 Q538.0,638.5 532.4,638.1 Q526.7,637.5 521.0,636.7 Q515.3,636.0 509.6,635.3 Q504.0,634.8 498.3,634.5 Q492.6,634.3 486.9,634.3 Q481.3,634.3 475.7,634.4 Q470.2,634.7 464.8,635.3 Q459.5,636.2 454.4,637.6 Q449.4,639.4 444.6,641.6 Q439.8,644.2 435.2,647.1 Q430.6,650.3 426.0,653.7 Q421.4,657.3 416.8,661.0 Q412.2,664.7 407.4,668.2 Q402.5,671.6 397.6,674.8 Q392.7,677.8 387.8,680.6 Q382.8,683.1 377.8,685.5 Q372.7,687.7 367.6,689.7 Q362.5,691.5 357.4,693.3 Q352.2,694.9 347.0,696.4 Q341.8,697.9 336.8,699.3 Q331.8,700.7 327.1,701.9 Q322.7,702.9 318.4,703.7 Q314.5,704.4 310.6,704.8 Q306.7,705.1 302.6,705.4 Q298.3,705.5 293.8,705.6 Q288.9,705.7 283.9,705.6 Q278.8,705.3 273.6,704.5 Q268.6,703.4 263.8,701.6 Q259.3,699.4 255.2,696.7 Q251.4,693.6 248.0,690.0 Q245.0,686.1 242.4,681.7 Q240.2,677.0 238.5,672.0 Q237.2,666.7 236.3,661.2 Q235.7,655.5 235.3,649.6 Q235.0,643.7 234.8,637.9 Q234.6,632.1 234.4,626.4 Q234.2,620.8 233.8,615.4 Q233.2,610.1 232.5,604.8 Q231.7,599.5 230.9,594.3 Q230.1,588.9 229.2,583.5 Q228.2,578.0 227.1,572.4 Q225.9,566.9 224.5,561.3 Q223.0,555.8 221.4,550.5 Q219.6,545.2 217.6,540.1 Q215.2,535.2 212.6,530.4 Q209.6,525.8 206.3,521.3 Q202.9,516.9 199.4,512.7 Q195.7,508.6 192.0,504.7 Q188.1,500.9 184.1,497.1 Q180.1,493.3 176.0,489.4 Q172.0,485.4 168.2,481.3 Q164.4,477.1 161.0,472.7 Q157.8,468.2 154.8,463.6 Q152.0,458.8 149.3,453.9 Q146.8,448.9 144.5,443.9 Q142.3,438.7 140.4,433.5 Q138.6,428.2 136.9,422.9 Q135.4,417.6 133.9,412.2 Q132.7,406.8 131.6,401.4 Q130.7,396.0 130.1,390.7 Q129.7,385.4 129.6,380.2 Q129.8,375.1 130.4,370.0 Q131.5,365.0 133.1,360.1 Q135.2,355.2 137.7,350.5 Q140.5,345.9 143.6,341.3 Q147.0,336.8 150.5,332.3 Q154.2,327.9 157.8,323.5 Q161.4,319.2 164.9,314.9 Q168.3,310.6 171.4,306.2 Q174.5,301.8 177.3,297.3 Q179.9,292.7 182.4,288.0 Q184.7,283.2 187.0,278.4 Q189.2,273.6 191.5,268.7 Q193.8,263.8 196.4,259.0 Q199.0,254.2 201.7,249.4 Q204.3,244.5 206.8,239.7 Q209.0,234.7 210.9,229.7 Q212.4,224.5 213.7,219.1 Q214.7,213.6 215.6,208.1 Q216.4,202.4 217.3,196.7 Q218.3,191.0 219.4,185.3 Q220.8,179.8 222.5,174.5 Q224.6,169.4 227.2,164.6 Q230.2,160.0 233.6,155.9 Q237.4,152.0 241.4,148.6 Q245.7,145.6 250.3,143.0 Q255.0,140.9 259.9,139.2 Q265.0,138.0 270.2,137.1 Q275.4,136.7 280.7,136.7 Q286.0,137.0 291.3,137.8 Q296.6,138.9 301.9,140.3 Q307.1,141.9 312.3,143.5 Q317.6,145.3 322.8,147.1 Q328.0,148.8 333.2,150.5 Q338.4,151.9 343.6,153.1 Q348.7,154.1 353.9,154.7 Q359.0,155.0 364.0,155.0 Q369.1,154.8 374.1,154.3 Q379.2,153.6 384.2,152.9 Q389.3,152.1 394.5,151.2 Q399.7,150.3 405.0,149.2 Q410.3,148.2 415.7,147.2 Q421.2,146.2 426.7,145.4 Q432.4,144.7 438.0,144.0 Q443.7,143.5 449.4,143.3 Q455.0,143.5 460.6,144.0 Q466.0,144.7 471.4,145.8 Q476.6,147.2 481.7,148.8 Q486.6,150.7 491.3,152.7 Q495.9,154.8 500.3,157.1 Q504.5,159.5 508.6,162.0 Q512.6,164.7 516.6,167.5 Q520.5,170.3 524.4,173.3 Q528.4,176.2 532.5,179.0 Q536.7,181.8 541.0,184.4 Q545.4,187.1 550.0,189.7 Q554.7,192.3 559.6,195.0 Q564.6,197.7 569.6,200.5 Q574.8,203.4 580.0,206.3 Q585.2,209.2 590.4,212.2 Q595.5,215.3 600.6,218.3 Q605.6,221.4 610.6,224.6 Q615.4,227.9 620.1,231.3 Q624.5,234.9 628.7,238.7 Q632.7,242.6 636.2,246.8 Q639.4,251.2 642.1,255.9 Q644.4,260.7 646.2,265.7 Q647.5,270.8 648.4,275.9 Q648.8,281.1 648.8,286.2 Q648.6,291.3 648.0,296.5 Q647.3,301.7 646.6,307.1 Q645.9,312.5 645.4,318.0 Q645.1,323.6 645.2,329.3 Q645.6,334.9 646.4,340.6 Q647.6,346.2 649.2,351.7 Q651.0,357.1 653.2,362.4 Q655.4,367.4 657.8,372.1 Q660.2,376.4 662.4,380.5 Q664.6,384.2 666.7,387.7 Q668.6,391.1 670.4,394.4 Q672.1,397.7 673.7,401.1 Z" fill="none" stroke="#008136" stroke-width="0.88" opacity="0.300" stroke-linecap="round" stroke-linejoin="round"/>
<path d="M675.3,404.7 Q676.7,408.3 677.9,412.0 Q679.0,415.6 680.0,419.3 Q680.8,422.9 681.3,426.4 Q681.6,429.9 681.7,433.5 Q681.5,437.2 681.2,441.1 Q680.7,445.2 680.1,449.6 Q679.4,454.2 678.6,459.1 Q677.8,464.3 676.8,469.6 Q675.7,475.1 674.3,480.6 Q672.8,486.2 671.0,491.7 Q669.0,497.2 666.8,502.5 Q664.3,507.7 661.7,512.6 Q658.8,517.5 655.8,522.1 Q652.7,526.7 649.5,531.2 Q646.3,535.6 643.0,540.0 Q639.8,544.4 636.7,548.8 Q633.9,553.0 631.4,556.9 Q629.3,560.4 627.4,563.7 Q625.6,566.9 623.7,570.3 Q621.8,573.9 619.7,577.7 Q617.5,581.4 615.4,585.1 Q613.1,588.7 610.7,592.5 Q608.0,596.5 605.0,600.7 Q601.7,605.0 598.3,609.3 Q594.7,613.6 591.1,617.7 Q587.3,621.6 583.3,625.2 Q579.2,628.5 574.7,631.4 Q570.0,633.8 565.1,635.6 Q560.0,637.0 554.7,637.9 Q549.2,638.4 543.7,638.6 Q538.0,638.5 532.4,638.1 Q526.7,637.5 521.0,636.7 Q515.3,636.0 509.6,635.3 Q504.0,634.8 498.3,634.5 Q492.6,634.3 486.9,634.3 Q481.3,634.3 475.7,634.4 Q470.2,634.7 464.8,635.3 Q459.5,636.2 454.4,637.6 Q449.4,639.4 444.6,641.6 Q439.8,644.2 435.2,647.1 Q430.6,650.3 426.0,653.7 Q421.4,657.3 416.8,661.0 Q412.2,664.7 407.4,668.2 Q402.5,671.6 397.6,674.8 Q392.7,677.8 387.8,680.6 Q382.8,683.1 377.8,685.5 Q372.7,687.7 367.6,689.7 Q362.5,691.5 357.4,693.3 Q352.2,694.9 347.0,696.4 Q341.8,697.9 336.8,699.3 Q331.8,700.7 327.1,701.9 Q322.7,702.9 318.4,703.7 Q314.5,704.4 310.6,704.8 Q306.7,705.1 302.6,705.4 Q298.3,705.5 293.8,705.6 Q288.9,705.7 283.9,705.6 Q278.8,705.3 273.6,704.5 Q268.6,703.4 263.8,701.6 Q259.3,699.4 255.2,696.7 Q251.4,693.6 248.0,690.0 Q245.0,686.1 242.4,681.7 Q240.2,677.0 238.5,672.0 Q237.2,666.7 236.3,661.2 Q235.7,655.5 235.3,649.6 Q235.0,643.7 234.8,637.9 Q234.6,632.1 234.4,626.4 Q234.2,620.8 233.8,615.4 Q233.2,610.1 232.5,604.8 Q231.7,599.5 230.9,594.3 Q230.1,588.9 229.2,583.5 Q228.2,578.0 227.1,572.4 Q225.9,566.9 224.5,561.3 Q223.0,555.8 221.4,550.5 Q219.6,545.2 217.6,540.1 Q215.2,535.2 212.6,530.4 Q209.6,525.8 206.3,521.3 Q202.9,516.9 199.4,512.7 Q195.7,508.6 192.0,504.7 Q188.1,500.9 184.1,497.1 Q180.1,493.3 176.0,489.4 Q172.0,485.4 168.2,481.3 Q164.4,477.1 161.0,472.7 Q157.8,468.2 154.8,463.6 Q152.0,458.8 149.3,453.9 Q146.8,448.9 144.5,443.9 Q142.3,438.7 140.4,433.5 Q138.6,428.2 136.9,422.9 Q135.4,417.6 133.9,412.2 Q132.7,406.8 131.6,401.4 Q130.7,396.0 130.1,390.7 Q129.7,385.4 129.6,380.2 Q129.8,375.1 130.4,370.0 Q131.5,365.0 133.1,360.1 Q135.2,355.2 137.7,350.5 Q140.5,345.9 143.6,341.3 Q147.0,336.8 150.5,332.3 Q154.2,327.9 157.8,323.5 Q161.4,319.2 164.9,314.9 Q168.3,310.6 171.4,306.2 Q174.5,301.8 177.3,297.3 Q179.9,292.7 182.4,288.0 Q184.7,283.2 187.0,278.4 Q189.2,273.6 191.5,268.7 Q193.8,263.8 196.4,259.0 Q199.0,254.2 201.7,249.4 Q204.3,244.5 206.8,239.7 Q209.0,234.7 210.9,229.7 Q212.4,224.5 213.7,219.1 Q214.7,213.6 215.6,208.1 Q216.4,202.4 217.3,196.7 Q218.3,191.0 219.4,185.3 Q220.8,179.8 222.5,174.5 Q224.6,169.4 227.2,164.6 Q230.2,160.0 233.6,155.9 Q237.4,152.0 241.4,148.6 Q245.7,145.6 250.3,143.0 Q255.0,140.9 259.9,139.2 Q265.0,138.0 270.2,137.1 Q275.4,136.7 280.7,136.7 Q286.0,137.0 291.3,137.8 Q296.6,138.9 301.9,140.3 Q307.1,141.9 312.3,143.5 Q317.6,145.3 322.8,147.1 Q328.0,148.8 333.2,150.5 Q338.4,151.9 343.6,153.1 Q348.7,154.1 353.9,154.7 Q359.0,155.0 364.0,155.0 Q369.1,154.8 374.1,154.3 Q379.2,153.6 384.2,152.9 Q389.3,152.1 394.5,151.2 Q399.7,150.3 405.0,149.2 Q410.3,148.2 415.7,147.2 Q421.2,146.2 426.7,145.4 Q432.4,144.7 438.0,144.0 Q443.7,143.5 449.4,143.3 Q455.0,143.5 460.6,144.0 Q466.0,144.7 471.4,145.8 Q476.6,147.2 481.7,148.8 Q486.6,150.7 491.3,152.7 Q495.9,154.8 500.3,157.1 Q504.5,159.5 508.6,162.0 Q512.6,164.7 516.6,167.5 Q520.5,170.3 524.4,173.3 Q528.4,176.2 532.5,179.0 Q536.7,181.8 541.0,184.4 Q545.4,187.1 550.0,189.7 Q554.7,192.3 559.6,195.0 Q564.6,197.7 569.6,200.5 Q574.8,203.4 580.0,206.3 Q585.2,209.2 590.4,212.2 Q595.5,215.3 600.6,218.3 Q605.6,221.4 610.6,224.6 Q615.4,227.9 620.1,231.3 Q624.5,234.9 628.7,238.7 Q632.7,242.6 636.2,246.8 Q639.4,251.2 642.1,255.9 Q644.4,260.7 646.2,265.7 Q647.5,270.8 648.4,275.9 Q648.8,281.1 648.8,286.2 Q648.6,291.3 648.0,296.5 Q647.3,301.7 646.6,307.1 Q645.9,312.5 645.4,318.0 Q645.1,323.6 645.2,329.3 Q645.6,334.9 646.4,340.6 Q647.6,346.2 649.2,351.7 Q651.0,357.1 653.2,362.4 Q655.4,367.4 657.8,372.1 Q660.2,376.4 662.4,380.5 Q664.6,384.2 666.7,387.7 Q668.6,391.1 670.4,394.4 Q672.1,397.7 673.7,401.1 Z" fill="#005a4c" fill-opacity="0.045" stroke="none"/>
<path d="M641.9,396.5 Q641.7,400.4 641.6,404.3 Q641.6,408.3 641.6,412.3 Q641.7,416.4 642.0,420.4 Q642.4,424.6 643.0,428.8 Q643.7,433.0 644.5,437.3 Q645.4,441.6 646.4,446.0 Q647.4,450.3 648.3,454.7 Q649.2,459.1 650.1,463.4 Q650.7,467.7 651.3,471.9 Q651.6,476.0 651.7,480.1 Q651.6,484.0 651.1,487.9 Q650.4,491.8 649.4,495.6 Q648.2,499.3 646.8,503.0 Q645.3,506.6 643.7,510.2 Q642.1,513.8 640.5,517.3 Q638.8,520.8 637.0,524.4 Q635.1,527.9 633.1,531.6 Q631.1,535.3 629.0,539.1 Q627.0,543.1 625.0,547.2 Q623.2,551.4 621.5,555.9 Q619.9,560.6 618.3,565.5 Q616.7,570.6 615.1,575.8 Q613.5,581.2 612.0,586.6 Q610.5,592.0 609.1,597.4 Q607.7,602.8 606.1,608.1 Q604.3,613.3 602.3,618.4 Q600.1,623.4 597.6,628.4 Q594.8,633.3 591.7,638.1 Q588.3,642.6 584.6,646.9 Q580.7,650.8 576.7,654.5 Q572.6,657.8 568.4,660.8 Q564.2,663.7 560.0,666.4 Q555.9,669.0 551.9,671.7 Q547.9,674.3 543.9,677.0 Q540.0,679.8 536.1,682.6 Q532.3,685.5 528.4,688.3 Q524.5,691.2 520.5,693.9 Q516.5,696.5 512.5,698.9 Q508.3,701.2 504.1,703.4 Q499.8,705.4 495.4,707.4 Q490.9,709.2 486.4,710.9 Q481.8,712.4 477.1,713.4 Q472.2,714.1 467.3,714.3 Q462.3,714.1 457.2,713.3 Q452.1,712.0 446.9,710.3 Q441.8,708.2 436.9,705.8 Q432.7,703.4 429.2,701.3 Q426.2,699.4 423.3,697.5 Q419.9,695.2 415.9,692.4 Q411.3,689.2 406.5,686.0 Q401.8,683.0 397.1,680.2 Q392.5,677.7 388.0,675.3 Q383.6,673.0 379.2,670.9 Q374.9,668.9 370.7,667.0 Q366.6,665.2 362.5,663.5 Q358.5,661.8 354.6,660.1 Q350.7,658.3 346.9,656.5 Q343.2,654.7 339.5,652.8 Q335.9,650.8 332.4,648.7 Q328.9,646.5 325.4,644.3 Q322.0,642.0 318.5,639.6 Q315.1,637.4 311.7,635.2 Q308.2,633.1 304.7,631.2 Q301.1,629.4 297.4,627.9 Q293.6,626.5 289.8,625.4 Q285.9,624.4 281.8,623.6 Q277.8,623.0 273.6,622.6 Q269.4,622.2 265.1,622.0 Q260.7,621.9 256.3,621.6 Q251.9,621.4 247.5,621.0 Q243.0,620.6 238.5,619.9 Q234.0,619.1 229.5,618.1 Q225.0,616.8 220.4,615.2 Q215.9,613.5 211.4,611.6 Q207.0,609.6 202.6,607.7 Q198.3,605.9 194.1,604.1 Q189.9,602.4 185.9,600.6 Q181.9,598.8 178.0,596.8 Q174.2,594.7 170.5,592.5 Q166.8,590.1 163.1,587.6 Q159.5,585.0 155.9,582.4 Q152.3,579.7 148.8,576.9 Q145.2,574.1 141.6,571.2 Q137.9,568.3 134.1,565.4 Q130.1,562.6 126.0,559.9 Q121.7,557.1 117.3,554.2 Q112.8,551.2 108.3,548.0 Q103.8,544.6 99.4,540.9 Q95.2,537.1 91.4,533.1 Q87.9,528.9 84.8,524.6 Q82.4,520.1 80.5,515.4 Q79.4,510.6 78.9,505.7 Q79.0,500.7 79.7,495.6 Q80.6,490.5 81.8,485.5 Q83.3,480.5 84.9,475.6 Q86.6,470.7 88.6,465.8 Q90.6,461.0 92.7,456.2 Q94.8,451.3 96.9,446.5 Q99.1,441.7 101.2,436.9 Q103.3,432.1 105.3,427.3 Q107.2,422.6 109.1,417.8 Q110.9,413.1 112.6,408.4 Q114.2,403.7 115.9,399.1 Q117.7,394.5 119.5,390.0 Q121.6,385.6 123.8,381.4 Q126.2,377.1 128.9,373.0 Q131.8,369.0 134.8,365.1 Q138.0,361.2 141.2,357.4 Q144.5,353.7 147.8,350.1 Q151.0,346.5 154.1,342.9 Q157.1,339.3 159.9,335.6 Q162.6,332.0 165.0,328.3 Q167.2,324.5 169.1,320.6 Q170.7,316.6 172.1,312.5 Q173.1,308.2 173.9,303.8 Q174.3,299.3 174.3,294.7 Q174.2,290.0 173.9,285.2 Q173.5,280.4 173.2,275.6 Q173.0,270.9 173.1,266.1 Q173.6,261.4 174.6,256.7 Q175.9,252.1 177.6,247.7 Q179.6,243.3 181.8,239.0 Q184.2,234.8 186.6,230.8 Q189.2,226.9 191.7,223.2 Q194.3,219.5 196.9,216.0 Q199.5,212.6 202.1,209.3 Q204.7,206.2 207.2,203.2 Q209.7,200.3 212.1,197.5 Q214.6,194.8 217.2,192.2 Q219.8,189.7 222.4,187.1 Q225.1,184.5 228.0,182.0 Q230.9,179.4 234.0,176.8 Q237.1,174.3 240.2,171.7 Q243.4,169.2 246.6,166.7 Q249.9,164.3 253.1,161.8 Q256.4,159.4 259.7,157.0 Q263.0,154.5 266.5,151.9 Q270.0,149.2 273.6,146.4 Q277.4,143.4 281.3,140.3 Q285.3,137.0 289.4,133.7 Q293.6,130.3 297.9,126.9 Q302.2,123.4 306.5,119.9 Q310.9,116.3 315.3,112.7 Q319.7,109.3 324.1,106.1 Q328.5,103.2 332.9,100.5 Q337.3,98.1 341.7,95.9 Q346.1,94.2 350.6,92.8 Q355.1,91.8 359.6,91.3 Q364.2,91.2 368.7,91.3 Q373.2,91.6 377.7,92.0 Q382.2,92.7 386.6,93.5 Q391.0,94.5 395.3,95.8 Q399.6,97.3 403.8,99.1 Q407.9,101.2 411.9,103.5 Q415.8,106.1 419.7,108.9 Q423.4,111.9 427.0,115.1 Q430.5,118.3 433.9,121.6 Q437.2,125.0 440.6,128.5 Q443.9,132.0 447.2,135.5 Q450.6,138.8 454.1,142.1 Q457.6,145.2 461.2,148.0 Q464.8,150.6 468.6,152.9 Q472.4,154.8 476.5,156.4 Q480.7,157.8 485.1,158.8 Q489.6,159.6 494.4,160.3 Q499.3,160.8 504.3,161.3 Q509.4,161.7 514.6,162.1 Q519.8,162.5 525.0,162.7 Q530.2,162.9 535.4,163.1 Q540.4,163.4 545.4,163.9 Q550.2,164.6 555.0,165.4 Q559.6,166.5 564.1,167.7 Q568.5,169.1 572.8,170.8 Q576.9,172.7 581.1,174.9 Q585.1,177.3 589.0,179.8 Q592.9,182.6 596.7,185.4 Q600.4,188.3 604.2,191.3 Q607.9,194.2 611.6,197.1 Q615.3,200.0 619.1,202.7 Q622.9,205.2 626.7,207.7 Q630.5,210.2 634.4,212.6 Q638.1,215.1 641.9,217.7 Q645.5,220.4 649.1,223.2 Q652.5,226.2 655.7,229.3 Q658.7,232.6 661.4,236.0 Q663.8,239.6 666.0,243.4 Q667.9,247.4 669.4,251.5 Q670.7,255.9 671.7,260.4 Q672.4,265.1 672.8,269.9 Q672.9,274.8 672.8,279.8 Q672.5,285.0 672.0,290.1 Q671.2,295.3 670.1,300.6 Q668.7,305.8 667.0,311.0 Q665.0,316.2 662.8,321.4 Q660.4,326.5 658.0,331.5 Q655.5,336.5 653.1,341.3 Q650.8,346.0 648.9,350.6 Q647.1,355.2 645.7,359.6 Q644.6,363.9 643.7,368.2 Q643.0,372.4 642.6,376.5 Q642.3,380.5 642.1,384.6 Q642.0,388.6 641.9,392.5 Z" fill="none" stroke="#69a300" stroke-width="0.72" opacity="0.250" stroke-linecap="round" stroke-linejoin="round"/>
<path d="M641.9,396.5 Q641.7,400.4 641.6,404.3 Q641.6,408.3 641.6,412.3 Q641.7,416.4 642.0,420.4 Q642.4,424.6 643.0,428.8 Q643.7,433.0 644.5,437.3 Q645.4,441.6 646.4,446.0 Q647.4,450.3 648.3,454.7 Q649.2,459.1 650.1,463.4 Q650.7,467.7 651.3,471.9 Q651.6,476.0 651.7,480.1 Q651.6,484.0 651.1,487.9 Q650.4,491.8 649.4,495.6 Q648.2,499.3 646.8,503.0 Q645.3,506.6 643.7,510.2 Q642.1,513.8 640.5,517.3 Q638.8,520.8 637.0,524.4 Q635.1,527.9 633.1,531.6 Q631.1,535.3 629.0,539.1 Q627.0,543.1 625.0,547.2 Q623.2,551.4 621.5,555.9 Q619.9,560.6 618.3,565.5 Q616.7,570.6 615.1,575.8 Q613.5,581.2 612.0,586.6 Q610.5,592.0 609.1,597.4 Q607.7,602.8 606.1,608.1 Q604.3,613.3 602.3,618.4 Q600.1,623.4 597.6,628.4 Q594.8,633.3 591.7,638.1 Q588.3,642.6 584.6,646.9 Q580.7,650.8 576.7,654.5 Q572.6,657.8 568.4,660.8 Q564.2,663.7 560.0,666.4 Q555.9,669.0 551.9,671.7 Q547.9,674.3 543.9,677.0 Q540.0,679.8 536.1,682.6 Q532.3,685.5 528.4,688.3 Q524.5,691.2 520.5,693.9 Q516.5,696.5 512.5,698.9 Q508.3,701.2 504.1,703.4 Q499.8,705.4 495.4,707.4 Q490.9,709.2 486.4,710.9 Q481.8,712.4 477.1,713.4 Q472.2,714.1 467.3,714.3 Q462.3,714.1 457.2,713.3 Q452.1,712.0 446.9,710.3 Q441.8,708.2 436.9,705.8 Q432.7,703.4 429.2,701.3 Q426.2,699.4 423.3,697.5 Q419.9,695.2 415.9,692.4 Q411.3,689.2 406.5,686.0 Q401.8,683.0 397.1,680.2 Q392.5,677.7 388.0,675.3 Q383.6,673.0 379.2,670.9 Q374.9,668.9 370.7,667.0 Q366.6,665.2 362.5,663.5 Q358.5,661.8 354.6,660.1 Q350.7,658.3 346.9,656.5 Q343.2,654.7 339.5,652.8 Q335.9,650.8 332.4,648.7 Q328.9,646.5 325.4,644.3 Q322.0,642.0 318.5,639.6 Q315.1,637.4 311.7,635.2 Q308.2,633.1 304.7,631.2 Q301.1,629.4 297.4,627.9 Q293.6,626.5 289.8,625.4 Q285.9,624.4 281.8,623.6 Q277.8,623.0 273.6,622.6 Q269.4,622.2 265.1,622.0 Q260.7,621.9 256.3,621.6 Q251.9,621.4 247.5,621.0 Q243.0,620.6 238.5,619.9 Q234.0,619.1 229.5,618.1 Q225.0,616.8 220.4,615.2 Q215.9,613.5 211.4,611.6 Q207.0,609.6 202.6,607.7 Q198.3,605.9 194.1,604.1 Q189.9,602.4 185.9,600.6 Q181.9,598.8 178.0,596.8 Q174.2,594.7 170.5,592.5 Q166.8,590.1 163.1,587.6 Q159.5,585.0 155.9,582.4 Q152.3,579.7 148.8,576.9 Q145.2,574.1 141.6,571.2 Q137.9,568.3 134.1,565.4 Q130.1,562.6 126.0,559.9 Q121.7,557.1 117.3,554.2 Q112.8,551.2 108.3,548.0 Q103.8,544.6 99.4,540.9 Q95.2,537.1 91.4,533.1 Q87.9,528.9 84.8,524.6 Q82.4,520.1 80.5,515.4 Q79.4,510.6 78.9,505.7 Q79.0,500.7 79.7,495.6 Q80.6,490.5 81.8,485.5 Q83.3,480.5 84.9,475.6 Q86.6,470.7 88.6,465.8 Q90.6,461.0 92.7,456.2 Q94.8,451.3 96.9,446.5 Q99.1,441.7 101.2,436.9 Q103.3,432.1 105.3,427.3 Q107.2,422.6 109.1,417.8 Q110.9,413.1 112.6,408.4 Q114.2,403.7 115.9,399.1 Q117.7,394.5 119.5,390.0 Q121.6,385.6 123.8,381.4 Q126.2,377.1 128.9,373.0 Q131.8,369.0 134.8,365.1 Q138.0,361.2 141.2,357.4 Q144.5,353.7 147.8,350.1 Q151.0,346.5 154.1,342.9 Q157.1,339.3 159.9,335.6 Q162.6,332.0 165.0,328.3 Q167.2,324.5 169.1,320.6 Q170.7,316.6 172.1,312.5 Q173.1,308.2 173.9,303.8 Q174.3,299.3 174.3,294.7 Q174.2,290.0 173.9,285.2 Q173.5,280.4 173.2,275.6 Q173.0,270.9 173.1,266.1 Q173.6,261.4 174.6,256.7 Q175.9,252.1 177.6,247.7 Q179.6,243.3 181.8,239.0 Q184.2,234.8 186.6,230.8 Q189.2,226.9 191.7,223.2 Q194.3,219.5 196.9,216.0 Q199.5,212.6 202.1,209.3 Q204.7,206.2 207.2,203.2 Q209.7,200.3 212.1,197.5 Q214.6,194.8 217.2,192.2 Q219.8,189.7 222.4,187.1 Q225.1,184.5 228.0,182.0 Q230.9,179.4 234.0,176.8 Q237.1,174.3 240.2,171.7 Q243.4,169.2 246.6,166.7 Q249.9,164.3 253.1,161.8 Q256.4,159.4 259.7,157.0 Q263.0,154.5 266.5,151.9 Q270.0,149.2 273.6,146.4 Q277.4,143.4 281.3,140.3 Q285.3,137.0 289.4,133.7 Q293.6,130.3 297.9,126.9 Q302.2,123.4 306.5,119.9 Q310.9,116.3 315.3,112.7 Q319.7,109.3 324.1,106.1 Q328.5,103.2 332.9,100.5 Q337.3,98.1 341.7,95.9 Q346.1,94.2 350.6,92.8 Q355.1,91.8 359.6,91.3 Q364.2,91.2 368.7,91.3 Q373.2,91.6 377.7,92.0 Q382.2,92.7 386.6,93.5 Q391.0,94.5 395.3,95.8 Q399.6,97.3 403.8,99.1 Q407.9,101.2 411.9,103.5 Q415.8,106.1 419.7,108.9 Q423.4,111.9 427.0,115.1 Q430.5,118.3 433.9,121.6 Q437.2,125.0 440.6,128.5 Q443.9,132.0 447.2,135.5 Q450.6,138.8 454.1,142.1 Q457.6,145.2 461.2,148.0 Q464.8,150.6 468.6,152.9 Q472.4,154.8 476.5,156.4 Q480.7,157.8 485.1,158.8 Q489.6,159.6 494.4,160.3 Q499.3,160.8 504.3,161.3 Q509.4,161.7 514.6,162.1 Q519.8,162.5 525.0,162.7 Q530.2,162.9 535.4,163.1 Q540.4,163.4 545.4,163.9 Q550.2,164.6 555.0,165.4 Q559.6,166.5 564.1,167.7 Q568.5,169.1 572.8,170.8 Q576.9,172.7 581.1,174.9 Q585.1,177.3 589.0,179.8 Q592.9,182.6 596.7,185.4 Q600.4,188.3 604.2,191.3 Q607.9,194.2 611.6,197.1 Q615.3,200.0 619.1,202.7 Q622.9,205.2 626.7,207.7 Q630.5,210.2 634.4,212.6 Q638.1,215.1 641.9,217.7 Q645.5,220.4 649.1,223.2 Q652.5,226.2 655.7,229.3 Q658.7,232.6 661.4,236.0 Q663.8,239.6 666.0,243.4 Q667.9,247.4 669.4,251.5 Q670.7,255.9 671.7,260.4 Q672.4,265.1 672.8,269.9 Q672.9,274.8 672.8,279.8 Q672.5,285.0 672.0,290.1 Q671.2,295.3 670.1,300.6 Q668.7,305.8 667.0,311.0 Q665.0,316.2 662.8,321.4 Q660.4,326.5 658.0,331.5 Q655.5,336.5 653.1,341.3 Q650.8,346.0 648.9,350.6 Q647.1,355.2 645.7,359.6 Q644.6,363.9 643.7,368.2 Q643.0,372.4 642.6,376.5 Q642.3,380.5 642.1,384.6 Q642.0,388.6 641.9,392.5 Z" fill="#008532" fill-opacity="0.037" stroke="none"/>
<path d="M666.4,396.5 Q667.1,400.7 667.7,404.9 Q668.4,409.1 669.2,413.3 Q670.2,417.6 671.4,422.0 Q672.9,426.5 674.4,431.0 Q676.1,435.6 677.9,440.2 Q679.8,444.9 681.7,449.6 Q683.6,454.4 685.5,459.2 Q687.3,464.1 688.9,468.9 Q690.4,473.8 691.7,478.7 Q692.8,483.6 693.5,488.5 Q693.9,493.4 694.1,498.3 Q693.9,503.2 693.6,508.0 Q693.2,512.9 692.8,517.8 Q692.4,522.7 692.0,527.6 Q691.4,532.5 690.7,537.4 Q689.9,542.4 688.9,547.4 Q687.7,552.5 686.4,557.6 Q684.9,562.7 683.2,567.7 Q681.3,572.7 679.1,577.5 Q676.6,582.0 673.8,586.4 Q670.8,590.4 667.5,594.1 Q663.8,597.5 659.9,600.7 Q655.8,603.6 651.4,606.2 Q646.9,608.6 642.4,610.8 Q637.9,612.8 633.4,614.5 Q628.7,616.2 623.9,617.9 Q618.7,619.7 613.4,621.5 Q608.0,623.4 602.7,625.3 Q597.4,627.4 592.3,629.5 Q587.4,631.7 582.6,634.0 Q578.0,636.4 573.5,638.8 Q569.1,641.3 564.7,643.7 Q560.5,646.1 556.3,648.5 Q552.1,650.8 547.9,653.0 Q543.8,655.1 539.7,657.1 Q535.6,658.8 531.4,660.4 Q527.3,661.8 523.2,663.0 Q519.1,664.1 515.0,665.1 Q510.8,666.0 506.6,666.9 Q502.4,667.6 498.1,668.2 Q493.7,668.6 489.4,668.9 Q484.9,668.9 480.5,668.7 Q476.0,668.4 471.5,667.8 Q467.0,667.0 462.5,666.1 Q458.0,665.0 453.6,663.8 Q449.2,662.5 444.8,661.2 Q440.5,659.9 436.2,658.6 Q431.9,657.3 427.6,656.1 Q423.4,654.9 419.2,653.7 Q415.1,652.6 411.0,651.7 Q406.9,650.9 402.8,650.1 Q398.8,649.4 394.7,648.8 Q390.6,648.3 386.5,647.9 Q382.4,647.6 378.2,647.6 Q373.9,647.7 369.6,648.1 Q365.1,648.7 360.6,649.6 Q355.9,650.9 351.1,652.5 Q346.1,654.5 340.9,656.7 Q335.6,659.1 330.3,661.5 Q324.8,663.8 319.3,666.0 Q313.8,668.1 308.2,670.0 Q302.7,671.8 297.2,673.3 Q291.7,674.6 286.3,675.6 Q280.9,676.4 275.6,677.0 Q270.4,677.3 265.4,677.3 Q260.6,677.0 256.0,676.3 Q251.6,675.2 247.4,673.6 Q243.4,671.5 239.8,669.0 Q236.3,665.9 233.1,662.5 Q230.1,658.7 227.3,654.6 Q224.5,650.3 221.7,645.9 Q218.9,641.5 216.1,637.1 Q213.2,632.8 210.3,628.7 Q207.2,624.7 204.1,621.0 Q200.9,617.5 197.5,614.2 Q194.2,611.0 190.8,608.0 Q187.6,605.1 184.4,602.3 Q181.4,599.4 178.6,596.4 Q175.9,593.4 173.5,590.2 Q171.3,586.9 169.4,583.5 Q167.7,579.8 166.2,576.0 Q164.9,572.0 163.8,567.9 Q162.8,563.6 161.8,559.1 Q160.9,554.5 159.9,549.7 Q159.0,545.0 157.9,540.2 Q156.9,535.4 155.8,530.6 Q154.6,525.8 153.3,521.1 Q151.9,516.4 150.4,511.8 Q148.8,507.2 147.2,502.6 Q145.6,498.2 143.9,493.7 Q142.1,489.4 140.1,485.1 Q137.9,480.8 135.5,476.6 Q132.9,472.5 130.2,468.5 Q127.3,464.5 124.3,460.5 Q121.1,456.6 118.0,452.8 Q114.7,449.1 111.5,445.4 Q108.4,441.7 105.4,438.0 Q102.6,434.2 100.0,430.3 Q97.6,426.3 95.5,422.2 Q93.7,418.0 92.0,413.6 Q90.5,409.3 89.0,404.8 Q87.5,400.3 86.0,395.7 Q84.3,391.0 82.6,386.3 Q80.6,381.6 78.5,376.8 Q76.1,372.0 73.6,367.3 Q70.9,362.5 68.2,357.8 Q65.5,353.0 62.9,348.3 Q60.4,343.5 58.1,338.6 Q56.0,333.7 54.3,328.8 Q52.9,323.8 51.8,318.9 Q51.1,313.9 50.9,309.1 Q51.2,304.4 52.0,299.9 Q53.4,295.6 55.3,291.5 Q57.8,287.6 60.8,284.0 Q64.2,280.5 67.9,277.2 Q71.9,274.0 76.2,271.0 Q80.6,268.1 85.1,265.4 Q89.6,262.8 93.9,260.3 Q98.1,258.0 102.1,255.8 Q105.9,253.6 109.6,251.3 Q113.3,248.9 116.9,246.3 Q120.5,243.4 124.2,240.3 Q127.9,237.0 131.7,233.6 Q135.5,230.1 139.2,226.5 Q142.9,222.9 146.5,219.2 Q150.0,215.5 153.4,211.8 Q156.7,208.1 160.0,204.4 Q163.2,200.7 166.6,197.2 Q170.0,193.7 173.6,190.4 Q177.4,187.2 181.2,184.1 Q185.1,181.1 189.1,178.2 Q193.2,175.5 197.2,172.9 Q201.3,170.5 205.4,168.3 Q209.4,166.3 213.5,164.4 Q217.5,162.7 221.5,161.0 Q225.5,159.2 229.5,157.4 Q233.4,155.4 237.3,153.1 Q241.2,150.7 245.1,148.0 Q248.9,145.3 252.8,142.4 Q256.7,139.5 260.6,136.4 Q264.6,133.3 268.6,130.0 Q272.6,126.7 276.6,123.2 Q280.6,119.6 284.6,115.9 Q288.5,112.1 292.5,108.2 Q296.5,104.2 300.5,100.3 Q304.6,96.4 308.7,92.6 Q312.9,88.9 317.2,85.4 Q321.6,82.2 326.0,79.5 Q330.6,77.3 335.3,75.6 Q340.0,74.5 344.9,74.0 Q349.8,73.9 354.8,74.4 Q359.9,75.3 364.9,76.7 Q370.0,78.4 375.1,80.4 Q380.2,82.6 385.2,85.0 Q390.2,87.6 395.2,90.1 Q400.2,92.6 405.0,95.1 Q409.8,97.5 414.6,99.8 Q419.3,102.1 424.0,104.2 Q428.6,106.1 433.1,107.9 Q437.6,109.5 442.1,110.9 Q446.7,112.2 451.2,113.2 Q455.9,114.1 460.7,114.7 Q465.5,115.1 470.5,115.3 Q475.6,115.2 480.8,115.1 Q486.1,114.8 491.5,114.4 Q496.9,113.8 502.2,113.2 Q507.3,112.6 512.3,112.1 Q517.1,111.7 521.7,111.4 Q526.3,111.1 530.8,110.9 Q535.4,110.6 540.1,110.3 Q544.9,110.1 549.7,110.1 Q554.6,110.2 559.3,110.7 Q563.8,111.6 568.0,112.9 Q572.0,114.6 575.6,116.7 Q579.0,119.3 582.1,122.4 Q585.0,126.0 587.7,129.8 Q590.1,134.1 592.4,138.5 Q594.5,143.2 596.5,148.1 Q598.4,153.2 600.2,158.3 Q602.0,163.4 603.8,168.5 Q605.5,173.5 607.1,178.3 Q608.8,183.0 610.4,187.8 Q612.0,192.7 613.7,197.6 Q615.4,202.6 617.2,207.5 Q619.1,212.4 621.0,217.0 Q623.0,221.4 625.0,225.6 Q627.2,229.6 629.4,233.3 Q631.6,237.0 633.9,240.5 Q636.1,244.0 638.3,247.5 Q640.5,251.0 642.6,254.6 Q644.7,258.2 646.7,261.9 Q648.7,265.7 650.5,269.6 Q652.1,273.6 653.6,277.8 Q654.7,282.0 655.6,286.2 Q656.4,290.5 656.9,294.9 Q657.2,299.3 657.4,303.6 Q657.4,308.0 657.2,312.4 Q657.0,316.8 656.7,321.2 Q656.4,325.6 656.1,330.0 Q655.9,334.3 655.7,338.6 Q655.6,342.9 655.6,347.1 Q655.9,351.3 656.4,355.5 Q657.2,359.6 658.2,363.7 Q659.2,367.8 660.3,371.9 Q661.4,376.0 662.5,380.1 Q663.6,384.2 664.6,388.3 Z" fill="none" stroke="#c2af31" stroke-width="0.56" opacity="0.200" stroke-linecap="round" stroke-linejoin="round"/>
<path d="M666.4,396.5 Q667.1,400.7 667.7,404.9 Q668.4,409.1 669.2,413.3 Q670.2,417.6 671.4,422.0 Q672.9,426.5 674.4,431.0 Q676.1,435.6 677.9,440.2 Q679.8,444.9 681.7,449.6 Q683.6,454.4 685.5,459.2 Q687.3,464.1 688.9,468.9 Q690.4,473.8 691.7,478.7 Q692.8,483.6 693.5,488.5 Q693.9,493.4 694.1,498.3 Q693.9,503.2 693.6,508.0 Q693.2,512.9 692.8,517.8 Q692.4,522.7 692.0,527.6 Q691.4,532.5 690.7,537.4 Q689.9,542.4 688.9,547.4 Q687.7,552.5 686.4,557.6 Q684.9,562.7 683.2,567.7 Q681.3,572.7 679.1,577.5 Q676.6,582.0 673.8,586.4 Q670.8,590.4 667.5,594.1 Q663.8,597.5 659.9,600.7 Q655.8,603.6 651.4,606.2 Q646.9,608.6 642.4,610.8 Q637.9,612.8 633.4,614.5 Q628.7,616.2 623.9,617.9 Q618.7,619.7 613.4,621.5 Q608.0,623.4 602.7,625.3 Q597.4,627.4 592.3,629.5 Q587.4,631.7 582.6,634.0 Q578.0,636.4 573.5,638.8 Q569.1,641.3 564.7,643.7 Q560.5,646.1 556.3,648.5 Q552.1,650.8 547.9,653.0 Q543.8,655.1 539.7,657.1 Q535.6,658.8 531.4,660.4 Q527.3,661.8 523.2,663.0 Q519.1,664.1 515.0,665.1 Q510.8,666.0 506.6,666.9 Q502.4,667.6 498.1,668.2 Q493.7,668.6 489.4,668.9 Q484.9,668.9 480.5,668.7 Q476.0,668.4 471.5,667.8 Q467.0,667.0 462.5,666.1 Q458.0,665.0 453.6,663.8 Q449.2,662.5 444.8,661.2 Q440.5,659.9 436.2,658.6 Q431.9,657.3 427.6,656.1 Q423.4,654.9 419.2,653.7 Q415.1,652.6 411.0,651.7 Q406.9,650.9 402.8,650.1 Q398.8,649.4 394.7,648.8 Q390.6,648.3 386.5,647.9 Q382.4,647.6 378.2,647.6 Q373.9,647.7 369.6,648.1 Q365.1,648.7 360.6,649.6 Q355.9,650.9 351.1,652.5 Q346.1,654.5 340.9,656.7 Q335.6,659.1 330.3,661.5 Q324.8,663.8 319.3,666.0 Q313.8,668.1 308.2,670.0 Q302.7,671.8 297.2,673.3 Q291.7,674.6 286.3,675.6 Q280.9,676.4 275.6,677.0 Q270.4,677.3 265.4,677.3 Q260.6,677.0 256.0,676.3 Q251.6,675.2 247.4,673.6 Q243.4,671.5 239.8,669.0 Q236.3,665.9 233.1,662.5 Q230.1,658.7 227.3,654.6 Q224.5,650.3 221.7,645.9 Q218.9,641.5 216.1,637.1 Q213.2,632.8 210.3,628.7 Q207.2,624.7 204.1,621.0 Q200.9,617.5 197.5,614.2 Q194.2,611.0 190.8,608.0 Q187.6,605.1 184.4,602.3 Q181.4,599.4 178.6,596.4 Q175.9,593.4 173.5,590.2 Q171.3,586.9 169.4,583.5 Q167.7,579.8 166.2,576.0 Q164.9,572.0 163.8,567.9 Q162.8,563.6 161.8,559.1 Q160.9,554.5 159.9,549.7 Q159.0,545.0 157.9,540.2 Q156.9,535.4 155.8,530.6 Q154.6,525.8 153.3,521.1 Q151.9,516.4 150.4,511.8 Q148.8,507.2 147.2,502.6 Q145.6,498.2 143.9,493.7 Q142.1,489.4 140.1,485.1 Q137.9,480.8 135.5,476.6 Q132.9,472.5 130.2,468.5 Q127.3,464.5 124.3,460.5 Q121.1,456.6 118.0,452.8 Q114.7,449.1 111.5,445.4 Q108.4,441.7 105.4,438.0 Q102.6,434.2 100.0,430.3 Q97.6,426.3 95.5,422.2 Q93.7,418.0 92.0,413.6 Q90.5,409.3 89.0,404.8 Q87.5,400.3 86.0,395.7 Q84.3,391.0 82.6,386.3 Q80.6,381.6 78.5,376.8 Q76.1,372.0 73.6,367.3 Q70.9,362.5 68.2,357.8 Q65.5,353.0 62.9,348.3 Q60.4,343.5 58.1,338.6 Q56.0,333.7 54.3,328.8 Q52.9,323.8 51.8,318.9 Q51.1,313.9 50.9,309.1 Q51.2,304.4 52.0,299.9 Q53.4,295.6 55.3,291.5 Q57.8,287.6 60.8,284.0 Q64.2,280.5 67.9,277.2 Q71.9,274.0 76.2,271.0 Q80.6,268.1 85.1,265.4 Q89.6,262.8 93.9,260.3 Q98.1,258.0 102.1,255.8 Q105.9,253.6 109.6,251.3 Q113.3,248.9 116.9,246.3 Q120.5,243.4 124.2,240.3 Q127.9,237.0 131.7,233.6 Q135.5,230.1 139.2,226.5 Q142.9,222.9 146.5,219.2 Q150.0,215.5 153.4,211.8 Q156.7,208.1 160.0,204.4 Q163.2,200.7 166.6,197.2 Q170.0,193.7 173.6,190.4 Q177.4,187.2 181.2,184.1 Q185.1,181.1 189.1,178.2 Q193.2,175.5 197.2,172.9 Q201.3,170.5 205.4,168.3 Q209.4,166.3 213.5,164.4 Q217.5,162.7 221.5,161.0 Q225.5,159.2 229.5,157.4 Q233.4,155.4 237.3,153.1 Q241.2,150.7 245.1,148.0 Q248.9,145.3 252.8,142.4 Q256.7,139.5 260.6,136.4 Q264.6,133.3 268.6,130.0 Q272.6,126.7 276.6,123.2 Q280.6,119.6 284.6,115.9 Q288.5,112.1 292.5,108.2 Q296.5,104.2 300.5,100.3 Q304.6,96.4 308.7,92.6 Q312.9,88.9 317.2,85.4 Q321.6,82.2 326.0,79.5 Q330.6,77.3 335.3,75.6 Q340.0,74.5 344.9,74.0 Q349.8,73.9 354.8,74.4 Q359.9,75.3 364.9,76.7 Q370.0,78.4 375.1,80.4 Q380.2,82.6 385.2,85.0 Q390.2,87.6 395.2,90.1 Q400.2,92.6 405.0,95.1 Q409.8,97.5 414.6,99.8 Q419.3,102.1 424.0,104.2 Q428.6,106.1 433.1,107.9 Q437.6,109.5 442.1,110.9 Q446.7,112.2 451.2,113.2 Q455.9,114.1 460.7,114.7 Q465.5,115.1 470.5,115.3 Q475.6,115.2 480.8,115.1 Q486.1,114.8 491.5,114.4 Q496.9,113.8 502.2,113.2 Q507.3,112.6 512.3,112.1 Q517.1,111.7 521.7,111.4 Q526.3,111.1 530.8,110.9 Q535.4,110.6 540.1,110.3 Q544.9,110.1 549.7,110.1 Q554.6,110.2 559.3,110.7 Q563.8,111.6 568.0,112.9 Q572.0,114.6 575.6,116.7 Q579.0,119.3 582.1,122.4 Q585.0,126.0 587.7,129.8 Q590.1,134.1 592.4,138.5 Q594.5,143.2 596.5,148.1 Q598.4,153.2 600.2,158.3 Q602.0,163.4 603.8,168.5 Q605.5,173.5 607.1,178.3 Q608.8,183.0 610.4,187.8 Q612.0,192.7 613.7,197.6 Q615.4,202.6 617.2,207.5 Q619.1,212.4 621.0,217.0 Q623.0,221.4 625.0,225.6 Q627.2,229.6 629.4,233.3 Q631.6,237.0 633.9,240.5 Q636.1,244.0 638.3,247.5 Q640.5,251.0 642.6,254.6 Q644.7,258.2 646.7,261.9 Q648.7,265.7 650.5,269.6 Q652.1,273.6 653.6,277.8 Q654.7,282.0 655.6,286.2 Q656.4,290.5 656.9,294.9 Q657.2,299.3 657.4,303.6 Q657.4,308.0 657.2,312.4 Q657.0,316.8 656.7,321.2 Q656.4,325.6 656.1,330.0 Q655.9,334.3 655.7,338.6 Q655.6,342.9 655.6,347.1 Q655.9,351.3 656.4,355.5 Q657.2,359.6 658.2,363.7 Q659.2,367.8 660.3,371.9 Q661.4,376.0 662.5,380.1 Q663.6,384.2 664.6,388.3 Z" fill="#4b9d01" fill-opacity="0.030" stroke="none"/>
</g>

<rect width='800' height='800' fill='url(#vig)'/>
</svg>
