<svg xmlns="http://www.w3.org/2000/svg" viewBox="0 0 800 800" width="800" height="800">
<defs>
  <filter id="ink" x="-5%" y="-5%" width="110%" height="110%">
    <feTurbulence type="fractalNoise" baseFrequency="0.08" numOctaves="2" seed="7" result="noise"/>
    <feDisplacementMap in="SourceGraphic" in2="noise" scale="1.5" xChannelSelector="R" yChannelSelector="G"/>
  </filter>
</defs>
<rect width="800" height="800" fill="#faf7f2"/>
<circle cx="40" cy="209" r="0.4" fill="#c8c0b5" opacity="0.24"/>
<circle cx="38" cy="616" r="0.4" fill="#c8c0b5" opacity="0.24"/>
<circle cx="-3" cy="367" r="0.4" fill="#c8c0b5" opacity="0.24"/>
<circle cx="22" cy="265" r="0.6" fill="#c8c0b5" opacity="0.24"/>
<circle cx="62" cy="219" r="0.5" fill="#c8c0b5" opacity="0.24"/>
<circle cx="49" cy="118" r="0.6" fill="#c8c0b5" opacity="0.24"/>
<circle cx="84" cy="60" r="0.3" fill="#c8c0b5" opacity="0.24"/>
<circle cx="33" cy="396" r="0.5" fill="#c8c0b5" opacity="0.24"/>
<circle cx="43" cy="728" r="0.6" fill="#c8c0b5" opacity="0.24"/>
<circle cx="0" cy="642" r="0.5" fill="#c8c0b5" opacity="0.24"/>
<circle cx="66" cy="214" r="0.5" fill="#c8c0b5" opacity="0.24"/>
<circle cx="84" cy="419" r="0.3" fill="#c8c0b5" opacity="0.24"/>
<circle cx="42" cy="223" r="0.4" fill="#c8c0b5" opacity="0.24"/>
<circle cx="48" cy="413" r="0.7" fill="#c8c0b5" opacity="0.24"/>
<circle cx="68" cy="280" r="0.3" fill="#c8c0b5" opacity="0.24"/>
<circle cx="37" cy="416" r="0.4" fill="#c8c0b5" opacity="0.24"/>
<circle cx="-6" cy="209" r="0.5" fill="#c8c0b5" opacity="0.24"/>
<circle cx="18" cy="240" r="0.4" fill="#c8c0b5" opacity="0.24"/>
<circle cx="45" cy="508" r="0.7" fill="#c8c0b5" opacity="0.24"/>
<circle cx="55" cy="71" r="0.7" fill="#c8c0b5" opacity="0.24"/>
<circle cx="3" cy="71" r="0.3" fill="#c8c0b5" opacity="0.24"/>
<circle cx="37" cy="497" r="0.6" fill="#c8c0b5" opacity="0.24"/>
<circle cx="-10" cy="362" r="0.8" fill="#c8c0b5" opacity="0.24"/>
<circle cx="23" cy="419" r="0.6" fill="#c8c0b5" opacity="0.24"/>
<circle cx="72" cy="399" r="0.7" fill="#c8c0b5" opacity="0.24"/>
<circle cx="171" cy="192" r="0.8" fill="#c8c0b5" opacity="0.26"/>
<circle cx="215" cy="421" r="0.7" fill="#c8c0b5" opacity="0.26"/>
<circle cx="245" cy="360" r="0.8" fill="#c8c0b5" opacity="0.26"/>
<circle cx="256" cy="33" r="0.5" fill="#c8c0b5" opacity="0.26"/>
<circle cx="234" cy="87" r="0.6" fill="#c8c0b5" opacity="0.26"/>
<circle cx="229" cy="387" r="0.4" fill="#c8c0b5" opacity="0.26"/>
<circle cx="240" cy="728" r="0.4" fill="#c8c0b5" opacity="0.26"/>
<circle cx="170" cy="747" r="0.4" fill="#c8c0b5" opacity="0.26"/>
<circle cx="221" cy="752" r="0.7" fill="#c8c0b5" opacity="0.26"/>
<circle cx="234" cy="75" r="0.6" fill="#c8c0b5" opacity="0.26"/>
<circle cx="218" cy="237" r="0.5" fill="#c8c0b5" opacity="0.26"/>
<circle cx="200" cy="311" r="0.3" fill="#c8c0b5" opacity="0.26"/>
<circle cx="194" cy="219" r="0.5" fill="#c8c0b5" opacity="0.26"/>
<circle cx="211" cy="229" r="0.7" fill="#c8c0b5" opacity="0.26"/>
<circle cx="214" cy="473" r="0.3" fill="#c8c0b5" opacity="0.26"/>
<circle cx="175" cy="498" r="0.4" fill="#c8c0b5" opacity="0.26"/>
<circle cx="190" cy="429" r="0.5" fill="#c8c0b5" opacity="0.26"/>
<circle cx="233" cy="272" r="0.5" fill="#c8c0b5" opacity="0.26"/>
<circle cx="244" cy="752" r="0.3" fill="#c8c0b5" opacity="0.26"/>
<circle cx="195" cy="358" r="0.5" fill="#c8c0b5" opacity="0.26"/>
<circle cx="222" cy="53" r="0.5" fill="#c8c0b5" opacity="0.26"/>
<circle cx="219" cy="218" r="0.5" fill="#c8c0b5" opacity="0.26"/>
<circle cx="265" cy="470" r="0.5" fill="#c8c0b5" opacity="0.26"/>
<circle cx="192" cy="333" r="0.7" fill="#c8c0b5" opacity="0.26"/>
<circle cx="252" cy="256" r="0.7" fill="#c8c0b5" opacity="0.26"/>
<circle cx="240" cy="424" r="0.5" fill="#c8c0b5" opacity="0.26"/>
<circle cx="263" cy="352" r="0.8" fill="#c8c0b5" opacity="0.26"/>
<circle cx="187" cy="57" r="0.6" fill="#c8c0b5" opacity="0.26"/>
<circle cx="219" cy="751" r="0.8" fill="#c8c0b5" opacity="0.26"/>
<circle cx="261" cy="306" r="0.6" fill="#c8c0b5" opacity="0.26"/>
<circle cx="372" cy="365" r="0.6" fill="#c8c0b5" opacity="0.30"/>
<circle cx="416" cy="732" r="0.4" fill="#c8c0b5" opacity="0.30"/>
<circle cx="429" cy="49" r="0.8" fill="#c8c0b5" opacity="0.30"/>
<circle cx="393" cy="461" r="0.7" fill="#c8c0b5" opacity="0.30"/>
<circle cx="364" cy="46" r="0.5" fill="#c8c0b5" opacity="0.30"/>
<circle cx="383" cy="725" r="0.4" fill="#c8c0b5" opacity="0.30"/>
<circle cx="374" cy="64" r="0.7" fill="#c8c0b5" opacity="0.30"/>
<circle cx="416" cy="706" r="0.8" fill="#c8c0b5" opacity="0.30"/>
<circle cx="350" cy="393" r="0.8" fill="#c8c0b5" opacity="0.30"/>
<circle cx="375" cy="575" r="0.5" fill="#c8c0b5" opacity="0.30"/>
<circle cx="366" cy="520" r="0.8" fill="#c8c0b5" opacity="0.30"/>
<circle cx="436" cy="308" r="0.5" fill="#c8c0b5" opacity="0.30"/>
<circle cx="365" cy="66" r="0.4" fill="#c8c0b5" opacity="0.30"/>
<circle cx="389" cy="632" r="0.4" fill="#c8c0b5" opacity="0.30"/>
<circle cx="397" cy="225" r="0.4" fill="#c8c0b5" opacity="0.30"/>
<circle cx="376" cy="85" r="0.7" fill="#c8c0b5" opacity="0.30"/>
<circle cx="432" cy="709" r="0.6" fill="#c8c0b5" opacity="0.30"/>
<circle cx="403" cy="349" r="0.6" fill="#c8c0b5" opacity="0.30"/>
<circle cx="385" cy="378" r="0.7" fill="#c8c0b5" opacity="0.30"/>
<circle cx="433" cy="54" r="0.3" fill="#c8c0b5" opacity="0.30"/>
<circle cx="365" cy="401" r="0.7" fill="#c8c0b5" opacity="0.30"/>
<circle cx="403" cy="459" r="0.6" fill="#c8c0b5" opacity="0.30"/>
<circle cx="353" cy="370" r="0.8" fill="#c8c0b5" opacity="0.30"/>
<circle cx="378" cy="169" r="0.5" fill="#c8c0b5" opacity="0.30"/>
<circle cx="406" cy="39" r="0.5" fill="#c8c0b5" opacity="0.30"/>
<circle cx="355" cy="516" r="0.6" fill="#c8c0b5" opacity="0.30"/>
<circle cx="435" cy="742" r="0.6" fill="#c8c0b5" opacity="0.30"/>
<circle cx="425" cy="501" r="0.3" fill="#c8c0b5" opacity="0.30"/>
<circle cx="372" cy="698" r="0.5" fill="#c8c0b5" opacity="0.30"/>
<circle cx="402" cy="605" r="0.5" fill="#c8c0b5" opacity="0.30"/>
<circle cx="363" cy="363" r="0.6" fill="#c8c0b5" opacity="0.30"/>
<circle cx="386" cy="456" r="0.8" fill="#c8c0b5" opacity="0.30"/>
<circle cx="403" cy="312" r="0.5" fill="#c8c0b5" opacity="0.30"/>
<circle cx="403" cy="642" r="0.7" fill="#c8c0b5" opacity="0.30"/>
<circle cx="380" cy="750" r="0.7" fill="#c8c0b5" opacity="0.30"/>
<circle cx="426" cy="363" r="0.5" fill="#c8c0b5" opacity="0.30"/>
<circle cx="443" cy="106" r="0.4" fill="#c8c0b5" opacity="0.30"/>
<circle cx="391" cy="594" r="0.8" fill="#c8c0b5" opacity="0.30"/>
<circle cx="438" cy="432" r="0.5" fill="#c8c0b5" opacity="0.30"/>
<circle cx="396" cy="125" r="0.4" fill="#c8c0b5" opacity="0.30"/>
<circle cx="563" cy="47" r="0.6" fill="#c8c0b5" opacity="0.28"/>
<circle cx="614" cy="497" r="0.4" fill="#c8c0b5" opacity="0.28"/>
<circle cx="554" cy="345" r="0.6" fill="#c8c0b5" opacity="0.28"/>
<circle cx="558" cy="103" r="0.4" fill="#c8c0b5" opacity="0.28"/>
<circle cx="570" cy="654" r="0.8" fill="#c8c0b5" opacity="0.28"/>
<circle cx="546" cy="735" r="0.5" fill="#c8c0b5" opacity="0.28"/>
<circle cx="552" cy="358" r="0.4" fill="#c8c0b5" opacity="0.28"/>
<circle cx="579" cy="549" r="0.5" fill="#c8c0b5" opacity="0.28"/>
<circle cx="546" cy="616" r="0.7" fill="#c8c0b5" opacity="0.28"/>
<circle cx="616" cy="436" r="0.7" fill="#c8c0b5" opacity="0.28"/>
<circle cx="607" cy="289" r="0.4" fill="#c8c0b5" opacity="0.28"/>
<circle cx="555" cy="692" r="0.4" fill="#c8c0b5" opacity="0.28"/>
<circle cx="598" cy="264" r="0.7" fill="#c8c0b5" opacity="0.28"/>
<circle cx="602" cy="130" r="0.7" fill="#c8c0b5" opacity="0.28"/>
<circle cx="540" cy="177" r="0.4" fill="#c8c0b5" opacity="0.28"/>
<circle cx="571" cy="467" r="0.7" fill="#c8c0b5" opacity="0.28"/>
<circle cx="541" cy="84" r="0.7" fill="#c8c0b5" opacity="0.28"/>
<circle cx="542" cy="166" r="0.7" fill="#c8c0b5" opacity="0.28"/>
<circle cx="556" cy="40" r="0.5" fill="#c8c0b5" opacity="0.28"/>
<circle cx="620" cy="553" r="0.7" fill="#c8c0b5" opacity="0.28"/>
<circle cx="535" cy="313" r="0.6" fill="#c8c0b5" opacity="0.28"/>
<circle cx="561" cy="290" r="0.6" fill="#c8c0b5" opacity="0.28"/>
<circle cx="557" cy="676" r="0.3" fill="#c8c0b5" opacity="0.28"/>
<circle cx="567" cy="43" r="0.5" fill="#c8c0b5" opacity="0.28"/>
<circle cx="566" cy="499" r="0.4" fill="#c8c0b5" opacity="0.28"/>
<circle cx="572" cy="123" r="0.4" fill="#c8c0b5" opacity="0.28"/>
<circle cx="603" cy="606" r="0.5" fill="#c8c0b5" opacity="0.28"/>
<circle cx="553" cy="763" r="0.6" fill="#c8c0b5" opacity="0.28"/>
<circle cx="589" cy="467" r="0.7" fill="#c8c0b5" opacity="0.28"/>
<circle cx="578" cy="734" r="0.7" fill="#c8c0b5" opacity="0.28"/>
<circle cx="600" cy="331" r="0.7" fill="#c8c0b5" opacity="0.28"/>
<circle cx="597" cy="760" r="0.4" fill="#c8c0b5" opacity="0.28"/>
<circle cx="591" cy="228" r="0.4" fill="#c8c0b5" opacity="0.28"/>
<circle cx="601" cy="150" r="0.5" fill="#c8c0b5" opacity="0.28"/>
<circle cx="572" cy="443" r="0.6" fill="#c8c0b5" opacity="0.28"/>
<circle cx="723" cy="286" r="0.8" fill="#c8c0b5" opacity="0.30"/>
<circle cx="735" cy="368" r="0.5" fill="#c8c0b5" opacity="0.30"/>
<circle cx="749" cy="76" r="0.4" fill="#c8c0b5" opacity="0.30"/>
<circle cx="804" cy="378" r="0.3" fill="#c8c0b5" opacity="0.30"/>
<circle cx="804" cy="731" r="0.6" fill="#c8c0b5" opacity="0.30"/>
<circle cx="711" cy="455" r="0.5" fill="#c8c0b5" opacity="0.30"/>
<circle cx="753" cy="659" r="0.6" fill="#c8c0b5" opacity="0.30"/>
<circle cx="789" cy="643" r="0.3" fill="#c8c0b5" opacity="0.30"/>
<circle cx="713" cy="255" r="0.3" fill="#c8c0b5" opacity="0.30"/>
<circle cx="724" cy="532" r="0.7" fill="#c8c0b5" opacity="0.30"/>
<circle cx="715" cy="326" r="0.6" fill="#c8c0b5" opacity="0.30"/>
<circle cx="724" cy="575" r="0.4" fill="#c8c0b5" opacity="0.30"/>
<circle cx="712" cy="133" r="0.4" fill="#c8c0b5" opacity="0.30"/>
<circle cx="795" cy="125" r="0.4" fill="#c8c0b5" opacity="0.30"/>
<circle cx="801" cy="47" r="0.4" fill="#c8c0b5" opacity="0.30"/>
<circle cx="745" cy="414" r="0.5" fill="#c8c0b5" opacity="0.30"/>
<circle cx="805" cy="187" r="0.7" fill="#c8c0b5" opacity="0.30"/>
<circle cx="744" cy="351" r="0.4" fill="#c8c0b5" opacity="0.30"/>
<circle cx="759" cy="597" r="0.5" fill="#c8c0b5" opacity="0.30"/>
<circle cx="753" cy="380" r="0.7" fill="#c8c0b5" opacity="0.30"/>
<circle cx="774" cy="469" r="0.5" fill="#c8c0b5" opacity="0.30"/>
<circle cx="753" cy="460" r="0.7" fill="#c8c0b5" opacity="0.30"/>
<circle cx="791" cy="136" r="0.7" fill="#c8c0b5" opacity="0.30"/>
<circle cx="760" cy="229" r="0.7" fill="#c8c0b5" opacity="0.30"/>
<circle cx="729" cy="611" r="0.4" fill="#c8c0b5" opacity="0.30"/>
<circle cx="792" cy="85" r="0.6" fill="#c8c0b5" opacity="0.30"/>
<circle cx="809" cy="73" r="0.7" fill="#c8c0b5" opacity="0.30"/>
<circle cx="792" cy="447" r="0.6" fill="#c8c0b5" opacity="0.30"/>
<circle cx="809" cy="631" r="0.6" fill="#c8c0b5" opacity="0.30"/>
<circle cx="806" cy="763" r="0.5" fill="#c8c0b5" opacity="0.30"/>
<circle cx="778" cy="46" r="0.7" fill="#c8c0b5" opacity="0.30"/>
<circle cx="741" cy="475" r="0.6" fill="#c8c0b5" opacity="0.30"/>
<circle cx="712" cy="429" r="0.6" fill="#c8c0b5" opacity="0.30"/>
<circle cx="716" cy="134" r="0.7" fill="#c8c0b5" opacity="0.30"/>
<circle cx="781" cy="50" r="0.5" fill="#c8c0b5" opacity="0.30"/>
<circle cx="711" cy="153" r="0.4" fill="#c8c0b5" opacity="0.30"/>
<circle cx="712" cy="68" r="0.7" fill="#c8c0b5" opacity="0.30"/>
<circle cx="750" cy="356" r="0.7" fill="#c8c0b5" opacity="0.30"/>
<circle cx="754" cy="598" r="0.6" fill="#c8c0b5" opacity="0.30"/>
<circle cx="722" cy="499" r="0.7" fill="#c8c0b5" opacity="0.30"/>
<line x1="30" y1="740" x2="770" y2="740" stroke="#c8bfb0" stroke-width="1" opacity="0.4"/>
<g filter="url(#ink)">
<path d="M392.3,727.6 Q394.9,719.2 398.9,709.6" fill="none" stroke="#00668b" stroke-width="2.74" opacity="0.85" stroke-linecap="round"/>
<path d="M398.9,709.6 Q405.7,699.3 409.8,686.4" fill="none" stroke="#00668b" stroke-width="2.74" opacity="0.85" stroke-linecap="round"/>
<path d="M409.8,686.4 Q408.7,673.6 407.7,663.6" fill="none" stroke="#0079a3" stroke-width="1.78" opacity="0.73" stroke-linecap="round"/>
<path d="M407.7,663.6 Q406.1,649.6 406.6,636.0" fill="none" stroke="#0079a3" stroke-width="1.78" opacity="0.73" stroke-linecap="round"/>
<path d="M406.6,636.0 Q408.7,629.8 411.9,626.3" fill="none" stroke="#008cb9" stroke-width="1.07" opacity="0.61" stroke-linecap="round"/>
<path d="M411.9,626.3 Q415.5,620.2 416.8,616.3" fill="none" stroke="#008cb9" stroke-width="1.07" opacity="0.61" stroke-linecap="round"/>
<path d="M406.6,636.0 Q407.8,630.6 411.1,625.7" fill="none" stroke="#008cb9" stroke-width="1.07" opacity="0.61" stroke-linecap="round"/>
<path d="M411.1,625.7 Q413.8,620.2 416.1,613.4" fill="none" stroke="#008cb9" stroke-width="1.07" opacity="0.61" stroke-linecap="round"/>
<path d="M409.8,686.4 Q416.6,676.5 422.3,666.0" fill="none" stroke="#00668b" stroke-width="2.74" opacity="0.85" stroke-linecap="round"/>
<path d="M422.3,666.0 Q429.7,654.8 434.5,645.6" fill="none" stroke="#00668b" stroke-width="2.74" opacity="0.85" stroke-linecap="round"/>
<path d="M434.5,645.6 Q432.3,630.1 432.6,617.5" fill="none" stroke="#0079a3" stroke-width="1.78" opacity="0.73" stroke-linecap="round"/>
<path d="M432.6,617.5 Q432.0,606.4 430.0,595.1" fill="none" stroke="#0079a3" stroke-width="1.78" opacity="0.73" stroke-linecap="round"/>
<path d="M430.0,595.1 Q426.9,584.8 426.7,571.7" fill="none" stroke="#0079a3" stroke-width="1.78" opacity="0.73" stroke-linecap="round"/>
<path d="M426.7,571.7 Q424.3,566.0 419.3,557.8" fill="none" stroke="#008cb9" stroke-width="1.07" opacity="0.61" stroke-linecap="round"/>
<path d="M419.3,557.8 Q416.4,549.5 412.5,544.0" fill="none" stroke="#008cb9" stroke-width="1.07" opacity="0.61" stroke-linecap="round"/>
<path d="M434.5,645.6 Q438.6,636.4 443.3,627.9" fill="none" stroke="#00668b" stroke-width="2.74" opacity="0.85" stroke-linecap="round"/>
<path d="M443.3,627.9 Q454.6,617.8 467.4,608.6" fill="none" stroke="#0079a3" stroke-width="1.78" opacity="0.73" stroke-linecap="round"/>
<path d="M467.4,608.6 Q470.1,598.0 470.8,586.4" fill="none" stroke="#008cb9" stroke-width="1.16" opacity="0.61" stroke-linecap="round"/>
<path d="M470.8,586.4 Q470.5,576.4 471.7,567.6" fill="none" stroke="#008cb9" stroke-width="1.16" opacity="0.61" stroke-linecap="round"/>
<path d="M467.4,608.6 Q477.4,599.4 490.2,588.2" fill="none" stroke="#0079a3" stroke-width="1.78" opacity="0.73" stroke-linecap="round"/>
<path d="M490.2,588.2 Q491.5,580.6 491.7,572.3" fill="none" stroke="#008cb9" stroke-width="1.07" opacity="0.61" stroke-linecap="round"/>
<path d="M491.7,572.3 Q492.8,564.3 492.2,557.2" fill="none" stroke="#008cb9" stroke-width="1.07" opacity="0.61" stroke-linecap="round"/>
<path d="M443.3,627.9 Q441.8,616.8 438.5,607.1" fill="none" stroke="#0079a3" stroke-width="1.64" opacity="0.73" stroke-linecap="round"/>
<path d="M438.5,607.1 Q435.7,594.2 431.3,580.3" fill="none" stroke="#0079a3" stroke-width="1.64" opacity="0.73" stroke-linecap="round"/>
<path d="M431.3,580.3 Q427.6,578.5 424.9,574.2" fill="none" stroke="#008cb9" stroke-width="0.99" opacity="0.61" stroke-linecap="round"/>
<path d="M424.9,574.2 Q421.8,572.1 418.9,568.7" fill="none" stroke="#008cb9" stroke-width="0.99" opacity="0.61" stroke-linecap="round"/>
<path d="M443.3,627.9 Q441.5,618.4 438.4,608.7" fill="none" stroke="#0079a3" stroke-width="1.64" opacity="0.73" stroke-linecap="round"/>
<path d="M438.4,608.7 Q437.1,599.9 433.6,592.1" fill="none" stroke="#0079a3" stroke-width="1.64" opacity="0.73" stroke-linecap="round"/>
<path d="M433.6,592.1 Q434.7,588.2 436.0,582.6" fill="none" stroke="#008cb9" stroke-width="0.99" opacity="0.61" stroke-linecap="round"/>
<path d="M436.0,582.6 Q436.6,577.2 438.2,572.2" fill="none" stroke="#008cb9" stroke-width="0.99" opacity="0.61" stroke-linecap="round"/>
<path d="M433.6,592.1 Q430.3,588.6 428.1,587.6" fill="none" stroke="#008cb9" stroke-width="0.99" opacity="0.61" stroke-linecap="round"/>
<path d="M428.1,587.6 Q425.7,586.4 421.6,582.4" fill="none" stroke="#008cb9" stroke-width="0.99" opacity="0.61" stroke-linecap="round"/>
<path d="M392.3,727.6 Q392.0,716.8 392.6,704.7" fill="none" stroke="#962b00" stroke-width="2.65" opacity="0.85" stroke-linecap="round"/>
<path d="M392.6,704.7 Q388.3,689.7 381.0,676.9" fill="none" stroke="#a44f00" stroke-width="1.72" opacity="0.73" stroke-linecap="round"/>
<path d="M381.0,676.9 Q376.7,663.3 371.3,652.6" fill="none" stroke="#a44f00" stroke-width="1.72" opacity="0.73" stroke-linecap="round"/>
<path d="M371.3,652.6 Q373.3,649.1 375.0,643.1" fill="none" stroke="#b16e25" stroke-width="1.03" opacity="0.61" stroke-linecap="round"/>
<path d="M375.0,643.1 Q377.0,638.0 377.8,635.8" fill="none" stroke="#b16e25" stroke-width="1.03" opacity="0.61" stroke-linecap="round"/>
<path d="M392.6,704.7 Q394.7,695.2 395.0,683.7" fill="none" stroke="#962b00" stroke-width="2.65" opacity="0.85" stroke-linecap="round"/>
<path d="M395.0,683.7 Q388.1,676.3 383.4,668.5" fill="none" stroke="#a44f00" stroke-width="1.72" opacity="0.73" stroke-linecap="round"/>
<path d="M383.4,668.5 Q378.0,661.3 369.9,651.3" fill="none" stroke="#a44f00" stroke-width="1.72" opacity="0.73" stroke-linecap="round"/>
<path d="M369.9,651.3 Q364.3,642.0 356.0,633.7" fill="none" stroke="#a44f00" stroke-width="1.72" opacity="0.73" stroke-linecap="round"/>
<path d="M356.0,633.7 Q353.8,624.7 350.8,617.9" fill="none" stroke="#b16e25" stroke-width="1.03" opacity="0.61" stroke-linecap="round"/>
<path d="M350.8,617.9 Q347.4,608.7 345.9,602.1" fill="none" stroke="#b16e25" stroke-width="1.03" opacity="0.61" stroke-linecap="round"/>
<path d="M395.0,683.7 Q395.6,674.1 398.0,662.3" fill="none" stroke="#962b00" stroke-width="2.65" opacity="0.85" stroke-linecap="round"/>
<path d="M398.0,662.3 Q398.7,654.8 399.1,645.8" fill="none" stroke="#962b00" stroke-width="2.65" opacity="0.85" stroke-linecap="round"/>
<path d="M399.1,645.8 Q399.5,635.9 399.1,624.3" fill="none" stroke="#962b00" stroke-width="2.65" opacity="0.85" stroke-linecap="round"/>
<path d="M399.1,624.3 Q394.9,614.7 388.4,605.5" fill="none" stroke="#a44f00" stroke-width="1.59" opacity="0.73" stroke-linecap="round"/>
<path d="M388.4,605.5 Q380.4,595.4 375.3,584.3" fill="none" stroke="#a44f00" stroke-width="1.59" opacity="0.73" stroke-linecap="round"/>
<path d="M375.3,584.3 Q374.2,580.5 376.0,575.8" fill="none" stroke="#b16e25" stroke-width="0.95" opacity="0.61" stroke-linecap="round"/>
<path d="M376.0,575.8 Q376.9,571.0 376.8,567.0" fill="none" stroke="#b16e25" stroke-width="0.95" opacity="0.61" stroke-linecap="round"/>
<path d="M399.1,624.3 Q392.0,618.8 385.6,611.7" fill="none" stroke="#a44f00" stroke-width="1.59" opacity="0.73" stroke-linecap="round"/>
<path d="M385.6,611.7 Q376.9,604.7 369.6,597.3" fill="none" stroke="#a44f00" stroke-width="1.59" opacity="0.73" stroke-linecap="round"/>
<path d="M369.6,597.3 Q369.3,592.7 366.9,588.7" fill="none" stroke="#b16e25" stroke-width="0.95" opacity="0.61" stroke-linecap="round"/>
<path d="M366.9,588.7 Q364.2,582.8 364.3,579.8" fill="none" stroke="#b16e25" stroke-width="0.95" opacity="0.61" stroke-linecap="round"/>
<path d="M369.6,597.3 Q367.5,592.9 367.1,587.6" fill="none" stroke="#b16e25" stroke-width="0.95" opacity="0.61" stroke-linecap="round"/>
<path d="M367.1,587.6 Q364.8,582.2 364.6,577.2" fill="none" stroke="#b16e25" stroke-width="0.95" opacity="0.61" stroke-linecap="round"/>
<circle cx="416.8" cy="616.3" r="2.8" fill="#0095fe" opacity="0.6"/>
<circle cx="416.8" cy="616.3" r="1.0" fill="#a0d8e6" opacity="0.7"/>
<circle cx="416.1" cy="613.4" r="2.8" fill="#0095fe" opacity="0.6"/>
<circle cx="416.1" cy="613.4" r="1.0" fill="#a0d8e6" opacity="0.7"/>
<circle cx="406.6" cy="636.0" r="2.8" fill="#0095fe" opacity="0.6"/>
<circle cx="406.6" cy="636.0" r="1.0" fill="#a0d8e6" opacity="0.7"/>
<circle cx="412.5" cy="544.0" r="2.8" fill="#0095fe" opacity="0.6"/>
<circle cx="412.5" cy="544.0" r="1.0" fill="#a0d8e6" opacity="0.7"/>
<circle cx="426.7" cy="571.7" r="2.8" fill="#0095fe" opacity="0.6"/>
<circle cx="426.7" cy="571.7" r="1.0" fill="#a0d8e6" opacity="0.7"/>
<circle cx="471.7" cy="567.6" r="2.8" fill="#0095fe" opacity="0.6"/>
<circle cx="471.7" cy="567.6" r="1.0" fill="#a0d8e6" opacity="0.7"/>
<circle cx="492.2" cy="557.2" r="2.8" fill="#0095fe" opacity="0.6"/>
<circle cx="492.2" cy="557.2" r="1.0" fill="#a0d8e6" opacity="0.7"/>
<circle cx="490.2" cy="588.2" r="2.8" fill="#0095fe" opacity="0.6"/>
<circle cx="490.2" cy="588.2" r="1.0" fill="#a0d8e6" opacity="0.7"/>
<circle cx="418.9" cy="568.7" r="2.8" fill="#0095fe" opacity="0.6"/>
<circle cx="418.9" cy="568.7" r="1.0" fill="#a0d8e6" opacity="0.7"/>
<circle cx="431.3" cy="580.3" r="2.8" fill="#0095fe" opacity="0.6"/>
<circle cx="431.3" cy="580.3" r="1.0" fill="#a0d8e6" opacity="0.7"/>
<circle cx="438.2" cy="572.2" r="2.8" fill="#0095fe" opacity="0.6"/>
<circle cx="438.2" cy="572.2" r="1.0" fill="#a0d8e6" opacity="0.7"/>
<circle cx="421.6" cy="582.4" r="2.8" fill="#0095fe" opacity="0.6"/>
<circle cx="421.6" cy="582.4" r="1.0" fill="#a0d8e6" opacity="0.7"/>
<circle cx="433.6" cy="592.1" r="2.8" fill="#0095fe" opacity="0.6"/>
<circle cx="433.6" cy="592.1" r="1.0" fill="#a0d8e6" opacity="0.7"/>
<circle cx="377.8" cy="635.8" r="3.6" fill="#cf7800" opacity="0.6"/>
<circle cx="377.8" cy="635.8" r="1.3" fill="#a0d8e6" opacity="0.7"/>
<circle cx="371.3" cy="652.6" r="3.6" fill="#cf7800" opacity="0.6"/>
<circle cx="371.3" cy="652.6" r="1.3" fill="#a0d8e6" opacity="0.7"/>
<circle cx="345.9" cy="602.1" r="3.6" fill="#cf7800" opacity="0.6"/>
<circle cx="345.9" cy="602.1" r="1.3" fill="#a0d8e6" opacity="0.7"/>
<circle cx="356.0" cy="633.7" r="3.6" fill="#cf7800" opacity="0.6"/>
<circle cx="356.0" cy="633.7" r="1.3" fill="#a0d8e6" opacity="0.7"/>
<circle cx="376.8" cy="567.0" r="3.6" fill="#cf7800" opacity="0.6"/>
<circle cx="376.8" cy="567.0" r="1.3" fill="#a0d8e6" opacity="0.7"/>
<circle cx="375.3" cy="584.3" r="3.6" fill="#cf7800" opacity="0.6"/>
<circle cx="375.3" cy="584.3" r="1.3" fill="#a0d8e6" opacity="0.7"/>
<circle cx="364.3" cy="579.8" r="3.6" fill="#cf7800" opacity="0.6"/>
<circle cx="364.3" cy="579.8" r="1.3" fill="#a0d8e6" opacity="0.7"/>
<circle cx="364.6" cy="577.2" r="3.6" fill="#cf7800" opacity="0.6"/>
<circle cx="364.6" cy="577.2" r="1.3" fill="#a0d8e6" opacity="0.7"/>
<circle cx="369.6" cy="597.3" r="3.6" fill="#cf7800" opacity="0.6"/>
<circle cx="369.6" cy="597.3" r="1.3" fill="#a0d8e6" opacity="0.7"/>
</g>
<circle cx="392" cy="728" r="4" fill="#8b7d6b" opacity="0.3"/>
<rect x="20" y="20" width="760" height="760" fill="none" stroke="#e0d8cc" stroke-width="0.5" rx="3"/>
</svg>
