<svg xmlns="http://www.w3.org/2000/svg" viewBox="0 0 800 800" width="800" height="800">
<defs>
  <filter id="bloom" x="-50%" y="-50%" width="200%" height="200%">
    <feGaussianBlur in="SourceGraphic" stdDeviation="2" result="b1"/>
    <feGaussianBlur in="SourceGraphic" stdDeviation="6" result="b2"/>
    <feGaussianBlur in="SourceGraphic" stdDeviation="14" result="b3"/>
    <feColorMatrix in="b3" type="matrix" result="bright"
      values="1.6 0 0 0 0.1  0 1.6 0 0 0.1  0 0 1.6 0 0.1  0 0 0 0.5 0"/>
    <feMerge>
      <feMergeNode in="bright"/><feMergeNode in="b2"/>
      <feMergeNode in="b1"/><feMergeNode in="SourceGraphic"/>
    </feMerge>
  </filter>
  <filter id="rootBloom" x="-50%" y="-50%" width="200%" height="200%">
    <feGaussianBlur in="SourceGraphic" stdDeviation="2" result="b1"/>
    <feGaussianBlur in="SourceGraphic" stdDeviation="6" result="b2"/>
    <feGaussianBlur in="SourceGraphic" stdDeviation="14" result="b3"/>
    <feColorMatrix in="b3" type="matrix" result="bright"
      values="1.6 0 0 0 0.1  0 1.6 0 0 0.1  0 0 1.6 0 0.1  0 0 0 0.5 0"/>
    <feMerge>
      <feMergeNode in="bright"/><feMergeNode in="b2"/>
      <feMergeNode in="b1"/><feMergeNode in="SourceGraphic"/>
    </feMerge>
  </filter>
  <filter id="pollenGlow" x="-80%" y="-80%" width="260%" height="260%">
    <feGaussianBlur stdDeviation="5"/>
    <feColorMatrix type="matrix"
      values="1.4 0 0 0 0.1  0 1.4 0 0 0.1  0 0 1.4 0 0.1  0 0 0 0.5 0"/>
  </filter>
  <linearGradient id="bg" x1="0" y1="0" x2="0" y2="1">
    <stop offset="0%" stop-color="#040418"/>
    <stop offset="48%" stop-color="#040418"/>
    <stop offset="52%" stop-color="#0a0804"/>
    <stop offset="100%" stop-color="#0a0804"/>
  </linearGradient>
  <radialGradient id="vig" cx="50%" cy="50%" r="55%">
    <stop offset="40%" stop-color="black" stop-opacity="0"/>
    <stop offset="100%" stop-color="black" stop-opacity="0.5"/>
  </radialGradient>
</defs>
<style>
  @keyframes bloomUp {
    from { transform: scaleY(0); opacity: 0; }
    to { transform: scaleY(1); opacity: 1; }
  }
  @keyframes rootGrow {
    from { stroke-dashoffset: var(--len); }
    to { stroke-dashoffset: 0; }
  }
  @keyframes pollen {
    0% { r: 1; opacity: 0.7; }
    100% { r: var(--pr); opacity: 0; transform: translateY(var(--py)); }
  }
  .bloom-stem {
    transform-origin: var(--ox) var(--oy);
    animation: bloomUp 2s cubic-bezier(0.34, 1.56, 0.64, 1) forwards;
    opacity: 0;
  }
  .root {
    stroke-dasharray: var(--len);
    stroke-dashoffset: var(--len);
    animation: rootGrow var(--dur) cubic-bezier(0.23, 1, 0.32, 1) forwards;
  }
  .pollen-particle {
    animation: pollen 5s ease-out infinite;
  }
</style>
<rect width="800" height="800" fill="url(#bg)"/>
<circle cx="339" cy="504" r="0.4" fill="#301213" opacity="0.000"/>
<circle cx="452" cy="630" r="0.7" fill="#41211d" opacity="0.001"/>
<circle cx="387" cy="539" r="0.7" fill="#2b0e06" opacity="0.000"/>
<g filter="url(#rootBloom)">
<path d="M67.4,397.5 Q66.8,401.1 65.6,402.8" fill="none" stroke="#641f1e" stroke-width="2.00" stroke-linecap="round" class="root" style="--len:6;--dur:1.5s;animation-delay:0.00s;opacity:0.400"/>
<path d="M65.6,402.8 Q63.8,405.4 62.8,407.9" fill="none" stroke="#5a1807" stroke-width="1.09" stroke-linecap="round" class="root" style="--len:6;--dur:1.7s;animation-delay:2.66s;opacity:0.333"/>
<path d="M62.8,407.9 Q61.8,411.7 60.1,416.3" fill="none" stroke="#5a1807" stroke-width="1.09" stroke-linecap="round" class="root" style="--len:9;--dur:1.7s;animation-delay:2.92s;opacity:0.333"/>
<path d="M60.1,416.3 Q60.7,417.5 60.2,419.4" fill="none" stroke="#4e1100" stroke-width="0.38" stroke-linecap="round" class="root" style="--len:3;--dur:1.9s;animation-delay:5.58s;opacity:0.267"/>
<path d="M60.2,419.4 Q61.0,421.8 60.1,422.3" fill="none" stroke="#4e1100" stroke-width="0.38" stroke-linecap="round" class="root" style="--len:3;--dur:1.9s;animation-delay:5.84s;opacity:0.267"/>
<path d="M65.6,402.8 Q64.9,404.8 63.4,408.3" fill="none" stroke="#641f1e" stroke-width="2.00" stroke-linecap="round" class="root" style="--len:6;--dur:1.5s;animation-delay:1.30s;opacity:0.400"/>
<path d="M63.4,408.3 Q61.9,410.5 61.5,412.1" fill="none" stroke="#641f1e" stroke-width="2.00" stroke-linecap="round" class="root" style="--len:4;--dur:1.5s;animation-delay:1.57s;opacity:0.400"/>
<path d="M61.5,412.1 Q63.7,416.0 65.3,418.4" fill="none" stroke="#5a1807" stroke-width="1.09" stroke-linecap="round" class="root" style="--len:7;--dur:1.7s;animation-delay:4.23s;opacity:0.333"/>
<path d="M65.3,418.4 Q66.6,419.2 68.9,419.1" fill="none" stroke="#4e1100" stroke-width="0.38" stroke-linecap="round" class="root" style="--len:4;--dur:1.9s;animation-delay:6.89s;opacity:0.267"/>
<path d="M68.9,419.1 Q70.7,418.9 71.9,419.8" fill="none" stroke="#4e1100" stroke-width="0.38" stroke-linecap="round" class="root" style="--len:3;--dur:1.9s;animation-delay:7.15s;opacity:0.267"/>
<path d="M65.3,418.4 Q67.0,420.6 69.2,422.4" fill="none" stroke="#5a1807" stroke-width="1.09" stroke-linecap="round" class="root" style="--len:6;--dur:1.7s;animation-delay:5.01s;opacity:0.333"/>
<path d="M69.2,422.4 Q71.4,422.9 72.4,424.2" fill="none" stroke="#4e1100" stroke-width="0.38" stroke-linecap="round" class="root" style="--len:4;--dur:1.9s;animation-delay:7.67s;opacity:0.267"/>
<path d="M72.4,424.2 Q72.7,425.8 73.4,426.4" fill="none" stroke="#420b00" stroke-width="0.30" stroke-linecap="round" class="root" style="--len:2;--dur:2.1s;animation-delay:10.33s;opacity:0.200"/>
<path d="M73.4,426.4 Q73.8,427.8 74.2,428.5" fill="none" stroke="#420b00" stroke-width="0.30" stroke-linecap="round" class="root" style="--len:2;--dur:2.1s;animation-delay:10.59s;opacity:0.200"/>
<path d="M72.4,424.2 Q74.7,424.9 75.1,425.6" fill="none" stroke="#4e1100" stroke-width="0.38" stroke-linecap="round" class="root" style="--len:3;--dur:1.9s;animation-delay:8.45s;opacity:0.267"/>
<path d="M75.1,425.6 Q76.1,425.2 77.2,425.5" fill="none" stroke="#420b00" stroke-width="0.30" stroke-linecap="round" class="root" style="--len:2;--dur:2.1s;animation-delay:11.11s;opacity:0.200"/>
<path d="M77.2,425.5 Q78.4,424.6 78.7,425.5" fill="none" stroke="#420b00" stroke-width="0.30" stroke-linecap="round" class="root" style="--len:2;--dur:2.1s;animation-delay:11.37s;opacity:0.200"/>
<path d="M61.5,412.1 Q60.6,414.1 59.2,415.6" fill="none" stroke="#641f1e" stroke-width="2.00" stroke-linecap="round" class="root" style="--len:4;--dur:1.5s;animation-delay:4.43s;opacity:0.400"/>
<path d="M59.2,415.6 Q56.5,418.6 53.6,422.7" fill="none" stroke="#5a1807" stroke-width="1.09" stroke-linecap="round" class="root" style="--len:9;--dur:1.7s;animation-delay:7.10s;opacity:0.333"/>
<path d="M53.6,422.7 Q51.5,426.9 50.8,429.2" fill="none" stroke="#5a1807" stroke-width="1.09" stroke-linecap="round" class="root" style="--len:7;--dur:1.7s;animation-delay:7.36s;opacity:0.333"/>
<path d="M50.8,429.2 Q50.0,431.0 47.6,432.2" fill="none" stroke="#4e1100" stroke-width="0.38" stroke-linecap="round" class="root" style="--len:4;--dur:1.9s;animation-delay:10.02s;opacity:0.267"/>
<path d="M47.6,432.2 Q45.5,433.5 45.0,434.6" fill="none" stroke="#4e1100" stroke-width="0.38" stroke-linecap="round" class="root" style="--len:4;--dur:1.9s;animation-delay:10.28s;opacity:0.267"/>
<path d="M59.2,415.6 Q60.0,418.2 59.7,420.0" fill="none" stroke="#5a1807" stroke-width="1.09" stroke-linecap="round" class="root" style="--len:4;--dur:1.7s;animation-delay:8.14s;opacity:0.333"/>
<path d="M59.7,420.0 Q60.7,424.0 62.3,426.7" fill="none" stroke="#5a1807" stroke-width="1.09" stroke-linecap="round" class="root" style="--len:7;--dur:1.7s;animation-delay:8.40s;opacity:0.333"/>
<path d="M62.3,426.7 Q62.0,427.6 62.2,430.3" fill="none" stroke="#4e1100" stroke-width="0.38" stroke-linecap="round" class="root" style="--len:4;--dur:1.9s;animation-delay:11.06s;opacity:0.267"/>
<path d="M62.2,430.3 Q62.7,432.8 62.3,433.6" fill="none" stroke="#4e1100" stroke-width="0.38" stroke-linecap="round" class="root" style="--len:3;--dur:1.9s;animation-delay:11.32s;opacity:0.267"/>
<path d="M59.2,415.6 Q60.4,418.1 60.0,420.0" fill="none" stroke="#5a1807" stroke-width="1.09" stroke-linecap="round" class="root" style="--len:4;--dur:1.7s;animation-delay:9.18s;opacity:0.333"/>
<path d="M60.0,420.0 Q60.7,423.7 63.0,426.9" fill="none" stroke="#5a1807" stroke-width="1.09" stroke-linecap="round" class="root" style="--len:8;--dur:1.7s;animation-delay:9.44s;opacity:0.333"/>
<path d="M63.0,426.9 Q63.1,429.1 63.2,429.3" fill="none" stroke="#4e1100" stroke-width="0.38" stroke-linecap="round" class="root" style="--len:2;--dur:1.9s;animation-delay:12.10s;opacity:0.267"/>
<path d="M63.2,429.3 Q63.8,431.1 63.6,431.9" fill="none" stroke="#4e1100" stroke-width="0.38" stroke-linecap="round" class="root" style="--len:3;--dur:1.9s;animation-delay:12.37s;opacity:0.267"/>
<path d="M63.0,426.9 Q63.4,428.8 63.1,429.3" fill="none" stroke="#4e1100" stroke-width="0.38" stroke-linecap="round" class="root" style="--len:2;--dur:1.9s;animation-delay:12.63s;opacity:0.267"/>
<path d="M63.1,429.3 Q63.5,430.5 62.6,430.5" fill="none" stroke="#420b00" stroke-width="0.30" stroke-linecap="round" class="root" style="--len:1;--dur:2.1s;animation-delay:15.29s;opacity:0.200"/>
<path d="M62.6,430.5 Q61.6,431.9 61.8,432.4" fill="none" stroke="#420b00" stroke-width="0.30" stroke-linecap="round" class="root" style="--len:2;--dur:2.1s;animation-delay:15.55s;opacity:0.200"/>
<path d="M63.1,429.3 Q63.2,431.6 63.3,431.9" fill="none" stroke="#4e1100" stroke-width="0.38" stroke-linecap="round" class="root" style="--len:3;--dur:1.9s;animation-delay:13.41s;opacity:0.267"/>
<path d="M725.2,400.4 Q724.7,403.2 723.3,406.7" fill="none" stroke="#641f1e" stroke-width="2.00" stroke-linecap="round" class="root" style="--len:7;--dur:1.5s;animation-delay:8.87s;opacity:0.400"/>
<path d="M723.3,406.7 Q721.9,408.4 721.6,410.9" fill="none" stroke="#641f1e" stroke-width="2.00" stroke-linecap="round" class="root" style="--len:5;--dur:1.5s;animation-delay:9.13s;opacity:0.400"/>
<path d="M721.6,410.9 Q720.1,413.7 719.2,416.1" fill="none" stroke="#641f1e" stroke-width="2.00" stroke-linecap="round" class="root" style="--len:6;--dur:1.5s;animation-delay:9.39s;opacity:0.400"/>
<path d="M719.2,416.1 Q717.1,419.8 715.5,421.6" fill="none" stroke="#641f1e" stroke-width="2.00" stroke-linecap="round" class="root" style="--len:7;--dur:1.5s;animation-delay:9.65s;opacity:0.400"/>
<path d="M715.5,421.6 Q713.5,422.3 711.5,423.5" fill="none" stroke="#5a1807" stroke-width="1.09" stroke-linecap="round" class="root" style="--len:4;--dur:1.7s;animation-delay:12.31s;opacity:0.333"/>
<path d="M711.5,423.5 Q708.2,424.2 705.0,425.9" fill="none" stroke="#5a1807" stroke-width="1.09" stroke-linecap="round" class="root" style="--len:7;--dur:1.7s;animation-delay:12.57s;opacity:0.333"/>
<path d="M705.0,425.9 Q704.4,426.3 702.3,425.6" fill="none" stroke="#4e1100" stroke-width="0.38" stroke-linecap="round" class="root" style="--len:3;--dur:1.9s;animation-delay:15.23s;opacity:0.267"/>
<path d="M702.3,425.6 Q700.6,425.8 699.6,425.3" fill="none" stroke="#4e1100" stroke-width="0.38" stroke-linecap="round" class="root" style="--len:3;--dur:1.9s;animation-delay:15.50s;opacity:0.267"/>
<path d="M705.0,425.9 Q704.3,426.5 702.6,428.7" fill="none" stroke="#4e1100" stroke-width="0.38" stroke-linecap="round" class="root" style="--len:4;--dur:1.9s;animation-delay:15.76s;opacity:0.267"/>
<path d="M702.6,428.7 Q701.9,430.4 700.8,430.9" fill="none" stroke="#4e1100" stroke-width="0.38" stroke-linecap="round" class="root" style="--len:3;--dur:1.9s;animation-delay:16.02s;opacity:0.267"/>
<path d="M700.8,430.9 Q701.3,432.2 700.7,432.8" fill="none" stroke="#420b00" stroke-width="0.30" stroke-linecap="round" class="root" style="--len:2;--dur:2.1s;animation-delay:18.68s;opacity:0.200"/>
<path d="M700.7,432.8 Q699.7,434.8 700.4,435.2" fill="none" stroke="#420b00" stroke-width="0.30" stroke-linecap="round" class="root" style="--len:2;--dur:2.1s;animation-delay:18.94s;opacity:0.200"/>
</g>
<path d="M0,400 L5,400 L10,399 L15,398 L20,398 L25,397 L30,397 L35,397 L40,397 L45,397 L50,397 L55,397 L60,397 L65,398 L70,398 L75,398 L80,398 L85,399 L90,399 L95,399 L100,399 L105,399 L110,399 L115,400 L120,400 L125,400 L130,400 L135,400 L140,400 L145,401 L150,401 L155,402 L160,402 L165,402 L170,402 L175,402 L180,401 L185,401 L190,401 L195,401 L200,401 L205,401 L210,401 L215,401 L220,401 L225,400 L230,400 L235,400 L240,400 L245,400 L250,400 L255,400 L260,399 L265,399 L270,399 L275,399 L280,399 L285,399 L290,400 L295,400 L300,401 L305,401 L310,401 L315,401 L320,401 L325,401 L330,401 L335,401 L340,401 L345,401 L350,401 L355,400 L360,400 L365,400 L370,400 L375,400 L380,400 L385,400 L390,400 L395,401 L400,401 L405,402 L410,402 L415,402 L420,402 L425,402 L430,402 L435,402 L440,402 L445,401 L450,401 L455,401 L460,401 L465,401 L470,401 L475,402 L480,402 L485,402 L490,401 L495,401 L500,400 L505,399 L510,399 L515,399 L520,399 L525,398 L530,398 L535,397 L540,396 L545,396 L550,396 L555,396 L560,396 L565,397 L570,397 L575,398 L580,398 L585,399 L590,399 L595,399 L600,399 L605,400 L610,400 L615,400 L620,400 L625,400 L630,400 L635,400 L640,400 L645,400 L650,400 L655,400 L660,400 L665,400 L670,400 L675,401 L680,401 L685,401 L690,400 L695,400 L700,400 L705,400 L710,400 L715,400 L720,400 L725,400 L730,401 L735,401 L740,400 L745,400 L750,400 L755,400 L760,400 L765,400 L770,400 L775,400 L780,400 L785,401 L790,401 L795,401 L800,402" fill="none" stroke="#372d00" stroke-width="1.5" opacity="0.3"/>
<g filter="url(#bloom)">
<g class="bloom-stem" style="animation-delay:3.00s;--ox:55px;--oy:397px">
<path d="M55.3,397.0 Q53.2,385.0 55.8,373.1" fill="none" stroke="#405826" stroke-width="1" opacity="0.4" stroke-linecap="round"/>
<circle cx="56.1" cy="361.2" r="6.2" fill="#00bea0" opacity="0.658"/>
<circle cx="56.1" cy="361.2" r="12.5" fill="#33bfaa" opacity="0.129" filter="url(#pollenGlow)"/>
<circle cx="52.9" cy="360.0" r="1" fill="#40b1b6" class="pollen-particle" style="--pr:5;--py:-10px;animation-delay:4.4s;animation-duration:3.3s"/>
<circle cx="50.3" cy="365.9" r="1" fill="#40b1b6" class="pollen-particle" style="--pr:11;--py:-21px;animation-delay:5.1s;animation-duration:3.3s"/>
<circle cx="47.5" cy="359.2" r="1" fill="#40b1b6" class="pollen-particle" style="--pr:14;--py:-28px;animation-delay:3.8s;animation-duration:6.1s"/>
</g>
<g class="bloom-stem" style="animation-delay:8.00s;--ox:403px;--oy:401px">
<path d="M402.5,401.2 Q403.3,390.1 402.9,379.0" fill="none" stroke="#314715" stroke-width="1" opacity="0.4" stroke-linecap="round"/>
<circle cx="402.4" cy="368.0" r="4.7" fill="#ab57c6" opacity="0.539"/>
<circle cx="402.4" cy="368.0" r="9.5" fill="#b37cc5" opacity="0.069" filter="url(#pollenGlow)"/>
<circle cx="395.7" cy="365.6" r="1" fill="#c685b4" class="pollen-particle" style="--pr:9;--py:-17px;animation-delay:9.6s;animation-duration:4.1s"/>
<circle cx="399.5" cy="368.2" r="1" fill="#c685b4" class="pollen-particle" style="--pr:11;--py:-23px;animation-delay:8.6s;animation-duration:3.1s"/>
</g>
<g class="bloom-stem" style="animation-delay:13.00s;--ox:746px;--oy:400px">
<path d="M745.7,400.2 Q746.7,389.5 746.2,378.8" fill="none" stroke="#475f2d" stroke-width="1" opacity="0.4" stroke-linecap="round"/>
<circle cx="744.2" cy="368.1" r="6.9" fill="#cba400" opacity="0.709"/>
<circle cx="744.2" cy="368.1" r="13.7" fill="#c7ae4d" opacity="0.154" filter="url(#pollenGlow)"/>
<circle cx="740.2" cy="363.8" r="1" fill="#9ca55a" class="pollen-particle" style="--pr:10;--py:-20px;animation-delay:14.4s;animation-duration:6.8s"/>
<circle cx="746.4" cy="371.7" r="1" fill="#9ca55a" class="pollen-particle" style="--pr:11;--py:-21px;animation-delay:15.6s;animation-duration:5.0s"/>
<circle cx="746.7" cy="364.3" r="1" fill="#9ca55a" class="pollen-particle" style="--pr:12;--py:-25px;animation-delay:14.0s;animation-duration:6.2s"/>
<circle cx="753.6" cy="371.1" r="1" fill="#9ca55a" class="pollen-particle" style="--pr:12;--py:-24px;animation-delay:14.5s;animation-duration:5.3s"/>
</g>
</g>
<rect width="800" height="800" fill="url(#vig)"/>
</svg>
