<svg xmlns="http://www.w3.org/2000/svg" viewBox="0 0 800 800" width="800" height="800">
<defs>
  <filter id="bloom" x="-50%" y="-50%" width="200%" height="200%">
    <feGaussianBlur in="SourceGraphic" stdDeviation="1.5" result="b1"/>
    <feGaussianBlur in="SourceGraphic" stdDeviation="5" result="b2"/>
    <feGaussianBlur in="SourceGraphic" stdDeviation="12" result="b3"/>
    <feColorMatrix in="b3" type="matrix" result="bright"
      values="1.6 0 0 0 0.1  0 1.6 0 0 0.1  0 0 1.6 0 0.1  0 0 0 0.5 0"/>
    <feMerge>
      <feMergeNode in="bright"/><feMergeNode in="b2"/>
      <feMergeNode in="b1"/><feMergeNode in="SourceGraphic"/>
    </feMerge>
  </filter>
  <filter id="softGlow" x="-80%" y="-80%" width="260%" height="260%">
    <feGaussianBlur stdDeviation="6" result="blur"/>
    <feColorMatrix in="blur" type="matrix"
      values="1.3 0 0 0 0.05  0 1.3 0 0 0.05  0 0 1.3 0 0.05  0 0 0 0.4 0"/>
  </filter>
  <radialGradient id="bg" cx="50%" cy="50%" r="60%">
    <stop offset="0%" stop-color="#030308"/>
    <stop offset="100%" stop-color="#010104"/>
  </radialGradient>
  <radialGradient id="vig" cx="50%" cy="50%" r="55%">
    <stop offset="35%" stop-color="black" stop-opacity="0"/>
    <stop offset="100%" stop-color="black" stop-opacity="0.6"/>
  </radialGradient>
</defs>
<style>
  @keyframes growIn {
    from { stroke-dashoffset: var(--len); opacity: 0.5; }
    to { stroke-dashoffset: 0; opacity: var(--op); }
  }
  @keyframes flowIn {
    from { stroke-dashoffset: var(--len); opacity: 0; }
    to { stroke-dashoffset: 0; opacity: var(--op); }
  }
  @keyframes nodeGlow {
    0%, 100% { r: var(--r); opacity: 0.2; }
    50% { r: calc(var(--r) * 1.6); opacity: 0.5; }
  }
  .branch {
    stroke-dasharray: var(--len);
    stroke-dashoffset: var(--len);
    animation: growIn var(--dur) cubic-bezier(0.23, 1, 0.32, 1) forwards;
  }
  .flow {
    stroke-dasharray: var(--len);
    stroke-dashoffset: var(--len);
    animation: flowIn var(--dur) cubic-bezier(0.4, 0, 0.2, 1) forwards;
  }
  .node {
    animation: nodeGlow 4s ease-in-out infinite;
  }
</style>
<rect width="800" height="800" fill="url(#bg)"/>
<g filter="url(#bloom)">
<path d="M430.6,397.7 Q433.1,398.5 435.2,397.8" fill="none" stroke="#00000e" stroke-linecap="round" class="branch" style="--len:5;--op:0.550;--sw:2.8;--dur:1.0s;animation-delay:0.00s;stroke-width:2.80"/>
<path d="M435.2,397.8 Q439.6,397.3 442.2,398.9" fill="none" stroke="#00000e" stroke-linecap="round" class="branch" style="--len:7;--op:0.550;--sw:2.8;--dur:1.0s;animation-delay:0.04s;stroke-width:2.80"/>
<path d="M442.2,398.9 Q444.5,398.1 445.5,397.2" fill="none" stroke="#005a69" stroke-linecap="round" class="branch" style="--len:4;--op:0.458;--sw:1.5;--dur:1.3s;animation-delay:4.07s;stroke-width:1.52"/>
<path d="M445.5,397.2 Q446.9,397.0 449.8,394.8" fill="none" stroke="#005a69" stroke-linecap="round" class="branch" style="--len:5;--op:0.458;--sw:1.5;--dur:1.3s;animation-delay:4.11s;stroke-width:1.52"/>
<path d="M449.8,394.8 Q450.4,394.6 453.0,392.7" fill="none" stroke="#005a69" stroke-linecap="round" class="branch" style="--len:4;--op:0.458;--sw:1.5;--dur:1.3s;animation-delay:4.15s;stroke-width:1.52"/>
<path d="M453.0,392.7 Q454.1,392.3 456.4,389.9" fill="none" stroke="#005a69" stroke-linecap="round" class="branch" style="--len:4;--op:0.458;--sw:1.5;--dur:1.3s;animation-delay:4.19s;stroke-width:1.52"/>
<path d="M456.4,389.9 Q456.2,389.2 458.6,387.9" fill="none" stroke="#005a69" stroke-linecap="round" class="branch" style="--len:3;--op:0.458;--sw:1.5;--dur:1.3s;animation-delay:4.22s;stroke-width:1.52"/>
<path d="M458.6,387.9 Q461.6,384.8 461.7,384.3" fill="none" stroke="#005a69" stroke-linecap="round" class="branch" style="--len:5;--op:0.458;--sw:1.5;--dur:1.3s;animation-delay:4.26s;stroke-width:1.52"/>
<path d="M461.7,384.3 Q463.6,383.6 464.2,380.9" fill="none" stroke="#005a69" stroke-linecap="round" class="branch" style="--len:4;--op:0.458;--sw:1.5;--dur:1.3s;animation-delay:4.30s;stroke-width:1.52"/>
<path d="M464.2,380.9 Q465.4,379.4 466.2,377.8" fill="none" stroke="#005a69" stroke-linecap="round" class="branch" style="--len:4;--op:0.458;--sw:1.5;--dur:1.3s;animation-delay:4.34s;stroke-width:1.52"/>
<path d="M466.2,377.8 Q468.5,376.8 467.9,374.0" fill="none" stroke="#005a69" stroke-linecap="round" class="branch" style="--len:4;--op:0.458;--sw:1.5;--dur:1.3s;animation-delay:4.37s;stroke-width:1.52"/>
<path d="M442.2,398.9 Q445.4,401.2 448.3,400.7" fill="none" stroke="#00000e" stroke-linecap="round" class="branch" style="--len:6;--op:0.550;--sw:2.8;--dur:1.0s;animation-delay:0.41s;stroke-width:2.80"/>
<path d="M448.3,400.7 Q451.9,401.6 452.6,402.8" fill="none" stroke="#00000e" stroke-linecap="round" class="branch" style="--len:5;--op:0.550;--sw:2.8;--dur:1.0s;animation-delay:0.45s;stroke-width:2.80"/>
<path d="M452.6,402.8 Q456.3,403.4 458.8,406.8" fill="none" stroke="#00000e" stroke-linecap="round" class="branch" style="--len:7;--op:0.550;--sw:2.8;--dur:1.0s;animation-delay:0.49s;stroke-width:2.80"/>
<path d="M458.8,406.8 Q461.9,408.4 463.6,411.0" fill="none" stroke="#00000e" stroke-linecap="round" class="branch" style="--len:6;--op:0.550;--sw:2.8;--dur:1.0s;animation-delay:0.52s;stroke-width:2.80"/>
<path d="M463.6,411.0 Q466.3,414.2 468.4,416.1" fill="none" stroke="#00000e" stroke-linecap="round" class="branch" style="--len:7;--op:0.550;--sw:2.8;--dur:1.0s;animation-delay:0.56s;stroke-width:2.80"/>
<path d="M468.4,416.1 Q468.9,418.7 472.2,421.1" fill="none" stroke="#00000e" stroke-linecap="round" class="branch" style="--len:6;--op:0.550;--sw:2.8;--dur:1.0s;animation-delay:0.60s;stroke-width:2.80"/>
<path d="M472.2,421.1 Q472.0,421.1 470.8,423.8" fill="none" stroke="#002a49" stroke-linecap="round" class="branch" style="--len:3;--op:0.458;--sw:1.5;--dur:1.3s;animation-delay:4.63s;stroke-width:1.52"/>
<path d="M470.8,423.8 Q468.7,426.1 468.8,426.3" fill="none" stroke="#002a49" stroke-linecap="round" class="branch" style="--len:3;--op:0.458;--sw:1.5;--dur:1.3s;animation-delay:4.67s;stroke-width:1.52"/>
<path d="M468.8,426.3 Q468.1,425.9 466.1,428.4" fill="none" stroke="#002a49" stroke-linecap="round" class="branch" style="--len:3;--op:0.458;--sw:1.5;--dur:1.3s;animation-delay:4.71s;stroke-width:1.52"/>
<path d="M466.1,428.4 Q463.9,427.6 462.7,429.8" fill="none" stroke="#002a49" stroke-linecap="round" class="branch" style="--len:4;--op:0.458;--sw:1.5;--dur:1.3s;animation-delay:4.75s;stroke-width:1.52"/>
<path d="M462.7,429.8 Q460.3,428.9 459.9,430.2" fill="none" stroke="#002a49" stroke-linecap="round" class="branch" style="--len:3;--op:0.458;--sw:1.5;--dur:1.3s;animation-delay:4.78s;stroke-width:1.52"/>
<path d="M459.9,430.2 Q456.6,428.5 456.2,429.5" fill="none" stroke="#002a49" stroke-linecap="round" class="branch" style="--len:4;--op:0.458;--sw:1.5;--dur:1.3s;animation-delay:4.82s;stroke-width:1.52"/>
<path d="M456.2,429.5 Q455.0,428.1 451.8,427.2" fill="none" stroke="#002a49" stroke-linecap="round" class="branch" style="--len:5;--op:0.458;--sw:1.5;--dur:1.3s;animation-delay:4.86s;stroke-width:1.52"/>
<path d="M451.8,427.2 Q450.3,426.7 449.1,424.6" fill="none" stroke="#002a49" stroke-linecap="round" class="branch" style="--len:4;--op:0.458;--sw:1.5;--dur:1.3s;animation-delay:4.90s;stroke-width:1.52"/>
<path d="M449.1,424.6 Q449.0,422.7 449.2,419.2" fill="none" stroke="#006d73" stroke-linecap="round" class="branch" style="--len:5;--op:0.367;--sw:0.5;--dur:1.6s;animation-delay:8.93s;stroke-width:0.54"/>
<path d="M449.2,419.2 Q449.6,415.3 449.3,413.5" fill="none" stroke="#006d73" stroke-linecap="round" class="branch" style="--len:6;--op:0.367;--sw:0.5;--dur:1.6s;animation-delay:8.97s;stroke-width:0.54"/>
<path d="M449.3,413.5 Q449.8,411.8 449.5,408.2" fill="none" stroke="#006d73" stroke-linecap="round" class="branch" style="--len:5;--op:0.367;--sw:0.5;--dur:1.6s;animation-delay:9.01s;stroke-width:0.54"/>
<path d="M449.5,408.2 Q448.9,406.4 449.8,403.5" fill="none" stroke="#006d73" stroke-linecap="round" class="branch" style="--len:5;--op:0.367;--sw:0.5;--dur:1.6s;animation-delay:9.05s;stroke-width:0.54"/>
<path d="M449.8,403.5 Q451.3,402.5 450.3,398.9" fill="none" stroke="#006d73" stroke-linecap="round" class="branch" style="--len:5;--op:0.367;--sw:0.5;--dur:1.6s;animation-delay:9.08s;stroke-width:0.54"/>
<path d="M450.3,398.9 Q450.4,395.3 450.7,394.6" fill="none" stroke="#006d73" stroke-linecap="round" class="branch" style="--len:4;--op:0.367;--sw:0.5;--dur:1.6s;animation-delay:9.12s;stroke-width:0.54"/>
<path d="M449.1,424.6 Q447.0,422.5 446.8,420.8" fill="none" stroke="#002a49" stroke-linecap="round" class="branch" style="--len:4;--op:0.458;--sw:1.5;--dur:1.3s;animation-delay:5.16s;stroke-width:1.52"/>
<path d="M446.8,420.8 Q445.8,417.7 445.7,417.4" fill="none" stroke="#002a49" stroke-linecap="round" class="branch" style="--len:4;--op:0.458;--sw:1.5;--dur:1.3s;animation-delay:5.20s;stroke-width:1.52"/>
<path d="M445.7,417.4 Q446.6,414.4 445.2,413.6" fill="none" stroke="#002a49" stroke-linecap="round" class="branch" style="--len:4;--op:0.458;--sw:1.5;--dur:1.3s;animation-delay:5.23s;stroke-width:1.52"/>
<path d="M445.2,413.6 Q445.0,411.6 447.0,410.1" fill="none" stroke="#005f6c" stroke-linecap="round" class="branch" style="--len:4;--op:0.367;--sw:0.5;--dur:1.6s;animation-delay:9.27s;stroke-width:0.54"/>
<path d="M447.0,410.1 Q448.6,408.1 449.8,404.8" fill="none" stroke="#005f6c" stroke-linecap="round" class="branch" style="--len:6;--op:0.367;--sw:0.5;--dur:1.6s;animation-delay:9.31s;stroke-width:0.54"/>
<path d="M449.8,404.8 Q451.4,403.2 451.9,400.9" fill="none" stroke="#005f6c" stroke-linecap="round" class="branch" style="--len:4;--op:0.367;--sw:0.5;--dur:1.6s;animation-delay:9.34s;stroke-width:0.54"/>
<path d="M451.9,400.9 Q454.5,397.6 454.4,396.2" fill="none" stroke="#005f6c" stroke-linecap="round" class="branch" style="--len:5;--op:0.367;--sw:0.5;--dur:1.6s;animation-delay:9.38s;stroke-width:0.54"/>
<path d="M472.2,421.1 Q472.8,423.0 475.8,427.7" fill="none" stroke="#00000e" stroke-linecap="round" class="branch" style="--len:8;--op:0.550;--sw:2.8;--dur:1.0s;animation-delay:1.42s;stroke-width:2.80"/>
<path d="M475.8,427.7 Q477.3,430.5 477.3,433.2" fill="none" stroke="#00000e" stroke-linecap="round" class="branch" style="--len:6;--op:0.550;--sw:2.8;--dur:1.0s;animation-delay:1.46s;stroke-width:2.80"/>
<path d="M477.3,433.2 Q475.8,437.5 477.2,438.9" fill="none" stroke="#00000e" stroke-linecap="round" class="branch" style="--len:6;--op:0.550;--sw:2.8;--dur:1.0s;animation-delay:1.49s;stroke-width:2.80"/>
<path d="M477.2,438.9 Q477.9,442.5 475.9,443.4" fill="none" stroke="#00000e" stroke-linecap="round" class="branch" style="--len:5;--op:0.550;--sw:2.8;--dur:1.0s;animation-delay:1.53s;stroke-width:2.80"/>
<path d="M475.9,443.4 Q476.4,443.7 475.9,446.7" fill="none" stroke="#005f6c" stroke-linecap="round" class="branch" style="--len:3;--op:0.458;--sw:1.5;--dur:1.3s;animation-delay:5.57s;stroke-width:1.52"/>
<path d="M475.9,446.7 Q475.0,448.6 474.6,451.2" fill="none" stroke="#005f6c" stroke-linecap="round" class="branch" style="--len:5;--op:0.458;--sw:1.5;--dur:1.3s;animation-delay:5.61s;stroke-width:1.52"/>
<path d="M474.6,451.2 Q473.0,452.4 472.8,454.6" fill="none" stroke="#005f6c" stroke-linecap="round" class="branch" style="--len:4;--op:0.458;--sw:1.5;--dur:1.3s;animation-delay:5.64s;stroke-width:1.52"/>
<path d="M472.8,454.6 Q472.3,457.0 469.7,458.4" fill="none" stroke="#005f6c" stroke-linecap="round" class="branch" style="--len:5;--op:0.458;--sw:1.5;--dur:1.3s;animation-delay:5.68s;stroke-width:1.52"/>
<path d="M469.7,458.4 Q467.7,458.9 467.2,460.6" fill="none" stroke="#005f6c" stroke-linecap="round" class="branch" style="--len:3;--op:0.458;--sw:1.5;--dur:1.3s;animation-delay:5.72s;stroke-width:1.52"/>
<path d="M467.2,460.6 Q463.6,462.9 462.8,463.2" fill="none" stroke="#005f6c" stroke-linecap="round" class="branch" style="--len:5;--op:0.458;--sw:1.5;--dur:1.3s;animation-delay:5.76s;stroke-width:1.52"/>
<path d="M462.8,463.2 Q462.4,465.8 460.9,467.7" fill="none" stroke="#006d73" stroke-linecap="round" class="branch" style="--len:5;--op:0.367;--sw:0.5;--dur:1.6s;animation-delay:9.79s;stroke-width:0.54"/>
<path d="M460.9,467.7 Q461.0,469.9 459.3,473.0" fill="none" stroke="#006d73" stroke-linecap="round" class="branch" style="--len:5;--op:0.367;--sw:0.5;--dur:1.6s;animation-delay:9.83s;stroke-width:0.54"/>
<path d="M459.3,473.0 Q459.9,474.4 458.5,477.3" fill="none" stroke="#006d73" stroke-linecap="round" class="branch" style="--len:4;--op:0.367;--sw:0.5;--dur:1.6s;animation-delay:9.87s;stroke-width:0.54"/>
<path d="M458.5,477.3 Q459.2,480.2 458.2,482.2" fill="none" stroke="#006d73" stroke-linecap="round" class="branch" style="--len:5;--op:0.367;--sw:0.5;--dur:1.6s;animation-delay:9.90s;stroke-width:0.54"/>
<path d="M462.8,463.2 Q460.0,465.2 458.2,464.8" fill="none" stroke="#005f6c" stroke-linecap="round" class="branch" style="--len:5;--op:0.458;--sw:1.5;--dur:1.3s;animation-delay:5.94s;stroke-width:1.52"/>
<path d="M458.2,464.8 Q458.0,467.3 457.9,468.5" fill="none" stroke="#006f74" stroke-linecap="round" class="branch" style="--len:4;--op:0.367;--sw:0.5;--dur:1.6s;animation-delay:9.98s;stroke-width:0.54"/>
<path d="M457.9,468.5 Q458.8,470.5 458.4,472.4" fill="none" stroke="#006f74" stroke-linecap="round" class="branch" style="--len:4;--op:0.367;--sw:0.5;--dur:1.6s;animation-delay:10.02s;stroke-width:0.54"/>
<path d="M458.4,472.4 Q460.1,473.6 459.6,475.9" fill="none" stroke="#006f74" stroke-linecap="round" class="branch" style="--len:4;--op:0.367;--sw:0.5;--dur:1.6s;animation-delay:10.05s;stroke-width:0.54"/>
<path d="M459.6,475.9 Q460.7,478.7 462.0,479.9" fill="none" stroke="#006f74" stroke-linecap="round" class="branch" style="--len:5;--op:0.367;--sw:0.5;--dur:1.6s;animation-delay:10.09s;stroke-width:0.54"/>
<path d="M462.0,479.9 Q463.1,481.2 465.2,482.9" fill="none" stroke="#006f74" stroke-linecap="round" class="branch" style="--len:4;--op:0.367;--sw:0.5;--dur:1.6s;animation-delay:10.13s;stroke-width:0.54"/>
<path d="M458.2,464.8 Q455.6,463.8 454.2,465.5" fill="none" stroke="#005f6c" stroke-linecap="round" class="branch" style="--len:4;--op:0.458;--sw:1.5;--dur:1.3s;animation-delay:6.17s;stroke-width:1.52"/>
<path d="M454.2,465.5 Q453.9,468.4 452.0,468.7" fill="none" stroke="#003f58" stroke-linecap="round" class="branch" style="--len:4;--op:0.367;--sw:0.5;--dur:1.6s;animation-delay:10.20s;stroke-width:0.54"/>
<path d="M452.0,468.7 Q450.5,471.7 450.0,473.4" fill="none" stroke="#003f58" stroke-linecap="round" class="branch" style="--len:5;--op:0.367;--sw:0.5;--dur:1.6s;animation-delay:10.24s;stroke-width:0.54"/>
<path d="M450.0,473.4 Q451.1,474.9 449.2,478.7" fill="none" stroke="#003f58" stroke-linecap="round" class="branch" style="--len:5;--op:0.367;--sw:0.5;--dur:1.6s;animation-delay:10.28s;stroke-width:0.54"/>
<path d="M449.2,478.7 Q450.0,479.9 449.8,484.2" fill="none" stroke="#003f58" stroke-linecap="round" class="branch" style="--len:6;--op:0.367;--sw:0.5;--dur:1.6s;animation-delay:10.32s;stroke-width:0.54"/>
<path d="M475.9,443.4 Q474.4,446.9 472.6,448.1" fill="none" stroke="#001939" stroke-linecap="round" class="branch" style="--len:6;--op:0.458;--sw:1.5;--dur:1.3s;animation-delay:6.35s;stroke-width:1.52"/>
<path d="M472.6,448.1 Q472.3,448.5 470.7,451.8" fill="none" stroke="#001939" stroke-linecap="round" class="branch" style="--len:4;--op:0.458;--sw:1.5;--dur:1.3s;animation-delay:6.39s;stroke-width:1.52"/>
<path d="M470.7,451.8 Q471.0,455.1 469.5,456.4" fill="none" stroke="#001939" stroke-linecap="round" class="branch" style="--len:5;--op:0.458;--sw:1.5;--dur:1.3s;animation-delay:6.43s;stroke-width:1.52"/>
<path d="M469.5,456.4 Q465.9,457.4 464.6,458.0" fill="none" stroke="#005d6b" stroke-linecap="round" class="branch" style="--len:5;--op:0.367;--sw:0.5;--dur:1.6s;animation-delay:10.46s;stroke-width:0.54"/>
<path d="M464.6,458.0 Q463.9,459.9 460.7,458.7" fill="none" stroke="#005d6b" stroke-linecap="round" class="branch" style="--len:4;--op:0.367;--sw:0.5;--dur:1.6s;animation-delay:10.50s;stroke-width:0.54"/>
<path d="M460.7,458.7 Q459.9,458.3 456.4,458.9" fill="none" stroke="#005d6b" stroke-linecap="round" class="branch" style="--len:4;--op:0.367;--sw:0.5;--dur:1.6s;animation-delay:10.54s;stroke-width:0.54"/>
<path d="M456.4,458.9 Q454.6,457.5 451.9,458.2" fill="none" stroke="#005d6b" stroke-linecap="round" class="branch" style="--len:5;--op:0.367;--sw:0.5;--dur:1.6s;animation-delay:10.58s;stroke-width:0.54"/>
<path d="M451.9,458.2 Q449.3,456.3 448.7,456.9" fill="none" stroke="#005d6b" stroke-linecap="round" class="branch" style="--len:3;--op:0.367;--sw:0.5;--dur:1.6s;animation-delay:10.61s;stroke-width:0.54"/>
<path d="M448.7,456.9 Q445.6,456.5 444.3,453.9" fill="none" stroke="#005d6b" stroke-linecap="round" class="branch" style="--len:5;--op:0.367;--sw:0.5;--dur:1.6s;animation-delay:10.65s;stroke-width:0.54"/>
<path d="M469.5,456.4 Q469.6,458.7 469.4,459.6" fill="none" stroke="#001939" stroke-linecap="round" class="branch" style="--len:3;--op:0.458;--sw:1.5;--dur:1.3s;animation-delay:6.69s;stroke-width:1.52"/>
<path d="M469.4,459.6 Q470.3,462.4 470.5,463.4" fill="none" stroke="#001939" stroke-linecap="round" class="branch" style="--len:4;--op:0.458;--sw:1.5;--dur:1.3s;animation-delay:6.73s;stroke-width:1.52"/>
<path d="M470.5,463.4 Q472.6,464.8 472.5,466.7" fill="none" stroke="#001939" stroke-linecap="round" class="branch" style="--len:4;--op:0.458;--sw:1.5;--dur:1.3s;animation-delay:6.76s;stroke-width:1.52"/>
<path d="M472.5,466.7 Q472.9,469.0 476.2,470.2" fill="none" stroke="#001939" stroke-linecap="round" class="branch" style="--len:5;--op:0.458;--sw:1.5;--dur:1.3s;animation-delay:6.80s;stroke-width:1.52"/>
<path d="M476.2,470.2 Q476.7,471.7 480.0,472.3" fill="none" stroke="#001939" stroke-linecap="round" class="branch" style="--len:4;--op:0.458;--sw:1.5;--dur:1.3s;animation-delay:6.84s;stroke-width:1.52"/>
<path d="M480.0,472.3 Q482.2,472.2 483.4,473.1" fill="none" stroke="#001939" stroke-linecap="round" class="branch" style="--len:3;--op:0.458;--sw:1.5;--dur:1.3s;animation-delay:6.88s;stroke-width:1.52"/>
<path d="M404.5,411.8 Q405.2,414.7 406.5,416.0" fill="none" stroke="#00041b" stroke-linecap="round" class="branch" style="--len:5;--op:0.550;--sw:2.8;--dur:1.0s;animation-delay:2.91s;stroke-width:2.80"/>
<path d="M406.5,416.0 Q406.9,418.4 408.7,420.3" fill="none" stroke="#00041b" stroke-linecap="round" class="branch" style="--len:5;--op:0.550;--sw:2.8;--dur:1.0s;animation-delay:2.95s;stroke-width:2.80"/>
<path d="M408.7,420.3 Q411.0,422.2 411.2,424.7" fill="none" stroke="#00041b" stroke-linecap="round" class="branch" style="--len:5;--op:0.550;--sw:2.8;--dur:1.0s;animation-delay:2.99s;stroke-width:2.80"/>
<path d="M411.2,424.7 Q411.5,423.3 414.7,424.9" fill="none" stroke="#004c61" stroke-linecap="round" class="branch" style="--len:3;--op:0.458;--sw:1.5;--dur:1.3s;animation-delay:7.02s;stroke-width:1.52"/>
<path d="M414.7,424.9 Q416.5,425.5 419.9,425.2" fill="none" stroke="#004c61" stroke-linecap="round" class="branch" style="--len:5;--op:0.458;--sw:1.5;--dur:1.3s;animation-delay:7.06s;stroke-width:1.52"/>
<path d="M419.9,425.2 Q420.3,424.9 422.9,425.1" fill="none" stroke="#004c61" stroke-linecap="round" class="branch" style="--len:3;--op:0.458;--sw:1.5;--dur:1.3s;animation-delay:7.10s;stroke-width:1.52"/>
<path d="M422.9,425.1 Q425.4,426.4 426.4,425.0" fill="none" stroke="#004c61" stroke-linecap="round" class="branch" style="--len:4;--op:0.458;--sw:1.5;--dur:1.3s;animation-delay:7.14s;stroke-width:1.52"/>
<path d="M426.4,425.0 Q427.4,426.3 430.7,424.7" fill="none" stroke="#004c61" stroke-linecap="round" class="branch" style="--len:4;--op:0.458;--sw:1.5;--dur:1.3s;animation-delay:7.17s;stroke-width:1.52"/>
<path d="M430.7,424.7 Q433.6,423.8 435.4,424.4" fill="none" stroke="#004c61" stroke-linecap="round" class="branch" style="--len:5;--op:0.458;--sw:1.5;--dur:1.3s;animation-delay:7.21s;stroke-width:1.52"/>
<path d="M435.4,424.4 Q438.4,424.8 439.1,424.1" fill="none" stroke="#004c61" stroke-linecap="round" class="branch" style="--len:4;--op:0.458;--sw:1.5;--dur:1.3s;animation-delay:7.25s;stroke-width:1.52"/>
<path d="M439.1,424.1 Q440.4,426.2 441.9,426.3" fill="none" stroke="#00445c" stroke-linecap="round" class="branch" style="--len:4;--op:0.367;--sw:0.5;--dur:1.6s;animation-delay:11.29s;stroke-width:0.54"/>
<path d="M441.9,426.3 Q443.4,426.7 445.5,429.5" fill="none" stroke="#00445c" stroke-linecap="round" class="branch" style="--len:5;--op:0.367;--sw:0.5;--dur:1.6s;animation-delay:11.32s;stroke-width:0.54"/>
<path d="M445.5,429.5 Q446.0,430.5 448.4,432.7" fill="none" stroke="#00445c" stroke-linecap="round" class="branch" style="--len:4;--op:0.367;--sw:0.5;--dur:1.6s;animation-delay:11.36s;stroke-width:0.54"/>
<path d="M448.4,432.7 Q450.4,433.5 451.1,437.0" fill="none" stroke="#00445c" stroke-linecap="round" class="branch" style="--len:5;--op:0.367;--sw:0.5;--dur:1.6s;animation-delay:11.40s;stroke-width:0.54"/>
<path d="M439.1,424.1 Q440.7,423.2 443.9,423.9" fill="none" stroke="#004c61" stroke-linecap="round" class="branch" style="--len:5;--op:0.458;--sw:1.5;--dur:1.3s;animation-delay:7.44s;stroke-width:1.52"/>
<path d="M443.9,423.9 Q443.8,424.1 446.4,426.1" fill="none" stroke="#00897c" stroke-linecap="round" class="branch" style="--len:3;--op:0.367;--sw:0.5;--dur:1.6s;animation-delay:11.47s;stroke-width:0.54"/>
<path d="M446.4,426.1 Q449.5,428.3 450.0,429.3" fill="none" stroke="#00897c" stroke-linecap="round" class="branch" style="--len:5;--op:0.367;--sw:0.5;--dur:1.6s;animation-delay:11.51s;stroke-width:0.54"/>
<path d="M450.0,429.3 Q449.8,430.9 452.3,431.5" fill="none" stroke="#00897c" stroke-linecap="round" class="branch" style="--len:3;--op:0.367;--sw:0.5;--dur:1.6s;animation-delay:11.55s;stroke-width:0.54"/>
<path d="M411.2,424.7 Q412.4,426.7 414.3,429.9" fill="none" stroke="#00041b" stroke-linecap="round" class="branch" style="--len:6;--op:0.550;--sw:2.8;--dur:1.0s;animation-delay:3.59s;stroke-width:2.80"/>
<path d="M414.3,429.9 Q414.6,433.1 416.9,433.9" fill="none" stroke="#00041b" stroke-linecap="round" class="branch" style="--len:5;--op:0.550;--sw:2.8;--dur:1.0s;animation-delay:3.62s;stroke-width:2.80"/>
<path d="M416.9,433.9 Q417.1,436.1 420.0,438.6" fill="none" stroke="#00041b" stroke-linecap="round" class="branch" style="--len:6;--op:0.550;--sw:2.8;--dur:1.0s;animation-delay:3.66s;stroke-width:2.80"/>
<path d="M420.0,438.6 Q421.7,442.2 422.9,443.1" fill="none" stroke="#00041b" stroke-linecap="round" class="branch" style="--len:5;--op:0.550;--sw:2.8;--dur:1.0s;animation-delay:3.70s;stroke-width:2.80"/>
<path d="M422.9,443.1 Q425.4,445.2 426.7,445.0" fill="none" stroke="#001d3e" stroke-linecap="round" class="branch" style="--len:4;--op:0.458;--sw:1.5;--dur:1.3s;animation-delay:7.73s;stroke-width:1.52"/>
<path d="M426.7,445.0 Q427.4,445.3 431.1,446.8" fill="none" stroke="#001d3e" stroke-linecap="round" class="branch" style="--len:5;--op:0.458;--sw:1.5;--dur:1.3s;animation-delay:7.77s;stroke-width:1.52"/>
<path d="M431.1,446.8 Q432.2,447.4 436.1,448.6" fill="none" stroke="#001d3e" stroke-linecap="round" class="branch" style="--len:5;--op:0.458;--sw:1.5;--dur:1.3s;animation-delay:7.81s;stroke-width:1.52"/>
<path d="M436.1,448.6 Q438.5,449.7 438.9,449.4" fill="none" stroke="#001d3e" stroke-linecap="round" class="branch" style="--len:3;--op:0.458;--sw:1.5;--dur:1.3s;animation-delay:7.85s;stroke-width:1.52"/>
<path d="M438.9,449.4 Q441.6,448.6 443.4,450.1" fill="none" stroke="#001d3e" stroke-linecap="round" class="branch" style="--len:5;--op:0.458;--sw:1.5;--dur:1.3s;animation-delay:7.88s;stroke-width:1.52"/>
<path d="M443.4,450.1 Q446.3,450.6 446.3,452.7" fill="none" stroke="#00827a" stroke-linecap="round" class="branch" style="--len:4;--op:0.367;--sw:0.5;--dur:1.6s;animation-delay:11.92s;stroke-width:0.54"/>
<path d="M446.3,452.7 Q450.0,453.5 451.4,456.4" fill="none" stroke="#00827a" stroke-linecap="round" class="branch" style="--len:6;--op:0.367;--sw:0.5;--dur:1.6s;animation-delay:11.96s;stroke-width:0.54"/>
<path d="M451.4,456.4 Q451.9,457.0 454.3,458.4" fill="none" stroke="#00827a" stroke-linecap="round" class="branch" style="--len:3;--op:0.367;--sw:0.5;--dur:1.6s;animation-delay:12.00s;stroke-width:0.54"/>
<path d="M454.3,458.4 Q455.8,460.4 457.5,460.7" fill="none" stroke="#00827a" stroke-linecap="round" class="branch" style="--len:4;--op:0.367;--sw:0.5;--dur:1.6s;animation-delay:12.03s;stroke-width:0.54"/>
<path d="M443.4,450.1 Q447.2,449.4 448.7,450.4" fill="none" stroke="#001d3e" stroke-linecap="round" class="branch" style="--len:5;--op:0.458;--sw:1.5;--dur:1.3s;animation-delay:8.07s;stroke-width:1.52"/>
<path d="M448.7,450.4 Q450.8,449.7 453.3,450.1" fill="none" stroke="#001d3e" stroke-linecap="round" class="branch" style="--len:5;--op:0.458;--sw:1.5;--dur:1.3s;animation-delay:8.11s;stroke-width:1.52"/>
<path d="M453.3,450.1 Q455.8,451.6 455.4,453.9" fill="none" stroke="#007876" stroke-linecap="round" class="branch" style="--len:4;--op:0.367;--sw:0.5;--dur:1.6s;animation-delay:12.15s;stroke-width:0.54"/>
<path d="M455.4,453.9 Q456.0,456.6 456.0,458.2" fill="none" stroke="#007876" stroke-linecap="round" class="branch" style="--len:4;--op:0.367;--sw:0.5;--dur:1.6s;animation-delay:12.18s;stroke-width:0.54"/>
<path d="M456.0,458.2 Q454.3,459.1 455.1,462.0" fill="none" stroke="#007876" stroke-linecap="round" class="branch" style="--len:4;--op:0.367;--sw:0.5;--dur:1.6s;animation-delay:12.22s;stroke-width:0.54"/>
<path d="M455.1,462.0 Q453.6,464.1 452.8,465.5" fill="none" stroke="#007876" stroke-linecap="round" class="branch" style="--len:4;--op:0.367;--sw:0.5;--dur:1.6s;animation-delay:12.26s;stroke-width:0.54"/>
<path d="M453.3,450.1 Q454.2,449.8 456.8,449.5" fill="none" stroke="#001d3e" stroke-linecap="round" class="branch" style="--len:4;--op:0.458;--sw:1.5;--dur:1.3s;animation-delay:8.29s;stroke-width:1.52"/>
<path d="M422.9,443.1 Q425.1,446.2 425.2,447.5" fill="none" stroke="#00041b" stroke-linecap="round" class="branch" style="--len:5;--op:0.550;--sw:2.8;--dur:1.0s;animation-delay:4.33s;stroke-width:2.80"/>
<path d="M425.2,447.5 Q425.3,448.2 424.8,451.1" fill="none" stroke="#005a69" stroke-linecap="round" class="branch" style="--len:4;--op:0.458;--sw:1.5;--dur:1.3s;animation-delay:8.37s;stroke-width:1.52"/>
<path d="M424.8,451.1 Q425.4,453.0 423.3,455.2" fill="none" stroke="#005a69" stroke-linecap="round" class="branch" style="--len:4;--op:0.458;--sw:1.5;--dur:1.3s;animation-delay:8.41s;stroke-width:1.52"/>
<path d="M423.3,455.2 Q421.7,456.6 420.9,458.4" fill="none" stroke="#005a69" stroke-linecap="round" class="branch" style="--len:4;--op:0.458;--sw:1.5;--dur:1.3s;animation-delay:8.44s;stroke-width:1.52"/>
<path d="M420.9,458.4 Q419.9,458.6 416.8,461.5" fill="none" stroke="#005a69" stroke-linecap="round" class="branch" style="--len:5;--op:0.458;--sw:1.5;--dur:1.3s;animation-delay:8.48s;stroke-width:1.52"/>
<path d="M416.8,461.5 Q415.9,460.7 413.9,462.7" fill="none" stroke="#005a69" stroke-linecap="round" class="branch" style="--len:3;--op:0.458;--sw:1.5;--dur:1.3s;animation-delay:8.52s;stroke-width:1.52"/>
<path d="M413.9,462.7 Q410.4,462.4 409.7,463.5" fill="none" stroke="#005a69" stroke-linecap="round" class="branch" style="--len:4;--op:0.458;--sw:1.5;--dur:1.3s;animation-delay:8.56s;stroke-width:1.52"/>
<path d="M409.7,463.5 Q408.6,464.0 405.1,463.4" fill="none" stroke="#005a69" stroke-linecap="round" class="branch" style="--len:5;--op:0.458;--sw:1.5;--dur:1.3s;animation-delay:8.59s;stroke-width:1.52"/>
<path d="M405.1,463.4 Q404.5,463.6 402.3,460.9" fill="none" stroke="#005868" stroke-linecap="round" class="branch" style="--len:4;--op:0.367;--sw:0.5;--dur:1.6s;animation-delay:12.63s;stroke-width:0.54"/>
<path d="M402.3,460.9 Q399.4,458.9 399.3,457.5" fill="none" stroke="#005868" stroke-linecap="round" class="branch" style="--len:5;--op:0.367;--sw:0.5;--dur:1.6s;animation-delay:12.67s;stroke-width:0.54"/>
<path d="M399.3,457.5 Q397.4,456.7 397.1,454.7" fill="none" stroke="#005868" stroke-linecap="round" class="branch" style="--len:4;--op:0.367;--sw:0.5;--dur:1.6s;animation-delay:12.71s;stroke-width:0.54"/>
<path d="M397.1,454.7 Q394.6,453.9 394.2,450.7" fill="none" stroke="#005868" stroke-linecap="round" class="branch" style="--len:5;--op:0.367;--sw:0.5;--dur:1.6s;animation-delay:12.74s;stroke-width:0.54"/>
<path d="M405.1,463.4 Q404.2,460.6 402.0,459.2" fill="none" stroke="#009480" stroke-linecap="round" class="branch" style="--len:5;--op:0.367;--sw:0.5;--dur:1.6s;animation-delay:12.78s;stroke-width:0.54"/>
<path d="M402.0,459.2 Q400.9,457.3 399.8,454.4" fill="none" stroke="#009480" stroke-linecap="round" class="branch" style="--len:5;--op:0.367;--sw:0.5;--dur:1.6s;animation-delay:12.82s;stroke-width:0.54"/>
<path d="M399.8,454.4 Q398.7,453.6 399.4,451.4" fill="none" stroke="#009480" stroke-linecap="round" class="branch" style="--len:3;--op:0.367;--sw:0.5;--dur:1.6s;animation-delay:12.85s;stroke-width:0.54"/>
<path d="M399.4,451.4 Q399.3,450.8 399.8,447.4" fill="none" stroke="#009480" stroke-linecap="round" class="branch" style="--len:4;--op:0.367;--sw:0.5;--dur:1.6s;animation-delay:12.89s;stroke-width:0.54"/>
<path d="M425.2,447.5 Q425.2,450.7 427.5,453.0" fill="none" stroke="#00041b" stroke-linecap="round" class="branch" style="--len:6;--op:0.550;--sw:2.8;--dur:1.0s;animation-delay:4.93s;stroke-width:2.80"/>
<path d="M427.5,453.0 Q428.6,454.4 428.7,457.2" fill="none" stroke="#00041b" stroke-linecap="round" class="branch" style="--len:4;--op:0.550;--sw:2.8;--dur:1.0s;animation-delay:4.97s;stroke-width:2.80"/>
<path d="M428.7,457.2 Q428.9,458.0 429.2,461.1" fill="none" stroke="#00041b" stroke-linecap="round" class="branch" style="--len:4;--op:0.550;--sw:2.8;--dur:1.0s;animation-delay:5.00s;stroke-width:2.80"/>
<path d="M429.2,461.1 Q429.6,462.9 428.9,466.0" fill="none" stroke="#00041b" stroke-linecap="round" class="branch" style="--len:5;--op:0.550;--sw:2.8;--dur:1.0s;animation-delay:5.04s;stroke-width:2.80"/>
<path d="M367.7,409.4 Q364.7,410.4 362.7,411.3" fill="none" stroke="#000b28" stroke-linecap="round" class="branch" style="--len:5;--op:0.550;--sw:2.8;--dur:1.0s;animation-delay:5.08s;stroke-width:2.80"/>
<path d="M362.7,411.3 Q360.3,411.4 358.7,413.1" fill="none" stroke="#000b28" stroke-linecap="round" class="branch" style="--len:4;--op:0.550;--sw:2.8;--dur:1.0s;animation-delay:5.12s;stroke-width:2.80"/>
<path d="M358.7,413.1 Q357.2,413.2 355.8,414.6" fill="none" stroke="#000b28" stroke-linecap="round" class="branch" style="--len:3;--op:0.550;--sw:2.8;--dur:1.0s;animation-delay:5.15s;stroke-width:2.80"/>
<path d="M355.8,414.6 Q354.7,415.6 354.7,417.8" fill="none" stroke="#003e58" stroke-linecap="round" class="branch" style="--len:3;--op:0.458;--sw:1.5;--dur:1.3s;animation-delay:9.19s;stroke-width:1.52"/>
<path d="M354.7,417.8 Q355.6,418.0 354.1,420.8" fill="none" stroke="#003e58" stroke-linecap="round" class="branch" style="--len:3;--op:0.458;--sw:1.5;--dur:1.3s;animation-delay:9.23s;stroke-width:1.52"/>
<path d="M354.1,420.8 Q353.8,422.5 354.0,425.6" fill="none" stroke="#003e58" stroke-linecap="round" class="branch" style="--len:5;--op:0.458;--sw:1.5;--dur:1.3s;animation-delay:9.27s;stroke-width:1.52"/>
<path d="M354.0,425.6 Q353.7,428.9 354.5,431.0" fill="none" stroke="#003e58" stroke-linecap="round" class="branch" style="--len:5;--op:0.458;--sw:1.5;--dur:1.3s;animation-delay:9.30s;stroke-width:1.52"/>
<path d="M354.5,431.0 Q353.5,433.8 351.8,435.2" fill="none" stroke="#005365" stroke-linecap="round" class="branch" style="--len:5;--op:0.367;--sw:0.5;--dur:1.6s;animation-delay:13.34s;stroke-width:0.54"/>
<path d="M351.8,435.2 Q350.9,435.4 350.0,438.2" fill="none" stroke="#005365" stroke-linecap="round" class="branch" style="--len:4;--op:0.367;--sw:0.5;--dur:1.6s;animation-delay:13.38s;stroke-width:0.54"/>
<path d="M350.0,438.2 Q347.8,441.8 347.3,443.0" fill="none" stroke="#005365" stroke-linecap="round" class="branch" style="--len:6;--op:0.367;--sw:0.5;--dur:1.6s;animation-delay:13.41s;stroke-width:0.54"/>
<path d="M347.3,443.0 Q345.5,446.2 345.1,446.4" fill="none" stroke="#005365" stroke-linecap="round" class="branch" style="--len:4;--op:0.367;--sw:0.5;--dur:1.6s;animation-delay:13.45s;stroke-width:0.54"/>
<path d="M354.5,431.0 Q356.0,434.0 355.2,434.3" fill="none" stroke="#003e58" stroke-linecap="round" class="branch" style="--len:3;--op:0.458;--sw:1.5;--dur:1.3s;animation-delay:9.49s;stroke-width:1.52"/>
<path d="M355.2,434.3 Q355.3,435.5 357.1,437.9" fill="none" stroke="#005465" stroke-linecap="round" class="branch" style="--len:4;--op:0.367;--sw:0.5;--dur:1.6s;animation-delay:13.53s;stroke-width:0.54"/>
<path d="M357.1,437.9 Q359.2,438.7 358.4,442.0" fill="none" stroke="#005465" stroke-linecap="round" class="branch" style="--len:4;--op:0.367;--sw:0.5;--dur:1.6s;animation-delay:13.56s;stroke-width:0.54"/>
<path d="M358.4,442.0 Q357.6,445.4 359.3,446.1" fill="none" stroke="#005465" stroke-linecap="round" class="branch" style="--len:4;--op:0.367;--sw:0.5;--dur:1.6s;animation-delay:13.60s;stroke-width:0.54"/>
<path d="M355.2,434.3 Q356.6,436.9 357.1,439.3" fill="none" stroke="#003e58" stroke-linecap="round" class="branch" style="--len:5;--op:0.458;--sw:1.5;--dur:1.3s;animation-delay:9.64s;stroke-width:1.52"/>
<path d="M355.8,414.6 Q354.4,414.5 351.9,416.8" fill="none" stroke="#000b28" stroke-linecap="round" class="branch" style="--len:4;--op:0.550;--sw:2.8;--dur:1.0s;animation-delay:5.68s;stroke-width:2.80"/>
<path d="M351.9,416.8 Q349.5,418.6 348.4,418.7" fill="none" stroke="#000b28" stroke-linecap="round" class="branch" style="--len:4;--op:0.550;--sw:2.8;--dur:1.0s;animation-delay:5.71s;stroke-width:2.80"/>
<path d="M348.4,418.7 Q348.2,419.8 345.1,420.4" fill="none" stroke="#000b28" stroke-linecap="round" class="branch" style="--len:4;--op:0.550;--sw:2.8;--dur:1.0s;animation-delay:5.75s;stroke-width:2.80"/>
<path d="M345.1,420.4 Q343.6,420.6 340.5,422.3" fill="none" stroke="#000b28" stroke-linecap="round" class="branch" style="--len:5;--op:0.550;--sw:2.8;--dur:1.0s;animation-delay:5.79s;stroke-width:2.80"/>
<path d="M340.5,422.3 Q340.0,423.8 337.6,423.1" fill="none" stroke="#000b28" stroke-linecap="round" class="branch" style="--len:3;--op:0.550;--sw:2.8;--dur:1.0s;animation-delay:5.83s;stroke-width:2.80"/>
<path d="M337.6,423.1 Q336.8,422.5 333.1,422.1" fill="none" stroke="#006b72" stroke-linecap="round" class="branch" style="--len:5;--op:0.458;--sw:1.5;--dur:1.3s;animation-delay:9.86s;stroke-width:1.52"/>
<path d="M333.1,422.1 Q330.5,421.5 328.7,420.7" fill="none" stroke="#006b72" stroke-linecap="round" class="branch" style="--len:5;--op:0.458;--sw:1.5;--dur:1.3s;animation-delay:9.90s;stroke-width:1.52"/>
<path d="M328.7,420.7 Q328.1,417.9 326.2,417.7" fill="none" stroke="#00827a" stroke-linecap="round" class="branch" style="--len:4;--op:0.367;--sw:0.5;--dur:1.6s;animation-delay:13.94s;stroke-width:0.54"/>
<path d="M326.2,417.7 Q323.5,416.1 322.9,414.2" fill="none" stroke="#00827a" stroke-linecap="round" class="branch" style="--len:5;--op:0.367;--sw:0.5;--dur:1.6s;animation-delay:13.98s;stroke-width:0.54"/>
<path d="M322.9,414.2 Q319.8,412.5 319.6,413.3" fill="none" stroke="#009480" stroke-linecap="round" class="branch" style="--len:3;--op:0.275;--sw:0.3;--dur:1.9s;animation-delay:18.01s;stroke-width:0.30"/>
<path d="M319.6,413.3 Q318.1,412.0 315.6,412.2" fill="none" stroke="#009480" stroke-linecap="round" class="branch" style="--len:4;--op:0.275;--sw:0.3;--dur:1.9s;animation-delay:18.05s;stroke-width:0.30"/>
<path d="M315.6,412.2 Q314.4,411.4 312.1,411.3" fill="none" stroke="#009480" stroke-linecap="round" class="branch" style="--len:4;--op:0.275;--sw:0.3;--dur:1.9s;animation-delay:18.09s;stroke-width:0.30"/>
<path d="M322.9,414.2 Q321.2,412.1 320.4,411.7" fill="none" stroke="#00827a" stroke-linecap="round" class="branch" style="--len:4;--op:0.367;--sw:0.5;--dur:1.6s;animation-delay:14.12s;stroke-width:0.54"/>
<path d="M320.4,411.7 Q318.6,408.4 316.2,407.5" fill="none" stroke="#00827a" stroke-linecap="round" class="branch" style="--len:6;--op:0.367;--sw:0.5;--dur:1.6s;animation-delay:14.16s;stroke-width:0.54"/>
<path d="M328.7,420.7 Q327.8,418.9 324.3,419.2" fill="none" stroke="#006b72" stroke-linecap="round" class="branch" style="--len:5;--op:0.458;--sw:1.5;--dur:1.3s;animation-delay:10.20s;stroke-width:1.52"/>
<path d="M324.3,419.2 Q322.4,417.4 320.0,417.8" fill="none" stroke="#006b72" stroke-linecap="round" class="branch" style="--len:5;--op:0.458;--sw:1.5;--dur:1.3s;animation-delay:10.24s;stroke-width:1.52"/>
<path d="M320.0,417.8 Q317.1,418.0 315.7,416.7" fill="none" stroke="#006b72" stroke-linecap="round" class="branch" style="--len:4;--op:0.458;--sw:1.5;--dur:1.3s;animation-delay:10.27s;stroke-width:1.52"/>
<path d="M315.7,416.7 Q312.9,417.7 311.6,415.9" fill="none" stroke="#006b72" stroke-linecap="round" class="branch" style="--len:4;--op:0.458;--sw:1.5;--dur:1.3s;animation-delay:10.31s;stroke-width:1.52"/>
<path d="M337.6,423.1 Q336.3,422.1 333.5,423.8" fill="none" stroke="#000b28" stroke-linecap="round" class="branch" style="--len:4;--op:0.550;--sw:2.8;--dur:1.0s;animation-delay:6.35s;stroke-width:2.80"/>
<path d="M333.5,423.8 Q331.8,422.7 329.5,423.9" fill="none" stroke="#000b28" stroke-linecap="round" class="branch" style="--len:4;--op:0.550;--sw:2.8;--dur:1.0s;animation-delay:6.39s;stroke-width:2.80"/>
<path d="M329.5,423.9 Q327.2,424.0 324.6,423.4" fill="none" stroke="#000b28" stroke-linecap="round" class="branch" style="--len:5;--op:0.550;--sw:2.8;--dur:1.0s;animation-delay:6.42s;stroke-width:2.80"/>
<path d="M324.6,423.4 Q323.2,425.4 321.0,425.9" fill="none" stroke="#002343" stroke-linecap="round" class="branch" style="--len:4;--op:0.458;--sw:1.5;--dur:1.3s;animation-delay:10.46s;stroke-width:1.52"/>
<path d="M321.0,425.9 Q318.3,425.8 316.1,428.6" fill="none" stroke="#002343" stroke-linecap="round" class="branch" style="--len:6;--op:0.458;--sw:1.5;--dur:1.3s;animation-delay:10.50s;stroke-width:1.52"/>
<path d="M316.1,428.6 Q313.7,428.1 310.4,428.7" fill="none" stroke="#007876" stroke-linecap="round" class="branch" style="--len:6;--op:0.367;--sw:0.5;--dur:1.6s;animation-delay:14.54s;stroke-width:0.54"/>
<path d="M310.4,428.7 Q307.1,427.7 305.9,428.9" fill="none" stroke="#007876" stroke-linecap="round" class="branch" style="--len:5;--op:0.367;--sw:0.5;--dur:1.6s;animation-delay:14.57s;stroke-width:0.54"/>
<path d="M305.9,428.9 Q303.9,430.0 301.7,429.3" fill="none" stroke="#007876" stroke-linecap="round" class="branch" style="--len:4;--op:0.367;--sw:0.5;--dur:1.6s;animation-delay:14.61s;stroke-width:0.54"/>
<path d="M301.7,429.3 Q299.9,429.3 298.3,429.7" fill="none" stroke="#007876" stroke-linecap="round" class="branch" style="--len:3;--op:0.367;--sw:0.5;--dur:1.6s;animation-delay:14.65s;stroke-width:0.54"/>
<path d="M316.1,428.6 Q313.9,428.5 313.2,429.9" fill="none" stroke="#002343" stroke-linecap="round" class="branch" style="--len:3;--op:0.458;--sw:1.5;--dur:1.3s;animation-delay:10.68s;stroke-width:1.52"/>
<path d="M313.2,429.9 Q311.2,431.2 308.2,431.9" fill="none" stroke="#002343" stroke-linecap="round" class="branch" style="--len:5;--op:0.458;--sw:1.5;--dur:1.3s;animation-delay:10.72s;stroke-width:1.52"/>
<path d="M308.2,431.9 Q305.9,431.1 304.7,433.3" fill="none" stroke="#002343" stroke-linecap="round" class="branch" style="--len:4;--op:0.458;--sw:1.5;--dur:1.3s;animation-delay:10.76s;stroke-width:1.52"/>
<path d="M304.7,433.3 Q302.7,434.4 300.7,434.9" fill="none" stroke="#002343" stroke-linecap="round" class="branch" style="--len:4;--op:0.458;--sw:1.5;--dur:1.3s;animation-delay:10.80s;stroke-width:1.52"/>
<path d="M300.7,434.9 Q298.6,436.6 295.5,437.4" fill="none" stroke="#005566" stroke-linecap="round" class="branch" style="--len:6;--op:0.367;--sw:0.5;--dur:1.6s;animation-delay:14.83s;stroke-width:0.54"/>
<path d="M295.5,437.4 Q291.7,437.2 289.9,438.5" fill="none" stroke="#005566" stroke-linecap="round" class="branch" style="--len:6;--op:0.367;--sw:0.5;--dur:1.6s;animation-delay:14.87s;stroke-width:0.54"/>
<path d="M289.9,438.5 Q288.7,438.4 286.2,438.7" fill="none" stroke="#005566" stroke-linecap="round" class="branch" style="--len:4;--op:0.367;--sw:0.5;--dur:1.6s;animation-delay:14.91s;stroke-width:0.54"/>
<path d="M324.6,423.4 Q323.8,421.8 320.9,421.1" fill="none" stroke="#00606c" stroke-linecap="round" class="branch" style="--len:4;--op:0.458;--sw:1.5;--dur:1.3s;animation-delay:10.95s;stroke-width:1.52"/>
<path d="M320.9,421.1 Q317.6,418.5 316.3,417.9" fill="none" stroke="#00606c" stroke-linecap="round" class="branch" style="--len:6;--op:0.458;--sw:1.5;--dur:1.3s;animation-delay:10.98s;stroke-width:1.52"/>
<path d="M316.3,417.9 Q315.1,416.8 311.5,414.6" fill="none" stroke="#00606c" stroke-linecap="round" class="branch" style="--len:6;--op:0.458;--sw:1.5;--dur:1.3s;animation-delay:11.02s;stroke-width:1.52"/>
<path d="M311.5,414.6 Q309.9,414.0 306.9,411.5" fill="none" stroke="#00606c" stroke-linecap="round" class="branch" style="--len:6;--op:0.458;--sw:1.5;--dur:1.3s;animation-delay:11.06s;stroke-width:1.52"/>
<path d="M306.9,411.5 Q305.2,411.2 303.1,409.3" fill="none" stroke="#00606c" stroke-linecap="round" class="branch" style="--len:4;--op:0.458;--sw:1.5;--dur:1.3s;animation-delay:11.10s;stroke-width:1.52"/>
<path d="M303.1,409.3 Q301.5,408.3 302.8,405.3" fill="none" stroke="#009b83" stroke-linecap="round" class="branch" style="--len:4;--op:0.367;--sw:0.5;--dur:1.6s;animation-delay:15.13s;stroke-width:0.54"/>
<path d="M302.8,405.3 Q301.5,403.0 302.9,400.1" fill="none" stroke="#009b83" stroke-linecap="round" class="branch" style="--len:5;--op:0.367;--sw:0.5;--dur:1.6s;animation-delay:15.17s;stroke-width:0.54"/>
<path d="M302.9,400.1 Q304.1,396.5 303.4,394.7" fill="none" stroke="#009b83" stroke-linecap="round" class="branch" style="--len:5;--op:0.367;--sw:0.5;--dur:1.6s;animation-delay:15.21s;stroke-width:0.54"/>
<path d="M303.1,409.3 Q300.5,408.7 300.0,406.4" fill="none" stroke="#003d57" stroke-linecap="round" class="branch" style="--len:4;--op:0.367;--sw:0.5;--dur:1.6s;animation-delay:15.24s;stroke-width:0.54"/>
<path d="M300.0,406.4 Q297.7,404.3 297.4,404.8" fill="none" stroke="#003d57" stroke-linecap="round" class="branch" style="--len:3;--op:0.367;--sw:0.5;--dur:1.6s;animation-delay:15.28s;stroke-width:0.54"/>
<path d="M297.4,404.8 Q294.8,405.5 292.8,403.2" fill="none" stroke="#003d57" stroke-linecap="round" class="branch" style="--len:5;--op:0.367;--sw:0.5;--dur:1.6s;animation-delay:15.32s;stroke-width:0.54"/>
<path d="M391.1,365.7 Q390.2,364.1 390.2,362.8" fill="none" stroke="#001534" stroke-linecap="round" class="branch" style="--len:3;--op:0.550;--sw:2.8;--dur:1.0s;animation-delay:7.36s;stroke-width:2.80"/>
<path d="M390.2,362.8 Q388.4,361.8 388.1,357.9" fill="none" stroke="#001534" stroke-linecap="round" class="branch" style="--len:5;--op:0.550;--sw:2.8;--dur:1.0s;animation-delay:7.39s;stroke-width:2.80"/>
<path d="M388.1,357.9 Q385.8,357.0 385.5,353.5" fill="none" stroke="#001534" stroke-linecap="round" class="branch" style="--len:5;--op:0.550;--sw:2.8;--dur:1.0s;animation-delay:7.43s;stroke-width:2.80"/>
<path d="M385.5,353.5 Q384.2,352.7 385.8,349.8" fill="none" stroke="#002242" stroke-linecap="round" class="branch" style="--len:4;--op:0.458;--sw:1.5;--dur:1.3s;animation-delay:11.47s;stroke-width:1.52"/>
<path d="M385.8,349.8 Q386.9,348.5 386.2,346.2" fill="none" stroke="#002242" stroke-linecap="round" class="branch" style="--len:4;--op:0.458;--sw:1.5;--dur:1.3s;animation-delay:11.51s;stroke-width:1.52"/>
<path d="M386.2,346.2 Q385.0,345.2 386.6,343.2" fill="none" stroke="#002242" stroke-linecap="round" class="branch" style="--len:3;--op:0.458;--sw:1.5;--dur:1.3s;animation-delay:11.54s;stroke-width:1.52"/>
<path d="M386.6,343.2 Q386.1,342.6 387.3,340.3" fill="none" stroke="#002242" stroke-linecap="round" class="branch" style="--len:3;--op:0.458;--sw:1.5;--dur:1.3s;animation-delay:11.58s;stroke-width:1.52"/>
<path d="M387.3,340.3 Q387.4,338.6 388.4,336.6" fill="none" stroke="#002242" stroke-linecap="round" class="branch" style="--len:4;--op:0.458;--sw:1.5;--dur:1.3s;animation-delay:11.62s;stroke-width:1.52"/>
<path d="M388.4,336.6 Q388.1,335.9 389.6,333.5" fill="none" stroke="#002242" stroke-linecap="round" class="branch" style="--len:3;--op:0.458;--sw:1.5;--dur:1.3s;animation-delay:11.66s;stroke-width:1.52"/>
<path d="M389.6,333.5 Q389.1,332.2 390.8,330.6" fill="none" stroke="#002242" stroke-linecap="round" class="branch" style="--len:3;--op:0.458;--sw:1.5;--dur:1.3s;animation-delay:11.69s;stroke-width:1.52"/>
<path d="M385.5,353.5 Q384.4,352.5 382.2,349.8" fill="none" stroke="#001534" stroke-linecap="round" class="branch" style="--len:5;--op:0.550;--sw:2.8;--dur:1.0s;animation-delay:7.73s;stroke-width:2.80"/>
<path d="M382.2,349.8 Q379.5,348.1 379.2,347.6" fill="none" stroke="#001534" stroke-linecap="round" class="branch" style="--len:4;--op:0.550;--sw:2.8;--dur:1.0s;animation-delay:7.77s;stroke-width:2.80"/>
<path d="M379.2,347.6 Q376.1,348.1 375.1,346.0" fill="none" stroke="#001534" stroke-linecap="round" class="branch" style="--len:4;--op:0.550;--sw:2.8;--dur:1.0s;animation-delay:7.80s;stroke-width:2.80"/>
<path d="M375.1,346.0 Q373.5,346.1 370.6,345.2" fill="none" stroke="#001534" stroke-linecap="round" class="branch" style="--len:5;--op:0.550;--sw:2.8;--dur:1.0s;animation-delay:7.84s;stroke-width:2.80"/>
<path d="M370.6,345.2 Q367.6,345.2 366.3,345.4" fill="none" stroke="#001534" stroke-linecap="round" class="branch" style="--len:4;--op:0.550;--sw:2.8;--dur:1.0s;animation-delay:7.88s;stroke-width:2.80"/>
<path d="M366.3,345.4 Q364.5,346.4 361.4,346.5" fill="none" stroke="#001534" stroke-linecap="round" class="branch" style="--len:5;--op:0.550;--sw:2.8;--dur:1.0s;animation-delay:7.92s;stroke-width:2.80"/>
<path d="M361.4,346.5 Q358.8,347.6 357.6,348.2" fill="none" stroke="#001534" stroke-linecap="round" class="branch" style="--len:4;--op:0.550;--sw:2.8;--dur:1.0s;animation-delay:7.95s;stroke-width:2.80"/>
<path d="M357.6,348.2 Q356.9,348.3 353.7,350.9" fill="none" stroke="#001534" stroke-linecap="round" class="branch" style="--len:5;--op:0.550;--sw:2.8;--dur:1.0s;animation-delay:7.99s;stroke-width:2.80"/>
<path d="M353.7,350.9 Q351.9,351.1 351.5,353.4" fill="none" stroke="#001534" stroke-linecap="round" class="branch" style="--len:3;--op:0.550;--sw:2.8;--dur:1.0s;animation-delay:8.03s;stroke-width:2.80"/>
<path d="M351.5,353.4 Q352.2,357.1 351.2,357.8" fill="none" stroke="#002646" stroke-linecap="round" class="branch" style="--len:4;--op:0.458;--sw:1.5;--dur:1.3s;animation-delay:12.07s;stroke-width:1.52"/>
<path d="M351.2,357.8 Q351.0,359.5 350.8,362.5" fill="none" stroke="#002646" stroke-linecap="round" class="branch" style="--len:5;--op:0.458;--sw:1.5;--dur:1.3s;animation-delay:12.10s;stroke-width:1.52"/>
<path d="M350.8,362.5 Q350.8,363.2 350.3,366.6" fill="none" stroke="#002646" stroke-linecap="round" class="branch" style="--len:4;--op:0.458;--sw:1.5;--dur:1.3s;animation-delay:12.14s;stroke-width:1.52"/>
<path d="M350.3,366.6 Q349.4,367.2 349.7,370.5" fill="none" stroke="#002646" stroke-linecap="round" class="branch" style="--len:4;--op:0.458;--sw:1.5;--dur:1.3s;animation-delay:12.18s;stroke-width:1.52"/>
<path d="M349.7,370.5 Q349.4,374.0 349.0,374.7" fill="none" stroke="#002646" stroke-linecap="round" class="branch" style="--len:4;--op:0.458;--sw:1.5;--dur:1.3s;animation-delay:12.22s;stroke-width:1.52"/>
<path d="M349.0,374.7 Q348.6,374.6 350.1,377.4" fill="none" stroke="#004c61" stroke-linecap="round" class="branch" style="--len:3;--op:0.367;--sw:0.5;--dur:1.6s;animation-delay:16.25s;stroke-width:0.54"/>
<path d="M350.1,377.4 Q349.9,378.6 352.5,381.8" fill="none" stroke="#004c61" stroke-linecap="round" class="branch" style="--len:5;--op:0.367;--sw:0.5;--dur:1.6s;animation-delay:16.29s;stroke-width:0.54"/>
<path d="M352.5,381.8 Q354.6,383.8 354.2,384.0" fill="none" stroke="#004c61" stroke-linecap="round" class="branch" style="--len:3;--op:0.367;--sw:0.5;--dur:1.6s;animation-delay:16.33s;stroke-width:0.54"/>
<path d="M351.5,353.4 Q351.2,355.1 348.8,357.4" fill="none" stroke="#006870" stroke-linecap="round" class="branch" style="--len:5;--op:0.458;--sw:1.5;--dur:1.3s;animation-delay:12.37s;stroke-width:1.52"/>
<path d="M348.8,357.4 Q348.0,359.7 344.4,360.7" fill="none" stroke="#006870" stroke-linecap="round" class="branch" style="--len:5;--op:0.458;--sw:1.5;--dur:1.3s;animation-delay:12.40s;stroke-width:1.52"/>
<path d="M344.4,360.7 Q344.6,362.8 342.7,363.4" fill="none" stroke="#005465" stroke-linecap="round" class="branch" style="--len:3;--op:0.367;--sw:0.5;--dur:1.6s;animation-delay:16.44s;stroke-width:0.54"/>
<path d="M342.7,363.4 Q342.0,365.0 340.6,367.5" fill="none" stroke="#005465" stroke-linecap="round" class="branch" style="--len:5;--op:0.367;--sw:0.5;--dur:1.6s;animation-delay:16.48s;stroke-width:0.54"/>
<path d="M340.6,367.5 Q338.4,367.3 337.7,369.0" fill="none" stroke="#46bfa0" stroke-linecap="round" class="branch" style="--len:3;--op:0.275;--sw:0.3;--dur:1.9s;animation-delay:20.51s;stroke-width:0.30"/>
<path d="M337.7,369.0 Q338.2,369.8 335.9,370.0" fill="none" stroke="#46bfa0" stroke-linecap="round" class="branch" style="--len:2;--op:0.275;--sw:0.3;--dur:1.9s;animation-delay:20.55s;stroke-width:0.30"/>
<path d="M335.9,370.0 Q333.4,369.8 334.0,371.1" fill="none" stroke="#46bfa0" stroke-linecap="round" class="branch" style="--len:2;--op:0.275;--sw:0.3;--dur:1.9s;animation-delay:20.59s;stroke-width:0.30"/>
<path d="M340.6,367.5 Q338.4,368.5 339.2,370.3" fill="none" stroke="#005465" stroke-linecap="round" class="branch" style="--len:3;--op:0.367;--sw:0.5;--dur:1.6s;animation-delay:16.63s;stroke-width:0.54"/>
<path d="M339.2,370.3 Q338.4,373.2 337.3,375.0" fill="none" stroke="#005465" stroke-linecap="round" class="branch" style="--len:5;--op:0.367;--sw:0.5;--dur:1.6s;animation-delay:16.66s;stroke-width:0.54"/>
<path d="M337.3,375.0 Q336.2,375.3 335.1,377.3" fill="none" stroke="#00a489" stroke-linecap="round" class="branch" style="--len:3;--op:0.275;--sw:0.3;--dur:1.9s;animation-delay:20.70s;stroke-width:0.30"/>
<path d="M335.1,377.3 Q334.0,377.3 333.4,379.4" fill="none" stroke="#00a489" stroke-linecap="round" class="branch" style="--len:3;--op:0.275;--sw:0.3;--dur:1.9s;animation-delay:20.74s;stroke-width:0.30"/>
<path d="M333.4,379.4 Q332.9,379.0 331.5,381.7" fill="none" stroke="#00a489" stroke-linecap="round" class="branch" style="--len:3;--op:0.275;--sw:0.3;--dur:1.9s;animation-delay:20.78s;stroke-width:0.30"/>
<path d="M344.4,360.7 Q342.9,361.3 341.0,361.8" fill="none" stroke="#006870" stroke-linecap="round" class="branch" style="--len:4;--op:0.458;--sw:1.5;--dur:1.3s;animation-delay:12.81s;stroke-width:1.52"/>
<path d="M341.0,361.8 Q337.5,363.4 335.7,362.0" fill="none" stroke="#006870" stroke-linecap="round" class="branch" style="--len:5;--op:0.458;--sw:1.5;--dur:1.3s;animation-delay:12.85s;stroke-width:1.52"/>
<path d="M335.7,362.0 Q333.9,361.7 331.5,360.9" fill="none" stroke="#006870" stroke-linecap="round" class="branch" style="--len:4;--op:0.458;--sw:1.5;--dur:1.3s;animation-delay:12.89s;stroke-width:1.52"/>
<path d="M331.5,360.9 Q329.2,359.2 326.9,358.0" fill="none" stroke="#006870" stroke-linecap="round" class="branch" style="--len:5;--op:0.458;--sw:1.5;--dur:1.3s;animation-delay:12.93s;stroke-width:1.52"/>
<path d="M326.9,358.0 Q324.1,354.7 323.8,354.3" fill="none" stroke="#006870" stroke-linecap="round" class="branch" style="--len:5;--op:0.458;--sw:1.5;--dur:1.3s;animation-delay:12.96s;stroke-width:1.52"/>
<path d="M467.9,374.0 Q469.7,374.1 471.5,374.3 Q473.3,374.4 475.1,374.6 Q476.9,374.9 478.6,375.2 Q480.4,375.5 482.2,375.8 Q483.9,376.2 485.7,376.6 Q487.5,376.9 489.2,377.3 Q491.0,377.8 492.7,378.2 Q494.5,378.6 496.2,379.0 Q498.0,379.4 499.7,379.8 Q501.5,380.2 503.2,380.5 Q505.0,380.9 506.8,381.3 Q508.5,381.6 510.3,382.0 Q512.1,382.3 513.8,382.7 Q515.6,383.1 517.4,383.4 Q519.1,383.8 520.9,384.2 Q522.6,384.7 524.3,385.1 Q526.1,385.6 527.8,386.2 Q529.5,386.7 531.2,387.3 Q532.9,387.9 534.6,388.6 Q536.2,389.3 537.9,390.0 Q539.5,390.8 541.1,391.6 Q542.7,392.4 544.3,393.3 Q545.9,394.2 547.4,395.1 Q549.0,396.0 550.5,397.0 Q552.0,397.9 553.5,398.9 Q555.0,399.9 556.5,400.9 Q558.0,401.9 559.5,402.9 Q561.0,403.9 562.5,404.9 Q564.0,405.8 565.5,406.8 Q567.1,407.8 568.6,408.7" fill="none" stroke="#006e73" stroke-linecap="round" class="flow" style="--len:108;--op:0.150;--dur:3.0s;animation-delay:15.00s;stroke-width:0.4"/>
<path d="M450.7,394.6 Q452.5,394.6 454.3,394.7 Q456.1,394.7 457.9,394.7 Q459.7,394.8 461.5,394.8 Q463.3,394.9 465.0,395.0 Q466.8,395.2 468.6,395.3 Q470.4,395.5 472.2,395.7 Q474.0,395.9 475.8,396.1 Q477.6,396.3 479.4,396.6 Q481.1,396.8 482.9,397.1 Q484.7,397.3 486.5,397.6 Q488.3,397.9 490.0,398.1 Q491.8,398.4 493.6,398.7 Q495.4,398.9 497.2,399.2 Q498.9,399.5 500.7,399.7 Q502.5,400.0 504.3,400.2 Q506.1,400.4 507.9,400.7 Q509.6,400.9 511.4,401.2 Q513.2,401.4 515.0,401.7 Q516.8,402.0 518.5,402.3 Q520.3,402.6 522.1,402.9 Q523.8,403.3 525.6,403.7 Q527.4,404.1 529.1,404.6 Q530.8,405.1 532.5,405.7 Q534.2,406.3 535.9,406.9 Q537.6,407.6 539.2,408.4 Q540.8,409.2 542.4,410.1 Q543.9,411.0 545.4,412.0 Q546.9,413.1 548.3,414.2 Q549.6,415.4 550.9,416.6 Q552.1,418.0 553.3,419.4" fill="none" stroke="#007174" stroke-linecap="round" class="flow" style="--len:108;--op:0.150;--dur:3.0s;animation-delay:15.29s;stroke-width:0.4"/>
<path d="M445.2,413.6 Q447.0,413.8 448.7,414.0 Q450.5,414.2 452.3,414.4 Q454.1,414.6 455.9,414.8 Q457.7,415.0 459.5,415.2 Q461.3,415.5 463.0,415.7 Q464.8,415.9 466.6,416.2 Q468.4,416.4 470.2,416.6 Q472.0,416.9 473.8,417.1 Q475.5,417.3 477.3,417.5 Q479.1,417.8 480.9,418.0 Q482.7,418.2 484.5,418.4 Q486.3,418.6 488.0,418.8 Q489.8,419.1 491.6,419.3 Q493.4,419.5 495.2,419.7 Q497.0,420.0 498.8,420.2 Q500.5,420.5 502.3,420.8 Q504.1,421.1 505.9,421.4 Q507.6,421.7 509.4,422.0 Q511.2,422.4 512.9,422.7 Q514.7,423.1 516.5,423.5 Q518.2,423.9 520.0,424.3 Q521.7,424.8 523.4,425.2 Q525.2,425.7 526.9,426.2 Q528.6,426.7 530.3,427.3 Q532.0,427.9 533.7,428.5 Q535.4,429.1 537.1,429.7 Q538.8,430.4 540.4,431.1 Q542.1,431.8 543.9,431.8 Q542.1,431.4 543.6,432.5 Q542.0,431.5 543.6,432.4" fill="none" stroke="#007375" stroke-linecap="round" class="flow" style="--len:102;--op:0.150;--dur:3.0s;animation-delay:15.57s;stroke-width:0.4"/>
<path d="M454.4,396.2 Q456.2,396.3 458.0,396.3 Q459.8,396.4 461.6,396.5 Q463.4,396.6 465.2,396.7 Q467.0,396.9 468.8,397.0 Q470.6,397.2 472.3,397.4 Q474.1,397.6 475.9,397.8 Q477.7,398.0 479.5,398.3 Q481.3,398.5 483.1,398.8 Q484.8,399.0 486.6,399.3 Q488.4,399.5 490.2,399.8 Q492.0,400.1 493.7,400.3 Q495.5,400.6 497.3,400.8 Q499.1,401.1 500.9,401.3 Q502.7,401.6 504.4,401.8 Q506.2,402.0 508.0,402.3 Q509.8,402.5 511.6,402.8 Q513.4,403.0 515.1,403.3 Q516.9,403.6 518.7,403.9 Q520.5,404.2 522.2,404.6 Q524.0,404.9 525.7,405.3 Q527.5,405.8 529.2,406.3 Q530.9,406.8 532.7,407.3 Q534.3,407.9 536.0,408.6 Q537.7,409.3 539.3,410.1 Q540.9,410.9 542.5,411.8 Q544.0,412.8 545.5,413.8 Q546.9,414.9 548.2,416.1 Q549.5,417.3 550.8,418.7 Q551.9,420.1 552.9,421.5 Q553.8,423.1 554.6,424.7" fill="none" stroke="#007576" stroke-linecap="round" class="flow" style="--len:108;--op:0.150;--dur:3.0s;animation-delay:15.86s;stroke-width:0.4"/>
<path d="M475.9,443.4 Q477.6,444.0 479.3,444.6 Q481.0,445.2 482.7,445.8 Q484.4,446.4 486.1,447.0 Q487.8,447.6 489.5,448.2 Q491.2,448.8 492.9,449.3 Q494.7,449.9 496.4,450.4 Q498.1,450.9 499.8,451.5 Q501.6,451.9 503.3,452.4 Q505.0,452.8 506.8,453.2 Q508.6,453.5 510.4,453.6 Q512.2,453.5 513.9,453.2 Q515.6,452.6 517.3,451.8 Q518.8,450.8 520.3,449.8 Q521.7,448.7 523.1,447.6 Q524.5,446.5 525.8,445.3 Q527.2,444.1 528.5,442.9 Q529.8,441.7 531.2,440.4 Q532.5,439.2 533.8,437.9 Q535.1,436.7 536.5,435.5 Q537.9,434.4 539.3,433.4 Q540.9,432.4 542.5,431.7 Q541.9,433.4 541.0,431.9 Q542.8,432.1 541.3,431.1 Q542.9,432.0 541.3,431.1 Q542.9,432.0 541.3,431.1 Q542.9,432.0 541.3,431.1 Q542.9,432.0 541.3,431.1 Q542.9,432.0 541.3,431.1 Q542.9,432.0 541.3,431.1 Q542.9,432.0 541.3,431.1" fill="none" stroke="#007776" stroke-linecap="round" class="flow" style="--len:78;--op:0.150;--dur:3.0s;animation-delay:16.14s;stroke-width:0.4"/>
<path d="M458.2,482.2 Q459.6,483.3 461.0,484.5 Q462.3,485.6 463.7,486.8 Q465.1,488.0 466.4,489.2 Q467.8,490.4 469.1,491.6 Q470.4,492.8 471.8,494.0 Q473.1,495.2 474.4,496.4 Q475.8,497.6 477.1,498.8 Q478.4,500.0 479.8,501.3 Q481.1,502.5 482.4,503.7 Q483.8,504.8 485.2,506.0 Q486.6,507.2 488.0,508.3 Q489.4,509.4 490.9,510.4 Q492.4,511.4 494.0,512.2 Q495.7,512.8 497.5,512.8 Q498.4,511.2 499.0,509.5 Q499.5,507.8 499.8,506.0 Q500.0,504.3 500.1,502.5 Q500.1,500.7 499.5,498.9 Q500.7,500.3 499.3,499.1 Q500.6,500.4 499.3,499.2 Q500.5,500.5 499.2,499.2 Q500.5,500.5 499.2,499.2 Q500.5,500.5 499.2,499.2 Q500.5,500.5 499.2,499.2 Q500.5,500.5 499.2,499.2 Q500.5,500.5 499.2,499.2 Q500.5,500.5 499.2,499.2 Q500.5,500.5 499.2,499.2 Q500.5,500.5 499.2,499.2 Q500.5,500.5 499.2,499.2" fill="none" stroke="#007a77" stroke-linecap="round" class="flow" style="--len:65;--op:0.150;--dur:3.0s;animation-delay:16.43s;stroke-width:0.4"/>
<path d="M465.2,482.9 Q466.6,484.1 467.9,485.2 Q469.3,486.4 470.6,487.6 Q472.0,488.8 473.3,490.0 Q474.7,491.2 476.0,492.4 Q477.3,493.6 478.7,494.8 Q480.0,496.0 481.3,497.3 Q482.7,498.5 484.0,499.7 Q485.4,500.8 486.7,502.0 Q488.1,503.2 489.5,504.3 Q490.9,505.4 492.3,506.5 Q493.8,507.6 495.4,508.5 Q497.0,509.3 498.8,509.5 Q499.6,507.9 499.8,506.1 Q500.1,504.4 500.0,502.6 Q500.5,500.9 499.3,499.5 Q500.6,500.7 499.4,499.5 Q500.7,500.7 499.4,499.4 Q500.7,500.7 499.4,499.4 Q500.7,500.7 499.4,499.4 Q500.7,500.7 499.4,499.4 Q500.7,500.7 499.4,499.4 Q500.7,500.7 499.4,499.4 Q500.7,500.7 499.4,499.4 Q500.7,500.7 499.4,499.4 Q500.7,500.7 499.4,499.4 Q500.7,500.7 499.4,499.4 Q500.7,500.7 499.4,499.4 Q500.7,500.7 499.4,499.4 Q500.7,500.7 499.4,499.4 Q500.7,500.7 499.4,499.4" fill="none" stroke="#007c78" stroke-linecap="round" class="flow" style="--len:54;--op:0.150;--dur:3.0s;animation-delay:16.71s;stroke-width:0.4"/>
<path d="M454.2,465.5 Q455.7,466.4 457.2,467.3 Q458.8,468.3 460.3,469.3 Q461.7,470.3 463.2,471.4 Q464.7,472.4 466.1,473.5 Q467.5,474.6 468.9,475.7 Q470.3,476.9 471.7,478.0 Q473.1,479.2 474.5,480.4 Q475.8,481.6 477.1,482.8 Q478.5,484.0 479.8,485.2 Q481.1,486.4 482.4,487.7 Q483.7,488.9 485.0,490.1 Q486.3,491.4 487.6,492.6 Q489.0,493.8 490.3,495.1 Q491.6,496.3 492.9,497.5 Q494.3,498.7 495.7,499.8 Q497.0,501.0 498.5,502.1 Q500.0,503.0 500.2,501.2 Q499.4,499.6 500.7,500.8 Q499.5,499.5 500.8,500.8 Q499.5,499.5 500.8,500.8 Q499.5,499.5 500.8,500.8 Q499.5,499.5 500.8,500.8 Q499.5,499.5 500.8,500.8 Q499.5,499.5 500.8,500.8 Q499.5,499.5 500.8,500.8 Q499.5,499.5 500.8,500.8 Q499.5,499.5 500.8,500.8 Q499.5,499.5 500.8,500.8 Q499.5,499.5 500.8,500.8 Q499.5,499.5 500.8,500.8" fill="none" stroke="#007e79" stroke-linecap="round" class="flow" style="--len:60;--op:0.150;--dur:3.0s;animation-delay:17.00s;stroke-width:0.4"/>
<path d="M449.8,484.2 Q451.1,485.4 452.5,486.5 Q453.9,487.7 455.3,488.9 Q456.6,490.0 458.0,491.2 Q459.3,492.4 460.6,493.7 Q462.0,494.9 463.3,496.1 Q464.6,497.3 465.9,498.6 Q467.2,499.8 468.5,501.0 Q469.8,502.3 471.1,503.5 Q472.4,504.8 473.7,506.0 Q475.0,507.2 476.3,508.5 Q477.7,509.7 479.0,510.9 Q480.4,512.1 481.7,513.3 Q483.1,514.4 484.5,515.5 Q486.0,516.6 487.4,517.6 Q489.0,518.5 490.7,519.2 Q492.4,519.5 494.0,518.7 Q494.9,517.2 496.0,515.7 Q496.9,514.2 497.7,512.6 Q498.5,510.9 499.1,509.2 Q499.6,507.5 499.9,505.7 Q500.1,503.9 500.1,502.1 Q500.0,500.3 500.0,498.5 Q499.2,500.2 500.7,501.3 Q499.5,499.9 500.9,501.1 Q499.6,499.8 500.9,501.0 Q499.7,499.7 501.0,501.0 Q499.7,499.7 501.0,500.9 Q499.7,499.7 501.0,500.9 Q499.7,499.7 501.0,500.9 Q499.7,499.7 501.0,500.9" fill="none" stroke="#008079" stroke-linecap="round" class="flow" style="--len:82;--op:0.150;--dur:3.0s;animation-delay:17.29s;stroke-width:0.4"/>
<path d="M444.3,453.9 Q446.0,454.6 447.6,455.4 Q449.3,456.1 450.9,456.9 Q452.5,457.7 454.1,458.5 Q455.7,459.3 457.3,460.2 Q458.8,461.1 460.4,462.0 Q461.9,462.9 463.5,463.9 Q465.0,464.9 466.5,465.9 Q467.9,466.9 469.4,468.0 Q470.8,469.0 472.3,470.1 Q473.7,471.3 475.0,472.4 Q476.4,473.6 477.8,474.8 Q479.1,476.0 480.4,477.2 Q481.7,478.5 483.0,479.7 Q484.3,481.0 485.5,482.3 Q486.8,483.6 488.0,484.9 Q489.3,486.2 490.5,487.5 Q491.7,488.8 493.0,490.1 Q494.2,491.4 495.4,492.8 Q496.6,494.1 497.8,495.5 Q498.9,496.8 500.0,498.3 Q499.5,500.0 500.9,501.2 Q499.7,499.9 501.0,501.1 Q499.7,499.8 501.0,501.0 Q499.8,499.8 501.1,501.0 Q499.8,499.8 501.1,501.0 Q499.8,499.8 501.1,501.0 Q499.8,499.8 501.1,501.0 Q499.8,499.8 501.1,501.0 Q499.8,499.8 501.1,501.0 Q499.8,499.8 501.1,501.0" fill="none" stroke="#00837a" stroke-linecap="round" class="flow" style="--len:75;--op:0.150;--dur:3.0s;animation-delay:17.57s;stroke-width:0.4"/>
<path d="M483.4,473.1 Q484.6,474.4 485.9,475.7 Q487.1,477.0 488.3,478.3 Q489.5,479.7 490.7,481.0 Q491.8,482.4 492.9,483.8 Q494.0,485.3 495.1,486.7 Q496.1,488.2 497.1,489.7 Q498.0,491.3 498.8,492.9 Q499.5,494.5 499.9,496.3 Q499.8,498.1 500.3,499.8 Q498.8,498.8 500.1,500.0 Q498.8,498.9 500.1,500.1 Q498.9,498.8 500.1,500.0 Q498.8,498.9 500.1,500.1 Q498.9,498.8 500.2,500.0 Q498.8,498.9 500.1,500.1 Q498.9,498.8 500.1,500.1 Q498.8,498.9 500.1,500.1 Q498.9,498.8 500.1,500.1 Q498.8,498.9 500.1,500.1 Q498.8,498.8 500.1,500.1 Q498.8,498.9 500.1,500.1 Q498.8,498.8 500.1,500.1 Q498.8,498.9 500.1,500.1 Q498.8,498.8 500.1,500.1 Q498.8,498.9 500.1,500.1 Q498.8,498.8 500.1,500.1 Q498.8,498.9 500.1,500.1 Q498.8,498.8 500.1,500.1 Q498.8,498.9 500.1,500.1 Q498.8,498.8 500.1,500.1" fill="none" stroke="#00857b" stroke-linecap="round" class="flow" style="--len:34;--op:0.150;--dur:3.0s;animation-delay:17.86s;stroke-width:0.4"/>
<path d="M451.1,437.0 Q452.8,437.5 454.6,438.0 Q456.3,438.5 458.0,439.0 Q459.8,439.5 461.5,440.1 Q463.2,440.7 464.9,441.2 Q466.6,441.8 468.3,442.4 Q470.0,443.1 471.6,443.7 Q473.3,444.3 475.0,445.0 Q476.7,445.6 478.4,446.3 Q480.0,446.9 481.7,447.6 Q483.4,448.3 485.1,448.9 Q486.7,449.6 488.4,450.2 Q490.1,450.9 491.8,451.5 Q493.5,452.1 495.2,452.8 Q496.8,453.4 498.5,454.0 Q500.2,454.6 502.0,455.1 Q503.7,455.7 505.4,456.1 Q507.2,456.5 509.0,456.6 Q510.8,456.5 512.5,455.9 Q514.0,455.0 515.5,453.9 Q516.9,452.8 518.3,451.7 Q519.7,450.6 521.1,449.4 Q522.5,448.3 523.8,447.1 Q525.2,445.9 526.6,444.7 Q527.9,443.5 529.2,442.3 Q530.5,441.0 531.8,439.8 Q533.1,438.6 534.4,437.3 Q535.8,436.1 537.2,435.0 Q538.6,433.9 540.1,432.9 Q541.7,432.0 543.4,431.5 Q541.6,431.8 543.4,432.1" fill="none" stroke="#00877c" stroke-linecap="round" class="flow" style="--len:105;--op:0.150;--dur:3.0s;animation-delay:18.14s;stroke-width:0.4"/>
<path d="M443.9,423.9 Q445.7,424.2 447.4,424.4 Q449.2,424.7 451.0,425.0 Q452.8,425.3 454.6,425.5 Q456.3,425.8 458.1,426.1 Q459.9,426.5 461.6,426.8 Q463.4,427.1 465.2,427.4 Q467.0,427.8 468.7,428.1 Q470.5,428.4 472.3,428.8 Q474.0,429.1 475.8,429.4 Q477.6,429.8 479.3,430.1 Q481.1,430.4 482.9,430.7 Q484.7,431.0 486.4,431.3 Q488.2,431.6 490.0,431.9 Q491.8,432.2 493.5,432.5 Q495.3,432.8 497.1,433.2 Q498.8,433.5 500.6,433.8 Q502.4,434.2 504.2,434.5 Q505.9,434.9 507.7,435.2 Q509.4,435.6 511.2,435.9 Q513.0,436.3 514.7,436.6 Q516.5,437.0 518.3,437.3 Q520.1,437.6 521.8,437.8 Q523.6,438.0 525.4,438.2 Q527.2,438.2 529.0,438.1 Q530.8,437.8 532.5,437.4 Q534.2,436.7 535.8,435.8 Q537.3,434.8 538.7,433.8 Q540.2,432.8 541.8,432.0 Q543.6,431.5 541.8,431.7 Q543.5,432.2 541.9,431.4" fill="none" stroke="#00897c" stroke-linecap="round" class="flow" style="--len:101;--op:0.150;--dur:3.0s;animation-delay:18.43s;stroke-width:0.4"/>
<path d="M452.3,431.5 Q454.1,431.9 455.8,432.3 Q457.6,432.7 459.3,433.1 Q461.1,433.5 462.8,433.9 Q464.6,434.4 466.3,434.8 Q468.0,435.3 469.8,435.7 Q471.5,436.2 473.3,436.7 Q475.0,437.1 476.7,437.6 Q478.5,438.1 480.2,438.6 Q482.0,439.0 483.7,439.5 Q485.4,439.9 487.2,440.3 Q488.9,440.8 490.7,441.2 Q492.4,441.6 494.2,442.0 Q495.9,442.4 497.7,442.8 Q499.5,443.2 501.2,443.6 Q503.0,444.0 504.7,444.3 Q506.5,444.7 508.3,445.0 Q510.0,445.3 511.8,445.6 Q513.6,445.8 515.4,445.9 Q517.2,446.0 519.0,445.9 Q520.8,445.6 522.5,445.2 Q524.3,444.6 525.9,443.9 Q527.4,443.0 528.9,442.0 Q530.3,440.9 531.7,439.7 Q533.1,438.5 534.4,437.3 Q535.8,436.1 537.1,435.0 Q538.6,433.9 540.1,432.9 Q541.7,432.0 543.4,431.5 Q541.6,431.8 543.4,432.1 Q541.8,431.3 543.3,432.2 Q541.7,431.3 543.3,432.2" fill="none" stroke="#008b7d" stroke-linecap="round" class="flow" style="--len:98;--op:0.150;--dur:3.0s;animation-delay:18.71s;stroke-width:0.4"/>
<path d="M457.5,460.7 Q459.1,461.6 460.6,462.6 Q462.2,463.5 463.7,464.5 Q465.2,465.5 466.7,466.5 Q468.1,467.5 469.6,468.6 Q471.0,469.7 472.4,470.8 Q473.8,471.9 475.2,473.1 Q476.6,474.2 477.9,475.4 Q479.2,476.6 480.6,477.9 Q481.9,479.1 483.1,480.4 Q484.4,481.6 485.7,482.9 Q486.9,484.2 488.2,485.5 Q489.4,486.8 490.7,488.1 Q491.9,489.4 493.1,490.8 Q494.4,492.1 495.6,493.4 Q496.8,494.7 498.0,496.1 Q499.2,497.4 500.2,498.9 Q498.4,498.7 499.7,499.9 Q501.1,501.1 499.8,499.8 Q501.1,501.1 499.8,499.8 Q501.1,501.1 499.8,499.8 Q501.1,501.1 499.8,499.8 Q501.1,501.1 499.8,499.8 Q501.1,501.1 499.8,499.8 Q501.1,501.1 499.8,499.8 Q501.1,501.1 499.8,499.8 Q501.1,501.1 499.8,499.8 Q501.1,501.1 499.8,499.8 Q501.1,501.1 499.8,499.8 Q501.1,501.1 499.8,499.8 Q501.1,501.1 499.8,499.8" fill="none" stroke="#008d7e" stroke-linecap="round" class="flow" style="--len:59;--op:0.150;--dur:3.0s;animation-delay:19.00s;stroke-width:0.4"/>
<path d="M452.8,465.5 Q454.3,466.4 455.9,467.4 Q457.4,468.3 458.9,469.3 Q460.4,470.3 461.9,471.3 Q463.3,472.4 464.8,473.5 Q466.2,474.6 467.6,475.7 Q469.0,476.8 470.4,477.9 Q471.8,479.1 473.2,480.3 Q474.5,481.5 475.9,482.7 Q477.2,483.9 478.5,485.1 Q479.8,486.3 481.2,487.5 Q482.5,488.8 483.8,490.0 Q485.1,491.2 486.4,492.5 Q487.7,493.7 489.1,494.9 Q490.4,496.1 491.7,497.3 Q493.1,498.5 494.4,499.7 Q495.8,500.8 497.2,501.9 Q498.7,503.0 500.4,503.7 Q499.8,502.0 501.5,501.4 Q500.2,500.2 498.9,498.9 Q500.2,500.2 498.9,498.9 Q500.2,500.2 498.9,498.9 Q500.2,500.2 498.9,498.9 Q500.2,500.2 498.9,498.9 Q500.2,500.2 498.9,498.9 Q500.2,500.2 498.9,498.9 Q500.2,500.2 498.9,498.9 Q500.2,500.2 498.9,498.9 Q500.2,500.2 498.9,498.9 Q500.2,500.2 498.9,498.9 Q500.2,500.2 498.9,498.9" fill="none" stroke="#00907f" stroke-linecap="round" class="flow" style="--len:67;--op:0.150;--dur:3.0s;animation-delay:19.29s;stroke-width:0.4"/>
<path d="M456.8,449.5 Q458.4,450.2 460.1,451.0 Q461.7,451.7 463.3,452.5 Q464.9,453.3 466.5,454.2 Q468.1,455.0 469.7,455.9 Q471.2,456.8 472.8,457.8 Q474.3,458.7 475.8,459.7 Q477.3,460.7 478.8,461.8 Q480.2,462.8 481.6,463.9 Q483.0,465.1 484.4,466.2 Q485.8,467.4 487.1,468.6 Q488.4,469.9 489.6,471.2 Q490.8,472.5 491.9,473.9 Q493.0,475.4 494.0,476.9 Q495.0,478.4 495.8,480.0 Q496.5,481.6 497.2,483.3 Q497.7,485.0 498.2,486.8 Q498.6,488.5 499.0,490.3 Q499.3,492.1 499.5,493.8 Q499.7,495.6 499.9,497.4 Q500.0,499.2 500.1,501.0 Q499.8,499.2 500.7,500.8 Q499.5,499.5 500.8,500.8 Q499.5,499.5 500.8,500.8 Q499.5,499.5 500.8,500.8 Q499.5,499.5 500.8,500.8 Q499.5,499.5 500.8,500.8 Q499.5,499.5 500.8,500.8 Q499.5,499.5 500.8,500.8 Q499.5,499.5 500.8,500.8 Q499.5,499.5 500.8,500.8" fill="none" stroke="#00927f" stroke-linecap="round" class="flow" style="--len:73;--op:0.150;--dur:3.0s;animation-delay:19.57s;stroke-width:0.4"/>
<path d="M394.2,450.7 Q395.7,451.6 397.3,452.5 Q398.9,453.4 400.4,454.3 Q402.0,455.1 403.6,456.0 Q405.1,456.9 406.7,457.8 Q408.3,458.7 409.9,459.5 Q411.4,460.4 413.0,461.3 Q414.6,462.1 416.2,463.0 Q417.8,463.8 419.3,464.7 Q420.9,465.6 422.5,466.4 Q424.1,467.3 425.6,468.2 Q427.2,469.1 428.7,470.0 Q430.3,471.0 431.8,471.9 Q433.3,472.9 434.8,473.8 Q436.4,474.8 437.8,475.8 Q439.3,476.9 440.8,477.9 Q442.2,479.0 443.7,480.0 Q445.1,481.1 446.6,482.2 Q448.0,483.3 449.4,484.5 Q450.8,485.6 452.1,486.8 Q453.5,487.9 454.9,489.1 Q456.2,490.3 457.6,491.5 Q458.9,492.7 460.2,493.9 Q461.5,495.1 462.9,496.4 Q464.2,497.6 465.5,498.8 Q466.8,500.1 468.1,501.3 Q469.4,502.6 470.7,503.8 Q472.0,505.1 473.3,506.3 Q474.6,507.5 475.9,508.8 Q477.2,510.0 478.6,511.2 Q479.9,512.4 481.3,513.6" fill="none" stroke="#009480" stroke-linecap="round" class="flow" style="--len:108;--op:0.150;--dur:3.0s;animation-delay:19.86s;stroke-width:0.4"/>
<path d="M405.1,463.4 Q406.7,464.4 408.2,465.3 Q409.7,466.3 411.2,467.3 Q412.7,468.3 414.2,469.3 Q415.7,470.3 417.1,471.4 Q418.6,472.4 420.1,473.4 Q421.6,474.5 423.0,475.5 Q424.5,476.6 425.9,477.7 Q427.3,478.8 428.7,479.9 Q430.1,481.0 431.5,482.1 Q432.9,483.3 434.3,484.5 Q435.7,485.6 437.0,486.8 Q438.3,488.0 439.7,489.2 Q441.0,490.5 442.3,491.7 Q443.6,493.0 444.9,494.2 Q446.2,495.5 447.5,496.7 Q448.7,498.0 450.0,499.3 Q451.2,500.6 452.5,501.9 Q453.7,503.2 455.0,504.5 Q456.2,505.8 457.4,507.1 Q458.7,508.4 459.9,509.7 Q461.1,511.1 462.3,512.4 Q463.5,513.7 464.7,515.1 Q465.9,516.4 467.2,517.7 Q468.4,519.1 469.6,520.4 Q470.8,521.8 471.9,523.1 Q473.1,524.5 474.3,525.8 Q475.5,527.2 476.7,528.5 Q477.8,529.9 478.9,531.4 Q479.8,532.9 480.0,534.7 Q478.7,535.9 477.4,537.2" fill="none" stroke="#009681" stroke-linecap="round" class="flow" style="--len:108;--op:0.150;--dur:3.0s;animation-delay:20.14s;stroke-width:0.4"/>
<path d="M399.8,447.4 Q401.4,448.1 403.0,448.9 Q404.6,449.7 406.3,450.5 Q407.9,451.3 409.5,452.0 Q411.2,452.8 412.8,453.5 Q414.4,454.3 416.1,455.0 Q417.7,455.7 419.4,456.5 Q421.0,457.2 422.7,457.9 Q424.3,458.7 425.9,459.4 Q427.6,460.1 429.2,460.9 Q430.8,461.7 432.5,462.4 Q434.1,463.2 435.7,464.1 Q437.3,464.9 438.9,465.7 Q440.5,466.6 442.0,467.5 Q443.6,468.4 445.1,469.3 Q446.7,470.2 448.2,471.2 Q449.7,472.1 451.2,473.1 Q452.7,474.1 454.2,475.1 Q455.7,476.2 457.1,477.2 Q458.6,478.3 460.0,479.4 Q461.4,480.5 462.8,481.7 Q464.2,482.8 465.6,483.9 Q467.0,485.1 468.3,486.3 Q469.7,487.5 471.0,488.7 Q472.4,489.9 473.7,491.1 Q475.1,492.3 476.4,493.5 Q477.7,494.7 479.0,495.9 Q480.4,497.1 481.7,498.3 Q483.1,499.5 484.4,500.7 Q485.8,501.9 487.1,503.1 Q488.5,504.2 489.9,505.3" fill="none" stroke="#009882" stroke-linecap="round" class="flow" style="--len:108;--op:0.150;--dur:3.0s;animation-delay:20.43s;stroke-width:0.4"/>
<path d="M428.9,466.0 Q430.5,466.9 432.1,467.7 Q433.6,468.6 435.2,469.5 Q436.8,470.4 438.3,471.4 Q439.8,472.3 441.3,473.3 Q442.8,474.3 444.3,475.3 Q445.8,476.3 447.3,477.3 Q448.8,478.4 450.2,479.4 Q451.7,480.5 453.1,481.6 Q454.5,482.7 455.9,483.9 Q457.3,485.0 458.7,486.2 Q460.0,487.3 461.4,488.5 Q462.8,489.7 464.1,490.9 Q465.4,492.1 466.8,493.3 Q468.1,494.5 469.4,495.7 Q470.8,496.9 472.1,498.2 Q473.4,499.4 474.7,500.6 Q476.1,501.8 477.4,503.0 Q478.7,504.3 480.0,505.5 Q481.4,506.7 482.7,507.8 Q484.1,509.0 485.5,510.1 Q486.9,511.2 488.4,512.3 Q489.9,513.3 491.4,514.2 Q493.1,515.0 494.8,515.4 Q496.5,514.9 497.3,513.3 Q498.1,511.7 498.8,510.0 Q499.4,508.3 499.8,506.5 Q500.0,504.8 500.1,503.0 Q500.0,501.2 500.0,499.4 Q500.3,501.1 499.3,499.6 Q500.7,500.8 499.4,499.5" fill="none" stroke="#009a83" stroke-linecap="round" class="flow" style="--len:101;--op:0.150;--dur:3.0s;animation-delay:20.71s;stroke-width:0.4"/>
<path d="M345.1,446.4 Q346.3,447.7 347.6,448.9 Q349.0,450.2 350.3,451.4 Q351.7,452.5 353.1,453.7 Q354.5,454.8 355.9,455.9 Q357.3,457.0 358.8,458.0 Q360.2,459.1 361.7,460.2 Q363.2,461.2 364.6,462.3 Q366.1,463.3 367.5,464.4 Q368.9,465.5 370.4,466.6 Q371.8,467.7 373.2,468.9 Q374.5,470.0 375.9,471.2 Q377.2,472.4 378.5,473.7 Q379.8,474.9 381.1,476.2 Q382.3,477.5 383.5,478.9 Q384.7,480.2 385.8,481.6 Q386.9,483.1 388.0,484.5 Q388.9,486.0 389.9,487.6 Q390.8,489.1 391.6,490.7 Q392.4,492.3 393.1,494.0 Q393.8,495.6 394.5,497.3 Q395.1,499.0 395.6,500.7 Q396.1,502.5 396.6,504.2 Q397.1,505.9 397.5,507.7 Q397.9,509.4 398.3,511.2 Q398.6,513.0 399.0,514.7 Q399.3,516.5 399.7,518.3 Q400.1,520.0 400.5,521.8 Q400.9,523.5 401.4,525.3 Q401.9,527.0 402.4,528.7 Q402.9,530.4 403.5,532.1" fill="none" stroke="#009d83" stroke-linecap="round" class="flow" style="--len:108;--op:0.150;--dur:3.0s;animation-delay:21.00s;stroke-width:0.4"/>
<path d="M359.3,446.1 Q360.8,447.1 362.4,448.1 Q363.9,449.0 365.4,450.0 Q366.9,450.9 368.5,451.9 Q370.0,452.9 371.5,453.9 Q373.0,454.8 374.5,455.9 Q376.0,456.9 377.4,457.9 Q378.9,458.9 380.4,460.0 Q381.8,461.0 383.3,462.1 Q384.7,463.2 386.1,464.3 Q387.5,465.4 388.9,466.6 Q390.3,467.7 391.7,468.9 Q393.1,470.0 394.4,471.2 Q395.8,472.4 397.1,473.7 Q398.4,474.9 399.6,476.2 Q400.9,477.5 402.1,478.8 Q403.2,480.2 404.4,481.6 Q405.5,483.0 406.6,484.5 Q407.6,485.9 408.6,487.4 Q409.6,488.9 410.6,490.5 Q411.5,492.0 412.4,493.6 Q413.2,495.1 414.1,496.7 Q414.9,498.3 415.8,499.9 Q416.6,501.5 417.4,503.1 Q418.2,504.7 419.0,506.3 Q419.8,507.9 420.6,509.6 Q421.4,511.2 422.2,512.8 Q423.0,514.4 423.8,516.0 Q424.6,517.6 425.4,519.2 Q426.3,520.8 427.1,522.4 Q427.9,524.0 428.7,525.7" fill="none" stroke="#009f85" stroke-linecap="round" class="flow" style="--len:108;--op:0.150;--dur:3.0s;animation-delay:21.29s;stroke-width:0.4"/>
<path d="M357.1,439.3 Q358.6,440.2 360.2,441.1 Q361.7,442.0 363.3,442.9 Q364.9,443.7 366.5,444.6 Q368.0,445.5 369.6,446.4 Q371.1,447.3 372.7,448.2 Q374.2,449.2 375.8,450.1 Q377.3,451.0 378.8,452.0 Q380.3,453.0 381.8,454.0 Q383.3,455.0 384.8,456.0 Q386.3,457.0 387.8,458.0 Q389.3,459.0 390.8,460.1 Q392.2,461.1 393.7,462.1 Q395.1,463.2 396.6,464.3 Q398.1,465.3 399.5,466.4 Q400.9,467.5 402.4,468.6 Q403.8,469.7 405.2,470.8 Q406.6,471.9 408.0,473.1 Q409.3,474.3 410.7,475.4 Q412.0,476.6 413.4,477.8 Q414.7,479.1 416.0,480.3 Q417.3,481.6 418.6,482.8 Q419.8,484.1 421.1,485.4 Q422.3,486.7 423.5,488.1 Q424.7,489.4 425.9,490.7 Q427.1,492.1 428.3,493.4 Q429.5,494.8 430.7,496.1 Q431.9,497.5 433.0,498.9 Q434.2,500.2 435.3,501.6 Q436.5,503.0 437.6,504.4 Q438.8,505.8 439.9,507.2" fill="none" stroke="#00a187" stroke-linecap="round" class="flow" style="--len:108;--op:0.150;--dur:3.0s;animation-delay:21.57s;stroke-width:0.4"/>
<path d="M312.1,411.3 Q313.1,412.8 314.0,414.3 Q315.0,415.8 316.1,417.3 Q317.1,418.8 318.1,420.2 Q319.1,421.7 320.2,423.2 Q321.2,424.7 322.3,426.1 Q323.3,427.6 324.3,429.1 Q325.4,430.5 326.4,432.0 Q327.4,433.5 328.5,435.0 Q329.5,436.4 330.6,437.9 Q331.6,439.4 332.7,440.8 Q333.7,442.3 334.8,443.7 Q335.9,445.2 336.9,446.6 Q338.1,448.0 339.2,449.4 Q340.4,450.8 341.6,452.1 Q342.8,453.5 344.0,454.7 Q345.3,456.0 346.6,457.2 Q348.0,458.4 349.3,459.6 Q350.7,460.7 352.1,461.9 Q353.6,463.0 355.0,464.1 Q356.4,465.2 357.9,466.2 Q359.3,467.3 360.7,468.4 Q362.1,469.5 363.5,470.7 Q364.9,471.8 366.3,473.0 Q367.6,474.2 369.0,475.4 Q370.3,476.6 371.5,477.9 Q372.8,479.2 374.0,480.5 Q375.2,481.9 376.3,483.3 Q377.4,484.7 378.5,486.2 Q379.5,487.6 380.5,489.2 Q381.4,490.7 382.3,492.3" fill="none" stroke="#00a388" stroke-linecap="round" class="flow" style="--len:108;--op:0.150;--dur:3.0s;animation-delay:21.86s;stroke-width:0.4"/>
<path d="M316.2,407.5 Q317.3,409.0 318.4,410.4 Q319.5,411.8 320.6,413.3 Q321.7,414.7 322.8,416.1 Q323.9,417.5 325.0,419.0 Q326.1,420.4 327.2,421.8 Q328.3,423.2 329.4,424.7 Q330.5,426.1 331.6,427.5 Q332.7,428.9 333.8,430.4 Q334.9,431.8 336.1,433.2 Q337.2,434.5 338.4,435.9 Q339.5,437.3 340.7,438.6 Q341.9,440.0 343.2,441.3 Q344.4,442.6 345.7,443.9 Q347.0,445.1 348.3,446.3 Q349.6,447.6 351.0,448.7 Q352.4,449.9 353.8,451.0 Q355.2,452.1 356.6,453.2 Q358.1,454.3 359.5,455.3 Q361.0,456.4 362.5,457.4 Q363.9,458.4 365.4,459.5 Q366.9,460.5 368.3,461.6 Q369.8,462.6 371.2,463.7 Q372.7,464.8 374.1,465.9 Q375.5,467.0 376.9,468.2 Q378.2,469.4 379.6,470.5 Q380.9,471.7 382.3,473.0 Q383.5,474.2 384.8,475.5 Q386.1,476.8 387.3,478.1 Q388.4,479.5 389.6,480.9 Q390.7,482.3 391.7,483.8" fill="none" stroke="#00a68a" stroke-linecap="round" class="flow" style="--len:108;--op:0.150;--dur:3.0s;animation-delay:22.14s;stroke-width:0.4"/>
<path d="M311.6,415.9 Q312.6,417.4 313.5,418.9 Q314.5,420.4 315.6,421.9 Q316.6,423.4 317.6,424.9 Q318.6,426.4 319.6,427.8 Q320.7,429.3 321.7,430.8 Q322.7,432.3 323.7,433.8 Q324.8,435.2 325.8,436.7 Q326.8,438.2 327.8,439.7 Q328.9,441.2 329.9,442.6 Q330.9,444.1 331.9,445.6 Q333.0,447.1 334.0,448.5 Q335.1,449.9 336.2,451.4 Q337.4,452.8 338.5,454.1 Q339.7,455.5 341.0,456.8 Q342.2,458.1 343.5,459.3 Q344.9,460.5 346.2,461.7 Q347.6,462.9 349.0,464.0 Q350.4,465.1 351.8,466.2 Q353.2,467.3 354.7,468.4 Q356.1,469.5 357.5,470.6 Q358.9,471.7 360.3,472.9 Q361.7,474.0 363.1,475.2 Q364.4,476.4 365.8,477.6 Q367.0,478.9 368.3,480.1 Q369.5,481.5 370.7,482.8 Q371.9,484.2 373.0,485.6 Q374.1,487.1 375.1,488.5 Q376.1,490.0 377.0,491.6 Q377.9,493.1 378.8,494.7 Q379.6,496.3 380.3,498.0" fill="none" stroke="#00a88c" stroke-linecap="round" class="flow" style="--len:108;--op:0.150;--dur:3.0s;animation-delay:22.43s;stroke-width:0.4"/>
<path d="M324.6,423.4 Q325.6,424.8 326.7,426.3 Q327.8,427.7 328.8,429.2 Q329.9,430.6 331.0,432.1 Q332.0,433.5 333.1,435.0 Q334.2,436.4 335.3,437.8 Q336.4,439.3 337.5,440.7 Q338.7,442.1 339.8,443.5 Q341.0,444.8 342.2,446.2 Q343.4,447.5 344.6,448.8 Q345.9,450.1 347.1,451.4 Q348.5,452.6 349.8,453.8 Q351.2,455.0 352.6,456.1 Q354.0,457.2 355.4,458.3 Q356.8,459.4 358.3,460.5 Q359.7,461.6 361.2,462.6 Q362.6,463.7 364.1,464.8 Q365.5,465.9 366.9,467.0 Q368.3,468.1 369.7,469.2 Q371.1,470.4 372.5,471.6 Q373.8,472.8 375.1,474.0 Q376.4,475.2 377.7,476.5 Q378.9,477.8 380.1,479.2 Q381.3,480.5 382.5,481.9 Q383.6,483.3 384.6,484.8 Q385.6,486.3 386.6,487.8 Q387.5,489.4 388.3,490.9 Q389.1,492.6 389.9,494.2 Q390.6,495.9 391.2,497.5 Q391.9,499.2 392.4,500.9 Q393.0,502.7 393.4,504.4" fill="none" stroke="#00aa8e" stroke-linecap="round" class="flow" style="--len:108;--op:0.150;--dur:3.0s;animation-delay:22.71s;stroke-width:0.4"/>
<path d="M298.3,429.7 Q299.3,431.2 300.4,432.7 Q301.5,434.1 302.6,435.5 Q303.7,437.0 304.8,438.4 Q305.9,439.8 307.0,441.2 Q308.1,442.6 309.2,444.0 Q310.3,445.5 311.5,446.9 Q312.6,448.3 313.7,449.7 Q314.8,451.1 315.9,452.5 Q317.1,453.9 318.2,455.3 Q319.3,456.7 320.5,458.1 Q321.7,459.4 322.9,460.8 Q324.1,462.1 325.3,463.4 Q326.6,464.7 327.9,466.0 Q329.2,467.2 330.5,468.4 Q331.8,469.6 333.2,470.8 Q334.6,471.9 336.0,473.0 Q337.4,474.1 338.9,475.2 Q340.3,476.3 341.8,477.3 Q343.2,478.4 344.7,479.5 Q346.1,480.5 347.6,481.6 Q349.0,482.8 350.4,483.9 Q351.7,485.1 353.1,486.3 Q354.4,487.5 355.6,488.8 Q356.8,490.1 358.0,491.5 Q359.1,492.9 360.2,494.4 Q361.2,495.8 362.2,497.3 Q363.2,498.9 364.1,500.4 Q364.9,502.0 365.7,503.6 Q366.5,505.3 367.2,506.9 Q367.9,508.6 368.5,510.3" fill="none" stroke="#00ad8f" stroke-linecap="round" class="flow" style="--len:108;--op:0.150;--dur:3.0s;animation-delay:23.00s;stroke-width:0.4"/>
<path d="M300.7,434.9 Q301.8,436.3 302.9,437.7 Q304.0,439.1 305.2,440.5 Q306.3,442.0 307.4,443.4 Q308.5,444.8 309.7,446.2 Q310.8,447.6 311.9,449.0 Q313.0,450.4 314.2,451.8 Q315.3,453.2 316.5,454.6 Q317.6,455.9 318.8,457.3 Q319.9,458.7 321.1,460.0 Q322.3,461.4 323.6,462.7 Q324.8,464.0 326.1,465.3 Q327.4,466.5 328.7,467.8 Q330.0,469.0 331.4,470.2 Q332.7,471.3 334.1,472.5 Q335.5,473.6 337.0,474.7 Q338.4,475.7 339.9,476.8 Q341.3,477.9 342.8,478.9 Q344.2,480.0 345.7,481.1 Q347.1,482.2 348.5,483.3 Q349.9,484.4 351.3,485.6 Q352.6,486.8 353.9,488.1 Q355.1,489.4 356.3,490.7 Q357.5,492.1 358.6,493.5 Q359.7,494.9 360.7,496.4 Q361.7,497.9 362.7,499.4 Q363.5,501.0 364.4,502.6 Q365.2,504.2 365.9,505.8 Q366.7,507.5 367.3,509.2 Q368.0,510.8 368.6,512.5 Q369.2,514.2 369.8,515.9" fill="none" stroke="#00af91" stroke-linecap="round" class="flow" style="--len:108;--op:0.150;--dur:3.0s;animation-delay:23.29s;stroke-width:0.4"/>
<path d="M286.2,438.7 Q287.3,440.1 288.4,441.5 Q289.6,442.9 290.8,444.2 Q292.0,445.5 293.2,446.8 Q294.5,448.1 295.8,449.4 Q297.1,450.6 298.4,451.9 Q299.7,453.1 301.0,454.3 Q302.3,455.6 303.6,456.8 Q305.0,458.0 306.3,459.3 Q307.6,460.5 308.9,461.7 Q310.2,462.9 311.5,464.2 Q312.9,465.4 314.2,466.6 Q315.5,467.8 316.8,469.1 Q318.1,470.3 319.4,471.5 Q320.8,472.7 322.1,473.9 Q323.5,475.1 324.8,476.3 Q326.2,477.5 327.5,478.7 Q328.9,479.8 330.3,481.0 Q331.7,482.1 333.1,483.2 Q334.5,484.3 335.9,485.5 Q337.3,486.6 338.7,487.8 Q340.1,488.9 341.4,490.1 Q342.7,491.4 344.0,492.6 Q345.3,493.9 346.5,495.3 Q347.6,496.6 348.8,498.0 Q349.8,499.5 350.9,500.9 Q351.9,502.4 352.8,504.0 Q353.7,505.5 354.6,507.1 Q355.4,508.7 356.2,510.4 Q356.9,512.0 357.6,513.6 Q358.3,515.3 358.9,517.0" fill="none" stroke="#00b193" stroke-linecap="round" class="flow" style="--len:108;--op:0.150;--dur:3.0s;animation-delay:23.57s;stroke-width:0.4"/>
<path d="M303.1,409.3 Q303.9,410.9 304.7,412.5 Q305.6,414.1 306.4,415.7 Q307.3,417.2 308.3,418.8 Q309.2,420.3 310.2,421.8 Q311.2,423.3 312.2,424.8 Q313.2,426.3 314.2,427.8 Q315.2,429.3 316.2,430.8 Q317.3,432.2 318.3,433.7 Q319.3,435.2 320.3,436.7 Q321.4,438.2 322.4,439.7 Q323.4,441.1 324.4,442.6 Q325.4,444.1 326.4,445.6 Q327.4,447.1 328.5,448.6 Q329.5,450.0 330.6,451.5 Q331.7,452.9 332.8,454.3 Q333.9,455.7 335.1,457.1 Q336.3,458.4 337.5,459.8 Q338.8,461.0 340.1,462.3 Q341.4,463.5 342.8,464.7 Q344.2,465.8 345.6,467.0 Q347.0,468.1 348.4,469.2 Q349.8,470.3 351.3,471.3 Q352.7,472.4 354.1,473.5 Q355.5,474.6 356.9,475.8 Q358.3,476.9 359.7,478.1 Q361.0,479.3 362.3,480.5 Q363.6,481.8 364.8,483.1 Q366.0,484.5 367.2,485.8 Q368.3,487.2 369.4,488.7 Q370.4,490.2 371.4,491.7" fill="none" stroke="#00b395" stroke-linecap="round" class="flow" style="--len:108;--op:0.150;--dur:3.0s;animation-delay:23.86s;stroke-width:0.4"/>
<path d="M303.4,394.7 Q304.2,396.4 305.0,398.0 Q305.8,399.6 306.6,401.2 Q307.4,402.8 308.3,404.4 Q309.2,405.9 310.1,407.5 Q311.0,409.0 312.0,410.5 Q313.0,412.0 314.0,413.5 Q315.0,415.0 316.0,416.5 Q317.0,418.0 318.0,419.5 Q319.1,421.0 320.1,422.4 Q321.1,423.9 322.2,425.4 Q323.2,426.8 324.3,428.3 Q325.3,429.8 326.3,431.3 Q327.4,432.7 328.4,434.2 Q329.5,435.7 330.5,437.1 Q331.6,438.6 332.6,440.0 Q333.7,441.5 334.7,442.9 Q335.8,444.4 336.9,445.8 Q338.0,447.2 339.1,448.6 Q340.3,450.0 341.5,451.4 Q342.7,452.7 343.9,454.0 Q345.2,455.3 346.5,456.5 Q347.9,457.7 349.2,458.9 Q350.6,460.0 352.0,461.2 Q353.4,462.3 354.9,463.4 Q356.3,464.5 357.7,465.5 Q359.2,466.6 360.6,467.7 Q362.0,468.8 363.4,470.0 Q364.8,471.1 366.2,472.2 Q367.6,473.4 368.9,474.6 Q370.2,475.9 371.5,477.1" fill="none" stroke="#12b697" stroke-linecap="round" class="flow" style="--len:108;--op:0.150;--dur:3.0s;animation-delay:24.14s;stroke-width:0.4"/>
<path d="M292.8,403.2 Q293.1,404.9 293.5,406.7 Q293.9,408.5 294.3,410.2 Q294.8,411.9 295.4,413.7 Q296.0,415.3 296.7,417.0 Q297.4,418.6 298.3,420.2 Q299.1,421.8 300.0,423.4 Q301.0,424.9 301.9,426.4 Q302.9,427.9 304.0,429.4 Q305.0,430.9 306.1,432.3 Q307.1,433.8 308.2,435.2 Q309.3,436.7 310.3,438.1 Q311.4,439.6 312.5,441.0 Q313.5,442.5 314.6,443.9 Q315.7,445.4 316.7,446.8 Q317.8,448.3 318.8,449.7 Q319.9,451.2 321.0,452.6 Q322.1,454.1 323.2,455.5 Q324.3,456.9 325.5,458.3 Q326.6,459.6 327.8,461.0 Q329.1,462.3 330.3,463.6 Q331.6,464.9 332.9,466.1 Q334.2,467.3 335.6,468.5 Q337.0,469.6 338.4,470.8 Q339.8,471.9 341.2,473.0 Q342.7,474.0 344.1,475.1 Q345.6,476.2 347.0,477.2 Q348.5,478.3 349.9,479.4 Q351.3,480.5 352.7,481.7 Q354.1,482.9 355.4,484.1 Q356.7,485.3 358.0,486.6" fill="none" stroke="#25b899" stroke-linecap="round" class="flow" style="--len:108;--op:0.150;--dur:3.0s;animation-delay:24.43s;stroke-width:0.4"/>
<path d="M390.8,330.6 Q392.5,329.9 394.2,329.3 Q395.9,328.7 397.6,328.0 Q399.3,327.4 401.0,326.8 Q402.7,326.2 404.4,325.7 Q406.1,325.1 407.8,324.6 Q409.5,324.1 411.3,323.6 Q413.0,323.1 414.8,322.7 Q416.5,322.3 418.3,321.9 Q420.0,321.6 421.8,321.2 Q423.6,320.9 425.4,320.7 Q427.2,320.4 428.9,320.2 Q430.7,320.0 432.5,319.8 Q434.3,319.6 436.1,319.4 Q437.9,319.3 439.7,319.2 Q441.5,319.1 443.3,319.0 Q445.1,318.9 446.9,318.9 Q448.7,318.8 450.5,318.8 Q452.3,318.9 454.1,318.9 Q455.9,319.0 457.7,319.1 Q459.5,319.2 461.3,319.3 Q463.1,319.5 464.8,319.7 Q466.6,320.0 468.4,320.3 Q470.2,320.6 471.9,321.0 Q473.7,321.4 475.4,321.8 Q477.2,322.3 478.9,322.8 Q480.6,323.4 482.3,324.0 Q484.0,324.6 485.7,325.3 Q487.3,325.9 489.0,326.7 Q490.6,327.4 492.2,328.2 Q493.9,329.0 495.5,329.8" fill="none" stroke="#32ba9b" stroke-linecap="round" class="flow" style="--len:108;--op:0.150;--dur:3.0s;animation-delay:24.71s;stroke-width:0.4"/>
<path d="M351.5,353.4 Q353.3,353.3 355.1,353.2 Q356.9,353.1 358.7,352.9 Q360.5,352.7 362.2,352.5 Q364.0,352.3 365.8,352.1 Q367.6,351.9 369.4,351.7 Q371.2,351.5 373.0,351.4 Q374.8,351.2 376.6,351.0 Q378.4,350.9 380.2,350.7 Q381.9,350.6 383.7,350.5 Q385.5,350.4 387.3,350.3 Q389.1,350.3 390.9,350.3 Q392.7,350.3 394.5,350.3 Q396.3,350.3 398.1,350.4 Q399.9,350.4 401.7,350.5 Q403.5,350.5 405.3,350.6 Q407.1,350.6 408.9,350.7 Q410.7,350.7 412.5,350.7 Q414.3,350.7 416.1,350.7 Q417.9,350.6 419.7,350.5 Q421.5,350.4 423.3,350.2 Q425.1,350.1 426.9,349.9 Q428.7,349.7 430.5,349.4 Q432.3,349.2 434.0,348.9 Q435.8,348.6 437.6,348.3 Q439.4,348.1 441.1,347.8 Q442.9,347.5 444.7,347.2 Q446.5,346.9 448.3,346.6 Q450.0,346.4 451.8,346.1 Q453.6,345.9 455.4,345.7 Q457.2,345.5 459.0,345.4" fill="none" stroke="#3cbc9d" stroke-linecap="round" class="flow" style="--len:108;--op:0.150;--dur:3.0s;animation-delay:25.00s;stroke-width:0.4"/>
<path d="M349.0,374.7 Q350.8,374.9 352.6,375.1 Q354.4,375.4 356.2,375.6 Q358.0,375.8 359.8,376.0 Q361.5,376.3 363.3,376.5 Q365.1,376.8 366.9,377.1 Q368.6,377.4 370.4,377.8 Q372.2,378.2 373.9,378.5 Q375.7,379.0 377.4,379.4 Q379.2,379.9 380.9,380.4 Q382.6,380.9 384.3,381.4 Q386.1,382.0 387.8,382.5 Q389.5,383.2 391.1,383.8 Q392.8,384.4 394.5,385.1 Q396.2,385.8 397.8,386.5 Q399.5,387.2 401.1,387.9 Q402.8,388.6 404.5,389.3 Q406.1,389.9 407.8,390.6 Q409.5,391.3 411.2,391.9 Q412.8,392.5 414.6,393.1 Q416.3,393.6 418.0,394.1 Q419.7,394.6 421.5,395.0 Q423.2,395.4 425.0,395.8 Q426.8,396.1 428.5,396.4 Q430.3,396.6 432.1,396.8 Q433.9,397.0 435.7,397.2 Q437.5,397.3 439.3,397.4 Q441.1,397.5 442.9,397.6 Q444.7,397.7 446.5,397.8 Q448.3,397.8 450.1,397.9 Q451.9,397.9 453.7,398.0" fill="none" stroke="#45be9f" stroke-linecap="round" class="flow" style="--len:108;--op:0.150;--dur:3.0s;animation-delay:25.29s;stroke-width:0.4"/>
<path d="M354.2,384.0 Q356.0,384.4 357.7,384.8 Q359.5,385.3 361.2,385.7 Q362.9,386.2 364.7,386.6 Q366.4,387.1 368.1,387.7 Q369.8,388.2 371.5,388.8 Q373.2,389.4 374.9,390.0 Q376.6,390.6 378.3,391.3 Q380.0,391.9 381.6,392.6 Q383.3,393.3 385.0,394.0 Q386.6,394.7 388.3,395.5 Q389.9,396.2 391.5,397.0 Q393.2,397.8 394.8,398.5 Q396.4,399.3 398.0,400.0 Q399.7,400.8 401.3,401.5 Q403.0,402.3 404.6,403.0 Q406.3,403.6 408.0,404.3 Q409.7,404.9 411.4,405.5 Q413.1,406.1 414.8,406.6 Q416.5,407.1 418.3,407.5 Q420.0,408.0 421.8,408.4 Q423.5,408.7 425.3,409.0 Q427.1,409.3 428.9,409.6 Q430.6,409.8 432.4,410.1 Q434.2,410.3 436.0,410.5 Q437.8,410.7 439.6,410.8 Q441.4,411.0 443.2,411.2 Q445.0,411.4 446.7,411.6 Q448.5,411.7 450.3,411.9 Q452.1,412.1 453.9,412.3 Q455.7,412.5 457.5,412.7" fill="none" stroke="#4dc1a2" stroke-linecap="round" class="flow" style="--len:108;--op:0.150;--dur:3.0s;animation-delay:25.57s;stroke-width:0.4"/>
<path d="M334.0,371.1 Q335.7,371.7 337.4,372.3 Q339.1,372.8 340.9,373.2 Q342.6,373.6 344.4,374.0 Q346.1,374.3 347.9,374.6 Q349.7,374.8 351.5,375.0 Q353.3,375.3 355.1,375.5 Q356.8,375.7 358.6,375.9 Q360.4,376.2 362.2,376.4 Q364.0,376.7 365.8,377.0 Q367.5,377.3 369.3,377.6 Q371.1,378.0 372.8,378.4 Q374.6,378.8 376.3,379.2 Q378.1,379.6 379.8,380.1 Q381.5,380.6 383.3,381.1 Q385.0,381.7 386.7,382.3 Q388.4,382.8 390.1,383.5 Q391.8,384.1 393.4,384.8 Q395.1,385.4 396.8,386.1 Q398.4,386.8 400.1,387.5 Q401.7,388.2 403.4,388.9 Q405.1,389.6 406.7,390.3 Q408.4,391.0 410.1,391.6 Q411.8,392.2 413.5,392.8 Q415.2,393.4 416.9,393.9 Q418.6,394.4 420.4,394.9 Q422.1,395.3 423.9,395.7 Q425.6,396.0 427.4,396.3 Q429.2,396.6 431.0,396.8 Q432.8,397.0 434.6,397.2 Q436.4,397.3 438.1,397.5" fill="none" stroke="#55c3a4" stroke-linecap="round" class="flow" style="--len:108;--op:0.150;--dur:3.0s;animation-delay:25.86s;stroke-width:0.4"/>
<path d="M331.5,381.7 Q333.1,382.5 334.7,383.3 Q336.4,384.0 338.0,384.7 Q339.7,385.3 341.4,385.9 Q343.1,386.5 344.8,387.0 Q346.6,387.6 348.3,388.1 Q350.0,388.6 351.8,389.0 Q353.5,389.5 355.2,390.0 Q357.0,390.5 358.7,391.0 Q360.4,391.6 362.1,392.1 Q363.8,392.7 365.5,393.3 Q367.2,393.9 368.9,394.5 Q370.6,395.2 372.3,395.8 Q373.9,396.5 375.6,397.2 Q377.2,397.9 378.9,398.6 Q380.6,399.3 382.2,400.0 Q383.8,400.8 385.5,401.5 Q387.1,402.2 388.8,403.0 Q390.4,403.7 392.1,404.5 Q393.7,405.2 395.3,405.9 Q397.0,406.6 398.7,407.3 Q400.3,408.0 402.0,408.7 Q403.7,409.3 405.4,409.9 Q407.1,410.5 408.8,411.1 Q410.5,411.6 412.2,412.1 Q414.0,412.5 415.7,413.0 Q417.5,413.4 419.3,413.7 Q421.0,414.1 422.8,414.4 Q424.6,414.6 426.4,414.9 Q428.1,415.1 429.9,415.4 Q431.7,415.6 433.5,415.8" fill="none" stroke="#5cc5a6" stroke-linecap="round" class="flow" style="--len:108;--op:0.150;--dur:3.0s;animation-delay:26.14s;stroke-width:0.4"/>
<path d="M337.3,375.0 Q339.0,375.5 340.7,376.0 Q342.5,376.5 344.2,376.9 Q346.0,377.3 347.7,377.6 Q349.5,377.9 351.3,378.2 Q353.1,378.5 354.8,378.8 Q356.6,379.1 358.4,379.4 Q360.2,379.7 361.9,380.0 Q363.7,380.4 365.5,380.7 Q367.2,381.1 369.0,381.6 Q370.7,382.0 372.4,382.5 Q374.2,383.0 375.9,383.5 Q377.6,384.0 379.3,384.5 Q381.0,385.1 382.7,385.7 Q384.4,386.3 386.1,387.0 Q387.8,387.6 389.5,388.3 Q391.1,389.0 392.8,389.7 Q394.4,390.5 396.1,391.2 Q397.7,391.9 399.3,392.7 Q401.0,393.4 402.6,394.2 Q404.2,394.9 405.9,395.6 Q407.6,396.3 409.2,397.0 Q410.9,397.7 412.6,398.3 Q414.3,398.9 416.0,399.4 Q417.7,400.0 419.5,400.5 Q421.2,400.9 423.0,401.3 Q424.7,401.7 426.5,402.0 Q428.3,402.3 430.0,402.6 Q431.8,402.8 433.6,403.1 Q435.4,403.3 437.2,403.4 Q439.0,403.6 440.8,403.8" fill="none" stroke="#63c7a8" stroke-linecap="round" class="flow" style="--len:108;--op:0.150;--dur:3.0s;animation-delay:26.43s;stroke-width:0.4"/>
<path d="M323.8,354.3 Q325.5,355.1 327.1,355.8 Q328.8,356.5 330.4,357.1 Q332.1,357.7 333.9,358.3 Q335.6,358.8 337.3,359.2 Q339.1,359.6 340.9,359.9 Q342.7,360.1 344.4,360.3 Q346.2,360.4 348.0,360.5 Q349.8,360.6 351.6,360.6 Q353.4,360.6 355.2,360.5 Q357.0,360.4 358.8,360.4 Q360.6,360.3 362.4,360.2 Q364.2,360.1 366.0,360.1 Q367.8,360.0 369.6,360.0 Q371.4,360.0 373.2,360.0 Q375.0,360.0 376.8,360.0 Q378.6,360.0 380.4,360.1 Q382.2,360.2 384.0,360.3 Q385.8,360.5 387.6,360.6 Q389.4,360.8 391.2,361.0 Q393.0,361.3 394.7,361.5 Q396.5,361.8 398.3,362.1 Q400.1,362.4 401.9,362.6 Q403.6,362.9 405.4,363.2 Q407.2,363.5 409.0,363.7 Q410.8,364.0 412.6,364.2 Q414.3,364.3 416.1,364.5 Q417.9,364.6 419.7,364.6 Q421.5,364.7 423.3,364.7 Q425.1,364.6 426.9,364.5 Q428.7,364.4 430.5,364.3" fill="none" stroke="#69caab" stroke-linecap="round" class="flow" style="--len:108;--op:0.150;--dur:3.0s;animation-delay:26.71s;stroke-width:0.4"/>
<circle cx="453" cy="393" fill="#00a98c" class="node" style="--r:3px" r="3" filter="url(#softGlow)"/>
<circle cx="429" cy="457" fill="#00a98c" class="node" style="--r:3px" r="3" filter="url(#softGlow)"/>
<circle cx="363" cy="411" fill="#00a98c" class="node" style="--r:3px" r="3" filter="url(#softGlow)"/>
<circle cx="349" cy="357" fill="#00a98c" class="node" style="--r:3px" r="3" filter="url(#softGlow)"/>
<circle cx="435" cy="424" fill="#00a98c" class="node" style="--r:3px" r="3" filter="url(#softGlow)"/>
<circle cx="469" cy="456" fill="#00a98c" class="node" style="--r:3px" r="3" filter="url(#softGlow)"/>
<circle cx="352" cy="417" fill="#00a98c" class="node" style="--r:3px" r="3" filter="url(#softGlow)"/>
<circle cx="341" cy="362" fill="#00a98c" class="node" style="--r:3px" r="3" filter="url(#softGlow)"/>
<circle cx="475" cy="451" fill="#00a98c" class="node" style="--r:3px" r="3" filter="url(#softGlow)"/>
<circle cx="458" cy="465" fill="#00a98c" class="node" style="--r:3px" r="3" filter="url(#softGlow)"/>
<circle cx="388" cy="358" fill="#00a98c" class="node" style="--r:3px" r="3" filter="url(#softGlow)"/>
<circle cx="333" cy="422" fill="#00a98c" class="node" style="--r:3px" r="3" filter="url(#softGlow)"/>
<circle cx="324" cy="419" fill="#00a98c" class="node" style="--r:3px" r="3" filter="url(#softGlow)"/>
<circle cx="308" cy="432" fill="#00a98c" class="node" style="--r:3px" r="3" filter="url(#softGlow)"/>
<circle cx="307" cy="412" fill="#00a98c" class="node" style="--r:3px" r="3" filter="url(#softGlow)"/>
<circle cx="476" cy="443" fill="#00a98c" class="node" style="--r:3px" r="3" filter="url(#softGlow)"/>
<circle cx="305" cy="433" fill="#00a98c" class="node" style="--r:3px" r="3" filter="url(#softGlow)"/>
<circle cx="472" cy="421" fill="#00a98c" class="node" style="--r:3px" r="3" filter="url(#softGlow)"/>
<circle cx="453" cy="450" fill="#00a98c" class="node" style="--r:3px" r="3" filter="url(#softGlow)"/>
<circle cx="431" cy="447" fill="#00a98c" class="node" style="--r:3px" r="3" filter="url(#softGlow)"/>
<circle cx="423" cy="443" fill="#00a98c" class="node" style="--r:3px" r="3" filter="url(#softGlow)"/>
<circle cx="387" cy="343" fill="#00a98c" class="node" style="--r:3px" r="3" filter="url(#softGlow)"/>
<circle cx="449" cy="425" fill="#00a98c" class="node" style="--r:3px" r="3" filter="url(#softGlow)"/>
<circle cx="467" cy="461" fill="#00a98c" class="node" style="--r:3px" r="3" filter="url(#softGlow)"/>
<circle cx="350" cy="367" fill="#00a98c" class="node" style="--r:3px" r="3" filter="url(#softGlow)"/>
<circle cx="379" cy="348" fill="#00a98c" class="node" style="--r:3px" r="3" filter="url(#softGlow)"/>
<circle cx="316" cy="429" fill="#00a98c" class="node" style="--r:3px" r="3" filter="url(#softGlow)"/>
<circle cx="332" cy="361" fill="#00a98c" class="node" style="--r:3px" r="3" filter="url(#softGlow)"/>
<circle cx="333" cy="424" fill="#00a98c" class="node" style="--r:3px" r="3" filter="url(#softGlow)"/>
<circle cx="354" cy="431" fill="#00a98c" class="node" style="--r:3px" r="3" filter="url(#softGlow)"/>
</g>
<circle cx="400.0" cy="400.0" r="6" fill="#00b496" opacity="0.4" filter="url(#softGlow)"/>
<circle cx="400.0" cy="400.0" r="2" fill="#00b496" opacity="0.8"/>
<rect width="800" height="800" fill="url(#vig)"/>
</svg>
