<svg xmlns="http://www.w3.org/2000/svg" viewBox="0 0 800 800" width="800" height="800">
<defs>
  <filter id="bloom" x="-50%" y="-50%" width="200%" height="200%">
    <feGaussianBlur in="SourceGraphic" stdDeviation="2" result="b1"/>
    <feGaussianBlur in="SourceGraphic" stdDeviation="6" result="b2"/>
    <feGaussianBlur in="SourceGraphic" stdDeviation="14" result="b3"/>
    <feColorMatrix in="b3" type="matrix" result="bright"
      values="1.6 0 0 0 0.1  0 1.6 0 0 0.1  0 0 1.6 0 0.1  0 0 0 0.5 0"/>
    <feMerge>
      <feMergeNode in="bright"/><feMergeNode in="b2"/>
      <feMergeNode in="b1"/><feMergeNode in="SourceGraphic"/>
    </feMerge>
  </filter>
  <radialGradient id="bg" cx="50%" cy="50%" r="60%">
    <stop offset="0%" stop-color="#060612"/>
    <stop offset="100%" stop-color="#020208"/>
  </radialGradient>
  <radialGradient id="vig" cx="50%" cy="50%" r="55%">
    <stop offset="40%" stop-color="black" stop-opacity="0"/>
    <stop offset="100%" stop-color="black" stop-opacity="0.6"/>
  </radialGradient>
</defs>
<rect width="800" height="800" fill="url(#bg)"/>
<g filter="url(#bloom)">
<path d="M553.4,387.4 Q554.2,389.5 555.0,391.5 Q555.7,393.3 556.2,395.0 Q556.7,396.5 557.0,397.9 Q557.3,399.3 557.5,400.6 Q557.7,402.0 558.0,403.5 Q558.2,405.1 558.4,406.7 Q558.6,408.5 558.8,410.4 Q559.0,412.5 559.1,414.6 Q559.1,416.7 559.2,418.7 Q559.2,420.5 559.2,422.2 Q559.1,423.7 559.1,425.1 Q559.0,426.7 558.9,428.5 Q558.8,430.5 558.7,432.7 Q558.4,435.0 558.2,437.2 Q557.8,439.4 557.5,441.4 Q557.0,443.4 556.5,445.4 Q556.0,447.3 555.3,449.2 Q554.5,451.1 553.7,453.0 Q552.8,454.8 551.7,456.7 Q550.6,458.5 549.4,460.3 Q548.1,462.2 546.7,464.0 Q545.3,465.9 543.7,467.7 Q542.1,469.5 540.5,471.1 Q539.1,472.6 537.9,473.8 Q536.8,474.8 535.9,475.8 Q534.9,476.7 533.8,477.6 Q532.6,478.7 531.3,480.0 Q529.8,481.3 528.3,482.6 Q526.9,483.9 525.6,485.1 Q524.2,486.2 522.8,487.4 Q521.4,488.6 519.9,489.9 Q518.3,491.2 516.8,492.5 Q515.2,493.8 513.7,495.1 Q512.3,496.3 510.8,497.4 Q509.4,498.5 508.0,499.6 Q506.6,500.7 505.1,501.7 Q503.6,502.7 501.9,503.7 Q500.2,504.7 498.3,505.6 Q496.4,506.6 494.4,507.4 Q492.3,508.3 490.2,509.1 Q488.0,509.9 485.8,510.6 Q483.6,511.4 481.3,512.2 Q479.0,512.9 476.6,513.6 Q474.3,514.4 471.8,515.0 Q469.4,515.7 467.0,516.3 Q464.6,516.8 462.2,517.3 Q459.8,517.7 457.4,518.0 Q455.1,518.3 452.7,518.5 Q450.4,518.6 448.0,518.6 Q445.6,518.7 443.3,518.7 Q440.8,518.7 438.4,518.7 Q436.0,518.6 433.5,518.6 Q431.1,518.6 429.0,518.6 Q427.3,518.5 425.8,518.5 Q424.4,518.4 423.0,518.5 Q421.5,518.5 419.8,518.5 Q417.8,518.6 415.4,518.6 Q412.9,518.6 410.5,518.6 Q408.1,518.6 405.7,518.6 Q403.4,518.5 401.0,518.5 Q398.7,518.4 396.4,518.3 Q394.0,518.2 391.8,518.0 Q389.5,517.8 387.4,517.5 Q385.3,517.2 383.3,516.9 Q381.3,516.5 379.3,516.0 Q377.4,515.5 375.4,515.0 Q373.4,514.4 371.4,513.7 Q369.3,512.9 367.2,512.0 Q365.1,511.1 362.9,510.1 Q360.8,509.1 358.8,508.0 Q356.7,506.9 354.8,505.8 Q352.9,504.7 351.0,503.6 Q349.2,502.4 347.5,501.3 Q345.7,500.1 344.0,498.9 Q342.3,497.7 340.5,496.4 Q338.8,495.1 337.2,493.8 Q335.5,492.4 333.9,491.1 Q332.3,489.7 330.8,488.4 Q329.2,487.0 327.7,485.6 Q326.2,484.2 324.6,482.7 Q323.0,481.2 321.3,479.6 Q319.7,477.9 318.1,476.2 Q316.5,474.5 314.9,472.7 Q313.4,471.0 311.9,469.2 Q310.5,467.4 309.1,465.6 Q307.7,463.8 306.4,461.9 Q305.1,460.0 303.8,457.9 Q302.5,455.9 301.2,453.7 Q300.0,451.6 299.0,449.8 Q298.2,448.2 297.6,447.0 Q297.1,445.7 296.7,444.3 Q296.2,442.9 295.7,441.3 Q295.0,439.4 294.5,437.1 Q294.0,434.8 293.6,432.4 Q293.5,430.1 293.4,427.8 Q293.4,425.6 293.6,423.5 Q293.9,421.4 294.2,419.4 Q294.6,417.4 295.0,415.5 Q295.5,413.5 296.0,411.6 Q296.6,409.6 297.1,407.7 Q297.7,405.7 298.3,403.8 Q298.9,401.8 299.5,399.9 Q300.0,398.0 300.6,396.1 Q301.2,394.3 301.7,392.5 Q302.2,390.6 302.7,388.8 Q303.2,387.0 303.8,385.1 Q304.3,383.2 304.8,381.3 Q305.4,379.3 305.9,377.4 Q306.5,375.4 307.1,373.4 Q307.7,371.3 308.3,369.3 Q308.9,367.2 309.5,365.1 Q310.2,362.9 310.9,360.7 Q311.6,358.5 312.4,356.3 Q313.2,354.3 314.0,352.3 Q314.7,350.6 315.4,349.0 Q316.1,347.6 316.8,346.3 Q317.4,345.0 318.1,343.7 Q318.8,342.5 319.5,341.2 Q320.3,339.8 321.1,338.4 Q322.0,336.9 323.0,335.2 Q324.1,333.5 325.3,331.7 Q326.5,329.9 327.6,328.2 Q328.7,326.6 329.7,325.2 Q330.7,323.8 331.7,322.4 Q332.8,321.1 333.9,319.7 Q335.0,318.3 336.4,316.8 Q337.8,315.1 339.5,313.4 Q341.2,311.7 342.9,310.0 Q344.5,308.6 345.9,307.3 Q347.3,306.1 348.7,304.9 Q350.4,303.7 352.2,302.4 Q354.3,301.0 356.4,299.6 Q358.4,298.4 360.3,297.3 Q362.2,296.3 364.0,295.4 Q365.8,294.5 367.7,293.6 Q369.7,292.7 371.8,291.8 Q374.0,290.9 376.2,290.0 Q378.1,289.3 379.8,288.7 Q381.2,288.3 382.4,287.9 Q383.8,287.6 385.1,287.1 Q386.6,286.6 388.1,286.0 Q389.8,285.5 391.4,285.1 Q393.2,284.7 394.8,284.4 Q396.3,284.2 397.8,283.9 Q399.6,283.6 401.5,283.3 Q403.7,283.0 405.9,282.7 Q408.1,282.4 410.3,282.2 Q412.4,282.1 414.6,282.0 Q416.9,281.9 419.0,281.9 Q421.1,281.9 422.8,281.9 Q424.4,282.0 426.0,282.0 Q427.7,282.1 429.7,282.2 Q431.9,282.3 434.2,282.5 Q436.6,282.7 438.9,282.8 Q441.2,283.0 443.5,283.3 Q445.7,283.5 448.0,283.8 Q450.3,284.1 452.6,284.4 Q454.9,284.8 457.2,285.3 Q459.6,285.7 462.0,286.3 Q464.4,286.8 466.8,287.4 Q469.1,288.1 471.3,288.7 Q473.3,289.4 475.3,290.1 Q477.2,290.8 478.9,291.6 Q480.7,292.5 482.5,293.4 Q484.2,294.4 486.0,295.5 Q487.8,296.7 489.6,297.9 Q491.4,299.1 493.2,300.4 Q494.9,301.8 496.7,303.2 Q498.4,304.6 500.1,306.0 Q501.7,307.5 503.3,309.0 Q504.9,310.5 506.4,312.1 Q507.8,313.7 509.3,315.4 Q510.7,317.1 512.0,318.9 Q513.4,320.8 514.7,322.8 Q516.0,324.8 517.3,326.8 Q518.6,328.9 519.9,331.0 Q521.2,333.1 522.5,335.1 Q523.8,337.2 525.2,339.3 Q526.5,341.3 527.9,343.4 Q529.2,345.4 530.6,347.5 Q531.8,349.3 532.6,350.4 Q533.4,351.6 534.1,352.8 Q535.0,354.0 536.2,355.8 Q537.5,357.7 538.7,359.5 Q539.8,361.2 540.7,362.7 Q541.7,364.2 542.6,365.7 Q543.5,367.3 544.5,369.1 Q545.5,371.0 546.7,373.1 Q547.7,375.1 548.7,377.0 Q549.5,378.6 550.1,380.0 Q550.6,381.3 551.1,382.6 Q551.8,384.0 552.5,385.6 Z" fill="none" stroke="#00062b" stroke-width="1.20" opacity="0.400" stroke-linecap="round" stroke-linejoin="round"/>
<path d="M553.4,387.4 Q554.2,389.5 555.0,391.5 Q555.7,393.3 556.2,395.0 Q556.7,396.5 557.0,397.9 Q557.3,399.3 557.5,400.6 Q557.7,402.0 558.0,403.5 Q558.2,405.1 558.4,406.7 Q558.6,408.5 558.8,410.4 Q559.0,412.5 559.1,414.6 Q559.1,416.7 559.2,418.7 Q559.2,420.5 559.2,422.2 Q559.1,423.7 559.1,425.1 Q559.0,426.7 558.9,428.5 Q558.8,430.5 558.7,432.7 Q558.4,435.0 558.2,437.2 Q557.8,439.4 557.5,441.4 Q557.0,443.4 556.5,445.4 Q556.0,447.3 555.3,449.2 Q554.5,451.1 553.7,453.0 Q552.8,454.8 551.7,456.7 Q550.6,458.5 549.4,460.3 Q548.1,462.2 546.7,464.0 Q545.3,465.9 543.7,467.7 Q542.1,469.5 540.5,471.1 Q539.1,472.6 537.9,473.8 Q536.8,474.8 535.9,475.8 Q534.9,476.7 533.8,477.6 Q532.6,478.7 531.3,480.0 Q529.8,481.3 528.3,482.6 Q526.9,483.9 525.6,485.1 Q524.2,486.2 522.8,487.4 Q521.4,488.6 519.9,489.9 Q518.3,491.2 516.8,492.5 Q515.2,493.8 513.7,495.1 Q512.3,496.3 510.8,497.4 Q509.4,498.5 508.0,499.6 Q506.6,500.7 505.1,501.7 Q503.6,502.7 501.9,503.7 Q500.2,504.7 498.3,505.6 Q496.4,506.6 494.4,507.4 Q492.3,508.3 490.2,509.1 Q488.0,509.9 485.8,510.6 Q483.6,511.4 481.3,512.2 Q479.0,512.9 476.6,513.6 Q474.3,514.4 471.8,515.0 Q469.4,515.7 467.0,516.3 Q464.6,516.8 462.2,517.3 Q459.8,517.7 457.4,518.0 Q455.1,518.3 452.7,518.5 Q450.4,518.6 448.0,518.6 Q445.6,518.7 443.3,518.7 Q440.8,518.7 438.4,518.7 Q436.0,518.6 433.5,518.6 Q431.1,518.6 429.0,518.6 Q427.3,518.5 425.8,518.5 Q424.4,518.4 423.0,518.5 Q421.5,518.5 419.8,518.5 Q417.8,518.6 415.4,518.6 Q412.9,518.6 410.5,518.6 Q408.1,518.6 405.7,518.6 Q403.4,518.5 401.0,518.5 Q398.7,518.4 396.4,518.3 Q394.0,518.2 391.8,518.0 Q389.5,517.8 387.4,517.5 Q385.3,517.2 383.3,516.9 Q381.3,516.5 379.3,516.0 Q377.4,515.5 375.4,515.0 Q373.4,514.4 371.4,513.7 Q369.3,512.9 367.2,512.0 Q365.1,511.1 362.9,510.1 Q360.8,509.1 358.8,508.0 Q356.7,506.9 354.8,505.8 Q352.9,504.7 351.0,503.6 Q349.2,502.4 347.5,501.3 Q345.7,500.1 344.0,498.9 Q342.3,497.7 340.5,496.4 Q338.8,495.1 337.2,493.8 Q335.5,492.4 333.9,491.1 Q332.3,489.7 330.8,488.4 Q329.2,487.0 327.7,485.6 Q326.2,484.2 324.6,482.7 Q323.0,481.2 321.3,479.6 Q319.7,477.9 318.1,476.2 Q316.5,474.5 314.9,472.7 Q313.4,471.0 311.9,469.2 Q310.5,467.4 309.1,465.6 Q307.7,463.8 306.4,461.9 Q305.1,460.0 303.8,457.9 Q302.5,455.9 301.2,453.7 Q300.0,451.6 299.0,449.8 Q298.2,448.2 297.6,447.0 Q297.1,445.7 296.7,444.3 Q296.2,442.9 295.7,441.3 Q295.0,439.4 294.5,437.1 Q294.0,434.8 293.6,432.4 Q293.5,430.1 293.4,427.8 Q293.4,425.6 293.6,423.5 Q293.9,421.4 294.2,419.4 Q294.6,417.4 295.0,415.5 Q295.5,413.5 296.0,411.6 Q296.6,409.6 297.1,407.7 Q297.7,405.7 298.3,403.8 Q298.9,401.8 299.5,399.9 Q300.0,398.0 300.6,396.1 Q301.2,394.3 301.7,392.5 Q302.2,390.6 302.7,388.8 Q303.2,387.0 303.8,385.1 Q304.3,383.2 304.8,381.3 Q305.4,379.3 305.9,377.4 Q306.5,375.4 307.1,373.4 Q307.7,371.3 308.3,369.3 Q308.9,367.2 309.5,365.1 Q310.2,362.9 310.9,360.7 Q311.6,358.5 312.4,356.3 Q313.2,354.3 314.0,352.3 Q314.7,350.6 315.4,349.0 Q316.1,347.6 316.8,346.3 Q317.4,345.0 318.1,343.7 Q318.8,342.5 319.5,341.2 Q320.3,339.8 321.1,338.4 Q322.0,336.9 323.0,335.2 Q324.1,333.5 325.3,331.7 Q326.5,329.9 327.6,328.2 Q328.7,326.6 329.7,325.2 Q330.7,323.8 331.7,322.4 Q332.8,321.1 333.9,319.7 Q335.0,318.3 336.4,316.8 Q337.8,315.1 339.5,313.4 Q341.2,311.7 342.9,310.0 Q344.5,308.6 345.9,307.3 Q347.3,306.1 348.7,304.9 Q350.4,303.7 352.2,302.4 Q354.3,301.0 356.4,299.6 Q358.4,298.4 360.3,297.3 Q362.2,296.3 364.0,295.4 Q365.8,294.5 367.7,293.6 Q369.7,292.7 371.8,291.8 Q374.0,290.9 376.2,290.0 Q378.1,289.3 379.8,288.7 Q381.2,288.3 382.4,287.9 Q383.8,287.6 385.1,287.1 Q386.6,286.6 388.1,286.0 Q389.8,285.5 391.4,285.1 Q393.2,284.7 394.8,284.4 Q396.3,284.2 397.8,283.9 Q399.6,283.6 401.5,283.3 Q403.7,283.0 405.9,282.7 Q408.1,282.4 410.3,282.2 Q412.4,282.1 414.6,282.0 Q416.9,281.9 419.0,281.9 Q421.1,281.9 422.8,281.9 Q424.4,282.0 426.0,282.0 Q427.7,282.1 429.7,282.2 Q431.9,282.3 434.2,282.5 Q436.6,282.7 438.9,282.8 Q441.2,283.0 443.5,283.3 Q445.7,283.5 448.0,283.8 Q450.3,284.1 452.6,284.4 Q454.9,284.8 457.2,285.3 Q459.6,285.7 462.0,286.3 Q464.4,286.8 466.8,287.4 Q469.1,288.1 471.3,288.7 Q473.3,289.4 475.3,290.1 Q477.2,290.8 478.9,291.6 Q480.7,292.5 482.5,293.4 Q484.2,294.4 486.0,295.5 Q487.8,296.7 489.6,297.9 Q491.4,299.1 493.2,300.4 Q494.9,301.8 496.7,303.2 Q498.4,304.6 500.1,306.0 Q501.7,307.5 503.3,309.0 Q504.9,310.5 506.4,312.1 Q507.8,313.7 509.3,315.4 Q510.7,317.1 512.0,318.9 Q513.4,320.8 514.7,322.8 Q516.0,324.8 517.3,326.8 Q518.6,328.9 519.9,331.0 Q521.2,333.1 522.5,335.1 Q523.8,337.2 525.2,339.3 Q526.5,341.3 527.9,343.4 Q529.2,345.4 530.6,347.5 Q531.8,349.3 532.6,350.4 Q533.4,351.6 534.1,352.8 Q535.0,354.0 536.2,355.8 Q537.5,357.7 538.7,359.5 Q539.8,361.2 540.7,362.7 Q541.7,364.2 542.6,365.7 Q543.5,367.3 544.5,369.1 Q545.5,371.0 546.7,373.1 Q547.7,375.1 548.7,377.0 Q549.5,378.6 550.1,380.0 Q550.6,381.3 551.1,382.6 Q551.8,384.0 552.5,385.6 Z" fill="#00062b" fill-opacity="0.060" stroke="none"/>
<path d="M554.3,403.3 Q554.2,404.7 554.0,406.0 Q553.9,407.3 553.7,408.7 Q553.5,410.5 553.3,412.2 Q553.1,413.4 553.0,414.6 Q552.8,415.9 552.6,417.2 Q552.4,418.8 552.1,420.9 Q551.9,423.1 551.6,425.1 Q551.4,426.9 551.3,428.5 Q551.3,430.1 551.3,431.7 Q551.3,433.3 551.2,434.9 Q551.2,436.5 551.1,438.0 Q551.1,439.6 551.0,441.2 Q551.0,442.7 551.0,444.2 Q551.0,445.6 550.9,447.0 Q550.8,448.3 550.7,449.6 Q550.6,450.9 550.5,452.1 Q550.3,453.4 550.2,454.7 Q550.0,456.1 549.8,457.5 Q549.4,459.2 549.0,460.9 Q548.5,462.8 547.9,464.8 Q547.4,466.7 546.8,468.4 Q546.2,470.3 545.5,472.3 Q544.7,474.4 543.8,476.6 Q542.8,478.8 541.8,481.0 Q540.7,483.1 539.6,485.2 Q538.5,487.3 537.3,489.4 Q536.1,491.4 534.9,493.5 Q533.7,495.5 532.5,497.6 Q531.3,499.6 530.1,501.6 Q528.9,503.5 527.7,505.4 Q526.6,507.2 525.5,509.0 Q524.3,510.6 523.2,512.2 Q522.0,513.8 520.8,515.3 Q519.5,517.0 518.1,518.6 Q516.7,520.4 515.2,522.2 Q513.8,523.9 512.4,525.7 Q510.9,527.5 509.5,529.3 Q508.1,531.1 506.7,532.9 Q505.3,534.7 504.0,536.4 Q502.7,538.1 501.4,539.8 Q500.3,541.4 499.1,542.9 Q498.1,544.3 497.1,545.7 Q496.1,547.0 495.1,548.2 Q494.1,549.5 493.1,550.7 Q492.1,551.9 491.1,553.0 Q490.1,554.1 489.1,555.2 Q488.1,556.2 487.0,557.1 Q486.0,558.0 484.9,558.9 Q483.8,559.7 482.5,560.6 Q481.2,561.4 479.8,562.2 Q478.3,563.0 476.6,563.8 Q474.8,564.6 472.9,565.4 Q471.0,566.2 468.9,566.9 Q466.9,567.5 464.8,568.1 Q462.7,568.6 460.7,569.0 Q458.7,569.4 456.8,569.7 Q454.9,570.0 453.0,570.2 Q451.2,570.3 449.4,570.5 Q447.7,570.6 446.0,570.7 Q444.4,570.8 442.8,570.9 Q441.2,571.0 439.6,571.1 Q438.0,571.2 436.5,571.4 Q434.9,571.5 433.3,571.7 Q431.8,571.9 430.2,572.1 Q428.6,572.3 427.0,572.5 Q425.3,572.8 423.6,573.1 Q421.9,573.5 420.1,573.9 Q418.3,574.4 416.4,575.0 Q414.4,575.7 412.4,576.4 Q410.3,577.1 408.3,577.9 Q406.2,578.7 404.2,579.5 Q402.2,580.3 400.2,581.1 Q398.3,581.9 396.5,582.6 Q394.6,583.4 392.8,584.1 Q391.0,584.7 389.3,585.3 Q387.5,585.9 385.8,586.5 Q384.0,587.1 382.2,587.6 Q380.4,588.0 378.6,588.5 Q376.8,588.9 375.0,589.3 Q373.2,589.6 371.3,589.8 Q369.4,590.1 367.5,590.2 Q365.6,590.4 363.6,590.4 Q361.6,590.4 359.5,590.4 Q357.5,590.3 355.4,590.2 Q353.3,590.0 351.3,589.8 Q349.2,589.5 347.2,589.1 Q345.3,588.7 343.4,588.2 Q341.5,587.7 339.7,587.2 Q338.0,586.6 336.3,586.0 Q334.7,585.4 333.0,584.7 Q331.4,584.0 329.8,583.2 Q328.1,582.4 326.5,581.5 Q324.8,580.6 323.1,579.6 Q321.4,578.6 319.7,577.6 Q317.9,576.6 316.2,575.5 Q314.5,574.4 312.8,573.3 Q311.1,572.2 309.4,571.1 Q307.8,570.0 306.2,568.8 Q304.6,567.7 303.0,566.5 Q301.5,565.3 299.9,564.0 Q298.4,562.7 296.8,561.4 Q295.3,560.0 293.8,558.6 Q292.2,557.2 290.7,555.7 Q289.3,554.2 287.8,552.6 Q286.5,551.1 285.2,549.6 Q283.9,548.1 282.7,546.5 Q281.5,545.0 280.3,543.3 Q279.1,541.6 277.9,539.8 Q276.8,537.9 275.7,535.9 Q274.6,533.9 273.6,531.8 Q272.7,529.7 271.7,527.5 Q270.9,525.4 270.0,523.2 Q269.1,521.0 268.2,518.8 Q267.3,516.5 266.4,514.3 Q265.4,512.1 264.4,510.3 Q263.7,509.0 263.0,507.4 Q262.1,505.3 261.1,503.1 Q260.0,500.9 258.9,498.7 Q257.8,496.5 256.7,494.2 Q255.6,492.0 254.6,489.8 Q253.5,487.5 252.4,485.3 Q251.4,483.1 250.4,480.9 Q249.4,478.8 248.4,476.7 Q247.4,474.7 246.5,472.7 Q245.6,470.7 244.6,468.7 Q243.6,466.6 242.7,464.5 Q241.7,462.3 240.8,460.0 Q239.9,457.6 240.0,455.6 Q239.0,455.3 238.4,454.3 Q238.2,452.9 238.1,451.7 Q237.4,450.5 236.6,448.1 Q236.0,445.7 235.3,443.3 Q234.8,440.9 234.4,438.6 Q234.0,436.2 233.8,433.8 Q233.7,431.4 233.7,428.9 Q233.8,426.5 234.1,424.1 Q234.3,421.7 234.6,419.3 Q235.0,417.0 235.3,414.8 Q235.6,412.8 235.8,410.9 Q235.9,409.1 236.1,407.5 Q236.1,406.0 236.2,404.6 Q236.2,403.3 236.3,402.0 Q236.3,400.7 236.3,399.4 Q236.4,398.2 236.4,396.9 Q236.5,395.6 236.5,394.4 Q236.6,393.1 236.6,391.9 Q236.7,390.6 236.7,389.3 Q236.7,387.9 236.8,386.5 Q236.8,385.1 236.8,383.7 Q236.8,382.3 236.8,380.9 Q236.9,379.5 236.9,378.2 Q237.0,376.8 237.0,375.5 Q237.1,374.1 237.1,372.7 Q237.2,371.2 237.3,369.6 Q237.4,368.0 237.5,366.3 Q237.7,364.6 237.9,362.8 Q238.2,361.0 238.4,359.3 Q238.8,357.6 239.2,356.0 Q239.6,354.3 240.1,352.7 Q240.6,351.1 241.1,349.5 Q241.7,347.9 242.3,346.3 Q243.0,344.7 243.7,343.1 Q244.4,341.5 245.2,340.0 Q246.0,338.5 246.8,337.1 Q247.6,335.8 248.5,334.5 Q249.3,333.3 250.2,332.2 Q251.1,331.1 252.1,330.1 Q253.2,329.0 254.3,328.0 Q255.6,326.9 257.1,325.8 Q258.6,324.7 260.2,323.6 Q261.8,322.6 263.5,321.6 Q265.0,320.7 266.6,319.9 Q268.1,319.1 269.8,318.3 Q271.4,317.5 273.2,316.7 Q275.0,315.9 276.9,315.1 Q278.9,314.2 280.9,313.2 Q283.1,312.2 285.3,311.1 Q287.5,310.0 289.7,308.9 Q291.9,307.7 294.1,306.5 Q296.3,305.3 298.4,304.0 Q300.5,302.7 302.6,301.4 Q304.7,300.1 306.7,298.7 Q308.7,297.2 310.7,295.8 Q312.6,294.3 314.6,292.8 Q316.4,291.3 318.3,289.8 Q320.1,288.2 321.8,286.6 Q323.5,285.1 325.2,283.5 Q326.9,281.9 328.5,280.3 Q330.1,278.7 331.7,277.1 Q333.3,275.5 334.9,273.9 Q336.4,272.3 338.0,270.7 Q339.6,269.1 341.3,267.5 Q342.9,265.8 344.6,264.2 Q346.3,262.5 348.0,260.8 Q349.7,259.2 351.4,257.5 Q353.2,255.8 354.8,254.2 Q356.5,252.6 358.1,251.0 Q359.7,249.5 361.3,248.0 Q362.8,246.4 364.3,245.0 Q365.7,243.5 367.2,242.1 Q368.6,240.7 370.0,239.3 Q371.4,238.0 372.7,236.8 Q374.1,235.5 375.4,234.3 Q376.8,233.2 378.3,232.0 Q379.8,230.9 381.4,229.7 Q383.0,228.6 384.7,227.5 Q386.5,226.5 388.3,225.4 Q390.1,224.4 392.0,223.4 Q393.8,222.4 395.7,221.4 Q397.4,220.5 399.2,219.6 Q400.9,218.7 402.6,217.9 Q404.3,217.1 405.9,216.3 Q407.6,215.5 409.2,214.7 Q410.9,213.9 412.6,213.1 Q414.3,212.3 416.0,211.5 Q417.8,210.7 419.6,210.0 Q421.5,209.2 423.4,208.5 Q425.3,207.7 427.3,207.0 Q429.3,206.3 431.3,205.7 Q433.3,205.1 435.3,204.5 Q437.3,204.0 439.3,203.6 Q441.3,203.2 443.2,202.9 Q445.1,202.7 446.9,202.5 Q448.7,202.4 450.4,202.4 Q452.2,202.5 453.9,202.6 Q455.6,202.9 457.3,203.2 Q459.1,203.5 460.8,203.9 Q462.5,204.4 464.3,204.9 Q466.0,205.5 467.8,206.1 Q469.5,206.7 471.3,207.3 Q473.1,208.0 474.8,208.7 Q476.5,209.4 478.2,210.1 Q479.9,210.8 481.6,211.5 Q483.2,212.3 484.9,213.1 Q486.5,213.9 488.1,214.8 Q489.7,215.7 491.4,216.7 Q493.0,217.8 494.7,219.0 Q496.4,220.3 498.2,221.7 Q500.0,223.1 501.7,224.7 Q503.5,226.3 505.3,228.0 Q507.1,229.7 508.8,231.4 Q510.5,233.2 512.2,235.0 Q513.8,236.8 515.4,238.7 Q516.9,240.5 518.4,242.4 Q519.8,244.4 521.2,246.4 Q522.6,248.4 524.0,250.5 Q525.4,252.5 526.7,254.6 Q527.9,256.6 529.0,258.5 Q530.0,260.3 531.0,262.0 Q532.0,263.8 533.1,265.6 Q534.1,267.4 535.2,269.4 Q536.3,271.4 537.3,273.5 Q538.3,275.6 539.2,277.7 Q540.0,279.8 540.8,281.8 Q541.4,283.8 542.0,285.8 Q542.4,287.7 542.8,289.6 Q543.2,291.5 543.5,293.4 Q543.7,295.3 544.0,297.2 Q544.2,299.0 544.4,300.9 Q544.6,302.8 544.8,304.8 Q545.1,306.8 545.3,308.8 Q545.5,310.9 545.7,313.0 Q545.9,315.2 546.1,317.3 Q546.2,319.4 546.4,321.5 Q546.5,323.5 546.7,325.6 Q546.8,327.6 546.9,329.5 Q547.0,331.5 547.0,333.5 Q547.1,335.5 547.2,337.6 Q547.3,339.7 547.5,341.9 Q547.6,344.2 547.8,346.5 Q548.0,348.8 548.2,351.1 Q548.4,353.1 548.6,355.0 Q548.9,356.6 549.1,358.1 Q549.3,359.5 549.5,360.9 Q549.7,362.4 550.0,364.0 Q550.3,365.8 550.7,367.7 Q551.1,369.7 551.5,371.6 Q551.8,373.3 552.0,374.9 Q552.3,376.4 552.6,377.8 Q552.8,379.4 553.1,381.2 Q553.4,383.2 553.7,385.4 Q553.9,387.5 554.2,389.4 Q554.3,391.3 554.3,393.4 Q554.3,395.8 554.3,397.9 Q554.2,399.2 554.4,400.6 Z" fill="none" stroke="#006c47" stroke-width="0.93" opacity="0.317" stroke-linecap="round" stroke-linejoin="round"/>
<path d="M554.3,403.3 Q554.2,404.7 554.0,406.0 Q553.9,407.3 553.7,408.7 Q553.5,410.5 553.3,412.2 Q553.1,413.4 553.0,414.6 Q552.8,415.9 552.6,417.2 Q552.4,418.8 552.1,420.9 Q551.9,423.1 551.6,425.1 Q551.4,426.9 551.3,428.5 Q551.3,430.1 551.3,431.7 Q551.3,433.3 551.2,434.9 Q551.2,436.5 551.1,438.0 Q551.1,439.6 551.0,441.2 Q551.0,442.7 551.0,444.2 Q551.0,445.6 550.9,447.0 Q550.8,448.3 550.7,449.6 Q550.6,450.9 550.5,452.1 Q550.3,453.4 550.2,454.7 Q550.0,456.1 549.8,457.5 Q549.4,459.2 549.0,460.9 Q548.5,462.8 547.9,464.8 Q547.4,466.7 546.8,468.4 Q546.2,470.3 545.5,472.3 Q544.7,474.4 543.8,476.6 Q542.8,478.8 541.8,481.0 Q540.7,483.1 539.6,485.2 Q538.5,487.3 537.3,489.4 Q536.1,491.4 534.9,493.5 Q533.7,495.5 532.5,497.6 Q531.3,499.6 530.1,501.6 Q528.9,503.5 527.7,505.4 Q526.6,507.2 525.5,509.0 Q524.3,510.6 523.2,512.2 Q522.0,513.8 520.8,515.3 Q519.5,517.0 518.1,518.6 Q516.7,520.4 515.2,522.2 Q513.8,523.9 512.4,525.7 Q510.9,527.5 509.5,529.3 Q508.1,531.1 506.7,532.9 Q505.3,534.7 504.0,536.4 Q502.7,538.1 501.4,539.8 Q500.3,541.4 499.1,542.9 Q498.1,544.3 497.1,545.7 Q496.1,547.0 495.1,548.2 Q494.1,549.5 493.1,550.7 Q492.1,551.9 491.1,553.0 Q490.1,554.1 489.1,555.2 Q488.1,556.2 487.0,557.1 Q486.0,558.0 484.9,558.9 Q483.8,559.7 482.5,560.6 Q481.2,561.4 479.8,562.2 Q478.3,563.0 476.6,563.8 Q474.8,564.6 472.9,565.4 Q471.0,566.2 468.9,566.9 Q466.9,567.5 464.8,568.1 Q462.7,568.6 460.7,569.0 Q458.7,569.4 456.8,569.7 Q454.9,570.0 453.0,570.2 Q451.2,570.3 449.4,570.5 Q447.7,570.6 446.0,570.7 Q444.4,570.8 442.8,570.9 Q441.2,571.0 439.6,571.1 Q438.0,571.2 436.5,571.4 Q434.9,571.5 433.3,571.7 Q431.8,571.9 430.2,572.1 Q428.6,572.3 427.0,572.5 Q425.3,572.8 423.6,573.1 Q421.9,573.5 420.1,573.9 Q418.3,574.4 416.4,575.0 Q414.4,575.7 412.4,576.4 Q410.3,577.1 408.3,577.9 Q406.2,578.7 404.2,579.5 Q402.2,580.3 400.2,581.1 Q398.3,581.9 396.5,582.6 Q394.6,583.4 392.8,584.1 Q391.0,584.7 389.3,585.3 Q387.5,585.9 385.8,586.5 Q384.0,587.1 382.2,587.6 Q380.4,588.0 378.6,588.5 Q376.8,588.9 375.0,589.3 Q373.2,589.6 371.3,589.8 Q369.4,590.1 367.5,590.2 Q365.6,590.4 363.6,590.4 Q361.6,590.4 359.5,590.4 Q357.5,590.3 355.4,590.2 Q353.3,590.0 351.3,589.8 Q349.2,589.5 347.2,589.1 Q345.3,588.7 343.4,588.2 Q341.5,587.7 339.7,587.2 Q338.0,586.6 336.3,586.0 Q334.7,585.4 333.0,584.7 Q331.4,584.0 329.8,583.2 Q328.1,582.4 326.5,581.5 Q324.8,580.6 323.1,579.6 Q321.4,578.6 319.7,577.6 Q317.9,576.6 316.2,575.5 Q314.5,574.4 312.8,573.3 Q311.1,572.2 309.4,571.1 Q307.8,570.0 306.2,568.8 Q304.6,567.7 303.0,566.5 Q301.5,565.3 299.9,564.0 Q298.4,562.7 296.8,561.4 Q295.3,560.0 293.8,558.6 Q292.2,557.2 290.7,555.7 Q289.3,554.2 287.8,552.6 Q286.5,551.1 285.2,549.6 Q283.9,548.1 282.7,546.5 Q281.5,545.0 280.3,543.3 Q279.1,541.6 277.9,539.8 Q276.8,537.9 275.7,535.9 Q274.6,533.9 273.6,531.8 Q272.7,529.7 271.7,527.5 Q270.9,525.4 270.0,523.2 Q269.1,521.0 268.2,518.8 Q267.3,516.5 266.4,514.3 Q265.4,512.1 264.4,510.3 Q263.7,509.0 263.0,507.4 Q262.1,505.3 261.1,503.1 Q260.0,500.9 258.9,498.7 Q257.8,496.5 256.7,494.2 Q255.6,492.0 254.6,489.8 Q253.5,487.5 252.4,485.3 Q251.4,483.1 250.4,480.9 Q249.4,478.8 248.4,476.7 Q247.4,474.7 246.5,472.7 Q245.6,470.7 244.6,468.7 Q243.6,466.6 242.7,464.5 Q241.7,462.3 240.8,460.0 Q239.9,457.6 240.0,455.6 Q239.0,455.3 238.4,454.3 Q238.2,452.9 238.1,451.7 Q237.4,450.5 236.6,448.1 Q236.0,445.7 235.3,443.3 Q234.8,440.9 234.4,438.6 Q234.0,436.2 233.8,433.8 Q233.7,431.4 233.7,428.9 Q233.8,426.5 234.1,424.1 Q234.3,421.7 234.6,419.3 Q235.0,417.0 235.3,414.8 Q235.6,412.8 235.8,410.9 Q235.9,409.1 236.1,407.5 Q236.1,406.0 236.2,404.6 Q236.2,403.3 236.3,402.0 Q236.3,400.7 236.3,399.4 Q236.4,398.2 236.4,396.9 Q236.5,395.6 236.5,394.4 Q236.6,393.1 236.6,391.9 Q236.7,390.6 236.7,389.3 Q236.7,387.9 236.8,386.5 Q236.8,385.1 236.8,383.7 Q236.8,382.3 236.8,380.9 Q236.9,379.5 236.9,378.2 Q237.0,376.8 237.0,375.5 Q237.1,374.1 237.1,372.7 Q237.2,371.2 237.3,369.6 Q237.4,368.0 237.5,366.3 Q237.7,364.6 237.9,362.8 Q238.2,361.0 238.4,359.3 Q238.8,357.6 239.2,356.0 Q239.6,354.3 240.1,352.7 Q240.6,351.1 241.1,349.5 Q241.7,347.9 242.3,346.3 Q243.0,344.7 243.7,343.1 Q244.4,341.5 245.2,340.0 Q246.0,338.5 246.8,337.1 Q247.6,335.8 248.5,334.5 Q249.3,333.3 250.2,332.2 Q251.1,331.1 252.1,330.1 Q253.2,329.0 254.3,328.0 Q255.6,326.9 257.1,325.8 Q258.6,324.7 260.2,323.6 Q261.8,322.6 263.5,321.6 Q265.0,320.7 266.6,319.9 Q268.1,319.1 269.8,318.3 Q271.4,317.5 273.2,316.7 Q275.0,315.9 276.9,315.1 Q278.9,314.2 280.9,313.2 Q283.1,312.2 285.3,311.1 Q287.5,310.0 289.7,308.9 Q291.9,307.7 294.1,306.5 Q296.3,305.3 298.4,304.0 Q300.5,302.7 302.6,301.4 Q304.7,300.1 306.7,298.7 Q308.7,297.2 310.7,295.8 Q312.6,294.3 314.6,292.8 Q316.4,291.3 318.3,289.8 Q320.1,288.2 321.8,286.6 Q323.5,285.1 325.2,283.5 Q326.9,281.9 328.5,280.3 Q330.1,278.7 331.7,277.1 Q333.3,275.5 334.9,273.9 Q336.4,272.3 338.0,270.7 Q339.6,269.1 341.3,267.5 Q342.9,265.8 344.6,264.2 Q346.3,262.5 348.0,260.8 Q349.7,259.2 351.4,257.5 Q353.2,255.8 354.8,254.2 Q356.5,252.6 358.1,251.0 Q359.7,249.5 361.3,248.0 Q362.8,246.4 364.3,245.0 Q365.7,243.5 367.2,242.1 Q368.6,240.7 370.0,239.3 Q371.4,238.0 372.7,236.8 Q374.1,235.5 375.4,234.3 Q376.8,233.2 378.3,232.0 Q379.8,230.9 381.4,229.7 Q383.0,228.6 384.7,227.5 Q386.5,226.5 388.3,225.4 Q390.1,224.4 392.0,223.4 Q393.8,222.4 395.7,221.4 Q397.4,220.5 399.2,219.6 Q400.9,218.7 402.6,217.9 Q404.3,217.1 405.9,216.3 Q407.6,215.5 409.2,214.7 Q410.9,213.9 412.6,213.1 Q414.3,212.3 416.0,211.5 Q417.8,210.7 419.6,210.0 Q421.5,209.2 423.4,208.5 Q425.3,207.7 427.3,207.0 Q429.3,206.3 431.3,205.7 Q433.3,205.1 435.3,204.5 Q437.3,204.0 439.3,203.6 Q441.3,203.2 443.2,202.9 Q445.1,202.7 446.9,202.5 Q448.7,202.4 450.4,202.4 Q452.2,202.5 453.9,202.6 Q455.6,202.9 457.3,203.2 Q459.1,203.5 460.8,203.9 Q462.5,204.4 464.3,204.9 Q466.0,205.5 467.8,206.1 Q469.5,206.7 471.3,207.3 Q473.1,208.0 474.8,208.7 Q476.5,209.4 478.2,210.1 Q479.9,210.8 481.6,211.5 Q483.2,212.3 484.9,213.1 Q486.5,213.9 488.1,214.8 Q489.7,215.7 491.4,216.7 Q493.0,217.8 494.7,219.0 Q496.4,220.3 498.2,221.7 Q500.0,223.1 501.7,224.7 Q503.5,226.3 505.3,228.0 Q507.1,229.7 508.8,231.4 Q510.5,233.2 512.2,235.0 Q513.8,236.8 515.4,238.7 Q516.9,240.5 518.4,242.4 Q519.8,244.4 521.2,246.4 Q522.6,248.4 524.0,250.5 Q525.4,252.5 526.7,254.6 Q527.9,256.6 529.0,258.5 Q530.0,260.3 531.0,262.0 Q532.0,263.8 533.1,265.6 Q534.1,267.4 535.2,269.4 Q536.3,271.4 537.3,273.5 Q538.3,275.6 539.2,277.7 Q540.0,279.8 540.8,281.8 Q541.4,283.8 542.0,285.8 Q542.4,287.7 542.8,289.6 Q543.2,291.5 543.5,293.4 Q543.7,295.3 544.0,297.2 Q544.2,299.0 544.4,300.9 Q544.6,302.8 544.8,304.8 Q545.1,306.8 545.3,308.8 Q545.5,310.9 545.7,313.0 Q545.9,315.2 546.1,317.3 Q546.2,319.4 546.4,321.5 Q546.5,323.5 546.7,325.6 Q546.8,327.6 546.9,329.5 Q547.0,331.5 547.0,333.5 Q547.1,335.5 547.2,337.6 Q547.3,339.7 547.5,341.9 Q547.6,344.2 547.8,346.5 Q548.0,348.8 548.2,351.1 Q548.4,353.1 548.6,355.0 Q548.9,356.6 549.1,358.1 Q549.3,359.5 549.5,360.9 Q549.7,362.4 550.0,364.0 Q550.3,365.8 550.7,367.7 Q551.1,369.7 551.5,371.6 Q551.8,373.3 552.0,374.9 Q552.3,376.4 552.6,377.8 Q552.8,379.4 553.1,381.2 Q553.4,383.2 553.7,385.4 Q553.9,387.5 554.2,389.4 Q554.3,391.3 554.3,393.4 Q554.3,395.8 554.3,397.9 Q554.2,399.2 554.4,400.6 Z" fill="#00494b" fill-opacity="0.047" stroke="none"/>
<path d="M634.3,397.9 Q635.2,399.8 636.0,401.6 Q636.8,403.5 637.5,405.4 Q638.1,407.4 638.7,409.3 Q639.2,411.3 639.6,413.3 Q640.0,415.3 640.3,417.3 Q640.6,419.4 640.9,421.5 Q641.1,423.6 641.3,425.7 Q641.5,427.8 641.6,429.9 Q641.7,432.1 641.8,434.3 Q641.8,436.4 641.7,438.6 Q641.6,440.8 641.4,443.0 Q641.1,445.2 640.8,447.3 Q640.4,449.5 639.9,451.7 Q639.4,453.8 638.8,456.0 Q638.2,458.1 637.5,460.2 Q636.7,462.3 636.0,464.3 Q635.2,466.4 634.5,468.4 Q633.7,470.4 632.9,472.4 Q632.1,474.3 631.3,476.3 Q630.4,478.2 629.5,480.1 Q628.6,481.9 627.7,483.8 Q626.7,485.7 625.8,487.5 Q624.9,489.3 624.0,491.1 Q623.2,492.9 622.3,494.7 Q621.5,496.5 620.7,498.4 Q619.9,500.2 619.0,502.0 Q618.1,503.8 617.2,505.6 Q616.3,507.4 615.2,509.2 Q614.2,511.0 613.0,512.9 Q611.8,514.7 610.5,516.5 Q609.1,518.3 607.7,520.1 Q606.3,521.9 604.9,523.7 Q603.5,525.5 602.1,527.2 Q600.7,528.9 599.3,530.6 Q598.0,532.2 596.7,533.9 Q595.5,535.5 594.3,537.0 Q593.1,538.6 591.9,540.1 Q590.7,541.6 589.5,543.1 Q588.4,544.5 587.2,546.0 Q586.0,547.4 584.8,548.8 Q583.6,550.2 582.4,551.6 Q581.2,553.0 580.0,554.3 Q578.7,555.6 577.5,557.0 Q576.3,558.2 575.0,559.5 Q573.8,560.7 572.5,562.0 Q571.3,563.2 570.0,564.3 Q568.8,565.5 567.6,566.6 Q566.3,567.7 565.0,568.9 Q563.8,570.0 562.5,571.1 Q561.2,572.2 560.0,573.4 Q558.7,574.5 557.4,575.7 Q556.1,576.9 554.9,578.1 Q553.7,579.4 552.4,580.7 Q551.2,582.0 550.0,583.3 Q548.8,584.7 547.7,586.1 Q546.5,587.5 545.3,589.0 Q544.2,590.5 543.1,592.0 Q541.9,593.6 540.8,595.1 Q539.6,596.8 538.5,598.4 Q537.3,600.1 536.2,601.8 Q535.0,603.5 533.9,605.3 Q532.7,607.1 531.5,608.9 Q530.3,610.7 529.0,612.5 Q527.7,614.3 526.5,616.1 Q525.1,617.9 523.8,619.7 Q522.5,621.4 521.1,623.2 Q519.8,624.9 518.4,626.6 Q517.0,628.2 515.6,629.8 Q514.2,631.4 512.7,633.0 Q511.2,634.5 509.7,635.9 Q508.1,637.4 506.5,638.7 Q504.9,640.0 503.2,641.3 Q501.5,642.5 499.9,643.6 Q498.1,644.7 496.4,645.7 Q494.7,646.7 492.9,647.6 Q491.1,648.4 489.3,649.1 Q487.5,649.8 485.7,650.4 Q483.9,650.9 482.0,651.4 Q480.1,651.7 478.2,652.0 Q476.4,652.2 474.5,652.4 Q472.5,652.5 470.6,652.5 Q468.7,652.5 466.8,652.4 Q464.8,652.3 462.8,652.1 Q460.9,651.8 458.9,651.5 Q456.8,651.2 454.8,650.8 Q452.7,650.3 450.6,649.9 Q448.5,649.4 446.3,649.0 Q444.2,648.5 442.0,648.0 Q439.8,647.4 437.6,646.9 Q435.4,646.4 433.3,645.8 Q431.1,645.2 428.9,644.6 Q426.7,644.0 424.6,643.4 Q422.5,642.8 420.3,642.2 Q418.2,641.5 416.1,640.9 Q414.0,640.3 411.9,639.8 Q409.8,639.2 407.8,638.6 Q405.7,638.1 403.6,637.5 Q401.6,636.9 399.5,636.3 Q397.5,635.6 395.4,635.0 Q393.4,634.3 391.3,633.6 Q389.3,632.8 387.3,632.1 Q385.3,631.3 383.4,630.5 Q381.4,629.7 379.5,629.0 Q377.6,628.2 375.7,627.4 Q373.8,626.6 372.0,625.9 Q370.1,625.1 368.3,624.4 Q366.4,623.6 364.6,622.9 Q362.8,622.2 361.0,621.5 Q359.3,620.8 357.5,620.1 Q355.7,619.4 354.0,618.8 Q352.2,618.1 350.5,617.5 Q348.7,617.0 347.0,616.5 Q345.2,616.0 343.5,615.6 Q341.7,615.2 339.9,614.9 Q338.2,614.6 336.4,614.4 Q334.6,614.2 332.9,614.0 Q331.1,614.0 329.3,613.9 Q327.5,613.9 325.6,613.9 Q323.8,613.9 322.0,614.0 Q320.2,614.0 318.3,614.1 Q316.5,614.2 314.6,614.2 Q312.8,614.2 310.9,614.3 Q309.0,614.3 307.1,614.3 Q305.2,614.3 303.2,614.3 Q301.2,614.2 299.2,614.2 Q297.2,614.1 295.2,614.0 Q293.1,613.8 291.1,613.6 Q289.0,613.3 286.8,613.0 Q284.7,612.6 282.6,612.1 Q280.5,611.7 278.3,611.1 Q276.2,610.5 274.1,609.9 Q272.0,609.2 269.9,608.4 Q267.8,607.6 265.8,606.7 Q263.8,605.7 261.9,604.7 Q260.0,603.6 258.2,602.5 Q256.4,601.3 254.8,600.1 Q253.2,598.8 251.6,597.5 Q250.2,596.2 248.8,594.8 Q247.6,593.4 246.4,591.9 Q245.3,590.4 244.2,588.9 Q243.3,587.3 242.4,585.7 Q241.5,584.0 240.7,582.3 Q239.9,580.6 239.2,578.8 Q238.4,577.0 237.7,575.2 Q237.1,573.3 236.4,571.5 Q235.8,569.6 235.1,567.7 Q234.5,565.9 234.0,564.0 Q233.4,562.2 232.9,560.4 Q232.3,558.6 231.8,556.8 Q231.2,555.1 230.7,553.3 Q230.1,551.6 229.4,550.0 Q228.7,548.3 228.0,546.7 Q227.1,545.1 226.3,543.5 Q225.3,542.0 224.3,540.4 Q223.2,539.0 222.0,537.5 Q220.8,536.1 219.5,534.7 Q218.2,533.3 216.8,532.0 Q215.4,530.7 214.0,529.4 Q212.6,528.1 211.1,526.9 Q209.7,525.6 208.3,524.3 Q206.8,523.1 205.4,521.8 Q204.1,520.5 202.7,519.2 Q201.3,517.8 200.0,516.4 Q198.7,515.0 197.4,513.5 Q196.0,512.0 194.7,510.5 Q193.4,508.9 192.0,507.3 Q190.7,505.6 189.4,503.9 Q188.1,502.2 186.7,500.5 Q185.4,498.8 184.2,497.0 Q182.9,495.3 181.6,493.5 Q180.4,491.7 179.2,490.0 Q178.0,488.2 176.8,486.5 Q175.7,484.7 174.5,483.0 Q173.4,481.3 172.3,479.5 Q171.2,477.8 170.2,476.1 Q169.1,474.4 168.2,472.6 Q167.2,470.9 166.3,469.2 Q165.4,467.4 164.6,465.7 Q163.8,463.9 163.1,462.1 Q162.5,460.3 161.9,458.5 Q161.3,456.7 160.8,454.9 Q160.3,453.0 159.9,451.2 Q159.5,449.4 159.1,447.5 Q158.7,445.7 158.3,443.8 Q157.9,442.0 157.5,440.1 Q157.1,438.3 156.7,436.4 Q156.3,434.6 155.9,432.7 Q155.6,430.9 155.3,429.0 Q154.9,427.2 154.7,425.4 Q154.4,423.5 154.2,421.6 Q154.0,419.8 153.8,417.9 Q153.6,416.0 153.4,414.1 Q153.2,412.2 153.0,410.3 Q152.8,408.4 152.6,406.4 Q152.4,404.5 152.2,402.6 Q152.1,400.6 152.0,398.7 Q151.9,396.7 151.9,394.7 Q151.9,392.7 152.0,390.8 Q152.1,388.8 152.3,386.9 Q152.6,384.9 152.9,383.0 Q153.2,381.0 153.7,379.1 Q154.2,377.2 154.9,375.3 Q155.6,373.4 156.5,371.6 Q157.4,369.7 158.5,367.9 Q159.6,366.1 160.9,364.3 Q162.3,362.5 163.7,360.7 Q165.2,358.9 166.7,357.1 Q168.2,355.3 169.7,353.6 Q171.1,351.8 172.6,350.0 Q174.0,348.3 175.3,346.5 Q176.6,344.8 177.8,343.1 Q178.9,341.4 180.1,339.8 Q181.2,338.1 182.2,336.4 Q183.2,334.8 184.2,333.1 Q185.1,331.5 186.0,329.9 Q186.8,328.2 187.6,326.5 Q188.3,324.9 189.0,323.2 Q189.6,321.5 190.2,319.8 Q190.7,318.2 191.1,316.4 Q191.5,314.7 191.8,313.0 Q192.2,311.3 192.5,309.5 Q192.8,307.8 193.1,306.0 Q193.4,304.2 193.8,302.4 Q194.1,300.6 194.5,298.8 Q194.9,297.0 195.3,295.2 Q195.7,293.4 196.1,291.6 Q196.5,289.8 196.9,288.0 Q197.3,286.2 197.7,284.4 Q198.1,282.6 198.6,280.8 Q199.1,279.0 199.6,277.2 Q200.2,275.4 200.8,273.7 Q201.4,271.9 202.2,270.1 Q203.0,268.4 203.8,266.7 Q204.8,265.0 205.8,263.3 Q206.9,261.7 208.1,260.2 Q209.4,258.7 210.7,257.2 Q212.0,255.8 213.4,254.4 Q214.8,253.1 216.3,251.9 Q217.8,250.7 219.3,249.5 Q220.9,248.4 222.6,247.3 Q224.2,246.3 226.0,245.4 Q227.7,244.5 229.6,243.6 Q231.4,242.8 233.3,242.0 Q235.2,241.3 237.2,240.7 Q239.1,240.1 241.1,239.5 Q243.1,239.0 245.1,238.4 Q247.1,238.0 249.1,237.5 Q251.2,237.0 253.2,236.6 Q255.1,236.1 257.1,235.7 Q259.0,235.2 261.0,234.8 Q262.8,234.3 264.7,233.9 Q266.4,233.5 268.2,233.2 Q269.9,232.8 271.6,232.5 Q273.2,232.2 274.9,231.9 Q276.5,231.6 278.0,231.4 Q279.6,231.1 281.2,230.7 Q282.7,230.4 284.3,230.0 Q285.8,229.6 287.3,229.1 Q288.8,228.5 290.4,227.9 Q291.9,227.3 293.4,226.5 Q294.9,225.7 296.5,224.8 Q298.0,223.9 299.5,222.9 Q300.9,221.8 302.4,220.7 Q303.9,219.6 305.4,218.5 Q306.8,217.3 308.3,216.2 Q309.7,215.1 311.2,214.0 Q312.6,212.9 314.1,211.8 Q315.6,210.7 317.0,209.6 Q318.5,208.6 320.0,207.5 Q321.5,206.5 323.0,205.5 Q324.5,204.5 326.1,203.6 Q327.6,202.6 329.2,201.7 Q330.8,200.8 332.3,199.9 Q333.9,199.1 335.5,198.3 Q337.1,197.5 338.7,196.8 Q340.3,196.0 341.9,195.4 Q343.5,194.7 345.1,194.1 Q346.7,193.4 348.3,192.9 Q349.9,192.3 351.4,191.7 Q353.0,191.2 354.6,190.7 Q356.1,190.1 357.7,189.6 Q359.2,189.0 360.8,188.4 Q362.3,187.8 363.9,187.2 Q365.5,186.5 367.0,185.8 Q368.6,185.1 370.2,184.3 Q371.8,183.6 373.4,182.8 Q375.0,182.0 376.6,181.2 Q378.2,180.4 379.9,179.6 Q381.5,178.8 383.2,178.0 Q384.9,177.2 386.6,176.4 Q388.3,175.7 390.1,175.0 Q391.8,174.3 393.6,173.6 Q395.4,172.9 397.2,172.2 Q399.0,171.5 400.9,170.9 Q402.8,170.2 404.7,169.5 Q406.6,168.8 408.5,168.1 Q410.4,167.4 412.3,166.7 Q414.2,166.0 416.2,165.3 Q418.1,164.7 420.0,164.1 Q421.9,163.5 423.8,163.0 Q425.7,162.5 427.6,162.1 Q429.5,161.7 431.4,161.4 Q433.3,161.1 435.2,160.9 Q437.2,160.8 439.1,160.8 Q441.0,160.9 442.9,161.0 Q444.7,161.3 446.6,161.7 Q448.4,162.2 450.2,162.8 Q452.0,163.5 453.8,164.3 Q455.5,165.2 457.2,166.2 Q458.8,167.3 460.4,168.5 Q462.0,169.7 463.6,171.0 Q465.1,172.4 466.7,173.8 Q468.2,175.2 469.7,176.7 Q471.2,178.2 472.8,179.8 Q474.3,181.3 475.9,182.8 Q477.5,184.3 479.1,185.8 Q480.6,187.3 482.2,188.7 Q483.8,190.1 485.3,191.4 Q486.9,192.7 488.4,194.0 Q489.9,195.3 491.4,196.5 Q492.9,197.7 494.3,198.9 Q495.8,200.1 497.2,201.3 Q498.6,202.5 500.0,203.7 Q501.4,204.8 502.8,206.0 Q504.2,207.2 505.5,208.4 Q506.9,209.7 508.2,210.9 Q509.6,212.1 510.9,213.4 Q512.3,214.7 513.7,215.9 Q515.0,217.2 516.4,218.5 Q517.8,219.8 519.2,221.2 Q520.6,222.5 521.9,223.8 Q523.3,225.2 524.7,226.5 Q526.1,227.9 527.5,229.2 Q528.8,230.6 530.2,232.0 Q531.6,233.3 533.0,234.6 Q534.4,236.0 535.8,237.3 Q537.2,238.6 538.6,239.9 Q540.0,241.2 541.4,242.5 Q542.8,243.7 544.3,245.0 Q545.7,246.2 547.2,247.4 Q548.6,248.6 550.1,249.7 Q551.6,250.8 553.0,251.9 Q554.5,253.0 556.0,254.0 Q557.5,255.1 558.9,256.0 Q560.4,257.0 561.8,258.0 Q563.3,258.9 564.7,259.8 Q566.1,260.8 567.5,261.7 Q568.9,262.6 570.3,263.6 Q571.7,264.6 573.1,265.5 Q574.4,266.5 575.8,267.5 Q577.1,268.6 578.4,269.6 Q579.7,270.7 580.9,271.9 Q582.2,273.0 583.4,274.2 Q584.6,275.4 585.7,276.6 Q586.9,277.9 587.9,279.3 Q588.9,280.6 589.9,282.0 Q590.8,283.5 591.6,285.0 Q592.4,286.5 593.1,288.1 Q593.6,289.7 594.1,291.4 Q594.6,293.1 594.9,294.8 Q595.1,296.6 595.3,298.3 Q595.5,300.1 595.6,301.9 Q595.6,303.8 595.7,305.6 Q595.7,307.4 595.7,309.3 Q595.7,311.1 595.8,312.9 Q595.8,314.8 595.8,316.6 Q595.8,318.5 595.8,320.3 Q595.8,322.1 595.8,323.9 Q595.7,325.7 595.7,327.4 Q595.7,329.2 595.7,330.9 Q595.8,332.6 595.9,334.3 Q596.0,335.9 596.1,337.5 Q596.4,339.1 596.6,340.7 Q597.0,342.2 597.4,343.7 Q597.8,345.2 598.3,346.7 Q598.8,348.1 599.4,349.6 Q600.0,351.0 600.6,352.4 Q601.3,353.8 602.0,355.2 Q602.8,356.6 603.6,358.0 Q604.5,359.4 605.4,360.8 Q606.3,362.2 607.3,363.6 Q608.4,365.0 609.5,366.4 Q610.7,367.7 611.9,369.1 Q613.1,370.5 614.4,371.9 Q615.7,373.4 617.0,374.8 Q618.4,376.3 619.8,377.8 Q621.1,379.3 622.5,380.8 Q623.9,382.4 625.2,384.1 Q626.5,385.7 627.8,387.4 Q629.0,389.1 630.2,390.8 Q631.3,392.6 632.4,394.3 Z" fill="none" stroke="#8ca600" stroke-width="0.67" opacity="0.233" stroke-linecap="round" stroke-linejoin="round"/>
<path d="M634.3,397.9 Q635.2,399.8 636.0,401.6 Q636.8,403.5 637.5,405.4 Q638.1,407.4 638.7,409.3 Q639.2,411.3 639.6,413.3 Q640.0,415.3 640.3,417.3 Q640.6,419.4 640.9,421.5 Q641.1,423.6 641.3,425.7 Q641.5,427.8 641.6,429.9 Q641.7,432.1 641.8,434.3 Q641.8,436.4 641.7,438.6 Q641.6,440.8 641.4,443.0 Q641.1,445.2 640.8,447.3 Q640.4,449.5 639.9,451.7 Q639.4,453.8 638.8,456.0 Q638.2,458.1 637.5,460.2 Q636.7,462.3 636.0,464.3 Q635.2,466.4 634.5,468.4 Q633.7,470.4 632.9,472.4 Q632.1,474.3 631.3,476.3 Q630.4,478.2 629.5,480.1 Q628.6,481.9 627.7,483.8 Q626.7,485.7 625.8,487.5 Q624.9,489.3 624.0,491.1 Q623.2,492.9 622.3,494.7 Q621.5,496.5 620.7,498.4 Q619.9,500.2 619.0,502.0 Q618.1,503.8 617.2,505.6 Q616.3,507.4 615.2,509.2 Q614.2,511.0 613.0,512.9 Q611.8,514.7 610.5,516.5 Q609.1,518.3 607.7,520.1 Q606.3,521.9 604.9,523.7 Q603.5,525.5 602.1,527.2 Q600.7,528.9 599.3,530.6 Q598.0,532.2 596.7,533.9 Q595.5,535.5 594.3,537.0 Q593.1,538.6 591.9,540.1 Q590.7,541.6 589.5,543.1 Q588.4,544.5 587.2,546.0 Q586.0,547.4 584.8,548.8 Q583.6,550.2 582.4,551.6 Q581.2,553.0 580.0,554.3 Q578.7,555.6 577.5,557.0 Q576.3,558.2 575.0,559.5 Q573.8,560.7 572.5,562.0 Q571.3,563.2 570.0,564.3 Q568.8,565.5 567.6,566.6 Q566.3,567.7 565.0,568.9 Q563.8,570.0 562.5,571.1 Q561.2,572.2 560.0,573.4 Q558.7,574.5 557.4,575.7 Q556.1,576.9 554.9,578.1 Q553.7,579.4 552.4,580.7 Q551.2,582.0 550.0,583.3 Q548.8,584.7 547.7,586.1 Q546.5,587.5 545.3,589.0 Q544.2,590.5 543.1,592.0 Q541.9,593.6 540.8,595.1 Q539.6,596.8 538.5,598.4 Q537.3,600.1 536.2,601.8 Q535.0,603.5 533.9,605.3 Q532.7,607.1 531.5,608.9 Q530.3,610.7 529.0,612.5 Q527.7,614.3 526.5,616.1 Q525.1,617.9 523.8,619.7 Q522.5,621.4 521.1,623.2 Q519.8,624.9 518.4,626.6 Q517.0,628.2 515.6,629.8 Q514.2,631.4 512.7,633.0 Q511.2,634.5 509.7,635.9 Q508.1,637.4 506.5,638.7 Q504.9,640.0 503.2,641.3 Q501.5,642.5 499.9,643.6 Q498.1,644.7 496.4,645.7 Q494.7,646.7 492.9,647.6 Q491.1,648.4 489.3,649.1 Q487.5,649.8 485.7,650.4 Q483.9,650.9 482.0,651.4 Q480.1,651.7 478.2,652.0 Q476.4,652.2 474.5,652.4 Q472.5,652.5 470.6,652.5 Q468.7,652.5 466.8,652.4 Q464.8,652.3 462.8,652.1 Q460.9,651.8 458.9,651.5 Q456.8,651.2 454.8,650.8 Q452.7,650.3 450.6,649.9 Q448.5,649.4 446.3,649.0 Q444.2,648.5 442.0,648.0 Q439.8,647.4 437.6,646.9 Q435.4,646.4 433.3,645.8 Q431.1,645.2 428.9,644.6 Q426.7,644.0 424.6,643.4 Q422.5,642.8 420.3,642.2 Q418.2,641.5 416.1,640.9 Q414.0,640.3 411.9,639.8 Q409.8,639.2 407.8,638.6 Q405.7,638.1 403.6,637.5 Q401.6,636.9 399.5,636.3 Q397.5,635.6 395.4,635.0 Q393.4,634.3 391.3,633.6 Q389.3,632.8 387.3,632.1 Q385.3,631.3 383.4,630.5 Q381.4,629.7 379.5,629.0 Q377.6,628.2 375.7,627.4 Q373.8,626.6 372.0,625.9 Q370.1,625.1 368.3,624.4 Q366.4,623.6 364.6,622.9 Q362.8,622.2 361.0,621.5 Q359.3,620.8 357.5,620.1 Q355.7,619.4 354.0,618.8 Q352.2,618.1 350.5,617.5 Q348.7,617.0 347.0,616.5 Q345.2,616.0 343.5,615.6 Q341.7,615.2 339.9,614.9 Q338.2,614.6 336.4,614.4 Q334.6,614.2 332.9,614.0 Q331.1,614.0 329.3,613.9 Q327.5,613.9 325.6,613.9 Q323.8,613.9 322.0,614.0 Q320.2,614.0 318.3,614.1 Q316.5,614.2 314.6,614.2 Q312.8,614.2 310.9,614.3 Q309.0,614.3 307.1,614.3 Q305.2,614.3 303.2,614.3 Q301.2,614.2 299.2,614.2 Q297.2,614.1 295.2,614.0 Q293.1,613.8 291.1,613.6 Q289.0,613.3 286.8,613.0 Q284.7,612.6 282.6,612.1 Q280.5,611.7 278.3,611.1 Q276.2,610.5 274.1,609.9 Q272.0,609.2 269.9,608.4 Q267.8,607.6 265.8,606.7 Q263.8,605.7 261.9,604.7 Q260.0,603.6 258.2,602.5 Q256.4,601.3 254.8,600.1 Q253.2,598.8 251.6,597.5 Q250.2,596.2 248.8,594.8 Q247.6,593.4 246.4,591.9 Q245.3,590.4 244.2,588.9 Q243.3,587.3 242.4,585.7 Q241.5,584.0 240.7,582.3 Q239.9,580.6 239.2,578.8 Q238.4,577.0 237.7,575.2 Q237.1,573.3 236.4,571.5 Q235.8,569.6 235.1,567.7 Q234.5,565.9 234.0,564.0 Q233.4,562.2 232.9,560.4 Q232.3,558.6 231.8,556.8 Q231.2,555.1 230.7,553.3 Q230.1,551.6 229.4,550.0 Q228.7,548.3 228.0,546.7 Q227.1,545.1 226.3,543.5 Q225.3,542.0 224.3,540.4 Q223.2,539.0 222.0,537.5 Q220.8,536.1 219.5,534.7 Q218.2,533.3 216.8,532.0 Q215.4,530.7 214.0,529.4 Q212.6,528.1 211.1,526.9 Q209.7,525.6 208.3,524.3 Q206.8,523.1 205.4,521.8 Q204.1,520.5 202.7,519.2 Q201.3,517.8 200.0,516.4 Q198.7,515.0 197.4,513.5 Q196.0,512.0 194.7,510.5 Q193.4,508.9 192.0,507.3 Q190.7,505.6 189.4,503.9 Q188.1,502.2 186.7,500.5 Q185.4,498.8 184.2,497.0 Q182.9,495.3 181.6,493.5 Q180.4,491.7 179.2,490.0 Q178.0,488.2 176.8,486.5 Q175.7,484.7 174.5,483.0 Q173.4,481.3 172.3,479.5 Q171.2,477.8 170.2,476.1 Q169.1,474.4 168.2,472.6 Q167.2,470.9 166.3,469.2 Q165.4,467.4 164.6,465.7 Q163.8,463.9 163.1,462.1 Q162.5,460.3 161.9,458.5 Q161.3,456.7 160.8,454.9 Q160.3,453.0 159.9,451.2 Q159.5,449.4 159.1,447.5 Q158.7,445.7 158.3,443.8 Q157.9,442.0 157.5,440.1 Q157.1,438.3 156.7,436.4 Q156.3,434.6 155.9,432.7 Q155.6,430.9 155.3,429.0 Q154.9,427.2 154.7,425.4 Q154.4,423.5 154.2,421.6 Q154.0,419.8 153.8,417.9 Q153.6,416.0 153.4,414.1 Q153.2,412.2 153.0,410.3 Q152.8,408.4 152.6,406.4 Q152.4,404.5 152.2,402.6 Q152.1,400.6 152.0,398.7 Q151.9,396.7 151.9,394.7 Q151.9,392.7 152.0,390.8 Q152.1,388.8 152.3,386.9 Q152.6,384.9 152.9,383.0 Q153.2,381.0 153.7,379.1 Q154.2,377.2 154.9,375.3 Q155.6,373.4 156.5,371.6 Q157.4,369.7 158.5,367.9 Q159.6,366.1 160.9,364.3 Q162.3,362.5 163.7,360.7 Q165.2,358.9 166.7,357.1 Q168.2,355.3 169.7,353.6 Q171.1,351.8 172.6,350.0 Q174.0,348.3 175.3,346.5 Q176.6,344.8 177.8,343.1 Q178.9,341.4 180.1,339.8 Q181.2,338.1 182.2,336.4 Q183.2,334.8 184.2,333.1 Q185.1,331.5 186.0,329.9 Q186.8,328.2 187.6,326.5 Q188.3,324.9 189.0,323.2 Q189.6,321.5 190.2,319.8 Q190.7,318.2 191.1,316.4 Q191.5,314.7 191.8,313.0 Q192.2,311.3 192.5,309.5 Q192.8,307.8 193.1,306.0 Q193.4,304.2 193.8,302.4 Q194.1,300.6 194.5,298.8 Q194.9,297.0 195.3,295.2 Q195.7,293.4 196.1,291.6 Q196.5,289.8 196.9,288.0 Q197.3,286.2 197.7,284.4 Q198.1,282.6 198.6,280.8 Q199.1,279.0 199.6,277.2 Q200.2,275.4 200.8,273.7 Q201.4,271.9 202.2,270.1 Q203.0,268.4 203.8,266.7 Q204.8,265.0 205.8,263.3 Q206.9,261.7 208.1,260.2 Q209.4,258.7 210.7,257.2 Q212.0,255.8 213.4,254.4 Q214.8,253.1 216.3,251.9 Q217.8,250.7 219.3,249.5 Q220.9,248.4 222.6,247.3 Q224.2,246.3 226.0,245.4 Q227.7,244.5 229.6,243.6 Q231.4,242.8 233.3,242.0 Q235.2,241.3 237.2,240.7 Q239.1,240.1 241.1,239.5 Q243.1,239.0 245.1,238.4 Q247.1,238.0 249.1,237.5 Q251.2,237.0 253.2,236.6 Q255.1,236.1 257.1,235.7 Q259.0,235.2 261.0,234.8 Q262.8,234.3 264.7,233.9 Q266.4,233.5 268.2,233.2 Q269.9,232.8 271.6,232.5 Q273.2,232.2 274.9,231.9 Q276.5,231.6 278.0,231.4 Q279.6,231.1 281.2,230.7 Q282.7,230.4 284.3,230.0 Q285.8,229.6 287.3,229.1 Q288.8,228.5 290.4,227.9 Q291.9,227.3 293.4,226.5 Q294.9,225.7 296.5,224.8 Q298.0,223.9 299.5,222.9 Q300.9,221.8 302.4,220.7 Q303.9,219.6 305.4,218.5 Q306.8,217.3 308.3,216.2 Q309.7,215.1 311.2,214.0 Q312.6,212.9 314.1,211.8 Q315.6,210.7 317.0,209.6 Q318.5,208.6 320.0,207.5 Q321.5,206.5 323.0,205.5 Q324.5,204.5 326.1,203.6 Q327.6,202.6 329.2,201.7 Q330.8,200.8 332.3,199.9 Q333.9,199.1 335.5,198.3 Q337.1,197.5 338.7,196.8 Q340.3,196.0 341.9,195.4 Q343.5,194.7 345.1,194.1 Q346.7,193.4 348.3,192.9 Q349.9,192.3 351.4,191.7 Q353.0,191.2 354.6,190.7 Q356.1,190.1 357.7,189.6 Q359.2,189.0 360.8,188.4 Q362.3,187.8 363.9,187.2 Q365.5,186.5 367.0,185.8 Q368.6,185.1 370.2,184.3 Q371.8,183.6 373.4,182.8 Q375.0,182.0 376.6,181.2 Q378.2,180.4 379.9,179.6 Q381.5,178.8 383.2,178.0 Q384.9,177.2 386.6,176.4 Q388.3,175.7 390.1,175.0 Q391.8,174.3 393.6,173.6 Q395.4,172.9 397.2,172.2 Q399.0,171.5 400.9,170.9 Q402.8,170.2 404.7,169.5 Q406.6,168.8 408.5,168.1 Q410.4,167.4 412.3,166.7 Q414.2,166.0 416.2,165.3 Q418.1,164.7 420.0,164.1 Q421.9,163.5 423.8,163.0 Q425.7,162.5 427.6,162.1 Q429.5,161.7 431.4,161.4 Q433.3,161.1 435.2,160.9 Q437.2,160.8 439.1,160.8 Q441.0,160.9 442.9,161.0 Q444.7,161.3 446.6,161.7 Q448.4,162.2 450.2,162.8 Q452.0,163.5 453.8,164.3 Q455.5,165.2 457.2,166.2 Q458.8,167.3 460.4,168.5 Q462.0,169.7 463.6,171.0 Q465.1,172.4 466.7,173.8 Q468.2,175.2 469.7,176.7 Q471.2,178.2 472.8,179.8 Q474.3,181.3 475.9,182.8 Q477.5,184.3 479.1,185.8 Q480.6,187.3 482.2,188.7 Q483.8,190.1 485.3,191.4 Q486.9,192.7 488.4,194.0 Q489.9,195.3 491.4,196.5 Q492.9,197.7 494.3,198.9 Q495.8,200.1 497.2,201.3 Q498.6,202.5 500.0,203.7 Q501.4,204.8 502.8,206.0 Q504.2,207.2 505.5,208.4 Q506.9,209.7 508.2,210.9 Q509.6,212.1 510.9,213.4 Q512.3,214.7 513.7,215.9 Q515.0,217.2 516.4,218.5 Q517.8,219.8 519.2,221.2 Q520.6,222.5 521.9,223.8 Q523.3,225.2 524.7,226.5 Q526.1,227.9 527.5,229.2 Q528.8,230.6 530.2,232.0 Q531.6,233.3 533.0,234.6 Q534.4,236.0 535.8,237.3 Q537.2,238.6 538.6,239.9 Q540.0,241.2 541.4,242.5 Q542.8,243.7 544.3,245.0 Q545.7,246.2 547.2,247.4 Q548.6,248.6 550.1,249.7 Q551.6,250.8 553.0,251.9 Q554.5,253.0 556.0,254.0 Q557.5,255.1 558.9,256.0 Q560.4,257.0 561.8,258.0 Q563.3,258.9 564.7,259.8 Q566.1,260.8 567.5,261.7 Q568.9,262.6 570.3,263.6 Q571.7,264.6 573.1,265.5 Q574.4,266.5 575.8,267.5 Q577.1,268.6 578.4,269.6 Q579.7,270.7 580.9,271.9 Q582.2,273.0 583.4,274.2 Q584.6,275.4 585.7,276.6 Q586.9,277.9 587.9,279.3 Q588.9,280.6 589.9,282.0 Q590.8,283.5 591.6,285.0 Q592.4,286.5 593.1,288.1 Q593.6,289.7 594.1,291.4 Q594.6,293.1 594.9,294.8 Q595.1,296.6 595.3,298.3 Q595.5,300.1 595.6,301.9 Q595.6,303.8 595.7,305.6 Q595.7,307.4 595.7,309.3 Q595.7,311.1 595.8,312.9 Q595.8,314.8 595.8,316.6 Q595.8,318.5 595.8,320.3 Q595.8,322.1 595.8,323.9 Q595.7,325.7 595.7,327.4 Q595.7,329.2 595.7,330.9 Q595.8,332.6 595.9,334.3 Q596.0,335.9 596.1,337.5 Q596.4,339.1 596.6,340.7 Q597.0,342.2 597.4,343.7 Q597.8,345.2 598.3,346.7 Q598.8,348.1 599.4,349.6 Q600.0,351.0 600.6,352.4 Q601.3,353.8 602.0,355.2 Q602.8,356.6 603.6,358.0 Q604.5,359.4 605.4,360.8 Q606.3,362.2 607.3,363.6 Q608.4,365.0 609.5,366.4 Q610.7,367.7 611.9,369.1 Q613.1,370.5 614.4,371.9 Q615.7,373.4 617.0,374.8 Q618.4,376.3 619.8,377.8 Q621.1,379.3 622.5,380.8 Q623.9,382.4 625.2,384.1 Q626.5,385.7 627.8,387.4 Q629.0,389.1 630.2,390.8 Q631.3,392.6 632.4,394.3 Z" fill="#008d27" fill-opacity="0.035" stroke="none"/>
</g>

<rect width='800' height='800' fill='url(#vig)'/>
</svg>
