<svg xmlns="http://www.w3.org/2000/svg" viewBox="0 0 800 800" width="800" height="800">
<defs>
  <filter id="bloom" x="-50%" y="-50%" width="200%" height="200%">
    <feGaussianBlur in="SourceGraphic" stdDeviation="2" result="b1"/>
    <feGaussianBlur in="SourceGraphic" stdDeviation="6" result="b2"/>
    <feGaussianBlur in="SourceGraphic" stdDeviation="14" result="b3"/>
    <feColorMatrix in="b3" type="matrix" result="bright"
      values="1.5 0 0 0 0.08  0 1.5 0 0 0.08  0 0 1.5 0 0.08  0 0 0 0.45 0"/>
    <feMerge>
      <feMergeNode in="bright"/><feMergeNode in="b2"/>
      <feMergeNode in="b1"/><feMergeNode in="SourceGraphic"/>
    </feMerge>
  </filter>
  <filter id="dof" x="-20%" y="-20%" width="140%" height="140%">
    <feGaussianBlur stdDeviation="3"/>
    <feColorMatrix type="saturate" values="0.5"/>
  </filter>
  <radialGradient id="bg" cx="50%" cy="50%" r="60%">
    <stop offset="0%" stop-color="#040410"/>
    <stop offset="100%" stop-color="#010108"/>
  </radialGradient>
  <radialGradient id="vig" cx="50%" cy="50%" r="55%">
    <stop offset="35%" stop-color="black" stop-opacity="0"/>
    <stop offset="100%" stop-color="black" stop-opacity="0.55"/>
  </radialGradient>
</defs>
<style>
  @keyframes drawRing {
    from { stroke-dashoffset: var(--len); }
    to { stroke-dashoffset: 0; }
  }
  @keyframes flowDraw {
    from { stroke-dashoffset: var(--len); opacity: 0; }
    to { stroke-dashoffset: 0; opacity: var(--op); }
  }
  .ring {
    stroke-dasharray: var(--len);
    stroke-dashoffset: var(--len);
    animation: drawRing var(--dur) cubic-bezier(0.23, 1, 0.32, 1) forwards;
  }
  .bgflow {
    stroke-dasharray: var(--len);
    stroke-dashoffset: var(--len);
    animation: flowDraw var(--dur) cubic-bezier(0.4, 0, 0.2, 1) forwards;
  }
</style>
<rect width="800" height="800" fill="url(#bg)"/>
<g filter="url(#dof)">
<path d="M223.1,746.8 Q220.8,745.8 218.5,744.8 Q216.2,743.9 213.9,742.9 Q211.6,741.9 209.3,741.0 Q207.0,740.0 204.7,739.0 Q202.4,738.0 200.1,737.0 Q197.8,736.0 195.5,735.0 Q193.2,734.0 191.0,733.0 Q188.7,731.9 186.5,730.8 Q184.2,729.6 182.0,728.5 Q179.8,727.3 177.6,726.2 Q175.2,725.3 172.7,725.1 Q174.7,726.7 173.3,724.6 Q174.3,726.9 175.0,724.4 Q172.5,725.1 174.5,726.6 Q173.4,724.3 174.0,726.8 Q176.1,725.4 173.6,724.9 Q174.2,727.3 175.5,725.1 Q173.0,724.9 174.7,726.8 Q173.5,724.6 174.2,727.0 Q175.7,725.0 173.2,724.8 Q174.6,726.9 173.8,724.5 Q173.3,726.9 175.8,726.8 Q173.7,725.4 175.0,727.5 Q174.2,725.1 172.5,727.0 Q175.0,727.2 173.8,725.0 Q173.9,727.5 175.9,725.9 Q173.5,725.1 174.8,727.3 Q174.1,724.9 172.8,727.0 Q175.3,727.1 173.6,725.2 Q174.7,727.5 174.5,725.0 Q172.2,726.0 174.6,726.9 Q174.0,724.4 172.8,726.6 Q175.3,727.0 173.6,725.2 Q174.9,727.3 174.1,725.0 Q172.8,727.1 175.3,727.1 Q173.7,725.2 174.7,727.5 Q174.5,725.0 172.2,725.9 Q174.5,726.8 174.1,724.4 Q172.8,726.5 175.2,727.0 Q173.5,725.2 174.8,727.3" fill="none" stroke="#00062b" stroke-width="0.6" stroke-linecap="round" class="bgflow" style="--len:105;--op:0.08;--dur:4.0s;animation-delay:0.00s"/>
<path d="M151.6,708.5 Q154.0,709.0 156.4,709.7 Q158.7,710.6 160.9,711.8 Q163.1,713.1 165.0,714.6 Q166.9,716.3 168.5,718.2 Q170.1,720.2 171.5,722.2 Q172.8,724.3 174.2,726.4 Q174.7,723.9 172.5,725.1 Q174.5,726.6 173.4,724.3 Q173.9,726.8 176.2,725.8 Q173.8,725.0 174.1,727.5 Q175.8,725.7 173.3,725.0 Q174.8,727.1 173.8,724.8 Q173.6,727.3 175.9,726.4 Q173.7,725.3 174.8,727.6 Q174.5,725.1 172.2,726.0 Q174.5,726.9 174.2,724.4 Q172.6,726.4 175.0,727.0 Q173.5,725.0 174.6,727.3 Q174.6,724.8 172.3,725.8 Q174.6,726.8 173.8,724.4 Q173.3,726.8 175.8,726.7 Q173.7,725.4 175.0,727.5 Q174.2,725.1 172.5,726.9 Q174.9,727.2 173.9,724.9 Q173.6,727.4 175.9,726.4 Q173.7,725.3 174.8,727.5 Q174.4,725.1 172.2,726.4 Q174.6,727.0 174.1,724.6 Q172.8,726.8 175.3,727.0 Q173.6,725.2 174.8,727.4 Q174.2,725.0 172.5,726.8 Q175.0,727.1 173.7,725.0 Q174.1,727.5 175.7,725.5 Q173.2,725.0 174.8,727.0 Q173.7,724.7 173.8,727.2 Q176.0,726.0 173.7,725.1 Q174.6,727.5 174.7,725.0 Q172.3,725.6 174.5,726.7 Q173.8,724.3 173.2,726.7 Q175.7,726.8 173.7,725.4" fill="none" stroke="#00082e" stroke-width="0.6" stroke-linecap="round" class="bgflow" style="--len:99;--op:0.08;--dur:4.0s;animation-delay:0.18s"/>
<path d="M122.1,594.3 Q123.0,596.6 123.7,599.0 Q123.9,601.5 123.2,603.9 Q121.5,605.7 119.2,606.7 Q116.8,607.3 114.3,607.7 Q111.8,607.9 109.3,607.9 Q106.8,607.8 104.3,607.6 Q101.8,607.2 99.4,606.7 Q97.0,606.0 94.6,605.3 Q92.2,604.5 89.9,603.6 Q87.6,602.5 85.4,601.4 Q83.3,600.1 81.2,598.8 Q79.1,597.4 77.0,595.9 Q75.0,594.5 72.9,593.1 Q70.7,591.8 68.5,590.7 Q66.2,589.9 63.7,589.3 Q61.3,588.9 58.8,588.6 Q56.3,588.4 53.8,588.3 Q51.3,588.1 48.8,587.8 Q46.3,587.5 43.9,587.2 Q41.4,586.8 38.9,586.3 Q36.5,585.7 34.1,585.1 Q31.7,584.4 29.3,583.6 Q27.0,582.6 24.8,581.4 Q22.7,580.2 20.6,578.7 Q18.7,577.1 16.8,575.4 Q15.1,573.6 13.4,571.8 Q11.8,569.9 10.3,567.9 Q8.7,565.9 7.2,564.0 Q5.6,562.0 4.0,560.1 Q2.5,558.2 0.8,556.2 Q-0.8,554.4 -2.5,552.5 Q-4.3,550.7 -6.1,549.1" fill="none" stroke="#000a31" stroke-width="0.6" stroke-linecap="round" class="bgflow" style="--len:160;--op:0.08;--dur:4.0s;animation-delay:0.36s"/>
<path d="M448.0,620.3 Q450.3,621.3 452.6,622.2 Q454.9,623.1 457.3,623.9 Q459.7,624.7 462.1,625.5 Q464.4,626.2 466.8,627.0 Q469.2,627.9 471.4,628.9 Q473.6,630.1 475.6,631.6 Q477.4,633.4 479.0,635.3 Q480.4,637.3 481.8,639.4 Q483.0,641.6 484.3,643.8 Q485.5,646.0 486.6,648.2 Q487.7,650.4 488.8,652.7 Q489.9,654.9 490.9,657.2 Q491.9,659.5 492.9,661.8 Q493.9,664.1 494.9,666.4 Q496.0,668.7 497.0,670.9 Q498.1,673.2 499.2,675.4 Q500.4,677.6 501.5,679.9 Q502.7,682.1 503.8,684.3 Q505.0,686.5 506.1,688.8 Q507.1,691.0 508.1,693.3 Q509.0,695.7 509.8,698.0 Q510.6,700.4 511.3,702.8 Q511.8,705.2 512.4,707.7 Q512.8,710.1 513.2,712.6 Q513.5,715.1 513.7,717.6 Q513.9,720.1 514.1,722.6 Q514.2,725.1 514.3,727.6 Q514.3,730.1 514.4,732.6 Q514.4,735.1 514.5,737.6 Q514.5,740.1 514.6,742.6 Q514.7,745.1 514.8,747.6 Q515.0,750.1 515.1,752.6 Q515.2,755.1 515.3,757.6 Q515.4,760.1 515.5,762.6 Q515.6,765.0 515.7,767.5 Q515.9,770.0 516.0,772.5 Q516.2,775.0 516.5,777.5 Q516.8,780.0 517.4,782.4 Q518.2,784.8 519.5,786.9 Q521.4,788.6 523.7,789.6" fill="none" stroke="#000c34" stroke-width="0.6" stroke-linecap="round" class="bgflow" style="--len:200;--op:0.08;--dur:4.0s;animation-delay:0.54s"/>
<path d="M401.3,137.0 Q399.9,134.9 398.7,132.7 Q397.5,130.5 396.4,128.2 Q395.4,126.0 394.5,123.6 Q393.7,121.3 393.0,118.9 Q392.3,116.5 391.8,114.0 Q391.3,111.6 390.8,109.1 Q390.4,106.6 390.0,104.2 Q389.6,101.7 389.2,99.2 Q388.8,96.8 388.3,94.3 Q387.9,91.9 387.4,89.4 Q386.9,87.0 386.3,84.5 Q385.8,82.1 385.3,79.6 Q384.8,77.2 384.5,74.7 Q384.3,72.2 384.3,69.7 Q384.3,67.2 384.5,64.7 Q384.7,62.2 385.0,59.7 Q385.4,57.3 385.7,54.8 Q386.1,52.3 386.6,49.9 Q387.1,47.4 387.6,45.0 Q388.2,42.5 388.9,40.1 Q389.5,37.7 390.3,35.3 Q391.1,33.0 392.0,30.6 Q392.9,28.3 393.8,26.0 Q394.8,23.7 395.9,21.4 Q397.0,19.2 398.1,17.0 Q399.3,14.8 400.5,12.6 Q401.8,10.4 403.1,8.3 Q404.5,6.2 405.8,4.1 Q407.3,2.0 408.7,0.0 Q410.2,-2.0 411.7,-4.0 Q413.2,-6.0 414.8,-8.0" fill="none" stroke="#000f37" stroke-width="0.6" stroke-linecap="round" class="bgflow" style="--len:155;--op:0.08;--dur:4.0s;animation-delay:0.72s"/>
<path d="M323.5,712.9 Q323.4,710.4 323.5,707.9 Q323.6,705.4 323.9,702.9 Q324.2,700.4 324.7,698.0 Q325.4,695.6 326.1,693.2 Q327.0,690.8 327.9,688.5 Q329.0,686.3 330.2,684.1 Q331.6,682.0 333.0,679.9 Q334.5,677.9 336.0,676.0 Q337.7,674.1 339.4,672.3 Q341.2,670.5 342.9,668.7 Q344.7,667.0 346.5,665.2 Q348.3,663.5 350.1,661.7 Q351.9,660.0 353.6,658.2 Q355.3,656.4 357.0,654.6 Q358.7,652.7 360.4,650.9 Q362.1,649.0 363.8,647.2 Q365.5,645.3 367.2,643.5 Q368.9,641.6 370.6,639.8 Q372.3,638.1 374.1,636.3 Q376.0,634.6 377.9,633.0 Q379.8,631.4 381.8,629.9 Q383.9,628.5 386.0,627.2 Q388.2,626.0 390.5,624.9 Q392.8,623.9 395.1,623.0 Q397.5,622.2 399.8,621.5 Q402.2,620.8 404.7,620.2 Q407.1,619.6 409.5,619.1 Q412.0,618.6 414.5,618.3 Q417.0,618.0 419.5,617.8 Q422.0,617.8 424.5,617.9 Q426.9,618.2 429.4,618.6 Q431.8,619.2 434.2,619.9 Q436.6,620.7 438.9,621.7 Q441.2,622.7 443.5,623.7 Q445.7,624.8 448.0,625.8 Q450.2,626.9 452.5,628.0 Q454.7,629.2 456.9,630.4 Q459.0,631.8 461.0,633.2 Q462.9,634.9 464.7,636.6 Q466.3,638.5 467.9,640.5" fill="none" stroke="#001239" stroke-width="0.6" stroke-linecap="round" class="bgflow" style="--len:200;--op:0.08;--dur:4.0s;animation-delay:0.90s"/>
<path d="M74.5,590.8 Q72.2,589.8 69.8,589.1 Q67.4,588.5 64.9,588.2 Q62.4,588.0 59.9,587.9 Q57.4,587.8 54.9,587.8 Q52.4,587.6 49.9,587.5 Q47.4,587.2 45.0,586.9 Q42.5,586.5 40.0,586.1 Q37.6,585.6 35.1,585.0 Q32.7,584.3 30.4,583.5 Q28.1,582.6 25.8,581.5 Q23.6,580.3 21.6,578.9 Q19.6,577.4 17.7,575.7 Q15.9,573.9 14.2,572.1 Q12.6,570.2 11.0,568.3 Q9.5,566.3 7.9,564.4 Q6.3,562.4 4.8,560.5 Q3.2,558.5 1.6,556.6 Q-0.1,554.7 -1.8,552.9 Q-3.5,551.1 -5.3,549.4 Q-7.3,547.8 -9.4,546.5" fill="none" stroke="#00143c" stroke-width="0.6" stroke-linecap="round" class="bgflow" style="--len:100;--op:0.08;--dur:4.0s;animation-delay:1.08s"/>
<path d="M464.3,397.0 Q464.8,394.5 465.3,392.1 Q465.9,389.6 466.5,387.2 Q467.2,384.8 467.9,382.4 Q468.7,380.1 469.6,377.7 Q470.6,375.4 471.7,373.2 Q473.0,371.1 474.6,369.1 Q476.4,367.4 478.5,366.0 Q480.7,364.9 483.1,364.0 Q485.5,363.2 487.9,362.6 Q490.3,362.0 492.7,361.4 Q495.1,360.8 497.6,360.2 Q500.0,359.6 502.4,359.0 Q504.8,358.3 507.3,357.7 Q509.7,357.1 512.1,356.6 Q514.6,356.0 517.0,355.4 Q519.4,354.9 521.9,354.3 Q524.3,353.9 526.8,353.5 Q529.3,353.2 531.8,353.0 Q534.3,352.9 536.8,353.0 Q539.3,353.2 541.7,353.5 Q544.2,354.1 546.6,354.7 Q548.9,355.6 551.2,356.7 Q553.4,357.9 555.5,359.3 Q557.4,360.9 559.2,362.6 Q560.8,364.5 562.3,366.5 Q563.6,368.7 564.8,370.9 Q565.8,373.1 566.7,375.5 Q567.5,377.8 568.1,380.3 Q568.7,382.7 569.1,385.2 Q569.4,387.7 569.6,390.1 Q569.9,392.6 570.1,395.1 Q570.3,397.6 570.5,400.1 Q570.8,402.6 571.1,405.1 Q571.4,407.6 571.7,410.0 Q572.1,412.5 572.4,415.0 Q572.8,417.4 573.3,419.9 Q573.7,422.4 574.2,424.8 Q574.7,427.3 575.2,429.7 Q575.7,432.2 576.3,434.6 Q576.9,437.0 577.5,439.4" fill="none" stroke="#00173e" stroke-width="0.6" stroke-linecap="round" class="bgflow" style="--len:200;--op:0.08;--dur:4.0s;animation-delay:1.26s"/>
<path d="M421.6,566.2 Q424.0,567.0 426.3,568.0 Q428.5,569.2 430.5,570.6 Q432.6,572.1 434.6,573.6 Q436.6,575.1 438.6,576.5 Q440.6,578.0 442.7,579.4 Q444.8,580.8 447.0,582.0 Q449.2,583.2 451.4,584.2 Q453.8,585.1 456.2,585.7 Q458.7,586.0 461.2,585.9 Q463.7,585.4 466.0,584.5 Q468.2,583.3 470.2,581.8 Q472.0,580.1 473.6,578.2 Q475.1,576.2 476.4,574.0 Q477.5,571.8 478.3,569.4 Q478.9,567.0 479.2,564.5 Q479.2,562.0 478.9,559.5 Q478.3,557.1 477.5,554.7 Q476.6,552.4 475.5,550.1 Q474.3,548.0 473.0,545.8 Q471.6,543.7 470.2,541.7 Q468.7,539.7 467.1,537.8 Q465.5,535.8 463.9,533.9 Q462.3,532.0 460.7,530.1 Q459.1,528.2 457.5,526.2 Q456.0,524.3 454.4,522.3 Q453.0,520.3 451.6,518.2 Q450.2,516.1 448.9,514.0 Q447.7,511.8 446.5,509.6 Q445.4,507.3 444.5,505.0 Q443.6,502.7 442.8,500.3 Q442.1,497.9 441.5,495.5 Q441.1,493.0 440.8,490.5 Q440.6,488.0 440.6,485.5 Q440.7,483.0 440.9,480.5 Q441.1,478.0 441.5,475.6 Q441.8,473.1 442.2,470.6 Q442.6,468.2 443.1,465.7 Q443.5,463.2 443.9,460.8 Q444.3,458.3 444.7,455.8 Q445.2,453.4 445.7,450.9" fill="none" stroke="#001a40" stroke-width="0.6" stroke-linecap="round" class="bgflow" style="--len:200;--op:0.08;--dur:4.0s;animation-delay:1.44s"/>
<path d="M364.3,652.0 Q365.9,650.1 367.4,648.1 Q369.0,646.2 370.6,644.2 Q372.2,642.3 373.8,640.4 Q375.5,638.6 377.3,636.8 Q379.1,635.1 380.9,633.4 Q382.9,631.9 384.9,630.4 Q387.0,629.0 389.1,627.7 Q391.3,626.6 393.6,625.5 Q395.9,624.6 398.3,623.7 Q400.7,623.0 403.1,622.3 Q405.5,621.6 407.9,621.1 Q410.4,620.6 412.8,620.1 Q415.3,619.8 417.8,619.5 Q420.3,619.4 422.8,619.4 Q425.3,619.6 427.8,619.9 Q430.2,620.4 432.6,621.0 Q435.0,621.8 437.4,622.6 Q439.7,623.6 442.0,624.6 Q444.2,625.6 446.5,626.7 Q448.7,627.8 451.0,629.0 Q453.1,630.2 455.3,631.5 Q457.3,632.9 459.2,634.5 Q461.0,636.3 462.7,638.1 Q464.2,640.1 465.6,642.2 Q466.9,644.4 468.0,646.6 Q469.1,648.8 470.2,651.1 Q471.2,653.4 472.1,655.7 Q473.0,658.0 473.8,660.4 Q474.7,662.7 475.4,665.1 Q476.2,667.5 476.9,669.9 Q477.6,672.3 478.2,674.7 Q478.8,677.1 479.4,679.6 Q479.9,682.0 480.4,684.5 Q480.8,686.9 481.2,689.4 Q481.5,691.9 481.7,694.4 Q481.8,696.9 481.9,699.4 Q481.9,701.9 481.8,704.4 Q481.6,706.9 481.4,709.4 Q481.0,711.8 480.6,714.3 Q480.1,716.8 479.5,719.2" fill="none" stroke="#001d42" stroke-width="0.6" stroke-linecap="round" class="bgflow" style="--len:200;--op:0.08;--dur:4.0s;animation-delay:1.62s"/>
<path d="M199.9,752.7 Q197.8,751.3 195.8,749.8 Q193.9,748.2 192.1,746.5 Q190.3,744.7 188.6,742.9 Q187.0,741.0 185.5,739.0 Q183.9,737.0 182.4,735.0 Q180.9,733.1 179.3,731.1 Q177.7,729.2 176.0,727.4 Q174.2,725.7 172.6,727.6 Q175.1,727.5 174.1,725.2 Q173.1,727.5 175.5,727.1 Q173.7,725.4 174.9,727.6 Q174.3,725.1 172.2,726.5 Q174.7,727.1 174.1,724.7 Q172.8,726.8 175.3,727.0 Q173.6,725.2 174.8,727.4 Q174.3,724.9 172.4,726.5 Q174.8,727.1 173.8,724.8 Q173.5,727.2 175.9,726.6 Q173.7,725.3 174.9,727.6 Q174.4,725.1 172.2,726.3 Q174.6,727.0 174.1,724.6 Q172.6,726.6 175.1,727.0 Q173.6,725.0 174.6,727.3 Q174.6,724.8 172.3,725.8 Q174.6,726.8 173.9,724.4 Q173.2,726.8 175.7,726.8 Q173.7,725.4 175.0,727.5 Q174.1,725.1 172.8,727.3 Q175.3,727.2 173.7,725.2 Q174.6,727.6 174.8,725.1 Q172.3,725.5 174.5,726.7 Q173.7,724.3 173.4,726.8 Q175.9,726.6 173.7,725.4 Q174.9,727.6 174.4,725.1 Q172.2,726.2 174.6,727.0 Q174.2,724.5 172.5,726.4 Q175.0,727.0 173.6,724.9 Q174.4,727.3 175.1,724.9 Q172.6,725.1 174.6,726.6 Q173.3,724.4 174.1,726.8" fill="none" stroke="#001f43" stroke-width="0.6" stroke-linecap="round" class="bgflow" style="--len:100;--op:0.08;--dur:4.0s;animation-delay:1.80s"/>
<path d="M24.6,236.5 Q22.2,236.0 19.8,235.2 Q17.5,234.3 15.2,233.3 Q13.0,232.2 10.8,231.0 Q8.6,229.7 6.5,228.3 Q4.5,226.9 2.6,225.3 Q0.7,223.6 -1.0,221.8 Q-2.6,219.9 -4.0,217.8 Q-5.3,215.6 -6.3,213.4 Q-7.3,211.1 -8.0,208.7 Q-8.6,206.3 -9.1,203.8 Q-9.4,201.3 -9.7,198.8 Q-9.8,196.3 -9.8,193.8 Q-9.7,191.3 -9.6,188.9 Q-9.3,186.4 -9.0,183.9 Q-8.5,181.4 -8.0,179.0 Q-7.4,176.6 -6.8,174.1 Q-6.0,171.8 -5.2,169.4 Q-4.3,167.0 -3.4,164.7 Q-2.4,162.4 -1.4,160.1 Q-0.3,157.9 0.8,155.7 Q2.0,153.4 3.2,151.3 Q4.4,149.1 5.6,146.9 Q6.8,144.7 8.1,142.5 Q9.3,140.3 10.4,138.1 Q11.6,135.9 12.6,133.6 Q13.6,131.3 14.5,129.0 Q15.4,126.7 16.2,124.3 Q16.9,121.9 17.5,119.5 Q18.0,117.0 18.5,114.6 Q18.9,112.1 19.2,109.6 Q19.4,107.1 19.6,104.6 Q19.7,102.1 19.7,99.6 Q19.6,97.1 19.5,94.6 Q19.2,92.2 18.9,89.7 Q18.4,87.2 17.9,84.8 Q17.2,82.4 16.4,80.0 Q15.5,77.7 14.5,75.4 Q13.4,73.1 12.2,70.9 Q10.9,68.8 9.6,66.7 Q8.1,64.6 6.6,62.6" fill="none" stroke="#002245" stroke-width="0.6" stroke-linecap="round" class="bgflow" style="--len:200;--op:0.08;--dur:4.0s;animation-delay:1.98s"/>
<path d="M290.8,160.8 Q289.6,162.9 288.1,164.9 Q286.3,166.7 284.4,168.3 Q282.3,169.7 280.1,170.9 Q277.9,172.0 275.6,173.0 Q273.3,173.9 270.9,174.8 Q268.6,175.6 266.2,176.4 Q263.8,177.2 261.4,177.9 Q259.1,178.7 256.7,179.5 Q254.3,180.3 251.9,181.1 Q249.6,181.9 247.2,182.8 Q244.9,183.7 242.6,184.7 Q240.3,185.7 238.1,186.8 Q235.9,188.0 233.7,189.3 Q231.6,190.6 229.6,192.1 Q227.6,193.6 225.7,195.2 Q223.8,196.8 221.9,198.5 Q220.0,200.1 218.2,201.8 Q216.3,203.5 214.5,205.1 Q212.6,206.8 210.6,208.3 Q208.7,209.9 206.7,211.4 Q204.7,212.9 202.7,214.4 Q200.6,215.8 198.6,217.3 Q196.6,218.7 194.5,220.2 Q192.5,221.6 190.5,223.1 Q188.5,224.6 186.5,226.2 Q184.8,228.0 183.5,230.1 Q183.3,232.6 184.5,234.8 Q186.4,236.5 188.5,237.8 Q190.7,238.9 193.0,239.9 Q195.3,241.0 197.5,242.1 Q199.7,243.4 201.7,244.8 Q203.7,246.4 205.5,248.1 Q207.2,250.0 208.7,251.9 Q210.2,253.9 211.5,256.0 Q212.7,258.2 213.9,260.5 Q214.9,262.7 215.8,265.1 Q216.6,267.4 217.2,269.9 Q217.7,272.3 218.0,274.8 Q217.9,277.3 217.6,279.8 Q216.8,282.2 215.7,284.4" fill="none" stroke="#002546" stroke-width="0.6" stroke-linecap="round" class="bgflow" style="--len:200;--op:0.08;--dur:4.0s;animation-delay:2.16s"/>
<path d="M263.1,562.0 Q263.5,564.5 264.0,567.0 Q264.6,569.4 265.3,571.8 Q266.2,574.1 267.1,576.4 Q268.2,578.7 269.5,580.9 Q270.8,583.0 272.2,585.0 Q273.8,587.0 275.4,588.9 Q277.2,590.6 279.0,592.3 Q281.0,593.9 283.1,595.3 Q285.3,596.5 287.5,597.5 Q289.9,598.4 292.3,599.1 Q294.7,599.6 297.2,599.9 Q299.7,600.1 302.2,600.1 Q304.7,600.1 307.2,599.9 Q309.7,599.6 312.1,599.2 Q314.6,598.7 317.0,598.1 Q319.4,597.4 321.8,596.7 Q324.2,595.9 326.5,595.0 Q328.8,594.1 331.1,593.1 Q333.4,592.0 335.6,590.9 Q337.8,589.7 340.0,588.5 Q342.2,587.2 344.3,586.0 Q346.5,584.7 348.6,583.3 Q350.7,582.0 352.8,580.7 Q354.9,579.3 357.1,578.0 Q359.2,576.8 361.4,575.5 Q363.6,574.4 365.9,573.3 Q368.2,572.3 370.5,571.5 Q372.9,570.7 375.3,570.0 Q377.7,569.4 380.2,568.8 Q382.6,568.3 385.1,567.9 Q387.5,567.6 390.0,567.2 Q392.5,566.9 395.0,566.7 Q397.5,566.4 400.0,566.2 Q402.5,566.0 405.0,565.8 Q407.5,565.7 409.9,565.5 Q412.4,565.5 414.9,565.5 Q417.4,565.7 419.9,566.0 Q422.4,566.6 424.7,567.4 Q427.0,568.5 429.1,569.8 Q431.2,571.2 433.2,572.7" fill="none" stroke="#002847" stroke-width="0.6" stroke-linecap="round" class="bgflow" style="--len:200;--op:0.08;--dur:4.0s;animation-delay:2.34s"/>
<path d="M212.5,519.9 Q213.2,522.3 214.0,524.7 Q215.0,527.0 216.0,529.3 Q217.0,531.5 218.2,533.8 Q219.4,536.0 220.6,538.1 Q221.8,540.3 223.1,542.4 Q224.4,544.6 225.8,546.7 Q227.1,548.8 228.4,550.9 Q229.8,553.0 231.1,555.1 Q232.4,557.3 233.8,559.4 Q235.1,561.5 236.4,563.7 Q237.7,565.8 239.0,567.9 Q240.3,570.1 241.6,572.2 Q243.0,574.3 244.3,576.4 Q245.7,578.5 247.0,580.6 Q248.4,582.7 249.7,584.8 Q251.0,586.9 252.3,589.1 Q253.5,591.3 254.6,593.5 Q255.7,595.8 256.7,598.0 Q257.7,600.4 258.5,602.7 Q259.4,605.1 260.1,607.4 Q260.8,609.9 261.4,612.3 Q261.9,614.7 262.4,617.2 Q262.8,619.6 263.2,622.1 Q263.6,624.6 264.1,627.0 Q264.7,629.5 265.4,631.9 Q266.4,634.2 267.7,636.3 Q269.4,638.2 271.4,639.7 Q273.6,640.8 275.9,641.6 Q278.4,642.2 280.8,642.7 Q283.3,643.0 285.8,643.3 Q288.3,643.6 290.8,643.8 Q293.2,644.1 295.7,644.3 Q298.2,644.5 300.7,644.6 Q303.2,644.6 305.7,644.7 Q308.2,644.7 310.7,644.7 Q313.2,644.6 315.7,644.6 Q318.2,644.6 320.7,644.6 Q323.2,644.5 325.7,644.4 Q328.2,644.2 330.7,644.0 Q333.2,643.6 335.6,643.1" fill="none" stroke="#002b48" stroke-width="0.6" stroke-linecap="round" class="bgflow" style="--len:200;--op:0.08;--dur:4.0s;animation-delay:2.52s"/>
<path d="M175.2,772.6 Q176.7,770.6 178.0,768.5 Q179.3,766.4 180.3,764.1 Q181.2,761.8 181.9,759.4 Q182.3,756.9 182.6,754.4 Q182.7,751.9 182.7,749.4 Q182.6,746.9 182.3,744.4 Q182.0,742.0 181.5,739.5 Q180.8,737.1 180.0,734.7 Q178.9,732.5 177.7,730.3 Q176.4,728.2 174.8,726.3 Q172.7,724.9 174.5,726.6 Q173.4,724.3 174.0,726.8 Q176.0,725.3 173.6,724.8 Q174.3,727.2 175.4,725.0 Q172.9,724.9 174.7,726.7 Q173.4,724.5 174.2,726.9 Q175.5,724.8 173.0,724.8 Q174.6,726.7 173.7,724.4 Q173.6,726.9 176.1,726.3 Q173.8,725.3 174.5,727.7 Q175.1,725.2 172.6,725.2 Q174.6,726.6 173.3,724.5 Q174.2,726.8 175.6,724.8 Q173.1,724.7 174.5,726.8 Q173.9,724.4 173.1,726.8 Q175.6,726.9 173.6,725.3 Q175.0,727.4 174.1,725.1 Q172.9,727.3 175.4,727.1 Q173.7,725.3 174.8,727.6 Q174.4,725.1 172.2,726.2 Q174.6,727.0 174.1,724.5 Q172.6,726.5 175.1,727.0 Q173.6,725.0 174.6,727.3 Q174.5,724.8 172.3,725.8 Q174.6,726.8 173.9,724.4 Q173.2,726.8 175.7,726.8 Q173.7,725.4 175.0,727.5 Q174.1,725.1 172.7,727.2 Q175.2,727.2 173.7,725.2 Q174.5,727.6 175.0,725.1" fill="none" stroke="#002e49" stroke-width="0.6" stroke-linecap="round" class="bgflow" style="--len:104;--op:0.08;--dur:4.0s;animation-delay:2.70s"/>
<path d="M195.3,326.6 Q195.2,329.1 195.0,331.6 Q194.7,334.1 194.3,336.6 Q193.7,339.0 193.1,341.4 Q192.3,343.8 191.4,346.1 Q190.3,348.4 189.3,350.7 Q188.1,352.9 186.9,355.1 Q185.7,357.3 184.5,359.5 Q183.3,361.6 182.1,363.8 Q180.9,366.0 179.8,368.3 Q178.8,370.6 177.8,372.9 Q177.0,375.2 176.2,377.6 Q175.5,380.0 175.0,382.5 Q174.5,384.9 174.1,387.4 Q173.8,389.9 173.6,392.3 Q173.4,394.8 173.2,397.3 Q173.1,399.8 172.9,402.3 Q172.8,404.8 172.6,407.3 Q172.5,409.8 172.3,412.3 Q172.1,414.8 171.9,417.3 Q171.7,419.8 171.4,422.3 Q171.2,424.8 170.8,427.2 Q170.4,429.7 170.0,432.2 Q169.5,434.6 169.0,437.1 Q168.4,439.5 167.7,441.9 Q167.0,444.3 166.3,446.7 Q165.4,449.0 164.6,451.4 Q163.6,453.7 162.7,456.0 Q161.7,458.3 160.7,460.6 Q159.7,462.9 158.6,465.2 Q157.6,467.4 156.7,469.8 Q155.8,472.1 155.1,474.5 Q154.5,476.9 154.0,479.4 Q153.6,481.8 153.4,484.3 Q153.4,486.8 153.4,489.3 Q153.6,491.8 153.9,494.3 Q154.3,496.8 154.7,499.2 Q155.2,501.7 155.8,504.1 Q156.4,506.5 157.1,508.9 Q157.9,511.3 158.7,513.7 Q159.5,516.0 160.4,518.4" fill="none" stroke="#003149" stroke-width="0.6" stroke-linecap="round" class="bgflow" style="--len:200;--op:0.08;--dur:4.0s;animation-delay:2.88s"/>
<path d="M246.6,74.2 Q249.0,74.8 251.5,75.1 Q254.0,75.1 256.5,74.9 Q259.0,74.5 261.4,73.8 Q263.8,73.0 266.1,72.1 Q268.4,71.1 270.7,70.1 Q272.9,69.0 275.2,67.9 Q277.5,66.9 279.8,66.0 Q282.1,65.0 284.4,64.2 Q286.8,63.3 289.2,62.5 Q291.5,61.8 293.9,61.0 Q296.3,60.2 298.7,59.4 Q301.0,58.5 303.3,57.7 Q305.7,56.7 308.0,55.7 Q310.2,54.7 312.4,53.5 Q314.6,52.2 316.7,50.8 Q318.6,49.3 320.5,47.7 Q322.4,46.0 324.1,44.2 Q325.7,42.3 327.3,40.3 Q328.8,38.3 330.3,36.3 Q331.7,34.3 333.2,32.2 Q334.6,30.2 336.0,28.1 Q337.5,26.1 339.0,24.1 Q340.5,22.1 342.1,20.2 Q343.7,18.3 345.4,16.5 Q347.2,14.7 348.9,12.9 Q350.8,11.2 352.6,9.5 Q354.5,7.9 356.5,6.3 Q358.4,4.8 360.4,3.2 Q362.4,1.7 364.4,0.2 Q366.4,-1.3 368.4,-2.8 Q370.4,-4.2 372.4,-5.7 Q374.5,-7.2 376.5,-8.6" fill="none" stroke="#00354a" stroke-width="0.6" stroke-linecap="round" class="bgflow" style="--len:160;--op:0.08;--dur:4.0s;animation-delay:3.06s"/>
<path d="M94.3,96.6 Q94.4,94.1 94.8,91.6 Q95.3,89.2 96.1,86.8 Q97.0,84.5 98.0,82.2 Q99.0,79.9 100.2,77.7 Q101.4,75.5 102.5,73.3 Q103.6,71.0 104.7,68.8 Q105.7,66.5 106.5,64.1 Q107.2,61.7 107.7,59.2 Q107.9,56.8 108.0,54.3 Q107.9,51.8 107.6,49.3 Q107.1,46.8 106.5,44.4 Q105.8,42.0 104.9,39.7 Q104.0,37.4 102.9,35.1 Q101.7,32.9 100.5,30.7 Q99.2,28.6 97.8,26.5 Q96.4,24.5 94.8,22.5 Q93.2,20.6 91.5,18.8 Q89.6,17.1 87.6,15.6 Q85.5,14.2 83.4,13.0 Q81.1,11.9 78.8,11.1 Q76.4,10.3 74.0,9.6 Q71.5,9.0 69.1,8.4 Q66.7,7.8 64.3,7.1 Q61.9,6.4 59.5,5.6 Q57.2,4.7 54.9,3.7 Q52.6,2.6 50.5,1.4 Q48.4,0.0 46.4,-1.5 Q44.6,-3.3 43.0,-5.1 Q41.5,-7.2 40.3,-9.4" fill="none" stroke="#003849" stroke-width="0.6" stroke-linecap="round" class="bgflow" style="--len:145;--op:0.08;--dur:4.0s;animation-delay:3.24s"/>
<path d="M119.0,616.1 Q116.8,614.9 114.6,613.8 Q112.3,612.8 110.0,611.9 Q107.6,611.2 105.2,610.4 Q102.8,609.7 100.4,608.9 Q98.1,608.1 95.7,607.2 Q93.4,606.3 91.1,605.3 Q88.8,604.2 86.6,603.1 Q84.5,601.8 82.4,600.5 Q80.3,599.1 78.3,597.6 Q76.2,596.2 74.2,594.7 Q72.1,593.3 70.0,592.0 Q67.7,590.9 65.4,590.1 Q63.0,589.5 60.5,589.0 Q58.0,588.8 55.5,588.6 Q53.0,588.4 50.5,588.2 Q48.0,587.9 45.6,587.6 Q43.1,587.2 40.6,586.7 Q38.2,586.3 35.7,585.7 Q33.3,585.1 30.9,584.3 Q28.6,583.4 26.3,582.4 Q24.1,581.2 22.0,579.9 Q20.0,578.4 18.1,576.8 Q16.3,575.1 14.6,573.2 Q12.9,571.4 11.3,569.4 Q9.8,567.5 8.2,565.5 Q6.7,563.5 5.1,561.6 Q3.6,559.6 2.0,557.7 Q0.3,555.8 -1.3,553.9 Q-3.0,552.1 -4.8,550.4 Q-6.7,548.7 -8.7,547.3" fill="none" stroke="#003b49" stroke-width="0.6" stroke-linecap="round" class="bgflow" style="--len:150;--op:0.08;--dur:4.0s;animation-delay:3.42s"/>
<path d="M764.1,564.9 Q763.0,567.2 761.9,569.4 Q760.7,571.6 759.5,573.8 Q758.2,576.0 757.0,578.1 Q755.6,580.2 754.3,582.3 Q752.9,584.4 751.5,586.5 Q750.0,588.5 748.5,590.5 Q747.0,592.5 745.4,594.4 Q743.7,596.3 742.0,598.1 Q740.3,599.9 738.5,601.6 Q736.6,603.3 734.7,604.9 Q732.7,606.3 730.6,607.7 Q728.4,609.0 726.2,610.1 Q723.9,611.1 721.5,611.9 Q719.1,612.6 716.7,613.2 Q714.2,613.6 711.7,613.9 Q709.2,614.1 706.7,614.1 Q704.2,614.1 701.7,614.0 Q699.3,613.7 696.8,613.4 Q694.3,612.9 691.9,612.4 Q689.4,611.9 687.0,611.2 Q684.6,610.5 682.3,609.6 Q680.0,608.7 677.7,607.6 Q675.5,606.4 673.5,604.9 Q671.6,603.3 669.8,601.5 Q668.3,599.6 666.9,597.5 Q665.7,595.3 664.8,593.0 Q663.9,590.6 663.3,588.2 Q662.8,585.8 662.4,583.3 Q662.2,580.8 662.2,578.3 Q662.4,575.8 662.7,573.3 Q663.3,570.9 664.1,568.5 Q665.1,566.2 666.3,564.0 Q667.7,561.9 669.1,559.9 Q670.7,557.9 672.3,556.1 Q674.0,554.2 675.8,552.5 Q677.6,550.7 679.5,549.1 Q681.4,547.5 683.3,545.9 Q685.3,544.4 687.4,542.9 Q689.4,541.5 691.5,540.1 Q693.6,538.8 695.7,537.5" fill="none" stroke="#003e48" stroke-width="0.6" stroke-linecap="round" class="bgflow" style="--len:200;--op:0.08;--dur:4.0s;animation-delay:3.60s"/>
<path d="M153.9,563.5 Q155.5,565.3 157.1,567.2 Q158.7,569.2 160.3,571.1 Q161.8,573.1 163.2,575.2 Q164.6,577.3 165.8,579.5 Q166.9,581.7 167.9,584.0 Q168.7,586.4 169.4,588.7 Q170.0,591.2 170.6,593.6 Q171.0,596.1 171.4,598.5 Q171.7,601.0 171.9,603.5 Q172.1,606.0 172.3,608.5 Q172.4,611.0 172.4,613.5 Q172.3,616.0 172.3,618.5 Q172.2,621.0 172.0,623.5 Q171.8,626.0 171.7,628.5 Q171.5,631.0 171.3,633.5 Q171.2,636.0 171.0,638.5 Q170.9,641.0 170.8,643.5 Q170.7,646.0 170.7,648.5 Q170.7,651.0 170.9,653.5 Q171.1,655.9 171.5,658.4 Q172.0,660.9 172.5,663.3 Q173.1,665.7 173.9,668.1 Q174.6,670.5 175.5,672.9 Q176.4,675.2 177.3,677.5 Q178.3,679.8 179.3,682.1 Q180.4,684.3 181.6,686.5 Q182.8,688.7 184.0,690.9 Q185.2,693.1 186.5,695.3 Q187.7,697.4 188.8,699.7 Q189.5,702.1 189.7,704.6 Q188.8,706.9 187.0,708.6 Q184.8,709.8 182.4,710.7 Q180.1,711.6 177.8,712.6 Q175.7,713.9 173.8,715.5 Q172.5,717.7 172.1,720.1 Q172.4,722.6 173.3,725.0 Q174.8,727.0 173.8,724.7 Q173.6,727.2 176.0,726.3 Q173.7,725.3 174.7,727.6 Q174.6,725.1 172.2,725.7" fill="none" stroke="#004149" stroke-width="0.6" stroke-linecap="round" class="bgflow" style="--len:188;--op:0.08;--dur:4.0s;animation-delay:3.78s"/>
<path d="M444.2,309.0 Q446.4,307.7 448.5,306.4 Q450.6,305.1 452.7,303.6 Q454.7,302.1 456.6,300.5 Q458.4,298.8 460.2,297.0 Q461.9,295.2 463.5,293.3 Q465.0,291.3 466.5,289.3 Q467.9,287.2 469.3,285.2 Q470.7,283.1 472.2,281.1 Q473.7,279.0 475.2,277.1 Q476.8,275.2 478.7,273.5 Q481.2,273.0 482.4,275.2 Q484.9,275.2 487.2,276.2 Q489.6,276.9 492.0,277.4 Q494.5,277.9 497.0,278.1 Q499.5,278.2 502.0,278.1 Q504.5,277.9 507.0,277.5 Q509.4,277.1 511.8,276.5 Q514.3,275.9 516.7,275.2 Q519.0,274.4 521.4,273.6 Q523.7,272.7 526.1,271.8 Q528.5,271.0 530.9,270.9 Q532.9,272.4 534.9,273.9 Q536.9,275.4 538.9,277.0 Q540.8,278.6 542.7,280.2 Q544.7,281.8 546.6,283.4 Q548.5,285.0 550.4,286.6 Q552.3,288.2 554.2,289.8 Q556.2,291.4 558.1,293.0 Q560.0,294.6 561.9,296.3 Q563.8,297.9 565.6,299.6 Q567.5,301.3 569.3,303.0 Q571.1,304.7 572.9,306.4 Q574.6,308.2 576.4,310.0 Q578.1,311.8 579.9,313.6 Q581.6,315.4 583.4,317.2 Q585.2,318.9 586.9,320.7 Q588.8,322.4 590.6,324.1 Q592.4,325.8 594.3,327.5 Q596.1,329.2 597.9,330.9 Q599.6,332.7 601.3,334.6" fill="none" stroke="#00454a" stroke-width="0.6" stroke-linecap="round" class="bgflow" style="--len:199;--op:0.08;--dur:4.0s;animation-delay:3.96s"/>
<path d="M97.9,280.5 Q95.4,280.8 93.0,281.1 Q90.5,281.4 88.0,281.7 Q85.5,282.1 83.0,282.4 Q80.6,282.8 78.1,283.1 Q75.6,283.4 73.1,283.6 Q70.6,283.7 68.1,283.7 Q65.6,283.6 63.1,283.4 Q60.6,283.2 58.2,282.9 Q55.7,282.6 53.2,282.4 Q50.7,282.2 48.2,282.0 Q45.7,281.9 43.2,281.8 Q40.7,281.7 38.2,281.6 Q35.7,281.5 33.2,281.3 Q30.7,281.2 28.2,281.1 Q25.7,280.9 23.2,280.8 Q20.7,280.5 18.3,280.3 Q15.8,279.9 13.3,279.4 Q10.9,278.7 8.6,277.7 Q6.6,276.3 4.9,274.4 Q3.7,272.2 2.8,269.9 Q2.0,267.5 1.3,265.1 Q0.5,262.7 -0.3,260.4 Q-1.1,258.0 -2.0,255.7 Q-2.8,253.3 -3.7,251.0 Q-4.6,248.6 -5.5,246.3 Q-6.4,243.9 -7.3,241.6 Q-8.2,239.3 -9.2,237.0" fill="none" stroke="#00484b" stroke-width="0.6" stroke-linecap="round" class="bgflow" style="--len:135;--op:0.08;--dur:4.0s;animation-delay:4.14s"/>
<path d="M169.9,735.5 Q172.1,734.3 174.1,732.8 Q175.5,730.7 175.8,728.2 Q174.6,726.0 172.2,725.1 Q174.3,726.5 174.2,724.0 Q172.5,725.8 174.8,726.8 Q173.4,724.7 174.4,727.1 Q174.9,724.6 172.5,725.2 Q174.5,726.6 173.4,724.4 Q173.9,726.8 176.1,725.6 Q173.7,724.9 174.2,727.4 Q175.6,725.3 173.1,725.0 Q174.7,726.8 173.5,724.6 Q174.1,727.1 175.7,725.2 Q173.3,724.9 174.6,726.9 Q174.0,724.5 173.0,726.8 Q175.5,726.9 173.6,725.3 Q175.0,727.4 174.1,725.1 Q172.9,727.3 175.4,727.1 Q173.7,725.3 174.8,727.5 Q174.4,725.1 172.2,726.3 Q174.6,727.0 174.1,724.5 Q172.7,726.6 175.2,727.0 Q173.6,725.1 174.7,727.3 Q174.4,724.8 172.3,726.2 Q174.7,726.9 173.9,724.6 Q173.3,727.0 175.8,726.8 Q173.7,725.4 175.0,727.5 Q174.2,725.1 172.5,727.0 Q175.0,727.2 173.8,725.0 Q173.8,727.5 175.9,726.1 Q173.6,725.2 174.8,727.4 Q174.3,724.9 172.4,726.6 Q174.9,727.1 173.8,724.8 Q173.7,727.3 176.0,726.3 Q173.7,725.2 174.7,727.5 Q174.5,725.0 172.2,726.0 Q174.5,726.9 174.1,724.4 Q172.7,726.5 175.2,727.0 Q173.5,725.1 174.8,727.3 Q174.2,724.9 172.5,726.6" fill="none" stroke="#004c4b" stroke-width="0.6" stroke-linecap="round" class="bgflow" style="--len:91;--op:0.08;--dur:4.0s;animation-delay:4.32s"/>
<path d="M459.1,109.3 Q456.6,109.8 454.1,110.1 Q451.6,110.1 449.1,109.9 Q446.7,109.5 444.3,108.7 Q442.1,107.5 440.1,106.0 Q438.5,104.1 437.3,101.9 Q436.4,99.5 435.9,97.1 Q435.7,94.6 435.6,92.1 Q435.7,89.6 436.0,87.1 Q436.4,84.7 437.0,82.2 Q437.6,79.8 438.2,77.4 Q438.9,75.0 439.7,72.6 Q440.4,70.2 441.1,67.8 Q441.8,65.4 442.5,63.0 Q443.2,60.6 444.0,58.2 Q444.7,55.8 445.6,53.5 Q446.5,51.2 447.5,48.9 Q448.6,46.6 449.8,44.4 Q451.1,42.3 452.5,40.2 Q453.9,38.2 455.4,36.2 Q457.1,34.3 458.8,32.5 Q460.5,30.7 462.4,29.0 Q464.3,27.4 466.4,26.0 Q468.5,24.6 470.6,23.4 Q472.9,22.3 475.2,21.4 Q477.6,20.7 480.1,20.2 Q482.6,19.9 485.1,19.7 Q487.6,19.7 490.0,19.9 Q492.5,20.2 495.0,20.7 Q497.4,21.4 499.8,22.2 Q502.0,23.2 504.2,24.4 Q506.3,25.8 508.1,27.5 Q509.8,29.4 511.3,31.3 Q512.7,33.4 513.9,35.6 Q515.0,37.9 516.1,40.1 Q517.0,42.4 517.9,44.8 Q518.8,47.1 519.6,49.5 Q520.3,51.9 521.0,54.3 Q521.6,56.7 522.1,59.2 Q522.5,61.6 522.7,64.1 Q522.8,66.6 522.7,69.1" fill="none" stroke="#004f4c" stroke-width="0.6" stroke-linecap="round" class="bgflow" style="--len:200;--op:0.08;--dur:4.0s;animation-delay:4.50s"/>
<path d="M734.7,326.2 Q732.4,327.2 730.2,328.3 Q728.0,329.5 725.9,330.8 Q723.8,332.2 721.7,333.7 Q719.8,335.2 717.9,336.9 Q716.2,338.6 714.5,340.5 Q712.9,342.4 711.4,344.4 Q710.0,346.5 708.6,348.6 Q707.4,350.8 706.2,353.0 Q705.1,355.2 704.0,357.5 Q703.0,359.7 702.0,362.0 Q701.0,364.4 700.2,366.7 Q699.8,369.2 701.8,370.7 Q704.3,370.9 706.8,371.1 Q709.3,371.4 711.8,371.6 Q714.2,371.8 716.7,372.0 Q719.2,372.2 721.7,372.3 Q724.2,372.4 726.7,372.4 Q729.2,372.3 731.7,372.1 Q734.2,371.9 736.7,371.6 Q739.2,371.2 741.6,370.7 Q744.0,370.1 746.5,369.4 Q748.9,368.7 751.2,368.0 Q753.6,367.2 756.0,366.4 Q758.3,365.5 760.7,364.7 Q763.0,363.8 765.3,362.9 Q767.7,362.0 770.0,361.2 Q772.4,360.4 774.8,359.7 Q777.2,359.0 779.6,358.3 Q782.1,357.7 784.5,357.2 Q786.9,356.6 789.4,356.0 Q791.8,355.5 794.2,354.8 Q796.6,354.1 799.0,353.4 Q801.4,352.5 803.7,351.6 Q806.0,350.6 808.2,349.5" fill="none" stroke="#00534c" stroke-width="0.6" stroke-linecap="round" class="bgflow" style="--len:169;--op:0.08;--dur:4.0s;animation-delay:4.68s"/>
<path d="M108.8,105.9 Q107.6,103.8 106.5,101.5 Q105.7,99.2 105.0,96.7 Q104.6,94.3 104.5,91.8 Q104.6,89.3 104.9,86.8 Q105.5,84.4 106.2,82.0 Q107.1,79.6 108.1,77.3 Q109.1,75.1 110.2,72.8 Q111.2,70.5 112.1,68.2 Q112.9,65.8 113.6,63.4 Q114.1,61.0 114.4,58.5 Q114.6,56.0 114.6,53.5 Q114.4,51.0 114.1,48.5 Q113.6,46.1 113.0,43.6 Q112.2,41.2 111.4,38.9 Q110.4,36.6 109.4,34.3 Q108.3,32.0 107.2,29.8 Q106.0,27.6 104.8,25.4 Q103.5,23.3 102.2,21.1 Q100.8,19.1 99.4,17.0 Q97.8,15.1 96.1,13.3 Q94.2,11.6 92.2,10.2 Q90.0,9.0 87.7,8.0 Q85.3,7.3 82.8,6.8 Q80.3,6.4 77.9,6.1 Q75.4,5.8 72.9,5.5 Q70.4,5.2 67.9,4.9 Q65.5,4.4 63.0,3.9 Q60.6,3.3 58.2,2.5 Q55.9,1.7 53.6,0.6 Q51.4,-0.6 49.3,-2.0 Q47.4,-3.5 45.6,-5.3 Q44.0,-7.2 42.6,-9.2" fill="none" stroke="#00564c" stroke-width="0.6" stroke-linecap="round" class="bgflow" style="--len:160;--op:0.08;--dur:4.0s;animation-delay:4.86s"/>
<path d="M229.8,340.8 Q228.3,342.9 227.0,345.0 Q225.8,347.2 224.7,349.4 Q223.7,351.7 222.9,354.1 Q222.0,356.4 221.3,358.8 Q220.6,361.2 219.9,363.6 Q219.2,366.0 218.5,368.4 Q217.7,370.8 217.0,373.2 Q216.2,375.5 215.4,377.9 Q214.5,380.2 213.5,382.6 Q212.6,384.9 211.6,387.2 Q210.5,389.4 209.5,391.7 Q208.4,394.0 207.3,396.2 Q206.2,398.5 205.1,400.7 Q203.9,402.9 202.7,405.1 Q201.5,407.3 200.2,409.4 Q199.0,411.6 197.6,413.7 Q196.2,415.8 194.8,417.8 Q193.4,419.9 191.9,421.9 Q190.4,423.9 189.0,425.9 Q187.5,428.0 186.1,430.0 Q184.7,432.1 183.3,434.2 Q181.9,436.2 180.5,438.3 Q179.2,440.4 177.9,442.6 Q176.5,444.7 175.2,446.8 Q173.9,448.9 172.6,451.0 Q171.2,453.2 169.9,455.3 Q168.6,457.4 167.2,459.5 Q165.9,461.6 164.5,463.7 Q163.2,465.8 161.9,468.0 Q160.7,470.1 159.5,472.4 Q158.5,474.6 157.6,477.0 Q156.9,479.4 156.4,481.8 Q156.0,484.3 155.9,486.8 Q155.9,489.3 156.0,491.8 Q156.2,494.3 156.6,496.7 Q157.0,499.2 157.6,501.7 Q158.1,504.1 158.8,506.5 Q159.5,508.9 160.3,511.3 Q161.1,513.6 162.0,516.0 Q162.9,518.3 163.8,520.6" fill="none" stroke="#005a4c" stroke-width="0.6" stroke-linecap="round" class="bgflow" style="--len:200;--op:0.08;--dur:4.0s;animation-delay:5.04s"/>
<path d="M309.6,113.9 Q311.7,115.3 313.7,116.9 Q315.6,118.5 317.5,120.1 Q319.4,121.8 321.2,123.4 Q323.0,125.1 324.9,126.8 Q326.7,128.5 328.5,130.3 Q330.2,132.1 331.9,133.9 Q333.3,136.0 334.5,138.2 Q335.0,140.6 334.9,143.1 Q334.2,145.5 333.1,147.8 Q331.8,149.9 330.3,151.9 Q328.7,153.8 327.0,155.7 Q325.3,157.5 323.5,159.3 Q321.7,160.9 319.8,162.6 Q317.8,164.1 315.8,165.6 Q313.7,167.0 311.6,168.4 Q309.5,169.7 307.3,170.9 Q305.1,172.0 302.8,173.1 Q300.5,174.0 298.2,174.9 Q295.8,175.7 293.4,176.5 Q291.0,177.2 288.6,177.8 Q286.2,178.4 283.7,179.0 Q281.3,179.6 278.9,180.2 Q276.5,180.8 274.0,181.4 Q271.6,182.0 269.2,182.7 Q266.8,183.3 264.4,184.0 Q262.0,184.6 259.6,185.3 Q257.2,186.0 254.8,186.8 Q252.4,187.6 250.0,188.4 Q247.7,189.3 245.4,190.2 Q243.1,191.1 240.8,192.2 Q238.5,193.2 236.3,194.4 Q234.1,195.6 232.0,196.9 Q229.8,198.2 227.8,199.6 Q225.7,201.0 223.7,202.5 Q221.7,204.0 219.7,205.4 Q217.6,206.9 215.6,208.4 Q213.6,209.8 211.5,211.2 Q209.4,212.6 207.3,214.0 Q205.2,215.3 203.1,216.7 Q201.0,218.0 198.9,219.4" fill="none" stroke="#005d4b" stroke-width="0.6" stroke-linecap="round" class="bgflow" style="--len:200;--op:0.08;--dur:4.0s;animation-delay:5.22s"/>
<path d="M217.1,158.9 Q215.7,161.0 214.4,163.1 Q213.1,165.3 212.0,167.5 Q210.9,169.8 209.9,172.0 Q208.9,174.4 208.0,176.7 Q207.1,179.0 206.2,181.4 Q205.3,183.7 204.3,186.0 Q203.2,188.2 202.1,190.4 Q200.8,192.6 199.5,194.7 Q198.1,196.8 196.6,198.8 Q195.1,200.8 193.5,202.8 Q191.9,204.7 190.3,206.5 Q188.6,208.4 186.8,210.2 Q185.0,211.9 183.1,213.5 Q181.1,215.0 179.0,216.4 Q176.8,217.6 174.6,218.6 Q172.2,219.5 169.8,220.2 Q167.4,220.6 164.9,220.9 Q162.4,221.0 159.9,220.9 Q157.4,220.7 154.9,220.4 Q152.4,219.9 150.0,219.4 Q147.6,218.9 145.1,218.3 Q142.7,217.7 140.3,217.2 Q137.8,216.6 135.4,216.0 Q133.0,215.4 130.6,214.7 Q128.2,214.0 125.8,213.3 Q123.4,212.6 121.0,211.8 Q118.6,211.0 116.3,210.2 Q113.9,209.4 111.5,208.6 Q109.1,207.9 106.7,207.2 Q104.3,206.7 101.8,206.3 Q99.3,206.1 96.8,206.2 Q94.3,206.5 91.9,207.2 Q89.7,208.3 87.6,209.7 Q85.8,211.4 84.2,213.3 Q82.8,215.4 81.6,217.6 Q80.6,219.9 79.7,222.2 Q78.8,224.6 78.0,226.9 Q77.2,229.3 76.3,231.6 Q75.3,233.9 74.3,236.2 Q73.2,238.4 72.0,240.6" fill="none" stroke="#00604b" stroke-width="0.6" stroke-linecap="round" class="bgflow" style="--len:200;--op:0.08;--dur:4.0s;animation-delay:5.40s"/>
<path d="M737.4,465.1 Q739.8,464.3 742.2,463.5 Q744.6,462.7 746.9,461.9 Q749.3,461.1 751.6,460.2 Q753.9,459.3 756.3,458.4 Q758.6,457.4 760.9,456.4 Q763.1,455.4 765.4,454.3 Q767.7,453.3 770.0,452.3 Q772.3,451.3 774.6,450.3 Q776.9,449.4 779.2,448.5 Q781.6,447.7 784.0,447.0 Q786.4,446.3 788.8,445.7 Q791.3,445.2 793.7,444.7 Q796.2,444.3 798.7,443.9 Q801.1,443.5 803.6,443.2 Q806.1,442.9 808.6,442.6" fill="none" stroke="#00644a" stroke-width="0.6" stroke-linecap="round" class="bgflow" style="--len:75;--op:0.08;--dur:4.0s;animation-delay:5.58s"/>
<path d="M130.2,240.3 Q128.6,242.3 127.3,244.4 Q126.2,246.7 125.2,248.9 Q124.2,251.2 123.1,253.5 Q121.9,255.7 120.6,257.8 Q119.1,259.8 117.5,261.7 Q115.8,263.5 113.8,265.1 Q111.8,266.5 109.6,267.8 Q107.4,268.9 105.1,269.9 Q102.8,270.8 100.4,271.6 Q98.0,272.3 95.6,273.0 Q93.2,273.6 90.7,274.1 Q88.3,274.7 85.8,275.3 Q83.4,275.8 81.0,276.4 Q78.5,277.0 76.1,277.5 Q73.7,278.1 71.2,278.6 Q68.8,279.1 66.3,279.5 Q63.8,279.8 61.3,280.0 Q58.8,280.1 56.3,280.2 Q53.8,280.3 51.3,280.3 Q48.8,280.3 46.3,280.4 Q43.8,280.4 41.3,280.4 Q38.8,280.3 36.3,280.3 Q33.8,280.2 31.3,280.1 Q28.8,280.0 26.3,279.9 Q23.9,279.7 21.4,279.4 Q18.9,279.1 16.4,278.7 Q14.0,278.2 11.6,277.5 Q9.3,276.5 7.2,275.1 Q5.5,273.3 4.1,271.2 Q3.1,268.9 2.1,266.6 Q1.3,264.3 0.5,261.9 Q-0.4,259.6 -1.2,257.2 Q-2.1,254.9 -3.0,252.5 Q-3.9,250.2 -4.8,247.9 Q-5.7,245.5 -6.6,243.2 Q-7.5,240.9 -8.5,238.6" fill="none" stroke="#006749" stroke-width="0.6" stroke-linecap="round" class="bgflow" style="--len:180;--op:0.08;--dur:4.0s;animation-delay:5.76s"/>
<path d="M543.7,480.1 Q541.8,481.7 539.8,483.2 Q537.7,484.6 535.6,486.0 Q533.4,487.2 531.2,488.3 Q528.9,489.3 526.6,490.2 Q524.2,491.0 521.8,491.6 Q519.3,492.0 516.8,492.2 Q514.3,492.3 511.8,492.2 Q509.3,492.0 506.8,491.7 Q504.4,491.2 501.9,490.7 Q499.5,490.1 497.1,489.4 Q494.8,488.5 492.4,487.6 Q490.2,486.5 488.0,485.3 Q485.9,483.9 484.0,482.3 Q482.2,480.6 480.6,478.6 Q479.2,476.6 477.9,474.4 Q476.9,472.2 475.9,469.8 Q475.1,467.5 474.5,465.1 Q473.8,462.6 473.3,460.2 Q472.9,457.7 472.5,455.3 Q472.2,452.8 471.9,450.3 Q471.7,447.8 471.6,445.3 Q471.4,442.8 471.3,440.3 Q471.2,437.8 471.0,435.3 Q470.8,432.8 470.5,430.4 Q470.1,427.9 469.6,425.4 Q469.1,423.0 468.6,420.5 Q468.0,418.1 467.5,415.7 Q467.0,413.2 466.5,410.8 Q466.2,408.3 466.1,405.8 Q466.0,403.3 466.1,400.8 Q466.3,398.3 466.6,395.8 Q467.0,393.3 467.5,390.9 Q468.0,388.4 468.6,386.0 Q469.3,383.6 470.0,381.2 Q470.8,378.8 471.7,376.5 Q472.8,374.2 474.0,372.1 Q475.6,370.1 477.3,368.4 Q479.4,366.9 481.6,365.7 Q483.9,364.8 486.2,364.0 Q488.6,363.2 491.1,362.6" fill="none" stroke="#006b48" stroke-width="0.6" stroke-linecap="round" class="bgflow" style="--len:200;--op:0.08;--dur:4.0s;animation-delay:5.94s"/>
<path d="M110.3,144.8 Q108.1,143.7 105.9,142.5 Q103.7,141.3 101.6,139.9 Q99.5,138.5 97.5,137.0 Q95.6,135.5 93.7,133.8 Q91.9,132.1 90.2,130.3 Q88.5,128.4 87.0,126.5 Q85.5,124.4 84.2,122.3 Q83.0,120.1 81.9,117.9 Q81.0,115.5 80.3,113.1 Q79.8,110.7 79.5,108.2 Q79.4,105.7 79.4,103.2 Q79.6,100.7 79.9,98.2 Q80.3,95.8 80.8,93.3 Q81.5,90.9 82.3,88.5 Q83.2,86.2 84.2,83.9 Q85.3,81.6 86.4,79.4 Q87.5,77.2 88.6,74.9 Q89.7,72.7 90.7,70.4 Q91.6,68.1 92.5,65.7 Q93.2,63.3 93.7,60.9 Q94.0,58.4 94.2,55.9 Q94.1,53.4 93.9,50.9 Q93.6,48.4 93.0,46.0 Q92.4,43.6 91.6,41.2 Q90.7,38.9 89.7,36.6 Q88.5,34.4 87.3,32.2 Q85.9,30.1 84.5,28.1 Q82.9,26.1 81.3,24.2 Q79.5,22.5 77.6,20.8 Q75.6,19.3 73.6,17.9 Q71.4,16.6 69.2,15.4 Q67.0,14.3 64.7,13.2 Q62.4,12.2 60.2,11.2 Q57.9,10.2 55.6,9.1 Q53.4,7.9 51.2,6.7 Q49.1,5.4 47.0,4.1 Q45.0,2.6 43.1,0.9 Q41.4,-0.9 39.8,-2.8 Q38.4,-4.9 37.2,-7.1" fill="none" stroke="#006e46" stroke-width="0.6" stroke-linecap="round" class="bgflow" style="--len:195;--op:0.08;--dur:4.0s;animation-delay:6.12s"/>
<path d="M499.3,58.0 Q499.7,60.4 500.0,62.9 Q500.1,65.4 499.9,67.9 Q499.6,70.4 499.1,72.8 Q498.4,75.2 497.6,77.6 Q496.7,79.9 495.6,82.2 Q494.5,84.4 493.3,86.6 Q492.0,88.8 490.6,90.9 Q489.2,92.9 487.7,94.9 Q486.1,96.8 484.4,98.7 Q482.6,100.4 480.7,102.1 Q478.8,103.6 476.7,105.0 Q474.6,106.4 472.4,107.6 Q470.2,108.7 467.9,109.6 Q465.5,110.5 463.1,111.2 Q460.7,111.8 458.2,112.2 Q455.7,112.5 453.2,112.5 Q450.8,112.4 448.3,112.0 Q445.9,111.3 443.6,110.4 Q441.4,109.1 439.5,107.4 Q438.0,105.5 436.8,103.3 Q436.0,100.9 435.4,98.5 Q435.1,96.0 435.1,93.5 Q435.2,91.0 435.4,88.5 Q435.8,86.0 436.3,83.6 Q436.9,81.1 437.5,78.7 Q438.1,76.3 438.8,73.9 Q439.5,71.5 440.1,69.1 Q440.7,66.6 441.3,64.2 Q441.9,61.8 442.4,59.3 Q443.0,56.9 443.6,54.5 Q444.4,52.1 445.1,49.7 Q446.0,47.4 447.0,45.1 Q448.0,42.8 449.1,40.5 Q450.3,38.3 451.6,36.2 Q452.9,34.1 454.4,32.1 Q455.9,30.1 457.5,28.1 Q459.1,26.3 460.9,24.5 Q462.7,22.8 464.6,21.1 Q466.5,19.6 468.6,18.1 Q470.7,16.8 472.9,15.6" fill="none" stroke="#007144" stroke-width="0.6" stroke-linecap="round" class="bgflow" style="--len:200;--op:0.08;--dur:4.0s;animation-delay:6.30s"/>
<path d="M587.7,597.9 Q587.0,595.5 586.2,593.1 Q585.5,590.7 584.8,588.3 Q584.1,585.9 583.4,583.5 Q582.7,581.2 581.9,578.8 Q581.0,576.5 580.0,574.1 Q579.0,571.9 577.9,569.6 Q576.6,567.5 575.3,565.3 Q573.9,563.3 572.4,561.3 Q570.7,559.4 568.9,557.7 Q567.0,556.1 564.9,554.7 Q562.8,553.4 560.5,552.4 Q558.1,551.5 555.7,550.8 Q553.3,550.3 550.8,549.8 Q548.4,549.5 545.9,549.1 Q543.4,548.9 540.9,548.7 Q538.4,548.6 535.9,548.5 Q533.4,548.5 530.9,548.6 Q528.4,548.6 525.9,548.7 Q523.4,548.8 520.9,548.9 Q518.4,549.0 515.9,549.1 Q513.4,549.1 510.9,549.0 Q508.4,548.9 505.9,548.7 Q503.5,548.4 501.0,548.1 Q498.5,547.6 496.1,547.1 Q493.7,546.5 491.3,545.7 Q488.9,544.8 486.6,543.8 Q484.4,542.7 482.2,541.4 Q480.1,540.1 478.1,538.6 Q476.1,537.1 474.2,535.5 Q472.3,533.9 470.5,532.2 Q468.7,530.4 466.9,528.7 Q465.2,526.8 463.5,525.0 Q461.9,523.1 460.3,521.2 Q458.8,519.2 457.3,517.2 Q455.9,515.1 454.5,513.0 Q453.3,510.9 452.1,508.7 Q451.0,506.4 450.0,504.1 Q449.1,501.8 448.3,499.4 Q447.6,497.0 447.0,494.6 Q446.5,492.1 446.2,489.7" fill="none" stroke="#007542" stroke-width="0.6" stroke-linecap="round" class="bgflow" style="--len:200;--op:0.08;--dur:4.0s;animation-delay:6.48s"/>
<path d="M176.4,668.2 Q177.2,670.5 178.0,672.9 Q178.9,675.2 179.9,677.5 Q180.9,679.8 182.0,682.1 Q183.1,684.3 184.3,686.5 Q185.6,688.7 186.9,690.8 Q188.2,692.9 189.5,695.0 Q190.9,697.1 192.1,699.3 Q193.1,701.6 193.7,704.0 Q193.6,706.5 192.3,708.7 Q190.2,710.1 187.9,711.0 Q185.5,711.7 183.1,712.2 Q180.6,712.8 178.3,713.6 Q176.0,714.7 174.0,716.2 Q172.6,718.2 172.2,720.7 Q172.6,723.2 173.5,725.5 Q175.3,727.2 173.8,725.3 Q174.5,727.7 175.0,725.2 Q172.5,725.2 174.6,726.6 Q173.4,724.4 174.1,726.8 Q175.8,725.0 173.3,724.8 Q174.5,727.0 174.5,724.5 Q172.4,725.8 174.7,726.8 Q173.6,724.5 173.8,727.0 Q176.1,726.0 173.7,725.2 Q174.5,727.5 175.1,725.1 Q172.6,725.2 174.6,726.6 Q173.3,724.5 174.2,726.8 Q175.5,724.7 173.0,724.7 Q174.6,726.7 173.7,724.4 Q173.5,726.9 176.0,726.5 Q173.8,725.3 174.7,727.6 Q174.7,725.1 172.2,725.7 Q174.5,726.7 174.0,724.3 Q172.8,726.5 175.3,727.0 Q173.5,725.2 174.9,727.3 Q174.1,724.9 172.9,727.1 Q175.4,727.1 173.7,725.3 Q174.9,727.5 174.3,725.0 Q172.3,726.6 174.8,727.1 Q173.9,724.7 173.2,727.1" fill="none" stroke="#007840" stroke-width="0.6" stroke-linecap="round" class="bgflow" style="--len:115;--op:0.08;--dur:4.0s;animation-delay:6.66s"/>
<path d="M141.1,108.3 Q138.9,107.2 136.7,106.0 Q134.5,104.7 132.5,103.3 Q130.5,101.8 128.6,100.2 Q126.7,98.5 125.0,96.7 Q123.4,94.8 122.0,92.7 Q120.8,90.5 119.8,88.2 Q119.1,85.8 118.7,83.4 Q118.5,80.9 118.6,78.4 Q118.8,75.9 119.2,73.4 Q119.6,71.0 120.0,68.5 Q120.4,66.0 120.7,63.5 Q121.0,61.1 121.2,58.6 Q121.2,56.1 121.2,53.6 Q121.0,51.1 120.7,48.6 Q120.3,46.1 119.8,43.7 Q119.2,41.2 118.5,38.8 Q117.8,36.5 117.0,34.1 Q116.1,31.7 115.3,29.4 Q114.5,27.0 113.7,24.6 Q113.0,22.3 112.3,19.9 Q111.6,17.4 111.1,15.0 Q110.7,12.5 110.4,10.0 Q110.4,7.5 110.9,5.1 Q112.0,2.8 113.9,1.2 Q116.3,0.4 118.7,-0.1 Q121.2,-0.3 123.7,-0.4 Q126.2,-0.3 128.7,-0.1 Q131.2,0.1 133.6,0.6 Q136.1,1.1 138.5,1.7 Q140.9,2.5 143.2,3.4 Q145.5,4.4 147.7,5.6 Q149.9,6.8 152.0,8.2 Q154.0,9.7 155.9,11.3 Q157.7,13.0 159.4,14.8 Q161.0,16.7 162.6,18.7 Q164.0,20.7 165.5,22.8 Q166.9,24.8 168.3,26.9 Q169.8,28.9 171.2,30.9 Q172.7,32.9 174.3,34.9 Q175.8,36.9 177.4,38.8" fill="none" stroke="#007b3d" stroke-width="0.6" stroke-linecap="round" class="bgflow" style="--len:200;--op:0.08;--dur:4.0s;animation-delay:6.84s"/>
<path d="M311.0,79.0 Q312.7,77.3 314.5,75.5 Q316.2,73.7 317.9,71.9 Q319.7,70.0 321.4,68.2 Q323.0,66.4 324.7,64.5 Q326.3,62.6 327.9,60.7 Q329.5,58.7 331.0,56.7 Q332.4,54.7 333.8,52.6 Q335.2,50.5 336.5,48.4 Q337.8,46.2 339.0,44.1 Q340.2,41.9 341.4,39.7 Q342.6,37.5 343.7,35.2 Q344.9,33.0 346.0,30.8 Q347.2,28.6 348.4,26.4 Q349.6,24.2 351.0,22.1 Q352.4,20.0 353.9,18.0 Q355.4,16.1 357.0,14.2 Q358.7,12.3 360.5,10.5 Q362.2,8.8 364.1,7.1 Q365.9,5.4 367.8,3.8 Q369.7,2.2 371.6,0.5 Q373.6,-1.0 375.5,-2.6 Q377.5,-4.2 379.4,-5.8 Q381.4,-7.3 383.3,-8.9" fill="none" stroke="#007e3a" stroke-width="0.6" stroke-linecap="round" class="bgflow" style="--len:115;--op:0.08;--dur:4.0s;animation-delay:7.02s"/>
<path d="M734.6,481.0 Q736.7,479.7 738.9,478.5 Q741.0,477.2 743.2,475.9 Q745.3,474.6 747.5,473.4 Q749.7,472.2 751.8,470.9 Q754.0,469.7 756.2,468.5 Q758.4,467.3 760.6,466.1 Q762.8,464.9 765.0,463.7 Q767.2,462.5 769.4,461.3 Q771.6,460.2 773.9,459.1 Q776.1,458.1 778.4,457.1 Q780.8,456.2 783.1,455.3 Q785.5,454.5 787.9,453.8 Q790.3,453.2 792.8,452.6 Q795.2,452.2 797.7,451.7 Q800.1,451.4 802.6,451.0 Q805.1,450.7 807.6,450.5" fill="none" stroke="#008136" stroke-width="0.6" stroke-linecap="round" class="bgflow" style="--len:80;--op:0.08;--dur:4.0s;animation-delay:7.20s"/>
<path d="M517.4,220.6 Q515.1,221.5 512.8,222.4 Q510.4,223.2 508.0,223.9 Q505.6,224.5 503.2,225.1 Q500.8,225.8 498.3,226.4 Q495.9,227.0 493.5,227.7 Q491.1,228.5 488.8,229.3 Q486.4,230.2 484.1,231.1 Q481.8,232.0 479.5,233.0 Q477.2,234.1 474.9,235.1 Q472.6,236.0 470.3,236.9 Q467.9,237.7 465.5,238.5 Q463.1,239.1 460.7,239.6 Q458.2,239.9 455.7,240.2 Q453.2,240.3 450.7,240.3 Q448.2,240.3 445.7,240.1 Q443.2,239.8 440.8,239.3 Q438.3,238.7 435.9,238.0 Q433.6,237.2 431.3,236.2 Q429.0,235.1 426.8,234.0 Q424.6,232.8 422.4,231.6 Q420.3,230.3 418.1,229.1 Q415.9,227.8 413.7,226.6 Q411.5,225.4 409.3,224.3 Q407.1,223.2 404.8,222.1 Q402.6,221.0 400.3,220.0 Q398.0,218.9 395.7,217.9 Q393.4,216.9 391.1,216.0 Q388.8,215.2 386.4,214.5 Q383.9,213.9 381.5,213.5 Q379.0,213.2 376.5,213.1 Q374.0,213.1 371.5,213.3 Q369.0,213.6 366.6,214.1 Q364.1,214.6 361.7,215.2 Q359.3,215.9 356.9,216.7 Q354.5,217.4 352.1,218.2 Q349.8,219.0 347.4,219.7 Q345.0,220.4 342.5,221.0 Q340.1,221.5 337.6,221.9 Q335.1,222.2 332.6,222.3 Q330.1,222.3 327.7,222.2" fill="none" stroke="#008334" stroke-width="0.6" stroke-linecap="round" class="bgflow" style="--len:200;--op:0.08;--dur:4.0s;animation-delay:7.38s"/>
<path d="M507.5,696.3 Q508.3,698.6 509.0,701.0 Q509.6,703.4 510.2,705.9 Q510.7,708.3 511.0,710.8 Q511.4,713.3 511.6,715.8 Q511.8,718.3 512.0,720.8 Q512.0,723.3 512.1,725.8 Q512.1,728.3 512.1,730.8 Q512.1,733.3 512.0,735.8 Q512.0,738.3 512.0,740.8 Q511.9,743.3 511.9,745.8 Q511.8,748.3 511.8,750.8 Q511.7,753.3 511.6,755.8 Q511.4,758.3 511.2,760.7 Q511.0,763.2 510.7,765.7 Q510.3,768.2 509.9,770.7 Q509.4,773.1 508.8,775.5 Q508.1,777.9 507.2,780.3 Q506.1,782.5 504.9,784.7 Q503.4,786.7 501.8,788.6 Q500.0,790.3 498.0,791.9 Q496.0,793.3 493.9,794.7 Q491.7,796.0 489.6,797.3 Q487.5,798.7 485.5,800.1 Q483.4,801.6 481.5,803.1 Q479.6,804.7 477.7,806.4 Q475.9,808.1 474.1,809.9" fill="none" stroke="#008532" stroke-width="0.6" stroke-linecap="round" class="bgflow" style="--len:130;--op:0.08;--dur:4.0s;animation-delay:7.56s"/>
<path d="M87.1,680.6 Q84.7,681.2 82.2,681.9 Q79.8,682.5 77.4,683.1 Q74.9,683.6 72.5,684.1 Q70.0,684.5 67.5,684.7 Q65.0,684.8 62.5,684.8 Q60.0,684.7 57.6,684.3 Q55.1,683.8 52.7,683.2 Q50.3,682.4 48.0,681.5 Q45.8,680.3 43.6,679.1 Q41.6,677.6 39.6,676.1 Q37.7,674.4 35.9,672.7 Q34.2,670.9 32.5,669.1 Q30.8,667.2 29.2,665.3 Q27.6,663.4 26.0,661.4 Q24.4,659.5 22.8,657.6 Q21.2,655.7 19.6,653.8 Q18.0,651.9 16.3,650.0 Q14.6,648.2 12.8,646.4 Q11.0,644.7 9.2,643.0 Q7.3,641.4 5.3,639.9 Q3.2,638.4 1.1,637.1 Q-1.0,635.8 -3.2,634.6 Q-5.5,633.5 -7.7,632.5" fill="none" stroke="#008730" stroke-width="0.6" stroke-linecap="round" class="bgflow" style="--len:115;--op:0.08;--dur:4.0s;animation-delay:7.74s"/>
<path d="M143.5,506.4 Q144.0,508.9 144.6,511.3 Q145.2,513.7 145.8,516.2 Q146.4,518.6 147.1,521.0 Q147.7,523.4 148.4,525.8 Q149.1,528.2 149.8,530.6 Q150.6,533.0 151.4,535.3 Q152.3,537.7 153.3,540.0 Q154.4,542.2 155.5,544.5 Q156.8,546.6 158.1,548.8 Q159.5,550.8 161.0,552.9 Q162.5,554.8 164.0,556.8 Q165.6,558.7 167.2,560.6 Q168.9,562.5 170.5,564.5 Q172.0,566.4 173.6,568.4 Q175.0,570.4 176.4,572.5 Q177.8,574.6 179.0,576.7 Q180.2,579.0 181.3,581.2 Q182.3,583.5 183.3,585.8 Q184.2,588.1 185.0,590.5 Q185.8,592.9 186.5,595.3 Q187.2,597.7 187.7,600.1 Q188.2,602.5 188.7,605.0 Q189.0,607.5 189.1,610.0 Q189.2,612.5 189.1,615.0 Q188.8,617.5 188.5,619.9 Q187.9,622.4 187.4,624.8 Q186.7,627.2 186.1,629.7 Q185.5,632.1 185.0,634.5 Q184.5,637.0 184.2,639.5 Q184.0,642.0 183.9,644.5 Q183.9,647.0 184.0,649.5 Q184.1,651.9 184.4,654.4 Q184.7,656.9 185.1,659.4 Q185.6,661.8 186.2,664.3 Q186.8,666.7 187.5,669.1 Q188.3,671.5 189.1,673.8 Q190.1,676.1 191.1,678.4 Q192.2,680.7 193.4,682.9 Q194.6,685.0 195.9,687.2 Q197.3,689.3 198.7,691.3" fill="none" stroke="#00892d" stroke-width="0.6" stroke-linecap="round" class="bgflow" style="--len:200;--op:0.08;--dur:4.0s;animation-delay:7.92s"/>
<path d="M621.8,634.9 Q620.7,632.7 619.6,630.4 Q618.6,628.1 617.5,625.8 Q616.5,623.5 615.5,621.3 Q614.5,619.0 613.5,616.7 Q612.6,614.4 611.6,612.1 Q610.7,609.7 609.8,607.4 Q609.0,605.0 608.4,602.6 Q607.8,600.2 607.3,597.7 Q606.9,595.3 606.6,592.8 Q606.3,590.3 606.2,587.8 Q606.1,585.3 606.1,582.8 Q606.1,580.3 606.1,577.8 Q606.1,575.3 606.1,572.8 Q606.0,570.3 605.9,567.8 Q605.7,565.3 605.5,562.8 Q605.1,560.4 604.7,557.9 Q604.2,555.4 603.7,553.0 Q603.1,550.6 602.4,548.2 Q601.7,545.8 600.9,543.4 Q600.0,541.1 599.1,538.7 Q598.0,536.5 596.9,534.3 Q595.6,532.1 594.3,529.9 Q592.9,527.9 591.5,525.8 Q590.1,523.8 588.6,521.8 Q587.1,519.7 585.6,517.7 Q584.2,515.7 582.7,513.7 Q581.3,511.6 579.8,509.6 Q578.2,507.6 576.5,505.8 Q574.6,504.3 572.2,503.5 Q569.7,503.5 567.3,504.1 Q564.9,504.8 562.5,505.7 Q560.2,506.6 557.9,507.5 Q555.5,508.4 553.2,509.3 Q550.9,510.2 548.5,511.1 Q546.2,511.9 543.8,512.7 Q541.4,513.5 539.0,514.2 Q536.6,514.9 534.2,515.5 Q531.8,516.1 529.3,516.6 Q526.9,517.1 524.4,517.4 Q521.9,517.7 519.4,517.9" fill="none" stroke="#008a2b" stroke-width="0.6" stroke-linecap="round" class="bgflow" style="--len:200;--op:0.08;--dur:4.0s;animation-delay:8.10s"/>
<path d="M348.9,369.8 Q347.4,367.8 345.9,365.8 Q344.1,364.0 342.1,362.5 Q339.7,361.9 337.9,363.7 Q336.7,365.8 335.2,367.8 Q333.6,369.8 331.9,371.6 Q330.1,373.3 328.2,374.9 Q326.2,376.5 324.2,377.9 Q322.1,379.4 320.1,380.8 Q318.0,382.1 315.9,383.5 Q313.7,384.8 311.6,386.1 Q309.5,387.5 307.4,388.9 Q305.4,390.3 303.3,391.7 Q301.3,393.2 299.4,394.8 Q297.5,396.4 295.6,398.1 Q293.9,399.8 292.2,401.7 Q290.6,403.6 289.2,405.7 Q287.9,407.8 286.9,410.1 Q286.2,412.5 286.5,415.0 Q288.9,414.3 289.6,411.9 Q287.6,413.5 288.8,415.7 Q289.8,413.4 288.5,411.2 Q287.4,413.4 288.4,415.7 Q289.6,413.5 288.5,411.2 Q287.4,413.4 288.4,415.7 Q289.6,413.5 288.5,411.2 Q287.4,413.4 288.4,415.7 Q289.5,413.5 288.5,411.2 Q287.4,413.4 288.4,415.7 Q289.5,413.5 288.5,411.2 Q287.4,413.4 288.4,415.7 Q289.5,413.5 288.5,411.2 Q287.4,413.4 288.4,415.7 Q289.5,413.5 288.5,411.2 Q287.4,413.4 288.4,415.7 Q289.5,413.5 288.5,411.2 Q287.4,413.4 288.4,415.7 Q289.5,413.5 288.5,411.2 Q287.4,413.4 288.4,415.7 Q289.5,413.5 288.5,411.2 Q287.4,413.4 288.4,415.7" fill="none" stroke="#008c29" stroke-width="0.6" stroke-linecap="round" class="bgflow" style="--len:188;--op:0.08;--dur:4.0s;animation-delay:8.28s"/>
<path d="M190.6,132.8 Q188.1,133.1 185.6,133.4 Q183.1,133.5 180.6,133.5 Q178.1,133.4 175.6,133.3 Q173.1,133.1 170.6,132.9 Q168.1,132.6 165.7,132.4 Q163.2,132.0 160.7,131.7 Q158.2,131.3 155.8,130.8 Q153.3,130.3 150.9,129.6 Q148.5,128.9 146.2,128.1 Q143.8,127.2 141.5,126.2 Q139.3,125.2 137.0,124.0 Q134.8,122.9 132.6,121.7 Q130.5,120.4 128.3,119.1 Q126.2,117.8 124.1,116.4 Q122.1,115.0 120.1,113.5 Q118.2,111.9 116.4,110.1 Q114.6,108.3 113.0,106.4 Q111.6,104.4 110.3,102.2 Q109.2,100.0 108.3,97.6 Q107.7,95.2 107.2,92.8 Q107.1,90.3 107.2,87.8 Q107.5,85.3 108.1,82.9 Q108.8,80.5 109.7,78.1 Q110.6,75.8 111.6,73.5 Q112.5,71.2 113.4,68.8 Q114.2,66.5 114.9,64.1 Q115.4,61.6 115.8,59.1 Q115.9,56.7 116.0,54.2 Q115.8,51.7 115.5,49.2 Q115.1,46.7 114.5,44.3 Q113.8,41.9 113.0,39.5 Q112.1,37.2 111.2,34.9 Q110.1,32.6 109.0,30.3 Q107.9,28.1 106.8,25.9 Q105.6,23.7 104.3,21.5 Q103.1,19.4 101.7,17.3 Q100.3,15.2 98.7,13.3 Q97.0,11.4 95.1,9.8 Q93.1,8.4 90.8,7.3 Q88.4,6.5 86.0,6.0" fill="none" stroke="#008e26" stroke-width="0.6" stroke-linecap="round" class="bgflow" style="--len:200;--op:0.08;--dur:4.0s;animation-delay:8.46s"/>
<path d="M560.2,693.1 Q560.0,695.6 559.9,698.1 Q560.0,700.6 560.3,703.1 Q560.6,705.6 561.1,708.0 Q561.7,710.5 562.3,712.9 Q563.1,715.3 563.9,717.6 Q564.8,720.0 565.7,722.3 Q566.6,724.6 567.6,726.9 Q568.4,729.3 569.3,731.6 Q570.2,734.0 571.0,736.3 Q571.8,738.7 572.6,741.1 Q573.4,743.4 574.2,745.8 Q575.0,748.2 575.8,750.5 Q576.7,752.9 577.5,755.2 Q578.4,757.6 579.3,759.9 Q580.3,762.2 581.2,764.5 Q582.2,766.8 583.1,769.1 Q584.1,771.5 585.1,773.8 Q586.0,776.1 587.0,778.4 Q588.0,780.7 589.0,783.0 Q590.0,785.2 591.1,787.5 Q592.3,789.7 593.6,791.8 Q595.0,793.9 596.6,795.8 Q598.4,797.6 600.3,799.2 Q602.4,800.6 604.5,801.9 Q606.7,803.1 608.9,804.2 Q611.2,805.2 613.5,806.1 Q615.9,807.0 618.2,807.8 Q620.6,808.6 623.0,809.3" fill="none" stroke="#009023" stroke-width="0.6" stroke-linecap="round" class="bgflow" style="--len:140;--op:0.08;--dur:4.0s;animation-delay:8.64s"/>
<path d="M630.0,751.3 Q632.5,751.5 635.0,751.7 Q637.5,751.8 640.0,752.0 Q642.5,752.0 645.0,752.0 Q647.5,751.8 649.9,751.5 Q652.4,750.9 654.7,750.0 Q656.9,748.7 658.7,747.0 Q660.1,744.9 660.6,742.5 Q660.2,740.0 659.3,737.7 Q658.1,735.5 656.9,733.3 Q655.7,731.2 654.4,729.0 Q653.0,726.9 651.7,724.8 Q650.4,722.7 649.0,720.6 Q647.6,718.5 646.2,716.4 Q644.8,714.4 643.3,712.3 Q641.8,710.3 640.3,708.3 Q638.8,706.4 637.2,704.4 Q635.6,702.6 633.9,700.7 Q632.2,698.9 630.4,697.1 Q628.5,695.4 626.6,693.9 Q624.6,692.4 622.5,691.0 Q620.3,689.9 618.0,688.9 Q615.6,688.1 613.1,687.6 Q610.7,687.4 608.2,687.4 Q605.7,687.8 603.3,688.4 Q600.9,689.2 598.7,690.4 Q596.7,692.0 595.0,693.8 Q593.6,695.9 592.6,698.1 Q592.0,700.6 591.8,703.1 Q591.8,705.6 592.1,708.0 Q592.7,710.5 593.5,712.8 Q594.5,715.1 595.7,717.3 Q597.0,719.5 598.5,721.5 Q600.1,723.4 601.9,725.1 Q603.8,726.7 605.9,728.1 Q608.1,729.3 610.4,730.2 Q612.8,730.8 615.3,731.1 Q617.8,731.0 620.3,730.7 Q622.8,730.2 625.2,729.6 Q627.5,728.8 629.9,727.9 Q632.1,726.8 634.3,725.6" fill="none" stroke="#009120" stroke-width="0.6" stroke-linecap="round" class="bgflow" style="--len:200;--op:0.08;--dur:4.0s;animation-delay:8.82s"/>
</g>
<g filter="url(#bloom)">
<path d="M498.4,387.2 Q498.4,389.5 498.3,391.9 Q498.0,394.3 497.6,396.8 Q497.0,399.2 496.4,401.5 Q495.6,403.5 495.0,405.3 Q494.2,407.0 493.4,408.8 Q492.5,410.6 491.6,412.4 Q490.6,414.0 489.6,415.6 Q488.5,417.1 487.4,418.6 Q486.3,420.1 485.2,421.5 Q484.0,423.1 482.6,424.7 Q481.1,426.4 479.6,428.2 Q478.0,429.9 476.3,431.6 Q474.7,433.3 473.0,434.9 Q471.3,436.4 469.6,438.0 Q467.8,439.5 465.9,440.9 Q464.0,442.4 462.1,443.8 Q460.1,445.3 458.1,446.6 Q456.1,447.9 454.2,449.2 Q452.2,450.4 450.3,451.5 Q448.6,452.5 446.8,453.4 Q445.1,454.2 443.5,455.1 Q441.8,455.8 440.2,456.5 Q438.5,457.3 436.7,457.9 Q435.0,458.6 433.2,459.3 Q431.5,459.9 429.8,460.5 Q428.1,461.0 426.5,461.6 Q424.9,462.1 423.3,462.6 Q421.8,463.1 420.3,463.6 Q418.8,464.0 417.3,464.5 Q415.9,464.9 414.4,465.3 Q413.0,465.8 411.4,466.2 Q409.8,466.6 408.1,467.1 Q406.4,467.5 404.5,468.0 Q402.4,468.4 400.3,468.8 Q398.1,469.2 396.0,469.5 Q394.1,469.7 392.4,469.9 Q390.9,470.0 389.6,470.1 Q388.2,470.2 386.9,470.3 Q385.5,470.4 384.0,470.4 Q382.3,470.5 380.5,470.5 Q378.6,470.5 377.0,470.5 Q375.5,470.5 374.1,470.5 Q372.5,470.5 370.8,470.4 Q369.3,470.4 367.9,470.4 Q366.6,470.3 365.0,470.3 Q363.3,470.2 361.6,470.0 Q359.8,469.8 358.0,469.5 Q356.3,469.3 354.5,469.0 Q352.5,468.6 350.2,468.2 Q347.9,467.7 345.8,467.2 Q343.7,466.6 341.7,466.1 Q339.8,465.5 337.8,464.9 Q335.8,464.3 333.8,463.7 Q331.7,463.0 329.7,462.2 Q327.6,461.5 325.7,460.7 Q323.8,459.9 322.1,459.1 Q320.4,458.3 318.8,457.5 Q317.3,456.6 315.7,455.7 Q314.2,454.7 312.6,453.6 Q311.0,452.3 309.3,451.0 Q307.5,449.5 305.8,447.9 Q304.0,446.1 302.4,444.2 Q300.9,442.3 299.5,440.2 Q298.3,438.1 297.4,435.8 Q296.7,433.5 296.3,431.2 Q296.1,428.8 296.1,426.5 Q296.3,424.1 296.7,421.7 Q297.2,419.3 297.8,417.1 Q298.3,415.0 298.9,413.0 Q299.5,411.1 300.1,409.1 Q300.7,406.9 301.4,404.7 Q302.0,402.4 302.7,400.2 Q303.4,398.1 304.1,396.0 Q304.9,394.0 305.7,392.0 Q306.6,390.1 307.5,388.2 Q308.4,386.3 309.3,384.5 Q310.3,382.7 311.3,380.9 Q312.3,379.1 313.3,377.4 Q314.4,375.7 315.4,374.1 Q316.4,372.5 317.4,371.0 Q318.4,369.5 319.4,368.1 Q320.4,366.7 321.4,365.4 Q322.5,364.0 323.5,362.8 Q324.6,361.5 325.6,360.2 Q326.7,359.0 327.8,357.7 Q328.9,356.5 330.0,355.3 Q331.1,354.0 332.3,352.8 Q333.4,351.6 334.6,350.3 Q335.8,349.0 337.0,347.8 Q338.2,346.5 339.5,345.2 Q340.8,343.8 342.1,342.5 Q343.5,341.2 344.9,339.8 Q346.3,338.5 347.8,337.1 Q349.3,335.8 350.8,334.5 Q352.4,333.2 354.0,331.9 Q355.6,330.5 357.4,329.2 Q359.2,327.9 361.1,326.6 Q363.0,325.2 364.8,324.1 Q366.1,323.2 367.5,322.3 Q369.2,321.2 371.0,320.1 Q372.6,319.0 374.0,318.1 Q375.5,317.2 377.1,316.3 Q378.9,315.3 380.9,314.2 Q383.0,313.1 385.1,312.0 Q387.1,311.0 389.1,310.1 Q391.0,309.2 392.9,308.4 Q394.8,307.7 396.6,306.9 Q398.4,306.2 400.3,305.5 Q402.1,304.9 403.9,304.2 Q405.7,303.5 407.5,302.9 Q409.3,302.3 411.2,301.8 Q413.0,301.3 414.9,300.8 Q416.7,300.4 418.6,300.0 Q420.6,299.7 422.6,299.4 Q424.6,299.1 426.6,298.8 Q428.6,298.6 430.7,298.4 Q432.7,298.2 434.7,298.1 Q436.6,297.9 438.5,297.8 Q440.4,297.7 442.2,297.6 Q444.0,297.6 445.7,297.6 Q447.4,297.7 449.1,297.8 Q450.8,298.0 452.4,298.2 Q454.0,298.5 455.6,298.9 Q457.1,299.3 458.6,299.9 Q460.1,300.5 461.5,301.2 Q462.9,301.9 464.3,302.8 Q465.7,303.8 467.1,304.8 Q468.5,306.0 469.9,307.2 Q471.3,308.6 472.8,310.0 Q474.2,311.5 475.5,313.1 Q476.8,314.7 478.1,316.3 Q479.3,317.9 480.4,319.6 Q481.3,321.2 482.2,322.9 Q483.1,324.6 483.8,326.2 Q484.5,327.9 485.0,329.7 Q485.6,331.5 486.1,333.3 Q486.5,335.2 487.0,337.1 Q487.4,339.1 487.9,341.1 Q488.3,343.1 488.8,345.2 Q489.3,347.3 489.8,349.3 Q490.3,351.5 490.8,353.6 Q491.4,355.7 492.0,357.8 Q492.6,360.0 493.3,362.2 Q493.9,364.3 494.6,366.5 Q495.2,368.8 495.8,371.0 Q496.3,373.2 496.8,375.5 Q497.3,377.8 497.7,380.1 Q498.0,382.4 498.3,384.8 Z" fill="none" stroke="#00604b" stroke-linecap="round" stroke-linejoin="round" class="ring" style="--len:586;--op:0.500;--sw:1.6;--dur:6.0s;animation-delay:0.00s;stroke-width:1.60"/>
<path d="M498.4,387.2 Q498.4,389.5 498.3,391.9 Q498.0,394.3 497.6,396.8 Q497.0,399.2 496.4,401.5 Q495.6,403.5 495.0,405.3 Q494.2,407.0 493.4,408.8 Q492.5,410.6 491.6,412.4 Q490.6,414.0 489.6,415.6 Q488.5,417.1 487.4,418.6 Q486.3,420.1 485.2,421.5 Q484.0,423.1 482.6,424.7 Q481.1,426.4 479.6,428.2 Q478.0,429.9 476.3,431.6 Q474.7,433.3 473.0,434.9 Q471.3,436.4 469.6,438.0 Q467.8,439.5 465.9,440.9 Q464.0,442.4 462.1,443.8 Q460.1,445.3 458.1,446.6 Q456.1,447.9 454.2,449.2 Q452.2,450.4 450.3,451.5 Q448.6,452.5 446.8,453.4 Q445.1,454.2 443.5,455.1 Q441.8,455.8 440.2,456.5 Q438.5,457.3 436.7,457.9 Q435.0,458.6 433.2,459.3 Q431.5,459.9 429.8,460.5 Q428.1,461.0 426.5,461.6 Q424.9,462.1 423.3,462.6 Q421.8,463.1 420.3,463.6 Q418.8,464.0 417.3,464.5 Q415.9,464.9 414.4,465.3 Q413.0,465.8 411.4,466.2 Q409.8,466.6 408.1,467.1 Q406.4,467.5 404.5,468.0 Q402.4,468.4 400.3,468.8 Q398.1,469.2 396.0,469.5 Q394.1,469.7 392.4,469.9 Q390.9,470.0 389.6,470.1 Q388.2,470.2 386.9,470.3 Q385.5,470.4 384.0,470.4 Q382.3,470.5 380.5,470.5 Q378.6,470.5 377.0,470.5 Q375.5,470.5 374.1,470.5 Q372.5,470.5 370.8,470.4 Q369.3,470.4 367.9,470.4 Q366.6,470.3 365.0,470.3 Q363.3,470.2 361.6,470.0 Q359.8,469.8 358.0,469.5 Q356.3,469.3 354.5,469.0 Q352.5,468.6 350.2,468.2 Q347.9,467.7 345.8,467.2 Q343.7,466.6 341.7,466.1 Q339.8,465.5 337.8,464.9 Q335.8,464.3 333.8,463.7 Q331.7,463.0 329.7,462.2 Q327.6,461.5 325.7,460.7 Q323.8,459.9 322.1,459.1 Q320.4,458.3 318.8,457.5 Q317.3,456.6 315.7,455.7 Q314.2,454.7 312.6,453.6 Q311.0,452.3 309.3,451.0 Q307.5,449.5 305.8,447.9 Q304.0,446.1 302.4,444.2 Q300.9,442.3 299.5,440.2 Q298.3,438.1 297.4,435.8 Q296.7,433.5 296.3,431.2 Q296.1,428.8 296.1,426.5 Q296.3,424.1 296.7,421.7 Q297.2,419.3 297.8,417.1 Q298.3,415.0 298.9,413.0 Q299.5,411.1 300.1,409.1 Q300.7,406.9 301.4,404.7 Q302.0,402.4 302.7,400.2 Q303.4,398.1 304.1,396.0 Q304.9,394.0 305.7,392.0 Q306.6,390.1 307.5,388.2 Q308.4,386.3 309.3,384.5 Q310.3,382.7 311.3,380.9 Q312.3,379.1 313.3,377.4 Q314.4,375.7 315.4,374.1 Q316.4,372.5 317.4,371.0 Q318.4,369.5 319.4,368.1 Q320.4,366.7 321.4,365.4 Q322.5,364.0 323.5,362.8 Q324.6,361.5 325.6,360.2 Q326.7,359.0 327.8,357.7 Q328.9,356.5 330.0,355.3 Q331.1,354.0 332.3,352.8 Q333.4,351.6 334.6,350.3 Q335.8,349.0 337.0,347.8 Q338.2,346.5 339.5,345.2 Q340.8,343.8 342.1,342.5 Q343.5,341.2 344.9,339.8 Q346.3,338.5 347.8,337.1 Q349.3,335.8 350.8,334.5 Q352.4,333.2 354.0,331.9 Q355.6,330.5 357.4,329.2 Q359.2,327.9 361.1,326.6 Q363.0,325.2 364.8,324.1 Q366.1,323.2 367.5,322.3 Q369.2,321.2 371.0,320.1 Q372.6,319.0 374.0,318.1 Q375.5,317.2 377.1,316.3 Q378.9,315.3 380.9,314.2 Q383.0,313.1 385.1,312.0 Q387.1,311.0 389.1,310.1 Q391.0,309.2 392.9,308.4 Q394.8,307.7 396.6,306.9 Q398.4,306.2 400.3,305.5 Q402.1,304.9 403.9,304.2 Q405.7,303.5 407.5,302.9 Q409.3,302.3 411.2,301.8 Q413.0,301.3 414.9,300.8 Q416.7,300.4 418.6,300.0 Q420.6,299.7 422.6,299.4 Q424.6,299.1 426.6,298.8 Q428.6,298.6 430.7,298.4 Q432.7,298.2 434.7,298.1 Q436.6,297.9 438.5,297.8 Q440.4,297.7 442.2,297.6 Q444.0,297.6 445.7,297.6 Q447.4,297.7 449.1,297.8 Q450.8,298.0 452.4,298.2 Q454.0,298.5 455.6,298.9 Q457.1,299.3 458.6,299.9 Q460.1,300.5 461.5,301.2 Q462.9,301.9 464.3,302.8 Q465.7,303.8 467.1,304.8 Q468.5,306.0 469.9,307.2 Q471.3,308.6 472.8,310.0 Q474.2,311.5 475.5,313.1 Q476.8,314.7 478.1,316.3 Q479.3,317.9 480.4,319.6 Q481.3,321.2 482.2,322.9 Q483.1,324.6 483.8,326.2 Q484.5,327.9 485.0,329.7 Q485.6,331.5 486.1,333.3 Q486.5,335.2 487.0,337.1 Q487.4,339.1 487.9,341.1 Q488.3,343.1 488.8,345.2 Q489.3,347.3 489.8,349.3 Q490.3,351.5 490.8,353.6 Q491.4,355.7 492.0,357.8 Q492.6,360.0 493.3,362.2 Q493.9,364.3 494.6,366.5 Q495.2,368.8 495.8,371.0 Q496.3,373.2 496.8,375.5 Q497.3,377.8 497.7,380.1 Q498.0,382.4 498.3,384.8 Z" fill="#00062b" fill-opacity="0.0400" stroke="none" class="ring" style="--len:586;--op:1;--dur:6.0s;animation-delay:0.00s"/>
<path d="M528.8,400.8 Q528.4,402.9 528.0,405.0 Q527.6,407.1 527.1,409.1 Q526.5,411.2 525.9,413.3 Q525.1,415.3 524.3,417.4 Q523.5,419.4 522.6,421.5 Q521.7,423.6 520.8,425.6 Q519.9,427.7 519.1,429.8 Q518.3,431.9 517.5,434.0 Q516.8,436.2 516.1,438.3 Q515.4,440.5 514.8,442.7 Q514.2,445.0 513.7,447.2 Q513.1,449.5 512.6,451.8 Q512.1,454.1 511.6,456.4 Q511.1,458.8 510.6,461.1 Q510.1,463.4 509.7,465.7 Q509.3,468.0 508.9,470.3 Q508.5,472.5 508.1,474.8 Q507.6,477.0 507.1,479.2 Q506.6,481.3 506.0,483.5 Q505.3,485.6 504.6,487.6 Q503.8,489.7 502.9,491.7 Q502.0,493.6 501.0,495.6 Q499.9,497.5 498.7,499.4 Q497.4,501.2 496.1,503.1 Q494.8,504.9 493.3,506.7 Q491.8,508.5 490.3,510.3 Q488.7,512.1 487.1,513.8 Q485.4,515.5 483.7,517.1 Q481.9,518.7 480.1,520.3 Q478.2,521.8 476.3,523.3 Q474.3,524.8 472.4,526.2 Q470.6,527.4 469.2,528.4 Q468.1,529.1 467.0,529.8 Q466.1,530.5 465.1,531.2 Q463.8,532.2 462.1,533.3 Q460.2,534.6 458.4,535.9 Q456.6,537.2 455.0,538.5 Q453.4,539.7 451.9,540.9 Q450.5,542.0 449.2,543.1 Q447.9,544.2 446.7,545.2 Q445.5,546.2 444.4,547.2 Q443.2,548.2 442.1,549.1 Q440.9,550.1 439.7,551.0 Q438.6,551.9 437.4,552.8 Q436.2,553.7 434.9,554.6 Q433.6,555.5 432.3,556.3 Q431.0,557.2 429.5,558.1 Q428.0,558.9 426.5,559.8 Q424.9,560.6 423.2,561.5 Q421.6,562.3 419.9,563.1 Q418.2,564.0 416.6,564.8 Q414.9,565.6 413.3,566.4 Q411.7,567.1 410.1,567.9 Q408.5,568.6 407.0,569.3 Q405.5,570.0 404.0,570.7 Q402.4,571.3 400.9,571.9 Q399.3,572.5 397.6,573.1 Q395.9,573.7 394.1,574.3 Q392.2,574.8 390.2,575.4 Q388.2,575.9 386.0,576.4 Q383.9,576.9 381.7,577.4 Q379.4,577.8 377.2,578.2 Q375.0,578.5 372.8,578.8 Q370.6,579.1 368.6,579.3 Q366.6,579.5 364.6,579.6 Q362.7,579.6 360.9,579.7 Q359.0,579.7 357.2,579.6 Q355.4,579.5 353.5,579.4 Q351.7,579.2 349.8,579.0 Q347.9,578.7 345.9,578.4 Q343.9,578.1 341.9,577.7 Q339.9,577.3 337.9,576.8 Q336.0,576.2 334.0,575.6 Q332.2,575.0 330.4,574.3 Q328.6,573.5 326.9,572.8 Q325.2,571.9 323.6,571.1 Q322.0,570.2 320.4,569.3 Q318.7,568.3 317.1,567.4 Q315.4,566.4 313.7,565.3 Q312.1,564.3 310.3,563.1 Q308.6,562.0 306.9,560.8 Q305.2,559.6 303.5,558.3 Q301.8,556.9 300.1,555.5 Q298.5,554.0 296.8,552.5 Q295.2,550.9 293.6,549.3 Q292.0,547.6 290.4,545.8 Q288.8,544.0 287.3,542.1 Q285.7,540.1 284.3,538.2 Q282.9,536.1 281.6,534.1 Q280.3,532.0 279.2,530.0 Q278.2,528.0 277.3,526.0 Q276.5,524.0 275.7,522.2 Q275.1,520.3 274.6,518.6 Q274.1,516.9 273.7,515.2 Q273.3,513.6 273.0,512.0 Q272.7,510.4 272.4,508.7 Q272.1,507.0 271.8,505.3 Q271.5,503.5 271.2,501.7 Q270.9,499.7 270.6,497.7 Q270.4,495.7 270.1,493.5 Q269.8,491.3 269.5,489.0 Q269.2,486.7 268.9,484.4 Q268.6,482.1 268.3,479.9 Q268.0,477.7 267.7,475.5 Q267.3,473.3 266.9,471.2 Q266.6,469.0 266.2,466.8 Q265.9,464.5 265.6,462.3 Q265.4,460.0 265.1,457.8 Q264.9,455.7 264.8,453.6 Q264.7,451.5 264.6,449.4 Q264.6,447.3 264.6,445.4 Q264.6,443.5 264.6,441.5 Q264.6,439.3 264.7,437.0 Q264.8,434.6 265.0,432.3 Q265.1,429.9 265.3,427.6 Q265.5,425.3 265.8,423.1 Q266.0,420.8 266.3,418.6 Q266.5,416.3 266.7,414.1 Q266.9,411.8 267.1,409.6 Q267.3,407.3 267.4,405.0 Q267.6,402.7 267.7,400.5 Q267.9,398.2 268.0,395.9 Q268.2,393.5 268.3,391.2 Q268.5,388.9 268.6,386.6 Q268.7,384.3 268.8,381.9 Q268.9,379.6 269.0,377.3 Q269.2,374.9 269.4,372.6 Q269.6,370.3 269.8,367.9 Q270.1,365.6 270.5,363.2 Q270.9,360.8 271.4,358.4 Q272.0,356.0 272.6,354.7 Q272.6,353.6 273.0,352.7 Q273.3,351.1 273.9,348.8 Q274.4,346.7 274.8,345.1 Q275.1,343.7 275.4,342.4 Q275.7,341.1 276.1,339.7 Q276.4,338.1 276.8,336.1 Q277.3,333.8 277.7,331.5 Q278.1,329.4 278.5,327.5 Q278.9,325.8 279.3,324.1 Q279.7,322.5 280.2,320.8 Q280.7,319.0 281.4,317.1 Q282.0,315.1 282.8,313.0 Q283.6,310.7 284.5,308.5 Q285.4,306.2 286.4,304.0 Q287.4,301.8 288.4,299.7 Q289.5,297.7 290.6,295.8 Q291.7,293.9 292.8,292.1 Q294.0,290.4 295.1,288.8 Q296.3,287.3 297.4,285.9 Q298.5,284.7 299.6,283.6 Q300.7,282.6 301.8,281.6 Q302.9,280.8 304.1,280.0 Q305.3,279.2 306.6,278.4 Q308.1,277.6 309.6,276.9 Q311.3,276.1 313.2,275.2 Q315.1,274.4 317.2,273.6 Q319.3,272.8 321.5,272.0 Q323.8,271.3 326.1,270.6 Q328.4,270.0 330.8,269.5 Q333.1,269.1 335.5,268.7 Q337.8,268.4 340.2,268.2 Q342.6,268.0 345.0,267.9 Q347.4,267.7 349.8,267.6 Q352.2,267.4 354.6,267.3 Q356.9,267.1 359.3,266.9 Q361.7,266.8 364.1,266.6 Q366.4,266.5 368.8,266.4 Q371.1,266.4 373.5,266.4 Q375.8,266.4 378.2,266.5 Q380.5,266.6 382.9,266.8 Q385.2,267.0 387.5,267.3 Q389.8,267.5 392.1,267.8 Q394.4,268.1 396.7,268.4 Q399.0,268.7 401.3,269.1 Q403.5,269.4 405.8,269.7 Q408.0,270.0 410.2,270.4 Q412.4,270.7 414.6,271.0 Q416.9,271.4 419.1,271.7 Q421.3,272.0 423.5,272.3 Q425.7,272.6 427.9,272.8 Q430.1,273.1 432.4,273.4 Q434.6,273.7 436.8,274.0 Q439.1,274.3 441.4,274.6 Q443.7,275.0 445.9,275.4 Q448.2,275.9 450.5,276.5 Q452.9,277.1 455.1,277.8 Q457.4,278.5 459.5,279.3 Q461.5,280.0 463.5,280.7 Q465.3,281.5 467.1,282.2 Q468.8,282.9 470.4,283.6 Q472.0,284.2 473.5,284.9 Q474.9,285.5 476.5,286.2 Q478.2,286.9 480.1,287.8 Q482.1,288.7 484.1,289.7 Q486.2,290.7 488.3,291.8 Q490.3,292.8 492.2,293.9 Q494.0,294.9 495.7,295.9 Q497.4,296.9 498.9,297.9 Q500.4,298.8 501.7,299.7 Q503.1,300.5 504.3,301.4 Q505.5,302.2 506.7,303.1 Q507.8,304.0 508.9,304.8 Q509.9,305.7 511.0,306.7 Q512.0,307.6 513.0,308.7 Q514.1,309.8 515.1,311.0 Q516.0,312.2 517.0,313.6 Q518.0,315.1 519.0,316.7 Q520.0,318.4 521.0,320.2 Q522.0,322.1 523.0,324.1 Q523.9,326.0 524.8,328.0 Q525.6,329.8 526.3,331.5 Q526.9,333.1 527.4,334.6 Q527.8,336.1 528.3,337.7 Q528.7,339.3 529.0,341.0 Q529.4,342.8 529.7,344.8 Q529.9,346.9 530.2,349.2 Q530.4,351.5 530.6,354.0 Q530.5,355.3 530.8,356.5 Q531.1,357.9 531.0,359.0 Q531.4,360.2 531.1,361.6 Q531.3,362.7 531.3,364.1 Q531.3,366.6 531.4,369.1 Q531.4,371.5 531.3,373.9 Q531.3,376.3 531.2,378.7 Q531.0,381.0 530.9,383.3 Q530.7,385.6 530.4,387.9 Q530.2,390.1 529.9,392.3 Q529.7,394.4 529.4,396.6 Z" fill="none" stroke="#008d27" stroke-linecap="round" stroke-linejoin="round" class="ring" style="--len:941;--op:0.417;--sw:1.3;--dur:8.0s;animation-delay:4.50s;stroke-width:1.27"/>
<path d="M528.8,400.8 Q528.4,402.9 528.0,405.0 Q527.6,407.1 527.1,409.1 Q526.5,411.2 525.9,413.3 Q525.1,415.3 524.3,417.4 Q523.5,419.4 522.6,421.5 Q521.7,423.6 520.8,425.6 Q519.9,427.7 519.1,429.8 Q518.3,431.9 517.5,434.0 Q516.8,436.2 516.1,438.3 Q515.4,440.5 514.8,442.7 Q514.2,445.0 513.7,447.2 Q513.1,449.5 512.6,451.8 Q512.1,454.1 511.6,456.4 Q511.1,458.8 510.6,461.1 Q510.1,463.4 509.7,465.7 Q509.3,468.0 508.9,470.3 Q508.5,472.5 508.1,474.8 Q507.6,477.0 507.1,479.2 Q506.6,481.3 506.0,483.5 Q505.3,485.6 504.6,487.6 Q503.8,489.7 502.9,491.7 Q502.0,493.6 501.0,495.6 Q499.9,497.5 498.7,499.4 Q497.4,501.2 496.1,503.1 Q494.8,504.9 493.3,506.7 Q491.8,508.5 490.3,510.3 Q488.7,512.1 487.1,513.8 Q485.4,515.5 483.7,517.1 Q481.9,518.7 480.1,520.3 Q478.2,521.8 476.3,523.3 Q474.3,524.8 472.4,526.2 Q470.6,527.4 469.2,528.4 Q468.1,529.1 467.0,529.8 Q466.1,530.5 465.1,531.2 Q463.8,532.2 462.1,533.3 Q460.2,534.6 458.4,535.9 Q456.6,537.2 455.0,538.5 Q453.4,539.7 451.9,540.9 Q450.5,542.0 449.2,543.1 Q447.9,544.2 446.7,545.2 Q445.5,546.2 444.4,547.2 Q443.2,548.2 442.1,549.1 Q440.9,550.1 439.7,551.0 Q438.6,551.9 437.4,552.8 Q436.2,553.7 434.9,554.6 Q433.6,555.5 432.3,556.3 Q431.0,557.2 429.5,558.1 Q428.0,558.9 426.5,559.8 Q424.9,560.6 423.2,561.5 Q421.6,562.3 419.9,563.1 Q418.2,564.0 416.6,564.8 Q414.9,565.6 413.3,566.4 Q411.7,567.1 410.1,567.9 Q408.5,568.6 407.0,569.3 Q405.5,570.0 404.0,570.7 Q402.4,571.3 400.9,571.9 Q399.3,572.5 397.6,573.1 Q395.9,573.7 394.1,574.3 Q392.2,574.8 390.2,575.4 Q388.2,575.9 386.0,576.4 Q383.9,576.9 381.7,577.4 Q379.4,577.8 377.2,578.2 Q375.0,578.5 372.8,578.8 Q370.6,579.1 368.6,579.3 Q366.6,579.5 364.6,579.6 Q362.7,579.6 360.9,579.7 Q359.0,579.7 357.2,579.6 Q355.4,579.5 353.5,579.4 Q351.7,579.2 349.8,579.0 Q347.9,578.7 345.9,578.4 Q343.9,578.1 341.9,577.7 Q339.9,577.3 337.9,576.8 Q336.0,576.2 334.0,575.6 Q332.2,575.0 330.4,574.3 Q328.6,573.5 326.9,572.8 Q325.2,571.9 323.6,571.1 Q322.0,570.2 320.4,569.3 Q318.7,568.3 317.1,567.4 Q315.4,566.4 313.7,565.3 Q312.1,564.3 310.3,563.1 Q308.6,562.0 306.9,560.8 Q305.2,559.6 303.5,558.3 Q301.8,556.9 300.1,555.5 Q298.5,554.0 296.8,552.5 Q295.2,550.9 293.6,549.3 Q292.0,547.6 290.4,545.8 Q288.8,544.0 287.3,542.1 Q285.7,540.1 284.3,538.2 Q282.9,536.1 281.6,534.1 Q280.3,532.0 279.2,530.0 Q278.2,528.0 277.3,526.0 Q276.5,524.0 275.7,522.2 Q275.1,520.3 274.6,518.6 Q274.1,516.9 273.7,515.2 Q273.3,513.6 273.0,512.0 Q272.7,510.4 272.4,508.7 Q272.1,507.0 271.8,505.3 Q271.5,503.5 271.2,501.7 Q270.9,499.7 270.6,497.7 Q270.4,495.7 270.1,493.5 Q269.8,491.3 269.5,489.0 Q269.2,486.7 268.9,484.4 Q268.6,482.1 268.3,479.9 Q268.0,477.7 267.7,475.5 Q267.3,473.3 266.9,471.2 Q266.6,469.0 266.2,466.8 Q265.9,464.5 265.6,462.3 Q265.4,460.0 265.1,457.8 Q264.9,455.7 264.8,453.6 Q264.7,451.5 264.6,449.4 Q264.6,447.3 264.6,445.4 Q264.6,443.5 264.6,441.5 Q264.6,439.3 264.7,437.0 Q264.8,434.6 265.0,432.3 Q265.1,429.9 265.3,427.6 Q265.5,425.3 265.8,423.1 Q266.0,420.8 266.3,418.6 Q266.5,416.3 266.7,414.1 Q266.9,411.8 267.1,409.6 Q267.3,407.3 267.4,405.0 Q267.6,402.7 267.7,400.5 Q267.9,398.2 268.0,395.9 Q268.2,393.5 268.3,391.2 Q268.5,388.9 268.6,386.6 Q268.7,384.3 268.8,381.9 Q268.9,379.6 269.0,377.3 Q269.2,374.9 269.4,372.6 Q269.6,370.3 269.8,367.9 Q270.1,365.6 270.5,363.2 Q270.9,360.8 271.4,358.4 Q272.0,356.0 272.6,354.7 Q272.6,353.6 273.0,352.7 Q273.3,351.1 273.9,348.8 Q274.4,346.7 274.8,345.1 Q275.1,343.7 275.4,342.4 Q275.7,341.1 276.1,339.7 Q276.4,338.1 276.8,336.1 Q277.3,333.8 277.7,331.5 Q278.1,329.4 278.5,327.5 Q278.9,325.8 279.3,324.1 Q279.7,322.5 280.2,320.8 Q280.7,319.0 281.4,317.1 Q282.0,315.1 282.8,313.0 Q283.6,310.7 284.5,308.5 Q285.4,306.2 286.4,304.0 Q287.4,301.8 288.4,299.7 Q289.5,297.7 290.6,295.8 Q291.7,293.9 292.8,292.1 Q294.0,290.4 295.1,288.8 Q296.3,287.3 297.4,285.9 Q298.5,284.7 299.6,283.6 Q300.7,282.6 301.8,281.6 Q302.9,280.8 304.1,280.0 Q305.3,279.2 306.6,278.4 Q308.1,277.6 309.6,276.9 Q311.3,276.1 313.2,275.2 Q315.1,274.4 317.2,273.6 Q319.3,272.8 321.5,272.0 Q323.8,271.3 326.1,270.6 Q328.4,270.0 330.8,269.5 Q333.1,269.1 335.5,268.7 Q337.8,268.4 340.2,268.2 Q342.6,268.0 345.0,267.9 Q347.4,267.7 349.8,267.6 Q352.2,267.4 354.6,267.3 Q356.9,267.1 359.3,266.9 Q361.7,266.8 364.1,266.6 Q366.4,266.5 368.8,266.4 Q371.1,266.4 373.5,266.4 Q375.8,266.4 378.2,266.5 Q380.5,266.6 382.9,266.8 Q385.2,267.0 387.5,267.3 Q389.8,267.5 392.1,267.8 Q394.4,268.1 396.7,268.4 Q399.0,268.7 401.3,269.1 Q403.5,269.4 405.8,269.7 Q408.0,270.0 410.2,270.4 Q412.4,270.7 414.6,271.0 Q416.9,271.4 419.1,271.7 Q421.3,272.0 423.5,272.3 Q425.7,272.6 427.9,272.8 Q430.1,273.1 432.4,273.4 Q434.6,273.7 436.8,274.0 Q439.1,274.3 441.4,274.6 Q443.7,275.0 445.9,275.4 Q448.2,275.9 450.5,276.5 Q452.9,277.1 455.1,277.8 Q457.4,278.5 459.5,279.3 Q461.5,280.0 463.5,280.7 Q465.3,281.5 467.1,282.2 Q468.8,282.9 470.4,283.6 Q472.0,284.2 473.5,284.9 Q474.9,285.5 476.5,286.2 Q478.2,286.9 480.1,287.8 Q482.1,288.7 484.1,289.7 Q486.2,290.7 488.3,291.8 Q490.3,292.8 492.2,293.9 Q494.0,294.9 495.7,295.9 Q497.4,296.9 498.9,297.9 Q500.4,298.8 501.7,299.7 Q503.1,300.5 504.3,301.4 Q505.5,302.2 506.7,303.1 Q507.8,304.0 508.9,304.8 Q509.9,305.7 511.0,306.7 Q512.0,307.6 513.0,308.7 Q514.1,309.8 515.1,311.0 Q516.0,312.2 517.0,313.6 Q518.0,315.1 519.0,316.7 Q520.0,318.4 521.0,320.2 Q522.0,322.1 523.0,324.1 Q523.9,326.0 524.8,328.0 Q525.6,329.8 526.3,331.5 Q526.9,333.1 527.4,334.6 Q527.8,336.1 528.3,337.7 Q528.7,339.3 529.0,341.0 Q529.4,342.8 529.7,344.8 Q529.9,346.9 530.2,349.2 Q530.4,351.5 530.6,354.0 Q530.5,355.3 530.8,356.5 Q531.1,357.9 531.0,359.0 Q531.4,360.2 531.1,361.6 Q531.3,362.7 531.3,364.1 Q531.3,366.6 531.4,369.1 Q531.4,371.5 531.3,373.9 Q531.3,376.3 531.2,378.7 Q531.0,381.0 530.9,383.3 Q530.7,385.6 530.4,387.9 Q530.2,390.1 529.9,392.3 Q529.7,394.4 529.4,396.6 Z" fill="#002948" fill-opacity="0.0333" stroke="none" class="ring" style="--len:941;--op:1;--dur:8.0s;animation-delay:4.50s"/>
<path d="M567.9,407.8 Q568.2,409.3 568.5,410.8 Q568.7,412.3 569.0,413.8 Q569.1,415.3 569.3,416.8 Q569.4,418.3 569.6,419.9 Q569.7,421.4 569.8,423.0 Q569.9,424.5 569.9,426.0 Q570.0,427.6 570.1,429.1 Q570.2,430.7 570.3,432.2 Q570.4,433.8 570.5,435.3 Q570.6,436.9 570.7,438.5 Q570.8,440.0 570.9,441.6 Q571.1,443.2 571.2,444.7 Q571.3,446.3 571.4,447.9 Q571.6,449.5 571.7,451.1 Q571.9,452.6 572.1,454.2 Q572.3,455.8 572.5,457.4 Q572.8,459.0 573.0,460.5 Q573.3,462.1 573.6,463.7 Q573.9,465.2 574.1,466.8 Q574.4,468.3 574.6,469.9 Q574.8,471.4 575.0,472.9 Q575.2,474.4 575.2,475.9 Q575.3,477.4 575.2,478.9 Q575.2,480.4 575.0,482.0 Q574.8,483.5 574.5,484.9 Q574.2,486.4 573.8,487.9 Q573.4,489.4 573.0,490.8 Q572.4,492.3 571.9,493.7 Q571.3,495.2 570.7,496.6 Q570.1,498.0 569.4,499.4 Q568.6,500.8 567.9,502.1 Q567.1,503.5 566.3,504.8 Q565.4,506.1 564.5,507.4 Q563.6,508.7 562.5,510.0 Q561.5,511.2 560.4,512.4 Q559.2,513.6 557.9,514.8 Q556.7,516.0 555.3,517.1 Q554.0,518.2 552.6,519.2 Q551.2,520.2 549.8,521.2 Q548.4,522.1 546.9,523.0 Q545.5,523.9 544.1,524.8 Q542.7,525.6 541.2,526.5 Q539.8,527.3 538.4,528.1 Q537.0,528.9 535.6,529.7 Q534.3,530.5 532.9,531.3 Q531.6,532.2 530.3,533.0 Q529.0,533.8 527.8,534.6 Q526.5,535.4 525.2,536.2 Q524.0,537.1 522.7,537.9 Q521.5,538.7 520.2,539.6 Q518.9,540.5 517.7,541.3 Q516.4,542.2 515.1,543.1 Q513.7,544.0 512.4,544.9 Q511.1,545.8 509.8,546.8 Q508.4,547.8 507.0,548.8 Q505.7,549.8 504.3,550.8 Q503.0,551.8 501.6,552.9 Q500.3,554.0 499.0,555.0 Q497.6,556.1 496.3,557.2 Q495.0,558.2 493.6,559.2 Q492.3,560.2 491.0,561.1 Q489.7,562.1 488.4,563.0 Q487.1,563.9 485.8,564.7 Q484.4,565.6 483.1,566.4 Q481.8,567.2 480.5,568.0 Q479.2,568.8 477.9,569.5 Q476.7,570.3 475.4,571.0 Q474.1,571.7 472.8,572.4 Q471.5,573.1 470.2,573.8 Q468.9,574.4 467.6,575.0 Q466.3,575.6 464.9,576.2 Q463.6,576.8 462.2,577.3 Q460.8,577.9 459.4,578.4 Q457.9,578.9 456.5,579.4 Q455.0,580.0 453.5,580.5 Q452.0,581.2 450.4,581.8 Q448.9,582.5 447.3,583.2 Q445.7,584.0 444.1,584.8 Q442.5,585.5 440.9,586.3 Q439.2,587.1 437.6,587.8 Q435.9,588.6 434.2,589.2 Q432.5,589.9 430.8,590.5 Q429.0,591.0 427.3,591.5 Q425.6,591.9 423.8,592.3 Q422.1,592.6 420.4,592.8 Q418.6,592.9 416.9,593.0 Q415.2,592.9 413.5,592.9 Q411.8,592.7 410.1,592.6 Q408.4,592.3 406.7,592.1 Q405.0,591.8 403.3,591.5 Q401.6,591.1 400.0,590.7 Q398.3,590.3 396.7,589.8 Q395.1,589.4 393.5,588.9 Q391.9,588.5 390.3,588.0 Q388.7,587.6 387.1,587.1 Q385.5,586.7 384.0,586.4 Q382.4,586.0 380.9,585.7 Q379.4,585.4 377.9,585.1 Q376.4,584.8 374.9,584.4 Q373.5,584.1 372.0,583.8 Q370.6,583.5 369.2,583.2 Q367.8,582.8 366.5,582.4 Q365.1,582.0 363.8,581.6 Q362.4,581.2 361.1,580.7 Q359.8,580.3 358.5,579.8 Q357.1,579.2 355.8,578.7 Q354.5,578.2 353.2,577.6 Q351.9,577.0 350.6,576.4 Q349.2,575.9 347.9,575.3 Q346.6,574.7 345.3,574.1 Q343.9,573.5 342.6,572.9 Q341.3,572.3 340.0,571.7 Q338.7,571.0 337.4,570.4 Q336.0,569.8 334.7,569.1 Q333.4,568.5 332.1,567.9 Q330.8,567.2 329.4,566.6 Q328.1,566.0 326.8,565.3 Q325.5,564.7 324.2,564.1 Q322.8,563.5 321.5,562.9 Q320.2,562.3 318.8,561.7 Q317.5,561.2 316.2,560.6 Q314.8,560.0 313.5,559.4 Q312.1,558.7 310.8,558.1 Q309.4,557.5 308.1,556.9 Q306.8,556.3 305.4,555.6 Q304.1,555.0 302.8,554.4 Q301.5,553.7 300.3,553.1 Q299.0,552.4 297.7,551.7 Q296.5,550.9 295.2,550.2 Q294.0,549.4 292.7,548.5 Q291.5,547.6 290.3,546.7 Q289.1,545.8 287.9,544.8 Q286.6,543.8 285.4,542.7 Q284.2,541.7 283.0,540.6 Q281.7,539.5 280.5,538.4 Q279.3,537.2 278.0,536.1 Q276.8,534.9 275.5,533.8 Q274.3,532.6 273.1,531.4 Q271.9,530.2 270.7,529.0 Q269.6,527.8 268.4,526.6 Q267.2,525.4 266.1,524.2 Q264.9,523.0 263.8,521.8 Q262.7,520.6 261.6,519.4 Q260.5,518.2 259.4,517.0 Q258.4,515.8 257.4,514.5 Q256.4,513.3 255.5,512.0 Q254.6,510.8 253.7,509.5 Q252.9,508.2 252.0,506.9 Q251.2,505.7 250.3,504.4 Q249.5,503.1 248.7,501.8 Q247.8,500.5 247.0,499.1 Q246.2,497.8 245.4,496.4 Q244.5,495.1 243.7,493.7 Q242.9,492.2 242.1,490.8 Q241.3,489.3 240.5,487.9 Q239.6,486.4 238.8,484.9 Q237.9,483.4 237.0,481.9 Q236.2,480.4 235.3,478.9 Q234.4,477.4 233.6,475.9 Q232.8,474.4 232.0,472.9 Q231.2,471.4 230.4,470.0 Q229.7,468.5 229.0,467.0 Q228.3,465.6 227.6,464.1 Q227.0,462.7 226.4,461.3 Q225.8,459.8 225.2,458.4 Q224.6,457.0 224.1,455.6 Q223.6,454.1 223.1,452.7 Q222.5,451.3 222.0,449.8 Q221.5,448.4 220.9,447.0 Q220.4,445.6 219.8,444.1 Q219.3,442.7 218.7,441.3 Q218.2,439.8 217.6,438.4 Q217.1,436.9 216.6,435.5 Q216.1,434.0 215.7,432.5 Q215.3,431.1 215.0,429.6 Q214.7,428.1 214.4,426.6 Q214.2,425.2 214.0,423.7 Q213.9,422.2 213.7,420.7 Q213.6,419.2 213.5,417.6 Q213.5,416.1 213.4,414.5 Q213.3,413.0 213.3,411.4 Q213.3,409.8 213.3,408.2 Q213.3,406.6 213.4,405.0 Q213.5,403.3 213.5,401.7 Q213.7,400.1 213.8,398.4 Q213.9,396.8 214.0,395.2 Q214.2,393.6 214.3,392.0 Q214.5,390.4 214.6,388.8 Q214.8,387.2 214.9,385.5 Q215.1,383.9 215.2,382.3 Q215.4,380.7 215.5,379.0 Q215.7,377.4 215.9,375.7 Q216.1,374.1 216.3,372.4 Q216.6,370.8 216.9,369.1 Q217.3,367.5 217.7,365.9 Q218.1,364.2 218.6,362.6 Q219.2,361.0 219.7,359.4 Q220.3,357.8 220.9,356.2 Q221.6,354.6 222.2,353.0 Q222.8,351.4 223.4,349.9 Q224.0,348.3 224.6,346.8 Q225.2,345.3 225.8,343.9 Q226.4,342.4 226.9,341.0 Q227.5,339.6 228.1,338.2 Q228.6,336.9 229.2,335.5 Q229.7,334.2 230.2,332.9 Q230.8,331.5 231.3,330.2 Q231.9,328.9 232.5,327.6 Q233.0,326.3 233.6,325.0 Q234.2,323.7 234.8,322.4 Q235.4,321.2 236.0,319.9 Q236.5,318.6 237.1,317.4 Q237.7,316.1 238.2,314.9 Q238.8,313.6 239.3,312.4 Q239.9,311.1 240.4,309.9 Q241.0,308.6 241.6,307.4 Q242.3,306.2 243.0,304.9 Q243.7,303.7 244.4,302.4 Q245.1,301.2 245.9,299.9 Q246.7,298.7 247.5,297.4 Q248.3,296.2 249.1,295.0 Q249.9,293.8 250.8,292.6 Q251.6,291.4 252.4,290.3 Q253.3,289.1 254.1,288.0 Q255.0,286.9 255.8,285.8 Q256.7,284.7 257.6,283.7 Q258.5,282.6 259.3,281.6 Q260.3,280.6 261.2,279.6 Q262.1,278.6 263.1,277.6 Q264.1,276.7 265.1,275.7 Q266.1,274.8 267.2,273.9 Q268.3,273.0 269.4,272.0 Q270.6,271.2 271.8,270.3 Q273.0,269.4 274.2,268.5 Q275.5,267.6 276.8,266.7 Q278.1,265.8 279.4,264.9 Q280.8,263.9 282.1,263.0 Q283.5,262.1 284.8,261.2 Q286.2,260.2 287.6,259.2 Q289.0,258.3 290.3,257.3 Q291.7,256.3 293.0,255.3 Q294.4,254.3 295.7,253.3 Q297.1,252.3 298.4,251.2 Q299.8,250.2 301.1,249.1 Q302.5,248.1 303.9,247.0 Q305.3,245.9 306.7,244.8 Q308.2,243.6 309.7,242.4 Q311.2,241.2 312.8,240.0 Q314.4,238.7 316.0,237.4 Q317.7,236.0 319.4,234.7 Q321.1,233.3 322.9,231.9 Q324.6,230.5 326.4,229.1 Q328.2,227.7 329.9,226.3 Q331.6,224.9 333.4,223.6 Q335.1,222.3 336.7,221.1 Q338.4,219.9 340.1,218.7 Q341.7,217.6 343.3,216.6 Q345.0,215.5 346.6,214.5 Q348.3,213.6 349.9,212.6 Q351.6,211.7 353.3,210.9 Q354.9,210.1 356.6,209.3 Q358.3,208.5 360.0,207.7 Q361.8,207.0 363.5,206.3 Q365.2,205.5 366.9,204.8 Q368.6,204.1 370.4,203.4 Q372.1,202.7 373.8,202.0 Q375.6,201.3 377.3,200.6 Q379.1,199.9 380.8,199.3 Q382.6,198.7 384.3,198.1 Q386.0,197.6 387.8,197.1 Q389.5,196.7 391.2,196.3 Q393.0,195.9 394.7,195.6 Q396.5,195.3 398.2,195.0 Q399.9,194.8 401.7,194.5 Q403.4,194.3 405.2,194.1 Q406.9,193.9 408.7,193.7 Q410.4,193.5 412.2,193.3 Q413.9,193.1 415.7,192.9 Q417.5,192.7 419.2,192.5 Q421.0,192.4 422.8,192.3 Q424.6,192.2 426.4,192.1 Q428.1,192.1 429.9,192.1 Q431.6,192.1 433.3,192.2 Q435.0,192.4 436.7,192.6 Q438.3,192.9 439.9,193.2 Q441.6,193.6 443.1,194.0 Q444.7,194.5 446.3,195.1 Q447.8,195.7 449.4,196.4 Q450.9,197.1 452.4,197.9 Q453.9,198.7 455.4,199.5 Q456.9,200.3 458.4,201.2 Q459.8,202.0 461.2,202.9 Q462.6,203.8 464.0,204.6 Q465.3,205.5 466.7,206.4 Q468.0,207.4 469.3,208.3 Q470.6,209.3 471.9,210.4 Q473.1,211.4 474.4,212.5 Q475.6,213.7 476.8,214.9 Q478.1,216.1 479.2,217.4 Q480.4,218.7 481.6,220.0 Q482.7,221.3 483.8,222.7 Q484.9,224.1 486.0,225.5 Q487.0,226.9 488.1,228.3 Q489.0,229.7 490.0,231.2 Q490.9,232.6 491.8,234.0 Q492.6,235.4 493.4,236.8 Q494.2,238.2 495.0,239.6 Q495.7,240.9 496.5,242.3 Q497.2,243.7 497.9,245.0 Q498.6,246.4 499.3,247.7 Q500.0,249.1 500.7,250.4 Q501.4,251.8 502.0,253.2 Q502.7,254.5 503.3,255.9 Q503.9,257.3 504.6,258.6 Q505.2,260.0 505.8,261.5 Q506.5,262.9 507.1,264.3 Q507.8,265.7 508.5,267.1 Q509.2,268.6 510.0,270.0 Q510.7,271.4 511.5,272.9 Q512.3,274.3 513.1,275.7 Q513.9,277.2 514.7,278.6 Q515.6,280.0 516.4,281.4 Q517.3,282.9 518.1,284.3 Q519.0,285.7 519.9,287.0 Q520.7,288.4 521.6,289.8 Q522.4,291.2 523.2,292.5 Q524.1,293.9 524.8,295.3 Q525.6,296.6 526.4,298.0 Q527.1,299.3 527.8,300.6 Q528.5,302.0 529.2,303.3 Q530.0,304.6 530.7,305.8 Q531.4,307.1 532.1,308.3 Q532.9,309.6 533.6,310.8 Q534.3,312.1 535.1,313.3 Q535.8,314.6 536.5,315.9 Q537.2,317.2 537.9,318.4 Q538.6,319.8 539.3,321.1 Q539.9,322.4 540.6,323.7 Q541.3,325.1 541.9,326.4 Q542.6,327.8 543.3,329.1 Q544.0,330.5 544.7,331.8 Q545.4,333.2 546.1,334.6 Q546.8,336.0 547.5,337.4 Q548.2,338.8 548.9,340.3 Q549.6,341.7 550.3,343.2 Q551.0,344.6 551.6,346.0 Q552.3,347.5 552.9,348.9 Q553.4,350.3 553.9,351.7 Q554.4,353.1 554.8,354.5 Q555.2,355.9 555.6,357.3 Q556.0,358.7 556.3,360.1 Q556.7,361.4 557.0,362.8 Q557.4,364.2 557.7,365.6 Q558.1,367.0 558.5,368.4 Q558.9,369.8 559.3,371.2 Q559.6,372.6 560.0,374.0 Q560.4,375.4 560.8,376.8 Q561.1,378.2 561.5,379.6 Q561.9,380.9 562.2,382.3 Q562.5,383.7 562.9,385.1 Q563.2,386.5 563.5,387.9 Q563.8,389.3 564.1,390.7 Q564.4,392.1 564.7,393.5 Q565.0,394.9 565.3,396.3 Q565.6,397.8 565.9,399.2 Q566.2,400.6 566.6,402.0 Q567.0,403.5 567.3,404.9 Z" fill="none" stroke="#7ca500" stroke-linecap="round" stroke-linejoin="round" class="ring" style="--len:1175;--op:0.333;--sw:0.9;--dur:10.0s;animation-delay:9.00s;stroke-width:0.93"/>
<path d="M567.9,407.8 Q568.2,409.3 568.5,410.8 Q568.7,412.3 569.0,413.8 Q569.1,415.3 569.3,416.8 Q569.4,418.3 569.6,419.9 Q569.7,421.4 569.8,423.0 Q569.9,424.5 569.9,426.0 Q570.0,427.6 570.1,429.1 Q570.2,430.7 570.3,432.2 Q570.4,433.8 570.5,435.3 Q570.6,436.9 570.7,438.5 Q570.8,440.0 570.9,441.6 Q571.1,443.2 571.2,444.7 Q571.3,446.3 571.4,447.9 Q571.6,449.5 571.7,451.1 Q571.9,452.6 572.1,454.2 Q572.3,455.8 572.5,457.4 Q572.8,459.0 573.0,460.5 Q573.3,462.1 573.6,463.7 Q573.9,465.2 574.1,466.8 Q574.4,468.3 574.6,469.9 Q574.8,471.4 575.0,472.9 Q575.2,474.4 575.2,475.9 Q575.3,477.4 575.2,478.9 Q575.2,480.4 575.0,482.0 Q574.8,483.5 574.5,484.9 Q574.2,486.4 573.8,487.9 Q573.4,489.4 573.0,490.8 Q572.4,492.3 571.9,493.7 Q571.3,495.2 570.7,496.6 Q570.1,498.0 569.4,499.4 Q568.6,500.8 567.9,502.1 Q567.1,503.5 566.3,504.8 Q565.4,506.1 564.5,507.4 Q563.6,508.7 562.5,510.0 Q561.5,511.2 560.4,512.4 Q559.2,513.6 557.9,514.8 Q556.7,516.0 555.3,517.1 Q554.0,518.2 552.6,519.2 Q551.2,520.2 549.8,521.2 Q548.4,522.1 546.9,523.0 Q545.5,523.9 544.1,524.8 Q542.7,525.6 541.2,526.5 Q539.8,527.3 538.4,528.1 Q537.0,528.9 535.6,529.7 Q534.3,530.5 532.9,531.3 Q531.6,532.2 530.3,533.0 Q529.0,533.8 527.8,534.6 Q526.5,535.4 525.2,536.2 Q524.0,537.1 522.7,537.9 Q521.5,538.7 520.2,539.6 Q518.9,540.5 517.7,541.3 Q516.4,542.2 515.1,543.1 Q513.7,544.0 512.4,544.9 Q511.1,545.8 509.8,546.8 Q508.4,547.8 507.0,548.8 Q505.7,549.8 504.3,550.8 Q503.0,551.8 501.6,552.9 Q500.3,554.0 499.0,555.0 Q497.6,556.1 496.3,557.2 Q495.0,558.2 493.6,559.2 Q492.3,560.2 491.0,561.1 Q489.7,562.1 488.4,563.0 Q487.1,563.9 485.8,564.7 Q484.4,565.6 483.1,566.4 Q481.8,567.2 480.5,568.0 Q479.2,568.8 477.9,569.5 Q476.7,570.3 475.4,571.0 Q474.1,571.7 472.8,572.4 Q471.5,573.1 470.2,573.8 Q468.9,574.4 467.6,575.0 Q466.3,575.6 464.9,576.2 Q463.6,576.8 462.2,577.3 Q460.8,577.9 459.4,578.4 Q457.9,578.9 456.5,579.4 Q455.0,580.0 453.5,580.5 Q452.0,581.2 450.4,581.8 Q448.9,582.5 447.3,583.2 Q445.7,584.0 444.1,584.8 Q442.5,585.5 440.9,586.3 Q439.2,587.1 437.6,587.8 Q435.9,588.6 434.2,589.2 Q432.5,589.9 430.8,590.5 Q429.0,591.0 427.3,591.5 Q425.6,591.9 423.8,592.3 Q422.1,592.6 420.4,592.8 Q418.6,592.9 416.9,593.0 Q415.2,592.9 413.5,592.9 Q411.8,592.7 410.1,592.6 Q408.4,592.3 406.7,592.1 Q405.0,591.8 403.3,591.5 Q401.6,591.1 400.0,590.7 Q398.3,590.3 396.7,589.8 Q395.1,589.4 393.5,588.9 Q391.9,588.5 390.3,588.0 Q388.7,587.6 387.1,587.1 Q385.5,586.7 384.0,586.4 Q382.4,586.0 380.9,585.7 Q379.4,585.4 377.9,585.1 Q376.4,584.8 374.9,584.4 Q373.5,584.1 372.0,583.8 Q370.6,583.5 369.2,583.2 Q367.8,582.8 366.5,582.4 Q365.1,582.0 363.8,581.6 Q362.4,581.2 361.1,580.7 Q359.8,580.3 358.5,579.8 Q357.1,579.2 355.8,578.7 Q354.5,578.2 353.2,577.6 Q351.9,577.0 350.6,576.4 Q349.2,575.9 347.9,575.3 Q346.6,574.7 345.3,574.1 Q343.9,573.5 342.6,572.9 Q341.3,572.3 340.0,571.7 Q338.7,571.0 337.4,570.4 Q336.0,569.8 334.7,569.1 Q333.4,568.5 332.1,567.9 Q330.8,567.2 329.4,566.6 Q328.1,566.0 326.8,565.3 Q325.5,564.7 324.2,564.1 Q322.8,563.5 321.5,562.9 Q320.2,562.3 318.8,561.7 Q317.5,561.2 316.2,560.6 Q314.8,560.0 313.5,559.4 Q312.1,558.7 310.8,558.1 Q309.4,557.5 308.1,556.9 Q306.8,556.3 305.4,555.6 Q304.1,555.0 302.8,554.4 Q301.5,553.7 300.3,553.1 Q299.0,552.4 297.7,551.7 Q296.5,550.9 295.2,550.2 Q294.0,549.4 292.7,548.5 Q291.5,547.6 290.3,546.7 Q289.1,545.8 287.9,544.8 Q286.6,543.8 285.4,542.7 Q284.2,541.7 283.0,540.6 Q281.7,539.5 280.5,538.4 Q279.3,537.2 278.0,536.1 Q276.8,534.9 275.5,533.8 Q274.3,532.6 273.1,531.4 Q271.9,530.2 270.7,529.0 Q269.6,527.8 268.4,526.6 Q267.2,525.4 266.1,524.2 Q264.9,523.0 263.8,521.8 Q262.7,520.6 261.6,519.4 Q260.5,518.2 259.4,517.0 Q258.4,515.8 257.4,514.5 Q256.4,513.3 255.5,512.0 Q254.6,510.8 253.7,509.5 Q252.9,508.2 252.0,506.9 Q251.2,505.7 250.3,504.4 Q249.5,503.1 248.7,501.8 Q247.8,500.5 247.0,499.1 Q246.2,497.8 245.4,496.4 Q244.5,495.1 243.7,493.7 Q242.9,492.2 242.1,490.8 Q241.3,489.3 240.5,487.9 Q239.6,486.4 238.8,484.9 Q237.9,483.4 237.0,481.9 Q236.2,480.4 235.3,478.9 Q234.4,477.4 233.6,475.9 Q232.8,474.4 232.0,472.9 Q231.2,471.4 230.4,470.0 Q229.7,468.5 229.0,467.0 Q228.3,465.6 227.6,464.1 Q227.0,462.7 226.4,461.3 Q225.8,459.8 225.2,458.4 Q224.6,457.0 224.1,455.6 Q223.6,454.1 223.1,452.7 Q222.5,451.3 222.0,449.8 Q221.5,448.4 220.9,447.0 Q220.4,445.6 219.8,444.1 Q219.3,442.7 218.7,441.3 Q218.2,439.8 217.6,438.4 Q217.1,436.9 216.6,435.5 Q216.1,434.0 215.7,432.5 Q215.3,431.1 215.0,429.6 Q214.7,428.1 214.4,426.6 Q214.2,425.2 214.0,423.7 Q213.9,422.2 213.7,420.7 Q213.6,419.2 213.5,417.6 Q213.5,416.1 213.4,414.5 Q213.3,413.0 213.3,411.4 Q213.3,409.8 213.3,408.2 Q213.3,406.6 213.4,405.0 Q213.5,403.3 213.5,401.7 Q213.7,400.1 213.8,398.4 Q213.9,396.8 214.0,395.2 Q214.2,393.6 214.3,392.0 Q214.5,390.4 214.6,388.8 Q214.8,387.2 214.9,385.5 Q215.1,383.9 215.2,382.3 Q215.4,380.7 215.5,379.0 Q215.7,377.4 215.9,375.7 Q216.1,374.1 216.3,372.4 Q216.6,370.8 216.9,369.1 Q217.3,367.5 217.7,365.9 Q218.1,364.2 218.6,362.6 Q219.2,361.0 219.7,359.4 Q220.3,357.8 220.9,356.2 Q221.6,354.6 222.2,353.0 Q222.8,351.4 223.4,349.9 Q224.0,348.3 224.6,346.8 Q225.2,345.3 225.8,343.9 Q226.4,342.4 226.9,341.0 Q227.5,339.6 228.1,338.2 Q228.6,336.9 229.2,335.5 Q229.7,334.2 230.2,332.9 Q230.8,331.5 231.3,330.2 Q231.9,328.9 232.5,327.6 Q233.0,326.3 233.6,325.0 Q234.2,323.7 234.8,322.4 Q235.4,321.2 236.0,319.9 Q236.5,318.6 237.1,317.4 Q237.7,316.1 238.2,314.9 Q238.8,313.6 239.3,312.4 Q239.9,311.1 240.4,309.9 Q241.0,308.6 241.6,307.4 Q242.3,306.2 243.0,304.9 Q243.7,303.7 244.4,302.4 Q245.1,301.2 245.9,299.9 Q246.7,298.7 247.5,297.4 Q248.3,296.2 249.1,295.0 Q249.9,293.8 250.8,292.6 Q251.6,291.4 252.4,290.3 Q253.3,289.1 254.1,288.0 Q255.0,286.9 255.8,285.8 Q256.7,284.7 257.6,283.7 Q258.5,282.6 259.3,281.6 Q260.3,280.6 261.2,279.6 Q262.1,278.6 263.1,277.6 Q264.1,276.7 265.1,275.7 Q266.1,274.8 267.2,273.9 Q268.3,273.0 269.4,272.0 Q270.6,271.2 271.8,270.3 Q273.0,269.4 274.2,268.5 Q275.5,267.6 276.8,266.7 Q278.1,265.8 279.4,264.9 Q280.8,263.9 282.1,263.0 Q283.5,262.1 284.8,261.2 Q286.2,260.2 287.6,259.2 Q289.0,258.3 290.3,257.3 Q291.7,256.3 293.0,255.3 Q294.4,254.3 295.7,253.3 Q297.1,252.3 298.4,251.2 Q299.8,250.2 301.1,249.1 Q302.5,248.1 303.9,247.0 Q305.3,245.9 306.7,244.8 Q308.2,243.6 309.7,242.4 Q311.2,241.2 312.8,240.0 Q314.4,238.7 316.0,237.4 Q317.7,236.0 319.4,234.7 Q321.1,233.3 322.9,231.9 Q324.6,230.5 326.4,229.1 Q328.2,227.7 329.9,226.3 Q331.6,224.9 333.4,223.6 Q335.1,222.3 336.7,221.1 Q338.4,219.9 340.1,218.7 Q341.7,217.6 343.3,216.6 Q345.0,215.5 346.6,214.5 Q348.3,213.6 349.9,212.6 Q351.6,211.7 353.3,210.9 Q354.9,210.1 356.6,209.3 Q358.3,208.5 360.0,207.7 Q361.8,207.0 363.5,206.3 Q365.2,205.5 366.9,204.8 Q368.6,204.1 370.4,203.4 Q372.1,202.7 373.8,202.0 Q375.6,201.3 377.3,200.6 Q379.1,199.9 380.8,199.3 Q382.6,198.7 384.3,198.1 Q386.0,197.6 387.8,197.1 Q389.5,196.7 391.2,196.3 Q393.0,195.9 394.7,195.6 Q396.5,195.3 398.2,195.0 Q399.9,194.8 401.7,194.5 Q403.4,194.3 405.2,194.1 Q406.9,193.9 408.7,193.7 Q410.4,193.5 412.2,193.3 Q413.9,193.1 415.7,192.9 Q417.5,192.7 419.2,192.5 Q421.0,192.4 422.8,192.3 Q424.6,192.2 426.4,192.1 Q428.1,192.1 429.9,192.1 Q431.6,192.1 433.3,192.2 Q435.0,192.4 436.7,192.6 Q438.3,192.9 439.9,193.2 Q441.6,193.6 443.1,194.0 Q444.7,194.5 446.3,195.1 Q447.8,195.7 449.4,196.4 Q450.9,197.1 452.4,197.9 Q453.9,198.7 455.4,199.5 Q456.9,200.3 458.4,201.2 Q459.8,202.0 461.2,202.9 Q462.6,203.8 464.0,204.6 Q465.3,205.5 466.7,206.4 Q468.0,207.4 469.3,208.3 Q470.6,209.3 471.9,210.4 Q473.1,211.4 474.4,212.5 Q475.6,213.7 476.8,214.9 Q478.1,216.1 479.2,217.4 Q480.4,218.7 481.6,220.0 Q482.7,221.3 483.8,222.7 Q484.9,224.1 486.0,225.5 Q487.0,226.9 488.1,228.3 Q489.0,229.7 490.0,231.2 Q490.9,232.6 491.8,234.0 Q492.6,235.4 493.4,236.8 Q494.2,238.2 495.0,239.6 Q495.7,240.9 496.5,242.3 Q497.2,243.7 497.9,245.0 Q498.6,246.4 499.3,247.7 Q500.0,249.1 500.7,250.4 Q501.4,251.8 502.0,253.2 Q502.7,254.5 503.3,255.9 Q503.9,257.3 504.6,258.6 Q505.2,260.0 505.8,261.5 Q506.5,262.9 507.1,264.3 Q507.8,265.7 508.5,267.1 Q509.2,268.6 510.0,270.0 Q510.7,271.4 511.5,272.9 Q512.3,274.3 513.1,275.7 Q513.9,277.2 514.7,278.6 Q515.6,280.0 516.4,281.4 Q517.3,282.9 518.1,284.3 Q519.0,285.7 519.9,287.0 Q520.7,288.4 521.6,289.8 Q522.4,291.2 523.2,292.5 Q524.1,293.9 524.8,295.3 Q525.6,296.6 526.4,298.0 Q527.1,299.3 527.8,300.6 Q528.5,302.0 529.2,303.3 Q530.0,304.6 530.7,305.8 Q531.4,307.1 532.1,308.3 Q532.9,309.6 533.6,310.8 Q534.3,312.1 535.1,313.3 Q535.8,314.6 536.5,315.9 Q537.2,317.2 537.9,318.4 Q538.6,319.8 539.3,321.1 Q539.9,322.4 540.6,323.7 Q541.3,325.1 541.9,326.4 Q542.6,327.8 543.3,329.1 Q544.0,330.5 544.7,331.8 Q545.4,333.2 546.1,334.6 Q546.8,336.0 547.5,337.4 Q548.2,338.8 548.9,340.3 Q549.6,341.7 550.3,343.2 Q551.0,344.6 551.6,346.0 Q552.3,347.5 552.9,348.9 Q553.4,350.3 553.9,351.7 Q554.4,353.1 554.8,354.5 Q555.2,355.9 555.6,357.3 Q556.0,358.7 556.3,360.1 Q556.7,361.4 557.0,362.8 Q557.4,364.2 557.7,365.6 Q558.1,367.0 558.5,368.4 Q558.9,369.8 559.3,371.2 Q559.6,372.6 560.0,374.0 Q560.4,375.4 560.8,376.8 Q561.1,378.2 561.5,379.6 Q561.9,380.9 562.2,382.3 Q562.5,383.7 562.9,385.1 Q563.2,386.5 563.5,387.9 Q563.8,389.3 564.1,390.7 Q564.4,392.1 564.7,393.5 Q565.0,394.9 565.3,396.3 Q565.6,397.8 565.9,399.2 Q566.2,400.6 566.6,402.0 Q567.0,403.5 567.3,404.9 Z" fill="#00554c" fill-opacity="0.0267" stroke="none" class="ring" style="--len:1175;--op:1;--dur:10.0s;animation-delay:9.00s"/>
</g>
<rect width="800" height="800" fill="url(#vig)"/>
</svg>
