<svg xmlns="http://www.w3.org/2000/svg" viewBox="0 0 800 800" width="800" height="800">
<defs>
  <filter id="bloom" x="-50%" y="-50%" width="200%" height="200%">
    <feGaussianBlur in="SourceGraphic" stdDeviation="2" result="b1"/>
    <feGaussianBlur in="SourceGraphic" stdDeviation="6" result="b2"/>
    <feGaussianBlur in="SourceGraphic" stdDeviation="14" result="b3"/>
    <feColorMatrix in="b3" type="matrix" result="bright"
      values="1.6 0 0 0 0.1  0 1.6 0 0 0.1  0 0 1.6 0 0.1  0 0 0 0.5 0"/>
    <feMerge>
      <feMergeNode in="bright"/><feMergeNode in="b2"/>
      <feMergeNode in="b1"/><feMergeNode in="SourceGraphic"/>
    </feMerge>
  </filter>
  <radialGradient id="bg" cx="50%" cy="50%" r="60%">
    <stop offset="0%" stop-color="#060612"/>
    <stop offset="100%" stop-color="#020208"/>
  </radialGradient>
  <radialGradient id="vig" cx="50%" cy="50%" r="55%">
    <stop offset="40%" stop-color="black" stop-opacity="0"/>
    <stop offset="100%" stop-color="black" stop-opacity="0.6"/>
  </radialGradient>
</defs>
<rect width="800" height="800" fill="url(#bg)"/>
<g filter="url(#bloom)">
<path d="M590.5,384.2 Q593.0,388.9 595.5,393.7 Q597.8,398.5 599.9,403.3 Q601.8,408.2 603.5,413.3 Q604.9,418.4 606.1,423.6 Q606.9,428.8 607.3,434.1 Q607.4,439.4 607.0,444.6 Q606.2,449.9 605.3,455.1 Q604.2,460.1 603.0,465.0 Q601.8,469.6 600.4,473.9 Q599.0,477.9 597.5,481.7 Q595.9,485.3 594.1,488.8 Q592.1,492.2 589.8,495.7 Q587.3,499.3 584.6,502.9 Q581.7,506.6 578.6,510.2 Q575.4,513.9 572.2,517.5 Q568.9,521.2 565.5,524.8 Q562.1,528.4 558.5,532.0 Q554.9,535.7 551.2,539.3 Q547.5,542.9 543.5,546.4 Q539.5,549.8 535.2,553.0 Q530.7,555.9 526.0,558.5 Q521.2,560.9 516.2,562.9 Q511.1,564.7 506.0,566.3 Q501.0,567.7 496.0,568.8 Q491.1,569.7 486.3,570.3 Q481.6,570.6 476.8,570.6 Q472.1,570.3 467.2,569.8 Q462.2,569.0 457.1,568.0 Q451.9,566.8 446.7,565.3 Q441.4,563.8 436.2,562.1 Q431.1,560.4 426.0,558.7 Q421.0,557.0 416.0,555.4 Q411.1,553.9 406.2,552.4 Q401.4,551.1 396.6,549.9 Q391.8,548.7 387.0,547.5 Q382.2,546.2 377.3,544.8 Q372.3,543.4 367.4,541.7 Q362.4,540.0 357.5,538.2 Q352.6,536.3 347.9,534.5 Q343.4,532.6 338.9,530.6 Q334.6,528.7 330.5,526.6 Q326.3,524.4 322.2,522.1 Q318.2,519.6 314.2,517.0 Q310.2,514.4 306.3,511.8 Q302.3,509.1 298.4,506.5 Q294.4,503.9 290.4,501.4 Q286.4,498.8 282.3,496.2 Q278.1,493.4 273.8,490.4 Q269.6,487.3 265.6,484.1 Q262.1,481.2 259.2,478.5 Q256.7,476.1 254.4,473.9 Q252.2,471.6 250.0,469.4 Q247.9,467.0 245.7,464.4 Q243.2,461.2 240.5,457.4 Q237.6,453.0 234.9,448.4 Q232.3,443.8 230.1,439.2 Q228.1,434.7 226.4,430.2 Q225.0,425.8 224.0,421.3 Q223.2,416.9 222.8,412.4 Q222.6,407.8 222.8,403.3 Q223.3,398.7 223.9,394.2 Q224.7,389.7 225.8,385.2 Q227.1,380.7 228.5,376.3 Q230.2,372.0 232.0,367.8 Q234.0,363.6 235.9,359.4 Q237.9,355.4 239.9,351.3 Q241.8,347.3 243.6,343.2 Q245.3,339.2 246.7,335.1 Q248.0,331.0 249.1,326.9 Q250.1,322.7 251.0,318.4 Q251.9,314.0 252.9,309.5 Q254.1,304.9 255.5,300.2 Q257.0,295.5 258.7,290.9 Q260.5,286.4 262.4,282.2 Q264.3,278.1 266.4,274.3 Q268.7,270.6 271.1,266.9 Q273.7,263.3 276.6,259.8 Q279.7,256.3 282.9,252.9 Q286.5,249.6 290.2,246.3 Q294.0,243.3 297.8,240.6 Q301.4,238.1 304.8,236.0 Q308.0,234.2 311.0,232.5 Q313.9,231.0 316.9,229.6 Q320.1,228.1 323.5,226.6 Q327.3,225.0 331.4,223.2 Q335.9,221.4 340.6,219.6 Q345.5,217.8 350.4,216.1 Q355.4,214.5 360.5,213.3 Q365.5,212.3 370.5,211.6 Q375.7,211.3 380.8,211.2 Q386.1,211.3 391.2,211.6 Q396.2,211.9 400.8,212.3 Q405.1,212.6 409.5,213.0 Q414.1,213.6 419.0,214.2 Q424.2,215.0 429.5,215.9 Q434.8,216.7 440.1,217.4 Q445.3,218.1 450.5,218.8 Q455.7,219.6 460.8,220.4 Q465.8,221.3 470.9,222.4 Q475.9,223.8 480.9,225.5 Q485.7,227.6 490.4,230.1 Q494.9,233.0 499.3,236.2 Q503.4,239.7 507.2,243.2 Q510.6,246.5 513.7,249.8 Q516.7,253.0 519.7,256.5 Q522.8,260.1 525.9,263.6 Q528.7,267.0 531.3,270.3 Q533.8,273.4 536.2,276.6 Q538.7,280.0 541.1,283.5 Q543.7,287.4 546.2,291.4 Q548.7,295.7 551.1,300.0 Q553.4,304.4 555.6,308.8 Q557.6,313.3 559.4,317.7 Q561.1,322.2 562.8,326.8 Q564.5,331.4 566.3,336.1 Q568.2,340.9 570.3,345.8 Q572.6,350.6 575.1,355.5 Q577.6,360.3 580.2,365.1 Q582.8,369.9 585.3,374.7 Z" fill="none" stroke="#160000" stroke-width="1.20" opacity="0.400" stroke-linecap="round" stroke-linejoin="round"/>
<path d="M590.5,384.2 Q593.0,388.9 595.5,393.7 Q597.8,398.5 599.9,403.3 Q601.8,408.2 603.5,413.3 Q604.9,418.4 606.1,423.6 Q606.9,428.8 607.3,434.1 Q607.4,439.4 607.0,444.6 Q606.2,449.9 605.3,455.1 Q604.2,460.1 603.0,465.0 Q601.8,469.6 600.4,473.9 Q599.0,477.9 597.5,481.7 Q595.9,485.3 594.1,488.8 Q592.1,492.2 589.8,495.7 Q587.3,499.3 584.6,502.9 Q581.7,506.6 578.6,510.2 Q575.4,513.9 572.2,517.5 Q568.9,521.2 565.5,524.8 Q562.1,528.4 558.5,532.0 Q554.9,535.7 551.2,539.3 Q547.5,542.9 543.5,546.4 Q539.5,549.8 535.2,553.0 Q530.7,555.9 526.0,558.5 Q521.2,560.9 516.2,562.9 Q511.1,564.7 506.0,566.3 Q501.0,567.7 496.0,568.8 Q491.1,569.7 486.3,570.3 Q481.6,570.6 476.8,570.6 Q472.1,570.3 467.2,569.8 Q462.2,569.0 457.1,568.0 Q451.9,566.8 446.7,565.3 Q441.4,563.8 436.2,562.1 Q431.1,560.4 426.0,558.7 Q421.0,557.0 416.0,555.4 Q411.1,553.9 406.2,552.4 Q401.4,551.1 396.6,549.9 Q391.8,548.7 387.0,547.5 Q382.2,546.2 377.3,544.8 Q372.3,543.4 367.4,541.7 Q362.4,540.0 357.5,538.2 Q352.6,536.3 347.9,534.5 Q343.4,532.6 338.9,530.6 Q334.6,528.7 330.5,526.6 Q326.3,524.4 322.2,522.1 Q318.2,519.6 314.2,517.0 Q310.2,514.4 306.3,511.8 Q302.3,509.1 298.4,506.5 Q294.4,503.9 290.4,501.4 Q286.4,498.8 282.3,496.2 Q278.1,493.4 273.8,490.4 Q269.6,487.3 265.6,484.1 Q262.1,481.2 259.2,478.5 Q256.7,476.1 254.4,473.9 Q252.2,471.6 250.0,469.4 Q247.9,467.0 245.7,464.4 Q243.2,461.2 240.5,457.4 Q237.6,453.0 234.9,448.4 Q232.3,443.8 230.1,439.2 Q228.1,434.7 226.4,430.2 Q225.0,425.8 224.0,421.3 Q223.2,416.9 222.8,412.4 Q222.6,407.8 222.8,403.3 Q223.3,398.7 223.9,394.2 Q224.7,389.7 225.8,385.2 Q227.1,380.7 228.5,376.3 Q230.2,372.0 232.0,367.8 Q234.0,363.6 235.9,359.4 Q237.9,355.4 239.9,351.3 Q241.8,347.3 243.6,343.2 Q245.3,339.2 246.7,335.1 Q248.0,331.0 249.1,326.9 Q250.1,322.7 251.0,318.4 Q251.9,314.0 252.9,309.5 Q254.1,304.9 255.5,300.2 Q257.0,295.5 258.7,290.9 Q260.5,286.4 262.4,282.2 Q264.3,278.1 266.4,274.3 Q268.7,270.6 271.1,266.9 Q273.7,263.3 276.6,259.8 Q279.7,256.3 282.9,252.9 Q286.5,249.6 290.2,246.3 Q294.0,243.3 297.8,240.6 Q301.4,238.1 304.8,236.0 Q308.0,234.2 311.0,232.5 Q313.9,231.0 316.9,229.6 Q320.1,228.1 323.5,226.6 Q327.3,225.0 331.4,223.2 Q335.9,221.4 340.6,219.6 Q345.5,217.8 350.4,216.1 Q355.4,214.5 360.5,213.3 Q365.5,212.3 370.5,211.6 Q375.7,211.3 380.8,211.2 Q386.1,211.3 391.2,211.6 Q396.2,211.9 400.8,212.3 Q405.1,212.6 409.5,213.0 Q414.1,213.6 419.0,214.2 Q424.2,215.0 429.5,215.9 Q434.8,216.7 440.1,217.4 Q445.3,218.1 450.5,218.8 Q455.7,219.6 460.8,220.4 Q465.8,221.3 470.9,222.4 Q475.9,223.8 480.9,225.5 Q485.7,227.6 490.4,230.1 Q494.9,233.0 499.3,236.2 Q503.4,239.7 507.2,243.2 Q510.6,246.5 513.7,249.8 Q516.7,253.0 519.7,256.5 Q522.8,260.1 525.9,263.6 Q528.7,267.0 531.3,270.3 Q533.8,273.4 536.2,276.6 Q538.7,280.0 541.1,283.5 Q543.7,287.4 546.2,291.4 Q548.7,295.7 551.1,300.0 Q553.4,304.4 555.6,308.8 Q557.6,313.3 559.4,317.7 Q561.1,322.2 562.8,326.8 Q564.5,331.4 566.3,336.1 Q568.2,340.9 570.3,345.8 Q572.6,350.6 575.1,355.5 Q577.6,360.3 580.2,365.1 Q582.8,369.9 585.3,374.7 Z" fill="#160000" fill-opacity="0.060" stroke="none"/>
<path d="M606.3,392.9 Q606.4,397.6 606.5,401.2 Q606.4,404.3 606.3,407.4 Q606.0,411.1 605.5,415.8 Q604.6,421.0 603.5,426.2 Q602.1,431.3 600.3,436.2 Q598.3,440.9 596.0,445.3 Q593.5,449.6 590.8,453.7 Q587.9,457.8 584.9,461.7 Q581.7,465.7 578.4,469.6 Q575.0,473.4 571.7,477.2 Q568.6,480.9 565.6,484.5 Q562.8,488.0 560.1,491.2 Q557.7,494.2 555.3,497.1 Q553.1,499.9 550.9,502.8 Q548.7,505.7 546.4,508.9 Q544.0,512.3 541.6,515.9 Q539.1,519.8 536.6,523.9 Q534.1,528.3 531.6,532.8 Q529.2,537.5 526.9,542.2 Q524.6,547.1 522.4,551.9 Q520.2,556.6 517.8,561.2 Q515.4,565.7 512.7,570.0 Q509.9,574.2 506.8,578.1 Q503.4,582.0 499.7,585.6 Q495.8,589.0 492.0,592.1 Q488.2,594.7 484.7,597.1 Q481.3,599.2 477.8,601.1 Q474.3,603.0 470.6,604.9 Q466.9,606.6 463.1,608.1 Q459.0,609.5 454.5,610.7 Q449.6,611.6 444.4,612.3 Q439.2,612.8 433.9,613.0 Q428.7,613.0 423.7,612.9 Q418.7,612.6 414.0,612.1 Q409.3,611.5 404.8,610.8 Q400.4,610.0 396.0,609.1 Q391.6,608.1 387.1,607.0 Q382.5,605.7 377.8,604.3 Q373.1,602.8 368.5,601.2 Q363.9,599.6 359.4,598.0 Q354.9,596.5 350.6,595.0 Q346.3,593.7 342.1,592.4 Q337.9,591.1 333.8,589.8 Q329.6,588.6 325.3,587.2 Q321.0,585.8 316.6,584.2 Q312.1,582.5 307.5,580.8 Q302.8,579.0 298.0,577.2 Q293.2,575.4 288.3,573.5 Q283.3,571.6 278.6,569.5 Q274.4,567.5 271.1,565.8 Q268.6,564.5 266.1,563.0 Q263.1,561.1 259.5,558.7 Q256.0,556.0 252.8,553.5 Q250.2,551.3 247.8,549.2 Q245.6,547.1 243.5,544.9 Q241.3,542.7 239.0,540.1 Q236.4,537.1 233.4,533.5 Q230.2,529.3 227.1,524.9 Q224.2,520.3 221.6,515.6 Q219.4,510.8 217.4,505.9 Q215.7,501.0 214.0,496.1 Q212.4,491.2 210.8,486.4 Q209.1,481.6 207.5,476.9 Q205.8,472.3 204.1,467.7 Q202.5,463.1 201.0,458.5 Q199.6,453.8 198.3,449.0 Q197.3,444.1 196.4,439.2 Q195.8,434.3 195.3,429.4 Q195.2,424.7 195.2,420.0 Q195.5,415.5 196.1,411.2 Q196.8,406.9 197.8,402.8 Q198.9,398.7 200.2,394.8 Q201.7,390.8 203.3,386.9 Q205.0,382.9 206.8,378.9 Q208.6,374.8 210.4,370.6 Q212.0,366.4 213.6,362.0 Q215.1,357.5 216.5,352.8 Q217.7,348.1 218.9,343.3 Q220.2,338.5 221.7,333.7 Q223.5,329.1 225.5,324.5 Q227.8,320.1 230.4,315.9 Q233.3,311.9 236.5,308.1 Q240.0,304.4 243.9,301.0 Q248.0,297.7 252.4,294.5 Q256.9,291.4 261.2,288.5 Q265.1,285.8 268.6,283.5 Q271.9,281.3 275.2,279.1 Q278.4,277.0 281.6,274.9 Q284.7,272.8 287.6,270.9 Q290.4,269.0 293.4,267.2 Q296.8,265.2 300.7,262.9 Q305.0,260.5 309.5,258.1 Q314.0,255.8 318.6,253.7 Q323.2,251.9 327.9,250.4 Q332.7,249.1 337.6,248.0 Q342.6,247.1 347.6,246.5 Q352.6,246.0 357.5,245.6 Q362.4,245.2 367.2,244.8 Q372.0,244.2 376.7,243.4 Q381.4,242.5 386.1,241.4 Q390.9,240.2 395.6,238.7 Q400.3,237.2 404.9,235.5 Q409.2,233.7 413.2,231.8 Q416.8,230.0 420.2,228.2 Q423.3,226.5 426.3,224.9 Q429.3,223.2 432.5,221.6 Q435.8,219.9 439.3,218.2 Q442.9,216.4 446.5,214.7 Q450.1,213.1 453.6,211.5 Q457.1,210.0 460.8,208.6 Q464.7,207.2 468.9,206.0 Q473.5,204.9 478.2,203.9 Q483.1,203.3 487.9,202.9 Q492.8,202.9 497.7,203.2 Q502.6,203.8 507.5,204.8 Q512.3,206.1 517.0,207.7 Q521.6,209.6 525.9,211.7 Q530.0,213.9 533.9,216.4 Q537.5,219.0 540.9,221.7 Q544.2,224.6 547.2,227.6 Q550.0,230.7 552.8,233.9 Q555.4,237.2 558.0,240.6 Q560.6,244.1 563.1,247.7 Q565.7,251.5 568.4,255.4 Q571.3,259.4 574.2,263.4 Q577.2,267.4 580.3,271.5 Q583.5,275.5 586.5,279.6 Q589.4,283.7 592.1,287.9 Q594.7,292.0 597.0,296.3 Q599.1,300.5 600.9,304.9 Q602.6,309.3 603.9,313.7 Q604.9,318.3 605.6,322.9 Q606.0,327.6 606.0,332.3 Q606.0,337.0 605.8,341.8 Q605.6,346.6 605.5,351.5 Q605.5,356.4 605.5,361.4 Q605.6,366.5 605.7,371.7 Q605.8,376.9 605.9,382.3 Z" fill="none" stroke="#430800" stroke-width="1.04" opacity="0.350" stroke-linecap="round" stroke-linejoin="round"/>
<path d="M606.3,392.9 Q606.4,397.6 606.5,401.2 Q606.4,404.3 606.3,407.4 Q606.0,411.1 605.5,415.8 Q604.6,421.0 603.5,426.2 Q602.1,431.3 600.3,436.2 Q598.3,440.9 596.0,445.3 Q593.5,449.6 590.8,453.7 Q587.9,457.8 584.9,461.7 Q581.7,465.7 578.4,469.6 Q575.0,473.4 571.7,477.2 Q568.6,480.9 565.6,484.5 Q562.8,488.0 560.1,491.2 Q557.7,494.2 555.3,497.1 Q553.1,499.9 550.9,502.8 Q548.7,505.7 546.4,508.9 Q544.0,512.3 541.6,515.9 Q539.1,519.8 536.6,523.9 Q534.1,528.3 531.6,532.8 Q529.2,537.5 526.9,542.2 Q524.6,547.1 522.4,551.9 Q520.2,556.6 517.8,561.2 Q515.4,565.7 512.7,570.0 Q509.9,574.2 506.8,578.1 Q503.4,582.0 499.7,585.6 Q495.8,589.0 492.0,592.1 Q488.2,594.7 484.7,597.1 Q481.3,599.2 477.8,601.1 Q474.3,603.0 470.6,604.9 Q466.9,606.6 463.1,608.1 Q459.0,609.5 454.5,610.7 Q449.6,611.6 444.4,612.3 Q439.2,612.8 433.9,613.0 Q428.7,613.0 423.7,612.9 Q418.7,612.6 414.0,612.1 Q409.3,611.5 404.8,610.8 Q400.4,610.0 396.0,609.1 Q391.6,608.1 387.1,607.0 Q382.5,605.7 377.8,604.3 Q373.1,602.8 368.5,601.2 Q363.9,599.6 359.4,598.0 Q354.9,596.5 350.6,595.0 Q346.3,593.7 342.1,592.4 Q337.9,591.1 333.8,589.8 Q329.6,588.6 325.3,587.2 Q321.0,585.8 316.6,584.2 Q312.1,582.5 307.5,580.8 Q302.8,579.0 298.0,577.2 Q293.2,575.4 288.3,573.5 Q283.3,571.6 278.6,569.5 Q274.4,567.5 271.1,565.8 Q268.6,564.5 266.1,563.0 Q263.1,561.1 259.5,558.7 Q256.0,556.0 252.8,553.5 Q250.2,551.3 247.8,549.2 Q245.6,547.1 243.5,544.9 Q241.3,542.7 239.0,540.1 Q236.4,537.1 233.4,533.5 Q230.2,529.3 227.1,524.9 Q224.2,520.3 221.6,515.6 Q219.4,510.8 217.4,505.9 Q215.7,501.0 214.0,496.1 Q212.4,491.2 210.8,486.4 Q209.1,481.6 207.5,476.9 Q205.8,472.3 204.1,467.7 Q202.5,463.1 201.0,458.5 Q199.6,453.8 198.3,449.0 Q197.3,444.1 196.4,439.2 Q195.8,434.3 195.3,429.4 Q195.2,424.7 195.2,420.0 Q195.5,415.5 196.1,411.2 Q196.8,406.9 197.8,402.8 Q198.9,398.7 200.2,394.8 Q201.7,390.8 203.3,386.9 Q205.0,382.9 206.8,378.9 Q208.6,374.8 210.4,370.6 Q212.0,366.4 213.6,362.0 Q215.1,357.5 216.5,352.8 Q217.7,348.1 218.9,343.3 Q220.2,338.5 221.7,333.7 Q223.5,329.1 225.5,324.5 Q227.8,320.1 230.4,315.9 Q233.3,311.9 236.5,308.1 Q240.0,304.4 243.9,301.0 Q248.0,297.7 252.4,294.5 Q256.9,291.4 261.2,288.5 Q265.1,285.8 268.6,283.5 Q271.9,281.3 275.2,279.1 Q278.4,277.0 281.6,274.9 Q284.7,272.8 287.6,270.9 Q290.4,269.0 293.4,267.2 Q296.8,265.2 300.7,262.9 Q305.0,260.5 309.5,258.1 Q314.0,255.8 318.6,253.7 Q323.2,251.9 327.9,250.4 Q332.7,249.1 337.6,248.0 Q342.6,247.1 347.6,246.5 Q352.6,246.0 357.5,245.6 Q362.4,245.2 367.2,244.8 Q372.0,244.2 376.7,243.4 Q381.4,242.5 386.1,241.4 Q390.9,240.2 395.6,238.7 Q400.3,237.2 404.9,235.5 Q409.2,233.7 413.2,231.8 Q416.8,230.0 420.2,228.2 Q423.3,226.5 426.3,224.9 Q429.3,223.2 432.5,221.6 Q435.8,219.9 439.3,218.2 Q442.9,216.4 446.5,214.7 Q450.1,213.1 453.6,211.5 Q457.1,210.0 460.8,208.6 Q464.7,207.2 468.9,206.0 Q473.5,204.9 478.2,203.9 Q483.1,203.3 487.9,202.9 Q492.8,202.9 497.7,203.2 Q502.6,203.8 507.5,204.8 Q512.3,206.1 517.0,207.7 Q521.6,209.6 525.9,211.7 Q530.0,213.9 533.9,216.4 Q537.5,219.0 540.9,221.7 Q544.2,224.6 547.2,227.6 Q550.0,230.7 552.8,233.9 Q555.4,237.2 558.0,240.6 Q560.6,244.1 563.1,247.7 Q565.7,251.5 568.4,255.4 Q571.3,259.4 574.2,263.4 Q577.2,267.4 580.3,271.5 Q583.5,275.5 586.5,279.6 Q589.4,283.7 592.1,287.9 Q594.7,292.0 597.0,296.3 Q599.1,300.5 600.9,304.9 Q602.6,309.3 603.9,313.7 Q604.9,318.3 605.6,322.9 Q606.0,327.6 606.0,332.3 Q606.0,337.0 605.8,341.8 Q605.6,346.6 605.5,351.5 Q605.5,356.4 605.5,361.4 Q605.6,366.5 605.7,371.7 Q605.8,376.9 605.9,382.3 Z" fill="#360200" fill-opacity="0.052" stroke="none"/>
<path d="M616.6,403.3 Q619.2,407.8 621.4,412.5 Q623.3,417.3 624.8,422.1 Q625.8,426.8 626.3,431.6 Q626.3,436.2 625.7,440.8 Q624.6,445.4 623.1,449.8 Q621.3,454.1 619.2,458.4 Q616.8,462.5 614.3,466.5 Q611.6,470.4 608.8,474.1 Q605.9,477.8 603.0,481.4 Q600.0,484.9 597.0,488.4 Q594.0,491.9 590.9,495.4 Q587.8,499.0 584.7,502.6 Q581.6,506.3 578.5,510.1 Q575.4,513.9 572.4,517.7 Q569.3,521.5 566.3,525.2 Q563.3,528.9 560.3,532.4 Q557.2,535.9 554.2,539.4 Q551.1,542.8 548.1,546.1 Q545.0,549.5 541.8,552.8 Q538.7,556.2 535.6,559.6 Q532.5,563.0 529.4,566.5 Q526.4,570.0 523.4,573.6 Q520.4,577.2 517.5,581.0 Q514.5,584.8 511.5,588.7 Q508.4,592.7 505.2,596.7 Q502.0,600.6 498.7,604.6 Q495.4,608.4 492.2,612.0 Q489.0,615.3 486.0,618.3 Q483.0,621.1 479.9,623.7 Q476.6,626.1 473.0,628.5 Q468.9,630.8 464.4,632.9 Q459.5,634.8 454.5,636.2 Q449.4,637.1 444.3,637.4 Q439.3,637.3 434.3,636.6 Q429.3,635.6 424.5,634.3 Q419.7,632.8 415.0,631.3 Q410.3,629.7 405.8,628.1 Q401.3,626.4 396.8,624.7 Q392.4,622.9 388.1,621.0 Q383.8,619.1 379.5,617.3 Q375.1,615.6 370.8,614.0 Q366.4,612.5 362.0,611.1 Q357.7,609.7 353.3,608.5 Q348.9,607.2 344.6,605.9 Q340.4,604.6 336.1,603.2 Q331.9,601.7 327.8,600.1 Q323.7,598.4 319.6,596.6 Q315.6,594.8 311.6,592.9 Q307.6,590.9 303.6,588.9 Q299.6,586.8 295.5,584.8 Q291.5,582.7 287.3,580.6 Q283.2,578.5 279.0,576.4 Q274.7,574.3 270.4,572.1 Q265.9,569.8 261.4,567.4 Q256.8,564.9 252.8,562.6 Q249.8,560.9 247.2,559.5 Q244.6,558.2 241.6,556.4 Q237.6,554.0 233.0,551.3 Q228.5,548.4 224.2,545.5 Q220.1,542.3 216.1,539.1 Q212.4,535.6 209.0,531.9 Q206.0,528.1 203.2,524.0 Q200.8,519.7 198.7,515.3 Q196.7,510.6 194.9,505.8 Q193.2,501.0 191.5,496.1 Q189.8,491.2 188.2,486.3 Q186.5,481.4 184.9,476.6 Q183.2,471.9 181.5,467.2 Q179.9,462.5 178.3,457.8 Q176.9,453.2 175.7,448.5 Q174.7,443.8 174.0,439.1 Q173.5,434.4 173.3,429.6 Q173.4,424.9 173.6,420.1 Q174.0,415.4 174.6,410.6 Q175.5,405.9 176.5,401.2 Q177.8,396.6 179.3,392.0 Q180.8,387.4 182.4,382.9 Q184.0,378.5 185.4,374.1 Q186.7,369.7 187.8,365.2 Q188.7,360.7 189.3,356.2 Q189.8,351.6 190.0,346.9 Q190.1,342.1 190.1,337.3 Q190.1,332.4 190.1,327.4 Q190.2,322.4 190.4,317.4 Q190.6,312.3 191.0,307.2 Q191.6,302.2 192.3,297.2 Q193.2,292.2 194.3,287.4 Q195.5,282.6 197.0,278.0 Q198.8,273.6 200.8,269.3 Q203.1,265.2 205.8,261.2 Q208.8,257.5 212.2,254.0 Q215.8,250.7 219.8,247.8 Q224.1,245.1 228.5,242.8 Q233.2,240.7 238.1,239.0 Q243.1,237.6 248.2,236.3 Q253.3,235.1 258.4,233.8 Q263.5,232.5 268.6,230.9 Q273.6,229.2 278.4,227.3 Q283.2,225.2 287.9,222.8 Q292.5,220.3 297.0,217.5 Q301.2,214.8 304.9,212.3 Q308.1,210.2 310.8,208.3 Q313.3,206.7 315.7,205.1 Q318.1,203.5 320.6,201.8 Q323.4,199.9 326.7,197.8 Q330.7,195.4 335.1,192.8 Q339.7,190.4 344.4,188.1 Q349.0,186.1 353.7,184.5 Q358.3,183.0 362.9,181.8 Q367.5,180.8 372.0,179.9 Q376.6,179.1 381.3,178.4 Q385.9,177.9 390.6,177.5 Q395.3,177.1 400.1,176.9 Q404.9,176.7 409.8,176.6 Q414.8,176.6 419.7,176.8 Q424.8,177.0 429.9,177.4 Q435.0,177.9 440.1,178.5 Q445.3,179.2 450.4,179.9 Q455.5,180.7 460.6,181.6 Q465.7,182.6 470.6,183.5 Q475.6,184.4 480.4,185.2 Q485.2,186.0 489.9,186.8 Q494.5,187.7 499.0,188.7 Q503.4,189.9 507.7,191.2 Q511.8,192.7 515.8,194.4 Q519.7,196.2 523.4,198.2 Q526.9,200.3 530.3,202.6 Q533.6,205.2 536.7,208.0 Q539.5,211.0 542.2,214.3 Q544.7,217.8 546.9,221.5 Q548.9,225.4 550.6,229.6 Q552.0,234.0 553.0,238.5 Q553.8,243.3 554.3,248.1 Q554.6,253.1 554.7,258.2 Q554.7,263.3 554.7,268.5 Q554.6,273.6 554.6,278.6 Q554.7,283.5 554.9,288.4 Q555.1,293.1 555.5,297.7 Q556.1,302.2 556.8,306.7 Q557.8,311.0 559.1,315.4 Q560.5,319.6 562.1,323.9 Q563.8,328.0 565.7,332.1 Q567.8,336.2 570.1,340.1 Q572.4,344.0 575.0,347.9 Q577.6,351.8 580.4,355.7 Q583.4,359.7 586.4,363.7 Q589.6,367.8 592.9,372.0 Q596.1,376.1 599.3,380.0 Q602.4,383.7 605.3,387.3 Q608.1,391.0 611.0,394.8 Z" fill="none" stroke="#673400" stroke-width="0.88" opacity="0.300" stroke-linecap="round" stroke-linejoin="round"/>
<path d="M616.6,403.3 Q619.2,407.8 621.4,412.5 Q623.3,417.3 624.8,422.1 Q625.8,426.8 626.3,431.6 Q626.3,436.2 625.7,440.8 Q624.6,445.4 623.1,449.8 Q621.3,454.1 619.2,458.4 Q616.8,462.5 614.3,466.5 Q611.6,470.4 608.8,474.1 Q605.9,477.8 603.0,481.4 Q600.0,484.9 597.0,488.4 Q594.0,491.9 590.9,495.4 Q587.8,499.0 584.7,502.6 Q581.6,506.3 578.5,510.1 Q575.4,513.9 572.4,517.7 Q569.3,521.5 566.3,525.2 Q563.3,528.9 560.3,532.4 Q557.2,535.9 554.2,539.4 Q551.1,542.8 548.1,546.1 Q545.0,549.5 541.8,552.8 Q538.7,556.2 535.6,559.6 Q532.5,563.0 529.4,566.5 Q526.4,570.0 523.4,573.6 Q520.4,577.2 517.5,581.0 Q514.5,584.8 511.5,588.7 Q508.4,592.7 505.2,596.7 Q502.0,600.6 498.7,604.6 Q495.4,608.4 492.2,612.0 Q489.0,615.3 486.0,618.3 Q483.0,621.1 479.9,623.7 Q476.6,626.1 473.0,628.5 Q468.9,630.8 464.4,632.9 Q459.5,634.8 454.5,636.2 Q449.4,637.1 444.3,637.4 Q439.3,637.3 434.3,636.6 Q429.3,635.6 424.5,634.3 Q419.7,632.8 415.0,631.3 Q410.3,629.7 405.8,628.1 Q401.3,626.4 396.8,624.7 Q392.4,622.9 388.1,621.0 Q383.8,619.1 379.5,617.3 Q375.1,615.6 370.8,614.0 Q366.4,612.5 362.0,611.1 Q357.7,609.7 353.3,608.5 Q348.9,607.2 344.6,605.9 Q340.4,604.6 336.1,603.2 Q331.9,601.7 327.8,600.1 Q323.7,598.4 319.6,596.6 Q315.6,594.8 311.6,592.9 Q307.6,590.9 303.6,588.9 Q299.6,586.8 295.5,584.8 Q291.5,582.7 287.3,580.6 Q283.2,578.5 279.0,576.4 Q274.7,574.3 270.4,572.1 Q265.9,569.8 261.4,567.4 Q256.8,564.9 252.8,562.6 Q249.8,560.9 247.2,559.5 Q244.6,558.2 241.6,556.4 Q237.6,554.0 233.0,551.3 Q228.5,548.4 224.2,545.5 Q220.1,542.3 216.1,539.1 Q212.4,535.6 209.0,531.9 Q206.0,528.1 203.2,524.0 Q200.8,519.7 198.7,515.3 Q196.7,510.6 194.9,505.8 Q193.2,501.0 191.5,496.1 Q189.8,491.2 188.2,486.3 Q186.5,481.4 184.9,476.6 Q183.2,471.9 181.5,467.2 Q179.9,462.5 178.3,457.8 Q176.9,453.2 175.7,448.5 Q174.7,443.8 174.0,439.1 Q173.5,434.4 173.3,429.6 Q173.4,424.9 173.6,420.1 Q174.0,415.4 174.6,410.6 Q175.5,405.9 176.5,401.2 Q177.8,396.6 179.3,392.0 Q180.8,387.4 182.4,382.9 Q184.0,378.5 185.4,374.1 Q186.7,369.7 187.8,365.2 Q188.7,360.7 189.3,356.2 Q189.8,351.6 190.0,346.9 Q190.1,342.1 190.1,337.3 Q190.1,332.4 190.1,327.4 Q190.2,322.4 190.4,317.4 Q190.6,312.3 191.0,307.2 Q191.6,302.2 192.3,297.2 Q193.2,292.2 194.3,287.4 Q195.5,282.6 197.0,278.0 Q198.8,273.6 200.8,269.3 Q203.1,265.2 205.8,261.2 Q208.8,257.5 212.2,254.0 Q215.8,250.7 219.8,247.8 Q224.1,245.1 228.5,242.8 Q233.2,240.7 238.1,239.0 Q243.1,237.6 248.2,236.3 Q253.3,235.1 258.4,233.8 Q263.5,232.5 268.6,230.9 Q273.6,229.2 278.4,227.3 Q283.2,225.2 287.9,222.8 Q292.5,220.3 297.0,217.5 Q301.2,214.8 304.9,212.3 Q308.1,210.2 310.8,208.3 Q313.3,206.7 315.7,205.1 Q318.1,203.5 320.6,201.8 Q323.4,199.9 326.7,197.8 Q330.7,195.4 335.1,192.8 Q339.7,190.4 344.4,188.1 Q349.0,186.1 353.7,184.5 Q358.3,183.0 362.9,181.8 Q367.5,180.8 372.0,179.9 Q376.6,179.1 381.3,178.4 Q385.9,177.9 390.6,177.5 Q395.3,177.1 400.1,176.9 Q404.9,176.7 409.8,176.6 Q414.8,176.6 419.7,176.8 Q424.8,177.0 429.9,177.4 Q435.0,177.9 440.1,178.5 Q445.3,179.2 450.4,179.9 Q455.5,180.7 460.6,181.6 Q465.7,182.6 470.6,183.5 Q475.6,184.4 480.4,185.2 Q485.2,186.0 489.9,186.8 Q494.5,187.7 499.0,188.7 Q503.4,189.9 507.7,191.2 Q511.8,192.7 515.8,194.4 Q519.7,196.2 523.4,198.2 Q526.9,200.3 530.3,202.6 Q533.6,205.2 536.7,208.0 Q539.5,211.0 542.2,214.3 Q544.7,217.8 546.9,221.5 Q548.9,225.4 550.6,229.6 Q552.0,234.0 553.0,238.5 Q553.8,243.3 554.3,248.1 Q554.6,253.1 554.7,258.2 Q554.7,263.3 554.7,268.5 Q554.6,273.6 554.6,278.6 Q554.7,283.5 554.9,288.4 Q555.1,293.1 555.5,297.7 Q556.1,302.2 556.8,306.7 Q557.8,311.0 559.1,315.4 Q560.5,319.6 562.1,323.9 Q563.8,328.0 565.7,332.1 Q567.8,336.2 570.1,340.1 Q572.4,344.0 575.0,347.9 Q577.6,351.8 580.4,355.7 Q583.4,359.7 586.4,363.7 Q589.6,367.8 592.9,372.0 Q596.1,376.1 599.3,380.0 Q602.4,383.7 605.3,387.3 Q608.1,391.0 611.0,394.8 Z" fill="#541800" fill-opacity="0.045" stroke="none"/>
<path d="M657.7,401.0 Q659.4,405.6 661.3,410.2 Q663.1,414.8 665.1,419.4 Q667.0,424.0 668.8,428.6 Q670.6,433.2 672.3,437.8 Q673.9,442.4 675.3,446.9 Q676.6,451.2 677.7,455.5 Q678.6,459.7 679.3,463.9 Q679.7,468.0 679.9,472.3 Q679.9,476.7 679.5,481.2 Q678.8,485.9 677.7,490.8 Q676.2,495.7 674.3,500.6 Q672.2,505.6 669.9,510.4 Q667.5,515.1 664.9,519.6 Q662.3,523.9 659.5,528.0 Q656.5,531.9 653.4,535.7 Q650.1,539.2 646.6,542.7 Q642.9,546.1 639.1,549.3 Q635.1,552.5 630.9,555.5 Q626.7,558.4 622.4,561.2 Q618.0,563.9 613.6,566.5 Q609.2,569.1 604.9,571.7 Q600.5,574.2 596.3,576.7 Q592.2,579.2 588.1,581.9 Q584.2,584.6 580.4,587.4 Q576.8,590.3 573.2,593.3 Q569.7,596.3 566.3,599.2 Q562.9,602.1 559.6,604.8 Q556.3,607.4 552.9,609.9 Q549.4,612.2 545.9,614.6 Q542.2,616.9 538.3,619.1 Q534.4,621.5 530.3,623.8 Q526.2,626.1 521.9,628.5 Q517.6,630.9 513.2,633.3 Q508.8,635.7 504.4,638.2 Q500.0,640.7 495.6,643.3 Q491.2,645.9 486.7,648.6 Q482.1,651.2 477.5,653.7 Q473.3,655.8 469.8,657.4 Q466.3,658.9 462.0,660.4 Q457.0,661.7 451.9,662.6 Q447.0,662.9 442.2,662.7 Q437.7,662.0 433.4,661.1 Q429.2,660.0 425.0,658.8 Q420.8,657.3 416.4,655.8 Q411.8,654.1 407.4,652.5 Q403.3,650.9 399.7,649.5 Q396.5,648.3 393.3,647.2 Q389.6,646.0 385.4,644.9 Q380.6,643.8 375.5,642.9 Q370.3,642.2 365.2,641.9 Q360.2,641.8 355.4,641.9 Q350.7,642.1 346.3,642.5 Q341.9,642.9 337.5,643.4 Q333.1,643.9 328.4,644.2 Q323.7,644.4 318.7,644.4 Q313.7,644.1 308.7,643.5 Q303.7,642.5 298.8,641.1 Q293.9,639.5 289.1,637.6 Q284.5,635.6 280.2,633.6 Q276.4,631.7 273.1,630.0 Q270.1,628.4 267.2,626.7 Q264.0,624.8 260.2,622.7 Q256.1,620.2 251.9,617.7 Q247.6,615.2 243.4,612.8 Q239.4,610.4 235.5,608.0 Q231.8,605.7 228.2,603.5 Q224.6,601.2 221.2,598.8 Q217.7,596.4 214.2,593.7 Q210.7,590.9 207.2,587.9 Q203.6,584.7 200.1,581.3 Q196.6,577.7 193.2,574.0 Q189.9,570.2 186.9,566.3 Q184.0,562.5 181.4,558.6 Q179.1,554.8 177.0,550.8 Q175.0,546.8 173.3,542.6 Q171.6,538.3 170.1,533.8 Q168.8,529.2 167.6,524.5 Q166.7,519.6 165.9,514.6 Q165.2,509.5 164.6,504.4 Q163.8,499.2 163.0,494.1 Q162.2,488.9 161.2,483.8 Q160.3,478.8 159.4,473.7 Q158.5,468.7 157.6,463.7 Q156.6,458.6 155.7,453.6 Q154.9,448.6 154.1,443.6 Q153.5,438.6 153.0,433.6 Q152.7,428.8 152.5,424.1 Q152.6,419.5 152.9,415.2 Q153.4,411.1 154.1,407.2 Q154.9,403.3 155.9,399.4 Q156.9,395.5 157.9,391.5 Q159.1,387.3 160.3,383.0 Q161.5,378.5 162.8,373.8 Q164.1,369.0 165.3,363.9 Q166.4,358.8 167.4,353.7 Q168.3,348.4 169.2,343.3 Q170.0,338.1 170.9,332.9 Q171.8,327.9 172.8,322.9 Q173.9,317.9 174.9,313.1 Q176.0,308.3 177.0,303.6 Q178.0,299.0 179.0,294.4 Q180.0,289.7 181.0,285.1 Q181.9,280.6 182.9,276.1 Q183.9,271.6 185.0,267.3 Q186.1,263.0 187.3,258.8 Q188.7,254.6 190.2,250.3 Q191.8,246.0 193.7,241.6 Q195.8,237.1 198.0,232.6 Q200.5,228.0 203.2,223.6 Q206.1,219.3 209.2,215.2 Q212.5,211.4 216.1,207.8 Q219.8,204.6 223.8,201.7 Q228.0,199.1 232.3,196.9 Q236.8,195.0 241.5,193.4 Q246.3,192.2 251.2,191.3 Q256.2,190.6 261.3,190.1 Q266.4,189.7 271.5,189.2 Q276.6,188.6 281.8,188.0 Q286.9,187.2 292.0,186.3 Q297.0,185.3 302.0,184.2 Q306.9,182.8 311.8,181.2 Q316.6,179.3 321.4,177.0 Q326.1,174.6 330.8,172.1 Q335.5,169.5 340.2,167.1 Q344.9,164.9 349.7,162.9 Q354.6,161.1 359.5,159.5 Q364.5,158.1 369.6,157.0 Q374.8,156.2 380.0,155.6 Q385.2,155.1 390.3,154.8 Q395.4,154.6 400.3,154.5 Q405.1,154.4 409.8,154.3 Q414.2,154.3 418.6,154.3 Q422.8,154.3 426.9,154.4 Q431.0,154.6 435.1,154.8 Q439.2,155.2 443.2,155.5 Q447.3,155.9 451.4,156.3 Q455.4,156.8 459.4,157.3 Q463.3,157.9 467.2,158.6 Q470.9,159.2 474.6,159.9 Q478.1,160.5 481.5,161.1 Q484.8,161.7 488.1,162.2 Q491.3,162.9 494.6,163.6 Q497.8,164.4 501.0,165.3 Q504.3,166.5 507.6,167.8 Q511.0,169.2 514.5,170.9 Q518.1,172.7 521.9,174.8 Q525.6,177.2 529.4,179.7 Q533.1,182.5 536.6,185.4 Q540.0,188.4 543.2,191.4 Q546.2,194.3 549.0,197.3 Q551.9,200.2 554.8,203.3 Q557.9,206.4 561.1,209.7 Q564.4,213.1 567.8,216.6 Q571.1,220.3 574.5,224.0 Q577.7,228.0 580.9,232.0 Q583.9,236.3 586.8,240.6 Q589.6,245.1 592.2,249.6 Q594.9,254.3 597.5,258.9 Q600.1,263.6 602.8,268.3 Q605.5,272.9 608.2,277.5 Q610.9,281.9 613.5,286.4 Q616.0,290.8 618.5,295.2 Q620.9,299.8 623.3,304.4 Q625.7,309.0 628.0,313.8 Q630.2,318.6 632.3,323.4 Q634.4,328.3 636.5,333.3 Q638.5,338.3 640.5,343.2 Q642.4,348.2 644.0,353.2 Q645.5,358.1 646.8,363.0 Q648.0,367.9 649.2,372.7 Q650.4,377.5 651.7,382.2 Q653.1,386.9 654.5,391.6 Z" fill="none" stroke="#487900" stroke-width="0.72" opacity="0.250" stroke-linecap="round" stroke-linejoin="round"/>
<path d="M657.7,401.0 Q659.4,405.6 661.3,410.2 Q663.1,414.8 665.1,419.4 Q667.0,424.0 668.8,428.6 Q670.6,433.2 672.3,437.8 Q673.9,442.4 675.3,446.9 Q676.6,451.2 677.7,455.5 Q678.6,459.7 679.3,463.9 Q679.7,468.0 679.9,472.3 Q679.9,476.7 679.5,481.2 Q678.8,485.9 677.7,490.8 Q676.2,495.7 674.3,500.6 Q672.2,505.6 669.9,510.4 Q667.5,515.1 664.9,519.6 Q662.3,523.9 659.5,528.0 Q656.5,531.9 653.4,535.7 Q650.1,539.2 646.6,542.7 Q642.9,546.1 639.1,549.3 Q635.1,552.5 630.9,555.5 Q626.7,558.4 622.4,561.2 Q618.0,563.9 613.6,566.5 Q609.2,569.1 604.9,571.7 Q600.5,574.2 596.3,576.7 Q592.2,579.2 588.1,581.9 Q584.2,584.6 580.4,587.4 Q576.8,590.3 573.2,593.3 Q569.7,596.3 566.3,599.2 Q562.9,602.1 559.6,604.8 Q556.3,607.4 552.9,609.9 Q549.4,612.2 545.9,614.6 Q542.2,616.9 538.3,619.1 Q534.4,621.5 530.3,623.8 Q526.2,626.1 521.9,628.5 Q517.6,630.9 513.2,633.3 Q508.8,635.7 504.4,638.2 Q500.0,640.7 495.6,643.3 Q491.2,645.9 486.7,648.6 Q482.1,651.2 477.5,653.7 Q473.3,655.8 469.8,657.4 Q466.3,658.9 462.0,660.4 Q457.0,661.7 451.9,662.6 Q447.0,662.9 442.2,662.7 Q437.7,662.0 433.4,661.1 Q429.2,660.0 425.0,658.8 Q420.8,657.3 416.4,655.8 Q411.8,654.1 407.4,652.5 Q403.3,650.9 399.7,649.5 Q396.5,648.3 393.3,647.2 Q389.6,646.0 385.4,644.9 Q380.6,643.8 375.5,642.9 Q370.3,642.2 365.2,641.9 Q360.2,641.8 355.4,641.9 Q350.7,642.1 346.3,642.5 Q341.9,642.9 337.5,643.4 Q333.1,643.9 328.4,644.2 Q323.7,644.4 318.7,644.4 Q313.7,644.1 308.7,643.5 Q303.7,642.5 298.8,641.1 Q293.9,639.5 289.1,637.6 Q284.5,635.6 280.2,633.6 Q276.4,631.7 273.1,630.0 Q270.1,628.4 267.2,626.7 Q264.0,624.8 260.2,622.7 Q256.1,620.2 251.9,617.7 Q247.6,615.2 243.4,612.8 Q239.4,610.4 235.5,608.0 Q231.8,605.7 228.2,603.5 Q224.6,601.2 221.2,598.8 Q217.7,596.4 214.2,593.7 Q210.7,590.9 207.2,587.9 Q203.6,584.7 200.1,581.3 Q196.6,577.7 193.2,574.0 Q189.9,570.2 186.9,566.3 Q184.0,562.5 181.4,558.6 Q179.1,554.8 177.0,550.8 Q175.0,546.8 173.3,542.6 Q171.6,538.3 170.1,533.8 Q168.8,529.2 167.6,524.5 Q166.7,519.6 165.9,514.6 Q165.2,509.5 164.6,504.4 Q163.8,499.2 163.0,494.1 Q162.2,488.9 161.2,483.8 Q160.3,478.8 159.4,473.7 Q158.5,468.7 157.6,463.7 Q156.6,458.6 155.7,453.6 Q154.9,448.6 154.1,443.6 Q153.5,438.6 153.0,433.6 Q152.7,428.8 152.5,424.1 Q152.6,419.5 152.9,415.2 Q153.4,411.1 154.1,407.2 Q154.9,403.3 155.9,399.4 Q156.9,395.5 157.9,391.5 Q159.1,387.3 160.3,383.0 Q161.5,378.5 162.8,373.8 Q164.1,369.0 165.3,363.9 Q166.4,358.8 167.4,353.7 Q168.3,348.4 169.2,343.3 Q170.0,338.1 170.9,332.9 Q171.8,327.9 172.8,322.9 Q173.9,317.9 174.9,313.1 Q176.0,308.3 177.0,303.6 Q178.0,299.0 179.0,294.4 Q180.0,289.7 181.0,285.1 Q181.9,280.6 182.9,276.1 Q183.9,271.6 185.0,267.3 Q186.1,263.0 187.3,258.8 Q188.7,254.6 190.2,250.3 Q191.8,246.0 193.7,241.6 Q195.8,237.1 198.0,232.6 Q200.5,228.0 203.2,223.6 Q206.1,219.3 209.2,215.2 Q212.5,211.4 216.1,207.8 Q219.8,204.6 223.8,201.7 Q228.0,199.1 232.3,196.9 Q236.8,195.0 241.5,193.4 Q246.3,192.2 251.2,191.3 Q256.2,190.6 261.3,190.1 Q266.4,189.7 271.5,189.2 Q276.6,188.6 281.8,188.0 Q286.9,187.2 292.0,186.3 Q297.0,185.3 302.0,184.2 Q306.9,182.8 311.8,181.2 Q316.6,179.3 321.4,177.0 Q326.1,174.6 330.8,172.1 Q335.5,169.5 340.2,167.1 Q344.9,164.9 349.7,162.9 Q354.6,161.1 359.5,159.5 Q364.5,158.1 369.6,157.0 Q374.8,156.2 380.0,155.6 Q385.2,155.1 390.3,154.8 Q395.4,154.6 400.3,154.5 Q405.1,154.4 409.8,154.3 Q414.2,154.3 418.6,154.3 Q422.8,154.3 426.9,154.4 Q431.0,154.6 435.1,154.8 Q439.2,155.2 443.2,155.5 Q447.3,155.9 451.4,156.3 Q455.4,156.8 459.4,157.3 Q463.3,157.9 467.2,158.6 Q470.9,159.2 474.6,159.9 Q478.1,160.5 481.5,161.1 Q484.8,161.7 488.1,162.2 Q491.3,162.9 494.6,163.6 Q497.8,164.4 501.0,165.3 Q504.3,166.5 507.6,167.8 Q511.0,169.2 514.5,170.9 Q518.1,172.7 521.9,174.8 Q525.6,177.2 529.4,179.7 Q533.1,182.5 536.6,185.4 Q540.0,188.4 543.2,191.4 Q546.2,194.3 549.0,197.3 Q551.9,200.2 554.8,203.3 Q557.9,206.4 561.1,209.7 Q564.4,213.1 567.8,216.6 Q571.1,220.3 574.5,224.0 Q577.7,228.0 580.9,232.0 Q583.9,236.3 586.8,240.6 Q589.6,245.1 592.2,249.6 Q594.9,254.3 597.5,258.9 Q600.1,263.6 602.8,268.3 Q605.5,272.9 608.2,277.5 Q610.9,281.9 613.5,286.4 Q616.0,290.8 618.5,295.2 Q620.9,299.8 623.3,304.4 Q625.7,309.0 628.0,313.8 Q630.2,318.6 632.3,323.4 Q634.4,328.3 636.5,333.3 Q638.5,338.3 640.5,343.2 Q642.4,348.2 644.0,353.2 Q645.5,358.1 646.8,363.0 Q648.0,367.9 649.2,372.7 Q650.4,377.5 651.7,382.2 Q653.1,386.9 654.5,391.6 Z" fill="#673b00" fill-opacity="0.037" stroke="none"/>
<path d="M677.8,390.0 Q675.7,394.5 673.9,398.8 Q672.1,403.2 670.5,407.5 Q669.0,411.7 667.6,415.9 Q666.2,420.0 664.9,424.2 Q663.5,428.2 662.1,432.3 Q660.6,436.2 658.9,440.0 Q657.1,443.7 655.2,447.4 Q653.1,450.8 650.9,454.2 Q648.5,457.4 646.2,460.6 Q643.7,463.6 641.3,466.6 Q638.9,469.5 636.5,472.3 Q634.1,475.2 631.8,478.0 Q629.6,480.9 627.5,483.8 Q625.5,486.8 623.7,489.8 Q622.0,493.0 620.5,496.3 Q619.1,499.7 617.8,503.2 Q616.6,506.8 615.4,510.6 Q614.3,514.5 613.2,518.5 Q612.2,522.5 611.3,526.7 Q610.4,530.9 609.6,535.1 Q608.6,539.3 607.5,543.4 Q606.2,547.5 604.8,551.6 Q603.2,555.5 601.4,559.3 Q599.5,562.9 597.5,566.4 Q595.3,569.7 593.0,572.8 Q590.5,575.8 587.9,578.7 Q585.2,581.4 582.4,584.1 Q579.5,586.7 576.6,589.3 Q573.6,591.9 570.6,594.5 Q567.7,597.2 564.8,599.8 Q561.9,602.6 559.2,605.4 Q556.5,608.3 554.0,611.4 Q551.5,614.7 549.2,618.1 Q546.8,621.8 544.5,625.6 Q542.3,629.6 540.0,633.7 Q537.7,637.9 535.5,642.2 Q533.2,646.6 530.8,650.9 Q528.2,655.1 525.4,659.1 Q522.5,662.9 519.5,666.4 Q516.3,669.6 513.0,672.5 Q509.5,675.1 505.9,677.4 Q502.2,679.5 498.4,681.3 Q494.4,682.9 490.4,684.3 Q486.2,685.5 481.9,686.5 Q477.6,687.3 473.2,687.8 Q468.7,688.2 464.1,688.3 Q459.6,688.3 455.0,688.1 Q450.4,687.8 445.8,687.3 Q441.3,686.6 436.8,685.9 Q432.4,685.2 428.0,684.5 Q423.6,683.9 419.3,683.3 Q415.0,682.7 410.8,682.1 Q406.6,681.5 402.5,680.8 Q398.5,680.0 394.5,679.2 Q390.6,678.3 386.6,677.4 Q382.7,676.5 378.9,675.4 Q375.0,674.3 371.2,673.2 Q367.3,672.0 363.5,670.7 Q359.6,669.4 355.8,668.1 Q351.9,666.8 348.0,665.7 Q344.0,664.6 339.9,663.8 Q335.7,663.1 331.5,662.7 Q327.2,662.6 322.7,662.7 Q318.2,663.1 313.5,663.8 Q308.7,664.6 303.8,665.4 Q298.8,666.3 293.8,667.1 Q288.7,667.8 283.5,668.4 Q278.3,668.8 273.1,669.0 Q267.9,668.8 262.7,668.1 Q257.7,667.1 252.7,665.6 Q247.9,663.8 243.2,661.5 Q238.8,658.9 234.6,656.0 Q230.7,652.9 227.2,649.5 Q224.0,645.8 221.2,642.0 Q218.7,637.9 216.4,633.7 Q214.3,629.4 212.3,625.0 Q210.4,620.5 208.6,616.1 Q206.9,611.8 205.3,607.6 Q203.7,603.5 202.1,599.6 Q200.6,595.7 199.0,591.9 Q197.5,588.2 196.0,584.4 Q194.7,580.7 193.5,577.0 Q192.5,573.2 191.6,569.4 Q190.9,565.7 190.2,561.9 Q189.6,558.1 189.0,554.3 Q188.3,550.5 187.5,546.7 Q186.6,543.0 185.6,539.3 Q184.5,535.7 183.3,532.2 Q182.0,528.8 180.6,525.5 Q179.1,522.3 177.6,519.2 Q176.0,516.2 174.4,513.2 Q172.9,510.2 171.3,507.3 Q169.7,504.4 168.1,501.5 Q166.6,498.5 165.1,495.5 Q163.6,492.3 162.2,489.1 Q160.9,485.7 159.6,482.2 Q158.3,478.5 157.1,474.7 Q156.1,470.8 155.3,466.8 Q154.8,462.7 154.5,458.6 Q154.5,454.4 154.8,450.2 Q155.1,446.0 155.6,441.9 Q156.0,437.8 156.4,433.9 Q156.6,429.9 156.8,426.1 Q156.8,422.5 156.8,418.9 Q156.6,415.3 156.4,411.9 Q156.0,408.5 155.5,405.2 Q154.9,401.9 154.1,398.6 Q153.1,395.3 152.0,391.9 Q150.8,388.6 149.4,385.2 Q147.9,381.8 146.3,378.2 Q144.8,374.7 143.2,371.0 Q141.6,367.3 140.2,363.5 Q138.8,359.7 137.7,355.9 Q136.9,352.0 136.3,348.2 Q136.0,344.3 136.0,340.5 Q136.2,336.6 136.6,332.8 Q137.2,328.9 138.0,325.1 Q139.0,321.1 140.1,317.2 Q141.4,313.2 142.8,309.2 Q144.3,305.1 145.9,301.0 Q147.4,296.9 149.0,292.8 Q150.6,288.6 152.2,284.5 Q153.7,280.3 155.2,276.0 Q156.6,271.7 158.0,267.3 Q159.4,262.9 160.7,258.5 Q162.1,254.0 163.5,249.5 Q165.0,244.9 166.7,240.4 Q168.5,236.0 170.6,231.6 Q172.9,227.4 175.5,223.4 Q178.2,219.5 181.1,215.9 Q184.2,212.5 187.3,209.3 Q190.5,206.4 193.7,203.8 Q197.0,201.4 200.2,199.1 Q203.5,197.1 206.7,195.3 Q210.0,193.7 213.3,192.3 Q216.6,191.0 219.8,189.8 Q223.1,188.6 226.4,187.5 Q229.7,186.3 232.9,185.1 Q236.0,183.8 239.2,182.4 Q242.3,180.9 245.4,179.3 Q248.4,177.7 251.4,175.9 Q254.5,174.2 257.6,172.3 Q260.7,170.4 263.9,168.5 Q267.2,166.6 270.7,164.8 Q274.3,163.0 278.0,161.3 Q281.9,159.8 286.0,158.4 Q290.1,157.1 294.4,155.9 Q298.9,154.8 303.3,153.6 Q307.9,152.5 312.4,151.4 Q317.0,150.2 321.5,148.9 Q325.9,147.5 330.3,145.9 Q334.5,144.4 338.7,142.8 Q342.8,141.3 346.8,139.9 Q350.7,138.6 354.6,137.4 Q358.5,136.4 362.4,135.6 Q366.3,134.9 370.2,134.4 Q374.2,134.0 378.2,133.8 Q382.3,133.7 386.4,133.6 Q390.6,133.6 394.8,133.8 Q399.1,134.0 403.4,134.3 Q407.7,134.6 412.0,134.9 Q416.3,135.0 420.6,135.0 Q424.8,135.0 429.0,135.0 Q433.2,135.1 437.4,135.2 Q441.5,135.4 445.5,135.6 Q449.6,135.8 453.6,136.0 Q457.6,136.3 461.6,136.5 Q465.5,136.9 469.5,137.3 Q473.4,137.8 477.3,138.4 Q481.1,139.1 484.9,139.8 Q488.6,140.7 492.3,141.7 Q496.0,142.9 499.6,144.2 Q503.1,145.8 506.5,147.5 Q509.9,149.4 513.2,151.6 Q516.4,153.9 519.4,156.4 Q522.4,159.1 525.3,161.9 Q528.1,164.9 530.8,168.0 Q533.5,171.2 536.3,174.4 Q539.1,177.7 542.0,180.9 Q545.1,184.1 548.4,187.1 Q551.9,190.0 555.6,192.6 Q559.4,195.1 563.5,197.2 Q567.8,199.2 572.3,200.8 Q577.0,202.2 581.8,203.4 Q586.7,204.5 591.7,205.4 Q596.7,206.3 601.8,207.2 Q606.7,208.1 611.6,209.1 Q616.3,210.1 620.9,211.3 Q625.3,212.7 629.5,214.3 Q633.6,216.1 637.5,218.1 Q641.2,220.1 644.8,222.2 Q648.4,224.3 651.8,226.3 Q655.1,228.3 658.3,230.3 Q661.4,232.3 664.4,234.4 Q667.4,236.5 670.2,238.7 Q673.0,241.1 675.7,243.5 Q678.3,246.1 680.9,248.8 Q683.3,251.6 685.6,254.6 Q687.8,257.7 689.8,261.1 Q691.7,264.6 693.4,268.3 Q694.9,272.2 696.2,276.3 Q697.3,280.6 698.1,285.0 Q698.8,289.6 699.2,294.3 Q699.6,299.1 699.8,304.0 Q700.0,309.0 700.0,313.9 Q700.0,318.9 699.8,323.8 Q699.6,328.8 699.2,333.6 Q698.5,338.5 697.7,343.4 Q696.5,348.2 695.2,353.0 Q693.5,357.8 691.6,362.6 Q689.5,367.3 687.2,371.9 Q684.8,376.5 682.4,381.1 Z" fill="none" stroke="#23a683" stroke-width="0.56" opacity="0.200" stroke-linecap="round" stroke-linejoin="round"/>
<path d="M677.8,390.0 Q675.7,394.5 673.9,398.8 Q672.1,403.2 670.5,407.5 Q669.0,411.7 667.6,415.9 Q666.2,420.0 664.9,424.2 Q663.5,428.2 662.1,432.3 Q660.6,436.2 658.9,440.0 Q657.1,443.7 655.2,447.4 Q653.1,450.8 650.9,454.2 Q648.5,457.4 646.2,460.6 Q643.7,463.6 641.3,466.6 Q638.9,469.5 636.5,472.3 Q634.1,475.2 631.8,478.0 Q629.6,480.9 627.5,483.8 Q625.5,486.8 623.7,489.8 Q622.0,493.0 620.5,496.3 Q619.1,499.7 617.8,503.2 Q616.6,506.8 615.4,510.6 Q614.3,514.5 613.2,518.5 Q612.2,522.5 611.3,526.7 Q610.4,530.9 609.6,535.1 Q608.6,539.3 607.5,543.4 Q606.2,547.5 604.8,551.6 Q603.2,555.5 601.4,559.3 Q599.5,562.9 597.5,566.4 Q595.3,569.7 593.0,572.8 Q590.5,575.8 587.9,578.7 Q585.2,581.4 582.4,584.1 Q579.5,586.7 576.6,589.3 Q573.6,591.9 570.6,594.5 Q567.7,597.2 564.8,599.8 Q561.9,602.6 559.2,605.4 Q556.5,608.3 554.0,611.4 Q551.5,614.7 549.2,618.1 Q546.8,621.8 544.5,625.6 Q542.3,629.6 540.0,633.7 Q537.7,637.9 535.5,642.2 Q533.2,646.6 530.8,650.9 Q528.2,655.1 525.4,659.1 Q522.5,662.9 519.5,666.4 Q516.3,669.6 513.0,672.5 Q509.5,675.1 505.9,677.4 Q502.2,679.5 498.4,681.3 Q494.4,682.9 490.4,684.3 Q486.2,685.5 481.9,686.5 Q477.6,687.3 473.2,687.8 Q468.7,688.2 464.1,688.3 Q459.6,688.3 455.0,688.1 Q450.4,687.8 445.8,687.3 Q441.3,686.6 436.8,685.9 Q432.4,685.2 428.0,684.5 Q423.6,683.9 419.3,683.3 Q415.0,682.7 410.8,682.1 Q406.6,681.5 402.5,680.8 Q398.5,680.0 394.5,679.2 Q390.6,678.3 386.6,677.4 Q382.7,676.5 378.9,675.4 Q375.0,674.3 371.2,673.2 Q367.3,672.0 363.5,670.7 Q359.6,669.4 355.8,668.1 Q351.9,666.8 348.0,665.7 Q344.0,664.6 339.9,663.8 Q335.7,663.1 331.5,662.7 Q327.2,662.6 322.7,662.7 Q318.2,663.1 313.5,663.8 Q308.7,664.6 303.8,665.4 Q298.8,666.3 293.8,667.1 Q288.7,667.8 283.5,668.4 Q278.3,668.8 273.1,669.0 Q267.9,668.8 262.7,668.1 Q257.7,667.1 252.7,665.6 Q247.9,663.8 243.2,661.5 Q238.8,658.9 234.6,656.0 Q230.7,652.9 227.2,649.5 Q224.0,645.8 221.2,642.0 Q218.7,637.9 216.4,633.7 Q214.3,629.4 212.3,625.0 Q210.4,620.5 208.6,616.1 Q206.9,611.8 205.3,607.6 Q203.7,603.5 202.1,599.6 Q200.6,595.7 199.0,591.9 Q197.5,588.2 196.0,584.4 Q194.7,580.7 193.5,577.0 Q192.5,573.2 191.6,569.4 Q190.9,565.7 190.2,561.9 Q189.6,558.1 189.0,554.3 Q188.3,550.5 187.5,546.7 Q186.6,543.0 185.6,539.3 Q184.5,535.7 183.3,532.2 Q182.0,528.8 180.6,525.5 Q179.1,522.3 177.6,519.2 Q176.0,516.2 174.4,513.2 Q172.9,510.2 171.3,507.3 Q169.7,504.4 168.1,501.5 Q166.6,498.5 165.1,495.5 Q163.6,492.3 162.2,489.1 Q160.9,485.7 159.6,482.2 Q158.3,478.5 157.1,474.7 Q156.1,470.8 155.3,466.8 Q154.8,462.7 154.5,458.6 Q154.5,454.4 154.8,450.2 Q155.1,446.0 155.6,441.9 Q156.0,437.8 156.4,433.9 Q156.6,429.9 156.8,426.1 Q156.8,422.5 156.8,418.9 Q156.6,415.3 156.4,411.9 Q156.0,408.5 155.5,405.2 Q154.9,401.9 154.1,398.6 Q153.1,395.3 152.0,391.9 Q150.8,388.6 149.4,385.2 Q147.9,381.8 146.3,378.2 Q144.8,374.7 143.2,371.0 Q141.6,367.3 140.2,363.5 Q138.8,359.7 137.7,355.9 Q136.9,352.0 136.3,348.2 Q136.0,344.3 136.0,340.5 Q136.2,336.6 136.6,332.8 Q137.2,328.9 138.0,325.1 Q139.0,321.1 140.1,317.2 Q141.4,313.2 142.8,309.2 Q144.3,305.1 145.9,301.0 Q147.4,296.9 149.0,292.8 Q150.6,288.6 152.2,284.5 Q153.7,280.3 155.2,276.0 Q156.6,271.7 158.0,267.3 Q159.4,262.9 160.7,258.5 Q162.1,254.0 163.5,249.5 Q165.0,244.9 166.7,240.4 Q168.5,236.0 170.6,231.6 Q172.9,227.4 175.5,223.4 Q178.2,219.5 181.1,215.9 Q184.2,212.5 187.3,209.3 Q190.5,206.4 193.7,203.8 Q197.0,201.4 200.2,199.1 Q203.5,197.1 206.7,195.3 Q210.0,193.7 213.3,192.3 Q216.6,191.0 219.8,189.8 Q223.1,188.6 226.4,187.5 Q229.7,186.3 232.9,185.1 Q236.0,183.8 239.2,182.4 Q242.3,180.9 245.4,179.3 Q248.4,177.7 251.4,175.9 Q254.5,174.2 257.6,172.3 Q260.7,170.4 263.9,168.5 Q267.2,166.6 270.7,164.8 Q274.3,163.0 278.0,161.3 Q281.9,159.8 286.0,158.4 Q290.1,157.1 294.4,155.9 Q298.9,154.8 303.3,153.6 Q307.9,152.5 312.4,151.4 Q317.0,150.2 321.5,148.9 Q325.9,147.5 330.3,145.9 Q334.5,144.4 338.7,142.8 Q342.8,141.3 346.8,139.9 Q350.7,138.6 354.6,137.4 Q358.5,136.4 362.4,135.6 Q366.3,134.9 370.2,134.4 Q374.2,134.0 378.2,133.8 Q382.3,133.7 386.4,133.6 Q390.6,133.6 394.8,133.8 Q399.1,134.0 403.4,134.3 Q407.7,134.6 412.0,134.9 Q416.3,135.0 420.6,135.0 Q424.8,135.0 429.0,135.0 Q433.2,135.1 437.4,135.2 Q441.5,135.4 445.5,135.6 Q449.6,135.8 453.6,136.0 Q457.6,136.3 461.6,136.5 Q465.5,136.9 469.5,137.3 Q473.4,137.8 477.3,138.4 Q481.1,139.1 484.9,139.8 Q488.6,140.7 492.3,141.7 Q496.0,142.9 499.6,144.2 Q503.1,145.8 506.5,147.5 Q509.9,149.4 513.2,151.6 Q516.4,153.9 519.4,156.4 Q522.4,159.1 525.3,161.9 Q528.1,164.9 530.8,168.0 Q533.5,171.2 536.3,174.4 Q539.1,177.7 542.0,180.9 Q545.1,184.1 548.4,187.1 Q551.9,190.0 555.6,192.6 Q559.4,195.1 563.5,197.2 Q567.8,199.2 572.3,200.8 Q577.0,202.2 581.8,203.4 Q586.7,204.5 591.7,205.4 Q596.7,206.3 601.8,207.2 Q606.7,208.1 611.6,209.1 Q616.3,210.1 620.9,211.3 Q625.3,212.7 629.5,214.3 Q633.6,216.1 637.5,218.1 Q641.2,220.1 644.8,222.2 Q648.4,224.3 651.8,226.3 Q655.1,228.3 658.3,230.3 Q661.4,232.3 664.4,234.4 Q667.4,236.5 670.2,238.7 Q673.0,241.1 675.7,243.5 Q678.3,246.1 680.9,248.8 Q683.3,251.6 685.6,254.6 Q687.8,257.7 689.8,261.1 Q691.7,264.6 693.4,268.3 Q694.9,272.2 696.2,276.3 Q697.3,280.6 698.1,285.0 Q698.8,289.6 699.2,294.3 Q699.6,299.1 699.8,304.0 Q700.0,309.0 700.0,313.9 Q700.0,318.9 699.8,323.8 Q699.6,328.8 699.2,333.6 Q698.5,338.5 697.7,343.4 Q696.5,348.2 695.2,353.0 Q693.5,357.8 691.6,362.6 Q689.5,367.3 687.2,371.9 Q684.8,376.5 682.4,381.1 Z" fill="#566b00" fill-opacity="0.030" stroke="none"/>
</g>

<rect width='800' height='800' fill='url(#vig)'/>
</svg>
