<svg xmlns="http://www.w3.org/2000/svg" xmlns:xlink="http://www.w3.org/1999/xlink" width="360" height="198" viewBox="0 0 360 198" role="img" aria-label="nbadb">
<defs>
<style>
.rc-bg { fill: transparent; }
.rc-border { stroke: #d0d7de; }
.rc-title { fill: #0969da; font: 600 17px -apple-system, BlinkMacSystemFont, 'Segoe UI', 'Noto Sans', Helvetica, Arial, sans-serif; }
.rc-desc { fill: #656d76; font: 400 13px -apple-system, BlinkMacSystemFont, 'Segoe UI', 'Noto Sans', Helvetica, Arial, sans-serif; }
.rc-meta { fill: #24292e; font: 400 12px -apple-system, BlinkMacSystemFont, 'Segoe UI', 'Noto Sans', Helvetica, Arial, sans-serif; }
.rc-lang-dot { stroke: none; }
.rc-lang-label { fill: #24292e; font: 400 12px -apple-system, BlinkMacSystemFont, 'Segoe UI', 'Noto Sans', Helvetica, Arial, sans-serif; }
.sparkline { fill: none; stroke: #3572A5; stroke-width: 2; opacity: 0.88; }
@media (prefers-color-scheme: dark) {
  .rc-bg { fill: transparent; }
  .rc-border { stroke: #30363d; }
  .rc-title { fill: #58a6ff; }
  .rc-desc { fill: #8b949e; }
  .rc-meta { fill: #8b949e; }
  .rc-lang-label { fill: #8b949e; }
  .sparkline { stroke: #58a6ff; }
}
</style>
<clipPath id="card-clip"><rect width="360" height="198" rx="10" /></clipPath>
<filter id="shadow" x="-5%" y="-5%" width="110%" height="110%"><feDropShadow dx="0" dy="4" stdDeviation="5" flood-color="#000000" flood-opacity="0.06"/><feDropShadow dx="0" dy="1" stdDeviation="2" flood-color="#000000" flood-opacity="0.04"/></filter><linearGradient id="glass-grad" x1="0" y1="0" x2="0" y2="1"><stop offset="0%" stop-color="#ffffff" stop-opacity="0.04" /><stop offset="100%" stop-color="#ffffff" stop-opacity="0" /></linearGradient>
<linearGradient id="spark-grad" x1="0" y1="0" x2="0" y2="1"><stop offset="0%" stop-color="var(--spark-stroke)" stop-opacity="0.18" /><stop offset="100%" stop-color="var(--spark-stroke)" stop-opacity="0" /></linearGradient>
</defs>
<rect class="rc-bg" width="360" height="198" rx="10" filter="url(#shadow)" />
<rect width="360" height="198" rx="10" fill="url(#glass-grad)" />
<rect class="rc-border" x="0.5" y="0.5" width="359" height="197" rx="10" fill="none" stroke-width="1" />
<rect x="1.5" y="1.5" width="357" height="195" rx="9" fill="none" stroke="#ffffff" stroke-opacity="0.1" stroke-width="1" />
<rect x="0" y="0" width="360" height="3" fill="#3572A5" clip-path="url(#card-clip)" />
<g transform="translate(20,142)" class="sparkline-group">
<path d="M0.0,28.0 C2.3,27.0 9.3,23.7 13.9,21.8 C18.6,19.9 23.2,17.7 27.8,16.6 C32.5,15.5 37.1,15.3 41.7,15.0 C46.4,14.8 51.0,15.0 55.7,15.0 C60.3,15.0 64.9,15.1 69.6,15.0 C74.2,15.0 78.8,14.7 83.5,14.5 C88.1,14.3 92.8,14.3 97.4,14.0 C102.0,13.7 106.7,13.0 111.3,12.4 C115.9,11.8 120.6,10.7 125.2,10.4 C129.9,10.0 134.5,10.4 139.1,10.4 C143.8,10.4 148.4,10.5 153.0,10.4 C157.7,10.3 162.3,10.2 167.0,9.9 C171.6,9.5 176.2,8.7 180.9,8.3 C185.5,7.9 190.1,7.7 194.8,7.3 C199.4,6.8 204.1,6.0 208.7,5.7 C213.3,5.4 218.0,5.4 222.6,5.2 C227.2,4.9 231.9,4.4 236.5,4.1 C241.2,3.9 245.8,3.9 250.4,3.6 C255.1,3.4 259.7,2.9 264.3,2.6 C269.0,2.3 273.6,2.4 278.3,2.1 C282.9,1.7 287.5,0.8 292.2,0.5 C296.8,0.3 301.4,0.6 306.1,0.5 C310.7,0.4 317.7,0.1 320.0,0.0 L320.0,28.0 L0,28.0 Z" fill="url(#spark-grad)" />
<path d="M0.0,28.0 C2.3,27.0 9.3,23.7 13.9,21.8 C18.6,19.9 23.2,17.7 27.8,16.6 C32.5,15.5 37.1,15.3 41.7,15.0 C46.4,14.8 51.0,15.0 55.7,15.0 C60.3,15.0 64.9,15.1 69.6,15.0 C74.2,15.0 78.8,14.7 83.5,14.5 C88.1,14.3 92.8,14.3 97.4,14.0 C102.0,13.7 106.7,13.0 111.3,12.4 C115.9,11.8 120.6,10.7 125.2,10.4 C129.9,10.0 134.5,10.4 139.1,10.4 C143.8,10.4 148.4,10.5 153.0,10.4 C157.7,10.3 162.3,10.2 167.0,9.9 C171.6,9.5 176.2,8.7 180.9,8.3 C185.5,7.9 190.1,7.7 194.8,7.3 C199.4,6.8 204.1,6.0 208.7,5.7 C213.3,5.4 218.0,5.4 222.6,5.2 C227.2,4.9 231.9,4.4 236.5,4.1 C241.2,3.9 245.8,3.9 250.4,3.6 C255.1,3.4 259.7,2.9 264.3,2.6 C269.0,2.3 273.6,2.4 278.3,2.1 C282.9,1.7 287.5,0.8 292.2,0.5 C296.8,0.3 301.4,0.6 306.1,0.5 C310.7,0.4 317.7,0.1 320.0,0.0" fill="none" stroke="var(--spark-stroke)" stroke-width="1.5" stroke-linecap="round" stroke-linejoin="round" />
</g>
<svg x="20" y="18" width="18" height="18" viewBox="0 0 16 16" fill="var(--meta-color)"><path fill-rule="evenodd" d="M2 2.5A2.5 2.5 0 0 1 4.5 0h8.75a.75.75 0 0 1 .75.75v12.5a.75.75 0 0 1-.75.75h-2.5a.75.75 0 0 1 0-1.5h1.75v-2h-8a1 1 0 0 0-.714 1.7.75.75 0 1 1-1.072 1.05A2.495 2.495 0 0 1 2 11.5Zm10.5-1h-8a1 1 0 0 0-1 1v6.708A2.486 2.486 0 0 1 4.5 9h8ZM5 12.25a.25.25 0 0 1 .25-.25h3.5a.25.25 0 0 1 .25.25v3.25a.25.25 0 0 1-.4.2l-1.45-1.087a.249.249 0 0 0-.3 0L5.4 15.7a.25.25 0 0 1-.4-.2Z" /></svg>
<text class="rc-title" x="44" y="33" style="font: 600 17px -apple-system, BlinkMacSystemFont, 'Segoe UI', 'Noto Sans', Helvetica, Arial, sans-serif;">nbadb</text>
<text class="rc-meta" x="326" y="33">14</text>
<svg x="308" y="21" width="16" height="16" viewBox="0 0 10 10" fill="var(--meta-color)"><path d="M5 3.25a.75.75 0 1 1-1.5 0 .75.75 0 0 1 1.5 0Zm-.25 2.353A2.25 2.25 0 1 0 3.25 2v.104A2.25 2.25 0 0 0 1 4.25v.5c0 .122.01.242.027.358A2.25 2.25 0 0 0 3.25 7.5h1.5a2.25 2.25 0 0 0 2.223-2.392A2.502 2.502 0 0 0 5 2.604V2.5a2.25 2.25 0 1 0-1.5 .003v.1A1 1 0 0 1 4.75 3.5h-1.5A1 1 0 0 1 2 2.6V2.5Z" /></svg>
<text class="rc-meta" x="282" y="33">57</text>
<svg x="264" y="21" width="16" height="16" viewBox="0 0 16 16" fill="var(--meta-color)"><path d="M8 .25a.75.75 0 0 1 .673.418l1.882 3.815 4.21.612a.75.75 0 0 1 .416 1.279l-3.046 2.97.719 4.192a.75.75 0 0 1-1.088.791L8 12.347l-3.766 1.98a.75.75 0 0 1-1.088-.79l.72-4.194L.818 6.374a.75.75 0 0 1 .416-1.28l4.21-.611L7.327.668A.75.75 0 0 1 8 .25Z" /></svg>
<text class="rc-desc" x="20" y="64" style="font: 400 12px -apple-system, BlinkMacSystemFont, 'Segoe UI', 'Noto Sans', Helvetica, Arial, sans-serif;">Data Extraction (from https://stats.nba.com)</text>
<text class="rc-desc" x="20" y="79" style="font: 400 12px -apple-system, BlinkMacSystemFont, 'Segoe UI', 'Noto Sans', Helvetica, Arial, sans-serif;">and Processing Scripts to Produce the NBA</text>
<text class="rc-desc" x="20" y="94" style="font: 400 12px -apple-system, BlinkMacSystemFont, 'Segoe UI', 'Noto Sans', Helvetica, Arial, sans-serif;">Database on Kaggle</text>
<text class="rc-desc" x="20" y="109" style="font: 400 12px -apple-system, BlinkMacSystemFont, 'Segoe UI', 'Noto Sans', Helvetica, Arial, sans-serif;">(https://kaggle.com/wyattowalsh/basketball)</text>
<text class="rc-desc" x="20" y="124" style="font: 400 12px -apple-system, BlinkMacSystemFont, 'Segoe UI', 'Noto Sans', Helvetica, Arial, sans-serif;">Topics database · kaggle · kaggle-dataset</text>
<clipPath id="lang-bar-clip"><rect x="20" y="168" width="320" height="4" rx="2" /></clipPath>
<g clip-path="url(#lang-bar-clip)">
<rect x="20.0" y="168" width="264.2" height="4" fill="#3572A5" />
<rect x="284.2" y="168" width="55.5" height="4" fill="#DA5B0B" />
<rect x="339.6" y="168" width="1.0" height="4" fill="#563d7c" />
</g>
<circle class="rc-lang-dot" cx="24" cy="180" r="4" fill="#3572A5" />
<text class="rc-meta" x="32" y="184">Python 83%</text>
<circle class="rc-lang-dot" cx="111" cy="180" r="4" fill="#DA5B0B" />
<text class="rc-meta" x="119" y="184">Jupyter Notebook 17%</text>
<circle class="rc-lang-dot" cx="263" cy="180" r="4" fill="#563d7c" />
<text class="rc-meta" x="271" y="184">CSS 0%</text>
</svg>