<svg xmlns="http://www.w3.org/2000/svg" xmlns:xlink="http://www.w3.org/1999/xlink" width="360" height="198" viewBox="0 0 360 198" role="img" aria-label="ai-web-feeds">
<defs>
<style>
.rc-bg { fill: transparent; }
.rc-border { stroke: #d0d7de; }
.rc-title { fill: #0969da; font: 600 17px -apple-system, BlinkMacSystemFont, 'Segoe UI', 'Noto Sans', Helvetica, Arial, sans-serif; }
.rc-desc { fill: #656d76; font: 400 13px -apple-system, BlinkMacSystemFont, 'Segoe UI', 'Noto Sans', Helvetica, Arial, sans-serif; }
.rc-meta { fill: #24292e; font: 400 12px -apple-system, BlinkMacSystemFont, 'Segoe UI', 'Noto Sans', Helvetica, Arial, sans-serif; }
.rc-lang-dot { stroke: none; }
.rc-lang-label { fill: #24292e; font: 400 12px -apple-system, BlinkMacSystemFont, 'Segoe UI', 'Noto Sans', Helvetica, Arial, sans-serif; }
.sparkline { fill: none; stroke: #3572A5; stroke-width: 2; opacity: 0.88; }
@media (prefers-color-scheme: dark) {
  .rc-bg { fill: transparent; }
  .rc-border { stroke: #30363d; }
  .rc-title { fill: #58a6ff; }
  .rc-desc { fill: #8b949e; }
  .rc-meta { fill: #8b949e; }
  .rc-lang-label { fill: #8b949e; }
  .sparkline { stroke: #58a6ff; }
}
</style>
<clipPath id="card-clip"><rect width="360" height="198" rx="10" /></clipPath>
<filter id="shadow" x="-5%" y="-5%" width="110%" height="110%"><feDropShadow dx="0" dy="4" stdDeviation="5" flood-color="#000000" flood-opacity="0.06"/><feDropShadow dx="0" dy="1" stdDeviation="2" flood-color="#000000" flood-opacity="0.04"/></filter><linearGradient id="glass-grad" x1="0" y1="0" x2="0" y2="1"><stop offset="0%" stop-color="#ffffff" stop-opacity="0.04" /><stop offset="100%" stop-color="#ffffff" stop-opacity="0" /></linearGradient>
</defs>
<rect class="rc-bg" width="360" height="198" rx="10" fill="transparent" filter="url(#shadow)" />
<rect width="360" height="198" rx="10" fill="url(#glass-grad)" />
<rect class="rc-border" x="0.5" y="0.5" width="359" height="197" rx="10" fill="none" stroke-width="1" />
<rect x="1.5" y="1.5" width="357" height="195" rx="9" fill="none" stroke="#ffffff" stroke-opacity="0.1" stroke-width="1" />
<rect x="0" y="0" width="360" height="3" fill="#3572A5" clip-path="url(#card-clip)" />
<svg x="20" y="18" width="18" height="18" viewBox="0 0 16 16" fill="var(--meta-color)"><path fill-rule="evenodd" d="M2 2.5A2.5 2.5 0 0 1 4.5 0h8.75a.75.75 0 0 1 .75.75v12.5a.75.75 0 0 1-.75.75h-2.5a.75.75 0 0 1 0-1.5h1.75v-2h-8a1 1 0 0 0-.714 1.7.75.75 0 1 1-1.072 1.05A2.495 2.495 0 0 1 2 11.5Zm10.5-1h-8a1 1 0 0 0-1 1v6.708A2.486 2.486 0 0 1 4.5 9h8ZM5 12.25a.25.25 0 0 1 .25-.25h3.5a.25.25 0 0 1 .25.25v3.25a.25.25 0 0 1-.4.2l-1.45-1.087a.249.249 0 0 0-.3 0L5.4 15.7a.25.25 0 0 1-.4-.2Z" /></svg>
<text class="rc-title" x="44" y="33" style="font: 600 17px -apple-system, BlinkMacSystemFont, 'Segoe UI', 'Noto Sans', Helvetica, Arial, sans-serif;">ai-web-feeds</text>
<text class="rc-meta" x="333" y="33">0</text>
<svg x="315" y="21" width="16" height="16" viewBox="0 0 16 16" fill="var(--meta-color)"><path d="M8 9.5a1.5 1.5 0 1 0 0-3 1.5 1.5 0 0 0 0 3ZM8 0a8 8 0 1 1 0 16A8 8 0 0 1 8 0ZM1.5 8a6.5 6.5 0 1 0 13 0 6.5 6.5 0 0 0-13 0Z" /></svg>
<text class="rc-meta" x="296" y="33">0</text>
<svg x="278" y="21" width="16" height="16" viewBox="0 0 16 16" fill="var(--meta-color)"><path d="M8 .25a.75.75 0 0 1 .673.418l1.882 3.815 4.21.612a.75.75 0 0 1 .416 1.279l-3.046 2.97.719 4.192a.75.75 0 0 1-1.088.791L8 12.347l-3.766 1.98a.75.75 0 0 1-1.088-.79l.72-4.194L.818 6.374a.75.75 0 0 1 .416-1.28l4.21-.611L7.327.668A.75.75 0 0 1 8 .25Z" /></svg>
<text class="rc-desc" x="20" y="64" style="font: 400 13px -apple-system, BlinkMacSystemFont, 'Segoe UI', 'Noto Sans', Helvetica, Arial, sans-serif;">AI/ML web feeds</text>
<clipPath id="lang-bar-clip"><rect x="20" y="168" width="269" height="4" rx="2" /></clipPath>
<g clip-path="url(#lang-bar-clip)">
<rect x="20.0" y="168" width="160.5" height="4" fill="#3572A5" />
<rect x="180.5" y="168" width="95.0" height="4" fill="#3178c6" />
<rect x="275.4" y="168" width="7.6" height="4" fill="#89e051" />
<rect x="283.0" y="168" width="3.4" height="4" fill="#f1e05a" />
<rect x="286.4" y="168" width="1.2" height="4" fill="#8b949e" />
<rect x="287.6" y="168" width="1.0" height="4" fill="#8b949e" />
<rect x="288.6" y="168" width="1.0" height="4" fill="#8b949e" />
<rect x="289.6" y="168" width="1.0" height="4" fill="#8b949e" />
<rect x="290.6" y="168" width="1.0" height="4" fill="#563d7c" />
</g>
<circle class="rc-lang-dot" cx="24" cy="180" r="4" fill="#3572A5" />
<text class="rc-meta" x="32" y="184">Python 60%</text>
<circle class="rc-lang-dot" cx="122" cy="180" r="4" fill="#3178c6" />
<text class="rc-meta" x="130" y="184">TypeScript 35%</text>
<svg x="301" y="172" width="14" height="14" viewBox="0 0 16 16" fill="var(--meta-color)"><path d="M8.75.75V2h.985c.304 0 .603.08.867.231l1.29.736c.038.022.08.033.124.033h2.234a.75.75 0 0 1 0 1.5h-.427l2.111 4.692a.75.75 0 0 1-.154.838l-.53-.53.529.531-.001.002-.002.002-.006.006-.006.005-.01.01-.045.04c-.21.176-.441.327-.686.45C14.556 10.78 13.88 11 13 11a4.498 4.498 0 0 1-2.023-.454 3.544 3.544 0 0 1-.686-.45l-.045-.04-.016-.015-.006-.006-.004-.004v-.001a.75.75 0 0 1-.154-.838L12.178 4.5h-.162c-.305 0-.604-.079-.868-.231l-1.29-.736a.245.245 0 0 0-.124-.033H8.75V13h2.5a.75.75 0 0 1 0 1.5h-6.5a.75.75 0 0 1 0-1.5h2.5V3.5h-.984a.245.245 0 0 0-.124.033l-1.289.737c-.265.15-.564.23-.869.23h-.162l2.112 4.692a.75.75 0 0 1-.154.838l-.53-.53.529.531-.001.002-.002.002-.006.006-.016.015-.045.04c-.21.176-.441.327-.686.45C4.556 10.78 3.88 11 3 11a4.498 4.498 0 0 1-2.023-.454 3.544 3.544 0 0 1-.686-.45l-.045-.04-.016-.015-.006-.006-.004-.004v-.001a.75.75 0 0 1-.154-.838L2.178 4.5H1.75a.75.75 0 0 1 0-1.5h2.234a.249.249 0 0 0 .125-.033l1.288-.737c.265-.15.564-.23.869-.23h.984V.75a.75.75 0 0 1 1.5 0Zm2.945 8.477c.285.135.718.273 1.305.273s1.02-.138 1.305-.273L13 6.327Zm-10 0c.285.135.718.273 1.305.273s1.02-.138 1.305-.273L3 6.327Z" /></svg>
<text class="rc-meta" x="319" y="184">MIT</text>
</svg>