<svg xmlns="http://www.w3.org/2000/svg" xmlns:xlink="http://www.w3.org/1999/xlink" width="480" height="175" viewBox="0 0 480 175" role="img" aria-label="riso">
<defs>
<style>
:root {
  --card-bg: transparent;
  --card-border: #d0d7de;
  --title-color: #0969da;
  --text-color: #656d76;
  --meta-color: #656d76;
  --stat-color: #24292e;
  --spark-stroke: #8b949e;
}
@media (prefers-color-scheme: dark) {
  :root {
    --card-bg: transparent;
    --card-border: #30363d;
    --title-color: #58a6ff;
    --text-color: #8b949e;
    --meta-color: #8b949e;
    --stat-color: #8b949e;
    --spark-stroke: #58a6ff;
  }
}
.rc-title { fill: var(--title-color); font: 600 17px/1.25 -apple-system, BlinkMacSystemFont, "Segoe UI", "Noto Sans", Helvetica, Arial, sans-serif; }
.rc-desc { fill: var(--text-color); font: 400 13px/1.5 -apple-system, BlinkMacSystemFont, "Segoe UI", "Noto Sans", Helvetica, Arial, sans-serif; }
.rc-meta { fill: var(--stat-color); font: 400 12px/1 -apple-system, BlinkMacSystemFont, "Segoe UI", "Noto Sans", Helvetica, Arial, sans-serif; }
.rc-lang-dot { stroke: none; }
.rc-lang-label { fill: var(--stat-color); font: 400 12px/1 -apple-system, BlinkMacSystemFont, "Segoe UI", "Noto Sans", Helvetica, Arial, sans-serif; }
</style>
<clipPath id="card-clip"><rect width="480" height="175" rx="10" /></clipPath>
</defs>
<rect width="480" height="175" rx="10" fill="var(--card-bg)" />
<rect x="0.5" y="0.5" width="479" height="174" rx="10" fill="none" stroke="var(--card-border)" stroke-width="1" />
<svg x="20" y="18" width="18" height="18" viewBox="0 0 16 16" fill="var(--meta-color)"><path fill-rule="evenodd" d="M2 2.5A2.5 2.5 0 0 1 4.5 0h8.75a.75.75 0 0 1 .75.75v12.5a.75.75 0 0 1-.75.75h-2.5a.75.75 0 0 1 0-1.5h1.75v-2h-8a1 1 0 0 0-.714 1.7.75.75 0 1 1-1.072 1.05A2.495 2.495 0 0 1 2 11.5Zm10.5-1h-8a1 1 0 0 0-1 1v6.708A2.486 2.486 0 0 1 4.5 9h8ZM5 12.25a.25.25 0 0 1 .25-.25h3.5a.25.25 0 0 1 .25.25v3.25a.25.25 0 0 1-.4.2l-1.45-1.087a.249.249 0 0 0-.3 0L5.4 15.7a.25.25 0 0 1-.4-.2Z" /></svg>
<text class="rc-title" x="44" y="33">riso</text>
<text class="rc-meta" x="453" y="33">0</text>
<svg x="435" y="21" width="16" height="16" viewBox="0 0 16 16" fill="var(--meta-color)"><path d="M8 .25a.75.75 0 0 1 .673.418l1.882 3.815 4.21.612a.75.75 0 0 1 .416 1.279l-3.046 2.97.719 4.192a.75.75 0 0 1-1.088.791L8 12.347l-3.766 1.98a.75.75 0 0 1-1.088-.79l.72-4.194L.818 6.374a.75.75 0 0 1 .416-1.28l4.21-.611L7.327.668A.75.75 0 0 1 8 .25Z" /></svg>
<text class="rc-desc" x="20" y="54">Production-ready project scaffolding: mix-and-match CLI,</text>
<text class="rc-desc" x="20" y="70">FastAPI, Fastify, GraphQL, WebSocket, MCP, and SaaS modules with</text>
<text class="rc-desc" x="20" y="86">batteries-included quality tooling Topics cli · copier ·…</text>
<clipPath id="lang-bar-clip"><rect x="20" y="145" width="260" height="4" rx="2" /></clipPath>
<g clip-path="url(#lang-bar-clip)">
<rect x="20.0" y="145" width="133.2" height="4" fill="#8b949e" />
<rect x="153.2" y="145" width="46.9" height="4" fill="#3572A5" />
<rect x="200.1" y="145" width="45.0" height="4" fill="#e34c26" />
<rect x="245.1" y="145" width="14.2" height="4" fill="#89e051" />
<rect x="259.3" y="145" width="13.4" height="4" fill="#3178c6" />
<rect x="272.7" y="145" width="5.3" height="4" fill="#8b949e" />
<rect x="278.0" y="145" width="1.2" height="4" fill="#8b949e" />
<rect x="279.2" y="145" width="1.0" height="4" fill="#563d7c" />
<rect x="280.2" y="145" width="1.0" height="4" fill="#f1e05a" />
<rect x="281.2" y="145" width="1.0" height="4" fill="#8b949e" />
</g>
<circle class="rc-lang-dot" cx="24" cy="157" r="4" fill="#8b949e" />
<text class="rc-meta" x="32" y="161">Jinja 51%</text>
<circle class="rc-lang-dot" cx="104" cy="157" r="4" fill="#3572A5" />
<text class="rc-meta" x="112" y="161">Python 18%</text>
<circle class="rc-lang-dot" cx="191" cy="157" r="4" fill="#e34c26" />
<text class="rc-meta" x="199" y="161">HTML 17%</text>
</svg>