<svg xmlns="http://www.w3.org/2000/svg" xmlns:xlink="http://www.w3.org/1999/xlink" width="360" height="216" viewBox="0 0 360 216" role="img" aria-label="listentropy">
<defs>
<style>
:root {
  --card-bg: #ffffff;
  --card-border: #d0d7de;
  --title-color: #0969da;
  --text-color: #656d76;
  --meta-color: #656d76;
  --stat-color: #656d76;
  --accent: #0969da;
  --spark-stroke: #0969da;
  --shadow-filter: url(#shadow);
  --glass-fill: url(#glass-grad);
  --rim-stroke: #ffffff;
  --rim-opacity: 0.12;
}
@media (prefers-color-scheme: dark) { :root {
  --card-bg: #0d1117;
  --card-border: #30363d;
  --title-color: #58a6ff;
  --text-color: #8b949e;
  --meta-color: #8b949e;
  --stat-color: #8b949e;
  --accent: #58a6ff;
  --spark-stroke: #58a6ff;
  --shadow-filter: url(#shadow-dark);
  --glass-fill: url(#glass-grad-dark);
  --rim-stroke: #f0f6fc;
  --rim-opacity: 0.08;
}}
.rc-bg { fill: var(--card-bg); filter: var(--shadow-filter); }
.rc-border { stroke: var(--card-border); }
.rc-glass { fill: var(--glass-fill); }
.rc-rim { fill: none; stroke: var(--rim-stroke); stroke-opacity: var(--rim-opacity); stroke-width: 1; }
.rc-title { fill: var(--title-color); font: 600 17px -apple-system, BlinkMacSystemFont, 'Segoe UI', 'Noto Sans', Helvetica, Arial, sans-serif; }
.rc-desc { fill: var(--text-color); font: 400 13px -apple-system, BlinkMacSystemFont, 'Segoe UI', 'Noto Sans', Helvetica, Arial, sans-serif; }
.rc-meta { fill: var(--stat-color); font: 400 12px -apple-system, BlinkMacSystemFont, 'Segoe UI', 'Noto Sans', Helvetica, Arial, sans-serif; }
.rc-lang-dot { stroke: none; }
.rc-lang-label { fill: var(--meta-color); font: 400 12px -apple-system, BlinkMacSystemFont, 'Segoe UI', 'Noto Sans', Helvetica, Arial, sans-serif; }
.sparkline { fill: none; stroke: var(--spark-stroke); stroke-width: 2; opacity: 0.88; }
</style>
<clipPath id="card-clip"><rect width="360" height="216" rx="10" /></clipPath>
<filter id="shadow" x="-5%" y="-5%" width="110%" height="110%"><feDropShadow dx="0" dy="4" stdDeviation="5" flood-color="#000000" flood-opacity="0.08"/><feDropShadow dx="0" dy="1" stdDeviation="2" flood-color="#000000" flood-opacity="0.05"/></filter><filter id="shadow-dark" x="-5%" y="-5%" width="110%" height="110%"><feDropShadow dx="0" dy="4" stdDeviation="6" flood-color="#010409" flood-opacity="0.55"/><feDropShadow dx="0" dy="1" stdDeviation="2" flood-color="#010409" flood-opacity="0.35"/></filter><linearGradient id="glass-grad" x1="0" y1="0" x2="0" y2="1"><stop offset="0%" stop-color="#ffffff" stop-opacity="0.05" /><stop offset="100%" stop-color="#ffffff" stop-opacity="0" /></linearGradient><linearGradient id="glass-grad-dark" x1="0" y1="0" x2="0" y2="1"><stop offset="0%" stop-color="#f0f6fc" stop-opacity="0.06" /><stop offset="100%" stop-color="#f0f6fc" stop-opacity="0" /></linearGradient>
</defs>
<rect class="rc-bg" width="360" height="216" rx="10" />
<rect class="rc-glass" width="360" height="216" rx="10" />
<rect class="rc-border" x="0.5" y="0.5" width="359" height="215" rx="10" fill="none" stroke-width="1" />
<rect class="rc-rim" x="1.5" y="1.5" width="357" height="213" rx="9" />
<rect x="0" y="0" width="360" height="3" fill="var(--spark-stroke)" clip-path="url(#card-clip)" />
<svg x="20" y="18" width="18" height="18" viewBox="0 0 16 16" fill="var(--meta-color)"><path fill-rule="evenodd" d="M2 2.5A2.5 2.5 0 0 1 4.5 0h8.75a.75.75 0 0 1 .75.75v12.5a.75.75 0 0 1-.75.75h-2.5a.75.75 0 0 1 0-1.5h1.75v-2h-8a1 1 0 0 0-.714 1.7.75.75 0 1 1-1.072 1.05A2.495 2.495 0 0 1 2 11.5Zm10.5-1h-8a1 1 0 0 0-1 1v6.708A2.486 2.486 0 0 1 4.5 9h8ZM5 12.25a.25.25 0 0 1 .25-.25h3.5a.25.25 0 0 1 .25.25v3.25a.25.25 0 0 1-.4.2l-1.45-1.087a.249.249 0 0 0-.3 0L5.4 15.7a.25.25 0 0 1-.4-.2Z" /></svg>
<text class="rc-title" x="44" y="33" style="font: 600 17px -apple-system, BlinkMacSystemFont, 'Segoe UI', 'Noto Sans', Helvetica, Arial, sans-serif;">listentropy</text>
<text class="rc-desc" x="20" y="64" style="font: 400 13px -apple-system, BlinkMacSystemFont, 'Segoe UI', 'Noto Sans', Helvetica, Arial, sans-serif;">Live stats are temporarily unavailable.</text>
<text class="rc-desc" x="20" y="80" style="font: 400 13px -apple-system, BlinkMacSystemFont, 'Segoe UI', 'Noto Sans', Helvetica, Arial, sans-serif;">Open the repository for full details.</text>
</svg>