<svg xmlns="http://www.w3.org/2000/svg" xmlns:xlink="http://www.w3.org/1999/xlink" width="480" height="175" viewBox="0 0 480 175" role="img" aria-label="personal-website">
<defs>
<style>
:root {
  --card-bg: transparent;
  --card-border: #d0d7de;
  --title-color: #0969da;
  --text-color: #656d76;
  --meta-color: #656d76;
  --stat-color: #24292e;
  --spark-stroke: #0969da;
}
@media (prefers-color-scheme: dark) {
  :root {
    --card-bg: transparent;
    --card-border: #30363d;
    --title-color: #58a6ff;
    --text-color: #8b949e;
    --meta-color: #8b949e;
    --stat-color: #8b949e;
    --spark-stroke: #58a6ff;
  }
}
.rc-title { fill: var(--title-color); font: 600 17px/1.25 -apple-system, BlinkMacSystemFont, "Segoe UI", "Noto Sans", Helvetica, Arial, sans-serif; }
.rc-desc { fill: var(--text-color); font: 400 13px/1.5 -apple-system, BlinkMacSystemFont, "Segoe UI", "Noto Sans", Helvetica, Arial, sans-serif; }
.rc-meta { fill: var(--stat-color); font: 400 12px/1 -apple-system, BlinkMacSystemFont, "Segoe UI", "Noto Sans", Helvetica, Arial, sans-serif; }
.rc-lang-dot { stroke: none; }
.rc-lang-label { fill: var(--stat-color); font: 400 12px/1 -apple-system, BlinkMacSystemFont, "Segoe UI", "Noto Sans", Helvetica, Arial, sans-serif; }
</style>
<clipPath id="card-clip"><rect width="480" height="175" rx="10" /></clipPath>
</defs>
<rect width="480" height="175" rx="10" fill="var(--card-bg)" />
<rect x="0.5" y="0.5" width="479" height="174" rx="10" fill="none" stroke="var(--card-border)" stroke-width="1" />
<svg x="20" y="18" width="18" height="18" viewBox="0 0 16 16" fill="var(--meta-color)"><path fill-rule="evenodd" d="M2 2.5A2.5 2.5 0 0 1 4.5 0h8.75a.75.75 0 0 1 .75.75v12.5a.75.75 0 0 1-.75.75h-2.5a.75.75 0 0 1 0-1.5h1.75v-2h-8a1 1 0 0 0-.714 1.7.75.75 0 1 1-1.072 1.05A2.495 2.495 0 0 1 2 11.5Zm10.5-1h-8a1 1 0 0 0-1 1v6.708A2.486 2.486 0 0 1 4.5 9h8ZM5 12.25a.25.25 0 0 1 .25-.25h3.5a.25.25 0 0 1 .25.25v3.25a.25.25 0 0 1-.4.2l-1.45-1.087a.249.249 0 0 0-.3 0L5.4 15.7a.25.25 0 0 1-.4-.2Z" /></svg>
<text class="rc-title" x="44" y="33">personal-website</text>
<text class="rc-desc" x="20" y="54">Live stats are temporarily unavailable. Open the repository for</text>
<text class="rc-desc" x="20" y="70">full details.</text>
</svg>