<svg xmlns="http://www.w3.org/2000/svg" xmlns:xlink="http://www.w3.org/1999/xlink" width="360" height="162" viewBox="0 0 360 162" role="img" aria-label="ai-web-feeds">
<defs>
<style>
:root {
  --card-bg: #ffffff;
  --card-border: #d0d7de;
  --title-color: #0969da;
  --text-color: #656d76;
  --meta-color: #656d76;
  --stat-color: #656d76;
  --accent: #3178c6;
  --spark-stroke: #3178c6;
}
@media (prefers-color-scheme: dark) { :root {
  --card-bg: #0d1117;
  --card-border: #30363d;
  --title-color: #58a6ff;
  --text-color: #8b949e;
  --meta-color: #8b949e;
  --stat-color: #8b949e;
  --accent: #3178c6;
  --spark-stroke: #3178c6;
}}
.rc-bg { fill: var(--card-bg); }
.rc-border { stroke: var(--card-border); }
.rc-title { fill: var(--title-color); font: 600 17px -apple-system, BlinkMacSystemFont, 'Segoe UI', 'Noto Sans', Helvetica, Arial, sans-serif; }
.rc-desc { fill: var(--text-color); font: 400 13px -apple-system, BlinkMacSystemFont, 'Segoe UI', 'Noto Sans', Helvetica, Arial, sans-serif; }
.rc-meta { fill: var(--stat-color); font: 400 12px -apple-system, BlinkMacSystemFont, 'Segoe UI', 'Noto Sans', Helvetica, Arial, sans-serif; }
.rc-lang-dot { stroke: none; }
.rc-lang-label { fill: var(--meta-color); font: 400 12px -apple-system, BlinkMacSystemFont, 'Segoe UI', 'Noto Sans', Helvetica, Arial, sans-serif; }
.sparkline { fill: none; stroke: var(--spark-stroke); stroke-width: 2; opacity: 0.88; }
</style>
<clipPath id="card-clip"><rect width="360" height="162" rx="10" /></clipPath>
<filter id="shadow" x="-5%" y="-5%" width="110%" height="110%"><feDropShadow dx="0" dy="4" stdDeviation="5" flood-color="#000000" flood-opacity="0.06"/><feDropShadow dx="0" dy="1" stdDeviation="2" flood-color="#000000" flood-opacity="0.04"/></filter><linearGradient id="glass-grad" x1="0" y1="0" x2="0" y2="1"><stop offset="0%" stop-color="#ffffff" stop-opacity="0.04" /><stop offset="100%" stop-color="#ffffff" stop-opacity="0" /></linearGradient>
</defs>
<rect class="rc-bg" width="360" height="162" rx="10" fill="var(--card-bg)" filter="url(#shadow)" />
<rect width="360" height="162" rx="10" fill="url(#glass-grad)" />
<rect class="rc-border" x="0.5" y="0.5" width="359" height="161" rx="10" fill="none" stroke-width="1" />
<rect x="1.5" y="1.5" width="357" height="159" rx="9" fill="none" stroke="#ffffff" stroke-opacity="0.1" stroke-width="1" />
<rect x="0" y="0" width="360" height="3" fill="#3178c6" clip-path="url(#card-clip)" />
<svg x="20" y="18" width="18" height="18" viewBox="0 0 16 16" fill="var(--meta-color)"><path fill-rule="evenodd" d="M2 2.5A2.5 2.5 0 0 1 4.5 0h8.75a.75.75 0 0 1 .75.75v12.5a.75.75 0 0 1-.75.75h-2.5a.75.75 0 0 1 0-1.5h1.75v-2h-8a1 1 0 0 0-.714 1.7.75.75 0 1 1-1.072 1.05A2.495 2.495 0 0 1 2 11.5Zm10.5-1h-8a1 1 0 0 0-1 1v6.708A2.486 2.486 0 0 1 4.5 9h8ZM5 12.25a.25.25 0 0 1 .25-.25h3.5a.25.25 0 0 1 .25.25v3.25a.25.25 0 0 1-.4.2l-1.45-1.087a.249.249 0 0 0-.3 0L5.4 15.7a.25.25 0 0 1-.4-.2Z" /></svg>
<text class="rc-title" x="44" y="33" style="font: 600 17px -apple-system, BlinkMacSystemFont, 'Segoe UI', 'Noto Sans', Helvetica, Arial, sans-serif;">ai-web-feeds</text>
<text class="rc-desc" x="20" y="64" style="font: 400 13px -apple-system, BlinkMacSystemFont, 'Segoe UI', 'Noto Sans', Helvetica, Arial, sans-serif;">AI/ML web feeds</text>
<clipPath id="lang-bar-clip"><rect x="20" y="132" width="269" height="4" rx="2" /></clipPath>
<g clip-path="url(#lang-bar-clip)">
<rect x="20.0" y="132" width="135.2" height="4" fill="#3178c6" />
<rect x="155.2" y="132" width="127.7" height="4" fill="#3572A5" />
<rect x="282.9" y="132" width="3.0" height="4" fill="#f1e05a" />
<rect x="285.9" y="132" width="1.2" height="4" fill="#563d7c" />
<rect x="287.1" y="132" width="1.0" height="4" fill="#8b949e" />
<rect x="288.1" y="132" width="1.0" height="4" fill="#8b949e" />
<rect x="289.1" y="132" width="1.0" height="4" fill="#89e051" />
<rect x="290.1" y="132" width="1.0" height="4" fill="#8b949e" />
<rect x="291.1" y="132" width="1.0" height="4" fill="#8b949e" />
</g>
<circle class="rc-lang-dot" cx="24" cy="144" r="4" fill="#3178c6" />
<text class="rc-meta" x="32" y="148">TypeScript 50%</text>
<svg x="159" y="136" width="14" height="14" viewBox="0 0 16 16" fill="var(--meta-color)"><path d="M8 .25a.75.75 0 0 1 .673.418l1.882 3.815 4.21.612a.75.75 0 0 1 .416 1.279l-3.046 2.97.719 4.192a.75.75 0 0 1-1.088.791L8 12.347l-3.766 1.98a.75.75 0 0 1-1.088-.79l.72-4.194L.818 6.374a.75.75 0 0 1 .416-1.28l4.21-.611L7.327.668A.75.75 0 0 1 8 .25Z" /></svg>
<text class="rc-meta" x="175" y="148">0</text>
<svg x="196" y="136" width="14" height="14" viewBox="0 0 16 16" fill="var(--meta-color)"><path d="M8 1.5a6.5 6.5 0 1 1 0 13a6.5 6.5 0 0 1 0-13Zm0 1.5a5 5 0 1 0 0 10A5 5 0 0 0 8 3Zm.75 1.75a.75.75 0 0 0-1.5 0v3.19c0 .2.08.39.22.53l1.75 1.75a.75.75 0 1 0 1.06-1.06l-1.53-1.53Z" /></svg>
<text class="rc-meta" x="212" y="148">9h ago</text>
</svg>