<svg xmlns="http://www.w3.org/2000/svg" xmlns:xlink="http://www.w3.org/1999/xlink" width="480" height="175" viewBox="0 0 480 175" role="img" aria-label="proxywhirl">
<defs>
<style>
:root {
  --card-bg: transparent;
  --card-border: #d0d7de;
  --title-color: #0969da;
  --text-color: #656d76;
  --meta-color: #656d76;
  --stat-color: #24292e;
  --spark-stroke: #e34c26;
}
@media (prefers-color-scheme: dark) {
  :root {
    --card-bg: transparent;
    --card-border: #30363d;
    --title-color: #58a6ff;
    --text-color: #8b949e;
    --meta-color: #8b949e;
    --stat-color: #8b949e;
    --spark-stroke: #58a6ff;
  }
}
.rc-title { fill: var(--title-color); font: 600 17px/1.25 -apple-system, BlinkMacSystemFont, "Segoe UI", "Noto Sans", Helvetica, Arial, sans-serif; }
.rc-desc { fill: var(--text-color); font: 400 13px/1.5 -apple-system, BlinkMacSystemFont, "Segoe UI", "Noto Sans", Helvetica, Arial, sans-serif; }
.rc-meta { fill: var(--stat-color); font: 400 12px/1 -apple-system, BlinkMacSystemFont, "Segoe UI", "Noto Sans", Helvetica, Arial, sans-serif; }
.rc-lang-dot { stroke: none; }
.rc-lang-label { fill: var(--stat-color); font: 400 12px/1 -apple-system, BlinkMacSystemFont, "Segoe UI", "Noto Sans", Helvetica, Arial, sans-serif; }
</style>
<clipPath id="card-clip"><rect width="480" height="175" rx="10" /></clipPath>
</defs>
<rect width="480" height="175" rx="10" fill="var(--card-bg)" />
<rect x="0.5" y="0.5" width="479" height="174" rx="10" fill="none" stroke="var(--card-border)" stroke-width="1" />
<svg x="20" y="18" width="18" height="18" viewBox="0 0 16 16" fill="var(--meta-color)"><path fill-rule="evenodd" d="M2 2.5A2.5 2.5 0 0 1 4.5 0h8.75a.75.75 0 0 1 .75.75v12.5a.75.75 0 0 1-.75.75h-2.5a.75.75 0 0 1 0-1.5h1.75v-2h-8a1 1 0 0 0-.714 1.7.75.75 0 1 1-1.072 1.05A2.495 2.495 0 0 1 2 11.5Zm10.5-1h-8a1 1 0 0 0-1 1v6.708A2.486 2.486 0 0 1 4.5 9h8ZM5 12.25a.25.25 0 0 1 .25-.25h3.5a.25.25 0 0 1 .25.25v3.25a.25.25 0 0 1-.4.2l-1.45-1.087a.249.249 0 0 0-.3 0L5.4 15.7a.25.25 0 0 1-.4-.2Z" /></svg>
<text class="rc-title" x="44" y="33">proxywhirl</text>
<text class="rc-meta" x="453" y="33">1</text>
<svg x="435" y="21" width="16" height="16" viewBox="0 0 10 10" fill="var(--meta-color)"><path d="M5 3.25a.75.75 0 1 1-1.5 0 .75.75 0 0 1 1.5 0Zm-.25 2.353A2.25 2.25 0 1 0 3.25 2v.104A2.25 2.25 0 0 0 1 4.25v.5c0 .122.01.242.027.358A2.25 2.25 0 0 0 3.25 7.5h1.5a2.25 2.25 0 0 0 2.223-2.392A2.502 2.502 0 0 0 5 2.604V2.5a2.25 2.25 0 1 0-1.5 .003v.1A1 1 0 0 1 4.75 3.5h-1.5A1 1 0 0 1 2 2.6V2.5Z" /></svg>
<text class="rc-meta" x="416" y="33">1</text>
<svg x="398" y="21" width="16" height="16" viewBox="0 0 16 16" fill="var(--meta-color)"><path d="M8 .25a.75.75 0 0 1 .673.418l1.882 3.815 4.21.612a.75.75 0 0 1 .416 1.279l-3.046 2.97.719 4.192a.75.75 0 0 1-1.088.791L8 12.347l-3.766 1.98a.75.75 0 0 1-1.088-.79l.72-4.194L.818 6.374a.75.75 0 0 1 .416-1.28l4.21-.611L7.327.668A.75.75 0 0 1 8 .25Z" /></svg>
<text class="rc-desc" x="20" y="54">rotating proxy system Topics data · data-extraction ·</text>
<text class="rc-desc" x="20" y="70">dataextraction</text>
<clipPath id="lang-bar-clip"><rect x="20" y="145" width="260" height="4" rx="2" /></clipPath>
<g clip-path="url(#lang-bar-clip)">
<rect x="20.0" y="145" width="212.7" height="4" fill="#e34c26" />
<rect x="232.7" y="145" width="43.9" height="4" fill="#3572A5" />
<rect x="276.6" y="145" width="3.0" height="4" fill="#3178c6" />
<rect x="279.6" y="145" width="1.0" height="4" fill="#DA5B0B" />
<rect x="280.6" y="145" width="1.0" height="4" fill="#8b949e" />
<rect x="281.6" y="145" width="1.0" height="4" fill="#f1e05a" />
<rect x="282.6" y="145" width="1.0" height="4" fill="#563d7c" />
<rect x="283.6" y="145" width="1.0" height="4" fill="#8b949e" />
<rect x="284.6" y="145" width="1.0" height="4" fill="#8b949e" />
</g>
<circle class="rc-lang-dot" cx="24" cy="157" r="4" fill="#e34c26" />
<text class="rc-meta" x="32" y="161">HTML 82%</text>
<circle class="rc-lang-dot" cx="98" cy="157" r="4" fill="#3572A5" />
<text class="rc-meta" x="106" y="161">Python 17%</text>
<circle class="rc-lang-dot" cx="185" cy="157" r="4" fill="#3178c6" />
<text class="rc-meta" x="193" y="161">TypeScript 1%</text>
</svg>