<svg xmlns="http://www.w3.org/2000/svg" xmlns:xlink="http://www.w3.org/1999/xlink" width="360" height="198" viewBox="0 0 360 198" role="img" aria-label="proxywhirl">
<defs>
<style>
.rc-bg { fill: transparent; }
.rc-border { stroke: #d0d7de; }
.rc-title { fill: #0969da; font: 600 17px -apple-system, BlinkMacSystemFont, 'Segoe UI', 'Noto Sans', Helvetica, Arial, sans-serif; }
.rc-desc { fill: #656d76; font: 400 13px -apple-system, BlinkMacSystemFont, 'Segoe UI', 'Noto Sans', Helvetica, Arial, sans-serif; }
.rc-meta { fill: #24292e; font: 400 12px -apple-system, BlinkMacSystemFont, 'Segoe UI', 'Noto Sans', Helvetica, Arial, sans-serif; }
.rc-lang-dot { stroke: none; }
.rc-lang-label { fill: #24292e; font: 400 12px -apple-system, BlinkMacSystemFont, 'Segoe UI', 'Noto Sans', Helvetica, Arial, sans-serif; }
.sparkline { fill: none; stroke: #e34c26; stroke-width: 2; opacity: 0.88; }
@media (prefers-color-scheme: dark) {
  .rc-bg { fill: transparent; }
  .rc-border { stroke: #30363d; }
  .rc-title { fill: #58a6ff; }
  .rc-desc { fill: #8b949e; }
  .rc-meta { fill: #8b949e; }
  .rc-lang-label { fill: #8b949e; }
  .sparkline { stroke: #58a6ff; }
}
</style>
<clipPath id="card-clip"><rect width="360" height="198" rx="10" /></clipPath>
<filter id="shadow" x="-5%" y="-5%" width="110%" height="110%"><feDropShadow dx="0" dy="4" stdDeviation="5" flood-color="#000000" flood-opacity="0.06"/><feDropShadow dx="0" dy="1" stdDeviation="2" flood-color="#000000" flood-opacity="0.04"/></filter><linearGradient id="glass-grad" x1="0" y1="0" x2="0" y2="1"><stop offset="0%" stop-color="#ffffff" stop-opacity="0.04" /><stop offset="100%" stop-color="#ffffff" stop-opacity="0" /></linearGradient>
<linearGradient id="spark-grad" x1="0" y1="0" x2="0" y2="1"><stop offset="0%" stop-color="var(--spark-stroke)" stop-opacity="0.18" /><stop offset="100%" stop-color="var(--spark-stroke)" stop-opacity="0" /></linearGradient>
</defs>
<rect class="rc-bg" width="360" height="198" rx="10" fill="transparent" filter="url(#shadow)" />
<rect width="360" height="198" rx="10" fill="url(#glass-grad)" />
<rect class="rc-border" x="0.5" y="0.5" width="359" height="197" rx="10" fill="none" stroke-width="1" />
<rect x="1.5" y="1.5" width="357" height="195" rx="9" fill="none" stroke="#ffffff" stroke-opacity="0.1" stroke-width="1" />
<rect x="0" y="0" width="360" height="3" fill="#e34c26" clip-path="url(#card-clip)" />
<g transform="translate(20,142)" class="sparkline-group">
<path d="M0.0,28.0 C53.3,23.3 266.7,4.7 320.0,0.0 L320.0,28.0 L0,28.0 Z" fill="url(#spark-grad)" />
<path d="M0.0,28.0 C53.3,23.3 266.7,4.7 320.0,0.0" fill="none" stroke="var(--spark-stroke)" stroke-width="1.5" stroke-linecap="round" stroke-linejoin="round" />
</g>
<svg x="20" y="18" width="18" height="18" viewBox="0 0 16 16" fill="var(--meta-color)"><path fill-rule="evenodd" d="M2 2.5A2.5 2.5 0 0 1 4.5 0h8.75a.75.75 0 0 1 .75.75v12.5a.75.75 0 0 1-.75.75h-2.5a.75.75 0 0 1 0-1.5h1.75v-2h-8a1 1 0 0 0-.714 1.7.75.75 0 1 1-1.072 1.05A2.495 2.495 0 0 1 2 11.5Zm10.5-1h-8a1 1 0 0 0-1 1v6.708A2.486 2.486 0 0 1 4.5 9h8ZM5 12.25a.25.25 0 0 1 .25-.25h3.5a.25.25 0 0 1 .25.25v3.25a.25.25 0 0 1-.4.2l-1.45-1.087a.249.249 0 0 0-.3 0L5.4 15.7a.25.25 0 0 1-.4-.2Z" /></svg>
<text class="rc-title" x="44" y="33" style="font: 600 17px -apple-system, BlinkMacSystemFont, 'Segoe UI', 'Noto Sans', Helvetica, Arial, sans-serif;">proxywhirl</text>
<text class="rc-meta" x="333" y="33">1</text>
<svg x="315" y="21" width="16" height="16" viewBox="0 0 16 16" fill="var(--meta-color)"><path d="M5 5.372v.878c0 .414.336.75.75.75h4.5a.75.75 0 0 0 .75-.75v-.878a2.25 2.25 0 1 1 1.5 0v.878a2.25 2.25 0 0 1-2.25 2.25h-1.5v2.128a2.251 2.251 0 1 1-1.5 0V8.5h-1.5A2.25 2.25 0 0 1 3.5 6.25v-.878a2.25 2.25 0 1 1 1.5 0ZM5 3.25a.75.75 0 1 0-1.5 0 .75.75 0 0 0 1.5 0Zm6.75.75a.75.75 0 1 0 0-1.5.75.75 0 0 0 0 1.5Zm-3 8.75a.75.75 0 1 0-1.5 0 .75.75 0 0 0 1.5 0Z" /></svg>
<text class="rc-meta" x="296" y="33">1</text>
<svg x="278" y="21" width="16" height="16" viewBox="0 0 16 16" fill="var(--meta-color)"><path d="M8 .25a.75.75 0 0 1 .673.418l1.882 3.815 4.21.612a.75.75 0 0 1 .416 1.279l-3.046 2.97.719 4.192a.75.75 0 0 1-1.088.791L8 12.347l-3.766 1.98a.75.75 0 0 1-1.088-.79l.72-4.194L.818 6.374a.75.75 0 0 1 .416-1.28l4.21-.611L7.327.668A.75.75 0 0 1 8 .25Z" /></svg>
<text class="rc-desc" x="20" y="64" style="font: 400 13px -apple-system, BlinkMacSystemFont, 'Segoe UI', 'Noto Sans', Helvetica, Arial, sans-serif;">rotating proxy system Topics data ·</text>
<text class="rc-desc" x="20" y="80" style="font: 400 13px -apple-system, BlinkMacSystemFont, 'Segoe UI', 'Noto Sans', Helvetica, Arial, sans-serif;">data-extraction · dataextraction</text>
<clipPath id="lang-bar-clip"><rect x="20" y="168" width="320" height="4" rx="2" /></clipPath>
<g clip-path="url(#lang-bar-clip)">
<rect x="20.0" y="168" width="261.8" height="4" fill="#e34c26" />
<rect x="281.8" y="168" width="54.1" height="4" fill="#3572A5" />
<rect x="335.8" y="168" width="3.7" height="4" fill="#3178c6" />
<rect x="339.5" y="168" width="1.0" height="4" fill="#DA5B0B" />
<rect x="340.5" y="168" width="1.0" height="4" fill="#8b949e" />
<rect x="341.5" y="168" width="1.0" height="4" fill="#f1e05a" />
<rect x="342.5" y="168" width="1.0" height="4" fill="#563d7c" />
<rect x="343.5" y="168" width="1.0" height="4" fill="#8b949e" />
<rect x="344.5" y="168" width="1.0" height="4" fill="#8b949e" />
</g>
<circle class="rc-lang-dot" cx="24" cy="180" r="4" fill="#e34c26" />
<text class="rc-meta" x="32" y="184">HTML 82%</text>
<circle class="rc-lang-dot" cx="98" cy="180" r="4" fill="#3572A5" />
<text class="rc-meta" x="106" y="184">Python 17%</text>
<circle class="rc-lang-dot" cx="185" cy="180" r="4" fill="#3178c6" />
<text class="rc-meta" x="193" y="184">TypeScript 1%</text>
</svg>