<svg xmlns="http://www.w3.org/2000/svg" width="1100" height="276" viewBox="0 0 1100 276" role="img">
<defs>
<style>
.title { fill: #F5F5F5; font: 700 32px ui-sans-serif; }
.card-kicker { fill: #8FA1B8; font: 700 11px ui-sans-serif; letter-spacing: 0.08em; text-transform: uppercase; }
.card-title { fill: #FFFFFF; font: 700 21px ui-sans-serif; }
.card-line { fill: #D9E2EE; font: 500 15px ui-sans-serif; }
.card-meta { fill: #AAB5C4; font: 500 13px ui-sans-serif; }
.card-icon { fill: #F8FAFC; font: 700 13px ui-sans-serif; }
.card-badge { fill: #EEF5FF; font: 700 12px ui-sans-serif; }
.sparkline { fill: none; stroke: #7DD3FC; stroke-width: 2; opacity: 0.88; }
</style>
<linearGradient id="cardGradient" x1="0%" y1="0%" x2="0%" y2="100%"><stop offset="0%" stop-color="#0B111A" stop-opacity="0.12"/><stop offset="100%" stop-color="#0B111A" stop-opacity="0.95"/></linearGradient>
</defs>
<rect width="100%" height="100%" rx="24" fill="#0B111A" />
<text class="title" x="24" y="54">Connect &amp; Contact</text>
<g class="card" transform="translate(24,88)">
<a href="https://w4w.dev" target="_blank" rel="noopener noreferrer">
<rect width="245" height="140" rx="16" fill="#121A25" stroke="#000000" stroke-opacity="0.45" />
<circle cx="36" cy="36" r="18" fill="#000000" fill-opacity="0.30" />
<text class="card-icon" x="36" y="41" text-anchor="middle">W4</text>
<text class="card-kicker" x="62" y="22">w4w.dev</text>
<rect x="139" y="16" width="90" height="24" rx="12" fill="#000000" fill-opacity="0.32" />
<text class="card-badge" x="184.0" y="32" text-anchor="middle">Link</text>
<text class="card-title" x="62" y="48">w4w.dev</text>
<text class="card-line" x="62" y="74">w4w.dev</text>
<text class="card-line" x="62" y="96">Open profile</text>
<text class="card-meta" x="18" y="122">https://w4w.dev</text>
</a>
</g>
<g class="card" transform="translate(293,88)">
<a href="https://linkedin.com/in/wyattowalsh" target="_blank" rel="noopener noreferrer">
<rect width="245" height="140" rx="16" fill="#121A25" stroke="#0A66C2" stroke-opacity="0.45" />
<circle cx="36" cy="36" r="18" fill="#0A66C2" fill-opacity="0.30" />
<text class="card-icon" x="36" y="41" text-anchor="middle">LI</text>
<text class="card-kicker" x="62" y="22">linkedin.com</text>
<rect x="139" y="16" width="90" height="24" rx="12" fill="#0A66C2" fill-opacity="0.32" />
<text class="card-badge" x="184.0" y="32" text-anchor="middle">Network</text>
<text class="card-title" x="62" y="48">LinkedIn</text>
<text class="card-line" x="62" y="74">linkedin.com</text>
<text class="card-line" x="62" y="96">Handle @wyattowalsh</text>
<text class="card-meta" x="18" y="122">https://linkedin.com/in/wya…</text>
</a>
</g>
<g class="card" transform="translate(562,88)">
<a href="https://www.kaggle.com/wyattowalsh" target="_blank" rel="noopener noreferrer">
<rect width="245" height="140" rx="16" fill="#121A25" stroke="#20BEFF" stroke-opacity="0.45" />
<circle cx="36" cy="36" r="18" fill="#20BEFF" fill-opacity="0.30" />
<text class="card-icon" x="36" y="41" text-anchor="middle">KA</text>
<text class="card-kicker" x="62" y="22">kaggle.com</text>
<rect x="139" y="16" width="90" height="24" rx="12" fill="#20BEFF" fill-opacity="0.32" />
<text class="card-badge" x="184.0" y="32" text-anchor="middle">Data</text>
<text class="card-title" x="62" y="48">Kaggle</text>
<text class="card-line" x="62" y="74">kaggle.com</text>
<text class="card-line" x="62" y="96">Handle @wyattowalsh</text>
<text class="card-meta" x="18" y="122">https://www.kaggle.com/wyat…</text>
</a>
</g>
<g class="card" transform="translate(831,88)">
<a href="https://x.com/wyattowalsh" target="_blank" rel="noopener noreferrer">
<rect width="245" height="140" rx="16" fill="#121A25" stroke="#000000" stroke-opacity="0.45" />
<circle cx="36" cy="36" r="18" fill="#000000" fill-opacity="0.30" />
<text class="card-icon" x="36" y="41" text-anchor="middle">XC</text>
<text class="card-kicker" x="62" y="22">x.com</text>
<rect x="131" y="16" width="98" height="24" rx="12" fill="#000000" fill-opacity="0.32" />
<text class="card-badge" x="180.0" y="32" text-anchor="middle">Broadcast</text>
<text class="card-title" x="62" y="48">X.com</text>
<text class="card-line" x="62" y="74">x.com</text>
<text class="card-line" x="62" y="96">Handle @wyattowalsh</text>
<text class="card-meta" x="18" y="122">https://x.com/wyattowalsh</text>
</a>
</g>
</svg>