<svg xmlns="http://www.w3.org/2000/svg" width="1em" height="1em" viewBox="0 0 128 128"><g fill="#00979c" fill-rule="evenodd"><path d="M.3 66.5v-9.6c.2-.1.2-.3.2-.5c3-13.1 11.2-21 24.2-24.1c1.1-.3 2.3-.2 3.4-.6h6.4c.1.2.4.1.6.1c6.4.7 12.2 3 17.3 7c4.4 3.3 7.8 7.5 10.9 12c.4.6.6.6 1 0c1.8-2.6 3.7-5.1 5.9-7.4c5.3-5.7 11.7-9.7 19.5-11.1c1.1-.3 2.4-.2 3.5-.6h6.2c.1.2.3.1.5.1c1.9.2 3.7.6 5.5 1.1c13.4 3.9 22.9 16.2 22.1 30.1c-.6 11.7-6.5 20.1-16.8 25.4c-5.1 2.8-10.7 3.5-16.5 3.4c-7.6-.1-14.2-2.7-19.9-7.7c-4-3.5-7.1-7.7-10-12.1c-.4-.6-.6-.5-1 .1c-1.8 2.7-3.7 5.4-5.9 8c-3.9 4.4-8.4 8-14 9.9c-6.9 2.4-13.9 2.5-20.9.6c-10.1-2.9-17-9.3-20.8-19.1c-.6-1.6-.9-3.4-1.4-5m31.8 14.7c5.7.2 10.6-1.7 14.8-5.6c4.3-4 7.4-9 10.5-13.9c.1-.3.1-.5-.1-.8c-2.6-4.1-5.3-8.2-8.9-11.6c-6.9-6.6-15-8.8-24.1-5.9c-7.5 2.5-12.3 7.8-13.4 15.8c-1.1 7.5 1.8 13.5 7.8 18c4 2.9 8.5 4.1 13.4 4m63.4 0c2.2 0 4.4-.1 6.5-.7c7.9-2.4 13.1-7.3 14.6-15.5c1.5-8.1-1.6-14.6-8.4-19.2c-7.5-5.2-18.4-4.7-26 1c-5.1 3.8-8.5 8.9-11.9 14.2c-.2.3-.1.5 0 .8c2.7 4.3 5.4 8.6 8.9 12.3c4.4 4.7 9.7 7.4 16.3 7.1m0 0"/><path d="M32 58.5c3.2 0 6.5.1 9.7 0c.8 0 .9.2.9 1q-.15 1.35 0 2.7c.1.8-.1 1-1 1H28.8c-2.2 0-4.4-.1-6.6 0c-.7 0-.9-.2-.9-1c.1-.9.1-1.8 0-2.8c0-.7.2-.9.9-.9c3.2.1 6.5 0 9.8 0m63-6.4c.8 0 1.6.1 2.3 0c.5 0 .7.2.7.7c-.1 1.4 0 2.8-.1 4.2c0 .7.2.9.9.9c1.3-.1 2.7 0 4.1-.1c.6 0 .8.1.8.8v4.6c0 .5-.2.7-.7.7c-1.4-.1-2.8 0-4.3-.1c-.6 0-.8.2-.8.8c.1 1.4 0 2.8.1 4.2c0 .6-.2.9-.8.9q-2.25-.15-4.5 0c-.6 0-.8-.2-.8-.8c.1-1.5 0-2.9.1-4.4c0-.5-.2-.7-.7-.7c-1.4.1-2.8 0-4.2.1c-.8 0-.9-.3-.9-.9c0-1.4.1-2.8 0-4.2c-.1-.8.3-1 1-1c1.4.1 2.7 0 4.1.1c.5 0 .7-.2.7-.7c-.1-1.4 0-2.9-.1-4.3c0-.6.2-.8.8-.8c.8.1 1.5 0 2.3 0m29.852-27.623c-.133.199-.18.265-.223.332c-.242.363-.055 1.097-.664 1.086c-.54-.012-.403-.684-.594-1.051c-.05-.098-.11-.188-.277-.461c0 .504.008.789 0 1.078c-.008.195.035.441-.274.457c-.312.016-.293-.234-.297-.43q-.01-1.019-.003-2.031c0-.23-.036-.496.324-.504c.27-.004.504-.015.617.336c.144.43.195.91.527 1.324c.317-.402.371-.867.492-1.293c.102-.347.317-.37.598-.37c.356.003.34.253.344.488c.004.68.004 1.355-.004 2.035c-.004.191.023.445-.281.449c-.305 0-.282-.242-.285-.442c-.008-.289 0-.574 0-1.003m-3.712-1.532c.087 0 .18-.015.262 0c.325.063.828-.187.934.2c.144.543-.426.27-.668.386c-.242.117-.195.332-.2.528c-.011.468-.007.937-.007 1.406c0 .258-.05.473-.383.46c-.305-.01-.293-.234-.293-.437a37 37 0 0 1-.004-1.316c.012-.375.016-.727-.523-.676c-.188.016-.352-.039-.352-.277c0-.328.254-.262.442-.27c.265-.012.527-.004.793-.004zm0 0"/></g></svg>