<svg xmlns="http://www.w3.org/2000/svg" width="1em" height="1em" viewBox="0 0 128 128"><path fill="#4dabcf" d="m55.012 26.006l-21.38-10.789L10.154 26.93l21.969 11.027Zm9.808 4.951L87.241 42.28L63.982 53.955l-22-11.043Zm29.948-15.581l23.037 11.552L97.2 37.272L74.735 25.938ZM84.853 10.4L64.113 0L43.598 10.24L64.97 21.014ZM68.64 99.702V128l25.122-12.537l-.023-28.31ZM93.727 77.27l-.028-28.012l-25.06 12.458V89.74Zm30.158-5.246v28.41l-21.43 10.69l-.017-28.279zm0-9.935V34.25l-21.47 10.673l.016 28.068z"/><path fill="#4c75cf" d="m59.77 61.716l-16.918-8.512V89.97s-20.7-44.033-22.612-47.99c-.246-.513-1.263-1.07-1.522-1.209c-3.731-1.947-14.603-7.45-14.603-7.45v64.977l15.04 8.063V72.382s20.478 39.346 20.689 39.78c.214.429 2.257 4.57 4.459 6.028c2.92 1.939 15.458 9.477 15.458 9.477z"/></svg>