<svg xmlns="http://www.w3.org/2000/svg" viewBox="0 0 24 24" fill="white"><path d="M12 2C8 2 5 4 5 6v3c0 2 3 4 7 4s7-2 7-4V6c0-2-3-4-7-4z" opacity="0.3"/><path d="M5 9v3c0 2 3 4 7 4s7-2 7-4V9" fill="none" stroke="white" stroke-width="1.3"/><path d="M5 15v3c0 2 3 4 7 4s7-2 7-4v-3" fill="none" stroke="white" stroke-width="1.3"/><ellipse cx="12" cy="6" rx="7" ry="4" fill="none" stroke="white" stroke-width="1.3"/><circle cx="10" cy="12" r="1.8" fill="none" stroke="white" stroke-width="1"/><circle cx="14" cy="12" r="1.8" fill="none" stroke="white" stroke-width="1"/></svg>
