<svg xmlns="http://www.w3.org/2000/svg" width="1em" height="1em" viewBox="0 0 128 128"><path fill="#333" d="M9.394 72.999c-.759-.121-2.701-.607-4.31-1.047l-2.93-.82l1.503-2.762l1.502-2.762l-1.214-1.503C2.23 61.98.015 57.322 0 55.82c-.016-3.507 4.536-8.59 10.121-11.321c3.84-1.882 6.89-1.927 10.714-.136l2.883 1.35l.835-1.199c.454-.653.834-1.517.834-1.897s.38-.713.835-.713s.834.12.834.257c0 .335-3.353 8.802-3.565 9.014c-.092.09-1.003-.333-2.035-.94c-2.913-1.716-6.57-2.854-9.408-2.93c-6.6-.167-8.893 6.284-4.233 11.928l1.638 1.989l4.477-3.628c5.023-4.051 5.6-4.143 9.515-1.44c4.4 3.034 4.476 7.647.226 12.472c-3.763 4.295-7.631 5.48-14.279 4.37zm11.26-4.628c2.184-1.714 2.033-4.887-.335-7.406c-2.974-3.156-3.898-3.02-9.134 1.35c-5.206 4.34-5.236 4.174.986 6.162c4.112 1.335 6.692 1.29 8.483-.106m42.277 16.722c-1.488-.546-5.494-2.2-8.923-3.687c-9.257-4.037-10.562-4.113-13.324-.759c-.637.774-1.335 1.26-1.532 1.063c-.593-.593 1.168-3.43 3.293-5.296c1.729-1.518 2.305-1.73 4.219-1.518c1.213.136 5.25 1.548 8.967 3.126c8.392 3.566 10.85 4.325 14.053 4.325c3.899 0 5.903-2.731 4.673-6.358c-.303-.91-.213-1.215.395-1.215c1.137 0 1.715 4.25.896 6.693c-.35 1.046-1.367 2.533-2.262 3.277c-1.336 1.123-2.185 1.366-4.69 1.35c-1.684-.014-4.278-.454-5.766-1zM41.307 72.12c-3.445-1.61-6.556-4.675-8.347-8.256c-2.867-5.736-1.988-9.408 3.445-14.37c4.567-4.174 8.301-5.798 13.325-5.798c3.625 0 4.4.198 6.75 1.639c5.57 3.445 6.951 10.016 3.598 17.177c-3.93 8.408-12.231 12.642-18.771 9.606zm11.533-3.992c2.579-1.275 4.355-7.163 3.626-12.05c-.91-6.023-9.059-10.136-15.038-7.586c-6.146 2.625-6.237 9.62-.197 15.918c4.218 4.416 7.845 5.57 11.609 3.718m11.7 5.099c0-.259.955-.713 2.139-1.002l2.14-.532l.455-7.707c.5-8.529.135-16.921-.79-18.043c-.334-.396-1.35-.882-2.275-1.093c-3.763-.835-1.26-1.412 6.04-1.412s9.62.532 6.145 1.412c-2.99.744-3.005.789-3.005 12.959c0 6.752.243 11.837.592 12.489c.486.91 1.214 1.107 4.006 1.107c5.766 0 7.754-1.365 9.318-6.419c.47-1.516 1.684-1.243 1.259.29c-.198.712-.515 2.881-.713 4.855l-.364 3.566H77.013c-6.86 0-12.473-.212-12.473-.47"/><path fill="#ca2727" d="M92.87 72.862c0-.454.441-.91 1.169-1.259c.972-.455 1.608-1.411 3.915-5.918c3.657-7.131 9.424-19.378 9.97-21.215c.424-1.396.516-1.471 2.094-1.653c.91-.106 1.669-.167 1.684-.137s1.275 2.791 2.808 6.146c1.518 3.353 4.568 9.727 6.783 14.158c3.703 7.45 4.113 8.118 5.357 8.724c.759.365 1.35.927 1.35 1.26c0 .531-.652.592-6.266.592c-5.63 0-6.268-.06-6.268-.606c0-.364.486-.759 1.259-1.018c.714-.227 1.26-.652 1.26-.97c0-.304-.744-2.307-1.655-4.446l-1.653-3.9h-12.535l-1.198 2.64c-2.247 4.947-2.292 6.116-.198 6.676c1.048.289 1.336.517 1.214.987c-.136.547-.683.622-4.628.622c-4.234.031-4.462 0-4.462-.683m20.547-12.276c.212-.379-4.507-10.683-4.946-10.79c-.32-.09-5.206 9.986-5.206 10.744c0 .38 9.925.425 10.152.046"/></svg>