<svg xmlns="http://www.w3.org/2000/svg" width="0.98em" height="1em" viewBox="0 0 256 263"><defs><linearGradient id="SVGMPst3dYn" x1="20.862%" x2="63.426%" y1="20.687%" y2="44.071%"><stop offset="0%" stop-color="#249361"/><stop offset="100%" stop-color="#3ecf8e"/></linearGradient><linearGradient id="SVGNaiFRdXR" x1="1.991%" x2="21.403%" y1="-13.158%" y2="34.708%"><stop offset="0%"/><stop offset="100%" stop-opacity="0"/></linearGradient></defs><path fill="url(#SVGMPst3dYn)" d="M149.602 258.579c-6.718 8.46-20.338 3.824-20.5-6.977l-2.367-157.984h106.229c19.24 0 29.971 22.223 18.007 37.292z"/><path fill="url(#SVGNaiFRdXR)" fill-opacity=".2" d="M149.602 258.579c-6.718 8.46-20.338 3.824-20.5-6.977l-2.367-157.984h106.229c19.24 0 29.971 22.223 18.007 37.292z"/><path fill="#3ecf8e" d="M106.399 4.37c6.717-8.461 20.338-3.826 20.5 6.976l1.037 157.984H23.037c-19.241 0-29.973-22.223-18.008-37.292z"/></svg>