<svg xmlns="http://www.w3.org/2000/svg" width="1em" height="1em" viewBox="0 0 128 128"><g color="#000"><path d="M16.219 15.762a1.13 1.13 0 0 0-1.076 1.399l24.394 98.742a1.13 1.13 0 0 0 1.879.544l73.386-70.59a1.13 1.13 0 0 0-.47-1.899L16.55 15.806a1.1 1.1 0 0 0-.331-.044m1.584 2.754l94.024 27.07l-70.566 67.877z"/><path d="M65.137 29.84a1.13 1.13 0 0 0-.807.315L27.654 65.46a1.13 1.13 0 0 0 .471 1.898L76.984 81.44a1.13 1.13 0 0 0 1.409-1.355L66.21 30.698a1.13 1.13 0 0 0-1.073-.858m-.651 3.3l11.248 45.59l-45.104-13z"/><path d="M46.914 47.313a1.13 1.13 0 0 0-1.076 1.399l6.054 24.531a1.129 1.129 0 0 0 1.88.543l18.222-17.563a1.13 1.13 0 0 0-.472-1.898l-24.277-6.968a1.1 1.1 0 0 0-.331-.044m1.583 2.751l20.522 5.89L53.614 70.8z"/><path d="M40.902 22.809a1.13 1.13 0 0 0-.807.316L21.873 40.687a1.13 1.13 0 0 0 .472 1.898l24.273 6.969a1.13 1.13 0 0 0 1.408-1.356l-6.051-24.53a1.13 1.13 0 0 0-1.073-.86zm-.65 3.3l5.114 20.736l-20.517-5.89l15.403-14.847zm49.201 10.684a1.13 1.13 0 0 0-.806.316L70.423 54.67a1.129 1.129 0 0 0 .472 1.899l24.274 6.968a1.13 1.13 0 0 0 1.408-1.356l-6.05-24.53a1.13 1.13 0 0 0-1.074-.859zm-.65 3.3l5.114 20.737L73.4 54.94zM52.944 71.864a1.13 1.13 0 0 0-.74.315L33.982 89.742a1.13 1.13 0 0 0 .472 1.898l24.278 6.968a1.13 1.13 0 0 0 1.407-1.355l-6.055-24.531a1.13 1.13 0 0 0-1.14-.858m-.582 3.3l5.118 20.737l-20.522-5.89z"/></g></svg>