<svg xmlns="http://www.w3.org/2000/svg" width="1em" height="1em" viewBox="0 0 128 128"><path fill="#2c8ebb" d="M64 0a64 64 0 1 0 64 64A64 64 0 0 0 64 0m4.685 21.948a5.04 5.04 0 0 1 2.21.802c.671.444 1.528 1.032 4.026 6.194a4.84 4.84 0 0 1 2.942-.103a3.93 3.93 0 0 1 2.468 2.004c2.55 4.893 2.889 13.614 1.774 19.22a34.9 34.9 0 0 1-6.028 13.74a26.6 26.6 0 0 1 5.957 9.733a26.2 26.2 0 0 1 1.456 10.746a30 30 0 0 0 3.22-1.796c3.158-1.951 7.927-4.894 13.615-4.966a6.834 6.834 0 0 1 7.225 5.885a6.555 6.555 0 0 1-5.046 7.256c-3.458.836-5.069 1.486-9.714 4.5a69.2 69.2 0 0 1-16.062 7.412a9 9 0 0 1-3.758 1.828c-3.933.96-17.425 1.682-18.488 1.682h-.248c-4.13 0-6.47-1.28-7.73-2.621c-3.51 1.755-8.052 1.03-11.355-.714a5.73 5.73 0 0 1-3.097-4.024a6.2 6.2 0 0 1 0-2.127a7 7 0 0 1-.816-1.032a16.9 16.9 0 0 1-2.333-10.386c.3-3.85 2.964-7.287 4.698-9.114A29.5 29.5 0 0 1 35.726 64a27.7 27.7 0 0 1 7.04-9.29c-1.703-2.87-3.436-7.288-1.754-11.789c1.208-3.21 2.199-4.996 4.377-5.76a7.1 7.1 0 0 0 2.59-1.383a18.22 18.22 0 0 1 12.243-5.843c.196-.495.423-1.033.671-1.508c1.652-3.51 3.406-5.48 5.46-6.193a5.04 5.04 0 0 1 2.332-.286m-.558 3.697c-2.703.089-5.355 8.099-5.355 8.099a14.45 14.45 0 0 0-12.089 4.645a9.95 9.95 0 0 1-3.973 2.345c-.424.144-.94.122-2.22 3.58c-1.961 5.234 3.345 11.16 3.345 11.16s-6.328 4.47-8.672 10.034a25.6 25.6 0 0 0-1.806 12.057s-4.5 3.901-4.788 7.927a13.3 13.3 0 0 0 1.826 8.083a2.003 2.003 0 0 0 2.714.94s-2.993 3.487-.196 4.963c2.55 1.331 6.844 2.065 9.115-.196c1.652-1.651 1.982-5.335 2.591-6.842c.144-.351.64.588 1.115 1.032a10.3 10.3 0 0 0 1.403 1.032s-4.024 1.734-2.373 5.688c.547 1.31 2.498 2.145 5.688 2.125c1.187 0 14.203-.743 17.671-1.58a4.47 4.47 0 0 0 2.696-1.505a65 65 0 0 0 15.99-7.226c4.892-3.19 6.895-4.059 10.848-4.998c3.262-.774 3.045-5.83-1.28-5.758c-4.48.052-8.402 2.363-11.716 4.427c-6.193 3.83-9.29 3.583-9.29 3.583l-.105-.175c-.423-.692 1.983-6.896-.712-14.287c-2.91-8.082-7.534-10.033-7.163-10.653c1.58-2.673 5.534-6.917 7.113-14.824c.94-4.79.691-12.676-1.435-16.805c-.393-.764-3.902 1.28-3.902 1.28s-3.283-7.319-4.201-7.907a1.44 1.44 0 0 0-.839-.244"/></svg>