<?xml version="1.0" encoding="utf-8" ?>
<svg baseProfile="full" height="800px" version="1.1" width="800px" xmlns="http://www.w3.org/2000/svg" xmlns:ev="http://www.w3.org/2001/xml-events" xmlns:xlink="http://www.w3.org/1999/xlink"><defs><filter id="phyllotaxisGlow"><feGaussianBlur in="SourceGraphic" result="blur" stdDeviation="2" /><feComposite in="SourceGraphic" in2="blur" operator="over" /></filter></defs><rect fill="#ffffff" height="800" width="800" x="0" y="0" /><g id="flowFieldGroup" opacity="0.25"><path d="M516.4,293.9 L518.9,290.0 L520.5,285.7 L521.2,281.1 L521.0,276.5 L520.1,272.0 L518.5,267.7 L516.3,263.7 L513.7,259.9 L510.8,256.4 L507.6,253.0 L504.4,249.7 L501.4,246.3 L498.6,242.6 L496.2,238.7 L494.3,234.5 L492.9,230.1 L492.1,225.6 L491.7,221.0 L491.7,216.4 L492.1,211.8 L492.7,207.2 L493.6,202.7 L494.6,198.3 L495.8,193.8 L497.1,189.4 L498.5,185.0 L499.8,180.6 L501.1,176.2 L502.4,171.8 L503.5,167.3" fill="none" opacity="0.4" stroke="rgb(76,84,178)" stroke-width="0.8" /><path d="M28.2,601.9 L31.9,599.2 L35.3,596.1 L38.3,592.6 L41.0,588.8 L43.2,584.8 L45.1,580.6 L46.4,576.2 L47.3,571.7 L47.7,567.1 L47.6,562.5 L46.9,558.0 L45.9,553.5 L44.7,549.1 L43.3,544.7 L42.0,540.3 L40.8,535.8 L39.8,531.3 L39.0,526.8 L38.3,522.2 L37.8,517.7 L37.5,513.1 L37.1,508.5 L36.7,503.9 L36.3,499.3 L35.8,494.8 L35.2,490.2 L34.4,485.7 L33.6,481.1 L32.6,476.7 L31.4,472.2" fill="none" opacity="0.4" stroke="rgb(76,84,178)" stroke-width="0.8" /><path d="M236.9,158.0 L236.6,153.4 L236.7,148.8 L237.1,144.2 L237.9,139.7 L238.9,135.2 L240.0,130.7 L241.2,126.3 L242.4,121.8 L243.4,117.4 L244.3,112.9 L245.1,108.3 L245.8,103.8 L246.5,99.2 L247.1,94.7 L247.7,90.1 L248.4,85.6 L249.2,81.0 L250.1,76.5 L251.3,72.1 L252.6,67.7 L254.2,63.4 L256.1,59.2 L258.3,55.1 L260.9,51.3 L263.8,47.8 L267.0,44.5 L270.5,41.4 L274.1,38.6 L277.8,35.8 L281.4,33.0" fill="none" opacity="0.4" stroke="rgb(76,84,178)" stroke-width="0.8" /><path d="M326.7,317.4 L322.8,314.8 L319.4,311.7 L316.4,308.2 L314.0,304.3 L312.2,300.1 L310.8,295.7 L309.8,291.2 L309.2,286.7 L308.9,282.1 L308.7,277.5 L308.7,272.9 L308.7,268.3 L308.7,263.7 L308.5,259.1 L308.0,254.5 L307.1,250.0 L305.6,245.6 L303.4,241.6 L300.4,238.1 L296.7,235.4 L292.5,233.5 L288.0,232.7 L283.4,232.7 L278.9,233.4 L274.5,234.9 L270.3,236.8 L266.4,239.2 L262.7,242.0 L259.3,245.0 L256.0,248.2" fill="none" opacity="0.4" stroke="rgb(76,84,178)" stroke-width="0.8" /><path d="M774.0,164.4 L778.5,165.5 L783.0,166.7 L787.3,168.0 L791.5,169.9 L795.3,172.6 L798.1,176.2 L799.6,180.6 L799.5,185.2 L798.1,189.6 L795.7,193.5 L792.7,196.9 L789.1,199.9 L785.3,202.4 L781.2,204.6 L777.0,206.4 L772.7,208.1 L768.4,209.7 L764.1,211.2 L759.7,212.7 L755.4,214.1 L751.0,215.7 L746.7,217.3 L742.4,218.9 L738.1,220.6 L733.8,222.3 L729.5,223.9 L725.2,225.3 L720.7,226.6 L716.2,227.5 L711.6,228.0" fill="none" opacity="0.4" stroke="rgb(76,84,178)" stroke-width="0.8" /><path d="M460.3,275.4 L464.0,278.0 L468.3,279.7 L472.9,280.3 L477.5,279.9 L481.9,278.6 L485.8,276.3 L489.1,273.0 L491.5,269.1 L492.9,264.7 L493.5,260.2 L493.4,255.6 L492.9,251.0 L492.2,246.4 L491.5,241.9 L490.9,237.3 L490.5,232.7 L490.4,228.2 L490.4,223.6 L490.7,219.0 L491.2,214.4 L491.9,209.8 L492.8,205.3 L493.8,200.8 L495.0,196.4 L496.2,192.0 L497.6,187.6 L499.0,183.2 L500.3,178.8 L501.6,174.4 L502.8,169.9" fill="none" opacity="0.4" stroke="rgb(76,84,178)" stroke-width="0.8" /><path d="M169.3,51.2 L173.5,53.0 L177.7,54.8 L181.8,56.9 L185.8,59.2 L189.6,61.8 L193.0,64.8 L196.2,68.2 L199.0,71.8 L201.6,75.6 L203.9,79.6 L206.2,83.6 L208.5,87.6 L211.0,91.4 L213.9,95.0 L217.3,98.1 L221.3,100.4 L225.7,101.6 L230.3,101.5 L234.7,100.0 L238.5,97.4 L241.5,93.9 L243.9,90.0 L245.8,85.8 L247.3,81.5 L248.8,77.1 L250.2,72.7 L251.7,68.4 L253.4,64.1 L255.3,59.9 L257.5,55.9" fill="none" opacity="0.4" stroke="rgb(76,84,178)" stroke-width="0.8" /><path d="M339.0,629.1 L342.0,625.6 L345.3,622.4 L348.7,619.3 L352.2,616.3 L355.7,613.3 L359.3,610.4 L362.8,607.5 L366.5,604.7 L370.3,602.1 L374.2,599.7 L378.4,597.8 L382.8,596.5 L387.4,596.1 L391.9,596.7 L396.2,598.5 L400.0,601.1 L403.1,604.4 L405.8,608.2 L408.2,612.1 L410.3,616.2 L412.3,620.3 L414.3,624.5 L416.3,628.6 L418.3,632.8 L420.3,636.9 L422.4,641.0 L424.6,645.1 L426.7,649.1 L428.8,653.2 L430.8,657.3" fill="none" opacity="0.4" stroke="rgb(76,84,178)" stroke-width="0.8" /><path d="M595.6,347.7 L591.1,346.6 L586.6,345.6 L582.1,344.7 L577.6,343.8 L573.1,342.8 L568.7,341.6 L564.3,340.1 L560.2,338.2 L556.3,335.7 L552.8,332.7 L549.8,329.2 L547.3,325.3 L545.4,321.2 L543.9,316.8 L542.6,312.4 L541.7,307.9 L540.8,303.4 L540.0,298.8 L539.3,294.3 L538.4,289.8 L537.5,285.3 L536.5,280.8 L535.2,276.4 L533.6,272.1 L531.7,267.9 L529.4,263.9 L526.7,260.2 L523.6,256.7 L520.2,253.7 L516.6,250.9" fill="none" opacity="0.4" stroke="rgb(76,84,178)" stroke-width="0.8" /><path d="M429.7,488.8 L434.2,488.5 L438.8,488.0 L443.4,487.3 L447.9,486.4 L452.4,485.6 L457.0,484.9 L461.5,484.3 L466.1,483.9 L470.7,483.7 L475.3,483.7 L479.9,483.9 L484.5,484.2 L489.1,484.7 L493.6,485.3 L498.2,486.0 L502.7,486.7 L507.3,487.3 L511.8,487.8 L516.4,488.0 L521.0,487.8 L525.6,487.2 L530.1,486.1 L534.4,484.7 L538.7,483.0 L542.9,481.1 L547.1,479.3 L551.5,477.7 L555.9,476.5 L560.5,475.9 L565.0,476.1" fill="none" opacity="0.4" stroke="rgb(76,84,178)" stroke-width="0.8" /><path d="M756.7,30.9 L761.3,30.8 L765.9,30.1 L770.3,28.9 L774.5,27.0 L778.4,24.6 L781.8,21.5 L784.7,17.9 L787.0,13.9 L788.7,9.7 L790.0,5.3 L791.0,0.8" fill="none" opacity="0.4" stroke="rgb(76,84,178)" stroke-width="0.8" /><path d="M26.5,755.7 L29.0,751.9 L31.9,748.3 L35.1,745.0 L38.7,742.2 L42.8,740.0 L47.1,738.5 L51.7,737.7 L56.3,737.5 L60.9,737.7 L65.4,738.3 L69.9,739.1 L74.4,740.1 L79.0,741.0 L83.5,741.8 L88.1,742.2 L92.7,742.2 L97.2,741.4 L101.5,739.9 L105.4,737.4 L108.7,734.2 L111.3,730.3 L113.2,726.2 L114.8,721.9 L115.9,717.4 L116.9,712.9 L117.7,708.4 L118.5,703.8 L119.2,699.3 L119.9,694.8 L120.5,690.2" fill="none" opacity="0.4" stroke="rgb(76,84,178)" stroke-width="0.8" /><path d="M268.8,655.5 L272.6,658.1 L276.4,660.8 L280.3,663.2 L284.4,665.3 L288.7,666.7 L293.3,667.3 L297.9,666.8 L302.2,665.1 L306.0,662.6 L309.2,659.3 L312.0,655.6 L314.5,651.8 L316.9,647.8 L319.2,643.9 L321.7,640.0 L324.4,636.2 L327.2,632.6 L330.3,629.3 L333.7,626.1 L337.2,623.1 L340.8,620.3 L344.6,617.6 L348.3,615.0 L352.1,612.4 L355.9,609.7 L359.6,607.1 L363.4,604.4 L367.2,601.9 L371.2,599.5 L375.3,597.4" fill="none" opacity="0.4" stroke="rgb(76,84,178)" stroke-width="0.8" /><path d="M130.5,503.2 L127.1,500.1 L123.1,497.9 L118.6,496.9 L114.0,497.2 L109.7,498.7 L105.8,501.2 L102.4,504.4 L99.5,507.9 L96.7,511.6 L94.0,515.3 L91.2,518.9 L88.1,522.3 L84.6,525.4 L80.8,527.9 L76.6,529.9 L72.2,531.1 L67.7,531.6 L63.1,531.4 L58.6,530.4 L54.3,528.6 L50.5,526.1 L47.1,523.0 L44.3,519.3 L42.1,515.3 L40.4,511.0 L39.1,506.6 L38.0,502.1 L37.1,497.6 L36.3,493.1 L35.4,488.6" fill="none" opacity="0.4" stroke="rgb(76,84,178)" stroke-width="0.8" /><path d="M787.6,20.7 L789.7,16.5 L791.2,12.2 L792.3,7.7 L793.0,3.2" fill="none" opacity="0.4" stroke="rgb(76,84,178)" stroke-width="0.8" /><path d="M294.7,580.9 L298.4,578.1 L302.3,575.7 L306.5,573.9 L311.0,572.7 L315.5,572.1 L320.1,572.1 L324.7,572.7 L329.2,573.7 L333.5,575.1 L337.9,576.7 L342.2,578.3 L346.5,579.8 L351.0,581.0 L355.5,582.0 L360.0,582.7 L364.6,583.2 L369.2,583.5 L373.7,584.0 L378.3,584.8 L382.7,585.9 L387.0,587.5 L391.1,589.7 L394.8,592.5 L398.1,595.6 L401.0,599.2 L403.6,603.0 L406.0,607.0 L408.1,611.0 L410.1,615.2 L412.0,619.3" fill="none" opacity="0.4" stroke="rgb(76,84,178)" stroke-width="0.8" /><path d="M102.9,585.3 L105.3,581.4 L106.6,577.0 L107.1,572.4 L106.9,567.8 L106.0,563.3 L104.5,558.9 L102.4,554.9 L99.7,551.1 L96.4,547.9 L92.7,545.2 L88.6,543.2 L84.2,541.6 L79.8,540.4 L75.3,539.4 L70.8,538.4 L66.4,537.2 L62.0,535.7 L57.8,533.9 L53.8,531.6 L50.2,528.8 L47.0,525.5 L44.3,521.7 L42.2,517.6 L40.5,513.4 L39.2,508.9 L38.2,504.5 L37.4,499.9 L36.5,495.4 L35.7,490.9 L34.9,486.4" fill="none" opacity="0.4" stroke="rgb(76,84,178)" stroke-width="0.8" /><path d="M131.3,95.2 L135.7,93.6 L140.0,92.2 L144.4,90.8 L148.9,89.6 L153.4,88.8 L158.0,88.3 L162.6,88.3 L167.1,89.0 L171.5,90.4 L175.6,92.5 L179.3,95.3 L182.6,98.5 L185.6,101.9 L188.5,105.6 L191.3,109.2 L194.3,112.7 L197.5,115.9 L201.2,118.7 L205.2,120.9 L209.6,122.4 L214.1,123.0 L218.7,122.8 L223.2,121.8 L227.5,120.1 L231.5,117.7 L235.0,114.8 L238.1,111.3 L240.6,107.5 L242.6,103.4 L244.3,99.1" fill="none" opacity="0.4" stroke="rgb(76,84,178)" stroke-width="0.8" /><path d="M645.7,628.0 L650.0,629.7 L654.3,631.3 L658.7,632.5 L663.2,633.4 L667.8,634.0 L672.4,634.3 L677.0,634.3 L681.6,634.2 L686.2,634.0 L690.8,633.8 L695.4,633.5 L700.0,633.2 L704.5,632.8 L709.1,632.4 L713.7,631.8 L718.2,630.9 L722.7,629.8 L727.0,628.2 L731.0,626.1 L734.6,623.2 L737.6,619.6 L739.5,615.5 L740.5,611.0 L740.4,606.4 L739.5,601.9 L737.9,597.6 L735.8,593.5 L733.5,589.5 L731.2,585.5 L728.9,581.5" fill="none" opacity="0.4" stroke="rgb(76,84,178)" stroke-width="0.8" /><path d="M375.8,391.7 L378.8,395.2 L382.5,398.0 L386.6,400.1 L390.9,401.8 L395.3,403.1 L399.7,404.5 L404.0,405.9 L408.3,407.6 L412.4,409.8 L416.2,412.4 L419.6,415.4 L422.6,418.9 L425.2,422.7 L427.4,426.7 L429.4,430.9 L431.2,435.1 L433.0,439.4 L434.9,443.5 L437.0,447.6 L439.5,451.5 L442.4,455.1 L445.7,458.3 L449.4,461.0 L453.4,463.2 L457.7,464.9 L462.2,466.0 L466.7,466.7 L471.3,467.1 L475.9,467.1 L480.5,466.7" fill="none" opacity="0.4" stroke="rgb(76,84,178)" stroke-width="0.8" /></g><g id="phyllotaxisGroup"><circle cx="380.82799720182925" cy="417.5629798383629" fill="rgb(220,140,59)" opacity="0.85" r="3.0" /><circle cx="403.2149634223855" cy="363.37061405941483" fill="rgb(59,220,187)" opacity="0.85" r="3.5545177444479563" /><circle cx="427.4000664149936" cy="435.7394490268298" fill="rgb(220,59,207)" opacity="0.85" r="3.8788898309344875" /><circle cx="348.7941408274952" cy="390.9415346338998" fill="rgb(160,220,59)" opacity="0.85" r="4.109035488895913" /><circle cx="449.0555606321631" cy="368.7962865744603" fill="rgb(59,113,220)" opacity="0.85" r="4.287550329947281" /><circle cx="383.4648372818206" cy="461.5039194398063" fill="rgb(220,59,66)" opacity="0.85" r="4.433407575382444" /><circle cx="368.2956186538782" cy="338.95084056163967" fill="rgb(59,220,100)" opacity="0.85" r="4.556728119244251" /><circle cx="469.0772402822767" cy="425.2294766444149" fill="rgb(147,59,220)" opacity="0.85" r="4.663553233343869" /><circle cx="327.8986663093036" cy="429.7592548442517" fill="rgb(220,193,59)" opacity="0.85" r="4.757779661868976" /><circle cx="434.8519708529508" cy="325.5313512367577" fill="rgb(59,200,220)" opacity="0.85" r="4.842068074395237" /><circle cx="425.8046493058719" cy="482.2823404337459" fill="rgb(220,59,153)" opacity="0.85" r="4.918316218238696" /><circle cx="322.0741830042675" cy="354.83525190264754" fill="rgb(106,220,59)" opacity="0.85" r="4.9879253198304" /><circle cx="491.56051862903007" cy="379.87581540462963" fill="rgb(60,59,220)" opacity="0.85" r="5.051959485969229" /><circle cx="344.04405133019907" cy="479.5818266804923" fill="rgb(220,107,59)" opacity="0.85" r="5.111245863692208" /><circle cx="387.06522574913214" cy="300.13483642172207" fill="rgb(59,220,153)" opacity="0.85" r="5.166440160881768" /><circle cx="479.5204880173047" cy="467.0289133062937" fill="rgb(200,59,220)" opacity="0.85" r="5.218070977791825" /><circle cx="292.88859001822675" cy="404.42188165210536" fill="rgb(193,220,59)" opacity="0.85" r="5.266570675244973" /><circle cx="478.19717413802437" cy="322.19490315826323" fill="rgb(59,146,220)" opacity="0.85" r="5.312297406316931" /><circle cx="394.7561091183718" cy="513.2119989146112" fill="rgb(220,59,99)" opacity="0.85" r="5.355551183333152" /><circle cx="325.50723489889367" cy="310.7178237860011" fill="rgb(59,220,67)" opacity="0.85" r="5.396585818843192" /><circle cx="518.0836331635098" cy="415.89838271389914" fill="rgb(113,59,220)" opacity="0.85" r="5.435617950178738" /><circle cx="299.88757780454785" cy="469.64215582725245" fill="rgb(220,160,59)" opacity="0.85" r="5.472833962686654" /><circle cx="427.3794946897928" cy="278.349212214901" fill="rgb(59,220,207)" opacity="0.85" r="5.50839537274332" /><circle cx="463.3178502738499" cy="510.52341239302064" fill="rgb(220,59,186)" opacity="0.85" r="5.542443064278357" /><circle cx="276.1518133950192" cy="360.4750018715616" fill="rgb(139,220,59)" opacity="0.85" r="5.575100659894561" /><circle cx="520.3580474747874" cy="344.407166266255" fill="rgb(59,92,220)" opacity="0.85" r="5.606477230417186" /><circle cx="347.82838112800334" cy="524.6225055552244" fill="rgb(220,73,59)" opacity="0.85" r="5.636669492803463" /><circle cx="353.45015401056634" cy="270.5326971894346" fill="rgb(59,220,120)" opacity="0.85" r="5.665763608140163" /><circle cx="523.9335816058903" cy="465.1549074215794" fill="rgb(167,59,220)" opacity="0.85" r="5.693836663989179" /><circle cx="262.28894309222676" cy="436.2819978531816" fill="rgb(220,214,59)" opacity="0.85" r="5.720957905329724" /><circle cx="478.3096153171338" cy="278.2447263406937" fill="rgb(59,179,220)" opacity="0.85" r="5.747189763588118" /><circle cx="424.89288329948425" cy="544.9589970581478" fill="rgb(220,59,132)" opacity="0.85" r="5.772588722239782" /><circle cx="281.92394418182107" cy="308.5295924269277" fill="rgb(86,220,59)" opacity="0.85" r="5.797206049173184" /><circle cx="551.0915491046217" cy="387.50367412304064" fill="rgb(80,59,220)" opacity="0.85" r="5.821088419692929" /><circle cx="295.5271983991017" cy="512.8993890550902" fill="rgb(220,127,59)" opacity="0.85" r="5.844278449191531" /><circle cx="400.78415211600185" cy="243.99920711448914" fill="rgb(59,220,174)" opacity="0.85" r="5.866815150764888" /><circle cx="506.2438988167177" cy="517.1542581034421" fill="rgb(220,59,219)" opacity="0.85" r="5.88873433011538" /><circle cx="240.4086656102918" cy="385.1839219982804" fill="rgb(172,220,59)" opacity="0.85" r="5.910068927781109" /><circle cx="529.3553705151511" cy="301.85662401045863" fill="rgb(59,126,220)" opacity="0.85" r="5.930849316903718" /><circle cx="370.5410480396321" cy="561.7811121028319" fill="rgb(220,59,79)" opacity="0.85" r="5.951103563291149" /><circle cx="311.3533868431593" cy="259.07888727465445" fill="rgb(59,220,87)" opacity="0.85" r="5.9708576533634465" /><circle cx="562.5021196423772" cy="444.5653127416204" fill="rgb(134,59,220)" opacity="0.85" r="5.990135694626694" /><circle cx="248.29788666166144" cy="477.8170851985708" fill="rgb(220,181,59)" opacity="0.85" r="6.00896009255485" /><circle cx="459.9819197954598" cy="238.29896973158588" fill="rgb(59,212,220)" opacity="0.85" r="6.027351707134609" /><circle cx="465.73248193519566" cy="561.5559304480976" fill="rgb(220,59,166)" opacity="0.85" r="6.045329991816256" /><circle cx="240.66028836728057" cy="324.4489702703598" fill="rgb(119,220,59)" opacity="0.85" r="6.062913117191276" /><circle cx="570.348304916723" cy="347.5158999267192" fill="rgb(59,72,220)" opacity="0.85" r="6.080118081368047" /><circle cx="308.88825248533897" cy="555.3956214486864" fill="rgb(220,94,59)" opacity="0.85" r="6.096960808726313" /><circle cx="361.8238981901618" cy="222.04562690594125" fill="rgb(59,220,141)" opacity="0.85" r="6.113456238488501" /><circle cx="549.8620767853333" cy="506.5014344803733" fill="rgb(188,59,220)" opacity="0.85" r="6.1296184043425175" /><circle cx="215.7401778010567" cy="422.92464787297746" fill="rgb(206,220,59)" opacity="0.85" r="6.145460506179461" /><circle cx="521.5571562273263" cy="257.25160848924645" fill="rgb(59,159,220)" opacity="0.85" r="6.160994974865142" /><circle cx="406.85691337909293" cy="589.1619734512976" fill="rgb(220,59,112)" opacity="0.85" r="6.176233530841698" /><circle cx="265.92012190434247" cy="263.88284566952166" fill="rgb(65,220,59)" opacity="0.85" r="6.19118723725142" /><circle cx="592.5707796574804" cy="409.8900044175696" fill="rgb(101,59,220)" opacity="0.85" r="6.205866548185977" /><circle cx="249.97767371521206" cy="523.8977115747739" fill="rgb(220,148,59)" opacity="0.85" r="6.22028135258812" /><circle cx="427.17027667910395" cy="205.59027458832725" fill="rgb(59,220,194)" opacity="0.85" r="6.23444101426764" /><circle cx="512.2586549759916" cy="563.1176986244539" fill="rgb(220,59,199)" opacity="0.85" r="6.248354408437136" /><circle cx="205.38338055073126" cy="355.169378681629" fill="rgb(152,220,59)" opacity="0.85" r="6.262029955124576" /><circle cx="575.2538786021943" cy="300.7653530230704" fill="rgb(59,105,220)" opacity="0.85" r="6.275475649777681" /><circle cx="337.28834209149375" cy="593.1442700165106" fill="rgb(220,61,59)" opacity="0.85" r="6.28869909133865" /><circle cx="315.08774605796066" cy="213.71152971688582" fill="rgb(59,220,108)" opacity="0.85" r="6.301707508036074" /><circle cx="589.9610354300221" cy="480.64932733997097" fill="rgb(154,59,220)" opacity="0.85" r="6.314507781113226" /><circle cx="203.91255858338013" cy="469.39198983179097" fill="rgb(220,201,59)" opacity="0.85" r="6.327106466687738" /><circle cx="498.4763638505119" cy="214.94875669423587" fill="rgb(59,192,220)" opacity="0.85" r="6.339509815916509" /><circle cx="452.7875087568886" cy="604.5264280174197" fill="rgb(220,59,145)" opacity="0.85" r="6.35172379362114" /><circle cx="221.58452675277792" cy="283.9761934067455" fill="rgb(98,220,59)" opacity="0.85" r="6.363754095512773" /><circle cx="611.4919642235501" cy="364.7753238286064" fill="rgb(68,59,220)" opacity="0.85" r="6.375606164140885" /><circle cx="266.8774624552958" cy="570.0706990997262" fill="rgb(220,114,59)" opacity="0.85" r="6.387285203677807" /><circle cx="383.15947414667005" cy="183.1173742880959" fill="rgb(59,220,161)" opacity="0.85" r="6.3987961936394875" /><circle cx="560.0502882007918" cy="549.6048322937661" fill="rgb(208,59,220)" opacity="0.85" r="6.410143901633052" /><circle cx="179.38992425807652" cy="397.78211090426885" fill="rgb(185,220,59)" opacity="0.85" r="6.421332895212844" /><circle cx="565.3059101005952" cy="251.5961436188131" fill="rgb(59,138,220)" opacity="0.85" r="6.432367552918713" /><circle cx="378.20525800430477" cy="622.600003765568" fill="rgb(220,59,91)" opacity="0.85" r="6.443252074563336" /><circle cx="264.8030212072616" cy="219.93453042712082" fill="rgb(59,220,74)" opacity="0.85" r="6.453990490829048" /><circle cx="622.7929474837326" cy="441.72676492123696" fill="rgb(121,59,220)" opacity="0.85" r="6.464586672229065" /><circle cx="206.27080362040607" cy="520.5107579492137" fill="rgb(220,168,59)" opacity="0.85" r="6.475044337482947" /><circle cx="461.8446566375396" cy="178.85500975862493" fill="rgb(59,220,215)" opacity="0.85" r="6.485367061351674" /><circle cx="504.4412516582535" cy="606.1502296084732" fill="rgb(220,59,178)" opacity="0.85" r="6.495558281973617" /><circle cx="182.3716732700682" cy="318.0254455797733" fill="rgb(131,220,59)" opacity="0.85" r="6.505621307739105" /><circle cx="617.190573672912" cy="312.9012352131683" fill="rgb(59,84,220)" opacity="0.85" r="6.515559323737952" /><circle cx="298.06044258950294" cy="612.2316910991576" fill="rgb(220,81,59)" opacity="0.85" r="6.525375397811403" /><circle cx="331.39298996933036" cy="173.27755691461937" fill="rgb(59,220,128)" opacity="0.85" r="6.535072486237279" /><circle cx="604.9606427632694" cy="521.5612886329991" fill="rgb(175,59,220)" opacity="0.85" r="6.544653439074651" /><circle cx="165.3704720656011" cy="449.10214404101725" fill="rgb(218,220,59)" opacity="0.85" r="6.554121005192254" /><circle cx="540.6614823912615" cy="204.1622935905031" fill="rgb(59,171,220)" opacity="0.85" r="6.5634778370028055" /><circle cx="428.7316863905914" cy="640.8081685273321" fill="rgb(220,59,125)" opacity="0.85" r="6.572726494923668" /><circle cx="215.0976360283531" cy="240.93641654317065" fill="rgb(78,220,59)" opacity="0.85" r="6.581869451582566" /><circle cx="645.1684283866274" cy="392.34667007387833" fill="rgb(88,59,220)" opacity="0.85" r="6.590909095785712" /><circle cx="223.40565571335998" cy="572.2108976069585" fill="rgb(220,135,59)" opacity="0.85" r="6.599847736264213" /><circle cx="413.96634795139073" cy="152.36494439272295" fill="rgb(59,220,182)" opacity="0.85" r="6.60868760521348" /><circle cx="557.8360840015412" cy="593.0854064394116" fill="rgb(220,59,211)" opacity="0.85" r="6.6174308616392326" /><circle cx="151.8516765085059" cy="364.0467373765475" fill="rgb(165,220,59)" opacity="0.85" r="6.626079594522605" /><circle cx="608.374852417234" cy="258.1332583827277" fill="rgb(59,118,220)" opacity="0.85" r="6.634635825816003" /><circle cx="341.87272307450405" cy="646.6647423656824" fill="rgb(220,59,71)" opacity="0.85" r="6.643101513280433" /><circle cx="275.5928662288573" cy="177.6912856677756" fill="rgb(59,220,95)" opacity="0.85" r="6.651478553174269" /><circle cx="643.1576355467641" cy="480.30372113794226" fill="rgb(142,59,220)" opacity="0.85" r="6.659768782802706" /><circle cx="165.25757391056618" cy="505.57623169556626" fill="rgb(220,189,59)" opacity="0.85" r="6.6679739829364575" /><circle cx="502.2949656492116" cy="162.38242644890173" fill="rgb(59,205,220)" opacity="0.85" r="6.676095880107672" /><circle cx="485.5068429550446" cy="645.5422061834628" fill="rgb(220,59,158)" opacity="0.85" r="6.684136148790474" /></g><g filter="url(#phyllotaxisGlow)" id="phyllotaxisGlowGroup"><circle cx="169.94733817965482" cy="276.0879668835568" fill="rgb(111,220,59)" opacity="0.85" r="6.692096413473008" /><circle cx="654.5863587244417" cy="335.6553882193519" fill="rgb(59,64,220)" opacity="0.85" r="6.699978250627417" /><circle cx="255.03376346690763" cy="620.4886784651306" fill="rgb(220,102,59)" opacity="0.85" r="6.707783190583709" /><circle cx="357.75310098155836" cy="138.23351906462585" fill="rgb(59,220,149)" opacity="0.85" r="6.715512719313098" /><circle cx="608.969059788853" cy="565.2708293106277" fill="rgb(196,59,220)" opacity="0.85" r="6.723168280126019" /><circle cx="133.0114339080634" cy="419.3815504624178" fill="rgb(198,220,59)" opacity="0.85" r="6.730751275289654" /><circle cx="584.6426532961399" cy="204.44526735971598" fill="rgb(59,151,220)" opacity="0.85" r="6.738263067569525" /><circle cx="395.92556334676624" cy="670.1739917022104" fill="rgb(220,59,104)" opacity="0.85" r="6.745704981699376" /><circle cx="219.67620605628997" cy="197.0962294185012" fill="rgb(59,220,62)" opacity="0.85" r="6.7530783057833155" /><circle cx="671.2603836406133" cy="427.93633830132615" fill="rgb(109,59,220)" opacity="0.85" r="6.760384292633933" /><circle cx="180.11693498708868" cy="563.3710390588323" fill="rgb(220,155,59)" opacity="0.85" r="6.767624161049867" /><circle cx="452.0132079079452" cy="129.7976520496993" fill="rgb(59,220,202)" opacity="0.85" r="6.774799097036075" /><circle cx="544.8073419179937" cy="635.4177994831138" fill="rgb(220,59,191)" opacity="0.85" r="6.781910254969873" /><circle cx="133.02793689678276" cy="323.89055208889033" fill="rgb(144,220,59)" opacity="0.85" r="6.788958758715596" /><circle cx="649.3551153801625" cy="275.2411088348259" fill="rgb(59,97,220)" opacity="0.85" r="6.7959457026906005" /><circle cx="299.9735643000565" cy="661.5597266481957" fill="rgb(220,69,59)" opacity="0.85" r="6.802872152885092" /><circle cx="296.63371223141536" cy="138.44653902471168" fill="rgb(59,220,115)" opacity="0.85" r="6.809739147838205" /><circle cx="653.9738513755906" cy="523.5641904629117" fill="rgb(162,59,220)" opacity="0.85" r="6.816547699572532" /><circle cx="128.11606394540058" cy="480.78351078567744" fill="rgb(220,209,59)" opacity="0.85" r="6.823298794489224" /><circle cx="546.5230670453614" cy="155.75859262787253" fill="rgb(59,184,220)" opacity="0.85" r="6.829993394225637" /><circle cx="457.17675911683324" cy="680.2315407310326" fill="rgb(220,59,137)" opacity="0.85" r="6.836632436477393" /><circle cx="167.59219237835728" cy="231.29453739670998" fill="rgb(90,220,59)" opacity="0.85" r="6.843216835786606" /><circle cx="686.4963171099528" cy="367.27682181972955" fill="rgb(75,59,220)" opacity="0.85" r="6.849747484297934" /><circle cx="210.08247835502053" cy="618.5367361157134" fill="rgb(220,122,59)" opacity="0.85" r="6.85622525248403" /><circle cx="392.39051853185515" cy="109.40562668254921" fill="rgb(59,220,169)" opacity="0.85" r="6.862650989841841" /><circle cx="602.7098187616118" cy="609.970824977439" fill="rgb(216,59,220)" opacity="0.85" r="6.869025525561183" /><circle cx="107.54121967123172" cy="382.0304778923626" fill="rgb(177,220,59)" opacity="0.85" r="6.875349669166873" /><circle cx="628.6840481205124" cy="214.97386129663028" fill="rgb(59,130,220)" opacity="0.85" r="6.881624211135694" /><circle cx="356.1875166905209" cy="692.0403330477075" fill="rgb(220,59,83)" opacity="0.85" r="6.8878499234893376" /><circle cx="234.39840100725004" cy="154.1154250801822" fill="rgb(59,220,82)" opacity="0.85" r="6.894027560364465" /><circle cx="689.3081681783453" cy="469.7131375699095" fill="rgb(129,59,220)" opacity="0.85" r="6.900157858560921" /><circle cx="138.58994762218776" cy="544.5681368506771" fill="rgb(220,176,59)" opacity="0.85" r="6.9062415380690965" /><circle cx="495.4619866849348" cy="115.74976741098732" fill="rgb(59,217,220)" opacity="0.85" r="6.912279302577403" /><circle cx="522.072795034469" cy="675.1098731294659" fill="rgb(220,59,170)" opacity="0.85" r="6.918271839960729" /><circle cx="123.12640291390471" cy="279.151976559231" fill="rgb(123,220,59)" opacity="0.85" r="6.924219822750744" /><circle cx="686.846572511909" cy="301.7233429384166" fill="rgb(59,77,220)" opacity="0.85" r="6.9301239085888415" /><circle cx="254.33951503672122" cy="667.2046117816609" fill="rgb(220,89,59)" opacity="0.85" r="6.9359847406625" /><circle cx="326.6463457738517" cy="103.50287218778635" fill="rgb(59,220,136)" opacity="0.85" r="6.941802948125764" /><circle cx="655.2889005440696" cy="569.6906202484906" fill="rgb(183,59,220)" opacity="0.85" r="6.9475791465045535" /><circle cx="96.04585198041417" cy="447.4892534696097" fill="rgb(210,220,59)" opacity="0.85" r="6.953313938087444" /><circle cx="592.7334571217214" cy="158.80880664622413" fill="rgb(59,164,220)" opacity="0.85" r="6.9590079123025355" /><circle cx="420.8790362231342" cy="709.1269432514704" fill="rgb(220,59,117)" opacity="0.85" r="6.964661646081009" /><circle cx="175.0050032634526" cy="185.41044621598752" fill="rgb(70,220,59)" opacity="0.85" r="6.970275704207926" /><circle cx="711.9424639616424" cy="406.27282068417196" fill="rgb(96,59,220)" opacity="0.85" r="6.9758506396608" /><circle cx="164.93327986111544" cy="606.802103802257" fill="rgb(220,143,59)" opacity="0.85" r="6.981386993936459" /><circle cx="433.75515006708696" cy="87.65389893591367" fill="rgb(59,220,190)" opacity="0.85" r="6.986885297366669" /><circle cx="586.7319467675911" cy="653.981694250726" fill="rgb(220,59,204)" opacity="0.85" r="6.9923460694229895" /><circle cx="89.69766078820368" cy="338.6485274026216" fill="rgb(157,220,59)" opacity="0.85" r="6.9977698190112925" /><circle cx="671.1617595665181" cy="235.07920382478986" fill="rgb(59,110,220)" opacity="0.85" r="7.003157044756367" /><circle cx="311.1582652832468" cy="705.7952566455033" fill="rgb(220,59,63)" opacity="0.85" r="7.008508235277005" /><circle cx="258.47918767251224" cy="113.5537110649974" fill="rgb(59,220,103)" opacity="0.85" r="7.013823869451939" /><circle cx="698.8288662644261" cy="516.004092193683" fill="rgb(150,59,220)" opacity="0.85" r="7.019104416677021" /><circle cx="100.31179802265063" cy="516.6989557204437" fill="rgb(220,197,59)" opacity="0.85" r="7.024350337113948" /><circle cx="542.6167247977033" cy="110.57270614067755" fill="rgb(59,197,220)" opacity="0.85" r="7.029562081930904" /><circle cx="490.63576448122876" cy="710.7553229982609" fill="rgb(220,59,150)" opacity="0.85" r="7.034740093535397" /><circle cx="122.36520922268102" cy="231.54033278858606" fill="rgb(103,220,59)" opacity="0.85" r="7.0398848057996295" /><circle cx="719.5316273710513" cy="336.47599202939523" fill="rgb(63,59,220)" opacity="0.85" r="7.044996644278647" /><circle cx="206.68335893021612" cy="663.5155796468854" fill="rgb(220,110,59)" opacity="0.85" r="7.050076026421574" /><circle cx="364.4327731995244" cy="74.08163482099235" fill="rgb(59,220,157)" opacity="0.85" r="7.055123361776185" /><circle cx="647.1535331693008" cy="616.9768729087518" fill="rgb(203,59,220)" opacity="0.85" r="7.060139052187061" /><circle cx="70.16494815811467" cy="406.97817052571094" fill="rgb(190,220,59)" opacity="0.85" r="7.0651234919875705" /><circle cx="639.2368828234764" cy="171.34831263157693" fill="rgb(59,143,220)" opacity="0.85" r="7.070077068185907" /><circle cx="377.9771451920555" cy="731.2203164930027" fill="rgb(220,59,96)" opacity="0.85" r="7.07500016064541" /><circle cx="191.8684079277827" cy="140.09777121925902" fill="rgb(59,220,70)" opacity="0.85" r="7.079893142259359" /><circle cx="730.0325999915017" cy="451.20971625246335" fill="rgb(116,59,220)" opacity="0.85" r="7.084756379120464" /><circle cx="121.21080820056937" cy="585.7325027660061" fill="rgb(220,163,59)" opacity="0.85" r="7.089590230685235" /><circle cx="480.3522469515391" cy="73.74930435347903" fill="rgb(59,220,210)" opacity="0.85" r="7.0943950499334045" /></g></svg>